{
  "metadata": {
    "duration_seconds": 271.44,
    "source_file": "best_part.mp3",
    "bpm": 67,
    "time_signature": "4/4",
    "first_beat_time": 0.0,
    "num_bars": 72,
    "num_notes": 1835
  },
  "note_events": [
    {
      "midi": 59,
      "name": "B3",
      "start": 0.0,
      "duration": 0.4478,
      "bar": 1,
      "beat": 1.0,
      "duration_beats": 0.5,
      "velocity": 0.68,
      "role": "chord",
      "is_tied": false
    },
    {
      "midi": 52,
      "name": "E3",
      "start": 0.0,
      "duration": 0.4478,
      "bar": 1,
      "beat": 1.0,
      "duration_beats": 0.5,
      "velocity": 0.52,
      "role": "chord",
      "is_tied": false
    },
    {
      "midi": 49,
      "name": "C#3",
      "start": 0.0,
      "duration": 0.4478,
      "bar": 1,
      "beat": 1.0,
      "duration_beats": 0.5,
      "velocity": 0.72,
      "role": "chord",
      "is_tied": false
    },
    {
      "midi": 41,
      "name": "F2",
      "start": 0.2239,
      "duration": 0.2239,
      "bar": 1,
      "beat": 1.25,
      "duration_beats": 0.25,
      "velocity": 1.0,
      "role": "bass",
      "is_tied": false
    },
    {
      "midi": 71,
      "name": "B4",
      "start": 0.4478,
      "duration": 1.3433,
      "bar": 1,
      "beat": 1.5,
      "duration_beats": 1.5,
      "velocity": 0.82,
      "role": "melody",
      "is_tied": false
    },
    {
      "midi": 66,
      "name": "F#4",
      "start": 0.4478,
      "duration": 3.5821,
      "bar": 1,
      "beat": 1.5,
      "duration_beats": 4.0,
      "velocity": 0.94,
      "role": "melody",
      "is_tied": false
    },
    {
      "midi": 61,
      "name": "C#4",
      "start": 0.4478,
      "duration": 3.5821,
      "bar": 1,
      "beat": 1.5,
      "duration_beats": 4.0,
      "velocity": 1.0,
      "role": "chord",
      "is_tied": false
    },
    {
      "midi": 57,
      "name": "A3",
      "start": 0.4478,
      "duration": 3.5821,
      "bar": 1,
      "beat": 1.5,
      "duration_beats": 4.0,
      "velocity": 0.3,
      "role": "chord",
      "is_tied": false
    },
    {
      "midi": 66,
      "name": "F#4",
      "start": 1.5672,
      "duration": 2.6866,
      "bar": 1,
      "beat": 2.75,
      "duration_beats": 3.0,
      "velocity": 1.0,
      "role": "melody",
      "is_tied": false
    },
    {
      "midi": 61,
      "name": "C#4",
      "start": 1.5672,
      "duration": 2.6866,
      "bar": 1,
      "beat": 2.75,
      "duration_beats": 3.0,
      "velocity": 0.99,
      "role": "chord",
      "is_tied": false
    },
    {
      "midi": 57,
      "name": "A3",
      "start": 1.5672,
      "duration": 1.791,
      "bar": 1,
      "beat": 2.75,
      "duration_beats": 2.0,
      "velocity": 0.34,
      "role": "chord",
      "is_tied": false
    },
    {
      "midi": 45,
      "name": "A2",
      "start": 3.5821,
      "duration": 1.791,
      "bar": 2,
      "beat": 1.0,
      "duration_beats": 2.0,
      "velocity": 1.0,
      "role": "bass",
      "is_tied": false
    },
    {
      "midi": 74,
      "name": "D5",
      "start": 4.0299,
      "duration": 3.5821,
      "bar": 2,
      "beat": 1.5,
      "duration_beats": 4.0,
      "velocity": 0.7,
      "role": "melody",
      "is_tied": false
    },
    {
      "midi": 67,
      "name": "G4",
      "start": 4.0299,
      "duration": 1.3433,
      "bar": 2,
      "beat": 1.5,
      "duration_beats": 1.5,
      "velocity": 0.57,
      "role": "chord",
      "is_tied": false
    },
    {
      "midi": 50,
      "name": "D3",
      "start": 4.0299,
      "duration": 3.5821,
      "bar": 2,
      "beat": 1.5,
      "duration_beats": 4.0,
      "velocity": 0.58,
      "role": "chord",
      "is_tied": false
    },
    {
      "midi": 45,
      "name": "A2",
      "start": 4.0299,
      "duration": 1.3433,
      "bar": 2,
      "beat": 1.5,
      "duration_beats": 1.5,
      "velocity": 1.0,
      "role": "bass",
      "is_tied": false
    },
    {
      "midi": 64,
      "name": "E4",
      "start": 5.1493,
      "duration": 2.6866,
      "bar": 2,
      "beat": 2.75,
      "duration_beats": 3.0,
      "velocity": 0.91,
      "role": "chord",
      "is_tied": false
    },
    {
      "midi": 60,
      "name": "C4",
      "start": 5.1493,
      "duration": 2.6866,
      "bar": 2,
      "beat": 2.75,
      "duration_beats": 3.0,
      "velocity": 0.57,
      "role": "chord",
      "is_tied": false
    },
    {
      "midi": 74,
      "name": "D5",
      "start": 7.3881,
      "duration": 2.6866,
      "bar": 3,
      "beat": 1.25,
      "duration_beats": 3.0,
      "velocity": 0.55,
      "role": "melody",
      "is_tied": false
    },
    {
      "midi": 67,
      "name": "G4",
      "start": 7.3881,
      "duration": 1.3433,
      "bar": 3,
      "beat": 1.25,
      "duration_beats": 1.5,
      "velocity": 0.8,
      "role": "melody",
      "is_tied": false
    },
    {
      "midi": 62,
      "name": "D4",
      "start": 7.3881,
      "duration": 3.5821,
      "bar": 3,
      "beat": 1.25,
      "duration_beats": 4.0,
      "velocity": 0.87,
      "role": "chord",
      "is_tied": false
    },
    {
      "midi": 57,
      "name": "A3",
      "start": 7.3881,
      "duration": 3.5821,
      "bar": 3,
      "beat": 1.25,
      "duration_beats": 4.0,
      "velocity": 0.35,
      "role": "chord",
      "is_tied": false
    },
    {
      "midi": 74,
      "name": "D5",
      "start": 8.7313,
      "duration": 1.3433,
      "bar": 3,
      "beat": 2.75,
      "duration_beats": 1.5,
      "velocity": 0.46,
      "role": "melody",
      "is_tied": false
    },
    {
      "midi": 50,
      "name": "D3",
      "start": 8.7313,
      "duration": 1.3433,
      "bar": 3,
      "beat": 2.75,
      "duration_beats": 1.5,
      "velocity": 0.77,
      "role": "chord",
      "is_tied": false
    },
    {
      "midi": 43,
      "name": "G2",
      "start": 8.7313,
      "duration": 1.3433,
      "bar": 3,
      "beat": 2.75,
      "duration_beats": 1.5,
      "velocity": 0.91,
      "role": "bass",
      "is_tied": false
    },
    {
      "midi": 74,
      "name": "D5",
      "start": 10.0746,
      "duration": 0.8955,
      "bar": 3,
      "beat": 4.25,
      "duration_beats": 1.0,
      "velocity": 1.0,
      "role": "melody",
      "is_tied": false
    },
    {
      "midi": 69,
      "name": "A4",
      "start": 10.0746,
      "duration": 2.6866,
      "bar": 3,
      "beat": 4.25,
      "duration_beats": 3.0,
      "velocity": 0.7,
      "role": "melody",
      "is_tied": false
    },
    {
      "midi": 65,
      "name": "F4",
      "start": 10.0746,
      "duration": 2.6866,
      "bar": 3,
      "beat": 4.25,
      "duration_beats": 3.0,
      "velocity": 1.0,
      "role": "chord",
      "is_tied": false
    },
    {
      "midi": 50,
      "name": "D3",
      "start": 10.0746,
      "duration": 3.5821,
      "bar": 3,
      "beat": 4.25,
      "duration_beats": 4.0,
      "velocity": 0.89,
      "role": "chord",
      "is_tied": false
    },
    {
      "midi": 40,
      "name": "E2",
      "start": 10.0746,
      "duration": 2.6866,
      "bar": 3,
      "beat": 4.25,
      "duration_beats": 3.0,
      "velocity": 0.63,
      "role": "bass",
      "is_tied": false
    },
    {
      "midi": 58,
      "name": "A#3",
      "start": 10.9701,
      "duration": 3.5821,
      "bar": 4,
      "beat": 1.25,
      "duration_beats": 4.0,
      "velocity": 0.41,
      "role": "chord",
      "is_tied": false
    },
    {
      "midi": 50,
      "name": "D3",
      "start": 10.9701,
      "duration": 3.5821,
      "bar": 4,
      "beat": 1.25,
      "duration_beats": 4.0,
      "velocity": 0.62,
      "role": "chord",
      "is_tied": false
    },
    {
      "midi": 74,
      "name": "D5",
      "start": 12.7612,
      "duration": 0.8955,
      "bar": 4,
      "beat": 3.25,
      "duration_beats": 1.0,
      "velocity": 0.32,
      "role": "melody",
      "is_tied": false
    },
    {
      "midi": 50,
      "name": "D3",
      "start": 13.4328,
      "duration": 3.5821,
      "bar": 4,
      "beat": 4.0,
      "duration_beats": 4.0,
      "velocity": 0.62,
      "role": "chord",
      "is_tied": false
    },
    {
      "midi": 42,
      "name": "F#2",
      "start": 13.4328,
      "duration": 0.8955,
      "bar": 4,
      "beat": 4.0,
      "duration_beats": 1.0,
      "velocity": 0.7,
      "role": "bass",
      "is_tied": false
    },
    {
      "midi": 57,
      "name": "A3",
      "start": 14.5522,
      "duration": 2.6866,
      "bar": 5,
      "beat": 1.25,
      "duration_beats": 3.0,
      "velocity": 0.74,
      "role": "chord",
      "is_tied": false
    },
    {
      "midi": 50,
      "name": "D3",
      "start": 14.5522,
      "duration": 3.5821,
      "bar": 5,
      "beat": 1.25,
      "duration_beats": 4.0,
      "velocity": 1.0,
      "role": "chord",
      "is_tied": false
    },
    {
      "midi": 66,
      "name": "F#4",
      "start": 15.6716,
      "duration": 1.3433,
      "bar": 5,
      "beat": 2.5,
      "duration_beats": 1.5,
      "velocity": 1.0,
      "role": "melody",
      "is_tied": false
    },
    {
      "midi": 64,
      "name": "E4",
      "start": 15.6716,
      "duration": 1.3433,
      "bar": 5,
      "beat": 2.5,
      "duration_beats": 1.5,
      "velocity": 0.88,
      "role": "chord",
      "is_tied": false
    },
    {
      "midi": 61,
      "name": "C#4",
      "start": 15.6716,
      "duration": 1.791,
      "bar": 5,
      "beat": 2.5,
      "duration_beats": 2.0,
      "velocity": 0.77,
      "role": "chord",
      "is_tied": false
    },
    {
      "midi": 57,
      "name": "A3",
      "start": 15.6716,
      "duration": 1.3433,
      "bar": 5,
      "beat": 2.5,
      "duration_beats": 1.5,
      "velocity": 0.72,
      "role": "chord",
      "is_tied": false
    },
    {
      "midi": 73,
      "name": "C#5",
      "start": 17.0149,
      "duration": 0.8955,
      "bar": 5,
      "beat": 4.0,
      "duration_beats": 1.0,
      "velocity": 1.0,
      "role": "melody",
      "is_tied": false
    },
    {
      "midi": 41,
      "name": "F2",
      "start": 17.0149,
      "duration": 0.4478,
      "bar": 5,
      "beat": 4.0,
      "duration_beats": 0.5,
      "velocity": 1.0,
      "role": "bass",
      "is_tied": false
    },
    {
      "midi": 80,
      "name": "G#5",
      "start": 17.2388,
      "duration": 0.2239,
      "bar": 5,
      "beat": 4.25,
      "duration_beats": 0.25,
      "velocity": 0.71,
      "role": "melody",
      "is_tied": false
    },
    {
      "midi": 73,
      "name": "C#5",
      "start": 17.2388,
      "duration": 0.6716,
      "bar": 5,
      "beat": 4.25,
      "duration_beats": 0.75,
      "velocity": 1.0,
      "role": "melody",
      "is_tied": false
    },
    {
      "midi": 49,
      "name": "C#3",
      "start": 17.2388,
      "duration": 0.4478,
      "bar": 5,
      "beat": 4.25,
      "duration_beats": 0.5,
      "velocity": 0.35,
      "role": "chord",
      "is_tied": false
    },
    {
      "midi": 40,
      "name": "E2",
      "start": 17.2388,
      "duration": 0.2239,
      "bar": 5,
      "beat": 4.25,
      "duration_beats": 0.25,
      "velocity": 1.0,
      "role": "bass",
      "is_tied": false
    },
    {
      "midi": 74,
      "name": "D5",
      "start": 17.4627,
      "duration": 0.4478,
      "bar": 5,
      "beat": 4.5,
      "duration_beats": 0.5,
      "velocity": 0.82,
      "role": "melody",
      "is_tied": false
    },
    {
      "midi": 69,
      "name": "A4",
      "start": 17.6866,
      "duration": 1.791,
      "bar": 5,
      "beat": 4.75,
      "duration_beats": 2.0,
      "velocity": 0.49,
      "role": "melody",
      "is_tied": false
    },
    {
      "midi": 66,
      "name": "F#4",
      "start": 17.6866,
      "duration": 1.791,
      "bar": 5,
      "beat": 4.75,
      "duration_beats": 2.0,
      "velocity": 1.0,
      "role": "melody",
      "is_tied": false
    },
    {
      "midi": 59,
      "name": "B3",
      "start": 17.9104,
      "duration": 3.5821,
      "bar": 6,
      "beat": 1.0,
      "duration_beats": 4.0,
      "velocity": 0.49,
      "role": "chord",
      "is_tied": false
    },
    {
      "midi": 54,
      "name": "F#3",
      "start": 17.9104,
      "duration": 2.6866,
      "bar": 6,
      "beat": 1.0,
      "duration_beats": 3.0,
      "velocity": 1.0,
      "role": "bass",
      "is_tied": false
    },
    {
      "midi": 52,
      "name": "E3",
      "start": 17.9104,
      "duration": 1.3433,
      "bar": 6,
      "beat": 1.0,
      "duration_beats": 1.5,
      "velocity": 0.58,
      "role": "chord",
      "is_tied": false
    },
    {
      "midi": 68,
      "name": "G#4",
      "start": 19.4776,
      "duration": 1.791,
      "bar": 6,
      "beat": 2.75,
      "duration_beats": 2.0,
      "velocity": 1.0,
      "role": "melody",
      "is_tied": false
    },
    {
      "midi": 63,
      "name": "D#4",
      "start": 19.4776,
      "duration": 1.3433,
      "bar": 6,
      "beat": 2.75,
      "duration_beats": 1.5,
      "velocity": 0.97,
      "role": "chord",
      "is_tied": false
    },
    {
      "midi": 60,
      "name": "C4",
      "start": 19.4776,
      "duration": 1.791,
      "bar": 6,
      "beat": 2.75,
      "duration_beats": 2.0,
      "velocity": 0.48,
      "role": "chord",
      "is_tied": false
    },
    {
      "midi": 54,
      "name": "F#3",
      "start": 19.4776,
      "duration": 1.3433,
      "bar": 6,
      "beat": 2.75,
      "duration_beats": 1.5,
      "velocity": 0.93,
      "role": "bass",
      "is_tied": false
    },
    {
      "midi": 74,
      "name": "D5",
      "start": 20.597,
      "duration": 3.5821,
      "bar": 6,
      "beat": 4.0,
      "duration_beats": 4.0,
      "velocity": 1.0,
      "role": "melody",
      "is_tied": false
    },
    {
      "midi": 63,
      "name": "D#4",
      "start": 20.8209,
      "duration": 0.6716,
      "bar": 6,
      "beat": 4.25,
      "duration_beats": 0.75,
      "velocity": 1.0,
      "role": "chord",
      "is_tied": false
    },
    {
      "midi": 60,
      "name": "C4",
      "start": 20.8209,
      "duration": 0.6716,
      "bar": 6,
      "beat": 4.25,
      "duration_beats": 0.75,
      "velocity": 0.42,
      "role": "chord",
      "is_tied": false
    },
    {
      "midi": 33,
      "name": "A1",
      "start": 20.8209,
      "duration": 1.791,
      "bar": 6,
      "beat": 4.25,
      "duration_beats": 2.0,
      "velocity": 1.0,
      "role": "bass",
      "is_tied": false
    },
    {
      "midi": 74,
      "name": "D5",
      "start": 21.4925,
      "duration": 3.5821,
      "bar": 7,
      "beat": 1.0,
      "duration_beats": 4.0,
      "velocity": 1.0,
      "role": "melody",
      "is_tied": false
    },
    {
      "midi": 57,
      "name": "A3",
      "start": 21.4925,
      "duration": 3.5821,
      "bar": 7,
      "beat": 1.0,
      "duration_beats": 4.0,
      "velocity": 0.51,
      "role": "chord",
      "is_tied": false
    },
    {
      "midi": 52,
      "name": "E3",
      "start": 21.4925,
      "duration": 0.8955,
      "bar": 7,
      "beat": 1.0,
      "duration_beats": 1.0,
      "velocity": 0.51,
      "role": "chord",
      "is_tied": false
    },
    {
      "midi": 50,
      "name": "D3",
      "start": 21.4925,
      "duration": 3.5821,
      "bar": 7,
      "beat": 1.0,
      "duration_beats": 4.0,
      "velocity": 1.0,
      "role": "bass",
      "is_tied": false
    },
    {
      "midi": 74,
      "name": "D5",
      "start": 22.6119,
      "duration": 2.6866,
      "bar": 7,
      "beat": 2.25,
      "duration_beats": 3.0,
      "velocity": 0.55,
      "role": "melody",
      "is_tied": false
    },
    {
      "midi": 40,
      "name": "E2",
      "start": 22.6119,
      "duration": 1.791,
      "bar": 7,
      "beat": 2.25,
      "duration_beats": 2.0,
      "velocity": 0.58,
      "role": "bass",
      "is_tied": false
    },
    {
      "midi": 74,
      "name": "D5",
      "start": 22.8358,
      "duration": 2.6866,
      "bar": 7,
      "beat": 2.5,
      "duration_beats": 3.0,
      "velocity": 0.34,
      "role": "melody",
      "is_tied": false
    },
    {
      "midi": 57,
      "name": "A3",
      "start": 22.8358,
      "duration": 3.5821,
      "bar": 7,
      "beat": 2.5,
      "duration_beats": 4.0,
      "velocity": 0.61,
      "role": "chord",
      "is_tied": false
    },
    {
      "midi": 52,
      "name": "E3",
      "start": 22.8358,
      "duration": 1.791,
      "bar": 7,
      "beat": 2.5,
      "duration_beats": 2.0,
      "velocity": 0.33,
      "role": "chord",
      "is_tied": false
    },
    {
      "midi": 60,
      "name": "C4",
      "start": 24.403,
      "duration": 2.6866,
      "bar": 7,
      "beat": 4.25,
      "duration_beats": 3.0,
      "velocity": 0.41,
      "role": "chord",
      "is_tied": false
    },
    {
      "midi": 51,
      "name": "D#3",
      "start": 24.403,
      "duration": 0.4478,
      "bar": 7,
      "beat": 4.25,
      "duration_beats": 0.5,
      "velocity": 0.88,
      "role": "chord",
      "is_tied": false
    },
    {
      "midi": 58,
      "name": "A#3",
      "start": 24.8507,
      "duration": 3.5821,
      "bar": 7,
      "beat": 4.75,
      "duration_beats": 4.0,
      "velocity": 0.74,
      "role": "chord",
      "is_tied": false
    },
    {
      "midi": 58,
      "name": "A#3",
      "start": 25.5224,
      "duration": 2.6866,
      "bar": 8,
      "beat": 1.5,
      "duration_beats": 3.0,
      "velocity": 1.0,
      "role": "chord",
      "is_tied": false
    },
    {
      "midi": 50,
      "name": "D3",
      "start": 25.5224,
      "duration": 3.5821,
      "bar": 8,
      "beat": 1.5,
      "duration_beats": 4.0,
      "velocity": 0.76,
      "role": "chord",
      "is_tied": false
    },
    {
      "midi": 48,
      "name": "C3",
      "start": 25.5224,
      "duration": 2.6866,
      "bar": 8,
      "beat": 1.5,
      "duration_beats": 3.0,
      "velocity": 1.0,
      "role": "bass",
      "is_tied": false
    },
    {
      "midi": 58,
      "name": "A#3",
      "start": 26.194,
      "duration": 2.6866,
      "bar": 8,
      "beat": 2.25,
      "duration_beats": 3.0,
      "velocity": 0.5,
      "role": "chord",
      "is_tied": false
    },
    {
      "midi": 50,
      "name": "D3",
      "start": 26.194,
      "duration": 3.5821,
      "bar": 8,
      "beat": 2.25,
      "duration_beats": 4.0,
      "velocity": 0.68,
      "role": "chord",
      "is_tied": false
    },
    {
      "midi": 48,
      "name": "C3",
      "start": 26.194,
      "duration": 1.791,
      "bar": 8,
      "beat": 2.25,
      "duration_beats": 2.0,
      "velocity": 0.84,
      "role": "bass",
      "is_tied": false
    },
    {
      "midi": 58,
      "name": "A#3",
      "start": 27.5373,
      "duration": 0.8955,
      "bar": 8,
      "beat": 3.75,
      "duration_beats": 1.0,
      "velocity": 1.0,
      "role": "chord",
      "is_tied": false
    },
    {
      "midi": 50,
      "name": "D3",
      "start": 27.5373,
      "duration": 2.6866,
      "bar": 8,
      "beat": 3.75,
      "duration_beats": 3.0,
      "velocity": 0.69,
      "role": "chord",
      "is_tied": false
    },
    {
      "midi": 70,
      "name": "A#4",
      "start": 27.9851,
      "duration": 0.6716,
      "bar": 8,
      "beat": 4.25,
      "duration_beats": 0.75,
      "velocity": 1.0,
      "role": "melody",
      "is_tied": false
    },
    {
      "midi": 62,
      "name": "D4",
      "start": 27.9851,
      "duration": 1.791,
      "bar": 8,
      "beat": 4.25,
      "duration_beats": 2.0,
      "velocity": 1.0,
      "role": "chord",
      "is_tied": false
    },
    {
      "midi": 41,
      "name": "F2",
      "start": 27.9851,
      "duration": 0.2239,
      "bar": 8,
      "beat": 4.25,
      "duration_beats": 0.25,
      "velocity": 0.88,
      "role": "bass",
      "is_tied": false
    },
    {
      "midi": 45,
      "name": "A2",
      "start": 28.209,
      "duration": 0.4478,
      "bar": 8,
      "beat": 4.5,
      "duration_beats": 0.5,
      "velocity": 1.0,
      "role": "bass",
      "is_tied": false
    },
    {
      "midi": 71,
      "name": "B4",
      "start": 28.4328,
      "duration": 1.3433,
      "bar": 8,
      "beat": 4.75,
      "duration_beats": 1.5,
      "velocity": 0.74,
      "role": "melody",
      "is_tied": false
    },
    {
      "midi": 69,
      "name": "A4",
      "start": 28.4328,
      "duration": 1.3433,
      "bar": 8,
      "beat": 4.75,
      "duration_beats": 1.5,
      "velocity": 0.58,
      "role": "melody",
      "is_tied": false
    },
    {
      "midi": 62,
      "name": "D4",
      "start": 28.4328,
      "duration": 1.3433,
      "bar": 8,
      "beat": 4.75,
      "duration_beats": 1.5,
      "velocity": 1.0,
      "role": "chord",
      "is_tied": false
    },
    {
      "midi": 74,
      "name": "D5",
      "start": 29.7761,
      "duration": 0.2239,
      "bar": 9,
      "beat": 2.25,
      "duration_beats": 0.25,
      "velocity": 1.0,
      "role": "melody",
      "is_tied": false
    },
    {
      "midi": 69,
      "name": "A4",
      "start": 29.7761,
      "duration": 0.2239,
      "bar": 9,
      "beat": 2.25,
      "duration_beats": 0.25,
      "velocity": 0.92,
      "role": "melody",
      "is_tied": false
    },
    {
      "midi": 64,
      "name": "E4",
      "start": 29.7761,
      "duration": 0.2239,
      "bar": 9,
      "beat": 2.25,
      "duration_beats": 0.25,
      "velocity": 1.0,
      "role": "chord",
      "is_tied": false
    },
    {
      "midi": 38,
      "name": "D2",
      "start": 29.7761,
      "duration": 0.2239,
      "bar": 9,
      "beat": 2.25,
      "duration_beats": 0.25,
      "velocity": 1.0,
      "role": "bass",
      "is_tied": false
    },
    {
      "midi": 74,
      "name": "D5",
      "start": 30.0,
      "duration": 0.6716,
      "bar": 9,
      "beat": 2.5,
      "duration_beats": 0.75,
      "velocity": 0.44,
      "role": "melody",
      "is_tied": false
    },
    {
      "midi": 64,
      "name": "E4",
      "start": 30.0,
      "duration": 3.5821,
      "bar": 9,
      "beat": 2.5,
      "duration_beats": 4.0,
      "velocity": 1.0,
      "role": "melody",
      "is_tied": false
    },
    {
      "midi": 38,
      "name": "D2",
      "start": 30.0,
      "duration": 0.2239,
      "bar": 9,
      "beat": 2.5,
      "duration_beats": 0.25,
      "velocity": 1.0,
      "role": "bass",
      "is_tied": false
    },
    {
      "midi": 61,
      "name": "C#4",
      "start": 30.2239,
      "duration": 1.791,
      "bar": 9,
      "beat": 2.75,
      "duration_beats": 2.0,
      "velocity": 0.41,
      "role": "chord",
      "is_tied": false
    },
    {
      "midi": 52,
      "name": "E3",
      "start": 30.2239,
      "duration": 2.6866,
      "bar": 9,
      "beat": 2.75,
      "duration_beats": 3.0,
      "velocity": 0.82,
      "role": "chord",
      "is_tied": false
    },
    {
      "midi": 64,
      "name": "E4",
      "start": 30.6716,
      "duration": 2.6866,
      "bar": 9,
      "beat": 3.25,
      "duration_beats": 3.0,
      "velocity": 1.0,
      "role": "melody",
      "is_tied": false
    },
    {
      "midi": 62,
      "name": "D4",
      "start": 30.6716,
      "duration": 2.6866,
      "bar": 9,
      "beat": 3.25,
      "duration_beats": 3.0,
      "velocity": 1.0,
      "role": "chord",
      "is_tied": false
    },
    {
      "midi": 74,
      "name": "D5",
      "start": 31.1194,
      "duration": 0.8955,
      "bar": 9,
      "beat": 3.75,
      "duration_beats": 1.0,
      "velocity": 0.58,
      "role": "melody",
      "is_tied": false
    },
    {
      "midi": 64,
      "name": "E4",
      "start": 31.1194,
      "duration": 2.6866,
      "bar": 9,
      "beat": 3.75,
      "duration_beats": 3.0,
      "velocity": 1.0,
      "role": "melody",
      "is_tied": false
    },
    {
      "midi": 62,
      "name": "D4",
      "start": 31.1194,
      "duration": 2.6866,
      "bar": 9,
      "beat": 3.75,
      "duration_beats": 3.0,
      "velocity": 0.75,
      "role": "chord",
      "is_tied": false
    },
    {
      "midi": 57,
      "name": "A3",
      "start": 31.1194,
      "duration": 2.6866,
      "bar": 9,
      "beat": 3.75,
      "duration_beats": 3.0,
      "velocity": 0.81,
      "role": "chord",
      "is_tied": false
    },
    {
      "midi": 60,
      "name": "C4",
      "start": 32.0149,
      "duration": 1.3433,
      "bar": 9,
      "beat": 4.75,
      "duration_beats": 1.5,
      "velocity": 0.81,
      "role": "chord",
      "is_tied": false
    },
    {
      "midi": 57,
      "name": "A3",
      "start": 32.0149,
      "duration": 1.3433,
      "bar": 9,
      "beat": 4.75,
      "duration_beats": 1.5,
      "velocity": 0.72,
      "role": "chord",
      "is_tied": false
    },
    {
      "midi": 55,
      "name": "G3",
      "start": 32.0149,
      "duration": 1.3433,
      "bar": 9,
      "beat": 4.75,
      "duration_beats": 1.5,
      "velocity": 0.64,
      "role": "chord",
      "is_tied": false
    },
    {
      "midi": 52,
      "name": "E3",
      "start": 32.0149,
      "duration": 1.3433,
      "bar": 9,
      "beat": 4.75,
      "duration_beats": 1.5,
      "velocity": 0.59,
      "role": "chord",
      "is_tied": false
    },
    {
      "midi": 74,
      "name": "D5",
      "start": 33.3582,
      "duration": 0.4478,
      "bar": 10,
      "beat": 2.25,
      "duration_beats": 0.5,
      "velocity": 1.0,
      "role": "melody",
      "is_tied": false
    },
    {
      "midi": 67,
      "name": "G4",
      "start": 33.3582,
      "duration": 0.2239,
      "bar": 10,
      "beat": 2.25,
      "duration_beats": 0.25,
      "velocity": 0.55,
      "role": "melody",
      "is_tied": false
    },
    {
      "midi": 50,
      "name": "D3",
      "start": 33.3582,
      "duration": 3.5821,
      "bar": 10,
      "beat": 2.25,
      "duration_beats": 4.0,
      "velocity": 0.48,
      "role": "chord",
      "is_tied": false
    },
    {
      "midi": 64,
      "name": "E4",
      "start": 33.5821,
      "duration": 1.791,
      "bar": 10,
      "beat": 2.5,
      "duration_beats": 2.0,
      "velocity": 1.0,
      "role": "melody",
      "is_tied": false
    },
    {
      "midi": 41,
      "name": "F2",
      "start": 33.5821,
      "duration": 0.4478,
      "bar": 10,
      "beat": 2.5,
      "duration_beats": 0.5,
      "velocity": 1.0,
      "role": "bass",
      "is_tied": false
    },
    {
      "midi": 33,
      "name": "A1",
      "start": 33.806,
      "duration": 0.2239,
      "bar": 10,
      "beat": 2.75,
      "duration_beats": 0.25,
      "velocity": 1.0,
      "role": "bass",
      "is_tied": false
    },
    {
      "midi": 57,
      "name": "A3",
      "start": 34.2537,
      "duration": 2.6866,
      "bar": 10,
      "beat": 3.25,
      "duration_beats": 3.0,
      "velocity": 0.35,
      "role": "chord",
      "is_tied": false
    },
    {
      "midi": 54,
      "name": "F#3",
      "start": 34.2537,
      "duration": 2.6866,
      "bar": 10,
      "beat": 3.25,
      "duration_beats": 3.0,
      "velocity": 0.95,
      "role": "bass",
      "is_tied": false
    },
    {
      "midi": 50,
      "name": "D3",
      "start": 34.2537,
      "duration": 2.6866,
      "bar": 10,
      "beat": 3.25,
      "duration_beats": 3.0,
      "velocity": 0.33,
      "role": "chord",
      "is_tied": false
    },
    {
      "midi": 74,
      "name": "D5",
      "start": 35.597,
      "duration": 1.791,
      "bar": 10,
      "beat": 4.75,
      "duration_beats": 2.0,
      "velocity": 0.59,
      "role": "melody",
      "is_tied": false
    },
    {
      "midi": 59,
      "name": "B3",
      "start": 35.597,
      "duration": 1.3433,
      "bar": 10,
      "beat": 4.75,
      "duration_beats": 1.5,
      "velocity": 0.67,
      "role": "chord",
      "is_tied": false
    },
    {
      "midi": 50,
      "name": "D3",
      "start": 35.597,
      "duration": 1.3433,
      "bar": 10,
      "beat": 4.75,
      "duration_beats": 1.5,
      "velocity": 0.57,
      "role": "chord",
      "is_tied": false
    },
    {
      "midi": 69,
      "name": "A4",
      "start": 36.9403,
      "duration": 0.2239,
      "bar": 11,
      "beat": 2.25,
      "duration_beats": 0.25,
      "velocity": 0.53,
      "role": "melody",
      "is_tied": false
    },
    {
      "midi": 52,
      "name": "E3",
      "start": 37.1642,
      "duration": 0.6716,
      "bar": 11,
      "beat": 2.5,
      "duration_beats": 0.75,
      "velocity": 0.48,
      "role": "chord",
      "is_tied": false
    },
    {
      "midi": 43,
      "name": "G2",
      "start": 37.1642,
      "duration": 0.2239,
      "bar": 11,
      "beat": 2.5,
      "duration_beats": 0.25,
      "velocity": 1.0,
      "role": "bass",
      "is_tied": false
    },
    {
      "midi": 41,
      "name": "F2",
      "start": 37.3881,
      "duration": 0.4478,
      "bar": 11,
      "beat": 2.75,
      "duration_beats": 0.5,
      "velocity": 1.0,
      "role": "bass",
      "is_tied": false
    },
    {
      "midi": 74,
      "name": "D5",
      "start": 37.8358,
      "duration": 1.3433,
      "bar": 11,
      "beat": 3.25,
      "duration_beats": 1.5,
      "velocity": 0.97,
      "role": "melody",
      "is_tied": false
    },
    {
      "midi": 69,
      "name": "A4",
      "start": 37.8358,
      "duration": 0.8955,
      "bar": 11,
      "beat": 3.25,
      "duration_beats": 1.0,
      "velocity": 0.48,
      "role": "melody",
      "is_tied": false
    },
    {
      "midi": 50,
      "name": "D3",
      "start": 37.8358,
      "duration": 1.3433,
      "bar": 11,
      "beat": 3.25,
      "duration_beats": 1.5,
      "velocity": 0.65,
      "role": "chord",
      "is_tied": false
    },
    {
      "midi": 42,
      "name": "F#2",
      "start": 37.8358,
      "duration": 0.8955,
      "bar": 11,
      "beat": 3.25,
      "duration_beats": 1.0,
      "velocity": 0.85,
      "role": "bass",
      "is_tied": false
    },
    {
      "midi": 81,
      "name": "A5",
      "start": 38.7313,
      "duration": 0.2239,
      "bar": 11,
      "beat": 4.25,
      "duration_beats": 0.25,
      "velocity": 0.4,
      "role": "melody",
      "is_tied": false
    },
    {
      "midi": 74,
      "name": "D5",
      "start": 38.7313,
      "duration": 0.2239,
      "bar": 11,
      "beat": 4.25,
      "duration_beats": 0.25,
      "velocity": 1.0,
      "role": "melody",
      "is_tied": false
    },
    {
      "midi": 54,
      "name": "F#3",
      "start": 38.7313,
      "duration": 0.2239,
      "bar": 11,
      "beat": 4.25,
      "duration_beats": 0.25,
      "velocity": 1.0,
      "role": "bass",
      "is_tied": false
    },
    {
      "midi": 50,
      "name": "D3",
      "start": 38.7313,
      "duration": 0.2239,
      "bar": 11,
      "beat": 4.25,
      "duration_beats": 0.25,
      "velocity": 0.65,
      "role": "chord",
      "is_tied": false
    },
    {
      "midi": 65,
      "name": "F4",
      "start": 39.1791,
      "duration": 0.8955,
      "bar": 11,
      "beat": 4.75,
      "duration_beats": 1.0,
      "velocity": 1.0,
      "role": "melody",
      "is_tied": false
    },
    {
      "midi": 62,
      "name": "D4",
      "start": 39.1791,
      "duration": 0.2239,
      "bar": 11,
      "beat": 4.75,
      "duration_beats": 0.25,
      "velocity": 0.7,
      "role": "melody",
      "is_tied": false
    },
    {
      "midi": 41,
      "name": "F2",
      "start": 39.1791,
      "duration": 0.4478,
      "bar": 11,
      "beat": 4.75,
      "duration_beats": 0.5,
      "velocity": 1.0,
      "role": "bass",
      "is_tied": false
    },
    {
      "midi": 67,
      "name": "G4",
      "start": 39.403,
      "duration": 1.791,
      "bar": 12,
      "beat": 1.0,
      "duration_beats": 2.0,
      "velocity": 0.49,
      "role": "chord",
      "is_tied": false
    },
    {
      "midi": 65,
      "name": "F4",
      "start": 39.403,
      "duration": 0.8955,
      "bar": 12,
      "beat": 1.0,
      "duration_beats": 1.0,
      "velocity": 1.0,
      "role": "melody",
      "is_tied": false
    },
    {
      "midi": 41,
      "name": "F2",
      "start": 39.403,
      "duration": 0.2239,
      "bar": 12,
      "beat": 1.0,
      "duration_beats": 0.25,
      "velocity": 0.86,
      "role": "bass",
      "is_tied": false
    },
    {
      "midi": 55,
      "name": "G3",
      "start": 39.6269,
      "duration": 1.3433,
      "bar": 12,
      "beat": 1.25,
      "duration_beats": 1.5,
      "velocity": 0.97,
      "role": "chord",
      "is_tied": false
    },
    {
      "midi": 69,
      "name": "A4",
      "start": 40.2985,
      "duration": 0.4478,
      "bar": 12,
      "beat": 2.0,
      "duration_beats": 0.5,
      "velocity": 0.55,
      "role": "melody",
      "is_tied": false
    },
    {
      "midi": 48,
      "name": "C3",
      "start": 40.2985,
      "duration": 0.4478,
      "bar": 12,
      "beat": 2.0,
      "duration_beats": 0.5,
      "velocity": 0.33,
      "role": "chord",
      "is_tied": false
    },
    {
      "midi": 74,
      "name": "D5",
      "start": 40.7463,
      "duration": 1.3433,
      "bar": 12,
      "beat": 2.5,
      "duration_beats": 1.5,
      "velocity": 0.46,
      "role": "melody",
      "is_tied": false
    },
    {
      "midi": 58,
      "name": "A#3",
      "start": 40.7463,
      "duration": 1.3433,
      "bar": 12,
      "beat": 2.5,
      "duration_beats": 1.5,
      "velocity": 0.77,
      "role": "chord",
      "is_tied": false
    },
    {
      "midi": 50,
      "name": "D3",
      "start": 40.7463,
      "duration": 3.5821,
      "bar": 12,
      "beat": 2.5,
      "duration_beats": 4.0,
      "velocity": 0.75,
      "role": "chord",
      "is_tied": false
    },
    {
      "midi": 76,
      "name": "E5",
      "start": 40.9701,
      "duration": 0.8955,
      "bar": 12,
      "beat": 2.75,
      "duration_beats": 1.0,
      "velocity": 0.62,
      "role": "melody",
      "is_tied": false
    },
    {
      "midi": 74,
      "name": "D5",
      "start": 40.9701,
      "duration": 1.3433,
      "bar": 12,
      "beat": 2.75,
      "duration_beats": 1.5,
      "velocity": 1.0,
      "role": "melody",
      "is_tied": false
    },
    {
      "midi": 58,
      "name": "A#3",
      "start": 40.9701,
      "duration": 0.8955,
      "bar": 12,
      "beat": 2.75,
      "duration_beats": 1.0,
      "velocity": 0.47,
      "role": "chord",
      "is_tied": false
    },
    {
      "midi": 50,
      "name": "D3",
      "start": 40.9701,
      "duration": 3.5821,
      "bar": 12,
      "beat": 2.75,
      "duration_beats": 4.0,
      "velocity": 0.35,
      "role": "chord",
      "is_tied": false
    },
    {
      "midi": 69,
      "name": "A4",
      "start": 41.8657,
      "duration": 0.2239,
      "bar": 12,
      "beat": 3.75,
      "duration_beats": 0.25,
      "velocity": 1.0,
      "role": "melody",
      "is_tied": false
    },
    {
      "midi": 67,
      "name": "G4",
      "start": 41.8657,
      "duration": 0.2239,
      "bar": 12,
      "beat": 3.75,
      "duration_beats": 0.25,
      "velocity": 0.38,
      "role": "chord",
      "is_tied": false
    },
    {
      "midi": 48,
      "name": "C3",
      "start": 41.8657,
      "duration": 0.2239,
      "bar": 12,
      "beat": 3.75,
      "duration_beats": 0.25,
      "velocity": 1.0,
      "role": "bass",
      "is_tied": false
    },
    {
      "midi": 45,
      "name": "A2",
      "start": 42.3134,
      "duration": 1.791,
      "bar": 12,
      "beat": 4.25,
      "duration_beats": 2.0,
      "velocity": 1.0,
      "role": "bass",
      "is_tied": false
    },
    {
      "midi": 38,
      "name": "D2",
      "start": 42.5373,
      "duration": 1.3433,
      "bar": 12,
      "beat": 4.5,
      "duration_beats": 1.5,
      "velocity": 1.0,
      "role": "bass",
      "is_tied": false
    },
    {
      "midi": 73,
      "name": "C#5",
      "start": 43.4328,
      "duration": 0.4478,
      "bar": 13,
      "beat": 1.5,
      "duration_beats": 0.5,
      "velocity": 0.5,
      "role": "melody",
      "is_tied": false
    },
    {
      "midi": 54,
      "name": "F#3",
      "start": 43.4328,
      "duration": 0.4478,
      "bar": 13,
      "beat": 1.5,
      "duration_beats": 0.5,
      "velocity": 0.49,
      "role": "chord",
      "is_tied": false
    },
    {
      "midi": 50,
      "name": "D3",
      "start": 43.4328,
      "duration": 0.8955,
      "bar": 13,
      "beat": 1.5,
      "duration_beats": 1.0,
      "velocity": 0.62,
      "role": "chord",
      "is_tied": false
    },
    {
      "midi": 45,
      "name": "A2",
      "start": 43.4328,
      "duration": 0.8955,
      "bar": 13,
      "beat": 1.5,
      "duration_beats": 1.0,
      "velocity": 1.0,
      "role": "bass",
      "is_tied": false
    },
    {
      "midi": 62,
      "name": "D4",
      "start": 43.8806,
      "duration": 0.4478,
      "bar": 13,
      "beat": 2.0,
      "duration_beats": 0.5,
      "velocity": 1.0,
      "role": "chord",
      "is_tied": false
    },
    {
      "midi": 74,
      "name": "D5",
      "start": 44.1045,
      "duration": 0.2239,
      "bar": 13,
      "beat": 2.25,
      "duration_beats": 0.25,
      "velocity": 0.63,
      "role": "melody",
      "is_tied": false
    },
    {
      "midi": 64,
      "name": "E4",
      "start": 44.1045,
      "duration": 0.2239,
      "bar": 13,
      "beat": 2.25,
      "duration_beats": 0.25,
      "velocity": 1.0,
      "role": "melody",
      "is_tied": false
    },
    {
      "midi": 50,
      "name": "D3",
      "start": 44.1045,
      "duration": 0.2239,
      "bar": 13,
      "beat": 2.25,
      "duration_beats": 0.25,
      "velocity": 0.64,
      "role": "chord",
      "is_tied": false
    },
    {
      "midi": 45,
      "name": "A2",
      "start": 44.1045,
      "duration": 0.2239,
      "bar": 13,
      "beat": 2.25,
      "duration_beats": 0.25,
      "velocity": 1.0,
      "role": "bass",
      "is_tied": false
    },
    {
      "midi": 64,
      "name": "E4",
      "start": 44.3284,
      "duration": 0.4478,
      "bar": 13,
      "beat": 2.5,
      "duration_beats": 0.5,
      "velocity": 1.0,
      "role": "melody",
      "is_tied": false
    },
    {
      "midi": 62,
      "name": "D4",
      "start": 44.3284,
      "duration": 1.791,
      "bar": 13,
      "beat": 2.5,
      "duration_beats": 2.0,
      "velocity": 0.97,
      "role": "chord",
      "is_tied": false
    },
    {
      "midi": 54,
      "name": "F#3",
      "start": 44.3284,
      "duration": 1.3433,
      "bar": 13,
      "beat": 2.5,
      "duration_beats": 1.5,
      "velocity": 0.8,
      "role": "bass",
      "is_tied": false
    },
    {
      "midi": 81,
      "name": "A5",
      "start": 44.7761,
      "duration": 0.6716,
      "bar": 13,
      "beat": 3.0,
      "duration_beats": 0.75,
      "velocity": 0.61,
      "role": "melody",
      "is_tied": false
    },
    {
      "midi": 62,
      "name": "D4",
      "start": 44.7761,
      "duration": 1.3433,
      "bar": 13,
      "beat": 3.0,
      "duration_beats": 1.5,
      "velocity": 1.0,
      "role": "chord",
      "is_tied": false
    },
    {
      "midi": 54,
      "name": "F#3",
      "start": 44.7761,
      "duration": 0.8955,
      "bar": 13,
      "beat": 3.0,
      "duration_beats": 1.0,
      "velocity": 0.66,
      "role": "bass",
      "is_tied": false
    },
    {
      "midi": 74,
      "name": "D5",
      "start": 45.4478,
      "duration": 0.2239,
      "bar": 13,
      "beat": 3.75,
      "duration_beats": 0.25,
      "velocity": 0.48,
      "role": "melody",
      "is_tied": false
    },
    {
      "midi": 59,
      "name": "B3",
      "start": 45.4478,
      "duration": 0.2239,
      "bar": 13,
      "beat": 3.75,
      "duration_beats": 0.25,
      "velocity": 0.88,
      "role": "chord",
      "is_tied": false
    },
    {
      "midi": 57,
      "name": "A3",
      "start": 45.4478,
      "duration": 0.2239,
      "bar": 13,
      "beat": 3.75,
      "duration_beats": 0.25,
      "velocity": 0.68,
      "role": "chord",
      "is_tied": false
    },
    {
      "midi": 50,
      "name": "D3",
      "start": 45.4478,
      "duration": 0.6716,
      "bar": 13,
      "beat": 3.75,
      "duration_beats": 0.75,
      "velocity": 0.75,
      "role": "chord",
      "is_tied": false
    },
    {
      "midi": 64,
      "name": "E4",
      "start": 45.8955,
      "duration": 1.3433,
      "bar": 13,
      "beat": 4.25,
      "duration_beats": 1.5,
      "velocity": 1.0,
      "role": "chord",
      "is_tied": false
    },
    {
      "midi": 56,
      "name": "G#3",
      "start": 45.8955,
      "duration": 0.2239,
      "bar": 13,
      "beat": 4.25,
      "duration_beats": 0.25,
      "velocity": 0.45,
      "role": "chord",
      "is_tied": false
    },
    {
      "midi": 60,
      "name": "C4",
      "start": 46.1194,
      "duration": 0.8955,
      "bar": 13,
      "beat": 4.5,
      "duration_beats": 1.0,
      "velocity": 0.79,
      "role": "chord",
      "is_tied": false
    },
    {
      "midi": 59,
      "name": "B3",
      "start": 46.1194,
      "duration": 0.8955,
      "bar": 13,
      "beat": 4.5,
      "duration_beats": 1.0,
      "velocity": 0.43,
      "role": "chord",
      "is_tied": false
    },
    {
      "midi": 57,
      "name": "A3",
      "start": 46.1194,
      "duration": 0.8955,
      "bar": 13,
      "beat": 4.5,
      "duration_beats": 1.0,
      "velocity": 0.49,
      "role": "chord",
      "is_tied": false
    },
    {
      "midi": 52,
      "name": "E3",
      "start": 46.1194,
      "duration": 0.8955,
      "bar": 13,
      "beat": 4.5,
      "duration_beats": 1.0,
      "velocity": 0.58,
      "role": "chord",
      "is_tied": false
    },
    {
      "midi": 72,
      "name": "C5",
      "start": 47.0149,
      "duration": 0.4478,
      "bar": 14,
      "beat": 1.5,
      "duration_beats": 0.5,
      "velocity": 0.45,
      "role": "melody",
      "is_tied": false
    },
    {
      "midi": 42,
      "name": "F#2",
      "start": 47.0149,
      "duration": 0.4478,
      "bar": 14,
      "beat": 1.5,
      "duration_beats": 0.5,
      "velocity": 0.8,
      "role": "bass",
      "is_tied": false
    },
    {
      "midi": 73,
      "name": "C#5",
      "start": 47.2388,
      "duration": 0.4478,
      "bar": 14,
      "beat": 1.75,
      "duration_beats": 0.5,
      "velocity": 0.31,
      "role": "melody",
      "is_tied": false
    },
    {
      "midi": 57,
      "name": "A3",
      "start": 47.2388,
      "duration": 0.4478,
      "bar": 14,
      "beat": 1.75,
      "duration_beats": 0.5,
      "velocity": 1.0,
      "role": "chord",
      "is_tied": false
    },
    {
      "midi": 73,
      "name": "C#5",
      "start": 47.4627,
      "duration": 0.2239,
      "bar": 14,
      "beat": 2.0,
      "duration_beats": 0.25,
      "velocity": 0.31,
      "role": "melody",
      "is_tied": false
    },
    {
      "midi": 59,
      "name": "B3",
      "start": 47.4627,
      "duration": 0.4478,
      "bar": 14,
      "beat": 2.0,
      "duration_beats": 0.5,
      "velocity": 0.72,
      "role": "chord",
      "is_tied": false
    },
    {
      "midi": 74,
      "name": "D5",
      "start": 47.6866,
      "duration": 0.8955,
      "bar": 14,
      "beat": 2.25,
      "duration_beats": 1.0,
      "velocity": 0.66,
      "role": "melody",
      "is_tied": false
    },
    {
      "midi": 71,
      "name": "B4",
      "start": 47.6866,
      "duration": 0.2239,
      "bar": 14,
      "beat": 2.25,
      "duration_beats": 0.25,
      "velocity": 1.0,
      "role": "melody",
      "is_tied": false
    },
    {
      "midi": 50,
      "name": "D3",
      "start": 47.6866,
      "duration": 1.3433,
      "bar": 14,
      "beat": 2.25,
      "duration_beats": 1.5,
      "velocity": 0.66,
      "role": "chord",
      "is_tied": false
    },
    {
      "midi": 74,
      "name": "D5",
      "start": 48.1343,
      "duration": 0.4478,
      "bar": 14,
      "beat": 2.75,
      "duration_beats": 0.5,
      "velocity": 0.91,
      "role": "melody",
      "is_tied": false
    },
    {
      "midi": 69,
      "name": "A4",
      "start": 48.1343,
      "duration": 0.4478,
      "bar": 14,
      "beat": 2.75,
      "duration_beats": 0.5,
      "velocity": 0.52,
      "role": "chord",
      "is_tied": false
    },
    {
      "midi": 67,
      "name": "G4",
      "start": 48.1343,
      "duration": 0.4478,
      "bar": 14,
      "beat": 2.75,
      "duration_beats": 0.5,
      "velocity": 0.34,
      "role": "melody",
      "is_tied": false
    },
    {
      "midi": 64,
      "name": "E4",
      "start": 48.1343,
      "duration": 0.4478,
      "bar": 14,
      "beat": 2.75,
      "duration_beats": 0.5,
      "velocity": 0.84,
      "role": "chord",
      "is_tied": false
    },
    {
      "midi": 60,
      "name": "C4",
      "start": 48.1343,
      "duration": 0.4478,
      "bar": 14,
      "beat": 2.75,
      "duration_beats": 0.5,
      "velocity": 0.54,
      "role": "chord",
      "is_tied": false
    },
    {
      "midi": 54,
      "name": "F#3",
      "start": 48.1343,
      "duration": 0.4478,
      "bar": 14,
      "beat": 2.75,
      "duration_beats": 0.5,
      "velocity": 0.64,
      "role": "chord",
      "is_tied": false
    },
    {
      "midi": 67,
      "name": "G4",
      "start": 48.806,
      "duration": 0.4478,
      "bar": 14,
      "beat": 3.5,
      "duration_beats": 0.5,
      "velocity": 0.31,
      "role": "chord",
      "is_tied": false
    },
    {
      "midi": 64,
      "name": "E4",
      "start": 48.806,
      "duration": 1.791,
      "bar": 14,
      "beat": 3.5,
      "duration_beats": 2.0,
      "velocity": 0.93,
      "role": "melody",
      "is_tied": false
    },
    {
      "midi": 35,
      "name": "B1",
      "start": 48.806,
      "duration": 0.4478,
      "bar": 14,
      "beat": 3.5,
      "duration_beats": 0.5,
      "velocity": 0.38,
      "role": "bass",
      "is_tied": false
    },
    {
      "midi": 64,
      "name": "E4",
      "start": 49.2537,
      "duration": 1.791,
      "bar": 14,
      "beat": 4.0,
      "duration_beats": 2.0,
      "velocity": 1.0,
      "role": "melody",
      "is_tied": false
    },
    {
      "midi": 63,
      "name": "D#4",
      "start": 49.2537,
      "duration": 0.4478,
      "bar": 14,
      "beat": 4.0,
      "duration_beats": 0.5,
      "velocity": 0.42,
      "role": "chord",
      "is_tied": false
    },
    {
      "midi": 60,
      "name": "C4",
      "start": 49.2537,
      "duration": 0.4478,
      "bar": 14,
      "beat": 4.0,
      "duration_beats": 0.5,
      "velocity": 0.48,
      "role": "chord",
      "is_tied": false
    },
    {
      "midi": 56,
      "name": "G#3",
      "start": 49.2537,
      "duration": 0.4478,
      "bar": 14,
      "beat": 4.0,
      "duration_beats": 0.5,
      "velocity": 0.34,
      "role": "chord",
      "is_tied": false
    },
    {
      "midi": 64,
      "name": "E4",
      "start": 49.7015,
      "duration": 1.3433,
      "bar": 14,
      "beat": 4.5,
      "duration_beats": 1.5,
      "velocity": 1.0,
      "role": "melody",
      "is_tied": false
    },
    {
      "midi": 59,
      "name": "B3",
      "start": 49.7015,
      "duration": 1.791,
      "bar": 14,
      "beat": 4.5,
      "duration_beats": 2.0,
      "velocity": 0.63,
      "role": "chord",
      "is_tied": false
    },
    {
      "midi": 78,
      "name": "F#5",
      "start": 51.0448,
      "duration": 0.2239,
      "bar": 15,
      "beat": 2.0,
      "duration_beats": 0.25,
      "velocity": 0.5,
      "role": "melody",
      "is_tied": false
    },
    {
      "midi": 74,
      "name": "D5",
      "start": 51.0448,
      "duration": 0.2239,
      "bar": 15,
      "beat": 2.0,
      "duration_beats": 0.25,
      "velocity": 1.0,
      "role": "melody",
      "is_tied": false
    },
    {
      "midi": 62,
      "name": "D4",
      "start": 51.0448,
      "duration": 0.2239,
      "bar": 15,
      "beat": 2.0,
      "duration_beats": 0.25,
      "velocity": 1.0,
      "role": "chord",
      "is_tied": false
    },
    {
      "midi": 78,
      "name": "F#5",
      "start": 51.2687,
      "duration": 0.2239,
      "bar": 15,
      "beat": 2.25,
      "duration_beats": 0.25,
      "velocity": 0.5,
      "role": "melody",
      "is_tied": true
    },
    {
      "midi": 74,
      "name": "D5",
      "start": 51.2687,
      "duration": 0.2239,
      "bar": 15,
      "beat": 2.25,
      "duration_beats": 0.25,
      "velocity": 1.0,
      "role": "melody",
      "is_tied": true
    },
    {
      "midi": 62,
      "name": "D4",
      "start": 51.2687,
      "duration": 0.2239,
      "bar": 15,
      "beat": 2.25,
      "duration_beats": 0.25,
      "velocity": 1.0,
      "role": "chord",
      "is_tied": true
    },
    {
      "midi": 74,
      "name": "D5",
      "start": 51.4925,
      "duration": 0.2239,
      "bar": 15,
      "beat": 2.5,
      "duration_beats": 0.25,
      "velocity": 0.65,
      "role": "melody",
      "is_tied": false
    },
    {
      "midi": 71,
      "name": "B4",
      "start": 51.4925,
      "duration": 0.2239,
      "bar": 15,
      "beat": 2.5,
      "duration_beats": 0.25,
      "velocity": 0.3,
      "role": "melody",
      "is_tied": false
    },
    {
      "midi": 50,
      "name": "D3",
      "start": 51.4925,
      "duration": 0.2239,
      "bar": 15,
      "beat": 2.5,
      "duration_beats": 0.25,
      "velocity": 0.47,
      "role": "chord",
      "is_tied": false
    },
    {
      "midi": 43,
      "name": "G2",
      "start": 51.4925,
      "duration": 0.2239,
      "bar": 15,
      "beat": 2.5,
      "duration_beats": 0.25,
      "velocity": 1.0,
      "role": "bass",
      "is_tied": false
    },
    {
      "midi": 50,
      "name": "D3",
      "start": 51.7164,
      "duration": 3.5821,
      "bar": 15,
      "beat": 2.75,
      "duration_beats": 4.0,
      "velocity": 0.79,
      "role": "chord",
      "is_tied": false
    },
    {
      "midi": 43,
      "name": "G2",
      "start": 51.7164,
      "duration": 1.791,
      "bar": 15,
      "beat": 2.75,
      "duration_beats": 2.0,
      "velocity": 1.0,
      "role": "bass",
      "is_tied": false
    },
    {
      "midi": 74,
      "name": "D5",
      "start": 53.2836,
      "duration": 0.6716,
      "bar": 15,
      "beat": 4.5,
      "duration_beats": 0.75,
      "velocity": 0.53,
      "role": "melody",
      "is_tied": false
    },
    {
      "midi": 50,
      "name": "D3",
      "start": 53.2836,
      "duration": 2.6866,
      "bar": 15,
      "beat": 4.5,
      "duration_beats": 3.0,
      "velocity": 0.64,
      "role": "chord",
      "is_tied": false
    },
    {
      "midi": 43,
      "name": "G2",
      "start": 53.2836,
      "duration": 0.2239,
      "bar": 15,
      "beat": 4.5,
      "duration_beats": 0.25,
      "velocity": 1.0,
      "role": "bass",
      "is_tied": false
    },
    {
      "midi": 58,
      "name": "A#3",
      "start": 53.5075,
      "duration": 3.5821,
      "bar": 15,
      "beat": 4.75,
      "duration_beats": 4.0,
      "velocity": 0.37,
      "role": "chord",
      "is_tied": false
    },
    {
      "midi": 53,
      "name": "F3",
      "start": 53.5075,
      "duration": 2.6866,
      "bar": 15,
      "beat": 4.75,
      "duration_beats": 3.0,
      "velocity": 1.0,
      "role": "bass",
      "is_tied": false
    },
    {
      "midi": 67,
      "name": "G4",
      "start": 53.9552,
      "duration": 3.5821,
      "bar": 16,
      "beat": 1.25,
      "duration_beats": 4.0,
      "velocity": 1.0,
      "role": "melody",
      "is_tied": false
    },
    {
      "midi": 58,
      "name": "A#3",
      "start": 53.9552,
      "duration": 3.5821,
      "bar": 16,
      "beat": 1.25,
      "duration_beats": 4.0,
      "velocity": 0.64,
      "role": "chord",
      "is_tied": false
    },
    {
      "midi": 74,
      "name": "D5",
      "start": 55.2985,
      "duration": 0.2239,
      "bar": 16,
      "beat": 2.75,
      "duration_beats": 0.25,
      "velocity": 0.32,
      "role": "melody",
      "is_tied": false
    },
    {
      "midi": 67,
      "name": "G4",
      "start": 55.2985,
      "duration": 2.6866,
      "bar": 16,
      "beat": 2.75,
      "duration_beats": 3.0,
      "velocity": 1.0,
      "role": "melody",
      "is_tied": false
    },
    {
      "midi": 62,
      "name": "D4",
      "start": 55.2985,
      "duration": 0.4478,
      "bar": 16,
      "beat": 2.75,
      "duration_beats": 0.5,
      "velocity": 0.71,
      "role": "chord",
      "is_tied": false
    },
    {
      "midi": 58,
      "name": "A#3",
      "start": 55.2985,
      "duration": 2.6866,
      "bar": 16,
      "beat": 2.75,
      "duration_beats": 3.0,
      "velocity": 0.4,
      "role": "chord",
      "is_tied": false
    },
    {
      "midi": 67,
      "name": "G4",
      "start": 55.7463,
      "duration": 1.791,
      "bar": 16,
      "beat": 3.25,
      "duration_beats": 2.0,
      "velocity": 0.78,
      "role": "melody",
      "is_tied": false
    },
    {
      "midi": 65,
      "name": "F4",
      "start": 55.7463,
      "duration": 0.6716,
      "bar": 16,
      "beat": 3.25,
      "duration_beats": 0.75,
      "velocity": 1.0,
      "role": "melody",
      "is_tied": false
    },
    {
      "midi": 58,
      "name": "A#3",
      "start": 55.7463,
      "duration": 1.791,
      "bar": 16,
      "beat": 3.25,
      "duration_beats": 2.0,
      "velocity": 0.78,
      "role": "chord",
      "is_tied": false
    },
    {
      "midi": 57,
      "name": "A3",
      "start": 56.8657,
      "duration": 1.791,
      "bar": 16,
      "beat": 4.5,
      "duration_beats": 2.0,
      "velocity": 0.7,
      "role": "chord",
      "is_tied": false
    },
    {
      "midi": 54,
      "name": "F#3",
      "start": 56.8657,
      "duration": 1.791,
      "bar": 16,
      "beat": 4.5,
      "duration_beats": 2.0,
      "velocity": 0.76,
      "role": "chord",
      "is_tied": false
    },
    {
      "midi": 52,
      "name": "E3",
      "start": 56.8657,
      "duration": 3.5821,
      "bar": 16,
      "beat": 4.5,
      "duration_beats": 4.0,
      "velocity": 0.62,
      "role": "chord",
      "is_tied": false
    },
    {
      "midi": 50,
      "name": "D3",
      "start": 56.8657,
      "duration": 1.3433,
      "bar": 16,
      "beat": 4.5,
      "duration_beats": 1.5,
      "velocity": 0.97,
      "role": "chord",
      "is_tied": false
    },
    {
      "midi": 57,
      "name": "A3",
      "start": 57.5373,
      "duration": 1.3433,
      "bar": 17,
      "beat": 1.25,
      "duration_beats": 1.5,
      "velocity": 0.78,
      "role": "chord",
      "is_tied": false
    },
    {
      "midi": 54,
      "name": "F#3",
      "start": 57.5373,
      "duration": 1.3433,
      "bar": 17,
      "beat": 1.25,
      "duration_beats": 1.5,
      "velocity": 0.9,
      "role": "bass",
      "is_tied": false
    },
    {
      "midi": 52,
      "name": "E3",
      "start": 57.5373,
      "duration": 3.5821,
      "bar": 17,
      "beat": 1.25,
      "duration_beats": 4.0,
      "velocity": 0.53,
      "role": "chord",
      "is_tied": false
    },
    {
      "midi": 50,
      "name": "D3",
      "start": 57.5373,
      "duration": 0.4478,
      "bar": 17,
      "beat": 1.25,
      "duration_beats": 0.5,
      "velocity": 0.72,
      "role": "chord",
      "is_tied": false
    },
    {
      "midi": 69,
      "name": "A4",
      "start": 57.7612,
      "duration": 1.3433,
      "bar": 17,
      "beat": 1.5,
      "duration_beats": 1.5,
      "velocity": 1.0,
      "role": "melody",
      "is_tied": false
    },
    {
      "midi": 74,
      "name": "D5",
      "start": 57.9851,
      "duration": 0.8955,
      "bar": 17,
      "beat": 1.75,
      "duration_beats": 1.0,
      "velocity": 1.0,
      "role": "melody",
      "is_tied": false
    },
    {
      "midi": 49,
      "name": "C#3",
      "start": 57.9851,
      "duration": 0.6716,
      "bar": 17,
      "beat": 1.75,
      "duration_beats": 0.75,
      "velocity": 0.94,
      "role": "chord",
      "is_tied": false
    },
    {
      "midi": 74,
      "name": "D5",
      "start": 58.6567,
      "duration": 0.2239,
      "bar": 17,
      "beat": 2.5,
      "duration_beats": 0.25,
      "velocity": 0.41,
      "role": "melody",
      "is_tied": false
    },
    {
      "midi": 61,
      "name": "C#4",
      "start": 58.6567,
      "duration": 0.2239,
      "bar": 17,
      "beat": 2.5,
      "duration_beats": 0.25,
      "velocity": 0.53,
      "role": "chord",
      "is_tied": false
    },
    {
      "midi": 57,
      "name": "A3",
      "start": 58.6567,
      "duration": 0.2239,
      "bar": 17,
      "beat": 2.5,
      "duration_beats": 0.25,
      "velocity": 0.64,
      "role": "chord",
      "is_tied": false
    },
    {
      "midi": 54,
      "name": "F#3",
      "start": 58.6567,
      "duration": 0.2239,
      "bar": 17,
      "beat": 2.5,
      "duration_beats": 0.25,
      "velocity": 0.44,
      "role": "bass",
      "is_tied": false
    },
    {
      "midi": 64,
      "name": "E4",
      "start": 58.8806,
      "duration": 2.6866,
      "bar": 17,
      "beat": 2.75,
      "duration_beats": 3.0,
      "velocity": 1.0,
      "role": "melody",
      "is_tied": false
    },
    {
      "midi": 54,
      "name": "F#3",
      "start": 58.8806,
      "duration": 0.4478,
      "bar": 17,
      "beat": 2.75,
      "duration_beats": 0.5,
      "velocity": 0.61,
      "role": "chord",
      "is_tied": false
    },
    {
      "midi": 57,
      "name": "A3",
      "start": 59.3284,
      "duration": 0.4478,
      "bar": 17,
      "beat": 3.25,
      "duration_beats": 0.5,
      "velocity": 0.49,
      "role": "chord",
      "is_tied": false
    },
    {
      "midi": 50,
      "name": "D3",
      "start": 59.3284,
      "duration": 0.8955,
      "bar": 17,
      "beat": 3.25,
      "duration_beats": 1.0,
      "velocity": 0.5,
      "role": "chord",
      "is_tied": false
    },
    {
      "midi": 71,
      "name": "B4",
      "start": 59.5522,
      "duration": 1.791,
      "bar": 17,
      "beat": 3.5,
      "duration_beats": 2.0,
      "velocity": 0.35,
      "role": "melody",
      "is_tied": false
    },
    {
      "midi": 57,
      "name": "A3",
      "start": 59.5522,
      "duration": 0.2239,
      "bar": 17,
      "beat": 3.5,
      "duration_beats": 0.25,
      "velocity": 0.44,
      "role": "chord",
      "is_tied": false
    },
    {
      "midi": 52,
      "name": "E3",
      "start": 59.5522,
      "duration": 1.791,
      "bar": 17,
      "beat": 3.5,
      "duration_beats": 2.0,
      "velocity": 0.64,
      "role": "chord",
      "is_tied": false
    },
    {
      "midi": 50,
      "name": "D3",
      "start": 59.5522,
      "duration": 0.6716,
      "bar": 17,
      "beat": 3.5,
      "duration_beats": 0.75,
      "velocity": 0.52,
      "role": "chord",
      "is_tied": false
    },
    {
      "midi": 33,
      "name": "A1",
      "start": 59.7761,
      "duration": 0.4478,
      "bar": 17,
      "beat": 3.75,
      "duration_beats": 0.5,
      "velocity": 0.79,
      "role": "bass",
      "is_tied": false
    },
    {
      "midi": 71,
      "name": "B4",
      "start": 60.4478,
      "duration": 0.8955,
      "bar": 17,
      "beat": 4.5,
      "duration_beats": 1.0,
      "velocity": 0.7,
      "role": "melody",
      "is_tied": false
    },
    {
      "midi": 52,
      "name": "E3",
      "start": 60.4478,
      "duration": 0.8955,
      "bar": 17,
      "beat": 4.5,
      "duration_beats": 1.0,
      "velocity": 0.8,
      "role": "chord",
      "is_tied": false
    },
    {
      "midi": 60,
      "name": "C4",
      "start": 60.6716,
      "duration": 0.6716,
      "bar": 17,
      "beat": 4.75,
      "duration_beats": 0.75,
      "velocity": 0.69,
      "role": "chord",
      "is_tied": false
    },
    {
      "midi": 59,
      "name": "B3",
      "start": 60.6716,
      "duration": 1.791,
      "bar": 17,
      "beat": 4.75,
      "duration_beats": 2.0,
      "velocity": 0.6,
      "role": "chord",
      "is_tied": false
    },
    {
      "midi": 55,
      "name": "G3",
      "start": 60.6716,
      "duration": 0.6716,
      "bar": 17,
      "beat": 4.75,
      "duration_beats": 0.75,
      "velocity": 0.72,
      "role": "chord",
      "is_tied": false
    },
    {
      "midi": 52,
      "name": "E3",
      "start": 60.6716,
      "duration": 0.6716,
      "bar": 17,
      "beat": 4.75,
      "duration_beats": 0.75,
      "velocity": 0.56,
      "role": "chord",
      "is_tied": false
    },
    {
      "midi": 67,
      "name": "G4",
      "start": 61.3433,
      "duration": 0.2239,
      "bar": 18,
      "beat": 1.5,
      "duration_beats": 0.25,
      "velocity": 0.81,
      "role": "melody",
      "is_tied": false
    },
    {
      "midi": 83,
      "name": "B5",
      "start": 61.5672,
      "duration": 0.4478,
      "bar": 18,
      "beat": 1.75,
      "duration_beats": 0.5,
      "velocity": 1.0,
      "role": "melody",
      "is_tied": false
    },
    {
      "midi": 74,
      "name": "D5",
      "start": 61.5672,
      "duration": 0.8955,
      "bar": 18,
      "beat": 1.75,
      "duration_beats": 1.0,
      "velocity": 0.95,
      "role": "melody",
      "is_tied": false
    },
    {
      "midi": 67,
      "name": "G4",
      "start": 61.5672,
      "duration": 0.2239,
      "bar": 18,
      "beat": 1.75,
      "duration_beats": 0.25,
      "velocity": 1.0,
      "role": "chord",
      "is_tied": false
    },
    {
      "midi": 64,
      "name": "E4",
      "start": 61.5672,
      "duration": 0.4478,
      "bar": 18,
      "beat": 1.75,
      "duration_beats": 0.5,
      "velocity": 0.78,
      "role": "chord",
      "is_tied": false
    },
    {
      "midi": 60,
      "name": "C4",
      "start": 61.5672,
      "duration": 0.4478,
      "bar": 18,
      "beat": 1.75,
      "duration_beats": 0.5,
      "velocity": 0.94,
      "role": "chord",
      "is_tied": false
    },
    {
      "midi": 59,
      "name": "B3",
      "start": 61.5672,
      "duration": 0.8955,
      "bar": 18,
      "beat": 1.75,
      "duration_beats": 1.0,
      "velocity": 1.0,
      "role": "chord",
      "is_tied": false
    },
    {
      "midi": 70,
      "name": "A#4",
      "start": 61.791,
      "duration": 0.2239,
      "bar": 18,
      "beat": 2.0,
      "duration_beats": 0.25,
      "velocity": 0.48,
      "role": "chord",
      "is_tied": false
    },
    {
      "midi": 50,
      "name": "D3",
      "start": 62.0149,
      "duration": 1.3433,
      "bar": 18,
      "beat": 2.25,
      "duration_beats": 1.5,
      "velocity": 0.46,
      "role": "chord",
      "is_tied": false
    },
    {
      "midi": 71,
      "name": "B4",
      "start": 62.2388,
      "duration": 1.3433,
      "bar": 18,
      "beat": 2.5,
      "duration_beats": 1.5,
      "velocity": 1.0,
      "role": "melody",
      "is_tied": false
    },
    {
      "midi": 41,
      "name": "F2",
      "start": 62.2388,
      "duration": 0.2239,
      "bar": 18,
      "beat": 2.5,
      "duration_beats": 0.25,
      "velocity": 1.0,
      "role": "bass",
      "is_tied": false
    },
    {
      "midi": 71,
      "name": "B4",
      "start": 62.6866,
      "duration": 0.8955,
      "bar": 18,
      "beat": 3.0,
      "duration_beats": 1.0,
      "velocity": 0.78,
      "role": "melody",
      "is_tied": false
    },
    {
      "midi": 60,
      "name": "C4",
      "start": 62.6866,
      "duration": 0.2239,
      "bar": 18,
      "beat": 3.0,
      "duration_beats": 0.25,
      "velocity": 0.36,
      "role": "chord",
      "is_tied": false
    },
    {
      "midi": 54,
      "name": "F#3",
      "start": 62.6866,
      "duration": 0.4478,
      "bar": 18,
      "beat": 3.0,
      "duration_beats": 0.5,
      "velocity": 1.0,
      "role": "bass",
      "is_tied": false
    },
    {
      "midi": 64,
      "name": "E4",
      "start": 63.1343,
      "duration": 0.6716,
      "bar": 18,
      "beat": 3.5,
      "duration_beats": 0.75,
      "velocity": 1.0,
      "role": "melody",
      "is_tied": false
    },
    {
      "midi": 35,
      "name": "B1",
      "start": 63.3582,
      "duration": 0.2239,
      "bar": 18,
      "beat": 3.75,
      "duration_beats": 0.25,
      "velocity": 1.0,
      "role": "bass",
      "is_tied": false
    },
    {
      "midi": 74,
      "name": "D5",
      "start": 63.806,
      "duration": 0.2239,
      "bar": 18,
      "beat": 4.25,
      "duration_beats": 0.25,
      "velocity": 0.31,
      "role": "melody",
      "is_tied": false
    },
    {
      "midi": 72,
      "name": "C5",
      "start": 63.806,
      "duration": 0.4478,
      "bar": 18,
      "beat": 4.25,
      "duration_beats": 0.5,
      "velocity": 0.49,
      "role": "melody",
      "is_tied": false
    },
    {
      "midi": 62,
      "name": "D4",
      "start": 63.806,
      "duration": 1.3433,
      "bar": 18,
      "beat": 4.25,
      "duration_beats": 1.5,
      "velocity": 1.0,
      "role": "chord",
      "is_tied": false
    },
    {
      "midi": 58,
      "name": "A#3",
      "start": 63.806,
      "duration": 0.4478,
      "bar": 18,
      "beat": 4.25,
      "duration_beats": 0.5,
      "velocity": 0.35,
      "role": "chord",
      "is_tied": false
    },
    {
      "midi": 78,
      "name": "F#5",
      "start": 64.2537,
      "duration": 0.8955,
      "bar": 18,
      "beat": 4.75,
      "duration_beats": 1.0,
      "velocity": 0.36,
      "role": "melody",
      "is_tied": false
    },
    {
      "midi": 59,
      "name": "B3",
      "start": 64.2537,
      "duration": 2.6866,
      "bar": 18,
      "beat": 4.75,
      "duration_beats": 3.0,
      "velocity": 0.85,
      "role": "chord",
      "is_tied": false
    },
    {
      "midi": 55,
      "name": "G3",
      "start": 64.2537,
      "duration": 0.8955,
      "bar": 18,
      "beat": 4.75,
      "duration_beats": 1.0,
      "velocity": 1.0,
      "role": "chord",
      "is_tied": false
    },
    {
      "midi": 67,
      "name": "G4",
      "start": 64.4776,
      "duration": 0.6716,
      "bar": 19,
      "beat": 1.0,
      "duration_beats": 0.75,
      "velocity": 0.57,
      "role": "chord",
      "is_tied": false
    },
    {
      "midi": 52,
      "name": "E3",
      "start": 64.4776,
      "duration": 0.6716,
      "bar": 19,
      "beat": 1.0,
      "duration_beats": 0.75,
      "velocity": 0.33,
      "role": "chord",
      "is_tied": false
    },
    {
      "midi": 50,
      "name": "D3",
      "start": 64.4776,
      "duration": 0.8955,
      "bar": 19,
      "beat": 1.0,
      "duration_beats": 1.0,
      "velocity": 0.47,
      "role": "chord",
      "is_tied": true
    },
    {
      "midi": 74,
      "name": "D5",
      "start": 65.1493,
      "duration": 0.8955,
      "bar": 19,
      "beat": 1.75,
      "duration_beats": 1.0,
      "velocity": 0.68,
      "role": "melody",
      "is_tied": false
    },
    {
      "midi": 83,
      "name": "B5",
      "start": 65.3731,
      "duration": 0.6716,
      "bar": 19,
      "beat": 2.0,
      "duration_beats": 0.75,
      "velocity": 0.96,
      "role": "melody",
      "is_tied": false
    },
    {
      "midi": 54,
      "name": "F#3",
      "start": 65.3731,
      "duration": 0.2239,
      "bar": 19,
      "beat": 2.0,
      "duration_beats": 0.25,
      "velocity": 0.53,
      "role": "chord",
      "is_tied": false
    },
    {
      "midi": 49,
      "name": "C#3",
      "start": 65.3731,
      "duration": 0.4478,
      "bar": 19,
      "beat": 2.0,
      "duration_beats": 0.5,
      "velocity": 0.65,
      "role": "chord",
      "is_tied": false
    },
    {
      "midi": 50,
      "name": "D3",
      "start": 65.597,
      "duration": 2.6866,
      "bar": 19,
      "beat": 2.25,
      "duration_beats": 3.0,
      "velocity": 0.5,
      "role": "chord",
      "is_tied": false
    },
    {
      "midi": 54,
      "name": "F#3",
      "start": 65.8209,
      "duration": 1.791,
      "bar": 19,
      "beat": 2.5,
      "duration_beats": 2.0,
      "velocity": 1.0,
      "role": "bass",
      "is_tied": false
    },
    {
      "midi": 59,
      "name": "B3",
      "start": 66.0448,
      "duration": 0.8955,
      "bar": 19,
      "beat": 2.75,
      "duration_beats": 1.0,
      "velocity": 0.55,
      "role": "chord",
      "is_tied": false
    },
    {
      "midi": 54,
      "name": "F#3",
      "start": 66.0448,
      "duration": 1.791,
      "bar": 19,
      "beat": 2.75,
      "duration_beats": 2.0,
      "velocity": 1.0,
      "role": "bass",
      "is_tied": false
    },
    {
      "midi": 52,
      "name": "E3",
      "start": 66.0448,
      "duration": 1.3433,
      "bar": 19,
      "beat": 2.75,
      "duration_beats": 1.5,
      "velocity": 0.52,
      "role": "chord",
      "is_tied": false
    },
    {
      "midi": 81,
      "name": "A5",
      "start": 67.1642,
      "duration": 0.6716,
      "bar": 19,
      "beat": 4.0,
      "duration_beats": 0.75,
      "velocity": 0.44,
      "role": "melody",
      "is_tied": false
    },
    {
      "midi": 74,
      "name": "D5",
      "start": 67.1642,
      "duration": 0.6716,
      "bar": 19,
      "beat": 4.0,
      "duration_beats": 0.75,
      "velocity": 0.95,
      "role": "melody",
      "is_tied": false
    },
    {
      "midi": 62,
      "name": "D4",
      "start": 67.1642,
      "duration": 0.6716,
      "bar": 19,
      "beat": 4.0,
      "duration_beats": 0.75,
      "velocity": 1.0,
      "role": "chord",
      "is_tied": false
    },
    {
      "midi": 59,
      "name": "B3",
      "start": 67.1642,
      "duration": 0.2239,
      "bar": 19,
      "beat": 4.0,
      "duration_beats": 0.25,
      "velocity": 1.0,
      "role": "chord",
      "is_tied": true
    },
    {
      "midi": 81,
      "name": "A5",
      "start": 67.6119,
      "duration": 0.2239,
      "bar": 19,
      "beat": 4.5,
      "duration_beats": 0.25,
      "velocity": 0.94,
      "role": "melody",
      "is_tied": false
    },
    {
      "midi": 74,
      "name": "D5",
      "start": 67.6119,
      "duration": 0.2239,
      "bar": 19,
      "beat": 4.5,
      "duration_beats": 0.25,
      "velocity": 1.0,
      "role": "melody",
      "is_tied": false
    },
    {
      "midi": 54,
      "name": "F#3",
      "start": 67.6119,
      "duration": 0.2239,
      "bar": 19,
      "beat": 4.5,
      "duration_beats": 0.25,
      "velocity": 1.0,
      "role": "bass",
      "is_tied": false
    },
    {
      "midi": 50,
      "name": "D3",
      "start": 67.6119,
      "duration": 0.6716,
      "bar": 19,
      "beat": 4.5,
      "duration_beats": 0.75,
      "velocity": 0.46,
      "role": "chord",
      "is_tied": false
    },
    {
      "midi": 74,
      "name": "D5",
      "start": 68.0597,
      "duration": 0.2239,
      "bar": 20,
      "beat": 1.0,
      "duration_beats": 0.25,
      "velocity": 0.91,
      "role": "melody",
      "is_tied": false
    },
    {
      "midi": 58,
      "name": "A#3",
      "start": 68.0597,
      "duration": 1.791,
      "bar": 20,
      "beat": 1.0,
      "duration_beats": 2.0,
      "velocity": 0.53,
      "role": "chord",
      "is_tied": false
    },
    {
      "midi": 41,
      "name": "F2",
      "start": 68.2836,
      "duration": 0.4478,
      "bar": 20,
      "beat": 1.25,
      "duration_beats": 0.5,
      "velocity": 0.76,
      "role": "bass",
      "is_tied": false
    },
    {
      "midi": 67,
      "name": "G4",
      "start": 68.7313,
      "duration": 1.3433,
      "bar": 20,
      "beat": 1.75,
      "duration_beats": 1.5,
      "velocity": 1.0,
      "role": "melody",
      "is_tied": false
    },
    {
      "midi": 58,
      "name": "A#3",
      "start": 68.7313,
      "duration": 0.8955,
      "bar": 20,
      "beat": 1.75,
      "duration_beats": 1.0,
      "velocity": 1.0,
      "role": "chord",
      "is_tied": false
    },
    {
      "midi": 41,
      "name": "F2",
      "start": 69.403,
      "duration": 0.2239,
      "bar": 20,
      "beat": 2.5,
      "duration_beats": 0.25,
      "velocity": 1.0,
      "role": "bass",
      "is_tied": false
    },
    {
      "midi": 55,
      "name": "G3",
      "start": 69.6269,
      "duration": 0.2239,
      "bar": 20,
      "beat": 2.75,
      "duration_beats": 0.25,
      "velocity": 0.54,
      "role": "chord",
      "is_tied": false
    },
    {
      "midi": 50,
      "name": "D3",
      "start": 69.6269,
      "duration": 0.2239,
      "bar": 20,
      "beat": 2.75,
      "duration_beats": 0.25,
      "velocity": 0.47,
      "role": "chord",
      "is_tied": false
    },
    {
      "midi": 74,
      "name": "D5",
      "start": 69.8507,
      "duration": 1.3433,
      "bar": 20,
      "beat": 3.0,
      "duration_beats": 1.5,
      "velocity": 0.58,
      "role": "melody",
      "is_tied": false
    },
    {
      "midi": 41,
      "name": "F2",
      "start": 69.8507,
      "duration": 0.4478,
      "bar": 20,
      "beat": 3.0,
      "duration_beats": 0.5,
      "velocity": 0.74,
      "role": "bass",
      "is_tied": false
    },
    {
      "midi": 74,
      "name": "D5",
      "start": 70.0746,
      "duration": 1.3433,
      "bar": 20,
      "beat": 3.25,
      "duration_beats": 1.5,
      "velocity": 0.39,
      "role": "melody",
      "is_tied": false
    },
    {
      "midi": 62,
      "name": "D4",
      "start": 70.0746,
      "duration": 1.3433,
      "bar": 20,
      "beat": 3.25,
      "duration_beats": 1.5,
      "velocity": 1.0,
      "role": "chord",
      "is_tied": false
    },
    {
      "midi": 53,
      "name": "F3",
      "start": 70.0746,
      "duration": 0.6716,
      "bar": 20,
      "beat": 3.25,
      "duration_beats": 0.75,
      "velocity": 1.0,
      "role": "bass",
      "is_tied": false
    },
    {
      "midi": 81,
      "name": "A5",
      "start": 70.2985,
      "duration": 0.2239,
      "bar": 20,
      "beat": 3.5,
      "duration_beats": 0.25,
      "velocity": 0.39,
      "role": "melody",
      "is_tied": false
    },
    {
      "midi": 74,
      "name": "D5",
      "start": 70.2985,
      "duration": 0.8955,
      "bar": 20,
      "beat": 3.5,
      "duration_beats": 1.0,
      "velocity": 1.0,
      "role": "melody",
      "is_tied": false
    },
    {
      "midi": 50,
      "name": "D3",
      "start": 70.2985,
      "duration": 0.2239,
      "bar": 20,
      "beat": 3.5,
      "duration_beats": 0.25,
      "velocity": 0.57,
      "role": "chord",
      "is_tied": false
    },
    {
      "midi": 72,
      "name": "C5",
      "start": 70.5224,
      "duration": 0.2239,
      "bar": 20,
      "beat": 3.75,
      "duration_beats": 0.25,
      "velocity": 1.0,
      "role": "melody",
      "is_tied": false
    },
    {
      "midi": 81,
      "name": "A5",
      "start": 70.9701,
      "duration": 0.2239,
      "bar": 20,
      "beat": 4.25,
      "duration_beats": 0.25,
      "velocity": 0.56,
      "role": "melody",
      "is_tied": false
    },
    {
      "midi": 58,
      "name": "A#3",
      "start": 70.9701,
      "duration": 0.6716,
      "bar": 20,
      "beat": 4.25,
      "duration_beats": 0.75,
      "velocity": 1.0,
      "role": "chord",
      "is_tied": false
    },
    {
      "midi": 67,
      "name": "G4",
      "start": 71.194,
      "duration": 0.2239,
      "bar": 20,
      "beat": 4.5,
      "duration_beats": 0.25,
      "velocity": 0.72,
      "role": "melody",
      "is_tied": false
    },
    {
      "midi": 62,
      "name": "D4",
      "start": 71.194,
      "duration": 0.2239,
      "bar": 20,
      "beat": 4.5,
      "duration_beats": 0.25,
      "velocity": 0.66,
      "role": "chord",
      "is_tied": false
    },
    {
      "midi": 58,
      "name": "A#3",
      "start": 71.194,
      "duration": 0.2239,
      "bar": 20,
      "beat": 4.5,
      "duration_beats": 0.25,
      "velocity": 0.86,
      "role": "chord",
      "is_tied": false
    },
    {
      "midi": 70,
      "name": "A#4",
      "start": 71.4179,
      "duration": 0.6716,
      "bar": 20,
      "beat": 4.75,
      "duration_beats": 0.75,
      "velocity": 0.47,
      "role": "melody",
      "is_tied": false
    },
    {
      "midi": 66,
      "name": "F#4",
      "start": 71.4179,
      "duration": 0.6716,
      "bar": 20,
      "beat": 4.75,
      "duration_beats": 0.75,
      "velocity": 0.45,
      "role": "chord",
      "is_tied": false
    },
    {
      "midi": 65,
      "name": "F4",
      "start": 71.4179,
      "duration": 0.6716,
      "bar": 20,
      "beat": 4.75,
      "duration_beats": 0.75,
      "velocity": 1.0,
      "role": "melody",
      "is_tied": false
    },
    {
      "midi": 61,
      "name": "C#4",
      "start": 71.4179,
      "duration": 0.6716,
      "bar": 20,
      "beat": 4.75,
      "duration_beats": 0.75,
      "velocity": 0.92,
      "role": "chord",
      "is_tied": false
    },
    {
      "midi": 57,
      "name": "A3",
      "start": 71.4179,
      "duration": 1.791,
      "bar": 20,
      "beat": 4.75,
      "duration_beats": 2.0,
      "velocity": 0.68,
      "role": "chord",
      "is_tied": false
    },
    {
      "midi": 83,
      "name": "B5",
      "start": 72.3134,
      "duration": 0.4478,
      "bar": 21,
      "beat": 1.75,
      "duration_beats": 0.5,
      "velocity": 0.45,
      "role": "melody",
      "is_tied": false
    },
    {
      "midi": 74,
      "name": "D5",
      "start": 72.3134,
      "duration": 0.8955,
      "bar": 21,
      "beat": 1.75,
      "duration_beats": 1.0,
      "velocity": 1.0,
      "role": "melody",
      "is_tied": false
    },
    {
      "midi": 36,
      "name": "C2",
      "start": 72.3134,
      "duration": 0.4478,
      "bar": 21,
      "beat": 1.75,
      "duration_beats": 0.5,
      "velocity": 1.0,
      "role": "bass",
      "is_tied": false
    },
    {
      "midi": 69,
      "name": "A4",
      "start": 72.5373,
      "duration": 0.4478,
      "bar": 21,
      "beat": 2.0,
      "duration_beats": 0.5,
      "velocity": 0.48,
      "role": "melody",
      "is_tied": false
    },
    {
      "midi": 59,
      "name": "B3",
      "start": 72.5373,
      "duration": 0.6716,
      "bar": 21,
      "beat": 2.0,
      "duration_beats": 0.75,
      "velocity": 0.6,
      "role": "chord",
      "is_tied": false
    },
    {
      "midi": 71,
      "name": "B4",
      "start": 72.9851,
      "duration": 0.6716,
      "bar": 21,
      "beat": 2.5,
      "duration_beats": 0.75,
      "velocity": 1.0,
      "role": "melody",
      "is_tied": false
    },
    {
      "midi": 50,
      "name": "D3",
      "start": 72.9851,
      "duration": 0.2239,
      "bar": 21,
      "beat": 2.5,
      "duration_beats": 0.25,
      "velocity": 0.7,
      "role": "chord",
      "is_tied": true
    },
    {
      "midi": 41,
      "name": "F2",
      "start": 73.209,
      "duration": 0.2239,
      "bar": 21,
      "beat": 2.75,
      "duration_beats": 0.25,
      "velocity": 1.0,
      "role": "bass",
      "is_tied": true
    },
    {
      "midi": 74,
      "name": "D5",
      "start": 73.4328,
      "duration": 0.2239,
      "bar": 21,
      "beat": 3.0,
      "duration_beats": 0.25,
      "velocity": 0.59,
      "role": "melody",
      "is_tied": false
    },
    {
      "midi": 36,
      "name": "C2",
      "start": 73.4328,
      "duration": 0.2239,
      "bar": 21,
      "beat": 3.0,
      "duration_beats": 0.25,
      "velocity": 0.57,
      "role": "bass",
      "is_tied": false
    },
    {
      "midi": 66,
      "name": "F#4",
      "start": 73.8806,
      "duration": 0.2239,
      "bar": 21,
      "beat": 3.5,
      "duration_beats": 0.25,
      "velocity": 0.58,
      "role": "melody",
      "is_tied": false
    },
    {
      "midi": 62,
      "name": "D4",
      "start": 73.8806,
      "duration": 0.4478,
      "bar": 21,
      "beat": 3.5,
      "duration_beats": 0.5,
      "velocity": 1.0,
      "role": "chord",
      "is_tied": false
    },
    {
      "midi": 76,
      "name": "E5",
      "start": 74.1045,
      "duration": 0.2239,
      "bar": 21,
      "beat": 3.75,
      "duration_beats": 0.25,
      "velocity": 0.4,
      "role": "melody",
      "is_tied": false
    },
    {
      "midi": 66,
      "name": "F#4",
      "start": 74.1045,
      "duration": 0.2239,
      "bar": 21,
      "beat": 3.75,
      "duration_beats": 0.25,
      "velocity": 0.58,
      "role": "melody",
      "is_tied": true
    },
    {
      "midi": 64,
      "name": "E4",
      "start": 74.3284,
      "duration": 0.4478,
      "bar": 21,
      "beat": 4.0,
      "duration_beats": 0.5,
      "velocity": 1.0,
      "role": "melody",
      "is_tied": false
    },
    {
      "midi": 69,
      "name": "A4",
      "start": 74.5522,
      "duration": 0.4478,
      "bar": 21,
      "beat": 4.25,
      "duration_beats": 0.5,
      "velocity": 0.87,
      "role": "melody",
      "is_tied": false
    },
    {
      "midi": 66,
      "name": "F#4",
      "start": 74.5522,
      "duration": 0.4478,
      "bar": 21,
      "beat": 4.25,
      "duration_beats": 0.5,
      "velocity": 0.56,
      "role": "melody",
      "is_tied": false
    },
    {
      "midi": 52,
      "name": "E3",
      "start": 74.5522,
      "duration": 0.2239,
      "bar": 21,
      "beat": 4.25,
      "duration_beats": 0.25,
      "velocity": 0.43,
      "role": "chord",
      "is_tied": false
    },
    {
      "midi": 69,
      "name": "A4",
      "start": 75.0,
      "duration": 0.2239,
      "bar": 21,
      "beat": 4.75,
      "duration_beats": 0.25,
      "velocity": 0.63,
      "role": "melody",
      "is_tied": false
    },
    {
      "midi": 72,
      "name": "C5",
      "start": 75.2239,
      "duration": 0.4478,
      "bar": 22,
      "beat": 1.0,
      "duration_beats": 0.5,
      "velocity": 0.54,
      "role": "melody",
      "is_tied": false
    },
    {
      "midi": 69,
      "name": "A4",
      "start": 75.2239,
      "duration": 0.4478,
      "bar": 22,
      "beat": 1.0,
      "duration_beats": 0.5,
      "velocity": 1.0,
      "role": "chord",
      "is_tied": false
    },
    {
      "midi": 64,
      "name": "E4",
      "start": 75.2239,
      "duration": 0.4478,
      "bar": 22,
      "beat": 1.0,
      "duration_beats": 0.5,
      "velocity": 0.68,
      "role": "chord",
      "is_tied": false
    },
    {
      "midi": 60,
      "name": "C4",
      "start": 75.2239,
      "duration": 0.8955,
      "bar": 22,
      "beat": 1.0,
      "duration_beats": 1.0,
      "velocity": 1.0,
      "role": "chord",
      "is_tied": false
    },
    {
      "midi": 59,
      "name": "B3",
      "start": 75.2239,
      "duration": 1.791,
      "bar": 22,
      "beat": 1.0,
      "duration_beats": 2.0,
      "velocity": 0.66,
      "role": "chord",
      "is_tied": false
    },
    {
      "midi": 67,
      "name": "G4",
      "start": 75.6716,
      "duration": 0.2239,
      "bar": 22,
      "beat": 1.5,
      "duration_beats": 0.25,
      "velocity": 0.67,
      "role": "melody",
      "is_tied": false
    },
    {
      "midi": 69,
      "name": "A4",
      "start": 75.8955,
      "duration": 0.6716,
      "bar": 22,
      "beat": 1.75,
      "duration_beats": 0.75,
      "velocity": 0.75,
      "role": "melody",
      "is_tied": false
    },
    {
      "midi": 74,
      "name": "D5",
      "start": 76.1194,
      "duration": 0.8955,
      "bar": 22,
      "beat": 2.0,
      "duration_beats": 1.0,
      "velocity": 1.0,
      "role": "melody",
      "is_tied": false
    },
    {
      "midi": 71,
      "name": "B4",
      "start": 76.1194,
      "duration": 0.2239,
      "bar": 22,
      "beat": 2.0,
      "duration_beats": 0.25,
      "velocity": 1.0,
      "role": "chord",
      "is_tied": false
    },
    {
      "midi": 55,
      "name": "G3",
      "start": 76.1194,
      "duration": 0.8955,
      "bar": 22,
      "beat": 2.0,
      "duration_beats": 1.0,
      "velocity": 0.7,
      "role": "chord",
      "is_tied": false
    },
    {
      "midi": 48,
      "name": "C3",
      "start": 76.1194,
      "duration": 0.2239,
      "bar": 22,
      "beat": 2.0,
      "duration_beats": 0.25,
      "velocity": 0.4,
      "role": "chord",
      "is_tied": false
    },
    {
      "midi": 52,
      "name": "E3",
      "start": 76.3433,
      "duration": 0.8955,
      "bar": 22,
      "beat": 2.25,
      "duration_beats": 1.0,
      "velocity": 0.37,
      "role": "chord",
      "is_tied": false
    },
    {
      "midi": 45,
      "name": "A2",
      "start": 76.3433,
      "duration": 0.4478,
      "bar": 22,
      "beat": 2.25,
      "duration_beats": 0.5,
      "velocity": 0.9,
      "role": "bass",
      "is_tied": false
    },
    {
      "midi": 41,
      "name": "F2",
      "start": 76.5672,
      "duration": 0.4478,
      "bar": 22,
      "beat": 2.5,
      "duration_beats": 0.5,
      "velocity": 1.0,
      "role": "bass",
      "is_tied": false
    },
    {
      "midi": 74,
      "name": "D5",
      "start": 76.791,
      "duration": 0.2239,
      "bar": 22,
      "beat": 2.75,
      "duration_beats": 0.25,
      "velocity": 0.72,
      "role": "melody",
      "is_tied": false
    },
    {
      "midi": 71,
      "name": "B4",
      "start": 76.791,
      "duration": 0.8955,
      "bar": 22,
      "beat": 2.75,
      "duration_beats": 1.0,
      "velocity": 1.0,
      "role": "melody",
      "is_tied": false
    },
    {
      "midi": 55,
      "name": "G3",
      "start": 76.791,
      "duration": 0.2239,
      "bar": 22,
      "beat": 2.75,
      "duration_beats": 0.25,
      "velocity": 0.33,
      "role": "chord",
      "is_tied": false
    },
    {
      "midi": 52,
      "name": "E3",
      "start": 76.791,
      "duration": 0.4478,
      "bar": 22,
      "beat": 2.75,
      "duration_beats": 0.5,
      "velocity": 0.51,
      "role": "chord",
      "is_tied": false
    },
    {
      "midi": 50,
      "name": "D3",
      "start": 77.0149,
      "duration": 0.2239,
      "bar": 22,
      "beat": 3.0,
      "duration_beats": 0.25,
      "velocity": 0.66,
      "role": "chord",
      "is_tied": false
    },
    {
      "midi": 42,
      "name": "F#2",
      "start": 77.0149,
      "duration": 0.4478,
      "bar": 22,
      "beat": 3.0,
      "duration_beats": 0.5,
      "velocity": 1.0,
      "role": "bass",
      "is_tied": false
    },
    {
      "midi": 50,
      "name": "D3",
      "start": 77.4627,
      "duration": 0.2239,
      "bar": 22,
      "beat": 3.5,
      "duration_beats": 0.25,
      "velocity": 0.67,
      "role": "chord",
      "is_tied": false
    },
    {
      "midi": 74,
      "name": "D5",
      "start": 77.6866,
      "duration": 0.4478,
      "bar": 22,
      "beat": 3.75,
      "duration_beats": 0.5,
      "velocity": 0.73,
      "role": "melody",
      "is_tied": false
    },
    {
      "midi": 71,
      "name": "B4",
      "start": 77.6866,
      "duration": 0.2239,
      "bar": 22,
      "beat": 3.75,
      "duration_beats": 0.25,
      "velocity": 0.34,
      "role": "melody",
      "is_tied": false
    },
    {
      "midi": 54,
      "name": "F#3",
      "start": 77.6866,
      "duration": 0.2239,
      "bar": 22,
      "beat": 3.75,
      "duration_beats": 0.25,
      "velocity": 1.0,
      "role": "bass",
      "is_tied": false
    },
    {
      "midi": 50,
      "name": "D3",
      "start": 77.6866,
      "duration": 0.4478,
      "bar": 22,
      "beat": 3.75,
      "duration_beats": 0.5,
      "velocity": 0.68,
      "role": "chord",
      "is_tied": false
    },
    {
      "midi": 72,
      "name": "C5",
      "start": 77.9104,
      "duration": 0.8955,
      "bar": 22,
      "beat": 4.0,
      "duration_beats": 1.0,
      "velocity": 0.89,
      "role": "melody",
      "is_tied": false
    },
    {
      "midi": 65,
      "name": "F4",
      "start": 77.9104,
      "duration": 0.2239,
      "bar": 22,
      "beat": 4.0,
      "duration_beats": 0.25,
      "velocity": 1.0,
      "role": "chord",
      "is_tied": false
    },
    {
      "midi": 58,
      "name": "A#3",
      "start": 77.9104,
      "duration": 0.8955,
      "bar": 22,
      "beat": 4.0,
      "duration_beats": 1.0,
      "velocity": 0.71,
      "role": "chord",
      "is_tied": false
    },
    {
      "midi": 44,
      "name": "G#2",
      "start": 78.1343,
      "duration": 0.4478,
      "bar": 22,
      "beat": 4.25,
      "duration_beats": 0.5,
      "velocity": 1.0,
      "role": "bass",
      "is_tied": false
    },
    {
      "midi": 70,
      "name": "A#4",
      "start": 78.3582,
      "duration": 1.3433,
      "bar": 22,
      "beat": 4.5,
      "duration_beats": 1.5,
      "velocity": 0.67,
      "role": "melody",
      "is_tied": false
    },
    {
      "midi": 65,
      "name": "F4",
      "start": 78.3582,
      "duration": 0.2239,
      "bar": 22,
      "beat": 4.5,
      "duration_beats": 0.25,
      "velocity": 1.0,
      "role": "melody",
      "is_tied": false
    },
    {
      "midi": 56,
      "name": "G#3",
      "start": 78.3582,
      "duration": 0.2239,
      "bar": 22,
      "beat": 4.5,
      "duration_beats": 0.25,
      "velocity": 0.63,
      "role": "chord",
      "is_tied": false
    },
    {
      "midi": 71,
      "name": "B4",
      "start": 78.806,
      "duration": 0.8955,
      "bar": 23,
      "beat": 1.0,
      "duration_beats": 1.0,
      "velocity": 0.52,
      "role": "melody",
      "is_tied": false
    },
    {
      "midi": 50,
      "name": "D3",
      "start": 78.806,
      "duration": 2.6866,
      "bar": 23,
      "beat": 1.0,
      "duration_beats": 3.0,
      "velocity": 0.94,
      "role": "chord",
      "is_tied": false
    },
    {
      "midi": 43,
      "name": "G2",
      "start": 78.806,
      "duration": 1.791,
      "bar": 23,
      "beat": 1.0,
      "duration_beats": 2.0,
      "velocity": 1.0,
      "role": "bass",
      "is_tied": false
    },
    {
      "midi": 69,
      "name": "A4",
      "start": 79.0299,
      "duration": 0.4478,
      "bar": 23,
      "beat": 1.25,
      "duration_beats": 0.5,
      "velocity": 0.56,
      "role": "melody",
      "is_tied": false
    },
    {
      "midi": 67,
      "name": "G4",
      "start": 79.0299,
      "duration": 0.4478,
      "bar": 23,
      "beat": 1.25,
      "duration_beats": 0.5,
      "velocity": 0.63,
      "role": "chord",
      "is_tied": false
    },
    {
      "midi": 62,
      "name": "D4",
      "start": 79.0299,
      "duration": 0.4478,
      "bar": 23,
      "beat": 1.25,
      "duration_beats": 0.5,
      "velocity": 0.94,
      "role": "chord",
      "is_tied": false
    },
    {
      "midi": 59,
      "name": "B3",
      "start": 79.0299,
      "duration": 0.4478,
      "bar": 23,
      "beat": 1.25,
      "duration_beats": 0.5,
      "velocity": 0.62,
      "role": "chord",
      "is_tied": false
    },
    {
      "midi": 74,
      "name": "D5",
      "start": 79.4776,
      "duration": 0.8955,
      "bar": 23,
      "beat": 1.75,
      "duration_beats": 1.0,
      "velocity": 0.38,
      "role": "melody",
      "is_tied": false
    },
    {
      "midi": 57,
      "name": "A3",
      "start": 79.4776,
      "duration": 0.2239,
      "bar": 23,
      "beat": 1.75,
      "duration_beats": 0.25,
      "velocity": 0.51,
      "role": "chord",
      "is_tied": false
    },
    {
      "midi": 83,
      "name": "B5",
      "start": 79.7015,
      "duration": 0.6716,
      "bar": 23,
      "beat": 2.0,
      "duration_beats": 0.75,
      "velocity": 0.78,
      "role": "melody",
      "is_tied": false
    },
    {
      "midi": 76,
      "name": "E5",
      "start": 79.9254,
      "duration": 0.4478,
      "bar": 23,
      "beat": 2.25,
      "duration_beats": 0.5,
      "velocity": 0.53,
      "role": "melody",
      "is_tied": false
    },
    {
      "midi": 59,
      "name": "B3",
      "start": 79.9254,
      "duration": 1.791,
      "bar": 23,
      "beat": 2.25,
      "duration_beats": 2.0,
      "velocity": 0.65,
      "role": "chord",
      "is_tied": false
    },
    {
      "midi": 54,
      "name": "F#3",
      "start": 79.9254,
      "duration": 1.791,
      "bar": 23,
      "beat": 2.25,
      "duration_beats": 2.0,
      "velocity": 0.93,
      "role": "bass",
      "is_tied": false
    },
    {
      "midi": 52,
      "name": "E3",
      "start": 80.1493,
      "duration": 0.2239,
      "bar": 23,
      "beat": 2.5,
      "duration_beats": 0.25,
      "velocity": 0.67,
      "role": "chord",
      "is_tied": false
    },
    {
      "midi": 74,
      "name": "D5",
      "start": 80.3731,
      "duration": 0.2239,
      "bar": 23,
      "beat": 2.75,
      "duration_beats": 0.25,
      "velocity": 1.0,
      "role": "melody",
      "is_tied": true
    },
    {
      "midi": 52,
      "name": "E3",
      "start": 80.3731,
      "duration": 0.2239,
      "bar": 23,
      "beat": 2.75,
      "duration_beats": 0.25,
      "velocity": 0.4,
      "role": "chord",
      "is_tied": true
    },
    {
      "midi": 71,
      "name": "B4",
      "start": 80.597,
      "duration": 1.3433,
      "bar": 23,
      "beat": 3.0,
      "duration_beats": 1.5,
      "velocity": 0.94,
      "role": "melody",
      "is_tied": false
    },
    {
      "midi": 41,
      "name": "F2",
      "start": 80.597,
      "duration": 0.2239,
      "bar": 23,
      "beat": 3.0,
      "duration_beats": 0.25,
      "velocity": 1.0,
      "role": "bass",
      "is_tied": false
    },
    {
      "midi": 83,
      "name": "B5",
      "start": 80.8209,
      "duration": 0.4478,
      "bar": 23,
      "beat": 3.25,
      "duration_beats": 0.5,
      "velocity": 1.0,
      "role": "melody",
      "is_tied": false
    },
    {
      "midi": 74,
      "name": "D5",
      "start": 80.8209,
      "duration": 0.2239,
      "bar": 23,
      "beat": 3.25,
      "duration_beats": 0.25,
      "velocity": 0.51,
      "role": "melody",
      "is_tied": false
    },
    {
      "midi": 59,
      "name": "B3",
      "start": 80.8209,
      "duration": 0.8955,
      "bar": 23,
      "beat": 3.25,
      "duration_beats": 1.0,
      "velocity": 0.36,
      "role": "chord",
      "is_tied": false
    },
    {
      "midi": 54,
      "name": "F#3",
      "start": 80.8209,
      "duration": 0.8955,
      "bar": 23,
      "beat": 3.25,
      "duration_beats": 1.0,
      "velocity": 1.0,
      "role": "bass",
      "is_tied": false
    },
    {
      "midi": 52,
      "name": "E3",
      "start": 80.8209,
      "duration": 0.2239,
      "bar": 23,
      "beat": 3.25,
      "duration_beats": 0.25,
      "velocity": 0.54,
      "role": "chord",
      "is_tied": false
    },
    {
      "midi": 50,
      "name": "D3",
      "start": 80.8209,
      "duration": 0.4478,
      "bar": 23,
      "beat": 3.25,
      "duration_beats": 0.5,
      "velocity": 0.58,
      "role": "chord",
      "is_tied": false
    },
    {
      "midi": 66,
      "name": "F#4",
      "start": 81.2687,
      "duration": 0.4478,
      "bar": 23,
      "beat": 3.75,
      "duration_beats": 0.5,
      "velocity": 0.82,
      "role": "chord",
      "is_tied": false
    },
    {
      "midi": 52,
      "name": "E3",
      "start": 81.2687,
      "duration": 0.6716,
      "bar": 23,
      "beat": 3.75,
      "duration_beats": 0.75,
      "velocity": 0.62,
      "role": "chord",
      "is_tied": false
    },
    {
      "midi": 52,
      "name": "E3",
      "start": 81.4925,
      "duration": 0.4478,
      "bar": 23,
      "beat": 4.0,
      "duration_beats": 0.5,
      "velocity": 0.6,
      "role": "chord",
      "is_tied": false
    },
    {
      "midi": 43,
      "name": "G2",
      "start": 81.4925,
      "duration": 0.2239,
      "bar": 23,
      "beat": 4.0,
      "duration_beats": 0.25,
      "velocity": 1.0,
      "role": "bass",
      "is_tied": false
    },
    {
      "midi": 74,
      "name": "D5",
      "start": 81.7164,
      "duration": 0.2239,
      "bar": 23,
      "beat": 4.25,
      "duration_beats": 0.25,
      "velocity": 0.62,
      "role": "melody",
      "is_tied": false
    },
    {
      "midi": 35,
      "name": "B1",
      "start": 81.7164,
      "duration": 0.2239,
      "bar": 23,
      "beat": 4.25,
      "duration_beats": 0.25,
      "velocity": 0.36,
      "role": "bass",
      "is_tied": false
    },
    {
      "midi": 74,
      "name": "D5",
      "start": 82.1642,
      "duration": 2.6866,
      "bar": 23,
      "beat": 4.75,
      "duration_beats": 3.0,
      "velocity": 0.75,
      "role": "melody",
      "is_tied": false
    },
    {
      "midi": 71,
      "name": "B4",
      "start": 82.1642,
      "duration": 0.2239,
      "bar": 23,
      "beat": 4.75,
      "duration_beats": 0.25,
      "velocity": 0.37,
      "role": "melody",
      "is_tied": false
    },
    {
      "midi": 62,
      "name": "D4",
      "start": 82.3881,
      "duration": 2.6866,
      "bar": 24,
      "beat": 1.0,
      "duration_beats": 3.0,
      "velocity": 0.92,
      "role": "chord",
      "is_tied": false
    },
    {
      "midi": 58,
      "name": "A#3",
      "start": 82.3881,
      "duration": 0.8955,
      "bar": 24,
      "beat": 1.0,
      "duration_beats": 1.0,
      "velocity": 0.73,
      "role": "chord",
      "is_tied": false
    },
    {
      "midi": 57,
      "name": "A3",
      "start": 82.3881,
      "duration": 0.8955,
      "bar": 24,
      "beat": 1.0,
      "duration_beats": 1.0,
      "velocity": 0.4,
      "role": "chord",
      "is_tied": false
    },
    {
      "midi": 55,
      "name": "G3",
      "start": 82.3881,
      "duration": 1.791,
      "bar": 24,
      "beat": 1.0,
      "duration_beats": 2.0,
      "velocity": 0.78,
      "role": "chord",
      "is_tied": false
    },
    {
      "midi": 74,
      "name": "D5",
      "start": 82.8358,
      "duration": 2.6866,
      "bar": 24,
      "beat": 1.5,
      "duration_beats": 3.0,
      "velocity": 0.63,
      "role": "melody",
      "is_tied": false
    },
    {
      "midi": 58,
      "name": "A#3",
      "start": 82.8358,
      "duration": 0.6716,
      "bar": 24,
      "beat": 1.5,
      "duration_beats": 0.75,
      "velocity": 0.45,
      "role": "chord",
      "is_tied": false
    },
    {
      "midi": 55,
      "name": "G3",
      "start": 82.8358,
      "duration": 1.791,
      "bar": 24,
      "beat": 1.5,
      "duration_beats": 2.0,
      "velocity": 0.74,
      "role": "chord",
      "is_tied": false
    },
    {
      "midi": 50,
      "name": "D3",
      "start": 82.8358,
      "duration": 1.3433,
      "bar": 24,
      "beat": 1.5,
      "duration_beats": 1.5,
      "velocity": 0.51,
      "role": "chord",
      "is_tied": false
    },
    {
      "midi": 74,
      "name": "D5",
      "start": 83.5075,
      "duration": 1.791,
      "bar": 24,
      "beat": 2.25,
      "duration_beats": 2.0,
      "velocity": 0.36,
      "role": "melody",
      "is_tied": false
    },
    {
      "midi": 68,
      "name": "G#4",
      "start": 83.5075,
      "duration": 0.4478,
      "bar": 24,
      "beat": 2.25,
      "duration_beats": 0.5,
      "velocity": 1.0,
      "role": "melody",
      "is_tied": false
    },
    {
      "midi": 67,
      "name": "G4",
      "start": 83.5075,
      "duration": 0.4478,
      "bar": 24,
      "beat": 2.25,
      "duration_beats": 0.5,
      "velocity": 1.0,
      "role": "chord",
      "is_tied": false
    },
    {
      "midi": 50,
      "name": "D3",
      "start": 83.5075,
      "duration": 0.6716,
      "bar": 24,
      "beat": 2.25,
      "duration_beats": 0.75,
      "velocity": 0.51,
      "role": "chord",
      "is_tied": false
    },
    {
      "midi": 40,
      "name": "E2",
      "start": 83.5075,
      "duration": 0.4478,
      "bar": 24,
      "beat": 2.25,
      "duration_beats": 0.5,
      "velocity": 1.0,
      "role": "bass",
      "is_tied": false
    },
    {
      "midi": 76,
      "name": "E5",
      "start": 83.9552,
      "duration": 0.2239,
      "bar": 24,
      "beat": 2.75,
      "duration_beats": 0.25,
      "velocity": 0.46,
      "role": "melody",
      "is_tied": false
    },
    {
      "midi": 71,
      "name": "B4",
      "start": 83.9552,
      "duration": 0.2239,
      "bar": 24,
      "beat": 2.75,
      "duration_beats": 0.25,
      "velocity": 0.6,
      "role": "chord",
      "is_tied": false
    },
    {
      "midi": 58,
      "name": "A#3",
      "start": 84.1791,
      "duration": 1.791,
      "bar": 24,
      "beat": 3.0,
      "duration_beats": 2.0,
      "velocity": 0.98,
      "role": "chord",
      "is_tied": false
    },
    {
      "midi": 74,
      "name": "D5",
      "start": 84.403,
      "duration": 0.4478,
      "bar": 24,
      "beat": 3.25,
      "duration_beats": 0.5,
      "velocity": 0.85,
      "role": "melody",
      "is_tied": false
    },
    {
      "midi": 36,
      "name": "C2",
      "start": 84.403,
      "duration": 1.3433,
      "bar": 24,
      "beat": 3.25,
      "duration_beats": 1.5,
      "velocity": 1.0,
      "role": "bass",
      "is_tied": false
    },
    {
      "midi": 74,
      "name": "D5",
      "start": 84.6269,
      "duration": 0.4478,
      "bar": 24,
      "beat": 3.5,
      "duration_beats": 0.5,
      "velocity": 0.82,
      "role": "melody",
      "is_tied": false
    },
    {
      "midi": 58,
      "name": "A#3",
      "start": 84.6269,
      "duration": 0.8955,
      "bar": 24,
      "beat": 3.5,
      "duration_beats": 1.0,
      "velocity": 0.57,
      "role": "chord",
      "is_tied": false
    },
    {
      "midi": 50,
      "name": "D3",
      "start": 84.6269,
      "duration": 2.6866,
      "bar": 24,
      "beat": 3.5,
      "duration_beats": 3.0,
      "velocity": 0.61,
      "role": "chord",
      "is_tied": false
    },
    {
      "midi": 70,
      "name": "A#4",
      "start": 85.0746,
      "duration": 0.4478,
      "bar": 24,
      "beat": 4.0,
      "duration_beats": 0.5,
      "velocity": 0.36,
      "role": "melody",
      "is_tied": false
    },
    {
      "midi": 69,
      "name": "A4",
      "start": 85.0746,
      "duration": 0.6716,
      "bar": 24,
      "beat": 4.0,
      "duration_beats": 0.75,
      "velocity": 1.0,
      "role": "melody",
      "is_tied": false
    },
    {
      "midi": 64,
      "name": "E4",
      "start": 85.0746,
      "duration": 0.4478,
      "bar": 24,
      "beat": 4.0,
      "duration_beats": 0.5,
      "velocity": 0.31,
      "role": "chord",
      "is_tied": false
    },
    {
      "midi": 69,
      "name": "A4",
      "start": 85.5224,
      "duration": 0.2239,
      "bar": 24,
      "beat": 4.5,
      "duration_beats": 0.25,
      "velocity": 1.0,
      "role": "melody",
      "is_tied": false
    },
    {
      "midi": 66,
      "name": "F#4",
      "start": 85.5224,
      "duration": 0.8955,
      "bar": 24,
      "beat": 4.5,
      "duration_beats": 1.0,
      "velocity": 0.93,
      "role": "melody",
      "is_tied": false
    },
    {
      "midi": 36,
      "name": "C2",
      "start": 85.5224,
      "duration": 0.4478,
      "bar": 24,
      "beat": 4.5,
      "duration_beats": 0.5,
      "velocity": 0.77,
      "role": "bass",
      "is_tied": false
    },
    {
      "midi": 57,
      "name": "A3",
      "start": 85.7463,
      "duration": 0.8955,
      "bar": 24,
      "beat": 4.75,
      "duration_beats": 1.0,
      "velocity": 0.37,
      "role": "chord",
      "is_tied": false
    },
    {
      "midi": 55,
      "name": "G3",
      "start": 85.7463,
      "duration": 0.2239,
      "bar": 24,
      "beat": 4.75,
      "duration_beats": 0.25,
      "velocity": 1.0,
      "role": "chord",
      "is_tied": false
    },
    {
      "midi": 83,
      "name": "B5",
      "start": 86.194,
      "duration": 0.6716,
      "bar": 25,
      "beat": 1.25,
      "duration_beats": 0.75,
      "velocity": 0.83,
      "role": "melody",
      "is_tied": false
    },
    {
      "midi": 61,
      "name": "C#4",
      "start": 86.194,
      "duration": 0.8955,
      "bar": 25,
      "beat": 1.25,
      "duration_beats": 1.0,
      "velocity": 1.0,
      "role": "chord",
      "is_tied": false
    },
    {
      "midi": 54,
      "name": "F#3",
      "start": 86.194,
      "duration": 0.2239,
      "bar": 25,
      "beat": 1.25,
      "duration_beats": 0.25,
      "velocity": 0.38,
      "role": "chord",
      "is_tied": false
    },
    {
      "midi": 52,
      "name": "E3",
      "start": 86.4179,
      "duration": 0.6716,
      "bar": 25,
      "beat": 1.5,
      "duration_beats": 0.75,
      "velocity": 0.58,
      "role": "chord",
      "is_tied": false
    },
    {
      "midi": 49,
      "name": "C#3",
      "start": 86.4179,
      "duration": 0.2239,
      "bar": 25,
      "beat": 1.5,
      "duration_beats": 0.25,
      "velocity": 0.65,
      "role": "chord",
      "is_tied": false
    },
    {
      "midi": 71,
      "name": "B4",
      "start": 86.6418,
      "duration": 0.2239,
      "bar": 25,
      "beat": 1.75,
      "duration_beats": 0.25,
      "velocity": 1.0,
      "role": "melody",
      "is_tied": true
    },
    {
      "midi": 45,
      "name": "A2",
      "start": 86.6418,
      "duration": 0.4478,
      "bar": 25,
      "beat": 1.75,
      "duration_beats": 0.5,
      "velocity": 1.0,
      "role": "bass",
      "is_tied": false
    },
    {
      "midi": 73,
      "name": "C#5",
      "start": 86.8657,
      "duration": 0.2239,
      "bar": 25,
      "beat": 2.0,
      "duration_beats": 0.25,
      "velocity": 0.37,
      "role": "melody",
      "is_tied": false
    },
    {
      "midi": 71,
      "name": "B4",
      "start": 86.8657,
      "duration": 0.2239,
      "bar": 25,
      "beat": 2.0,
      "duration_beats": 0.25,
      "velocity": 1.0,
      "role": "melody",
      "is_tied": true
    },
    {
      "midi": 49,
      "name": "C#3",
      "start": 86.8657,
      "duration": 0.2239,
      "bar": 25,
      "beat": 2.0,
      "duration_beats": 0.25,
      "velocity": 0.58,
      "role": "chord",
      "is_tied": false
    },
    {
      "midi": 80,
      "name": "G#5",
      "start": 87.0896,
      "duration": 0.2239,
      "bar": 25,
      "beat": 2.25,
      "duration_beats": 0.25,
      "velocity": 0.34,
      "role": "melody",
      "is_tied": false
    },
    {
      "midi": 52,
      "name": "E3",
      "start": 87.0896,
      "duration": 0.6716,
      "bar": 25,
      "beat": 2.25,
      "duration_beats": 0.75,
      "velocity": 0.46,
      "role": "chord",
      "is_tied": false
    },
    {
      "midi": 45,
      "name": "A2",
      "start": 87.0896,
      "duration": 0.6716,
      "bar": 25,
      "beat": 2.25,
      "duration_beats": 0.75,
      "velocity": 1.0,
      "role": "bass",
      "is_tied": false
    },
    {
      "midi": 80,
      "name": "G#5",
      "start": 87.3134,
      "duration": 0.2239,
      "bar": 25,
      "beat": 2.5,
      "duration_beats": 0.25,
      "velocity": 0.4,
      "role": "melody",
      "is_tied": false
    },
    {
      "midi": 52,
      "name": "E3",
      "start": 87.3134,
      "duration": 0.6716,
      "bar": 25,
      "beat": 2.5,
      "duration_beats": 0.75,
      "velocity": 0.81,
      "role": "chord",
      "is_tied": false
    },
    {
      "midi": 49,
      "name": "C#3",
      "start": 87.3134,
      "duration": 0.6716,
      "bar": 25,
      "beat": 2.5,
      "duration_beats": 0.75,
      "velocity": 0.89,
      "role": "chord",
      "is_tied": false
    },
    {
      "midi": 45,
      "name": "A2",
      "start": 87.3134,
      "duration": 0.4478,
      "bar": 25,
      "beat": 2.5,
      "duration_beats": 0.5,
      "velocity": 1.0,
      "role": "bass",
      "is_tied": false
    },
    {
      "midi": 74,
      "name": "D5",
      "start": 87.5373,
      "duration": 0.4478,
      "bar": 25,
      "beat": 2.75,
      "duration_beats": 0.5,
      "velocity": 1.0,
      "role": "melody",
      "is_tied": false
    },
    {
      "midi": 69,
      "name": "A4",
      "start": 87.5373,
      "duration": 0.2239,
      "bar": 25,
      "beat": 2.75,
      "duration_beats": 0.25,
      "velocity": 0.53,
      "role": "chord",
      "is_tied": false
    },
    {
      "midi": 66,
      "name": "F#4",
      "start": 87.5373,
      "duration": 0.2239,
      "bar": 25,
      "beat": 2.75,
      "duration_beats": 0.25,
      "velocity": 0.43,
      "role": "chord",
      "is_tied": false
    },
    {
      "midi": 64,
      "name": "E4",
      "start": 87.5373,
      "duration": 0.2239,
      "bar": 25,
      "beat": 2.75,
      "duration_beats": 0.25,
      "velocity": 0.66,
      "role": "chord",
      "is_tied": false
    },
    {
      "midi": 73,
      "name": "C#5",
      "start": 87.7612,
      "duration": 0.2239,
      "bar": 25,
      "beat": 3.0,
      "duration_beats": 0.25,
      "velocity": 0.33,
      "role": "melody",
      "is_tied": false
    },
    {
      "midi": 54,
      "name": "F#3",
      "start": 87.7612,
      "duration": 0.2239,
      "bar": 25,
      "beat": 3.0,
      "duration_beats": 0.25,
      "velocity": 0.67,
      "role": "chord",
      "is_tied": false
    },
    {
      "midi": 83,
      "name": "B5",
      "start": 87.9851,
      "duration": 0.6716,
      "bar": 25,
      "beat": 3.25,
      "duration_beats": 0.75,
      "velocity": 1.0,
      "role": "melody",
      "is_tied": false
    },
    {
      "midi": 74,
      "name": "D5",
      "start": 87.9851,
      "duration": 0.2239,
      "bar": 25,
      "beat": 3.25,
      "duration_beats": 0.25,
      "velocity": 1.0,
      "role": "melody",
      "is_tied": false
    },
    {
      "midi": 57,
      "name": "A3",
      "start": 87.9851,
      "duration": 0.8955,
      "bar": 25,
      "beat": 3.25,
      "duration_beats": 1.0,
      "velocity": 0.46,
      "role": "chord",
      "is_tied": false
    },
    {
      "midi": 52,
      "name": "E3",
      "start": 87.9851,
      "duration": 0.6716,
      "bar": 25,
      "beat": 3.25,
      "duration_beats": 0.75,
      "velocity": 1.0,
      "role": "bass",
      "is_tied": false
    },
    {
      "midi": 49,
      "name": "C#3",
      "start": 87.9851,
      "duration": 0.2239,
      "bar": 25,
      "beat": 3.25,
      "duration_beats": 0.25,
      "velocity": 0.38,
      "role": "chord",
      "is_tied": false
    },
    {
      "midi": 71,
      "name": "B4",
      "start": 88.209,
      "duration": 0.6716,
      "bar": 25,
      "beat": 3.5,
      "duration_beats": 0.75,
      "velocity": 0.57,
      "role": "melody",
      "is_tied": false
    },
    {
      "midi": 57,
      "name": "A3",
      "start": 88.209,
      "duration": 0.8955,
      "bar": 25,
      "beat": 3.5,
      "duration_beats": 1.0,
      "velocity": 0.62,
      "role": "chord",
      "is_tied": false
    },
    {
      "midi": 52,
      "name": "E3",
      "start": 88.209,
      "duration": 0.4478,
      "bar": 25,
      "beat": 3.5,
      "duration_beats": 0.5,
      "velocity": 1.0,
      "role": "bass",
      "is_tied": false
    },
    {
      "midi": 50,
      "name": "D3",
      "start": 88.209,
      "duration": 0.8955,
      "bar": 25,
      "beat": 3.5,
      "duration_beats": 1.0,
      "velocity": 0.83,
      "role": "chord",
      "is_tied": false
    },
    {
      "midi": 66,
      "name": "F#4",
      "start": 88.6567,
      "duration": 0.2239,
      "bar": 25,
      "beat": 4.0,
      "duration_beats": 0.25,
      "velocity": 0.83,
      "role": "chord",
      "is_tied": false
    },
    {
      "midi": 62,
      "name": "D4",
      "start": 88.6567,
      "duration": 0.4478,
      "bar": 25,
      "beat": 4.0,
      "duration_beats": 0.5,
      "velocity": 1.0,
      "role": "chord",
      "is_tied": false
    },
    {
      "midi": 35,
      "name": "B1",
      "start": 88.6567,
      "duration": 0.2239,
      "bar": 25,
      "beat": 4.0,
      "duration_beats": 0.25,
      "velocity": 0.47,
      "role": "bass",
      "is_tied": false
    },
    {
      "midi": 54,
      "name": "F#3",
      "start": 88.8806,
      "duration": 0.2239,
      "bar": 25,
      "beat": 4.25,
      "duration_beats": 0.25,
      "velocity": 0.34,
      "role": "chord",
      "is_tied": true
    },
    {
      "midi": 74,
      "name": "D5",
      "start": 89.1045,
      "duration": 0.8955,
      "bar": 25,
      "beat": 4.5,
      "duration_beats": 1.0,
      "velocity": 0.82,
      "role": "melody",
      "is_tied": false
    },
    {
      "midi": 50,
      "name": "D3",
      "start": 89.1045,
      "duration": 0.2239,
      "bar": 25,
      "beat": 4.5,
      "duration_beats": 0.25,
      "velocity": 0.99,
      "role": "chord",
      "is_tied": false
    },
    {
      "midi": 46,
      "name": "A#2",
      "start": 89.1045,
      "duration": 0.8955,
      "bar": 25,
      "beat": 4.5,
      "duration_beats": 1.0,
      "velocity": 1.0,
      "role": "bass",
      "is_tied": false
    },
    {
      "midi": 74,
      "name": "D5",
      "start": 89.3284,
      "duration": 0.8955,
      "bar": 25,
      "beat": 4.75,
      "duration_beats": 1.0,
      "velocity": 0.98,
      "role": "melody",
      "is_tied": false
    },
    {
      "midi": 62,
      "name": "D4",
      "start": 89.3284,
      "duration": 0.4478,
      "bar": 25,
      "beat": 4.75,
      "duration_beats": 0.5,
      "velocity": 1.0,
      "role": "chord",
      "is_tied": false
    },
    {
      "midi": 57,
      "name": "A3",
      "start": 89.3284,
      "duration": 0.4478,
      "bar": 25,
      "beat": 4.75,
      "duration_beats": 0.5,
      "velocity": 0.57,
      "role": "chord",
      "is_tied": false
    },
    {
      "midi": 60,
      "name": "C4",
      "start": 90.0,
      "duration": 0.6716,
      "bar": 26,
      "beat": 1.5,
      "duration_beats": 0.75,
      "velocity": 0.92,
      "role": "chord",
      "is_tied": false
    },
    {
      "midi": 55,
      "name": "G3",
      "start": 90.0,
      "duration": 0.6716,
      "bar": 26,
      "beat": 1.5,
      "duration_beats": 0.75,
      "velocity": 0.84,
      "role": "chord",
      "is_tied": false
    },
    {
      "midi": 72,
      "name": "C5",
      "start": 90.2239,
      "duration": 0.4478,
      "bar": 26,
      "beat": 1.75,
      "duration_beats": 0.5,
      "velocity": 0.34,
      "role": "melody",
      "is_tied": false
    },
    {
      "midi": 57,
      "name": "A3",
      "start": 90.2239,
      "duration": 0.2239,
      "bar": 26,
      "beat": 1.75,
      "duration_beats": 0.25,
      "velocity": 0.47,
      "role": "chord",
      "is_tied": false
    },
    {
      "midi": 48,
      "name": "C3",
      "start": 90.2239,
      "duration": 0.4478,
      "bar": 26,
      "beat": 1.75,
      "duration_beats": 0.5,
      "velocity": 0.59,
      "role": "chord",
      "is_tied": false
    },
    {
      "midi": 52,
      "name": "E3",
      "start": 90.4478,
      "duration": 0.2239,
      "bar": 26,
      "beat": 2.0,
      "duration_beats": 0.25,
      "velocity": 0.96,
      "role": "chord",
      "is_tied": false
    },
    {
      "midi": 71,
      "name": "B4",
      "start": 90.6716,
      "duration": 0.2239,
      "bar": 26,
      "beat": 2.25,
      "duration_beats": 0.25,
      "velocity": 0.49,
      "role": "melody",
      "is_tied": false
    },
    {
      "midi": 68,
      "name": "G#4",
      "start": 90.6716,
      "duration": 0.2239,
      "bar": 26,
      "beat": 2.25,
      "duration_beats": 0.25,
      "velocity": 1.0,
      "role": "melody",
      "is_tied": false
    },
    {
      "midi": 49,
      "name": "C#3",
      "start": 90.6716,
      "duration": 0.4478,
      "bar": 26,
      "beat": 2.25,
      "duration_beats": 0.5,
      "velocity": 1.0,
      "role": "chord",
      "is_tied": false
    },
    {
      "midi": 42,
      "name": "F#2",
      "start": 90.6716,
      "duration": 0.2239,
      "bar": 26,
      "beat": 2.25,
      "duration_beats": 0.25,
      "velocity": 0.53,
      "role": "bass",
      "is_tied": false
    },
    {
      "midi": 81,
      "name": "A5",
      "start": 90.8955,
      "duration": 0.2239,
      "bar": 26,
      "beat": 2.5,
      "duration_beats": 0.25,
      "velocity": 0.44,
      "role": "melody",
      "is_tied": false
    },
    {
      "midi": 74,
      "name": "D5",
      "start": 91.1194,
      "duration": 0.2239,
      "bar": 26,
      "beat": 2.75,
      "duration_beats": 0.25,
      "velocity": 1.0,
      "role": "melody",
      "is_tied": false
    },
    {
      "midi": 57,
      "name": "A3",
      "start": 91.1194,
      "duration": 0.2239,
      "bar": 26,
      "beat": 2.75,
      "duration_beats": 0.25,
      "velocity": 0.76,
      "role": "chord",
      "is_tied": false
    },
    {
      "midi": 74,
      "name": "D5",
      "start": 91.3433,
      "duration": 0.8955,
      "bar": 26,
      "beat": 3.0,
      "duration_beats": 1.0,
      "velocity": 1.0,
      "role": "melody",
      "is_tied": false
    },
    {
      "midi": 60,
      "name": "C4",
      "start": 91.3433,
      "duration": 0.4478,
      "bar": 26,
      "beat": 3.0,
      "duration_beats": 0.5,
      "velocity": 0.72,
      "role": "chord",
      "is_tied": false
    },
    {
      "midi": 57,
      "name": "A3",
      "start": 91.3433,
      "duration": 0.4478,
      "bar": 26,
      "beat": 3.0,
      "duration_beats": 0.5,
      "velocity": 0.49,
      "role": "chord",
      "is_tied": false
    },
    {
      "midi": 50,
      "name": "D3",
      "start": 91.3433,
      "duration": 0.8955,
      "bar": 26,
      "beat": 3.0,
      "duration_beats": 1.0,
      "velocity": 1.0,
      "role": "chord",
      "is_tied": false
    },
    {
      "midi": 83,
      "name": "B5",
      "start": 91.5672,
      "duration": 0.2239,
      "bar": 26,
      "beat": 3.25,
      "duration_beats": 0.25,
      "velocity": 1.0,
      "role": "melody",
      "is_tied": false
    },
    {
      "midi": 48,
      "name": "C3",
      "start": 91.5672,
      "duration": 0.2239,
      "bar": 26,
      "beat": 3.25,
      "duration_beats": 0.25,
      "velocity": 0.42,
      "role": "chord",
      "is_tied": false
    },
    {
      "midi": 71,
      "name": "B4",
      "start": 91.791,
      "duration": 0.4478,
      "bar": 26,
      "beat": 3.5,
      "duration_beats": 0.5,
      "velocity": 0.54,
      "role": "melody",
      "is_tied": false
    },
    {
      "midi": 69,
      "name": "A4",
      "start": 91.791,
      "duration": 0.4478,
      "bar": 26,
      "beat": 3.5,
      "duration_beats": 0.5,
      "velocity": 1.0,
      "role": "chord",
      "is_tied": false
    },
    {
      "midi": 37,
      "name": "C#2",
      "start": 91.791,
      "duration": 0.4478,
      "bar": 26,
      "beat": 3.5,
      "duration_beats": 0.5,
      "velocity": 1.0,
      "role": "bass",
      "is_tied": false
    },
    {
      "midi": 71,
      "name": "B4",
      "start": 92.2388,
      "duration": 1.3433,
      "bar": 26,
      "beat": 4.0,
      "duration_beats": 1.5,
      "velocity": 0.63,
      "role": "melody",
      "is_tied": false
    },
    {
      "midi": 52,
      "name": "E3",
      "start": 92.2388,
      "duration": 0.2239,
      "bar": 26,
      "beat": 4.0,
      "duration_beats": 0.25,
      "velocity": 0.63,
      "role": "chord",
      "is_tied": false
    },
    {
      "midi": 38,
      "name": "D2",
      "start": 92.6866,
      "duration": 0.4478,
      "bar": 26,
      "beat": 4.5,
      "duration_beats": 0.5,
      "velocity": 0.48,
      "role": "bass",
      "is_tied": false
    },
    {
      "midi": 59,
      "name": "B3",
      "start": 93.1343,
      "duration": 0.4478,
      "bar": 27,
      "beat": 1.0,
      "duration_beats": 0.5,
      "velocity": 0.33,
      "role": "chord",
      "is_tied": false
    },
    {
      "midi": 55,
      "name": "G3",
      "start": 93.1343,
      "duration": 0.4478,
      "bar": 27,
      "beat": 1.0,
      "duration_beats": 0.5,
      "velocity": 1.0,
      "role": "chord",
      "is_tied": false
    },
    {
      "midi": 50,
      "name": "D3",
      "start": 93.1343,
      "duration": 1.791,
      "bar": 27,
      "beat": 1.0,
      "duration_beats": 2.0,
      "velocity": 0.81,
      "role": "chord",
      "is_tied": false
    },
    {
      "midi": 69,
      "name": "A4",
      "start": 93.5821,
      "duration": 0.4478,
      "bar": 27,
      "beat": 1.5,
      "duration_beats": 0.5,
      "velocity": 0.64,
      "role": "melody",
      "is_tied": false
    },
    {
      "midi": 62,
      "name": "D4",
      "start": 93.5821,
      "duration": 1.3433,
      "bar": 27,
      "beat": 1.5,
      "duration_beats": 1.5,
      "velocity": 1.0,
      "role": "chord",
      "is_tied": false
    },
    {
      "midi": 67,
      "name": "G4",
      "start": 93.806,
      "duration": 0.6716,
      "bar": 27,
      "beat": 1.75,
      "duration_beats": 0.75,
      "velocity": 0.96,
      "role": "melody",
      "is_tied": false
    },
    {
      "midi": 57,
      "name": "A3",
      "start": 94.2537,
      "duration": 0.6716,
      "bar": 27,
      "beat": 2.25,
      "duration_beats": 0.75,
      "velocity": 1.0,
      "role": "chord",
      "is_tied": false
    },
    {
      "midi": 74,
      "name": "D5",
      "start": 94.4776,
      "duration": 0.8955,
      "bar": 27,
      "beat": 2.5,
      "duration_beats": 1.0,
      "velocity": 0.56,
      "role": "melody",
      "is_tied": false
    },
    {
      "midi": 57,
      "name": "A3",
      "start": 94.4776,
      "duration": 0.4478,
      "bar": 27,
      "beat": 2.5,
      "duration_beats": 0.5,
      "velocity": 0.85,
      "role": "chord",
      "is_tied": false
    },
    {
      "midi": 54,
      "name": "F#3",
      "start": 94.4776,
      "duration": 1.791,
      "bar": 27,
      "beat": 2.5,
      "duration_beats": 2.0,
      "velocity": 1.0,
      "role": "bass",
      "is_tied": false
    },
    {
      "midi": 50,
      "name": "D3",
      "start": 94.4776,
      "duration": 0.4478,
      "bar": 27,
      "beat": 2.5,
      "duration_beats": 0.5,
      "velocity": 0.76,
      "role": "chord",
      "is_tied": false
    },
    {
      "midi": 74,
      "name": "D5",
      "start": 94.7015,
      "duration": 0.6716,
      "bar": 27,
      "beat": 2.75,
      "duration_beats": 0.75,
      "velocity": 0.89,
      "role": "melody",
      "is_tied": false
    },
    {
      "midi": 59,
      "name": "B3",
      "start": 94.7015,
      "duration": 1.3433,
      "bar": 27,
      "beat": 2.75,
      "duration_beats": 1.5,
      "velocity": 0.65,
      "role": "chord",
      "is_tied": false
    },
    {
      "midi": 57,
      "name": "A3",
      "start": 94.7015,
      "duration": 0.2239,
      "bar": 27,
      "beat": 2.75,
      "duration_beats": 0.25,
      "velocity": 0.37,
      "role": "chord",
      "is_tied": false
    },
    {
      "midi": 54,
      "name": "F#3",
      "start": 94.7015,
      "duration": 1.3433,
      "bar": 27,
      "beat": 2.75,
      "duration_beats": 1.5,
      "velocity": 0.93,
      "role": "bass",
      "is_tied": false
    },
    {
      "midi": 50,
      "name": "D3",
      "start": 94.7015,
      "duration": 0.4478,
      "bar": 27,
      "beat": 2.75,
      "duration_beats": 0.5,
      "velocity": 0.73,
      "role": "chord",
      "is_tied": false
    },
    {
      "midi": 52,
      "name": "E3",
      "start": 94.9254,
      "duration": 0.4478,
      "bar": 27,
      "beat": 3.0,
      "duration_beats": 0.5,
      "velocity": 0.3,
      "role": "chord",
      "is_tied": false
    },
    {
      "midi": 43,
      "name": "G2",
      "start": 94.9254,
      "duration": 0.4478,
      "bar": 27,
      "beat": 3.0,
      "duration_beats": 0.5,
      "velocity": 0.49,
      "role": "bass",
      "is_tied": false
    },
    {
      "midi": 59,
      "name": "B3",
      "start": 95.3731,
      "duration": 0.6716,
      "bar": 27,
      "beat": 3.5,
      "duration_beats": 0.75,
      "velocity": 0.91,
      "role": "chord",
      "is_tied": false
    },
    {
      "midi": 54,
      "name": "F#3",
      "start": 95.3731,
      "duration": 0.6716,
      "bar": 27,
      "beat": 3.5,
      "duration_beats": 0.75,
      "velocity": 1.0,
      "role": "bass",
      "is_tied": false
    },
    {
      "midi": 50,
      "name": "D3",
      "start": 95.3731,
      "duration": 1.791,
      "bar": 27,
      "beat": 3.5,
      "duration_beats": 2.0,
      "velocity": 0.5,
      "role": "chord",
      "is_tied": false
    },
    {
      "midi": 72,
      "name": "C5",
      "start": 96.4925,
      "duration": 0.4478,
      "bar": 27,
      "beat": 4.75,
      "duration_beats": 0.5,
      "velocity": 0.78,
      "role": "melody",
      "is_tied": false
    },
    {
      "midi": 60,
      "name": "C4",
      "start": 96.4925,
      "duration": 0.8955,
      "bar": 27,
      "beat": 4.75,
      "duration_beats": 1.0,
      "velocity": 0.63,
      "role": "chord",
      "is_tied": false
    },
    {
      "midi": 57,
      "name": "A3",
      "start": 96.4925,
      "duration": 0.4478,
      "bar": 27,
      "beat": 4.75,
      "duration_beats": 0.5,
      "velocity": 0.58,
      "role": "chord",
      "is_tied": false
    },
    {
      "midi": 74,
      "name": "D5",
      "start": 97.3881,
      "duration": 0.8955,
      "bar": 28,
      "beat": 1.75,
      "duration_beats": 1.0,
      "velocity": 0.56,
      "role": "melody",
      "is_tied": false
    },
    {
      "midi": 50,
      "name": "D3",
      "start": 97.3881,
      "duration": 0.8955,
      "bar": 28,
      "beat": 1.75,
      "duration_beats": 1.0,
      "velocity": 1.0,
      "role": "chord",
      "is_tied": false
    },
    {
      "midi": 40,
      "name": "E2",
      "start": 97.3881,
      "duration": 0.4478,
      "bar": 28,
      "beat": 1.75,
      "duration_beats": 0.5,
      "velocity": 1.0,
      "role": "bass",
      "is_tied": false
    },
    {
      "midi": 74,
      "name": "D5",
      "start": 98.0597,
      "duration": 0.2239,
      "bar": 28,
      "beat": 2.5,
      "duration_beats": 0.25,
      "velocity": 0.79,
      "role": "melody",
      "is_tied": true
    },
    {
      "midi": 72,
      "name": "C5",
      "start": 98.0597,
      "duration": 0.2239,
      "bar": 28,
      "beat": 2.5,
      "duration_beats": 0.25,
      "velocity": 1.0,
      "role": "melody",
      "is_tied": false
    },
    {
      "midi": 67,
      "name": "G4",
      "start": 98.0597,
      "duration": 0.2239,
      "bar": 28,
      "beat": 2.5,
      "duration_beats": 0.25,
      "velocity": 0.82,
      "role": "chord",
      "is_tied": true
    },
    {
      "midi": 52,
      "name": "E3",
      "start": 98.0597,
      "duration": 0.2239,
      "bar": 28,
      "beat": 2.5,
      "duration_beats": 0.25,
      "velocity": 0.72,
      "role": "chord",
      "is_tied": true
    },
    {
      "midi": 50,
      "name": "D3",
      "start": 98.0597,
      "duration": 0.2239,
      "bar": 28,
      "beat": 2.5,
      "duration_beats": 0.25,
      "velocity": 0.63,
      "role": "chord",
      "is_tied": true
    },
    {
      "midi": 48,
      "name": "C3",
      "start": 98.0597,
      "duration": 0.2239,
      "bar": 28,
      "beat": 2.5,
      "duration_beats": 0.25,
      "velocity": 1.0,
      "role": "bass",
      "is_tied": true
    },
    {
      "midi": 72,
      "name": "C5",
      "start": 98.2836,
      "duration": 0.4478,
      "bar": 28,
      "beat": 2.75,
      "duration_beats": 0.5,
      "velocity": 0.93,
      "role": "melody",
      "is_tied": false
    },
    {
      "midi": 58,
      "name": "A#3",
      "start": 98.2836,
      "duration": 0.6716,
      "bar": 28,
      "beat": 2.75,
      "duration_beats": 0.75,
      "velocity": 0.71,
      "role": "chord",
      "is_tied": false
    },
    {
      "midi": 52,
      "name": "E3",
      "start": 98.2836,
      "duration": 0.2239,
      "bar": 28,
      "beat": 2.75,
      "duration_beats": 0.25,
      "velocity": 0.72,
      "role": "chord",
      "is_tied": false
    },
    {
      "midi": 50,
      "name": "D3",
      "start": 98.2836,
      "duration": 0.4478,
      "bar": 28,
      "beat": 2.75,
      "duration_beats": 0.5,
      "velocity": 0.63,
      "role": "chord",
      "is_tied": false
    },
    {
      "midi": 48,
      "name": "C3",
      "start": 98.2836,
      "duration": 0.4478,
      "bar": 28,
      "beat": 2.75,
      "duration_beats": 0.5,
      "velocity": 0.47,
      "role": "bass",
      "is_tied": false
    },
    {
      "midi": 70,
      "name": "A#4",
      "start": 98.5075,
      "duration": 0.6716,
      "bar": 28,
      "beat": 3.0,
      "duration_beats": 0.75,
      "velocity": 0.52,
      "role": "melody",
      "is_tied": false
    },
    {
      "midi": 60,
      "name": "C4",
      "start": 98.5075,
      "duration": 0.6716,
      "bar": 28,
      "beat": 3.0,
      "duration_beats": 0.75,
      "velocity": 0.5,
      "role": "chord",
      "is_tied": false
    },
    {
      "midi": 41,
      "name": "F2",
      "start": 98.5075,
      "duration": 0.6716,
      "bar": 28,
      "beat": 3.0,
      "duration_beats": 0.75,
      "velocity": 1.0,
      "role": "bass",
      "is_tied": false
    },
    {
      "midi": 69,
      "name": "A4",
      "start": 98.7313,
      "duration": 0.2239,
      "bar": 28,
      "beat": 3.25,
      "duration_beats": 0.25,
      "velocity": 1.0,
      "role": "melody",
      "is_tied": false
    },
    {
      "midi": 55,
      "name": "G3",
      "start": 99.1791,
      "duration": 0.4478,
      "bar": 28,
      "beat": 3.75,
      "duration_beats": 0.5,
      "velocity": 0.46,
      "role": "chord",
      "is_tied": false
    },
    {
      "midi": 50,
      "name": "D3",
      "start": 99.1791,
      "duration": 1.3433,
      "bar": 28,
      "beat": 3.75,
      "duration_beats": 1.5,
      "velocity": 0.81,
      "role": "chord",
      "is_tied": false
    },
    {
      "midi": 48,
      "name": "C3",
      "start": 99.1791,
      "duration": 0.4478,
      "bar": 28,
      "beat": 3.75,
      "duration_beats": 0.5,
      "velocity": 0.36,
      "role": "chord",
      "is_tied": false
    },
    {
      "midi": 73,
      "name": "C#5",
      "start": 99.6269,
      "duration": 0.6716,
      "bar": 28,
      "beat": 4.25,
      "duration_beats": 0.75,
      "velocity": 0.35,
      "role": "melody",
      "is_tied": false
    },
    {
      "midi": 67,
      "name": "G4",
      "start": 99.6269,
      "duration": 0.2239,
      "bar": 28,
      "beat": 4.25,
      "duration_beats": 0.25,
      "velocity": 0.56,
      "role": "melody",
      "is_tied": true
    },
    {
      "midi": 66,
      "name": "F#4",
      "start": 99.6269,
      "duration": 0.4478,
      "bar": 28,
      "beat": 4.25,
      "duration_beats": 0.5,
      "velocity": 0.68,
      "role": "chord",
      "is_tied": false
    },
    {
      "midi": 61,
      "name": "C#4",
      "start": 99.6269,
      "duration": 0.8955,
      "bar": 28,
      "beat": 4.25,
      "duration_beats": 1.0,
      "velocity": 1.0,
      "role": "chord",
      "is_tied": false
    },
    {
      "midi": 58,
      "name": "A#3",
      "start": 99.6269,
      "duration": 0.2239,
      "bar": 28,
      "beat": 4.25,
      "duration_beats": 0.25,
      "velocity": 1.0,
      "role": "chord",
      "is_tied": true
    },
    {
      "midi": 73,
      "name": "C#5",
      "start": 100.0746,
      "duration": 0.2239,
      "bar": 28,
      "beat": 4.75,
      "duration_beats": 0.25,
      "velocity": 1.0,
      "role": "melody",
      "is_tied": false
    },
    {
      "midi": 38,
      "name": "D2",
      "start": 100.0746,
      "duration": 0.4478,
      "bar": 28,
      "beat": 4.75,
      "duration_beats": 0.5,
      "velocity": 1.0,
      "role": "bass",
      "is_tied": false
    },
    {
      "midi": 66,
      "name": "F#4",
      "start": 100.2985,
      "duration": 0.2239,
      "bar": 29,
      "beat": 1.0,
      "duration_beats": 0.25,
      "velocity": 0.78,
      "role": "melody",
      "is_tied": false
    },
    {
      "midi": 80,
      "name": "G#5",
      "start": 100.5224,
      "duration": 0.2239,
      "bar": 29,
      "beat": 1.25,
      "duration_beats": 0.25,
      "velocity": 0.31,
      "role": "melody",
      "is_tied": false
    },
    {
      "midi": 78,
      "name": "F#5",
      "start": 100.5224,
      "duration": 0.2239,
      "bar": 29,
      "beat": 1.25,
      "duration_beats": 0.25,
      "velocity": 0.48,
      "role": "melody",
      "is_tied": false
    },
    {
      "midi": 74,
      "name": "D5",
      "start": 100.7463,
      "duration": 0.6716,
      "bar": 29,
      "beat": 1.5,
      "duration_beats": 0.75,
      "velocity": 0.43,
      "role": "melody",
      "is_tied": false
    },
    {
      "midi": 71,
      "name": "B4",
      "start": 100.7463,
      "duration": 0.2239,
      "bar": 29,
      "beat": 1.5,
      "duration_beats": 0.25,
      "velocity": 0.54,
      "role": "melody",
      "is_tied": false
    },
    {
      "midi": 55,
      "name": "G3",
      "start": 100.7463,
      "duration": 0.2239,
      "bar": 29,
      "beat": 1.5,
      "duration_beats": 0.25,
      "velocity": 0.69,
      "role": "bass",
      "is_tied": false
    },
    {
      "midi": 71,
      "name": "B4",
      "start": 100.9701,
      "duration": 0.2239,
      "bar": 29,
      "beat": 1.75,
      "duration_beats": 0.25,
      "velocity": 0.54,
      "role": "melody",
      "is_tied": true
    },
    {
      "midi": 54,
      "name": "F#3",
      "start": 100.9701,
      "duration": 2.6866,
      "bar": 29,
      "beat": 1.75,
      "duration_beats": 3.0,
      "velocity": 1.0,
      "role": "bass",
      "is_tied": false
    },
    {
      "midi": 52,
      "name": "E3",
      "start": 100.9701,
      "duration": 0.2239,
      "bar": 29,
      "beat": 1.75,
      "duration_beats": 0.25,
      "velocity": 0.73,
      "role": "chord",
      "is_tied": true
    },
    {
      "midi": 74,
      "name": "D5",
      "start": 101.194,
      "duration": 0.2239,
      "bar": 29,
      "beat": 2.0,
      "duration_beats": 0.25,
      "velocity": 0.41,
      "role": "melody",
      "is_tied": false
    },
    {
      "midi": 73,
      "name": "C#5",
      "start": 101.194,
      "duration": 0.6716,
      "bar": 29,
      "beat": 2.0,
      "duration_beats": 0.75,
      "velocity": 0.31,
      "role": "melody",
      "is_tied": false
    },
    {
      "midi": 35,
      "name": "B1",
      "start": 101.194,
      "duration": 0.2239,
      "bar": 29,
      "beat": 2.0,
      "duration_beats": 0.25,
      "velocity": 0.32,
      "role": "bass",
      "is_tied": false
    },
    {
      "midi": 52,
      "name": "E3",
      "start": 101.4179,
      "duration": 0.4478,
      "bar": 29,
      "beat": 2.25,
      "duration_beats": 0.5,
      "velocity": 0.47,
      "role": "chord",
      "is_tied": false
    },
    {
      "midi": 74,
      "name": "D5",
      "start": 101.6418,
      "duration": 0.6716,
      "bar": 29,
      "beat": 2.5,
      "duration_beats": 0.75,
      "velocity": 1.0,
      "role": "melody",
      "is_tied": false
    },
    {
      "midi": 71,
      "name": "B4",
      "start": 101.8657,
      "duration": 1.3433,
      "bar": 29,
      "beat": 2.75,
      "duration_beats": 1.5,
      "velocity": 0.5,
      "role": "melody",
      "is_tied": false
    },
    {
      "midi": 40,
      "name": "E2",
      "start": 101.8657,
      "duration": 0.6716,
      "bar": 29,
      "beat": 2.75,
      "duration_beats": 0.75,
      "velocity": 1.0,
      "role": "bass",
      "is_tied": false
    },
    {
      "midi": 42,
      "name": "F#2",
      "start": 102.3134,
      "duration": 0.4478,
      "bar": 29,
      "beat": 3.25,
      "duration_beats": 0.5,
      "velocity": 0.85,
      "role": "bass",
      "is_tied": false
    },
    {
      "midi": 71,
      "name": "B4",
      "start": 102.5373,
      "duration": 0.6716,
      "bar": 29,
      "beat": 3.5,
      "duration_beats": 0.75,
      "velocity": 0.6,
      "role": "melody",
      "is_tied": false
    },
    {
      "midi": 57,
      "name": "A3",
      "start": 102.5373,
      "duration": 0.4478,
      "bar": 29,
      "beat": 3.5,
      "duration_beats": 0.5,
      "velocity": 0.6,
      "role": "chord",
      "is_tied": false
    },
    {
      "midi": 50,
      "name": "D3",
      "start": 102.5373,
      "duration": 1.3433,
      "bar": 29,
      "beat": 3.5,
      "duration_beats": 1.5,
      "velocity": 0.63,
      "role": "chord",
      "is_tied": false
    },
    {
      "midi": 42,
      "name": "F#2",
      "start": 102.7612,
      "duration": 0.2239,
      "bar": 29,
      "beat": 3.75,
      "duration_beats": 0.25,
      "velocity": 0.9,
      "role": "bass",
      "is_tied": false
    },
    {
      "midi": 74,
      "name": "D5",
      "start": 103.209,
      "duration": 0.8955,
      "bar": 29,
      "beat": 4.25,
      "duration_beats": 1.0,
      "velocity": 0.45,
      "role": "melody",
      "is_tied": false
    },
    {
      "midi": 57,
      "name": "A3",
      "start": 103.209,
      "duration": 0.8955,
      "bar": 29,
      "beat": 4.25,
      "duration_beats": 1.0,
      "velocity": 0.51,
      "role": "chord",
      "is_tied": false
    },
    {
      "midi": 50,
      "name": "D3",
      "start": 103.209,
      "duration": 0.6716,
      "bar": 29,
      "beat": 4.25,
      "duration_beats": 0.75,
      "velocity": 0.8,
      "role": "chord",
      "is_tied": false
    },
    {
      "midi": 47,
      "name": "B2",
      "start": 103.209,
      "duration": 0.8955,
      "bar": 29,
      "beat": 4.25,
      "duration_beats": 1.0,
      "velocity": 1.0,
      "role": "bass",
      "is_tied": false
    },
    {
      "midi": 72,
      "name": "C5",
      "start": 104.3284,
      "duration": 0.2239,
      "bar": 30,
      "beat": 1.5,
      "duration_beats": 0.25,
      "velocity": 0.89,
      "role": "melody",
      "is_tied": false
    },
    {
      "midi": 60,
      "name": "C4",
      "start": 104.3284,
      "duration": 0.4478,
      "bar": 30,
      "beat": 1.5,
      "duration_beats": 0.5,
      "velocity": 1.0,
      "role": "chord",
      "is_tied": false
    },
    {
      "midi": 56,
      "name": "G#3",
      "start": 104.3284,
      "duration": 0.2239,
      "bar": 30,
      "beat": 1.5,
      "duration_beats": 0.25,
      "velocity": 0.82,
      "role": "chord",
      "is_tied": false
    },
    {
      "midi": 54,
      "name": "F#3",
      "start": 104.3284,
      "duration": 0.4478,
      "bar": 30,
      "beat": 1.5,
      "duration_beats": 0.5,
      "velocity": 0.45,
      "role": "bass",
      "is_tied": false
    },
    {
      "midi": 68,
      "name": "G#4",
      "start": 104.5522,
      "duration": 0.2239,
      "bar": 30,
      "beat": 1.75,
      "duration_beats": 0.25,
      "velocity": 0.91,
      "role": "melody",
      "is_tied": false
    },
    {
      "midi": 52,
      "name": "E3",
      "start": 104.5522,
      "duration": 0.2239,
      "bar": 30,
      "beat": 1.75,
      "duration_beats": 0.25,
      "velocity": 1.0,
      "role": "chord",
      "is_tied": false
    },
    {
      "midi": 74,
      "name": "D5",
      "start": 105.0,
      "duration": 0.2239,
      "bar": 30,
      "beat": 2.25,
      "duration_beats": 0.25,
      "velocity": 1.0,
      "role": "melody",
      "is_tied": false
    },
    {
      "midi": 50,
      "name": "D3",
      "start": 105.0,
      "duration": 0.2239,
      "bar": 30,
      "beat": 2.25,
      "duration_beats": 0.25,
      "velocity": 0.54,
      "role": "chord",
      "is_tied": false
    },
    {
      "midi": 45,
      "name": "A2",
      "start": 105.0,
      "duration": 0.2239,
      "bar": 30,
      "beat": 2.25,
      "duration_beats": 0.25,
      "velocity": 1.0,
      "role": "bass",
      "is_tied": false
    },
    {
      "midi": 79,
      "name": "G5",
      "start": 105.2239,
      "duration": 0.2239,
      "bar": 30,
      "beat": 2.5,
      "duration_beats": 0.25,
      "velocity": 0.62,
      "role": "melody",
      "is_tied": false
    },
    {
      "midi": 74,
      "name": "D5",
      "start": 105.2239,
      "duration": 0.2239,
      "bar": 30,
      "beat": 2.5,
      "duration_beats": 0.25,
      "velocity": 0.85,
      "role": "melody",
      "is_tied": false
    },
    {
      "midi": 55,
      "name": "G3",
      "start": 105.2239,
      "duration": 0.2239,
      "bar": 30,
      "beat": 2.5,
      "duration_beats": 0.25,
      "velocity": 0.45,
      "role": "chord",
      "is_tied": false
    },
    {
      "midi": 45,
      "name": "A2",
      "start": 105.2239,
      "duration": 0.2239,
      "bar": 30,
      "beat": 2.5,
      "duration_beats": 0.25,
      "velocity": 1.0,
      "role": "bass",
      "is_tied": false
    },
    {
      "midi": 83,
      "name": "B5",
      "start": 105.6716,
      "duration": 0.2239,
      "bar": 30,
      "beat": 3.0,
      "duration_beats": 0.25,
      "velocity": 0.89,
      "role": "melody",
      "is_tied": false
    },
    {
      "midi": 74,
      "name": "D5",
      "start": 105.6716,
      "duration": 0.8955,
      "bar": 30,
      "beat": 3.0,
      "duration_beats": 1.0,
      "velocity": 0.63,
      "role": "melody",
      "is_tied": false
    },
    {
      "midi": 50,
      "name": "D3",
      "start": 105.6716,
      "duration": 1.3433,
      "bar": 30,
      "beat": 3.0,
      "duration_beats": 1.5,
      "velocity": 0.82,
      "role": "chord",
      "is_tied": false
    },
    {
      "midi": 45,
      "name": "A2",
      "start": 105.6716,
      "duration": 0.4478,
      "bar": 30,
      "beat": 3.0,
      "duration_beats": 0.5,
      "velocity": 1.0,
      "role": "bass",
      "is_tied": false
    },
    {
      "midi": 67,
      "name": "G4",
      "start": 106.1194,
      "duration": 0.4478,
      "bar": 30,
      "beat": 3.5,
      "duration_beats": 0.5,
      "velocity": 0.41,
      "role": "chord",
      "is_tied": false
    },
    {
      "midi": 52,
      "name": "E3",
      "start": 106.1194,
      "duration": 0.4478,
      "bar": 30,
      "beat": 3.5,
      "duration_beats": 0.5,
      "velocity": 0.56,
      "role": "chord",
      "is_tied": false
    },
    {
      "midi": 48,
      "name": "C3",
      "start": 106.3433,
      "duration": 0.2239,
      "bar": 30,
      "beat": 3.75,
      "duration_beats": 0.25,
      "velocity": 0.44,
      "role": "chord",
      "is_tied": false
    },
    {
      "midi": 42,
      "name": "F#2",
      "start": 106.3433,
      "duration": 0.2239,
      "bar": 30,
      "beat": 3.75,
      "duration_beats": 0.25,
      "velocity": 0.85,
      "role": "bass",
      "is_tied": false
    },
    {
      "midi": 72,
      "name": "C5",
      "start": 106.5672,
      "duration": 0.4478,
      "bar": 30,
      "beat": 4.0,
      "duration_beats": 0.5,
      "velocity": 0.66,
      "role": "melody",
      "is_tied": false
    },
    {
      "midi": 69,
      "name": "A4",
      "start": 106.5672,
      "duration": 0.4478,
      "bar": 30,
      "beat": 4.0,
      "duration_beats": 0.5,
      "velocity": 0.78,
      "role": "chord",
      "is_tied": false
    },
    {
      "midi": 60,
      "name": "C4",
      "start": 106.5672,
      "duration": 0.6716,
      "bar": 30,
      "beat": 4.0,
      "duration_beats": 0.75,
      "velocity": 0.92,
      "role": "chord",
      "is_tied": false
    },
    {
      "midi": 54,
      "name": "F#3",
      "start": 106.5672,
      "duration": 0.6716,
      "bar": 30,
      "beat": 4.0,
      "duration_beats": 0.75,
      "velocity": 1.0,
      "role": "bass",
      "is_tied": false
    },
    {
      "midi": 52,
      "name": "E3",
      "start": 106.5672,
      "duration": 0.4478,
      "bar": 30,
      "beat": 4.0,
      "duration_beats": 0.5,
      "velocity": 0.54,
      "role": "chord",
      "is_tied": false
    },
    {
      "midi": 50,
      "name": "D3",
      "start": 106.5672,
      "duration": 0.6716,
      "bar": 30,
      "beat": 4.0,
      "duration_beats": 0.75,
      "velocity": 0.67,
      "role": "chord",
      "is_tied": false
    },
    {
      "midi": 64,
      "name": "E4",
      "start": 107.0149,
      "duration": 0.2239,
      "bar": 30,
      "beat": 4.5,
      "duration_beats": 0.25,
      "velocity": 1.0,
      "role": "melody",
      "is_tied": false
    },
    {
      "midi": 62,
      "name": "D4",
      "start": 107.0149,
      "duration": 0.2239,
      "bar": 30,
      "beat": 4.5,
      "duration_beats": 0.25,
      "velocity": 0.65,
      "role": "chord",
      "is_tied": false
    },
    {
      "midi": 59,
      "name": "B3",
      "start": 107.0149,
      "duration": 0.2239,
      "bar": 30,
      "beat": 4.5,
      "duration_beats": 0.25,
      "velocity": 0.5,
      "role": "chord",
      "is_tied": false
    },
    {
      "midi": 59,
      "name": "B3",
      "start": 107.2388,
      "duration": 2.6866,
      "bar": 30,
      "beat": 4.75,
      "duration_beats": 3.0,
      "velocity": 0.5,
      "role": "chord",
      "is_tied": false
    },
    {
      "midi": 55,
      "name": "G3",
      "start": 107.2388,
      "duration": 0.2239,
      "bar": 30,
      "beat": 4.75,
      "duration_beats": 0.25,
      "velocity": 0.65,
      "role": "chord",
      "is_tied": false
    },
    {
      "midi": 54,
      "name": "F#3",
      "start": 107.2388,
      "duration": 2.6866,
      "bar": 30,
      "beat": 4.75,
      "duration_beats": 3.0,
      "velocity": 0.35,
      "role": "bass",
      "is_tied": false
    },
    {
      "midi": 50,
      "name": "D3",
      "start": 107.2388,
      "duration": 3.5821,
      "bar": 30,
      "beat": 4.75,
      "duration_beats": 4.0,
      "velocity": 0.93,
      "role": "chord",
      "is_tied": false
    },
    {
      "midi": 74,
      "name": "D5",
      "start": 107.4627,
      "duration": 0.6716,
      "bar": 31,
      "beat": 1.0,
      "duration_beats": 0.75,
      "velocity": 0.35,
      "role": "melody",
      "is_tied": false
    },
    {
      "midi": 62,
      "name": "D4",
      "start": 107.4627,
      "duration": 0.6716,
      "bar": 31,
      "beat": 1.0,
      "duration_beats": 0.75,
      "velocity": 1.0,
      "role": "chord",
      "is_tied": false
    },
    {
      "midi": 74,
      "name": "D5",
      "start": 107.6866,
      "duration": 0.4478,
      "bar": 31,
      "beat": 1.25,
      "duration_beats": 0.5,
      "velocity": 0.4,
      "role": "melody",
      "is_tied": false
    },
    {
      "midi": 62,
      "name": "D4",
      "start": 107.6866,
      "duration": 0.4478,
      "bar": 31,
      "beat": 1.25,
      "duration_beats": 0.5,
      "velocity": 1.0,
      "role": "chord",
      "is_tied": false
    },
    {
      "midi": 57,
      "name": "A3",
      "start": 107.6866,
      "duration": 0.8955,
      "bar": 31,
      "beat": 1.25,
      "duration_beats": 1.0,
      "velocity": 1.0,
      "role": "chord",
      "is_tied": false
    },
    {
      "midi": 54,
      "name": "F#3",
      "start": 107.6866,
      "duration": 2.6866,
      "bar": 31,
      "beat": 1.25,
      "duration_beats": 3.0,
      "velocity": 0.49,
      "role": "bass",
      "is_tied": false
    },
    {
      "midi": 69,
      "name": "A4",
      "start": 108.1343,
      "duration": 0.6716,
      "bar": 31,
      "beat": 1.75,
      "duration_beats": 0.75,
      "velocity": 1.0,
      "role": "melody",
      "is_tied": false
    },
    {
      "midi": 66,
      "name": "F#4",
      "start": 108.1343,
      "duration": 0.2239,
      "bar": 31,
      "beat": 1.75,
      "duration_beats": 0.25,
      "velocity": 0.85,
      "role": "melody",
      "is_tied": false
    },
    {
      "midi": 73,
      "name": "C#5",
      "start": 108.3582,
      "duration": 0.4478,
      "bar": 31,
      "beat": 2.0,
      "duration_beats": 0.5,
      "velocity": 0.49,
      "role": "melody",
      "is_tied": false
    },
    {
      "midi": 52,
      "name": "E3",
      "start": 108.3582,
      "duration": 0.4478,
      "bar": 31,
      "beat": 2.0,
      "duration_beats": 0.5,
      "velocity": 0.38,
      "role": "chord",
      "is_tied": false
    },
    {
      "midi": 74,
      "name": "D5",
      "start": 108.5821,
      "duration": 0.6716,
      "bar": 31,
      "beat": 2.25,
      "duration_beats": 0.75,
      "velocity": 1.0,
      "role": "melody",
      "is_tied": false
    },
    {
      "midi": 43,
      "name": "G2",
      "start": 108.5821,
      "duration": 0.2239,
      "bar": 31,
      "beat": 2.25,
      "duration_beats": 0.25,
      "velocity": 0.7,
      "role": "bass",
      "is_tied": true
    },
    {
      "midi": 41,
      "name": "F2",
      "start": 108.806,
      "duration": 0.4478,
      "bar": 31,
      "beat": 2.5,
      "duration_beats": 0.5,
      "velocity": 1.0,
      "role": "bass",
      "is_tied": false
    },
    {
      "midi": 69,
      "name": "A4",
      "start": 109.0299,
      "duration": 1.791,
      "bar": 31,
      "beat": 2.75,
      "duration_beats": 2.0,
      "velocity": 1.0,
      "role": "melody",
      "is_tied": false
    },
    {
      "midi": 69,
      "name": "A4",
      "start": 109.2537,
      "duration": 1.791,
      "bar": 31,
      "beat": 3.0,
      "duration_beats": 2.0,
      "velocity": 1.0,
      "role": "melody",
      "is_tied": false
    },
    {
      "midi": 43,
      "name": "G2",
      "start": 109.2537,
      "duration": 0.2239,
      "bar": 31,
      "beat": 3.0,
      "duration_beats": 0.25,
      "velocity": 0.5,
      "role": "bass",
      "is_tied": false
    },
    {
      "midi": 71,
      "name": "B4",
      "start": 109.4776,
      "duration": 0.6716,
      "bar": 31,
      "beat": 3.25,
      "duration_beats": 0.75,
      "velocity": 0.43,
      "role": "melody",
      "is_tied": false
    },
    {
      "midi": 69,
      "name": "A4",
      "start": 109.4776,
      "duration": 1.3433,
      "bar": 31,
      "beat": 3.25,
      "duration_beats": 1.5,
      "velocity": 1.0,
      "role": "melody",
      "is_tied": false
    },
    {
      "midi": 54,
      "name": "F#3",
      "start": 109.4776,
      "duration": 0.6716,
      "bar": 31,
      "beat": 3.25,
      "duration_beats": 0.75,
      "velocity": 0.81,
      "role": "bass",
      "is_tied": false
    },
    {
      "midi": 50,
      "name": "D3",
      "start": 109.4776,
      "duration": 1.3433,
      "bar": 31,
      "beat": 3.25,
      "duration_beats": 1.5,
      "velocity": 1.0,
      "role": "chord",
      "is_tied": false
    },
    {
      "midi": 66,
      "name": "F#4",
      "start": 109.7015,
      "duration": 0.4478,
      "bar": 31,
      "beat": 3.5,
      "duration_beats": 0.5,
      "velocity": 0.62,
      "role": "chord",
      "is_tied": false
    },
    {
      "midi": 58,
      "name": "A#3",
      "start": 110.1493,
      "duration": 0.8955,
      "bar": 31,
      "beat": 4.0,
      "duration_beats": 1.0,
      "velocity": 0.45,
      "role": "chord",
      "is_tied": false
    },
    {
      "midi": 48,
      "name": "C3",
      "start": 110.1493,
      "duration": 0.8955,
      "bar": 31,
      "beat": 4.0,
      "duration_beats": 1.0,
      "velocity": 1.0,
      "role": "bass",
      "is_tied": false
    },
    {
      "midi": 74,
      "name": "D5",
      "start": 110.3731,
      "duration": 0.6716,
      "bar": 31,
      "beat": 4.25,
      "duration_beats": 0.75,
      "velocity": 0.55,
      "role": "melody",
      "is_tied": false
    },
    {
      "midi": 58,
      "name": "A#3",
      "start": 110.3731,
      "duration": 0.6716,
      "bar": 31,
      "beat": 4.25,
      "duration_beats": 0.75,
      "velocity": 0.52,
      "role": "chord",
      "is_tied": false
    },
    {
      "midi": 50,
      "name": "D3",
      "start": 110.3731,
      "duration": 0.6716,
      "bar": 31,
      "beat": 4.25,
      "duration_beats": 0.75,
      "velocity": 0.81,
      "role": "chord",
      "is_tied": false
    },
    {
      "midi": 48,
      "name": "C3",
      "start": 110.3731,
      "duration": 0.6716,
      "bar": 31,
      "beat": 4.25,
      "duration_beats": 0.75,
      "velocity": 0.98,
      "role": "bass",
      "is_tied": false
    },
    {
      "midi": 76,
      "name": "E5",
      "start": 111.0448,
      "duration": 0.2239,
      "bar": 31,
      "beat": 5.0,
      "duration_beats": 0.25,
      "velocity": 1.0,
      "role": "melody",
      "is_tied": false
    },
    {
      "midi": 58,
      "name": "A#3",
      "start": 111.0448,
      "duration": 1.791,
      "bar": 31,
      "beat": 5.0,
      "duration_beats": 2.0,
      "velocity": 0.53,
      "role": "chord",
      "is_tied": false
    },
    {
      "midi": 57,
      "name": "A3",
      "start": 111.0448,
      "duration": 0.2239,
      "bar": 31,
      "beat": 5.0,
      "duration_beats": 0.25,
      "velocity": 0.55,
      "role": "chord",
      "is_tied": false
    },
    {
      "midi": 72,
      "name": "C5",
      "start": 111.2687,
      "duration": 1.3433,
      "bar": 32,
      "beat": 1.25,
      "duration_beats": 1.5,
      "velocity": 0.83,
      "role": "melody",
      "is_tied": false
    },
    {
      "midi": 65,
      "name": "F4",
      "start": 111.2687,
      "duration": 0.6716,
      "bar": 32,
      "beat": 1.25,
      "duration_beats": 0.75,
      "velocity": 0.65,
      "role": "chord",
      "is_tied": false
    },
    {
      "midi": 60,
      "name": "C4",
      "start": 111.2687,
      "duration": 0.8955,
      "bar": 32,
      "beat": 1.25,
      "duration_beats": 1.0,
      "velocity": 0.81,
      "role": "chord",
      "is_tied": false
    },
    {
      "midi": 58,
      "name": "A#3",
      "start": 111.2687,
      "duration": 1.791,
      "bar": 32,
      "beat": 1.25,
      "duration_beats": 2.0,
      "velocity": 0.53,
      "role": "chord",
      "is_tied": false
    },
    {
      "midi": 69,
      "name": "A4",
      "start": 111.9403,
      "duration": 0.4478,
      "bar": 32,
      "beat": 2.0,
      "duration_beats": 0.5,
      "velocity": 0.57,
      "role": "chord",
      "is_tied": false
    },
    {
      "midi": 66,
      "name": "F#4",
      "start": 111.9403,
      "duration": 0.4478,
      "bar": 32,
      "beat": 2.0,
      "duration_beats": 0.5,
      "velocity": 0.5,
      "role": "chord",
      "is_tied": false
    },
    {
      "midi": 34,
      "name": "A#1",
      "start": 111.9403,
      "duration": 0.4478,
      "bar": 32,
      "beat": 2.0,
      "duration_beats": 0.5,
      "velocity": 0.62,
      "role": "bass",
      "is_tied": false
    },
    {
      "midi": 70,
      "name": "A#4",
      "start": 112.3881,
      "duration": 1.3433,
      "bar": 32,
      "beat": 2.5,
      "duration_beats": 1.5,
      "velocity": 1.0,
      "role": "chord",
      "is_tied": false
    },
    {
      "midi": 50,
      "name": "D3",
      "start": 112.3881,
      "duration": 3.5821,
      "bar": 32,
      "beat": 2.5,
      "duration_beats": 4.0,
      "velocity": 0.72,
      "role": "chord",
      "is_tied": false
    },
    {
      "midi": 69,
      "name": "A4",
      "start": 112.8358,
      "duration": 0.2239,
      "bar": 32,
      "beat": 3.0,
      "duration_beats": 0.25,
      "velocity": 0.38,
      "role": "melody",
      "is_tied": false
    },
    {
      "midi": 35,
      "name": "B1",
      "start": 113.0597,
      "duration": 0.2239,
      "bar": 32,
      "beat": 3.25,
      "duration_beats": 0.25,
      "velocity": 0.69,
      "role": "bass",
      "is_tied": false
    },
    {
      "midi": 69,
      "name": "A4",
      "start": 113.2836,
      "duration": 1.791,
      "bar": 32,
      "beat": 3.5,
      "duration_beats": 2.0,
      "velocity": 0.35,
      "role": "melody",
      "is_tied": false
    },
    {
      "midi": 50,
      "name": "D3",
      "start": 113.2836,
      "duration": 2.6866,
      "bar": 32,
      "beat": 3.5,
      "duration_beats": 3.0,
      "velocity": 0.47,
      "role": "chord",
      "is_tied": false
    },
    {
      "midi": 41,
      "name": "F2",
      "start": 113.2836,
      "duration": 0.6716,
      "bar": 32,
      "beat": 3.5,
      "duration_beats": 0.75,
      "velocity": 1.0,
      "role": "bass",
      "is_tied": false
    },
    {
      "midi": 50,
      "name": "D3",
      "start": 113.9552,
      "duration": 1.791,
      "bar": 32,
      "beat": 4.25,
      "duration_beats": 2.0,
      "velocity": 0.54,
      "role": "chord",
      "is_tied": false
    },
    {
      "midi": 68,
      "name": "G#4",
      "start": 114.1791,
      "duration": 0.6716,
      "bar": 32,
      "beat": 4.5,
      "duration_beats": 0.75,
      "velocity": 0.38,
      "role": "melody",
      "is_tied": false
    },
    {
      "midi": 38,
      "name": "D2",
      "start": 114.1791,
      "duration": 0.8955,
      "bar": 32,
      "beat": 4.5,
      "duration_beats": 1.0,
      "velocity": 1.0,
      "role": "bass",
      "is_tied": false
    },
    {
      "midi": 33,
      "name": "A1",
      "start": 114.8507,
      "duration": 0.6716,
      "bar": 33,
      "beat": 1.25,
      "duration_beats": 0.75,
      "velocity": 0.48,
      "role": "bass",
      "is_tied": false
    },
    {
      "midi": 52,
      "name": "E3",
      "start": 115.0746,
      "duration": 0.4478,
      "bar": 33,
      "beat": 1.5,
      "duration_beats": 0.5,
      "velocity": 1.0,
      "role": "chord",
      "is_tied": false
    },
    {
      "midi": 59,
      "name": "B3",
      "start": 115.2985,
      "duration": 0.2239,
      "bar": 33,
      "beat": 1.75,
      "duration_beats": 0.25,
      "velocity": 0.36,
      "role": "chord",
      "is_tied": false
    },
    {
      "midi": 57,
      "name": "A3",
      "start": 115.2985,
      "duration": 0.2239,
      "bar": 33,
      "beat": 1.75,
      "duration_beats": 0.25,
      "velocity": 0.5,
      "role": "chord",
      "is_tied": false
    },
    {
      "midi": 73,
      "name": "C#5",
      "start": 115.5224,
      "duration": 0.4478,
      "bar": 33,
      "beat": 2.0,
      "duration_beats": 0.5,
      "velocity": 0.47,
      "role": "melody",
      "is_tied": false
    },
    {
      "midi": 42,
      "name": "F#2",
      "start": 115.5224,
      "duration": 0.4478,
      "bar": 33,
      "beat": 2.0,
      "duration_beats": 0.5,
      "velocity": 0.8,
      "role": "bass",
      "is_tied": false
    },
    {
      "midi": 73,
      "name": "C#5",
      "start": 115.9701,
      "duration": 0.2239,
      "bar": 33,
      "beat": 2.5,
      "duration_beats": 0.25,
      "velocity": 0.79,
      "role": "melody",
      "is_tied": false
    },
    {
      "midi": 50,
      "name": "D3",
      "start": 115.9701,
      "duration": 0.2239,
      "bar": 33,
      "beat": 2.5,
      "duration_beats": 0.25,
      "velocity": 0.99,
      "role": "chord",
      "is_tied": false
    },
    {
      "midi": 45,
      "name": "A2",
      "start": 115.9701,
      "duration": 0.2239,
      "bar": 33,
      "beat": 2.5,
      "duration_beats": 0.25,
      "velocity": 1.0,
      "role": "bass",
      "is_tied": false
    },
    {
      "midi": 73,
      "name": "C#5",
      "start": 116.194,
      "duration": 0.6716,
      "bar": 33,
      "beat": 2.75,
      "duration_beats": 0.75,
      "velocity": 0.79,
      "role": "melody",
      "is_tied": false
    },
    {
      "midi": 50,
      "name": "D3",
      "start": 116.194,
      "duration": 0.6716,
      "bar": 33,
      "beat": 2.75,
      "duration_beats": 0.75,
      "velocity": 0.66,
      "role": "chord",
      "is_tied": false
    },
    {
      "midi": 73,
      "name": "C#5",
      "start": 116.4179,
      "duration": 0.4478,
      "bar": 33,
      "beat": 3.0,
      "duration_beats": 0.5,
      "velocity": 0.62,
      "role": "melody",
      "is_tied": false
    },
    {
      "midi": 66,
      "name": "F#4",
      "start": 116.4179,
      "duration": 0.8955,
      "bar": 33,
      "beat": 3.0,
      "duration_beats": 1.0,
      "velocity": 0.67,
      "role": "melody",
      "is_tied": false
    },
    {
      "midi": 64,
      "name": "E4",
      "start": 116.4179,
      "duration": 0.4478,
      "bar": 33,
      "beat": 3.0,
      "duration_beats": 0.5,
      "velocity": 0.82,
      "role": "chord",
      "is_tied": false
    },
    {
      "midi": 59,
      "name": "B3",
      "start": 116.4179,
      "duration": 2.6866,
      "bar": 33,
      "beat": 3.0,
      "duration_beats": 3.0,
      "velocity": 1.0,
      "role": "chord",
      "is_tied": false
    },
    {
      "midi": 61,
      "name": "C#4",
      "start": 116.8657,
      "duration": 0.4478,
      "bar": 33,
      "beat": 3.5,
      "duration_beats": 0.5,
      "velocity": 0.76,
      "role": "chord",
      "is_tied": false
    },
    {
      "midi": 54,
      "name": "F#3",
      "start": 116.8657,
      "duration": 0.4478,
      "bar": 33,
      "beat": 3.5,
      "duration_beats": 0.5,
      "velocity": 0.74,
      "role": "chord",
      "is_tied": false
    },
    {
      "midi": 52,
      "name": "E3",
      "start": 116.8657,
      "duration": 2.6866,
      "bar": 33,
      "beat": 3.5,
      "duration_beats": 3.0,
      "velocity": 0.66,
      "role": "chord",
      "is_tied": false
    },
    {
      "midi": 55,
      "name": "G3",
      "start": 117.3134,
      "duration": 2.6866,
      "bar": 33,
      "beat": 4.0,
      "duration_beats": 3.0,
      "velocity": 0.54,
      "role": "chord",
      "is_tied": false
    },
    {
      "midi": 52,
      "name": "E3",
      "start": 117.3134,
      "duration": 1.791,
      "bar": 33,
      "beat": 4.0,
      "duration_beats": 2.0,
      "velocity": 0.6,
      "role": "chord",
      "is_tied": false
    },
    {
      "midi": 45,
      "name": "A2",
      "start": 117.3134,
      "duration": 1.791,
      "bar": 33,
      "beat": 4.0,
      "duration_beats": 2.0,
      "velocity": 0.96,
      "role": "bass",
      "is_tied": false
    },
    {
      "midi": 51,
      "name": "D#3",
      "start": 119.3284,
      "duration": 0.2239,
      "bar": 34,
      "beat": 2.25,
      "duration_beats": 0.25,
      "velocity": 0.44,
      "role": "chord",
      "is_tied": false
    },
    {
      "midi": 41,
      "name": "F2",
      "start": 119.3284,
      "duration": 0.4478,
      "bar": 34,
      "beat": 2.25,
      "duration_beats": 0.5,
      "velocity": 1.0,
      "role": "bass",
      "is_tied": false
    },
    {
      "midi": 71,
      "name": "B4",
      "start": 119.5522,
      "duration": 1.3433,
      "bar": 34,
      "beat": 2.5,
      "duration_beats": 1.5,
      "velocity": 0.47,
      "role": "melody",
      "is_tied": false
    },
    {
      "midi": 68,
      "name": "G#4",
      "start": 119.5522,
      "duration": 0.4478,
      "bar": 34,
      "beat": 2.5,
      "duration_beats": 0.5,
      "velocity": 0.95,
      "role": "melody",
      "is_tied": false
    },
    {
      "midi": 66,
      "name": "F#4",
      "start": 119.5522,
      "duration": 0.4478,
      "bar": 34,
      "beat": 2.5,
      "duration_beats": 0.5,
      "velocity": 1.0,
      "role": "chord",
      "is_tied": false
    },
    {
      "midi": 36,
      "name": "C2",
      "start": 120.0,
      "duration": 0.2239,
      "bar": 34,
      "beat": 3.0,
      "duration_beats": 0.25,
      "velocity": 0.56,
      "role": "bass",
      "is_tied": false
    },
    {
      "midi": 64,
      "name": "E4",
      "start": 120.2239,
      "duration": 0.6716,
      "bar": 34,
      "beat": 3.25,
      "duration_beats": 0.75,
      "velocity": 1.0,
      "role": "melody",
      "is_tied": false
    },
    {
      "midi": 50,
      "name": "D3",
      "start": 120.2239,
      "duration": 1.3433,
      "bar": 34,
      "beat": 3.25,
      "duration_beats": 1.5,
      "velocity": 0.77,
      "role": "chord",
      "is_tied": false
    },
    {
      "midi": 71,
      "name": "B4",
      "start": 120.4478,
      "duration": 0.4478,
      "bar": 34,
      "beat": 3.5,
      "duration_beats": 0.5,
      "velocity": 0.6,
      "role": "melody",
      "is_tied": false
    },
    {
      "midi": 57,
      "name": "A3",
      "start": 120.4478,
      "duration": 0.8955,
      "bar": 34,
      "beat": 3.5,
      "duration_beats": 1.0,
      "velocity": 0.63,
      "role": "chord",
      "is_tied": false
    },
    {
      "midi": 52,
      "name": "E3",
      "start": 120.4478,
      "duration": 0.8955,
      "bar": 34,
      "beat": 3.5,
      "duration_beats": 1.0,
      "velocity": 0.47,
      "role": "chord",
      "is_tied": false
    },
    {
      "midi": 50,
      "name": "D3",
      "start": 120.4478,
      "duration": 0.8955,
      "bar": 34,
      "beat": 3.5,
      "duration_beats": 1.0,
      "velocity": 0.87,
      "role": "chord",
      "is_tied": false
    },
    {
      "midi": 64,
      "name": "E4",
      "start": 121.1194,
      "duration": 0.2239,
      "bar": 34,
      "beat": 4.25,
      "duration_beats": 0.25,
      "velocity": 1.0,
      "role": "melody",
      "is_tied": false
    },
    {
      "midi": 62,
      "name": "D4",
      "start": 121.1194,
      "duration": 0.2239,
      "bar": 34,
      "beat": 4.25,
      "duration_beats": 0.25,
      "velocity": 1.0,
      "role": "chord",
      "is_tied": false
    },
    {
      "midi": 55,
      "name": "G3",
      "start": 121.1194,
      "duration": 0.2239,
      "bar": 34,
      "beat": 4.25,
      "duration_beats": 0.25,
      "velocity": 1.0,
      "role": "chord",
      "is_tied": false
    },
    {
      "midi": 74,
      "name": "D5",
      "start": 121.3433,
      "duration": 0.8955,
      "bar": 34,
      "beat": 4.5,
      "duration_beats": 1.0,
      "velocity": 0.66,
      "role": "melody",
      "is_tied": false
    },
    {
      "midi": 57,
      "name": "A3",
      "start": 121.3433,
      "duration": 0.8955,
      "bar": 34,
      "beat": 4.5,
      "duration_beats": 1.0,
      "velocity": 0.66,
      "role": "chord",
      "is_tied": false
    },
    {
      "midi": 55,
      "name": "G3",
      "start": 121.3433,
      "duration": 0.4478,
      "bar": 34,
      "beat": 4.5,
      "duration_beats": 0.5,
      "velocity": 0.76,
      "role": "chord",
      "is_tied": false
    },
    {
      "midi": 50,
      "name": "D3",
      "start": 121.3433,
      "duration": 0.8955,
      "bar": 34,
      "beat": 4.5,
      "duration_beats": 1.0,
      "velocity": 0.63,
      "role": "chord",
      "is_tied": false
    },
    {
      "midi": 52,
      "name": "E3",
      "start": 122.0149,
      "duration": 0.2239,
      "bar": 35,
      "beat": 1.25,
      "duration_beats": 0.25,
      "velocity": 0.39,
      "role": "chord",
      "is_tied": true
    },
    {
      "midi": 76,
      "name": "E5",
      "start": 122.2388,
      "duration": 0.2239,
      "bar": 35,
      "beat": 1.5,
      "duration_beats": 0.25,
      "velocity": 0.39,
      "role": "melody",
      "is_tied": false
    },
    {
      "midi": 74,
      "name": "D5",
      "start": 122.2388,
      "duration": 0.2239,
      "bar": 35,
      "beat": 1.5,
      "duration_beats": 0.25,
      "velocity": 1.0,
      "role": "melody",
      "is_tied": false
    },
    {
      "midi": 57,
      "name": "A3",
      "start": 122.2388,
      "duration": 0.2239,
      "bar": 35,
      "beat": 1.5,
      "duration_beats": 0.25,
      "velocity": 0.64,
      "role": "chord",
      "is_tied": false
    },
    {
      "midi": 54,
      "name": "F#3",
      "start": 122.2388,
      "duration": 0.2239,
      "bar": 35,
      "beat": 1.5,
      "duration_beats": 0.25,
      "velocity": 0.81,
      "role": "bass",
      "is_tied": false
    },
    {
      "midi": 52,
      "name": "E3",
      "start": 122.2388,
      "duration": 0.2239,
      "bar": 35,
      "beat": 1.5,
      "duration_beats": 0.25,
      "velocity": 0.4,
      "role": "chord",
      "is_tied": false
    },
    {
      "midi": 50,
      "name": "D3",
      "start": 122.2388,
      "duration": 0.2239,
      "bar": 35,
      "beat": 1.5,
      "duration_beats": 0.25,
      "velocity": 0.62,
      "role": "chord",
      "is_tied": false
    },
    {
      "midi": 78,
      "name": "F#5",
      "start": 122.4627,
      "duration": 0.6716,
      "bar": 35,
      "beat": 1.75,
      "duration_beats": 0.75,
      "velocity": 0.86,
      "role": "melody",
      "is_tied": false
    },
    {
      "midi": 59,
      "name": "B3",
      "start": 122.4627,
      "duration": 0.4478,
      "bar": 35,
      "beat": 1.75,
      "duration_beats": 0.5,
      "velocity": 0.54,
      "role": "chord",
      "is_tied": false
    },
    {
      "midi": 55,
      "name": "G3",
      "start": 122.4627,
      "duration": 0.2239,
      "bar": 35,
      "beat": 1.75,
      "duration_beats": 0.25,
      "velocity": 1.0,
      "role": "chord",
      "is_tied": false
    },
    {
      "midi": 54,
      "name": "F#3",
      "start": 122.4627,
      "duration": 0.6716,
      "bar": 35,
      "beat": 1.75,
      "duration_beats": 0.75,
      "velocity": 0.71,
      "role": "bass",
      "is_tied": false
    },
    {
      "midi": 50,
      "name": "D3",
      "start": 122.4627,
      "duration": 3.5821,
      "bar": 35,
      "beat": 1.75,
      "duration_beats": 4.0,
      "velocity": 0.91,
      "role": "chord",
      "is_tied": false
    },
    {
      "midi": 52,
      "name": "E3",
      "start": 122.6866,
      "duration": 0.4478,
      "bar": 35,
      "beat": 2.0,
      "duration_beats": 0.5,
      "velocity": 0.59,
      "role": "chord",
      "is_tied": true
    },
    {
      "midi": 83,
      "name": "B5",
      "start": 122.9104,
      "duration": 0.4478,
      "bar": 35,
      "beat": 2.25,
      "duration_beats": 0.5,
      "velocity": 0.66,
      "role": "melody",
      "is_tied": false
    },
    {
      "midi": 69,
      "name": "A4",
      "start": 122.9104,
      "duration": 0.2239,
      "bar": 35,
      "beat": 2.25,
      "duration_beats": 0.25,
      "velocity": 1.0,
      "role": "chord",
      "is_tied": false
    },
    {
      "midi": 59,
      "name": "B3",
      "start": 122.9104,
      "duration": 0.2239,
      "bar": 35,
      "beat": 2.25,
      "duration_beats": 0.25,
      "velocity": 0.71,
      "role": "chord",
      "is_tied": true
    },
    {
      "midi": 74,
      "name": "D5",
      "start": 123.1343,
      "duration": 0.4478,
      "bar": 35,
      "beat": 2.5,
      "duration_beats": 0.5,
      "velocity": 1.0,
      "role": "melody",
      "is_tied": false
    },
    {
      "midi": 66,
      "name": "F#4",
      "start": 123.1343,
      "duration": 0.2239,
      "bar": 35,
      "beat": 2.5,
      "duration_beats": 0.25,
      "velocity": 1.0,
      "role": "chord",
      "is_tied": false
    },
    {
      "midi": 36,
      "name": "C2",
      "start": 123.1343,
      "duration": 0.4478,
      "bar": 35,
      "beat": 2.5,
      "duration_beats": 0.5,
      "velocity": 0.65,
      "role": "bass",
      "is_tied": false
    },
    {
      "midi": 59,
      "name": "B3",
      "start": 123.3582,
      "duration": 0.2239,
      "bar": 35,
      "beat": 2.75,
      "duration_beats": 0.25,
      "velocity": 0.4,
      "role": "chord",
      "is_tied": false
    },
    {
      "midi": 69,
      "name": "A4",
      "start": 123.5821,
      "duration": 1.3433,
      "bar": 35,
      "beat": 3.0,
      "duration_beats": 1.5,
      "velocity": 0.56,
      "role": "melody",
      "is_tied": false
    },
    {
      "midi": 62,
      "name": "D4",
      "start": 123.5821,
      "duration": 1.791,
      "bar": 35,
      "beat": 3.0,
      "duration_beats": 2.0,
      "velocity": 1.0,
      "role": "chord",
      "is_tied": false
    },
    {
      "midi": 42,
      "name": "F#2",
      "start": 123.5821,
      "duration": 0.2239,
      "bar": 35,
      "beat": 3.0,
      "duration_beats": 0.25,
      "velocity": 1.0,
      "role": "bass",
      "is_tied": false
    },
    {
      "midi": 74,
      "name": "D5",
      "start": 123.806,
      "duration": 1.791,
      "bar": 35,
      "beat": 3.25,
      "duration_beats": 2.0,
      "velocity": 0.57,
      "role": "melody",
      "is_tied": false
    },
    {
      "midi": 69,
      "name": "A4",
      "start": 123.806,
      "duration": 0.8955,
      "bar": 35,
      "beat": 3.25,
      "duration_beats": 1.0,
      "velocity": 0.84,
      "role": "melody",
      "is_tied": false
    },
    {
      "midi": 50,
      "name": "D3",
      "start": 123.806,
      "duration": 1.791,
      "bar": 35,
      "beat": 3.25,
      "duration_beats": 2.0,
      "velocity": 0.87,
      "role": "chord",
      "is_tied": false
    },
    {
      "midi": 43,
      "name": "G2",
      "start": 123.806,
      "duration": 0.8955,
      "bar": 35,
      "beat": 3.25,
      "duration_beats": 1.0,
      "velocity": 1.0,
      "role": "bass",
      "is_tied": false
    },
    {
      "midi": 74,
      "name": "D5",
      "start": 124.7015,
      "duration": 0.6716,
      "bar": 35,
      "beat": 4.25,
      "duration_beats": 0.75,
      "velocity": 0.61,
      "role": "melody",
      "is_tied": false
    },
    {
      "midi": 64,
      "name": "E4",
      "start": 124.7015,
      "duration": 0.6716,
      "bar": 35,
      "beat": 4.25,
      "duration_beats": 0.75,
      "velocity": 1.0,
      "role": "melody",
      "is_tied": false
    },
    {
      "midi": 62,
      "name": "D4",
      "start": 124.7015,
      "duration": 0.6716,
      "bar": 35,
      "beat": 4.25,
      "duration_beats": 0.75,
      "velocity": 0.95,
      "role": "chord",
      "is_tied": false
    },
    {
      "midi": 58,
      "name": "A#3",
      "start": 124.7015,
      "duration": 0.6716,
      "bar": 35,
      "beat": 4.25,
      "duration_beats": 0.75,
      "velocity": 0.95,
      "role": "chord",
      "is_tied": false
    },
    {
      "midi": 58,
      "name": "A#3",
      "start": 125.3731,
      "duration": 0.2239,
      "bar": 36,
      "beat": 1.0,
      "duration_beats": 0.25,
      "velocity": 1.0,
      "role": "chord",
      "is_tied": true
    },
    {
      "midi": 53,
      "name": "F3",
      "start": 125.3731,
      "duration": 0.2239,
      "bar": 36,
      "beat": 1.0,
      "duration_beats": 0.25,
      "velocity": 1.0,
      "role": "bass",
      "is_tied": true
    },
    {
      "midi": 50,
      "name": "D3",
      "start": 125.3731,
      "duration": 0.2239,
      "bar": 36,
      "beat": 1.0,
      "duration_beats": 0.25,
      "velocity": 0.45,
      "role": "chord",
      "is_tied": true
    },
    {
      "midi": 72,
      "name": "C5",
      "start": 125.597,
      "duration": 0.2239,
      "bar": 36,
      "beat": 1.25,
      "duration_beats": 0.25,
      "velocity": 0.81,
      "role": "melody",
      "is_tied": false
    },
    {
      "midi": 58,
      "name": "A#3",
      "start": 125.597,
      "duration": 0.2239,
      "bar": 36,
      "beat": 1.25,
      "duration_beats": 0.25,
      "velocity": 0.38,
      "role": "chord",
      "is_tied": false
    },
    {
      "midi": 50,
      "name": "D3",
      "start": 125.597,
      "duration": 0.2239,
      "bar": 36,
      "beat": 1.25,
      "duration_beats": 0.25,
      "velocity": 0.69,
      "role": "chord",
      "is_tied": false
    },
    {
      "midi": 74,
      "name": "D5",
      "start": 125.8209,
      "duration": 0.4478,
      "bar": 36,
      "beat": 1.5,
      "duration_beats": 0.5,
      "velocity": 0.77,
      "role": "melody",
      "is_tied": false
    },
    {
      "midi": 58,
      "name": "A#3",
      "start": 125.8209,
      "duration": 0.2239,
      "bar": 36,
      "beat": 1.5,
      "duration_beats": 0.25,
      "velocity": 0.87,
      "role": "chord",
      "is_tied": false
    },
    {
      "midi": 50,
      "name": "D3",
      "start": 125.8209,
      "duration": 0.6716,
      "bar": 36,
      "beat": 1.5,
      "duration_beats": 0.75,
      "velocity": 0.96,
      "role": "chord",
      "is_tied": false
    },
    {
      "midi": 81,
      "name": "A5",
      "start": 126.0448,
      "duration": 0.4478,
      "bar": 36,
      "beat": 1.75,
      "duration_beats": 0.5,
      "velocity": 1.0,
      "role": "melody",
      "is_tied": false
    },
    {
      "midi": 49,
      "name": "C#3",
      "start": 126.0448,
      "duration": 0.4478,
      "bar": 36,
      "beat": 1.75,
      "duration_beats": 0.5,
      "velocity": 0.71,
      "role": "chord",
      "is_tied": false
    },
    {
      "midi": 41,
      "name": "F2",
      "start": 126.0448,
      "duration": 0.4478,
      "bar": 36,
      "beat": 1.75,
      "duration_beats": 0.5,
      "velocity": 0.66,
      "role": "bass",
      "is_tied": false
    },
    {
      "midi": 81,
      "name": "A5",
      "start": 126.2687,
      "duration": 0.2239,
      "bar": 36,
      "beat": 2.0,
      "duration_beats": 0.25,
      "velocity": 1.0,
      "role": "melody",
      "is_tied": false
    },
    {
      "midi": 74,
      "name": "D5",
      "start": 126.2687,
      "duration": 0.2239,
      "bar": 36,
      "beat": 2.0,
      "duration_beats": 0.25,
      "velocity": 0.7,
      "role": "melody",
      "is_tied": false
    },
    {
      "midi": 53,
      "name": "F3",
      "start": 126.2687,
      "duration": 0.2239,
      "bar": 36,
      "beat": 2.0,
      "duration_beats": 0.25,
      "velocity": 0.56,
      "role": "chord",
      "is_tied": false
    },
    {
      "midi": 50,
      "name": "D3",
      "start": 126.2687,
      "duration": 0.2239,
      "bar": 36,
      "beat": 2.0,
      "duration_beats": 0.25,
      "velocity": 0.88,
      "role": "chord",
      "is_tied": false
    },
    {
      "midi": 49,
      "name": "C#3",
      "start": 126.2687,
      "duration": 0.2239,
      "bar": 36,
      "beat": 2.0,
      "duration_beats": 0.25,
      "velocity": 0.71,
      "role": "chord",
      "is_tied": false
    },
    {
      "midi": 82,
      "name": "A#5",
      "start": 126.4925,
      "duration": 0.2239,
      "bar": 36,
      "beat": 2.25,
      "duration_beats": 0.25,
      "velocity": 0.85,
      "role": "melody",
      "is_tied": false
    },
    {
      "midi": 50,
      "name": "D3",
      "start": 126.4925,
      "duration": 0.2239,
      "bar": 36,
      "beat": 2.25,
      "duration_beats": 0.25,
      "velocity": 1.0,
      "role": "chord",
      "is_tied": false
    },
    {
      "midi": 49,
      "name": "C#3",
      "start": 126.4925,
      "duration": 0.2239,
      "bar": 36,
      "beat": 2.25,
      "duration_beats": 0.25,
      "velocity": 1.0,
      "role": "chord",
      "is_tied": false
    },
    {
      "midi": 41,
      "name": "F2",
      "start": 126.4925,
      "duration": 0.2239,
      "bar": 36,
      "beat": 2.25,
      "duration_beats": 0.25,
      "velocity": 1.0,
      "role": "bass",
      "is_tied": false
    },
    {
      "midi": 77,
      "name": "F5",
      "start": 126.7164,
      "duration": 0.2239,
      "bar": 36,
      "beat": 2.5,
      "duration_beats": 0.25,
      "velocity": 1.0,
      "role": "melody",
      "is_tied": false
    },
    {
      "midi": 72,
      "name": "C5",
      "start": 126.7164,
      "duration": 0.2239,
      "bar": 36,
      "beat": 2.5,
      "duration_beats": 0.25,
      "velocity": 1.0,
      "role": "melody",
      "is_tied": false
    },
    {
      "midi": 72,
      "name": "C5",
      "start": 126.9403,
      "duration": 0.8955,
      "bar": 36,
      "beat": 2.75,
      "duration_beats": 1.0,
      "velocity": 1.0,
      "role": "melody",
      "is_tied": false
    },
    {
      "midi": 70,
      "name": "A#4",
      "start": 126.9403,
      "duration": 0.8955,
      "bar": 36,
      "beat": 2.75,
      "duration_beats": 1.0,
      "velocity": 1.0,
      "role": "melody",
      "is_tied": false
    },
    {
      "midi": 36,
      "name": "C2",
      "start": 126.9403,
      "duration": 0.4478,
      "bar": 36,
      "beat": 2.75,
      "duration_beats": 0.5,
      "velocity": 1.0,
      "role": "bass",
      "is_tied": false
    },
    {
      "midi": 69,
      "name": "A4",
      "start": 127.1642,
      "duration": 0.2239,
      "bar": 36,
      "beat": 3.0,
      "duration_beats": 0.25,
      "velocity": 1.0,
      "role": "chord",
      "is_tied": false
    },
    {
      "midi": 33,
      "name": "A1",
      "start": 127.1642,
      "duration": 0.4478,
      "bar": 36,
      "beat": 3.0,
      "duration_beats": 0.5,
      "velocity": 0.33,
      "role": "bass",
      "is_tied": false
    },
    {
      "midi": 70,
      "name": "A#4",
      "start": 127.6119,
      "duration": 0.4478,
      "bar": 36,
      "beat": 3.5,
      "duration_beats": 0.5,
      "velocity": 0.67,
      "role": "melody",
      "is_tied": false
    },
    {
      "midi": 69,
      "name": "A4",
      "start": 127.6119,
      "duration": 0.6716,
      "bar": 36,
      "beat": 3.5,
      "duration_beats": 0.75,
      "velocity": 0.72,
      "role": "melody",
      "is_tied": false
    },
    {
      "midi": 60,
      "name": "C4",
      "start": 127.6119,
      "duration": 0.6716,
      "bar": 36,
      "beat": 3.5,
      "duration_beats": 0.75,
      "velocity": 0.68,
      "role": "chord",
      "is_tied": false
    },
    {
      "midi": 65,
      "name": "F4",
      "start": 128.0597,
      "duration": 0.2239,
      "bar": 36,
      "beat": 4.0,
      "duration_beats": 0.25,
      "velocity": 1.0,
      "role": "melody",
      "is_tied": false
    },
    {
      "midi": 60,
      "name": "C4",
      "start": 128.0597,
      "duration": 0.2239,
      "bar": 36,
      "beat": 4.0,
      "duration_beats": 0.25,
      "velocity": 0.64,
      "role": "chord",
      "is_tied": false
    },
    {
      "midi": 57,
      "name": "A3",
      "start": 128.0597,
      "duration": 0.2239,
      "bar": 36,
      "beat": 4.0,
      "duration_beats": 0.25,
      "velocity": 1.0,
      "role": "chord",
      "is_tied": false
    },
    {
      "midi": 70,
      "name": "A#4",
      "start": 128.2836,
      "duration": 0.2239,
      "bar": 36,
      "beat": 4.25,
      "duration_beats": 0.25,
      "velocity": 0.7,
      "role": "melody",
      "is_tied": false
    },
    {
      "midi": 54,
      "name": "F#3",
      "start": 128.2836,
      "duration": 0.2239,
      "bar": 36,
      "beat": 4.25,
      "duration_beats": 0.25,
      "velocity": 0.6,
      "role": "chord",
      "is_tied": false
    },
    {
      "midi": 52,
      "name": "E3",
      "start": 128.2836,
      "duration": 0.2239,
      "bar": 36,
      "beat": 4.25,
      "duration_beats": 0.25,
      "velocity": 1.0,
      "role": "chord",
      "is_tied": false
    },
    {
      "midi": 50,
      "name": "D3",
      "start": 128.2836,
      "duration": 0.2239,
      "bar": 36,
      "beat": 4.25,
      "duration_beats": 0.25,
      "velocity": 0.98,
      "role": "chord",
      "is_tied": false
    },
    {
      "midi": 45,
      "name": "A2",
      "start": 128.2836,
      "duration": 0.2239,
      "bar": 36,
      "beat": 4.25,
      "duration_beats": 0.25,
      "velocity": 1.0,
      "role": "bass",
      "is_tied": false
    },
    {
      "midi": 71,
      "name": "B4",
      "start": 129.1791,
      "duration": 0.4478,
      "bar": 37,
      "beat": 1.25,
      "duration_beats": 0.5,
      "velocity": 0.49,
      "role": "melody",
      "is_tied": false
    },
    {
      "midi": 68,
      "name": "G#4",
      "start": 129.1791,
      "duration": 0.2239,
      "bar": 37,
      "beat": 1.25,
      "duration_beats": 0.25,
      "velocity": 0.45,
      "role": "melody",
      "is_tied": false
    },
    {
      "midi": 54,
      "name": "F#3",
      "start": 129.403,
      "duration": 0.2239,
      "bar": 37,
      "beat": 1.5,
      "duration_beats": 0.25,
      "velocity": 0.99,
      "role": "bass",
      "is_tied": false
    },
    {
      "midi": 73,
      "name": "C#5",
      "start": 129.6269,
      "duration": 0.2239,
      "bar": 37,
      "beat": 1.75,
      "duration_beats": 0.25,
      "velocity": 0.31,
      "role": "melody",
      "is_tied": false
    },
    {
      "midi": 57,
      "name": "A3",
      "start": 129.6269,
      "duration": 0.2239,
      "bar": 37,
      "beat": 1.75,
      "duration_beats": 0.25,
      "velocity": 1.0,
      "role": "chord",
      "is_tied": false
    },
    {
      "midi": 73,
      "name": "C#5",
      "start": 129.8507,
      "duration": 0.6716,
      "bar": 37,
      "beat": 2.0,
      "duration_beats": 0.75,
      "velocity": 0.4,
      "role": "melody",
      "is_tied": false
    },
    {
      "midi": 57,
      "name": "A3",
      "start": 129.8507,
      "duration": 0.2239,
      "bar": 37,
      "beat": 2.0,
      "duration_beats": 0.25,
      "velocity": 1.0,
      "role": "chord",
      "is_tied": false
    },
    {
      "midi": 54,
      "name": "F#3",
      "start": 129.8507,
      "duration": 0.6716,
      "bar": 37,
      "beat": 2.0,
      "duration_beats": 0.75,
      "velocity": 1.0,
      "role": "bass",
      "is_tied": false
    },
    {
      "midi": 52,
      "name": "E3",
      "start": 129.8507,
      "duration": 0.2239,
      "bar": 37,
      "beat": 2.0,
      "duration_beats": 0.25,
      "velocity": 0.94,
      "role": "chord",
      "is_tied": false
    },
    {
      "midi": 50,
      "name": "D3",
      "start": 129.8507,
      "duration": 0.8955,
      "bar": 37,
      "beat": 2.0,
      "duration_beats": 1.0,
      "velocity": 0.45,
      "role": "chord",
      "is_tied": false
    },
    {
      "midi": 61,
      "name": "C#4",
      "start": 130.0746,
      "duration": 0.4478,
      "bar": 37,
      "beat": 2.25,
      "duration_beats": 0.5,
      "velocity": 1.0,
      "role": "chord",
      "is_tied": false
    },
    {
      "midi": 59,
      "name": "B3",
      "start": 130.0746,
      "duration": 0.8955,
      "bar": 37,
      "beat": 2.25,
      "duration_beats": 1.0,
      "velocity": 0.53,
      "role": "chord",
      "is_tied": false
    },
    {
      "midi": 80,
      "name": "G#5",
      "start": 130.5224,
      "duration": 0.4478,
      "bar": 37,
      "beat": 2.75,
      "duration_beats": 0.5,
      "velocity": 0.68,
      "role": "melody",
      "is_tied": false
    },
    {
      "midi": 74,
      "name": "D5",
      "start": 130.5224,
      "duration": 0.4478,
      "bar": 37,
      "beat": 2.75,
      "duration_beats": 0.5,
      "velocity": 0.49,
      "role": "melody",
      "is_tied": false
    },
    {
      "midi": 55,
      "name": "G3",
      "start": 130.5224,
      "duration": 0.4478,
      "bar": 37,
      "beat": 2.75,
      "duration_beats": 0.5,
      "velocity": 0.81,
      "role": "chord",
      "is_tied": false
    },
    {
      "midi": 52,
      "name": "E3",
      "start": 130.5224,
      "duration": 0.4478,
      "bar": 37,
      "beat": 2.75,
      "duration_beats": 0.5,
      "velocity": 0.36,
      "role": "chord",
      "is_tied": false
    },
    {
      "midi": 70,
      "name": "A#4",
      "start": 130.9701,
      "duration": 0.4478,
      "bar": 37,
      "beat": 3.25,
      "duration_beats": 0.5,
      "velocity": 0.47,
      "role": "chord",
      "is_tied": false
    },
    {
      "midi": 54,
      "name": "F#3",
      "start": 130.9701,
      "duration": 0.4478,
      "bar": 37,
      "beat": 3.25,
      "duration_beats": 0.5,
      "velocity": 0.65,
      "role": "chord",
      "is_tied": false
    },
    {
      "midi": 61,
      "name": "C#4",
      "start": 131.194,
      "duration": 0.2239,
      "bar": 37,
      "beat": 3.5,
      "duration_beats": 0.25,
      "velocity": 0.54,
      "role": "chord",
      "is_tied": false
    },
    {
      "midi": 57,
      "name": "A3",
      "start": 131.194,
      "duration": 0.4478,
      "bar": 37,
      "beat": 3.5,
      "duration_beats": 0.5,
      "velocity": 0.61,
      "role": "chord",
      "is_tied": false
    },
    {
      "midi": 54,
      "name": "F#3",
      "start": 131.194,
      "duration": 0.2239,
      "bar": 37,
      "beat": 3.5,
      "duration_beats": 0.25,
      "velocity": 0.52,
      "role": "chord",
      "is_tied": false
    },
    {
      "midi": 67,
      "name": "G4",
      "start": 131.4179,
      "duration": 0.2239,
      "bar": 37,
      "beat": 3.75,
      "duration_beats": 0.25,
      "velocity": 1.0,
      "role": "chord",
      "is_tied": false
    },
    {
      "midi": 60,
      "name": "C4",
      "start": 131.4179,
      "duration": 0.2239,
      "bar": 37,
      "beat": 3.75,
      "duration_beats": 0.25,
      "velocity": 1.0,
      "role": "chord",
      "is_tied": false
    },
    {
      "midi": 45,
      "name": "A2",
      "start": 131.4179,
      "duration": 0.2239,
      "bar": 37,
      "beat": 3.75,
      "duration_beats": 0.25,
      "velocity": 1.0,
      "role": "bass",
      "is_tied": false
    },
    {
      "midi": 72,
      "name": "C5",
      "start": 131.6418,
      "duration": 0.8955,
      "bar": 37,
      "beat": 4.0,
      "duration_beats": 1.0,
      "velocity": 0.68,
      "role": "melody",
      "is_tied": false
    },
    {
      "midi": 60,
      "name": "C4",
      "start": 131.6418,
      "duration": 0.8955,
      "bar": 37,
      "beat": 4.0,
      "duration_beats": 1.0,
      "velocity": 0.64,
      "role": "chord",
      "is_tied": false
    },
    {
      "midi": 52,
      "name": "E3",
      "start": 131.6418,
      "duration": 1.3433,
      "bar": 37,
      "beat": 4.0,
      "duration_beats": 1.5,
      "velocity": 0.72,
      "role": "chord",
      "is_tied": false
    },
    {
      "midi": 83,
      "name": "B5",
      "start": 132.5373,
      "duration": 0.4478,
      "bar": 38,
      "beat": 1.0,
      "duration_beats": 0.5,
      "velocity": 1.0,
      "role": "melody",
      "is_tied": false
    },
    {
      "midi": 70,
      "name": "A#4",
      "start": 132.7612,
      "duration": 0.2239,
      "bar": 38,
      "beat": 1.25,
      "duration_beats": 0.25,
      "velocity": 1.0,
      "role": "chord",
      "is_tied": false
    },
    {
      "midi": 51,
      "name": "D#3",
      "start": 132.7612,
      "duration": 0.2239,
      "bar": 38,
      "beat": 1.25,
      "duration_beats": 0.25,
      "velocity": 0.39,
      "role": "chord",
      "is_tied": false
    },
    {
      "midi": 48,
      "name": "C3",
      "start": 132.7612,
      "duration": 0.2239,
      "bar": 38,
      "beat": 1.25,
      "duration_beats": 0.25,
      "velocity": 0.38,
      "role": "chord",
      "is_tied": false
    },
    {
      "midi": 72,
      "name": "C5",
      "start": 133.209,
      "duration": 0.6716,
      "bar": 38,
      "beat": 1.75,
      "duration_beats": 0.75,
      "velocity": 1.0,
      "role": "melody",
      "is_tied": false
    },
    {
      "midi": 74,
      "name": "D5",
      "start": 133.4328,
      "duration": 0.8955,
      "bar": 38,
      "beat": 2.0,
      "duration_beats": 1.0,
      "velocity": 0.62,
      "role": "melody",
      "is_tied": false
    },
    {
      "midi": 72,
      "name": "C5",
      "start": 133.4328,
      "duration": 0.4478,
      "bar": 38,
      "beat": 2.0,
      "duration_beats": 0.5,
      "velocity": 0.98,
      "role": "melody",
      "is_tied": false
    },
    {
      "midi": 52,
      "name": "E3",
      "start": 133.4328,
      "duration": 0.2239,
      "bar": 38,
      "beat": 2.0,
      "duration_beats": 0.25,
      "velocity": 0.34,
      "role": "chord",
      "is_tied": false
    },
    {
      "midi": 45,
      "name": "A2",
      "start": 133.4328,
      "duration": 0.2239,
      "bar": 38,
      "beat": 2.0,
      "duration_beats": 0.25,
      "velocity": 1.0,
      "role": "bass",
      "is_tied": false
    },
    {
      "midi": 74,
      "name": "D5",
      "start": 133.6567,
      "duration": 0.6716,
      "bar": 38,
      "beat": 2.25,
      "duration_beats": 0.75,
      "velocity": 0.59,
      "role": "melody",
      "is_tied": false
    },
    {
      "midi": 72,
      "name": "C5",
      "start": 133.6567,
      "duration": 0.2239,
      "bar": 38,
      "beat": 2.25,
      "duration_beats": 0.25,
      "velocity": 0.91,
      "role": "melody",
      "is_tied": false
    },
    {
      "midi": 67,
      "name": "G4",
      "start": 133.6567,
      "duration": 0.2239,
      "bar": 38,
      "beat": 2.25,
      "duration_beats": 0.25,
      "velocity": 0.91,
      "role": "chord",
      "is_tied": false
    },
    {
      "midi": 50,
      "name": "D3",
      "start": 133.6567,
      "duration": 3.5821,
      "bar": 38,
      "beat": 2.25,
      "duration_beats": 4.0,
      "velocity": 1.0,
      "role": "chord",
      "is_tied": false
    },
    {
      "midi": 40,
      "name": "E2",
      "start": 133.6567,
      "duration": 0.2239,
      "bar": 38,
      "beat": 2.25,
      "duration_beats": 0.25,
      "velocity": 1.0,
      "role": "bass",
      "is_tied": false
    },
    {
      "midi": 71,
      "name": "B4",
      "start": 133.8806,
      "duration": 0.4478,
      "bar": 38,
      "beat": 2.5,
      "duration_beats": 0.5,
      "velocity": 1.0,
      "role": "melody",
      "is_tied": false
    },
    {
      "midi": 70,
      "name": "A#4",
      "start": 133.8806,
      "duration": 0.4478,
      "bar": 38,
      "beat": 2.5,
      "duration_beats": 0.5,
      "velocity": 1.0,
      "role": "chord",
      "is_tied": false
    },
    {
      "midi": 69,
      "name": "A4",
      "start": 133.8806,
      "duration": 0.4478,
      "bar": 38,
      "beat": 2.5,
      "duration_beats": 0.5,
      "velocity": 0.87,
      "role": "chord",
      "is_tied": false
    },
    {
      "midi": 72,
      "name": "C5",
      "start": 134.3284,
      "duration": 0.2239,
      "bar": 38,
      "beat": 3.0,
      "duration_beats": 0.25,
      "velocity": 0.3,
      "role": "melody",
      "is_tied": false
    },
    {
      "midi": 62,
      "name": "D4",
      "start": 134.3284,
      "duration": 0.2239,
      "bar": 38,
      "beat": 3.0,
      "duration_beats": 0.25,
      "velocity": 0.33,
      "role": "melody",
      "is_tied": false
    },
    {
      "midi": 69,
      "name": "A4",
      "start": 134.5522,
      "duration": 0.8955,
      "bar": 38,
      "beat": 3.25,
      "duration_beats": 1.0,
      "velocity": 1.0,
      "role": "melody",
      "is_tied": false
    },
    {
      "midi": 54,
      "name": "F#3",
      "start": 134.5522,
      "duration": 0.8955,
      "bar": 38,
      "beat": 3.25,
      "duration_beats": 1.0,
      "velocity": 0.98,
      "role": "bass",
      "is_tied": false
    },
    {
      "midi": 67,
      "name": "G4",
      "start": 135.0,
      "duration": 0.6716,
      "bar": 38,
      "beat": 3.75,
      "duration_beats": 0.75,
      "velocity": 0.3,
      "role": "melody",
      "is_tied": false
    },
    {
      "midi": 81,
      "name": "A5",
      "start": 135.2239,
      "duration": 0.2239,
      "bar": 38,
      "beat": 4.0,
      "duration_beats": 0.25,
      "velocity": 0.87,
      "role": "melody",
      "is_tied": false
    },
    {
      "midi": 78,
      "name": "F#5",
      "start": 135.6716,
      "duration": 0.6716,
      "bar": 38,
      "beat": 4.5,
      "duration_beats": 0.75,
      "velocity": 1.0,
      "role": "melody",
      "is_tied": false
    },
    {
      "midi": 58,
      "name": "A#3",
      "start": 135.6716,
      "duration": 0.4478,
      "bar": 38,
      "beat": 4.5,
      "duration_beats": 0.5,
      "velocity": 0.32,
      "role": "chord",
      "is_tied": false
    },
    {
      "midi": 55,
      "name": "G3",
      "start": 135.6716,
      "duration": 0.4478,
      "bar": 38,
      "beat": 4.5,
      "duration_beats": 0.5,
      "velocity": 1.0,
      "role": "chord",
      "is_tied": false
    },
    {
      "midi": 50,
      "name": "D3",
      "start": 135.6716,
      "duration": 2.6866,
      "bar": 38,
      "beat": 4.5,
      "duration_beats": 3.0,
      "velocity": 0.84,
      "role": "chord",
      "is_tied": false
    },
    {
      "midi": 74,
      "name": "D5",
      "start": 136.1194,
      "duration": 1.791,
      "bar": 39,
      "beat": 1.0,
      "duration_beats": 2.0,
      "velocity": 1.0,
      "role": "melody",
      "is_tied": false
    },
    {
      "midi": 59,
      "name": "B3",
      "start": 136.1194,
      "duration": 0.6716,
      "bar": 39,
      "beat": 1.0,
      "duration_beats": 0.75,
      "velocity": 0.92,
      "role": "chord",
      "is_tied": false
    },
    {
      "midi": 52,
      "name": "E3",
      "start": 136.1194,
      "duration": 0.4478,
      "bar": 39,
      "beat": 1.0,
      "duration_beats": 0.5,
      "velocity": 0.47,
      "role": "chord",
      "is_tied": false
    },
    {
      "midi": 51,
      "name": "D#3",
      "start": 136.1194,
      "duration": 0.4478,
      "bar": 39,
      "beat": 1.0,
      "duration_beats": 0.5,
      "velocity": 0.32,
      "role": "chord",
      "is_tied": false
    },
    {
      "midi": 69,
      "name": "A4",
      "start": 136.5672,
      "duration": 0.8955,
      "bar": 39,
      "beat": 1.5,
      "duration_beats": 1.0,
      "velocity": 0.84,
      "role": "melody",
      "is_tied": false
    },
    {
      "midi": 40,
      "name": "E2",
      "start": 136.791,
      "duration": 1.3433,
      "bar": 39,
      "beat": 1.75,
      "duration_beats": 1.5,
      "velocity": 1.0,
      "role": "bass",
      "is_tied": false
    },
    {
      "midi": 74,
      "name": "D5",
      "start": 137.0149,
      "duration": 1.3433,
      "bar": 39,
      "beat": 2.0,
      "duration_beats": 1.5,
      "velocity": 0.36,
      "role": "melody",
      "is_tied": false
    },
    {
      "midi": 50,
      "name": "D3",
      "start": 137.0149,
      "duration": 1.3433,
      "bar": 39,
      "beat": 2.0,
      "duration_beats": 1.5,
      "velocity": 0.56,
      "role": "chord",
      "is_tied": false
    },
    {
      "midi": 40,
      "name": "E2",
      "start": 137.0149,
      "duration": 0.8955,
      "bar": 39,
      "beat": 2.0,
      "duration_beats": 1.0,
      "velocity": 1.0,
      "role": "bass",
      "is_tied": false
    },
    {
      "midi": 74,
      "name": "D5",
      "start": 137.4627,
      "duration": 0.8955,
      "bar": 39,
      "beat": 2.5,
      "duration_beats": 1.0,
      "velocity": 1.0,
      "role": "melody",
      "is_tied": false
    },
    {
      "midi": 59,
      "name": "B3",
      "start": 137.4627,
      "duration": 0.4478,
      "bar": 39,
      "beat": 2.5,
      "duration_beats": 0.5,
      "velocity": 0.6,
      "role": "chord",
      "is_tied": false
    },
    {
      "midi": 57,
      "name": "A3",
      "start": 137.4627,
      "duration": 0.4478,
      "bar": 39,
      "beat": 2.5,
      "duration_beats": 0.5,
      "velocity": 0.84,
      "role": "chord",
      "is_tied": false
    },
    {
      "midi": 50,
      "name": "D3",
      "start": 137.4627,
      "duration": 0.8955,
      "bar": 39,
      "beat": 2.5,
      "duration_beats": 1.0,
      "velocity": 0.74,
      "role": "chord",
      "is_tied": false
    },
    {
      "midi": 52,
      "name": "E3",
      "start": 137.9104,
      "duration": 0.4478,
      "bar": 39,
      "beat": 3.0,
      "duration_beats": 0.5,
      "velocity": 0.47,
      "role": "chord",
      "is_tied": false
    },
    {
      "midi": 57,
      "name": "A3",
      "start": 138.1343,
      "duration": 0.2239,
      "bar": 39,
      "beat": 3.25,
      "duration_beats": 0.25,
      "velocity": 0.58,
      "role": "chord",
      "is_tied": false
    },
    {
      "midi": 54,
      "name": "F#3",
      "start": 138.1343,
      "duration": 1.791,
      "bar": 39,
      "beat": 3.25,
      "duration_beats": 2.0,
      "velocity": 1.0,
      "role": "bass",
      "is_tied": false
    },
    {
      "midi": 69,
      "name": "A4",
      "start": 138.3582,
      "duration": 1.791,
      "bar": 39,
      "beat": 3.5,
      "duration_beats": 2.0,
      "velocity": 1.0,
      "role": "melody",
      "is_tied": false
    },
    {
      "midi": 66,
      "name": "F#4",
      "start": 138.3582,
      "duration": 0.2239,
      "bar": 39,
      "beat": 3.5,
      "duration_beats": 0.25,
      "velocity": 0.54,
      "role": "melody",
      "is_tied": true
    },
    {
      "midi": 62,
      "name": "D4",
      "start": 138.3582,
      "duration": 0.4478,
      "bar": 39,
      "beat": 3.5,
      "duration_beats": 0.5,
      "velocity": 0.75,
      "role": "chord",
      "is_tied": false
    },
    {
      "midi": 42,
      "name": "F#2",
      "start": 138.3582,
      "duration": 0.4478,
      "bar": 39,
      "beat": 3.5,
      "duration_beats": 0.5,
      "velocity": 0.73,
      "role": "bass",
      "is_tied": false
    },
    {
      "midi": 57,
      "name": "A3",
      "start": 138.5821,
      "duration": 0.4478,
      "bar": 39,
      "beat": 3.75,
      "duration_beats": 0.5,
      "velocity": 0.44,
      "role": "chord",
      "is_tied": false
    },
    {
      "midi": 50,
      "name": "D3",
      "start": 138.5821,
      "duration": 1.3433,
      "bar": 39,
      "beat": 3.75,
      "duration_beats": 1.5,
      "velocity": 0.99,
      "role": "chord",
      "is_tied": false
    },
    {
      "midi": 40,
      "name": "E2",
      "start": 139.2537,
      "duration": 0.8955,
      "bar": 39,
      "beat": 4.5,
      "duration_beats": 1.0,
      "velocity": 1.0,
      "role": "bass",
      "is_tied": false
    },
    {
      "midi": 74,
      "name": "D5",
      "start": 139.7015,
      "duration": 0.4478,
      "bar": 40,
      "beat": 1.0,
      "duration_beats": 0.5,
      "velocity": 0.41,
      "role": "melody",
      "is_tied": false
    },
    {
      "midi": 58,
      "name": "A#3",
      "start": 139.7015,
      "duration": 1.3433,
      "bar": 40,
      "beat": 1.0,
      "duration_beats": 1.5,
      "velocity": 0.63,
      "role": "chord",
      "is_tied": false
    },
    {
      "midi": 55,
      "name": "G3",
      "start": 139.7015,
      "duration": 0.4478,
      "bar": 40,
      "beat": 1.0,
      "duration_beats": 0.5,
      "velocity": 0.57,
      "role": "chord",
      "is_tied": false
    },
    {
      "midi": 50,
      "name": "D3",
      "start": 139.7015,
      "duration": 0.4478,
      "bar": 40,
      "beat": 1.0,
      "duration_beats": 0.5,
      "velocity": 0.58,
      "role": "chord",
      "is_tied": false
    },
    {
      "midi": 66,
      "name": "F#4",
      "start": 139.9254,
      "duration": 0.2239,
      "bar": 40,
      "beat": 1.25,
      "duration_beats": 0.25,
      "velocity": 1.0,
      "role": "chord",
      "is_tied": false
    },
    {
      "midi": 60,
      "name": "C4",
      "start": 139.9254,
      "duration": 0.8955,
      "bar": 40,
      "beat": 1.25,
      "duration_beats": 1.0,
      "velocity": 0.56,
      "role": "chord",
      "is_tied": false
    },
    {
      "midi": 41,
      "name": "F2",
      "start": 139.9254,
      "duration": 0.4478,
      "bar": 40,
      "beat": 1.25,
      "duration_beats": 0.5,
      "velocity": 1.0,
      "role": "bass",
      "is_tied": false
    },
    {
      "midi": 52,
      "name": "E3",
      "start": 140.1493,
      "duration": 0.2239,
      "bar": 40,
      "beat": 1.5,
      "duration_beats": 0.25,
      "velocity": 0.33,
      "role": "chord",
      "is_tied": false
    },
    {
      "midi": 66,
      "name": "F#4",
      "start": 140.3731,
      "duration": 0.2239,
      "bar": 40,
      "beat": 1.75,
      "duration_beats": 0.25,
      "velocity": 0.58,
      "role": "melody",
      "is_tied": false
    },
    {
      "midi": 60,
      "name": "C4",
      "start": 140.3731,
      "duration": 0.4478,
      "bar": 40,
      "beat": 1.75,
      "duration_beats": 0.5,
      "velocity": 0.38,
      "role": "chord",
      "is_tied": false
    },
    {
      "midi": 58,
      "name": "A#3",
      "start": 140.3731,
      "duration": 0.6716,
      "bar": 40,
      "beat": 1.75,
      "duration_beats": 0.75,
      "velocity": 0.81,
      "role": "chord",
      "is_tied": false
    },
    {
      "midi": 41,
      "name": "F2",
      "start": 140.597,
      "duration": 0.4478,
      "bar": 40,
      "beat": 2.0,
      "duration_beats": 0.5,
      "velocity": 1.0,
      "role": "bass",
      "is_tied": false
    },
    {
      "midi": 33,
      "name": "A1",
      "start": 141.0448,
      "duration": 0.4478,
      "bar": 40,
      "beat": 2.5,
      "duration_beats": 0.5,
      "velocity": 0.55,
      "role": "bass",
      "is_tied": false
    },
    {
      "midi": 55,
      "name": "G3",
      "start": 141.4925,
      "duration": 0.2239,
      "bar": 40,
      "beat": 3.0,
      "duration_beats": 0.25,
      "velocity": 1.0,
      "role": "bass",
      "is_tied": false
    },
    {
      "midi": 57,
      "name": "A3",
      "start": 141.9403,
      "duration": 3.5821,
      "bar": 40,
      "beat": 3.5,
      "duration_beats": 4.0,
      "velocity": 0.93,
      "role": "chord",
      "is_tied": false
    },
    {
      "midi": 50,
      "name": "D3",
      "start": 141.9403,
      "duration": 3.5821,
      "bar": 40,
      "beat": 3.5,
      "duration_beats": 4.0,
      "velocity": 0.66,
      "role": "chord",
      "is_tied": false
    },
    {
      "midi": 57,
      "name": "A3",
      "start": 142.6119,
      "duration": 3.5821,
      "bar": 40,
      "beat": 4.25,
      "duration_beats": 4.0,
      "velocity": 0.62,
      "role": "chord",
      "is_tied": false
    },
    {
      "midi": 54,
      "name": "F#3",
      "start": 142.6119,
      "duration": 1.791,
      "bar": 40,
      "beat": 4.25,
      "duration_beats": 2.0,
      "velocity": 0.8,
      "role": "bass",
      "is_tied": false
    },
    {
      "midi": 50,
      "name": "D3",
      "start": 142.6119,
      "duration": 3.5821,
      "bar": 40,
      "beat": 4.25,
      "duration_beats": 4.0,
      "velocity": 0.94,
      "role": "chord",
      "is_tied": false
    },
    {
      "midi": 74,
      "name": "D5",
      "start": 144.1791,
      "duration": 1.791,
      "bar": 41,
      "beat": 2.0,
      "duration_beats": 2.0,
      "velocity": 1.0,
      "role": "melody",
      "is_tied": false
    },
    {
      "midi": 58,
      "name": "A#3",
      "start": 144.1791,
      "duration": 0.6716,
      "bar": 41,
      "beat": 2.0,
      "duration_beats": 0.75,
      "velocity": 0.57,
      "role": "chord",
      "is_tied": false
    },
    {
      "midi": 50,
      "name": "D3",
      "start": 144.1791,
      "duration": 1.791,
      "bar": 41,
      "beat": 2.0,
      "duration_beats": 2.0,
      "velocity": 0.33,
      "role": "chord",
      "is_tied": false
    },
    {
      "midi": 78,
      "name": "F#5",
      "start": 144.6269,
      "duration": 0.4478,
      "bar": 41,
      "beat": 2.5,
      "duration_beats": 0.5,
      "velocity": 0.4,
      "role": "melody",
      "is_tied": false
    },
    {
      "midi": 49,
      "name": "C#3",
      "start": 144.6269,
      "duration": 1.791,
      "bar": 41,
      "beat": 2.5,
      "duration_beats": 2.0,
      "velocity": 0.37,
      "role": "chord",
      "is_tied": false
    },
    {
      "midi": 74,
      "name": "D5",
      "start": 145.0746,
      "duration": 0.8955,
      "bar": 41,
      "beat": 3.0,
      "duration_beats": 1.0,
      "velocity": 1.0,
      "role": "melody",
      "is_tied": false
    },
    {
      "midi": 69,
      "name": "A4",
      "start": 145.0746,
      "duration": 0.6716,
      "bar": 41,
      "beat": 3.0,
      "duration_beats": 0.75,
      "velocity": 1.0,
      "role": "chord",
      "is_tied": false
    },
    {
      "midi": 50,
      "name": "D3",
      "start": 145.0746,
      "duration": 0.8955,
      "bar": 41,
      "beat": 3.0,
      "duration_beats": 1.0,
      "velocity": 0.6,
      "role": "chord",
      "is_tied": false
    },
    {
      "midi": 66,
      "name": "F#4",
      "start": 145.7463,
      "duration": 0.4478,
      "bar": 41,
      "beat": 3.75,
      "duration_beats": 0.5,
      "velocity": 1.0,
      "role": "melody",
      "is_tied": false
    },
    {
      "midi": 62,
      "name": "D4",
      "start": 145.7463,
      "duration": 0.4478,
      "bar": 41,
      "beat": 3.75,
      "duration_beats": 0.5,
      "velocity": 1.0,
      "role": "chord",
      "is_tied": false
    },
    {
      "midi": 59,
      "name": "B3",
      "start": 145.7463,
      "duration": 0.4478,
      "bar": 41,
      "beat": 3.75,
      "duration_beats": 0.5,
      "velocity": 0.43,
      "role": "chord",
      "is_tied": false
    },
    {
      "midi": 58,
      "name": "A#3",
      "start": 145.7463,
      "duration": 0.6716,
      "bar": 41,
      "beat": 3.75,
      "duration_beats": 0.75,
      "velocity": 0.31,
      "role": "chord",
      "is_tied": false
    },
    {
      "midi": 70,
      "name": "A#4",
      "start": 146.194,
      "duration": 0.2239,
      "bar": 41,
      "beat": 4.25,
      "duration_beats": 0.25,
      "velocity": 0.37,
      "role": "chord",
      "is_tied": false
    },
    {
      "midi": 68,
      "name": "G#4",
      "start": 146.194,
      "duration": 0.8955,
      "bar": 41,
      "beat": 4.25,
      "duration_beats": 1.0,
      "velocity": 0.92,
      "role": "melody",
      "is_tied": false
    },
    {
      "midi": 67,
      "name": "G4",
      "start": 146.194,
      "duration": 0.2239,
      "bar": 41,
      "beat": 4.25,
      "duration_beats": 0.25,
      "velocity": 0.93,
      "role": "melody",
      "is_tied": false
    },
    {
      "midi": 49,
      "name": "C#3",
      "start": 146.194,
      "duration": 0.2239,
      "bar": 41,
      "beat": 4.25,
      "duration_beats": 0.25,
      "velocity": 0.6,
      "role": "chord",
      "is_tied": false
    },
    {
      "midi": 41,
      "name": "F2",
      "start": 146.194,
      "duration": 0.2239,
      "bar": 41,
      "beat": 4.25,
      "duration_beats": 0.25,
      "velocity": 0.72,
      "role": "bass",
      "is_tied": false
    },
    {
      "midi": 72,
      "name": "C5",
      "start": 146.4179,
      "duration": 0.6716,
      "bar": 41,
      "beat": 4.5,
      "duration_beats": 0.75,
      "velocity": 0.47,
      "role": "melody",
      "is_tied": false
    },
    {
      "midi": 52,
      "name": "E3",
      "start": 146.4179,
      "duration": 1.791,
      "bar": 41,
      "beat": 4.5,
      "duration_beats": 2.0,
      "velocity": 0.56,
      "role": "chord",
      "is_tied": false
    },
    {
      "midi": 45,
      "name": "A2",
      "start": 146.4179,
      "duration": 0.8955,
      "bar": 41,
      "beat": 4.5,
      "duration_beats": 1.0,
      "velocity": 1.0,
      "role": "bass",
      "is_tied": false
    },
    {
      "midi": 57,
      "name": "A3",
      "start": 147.0896,
      "duration": 0.2239,
      "bar": 42,
      "beat": 1.25,
      "duration_beats": 0.25,
      "velocity": 0.62,
      "role": "chord",
      "is_tied": false
    },
    {
      "midi": 52,
      "name": "E3",
      "start": 147.0896,
      "duration": 0.8955,
      "bar": 42,
      "beat": 1.25,
      "duration_beats": 1.0,
      "velocity": 0.74,
      "role": "chord",
      "is_tied": false
    },
    {
      "midi": 50,
      "name": "D3",
      "start": 147.0896,
      "duration": 0.2239,
      "bar": 42,
      "beat": 1.25,
      "duration_beats": 0.25,
      "velocity": 0.45,
      "role": "chord",
      "is_tied": false
    },
    {
      "midi": 49,
      "name": "C#3",
      "start": 147.0896,
      "duration": 0.6716,
      "bar": 42,
      "beat": 1.25,
      "duration_beats": 0.75,
      "velocity": 0.62,
      "role": "chord",
      "is_tied": false
    },
    {
      "midi": 83,
      "name": "B5",
      "start": 147.3134,
      "duration": 0.2239,
      "bar": 42,
      "beat": 1.5,
      "duration_beats": 0.25,
      "velocity": 1.0,
      "role": "melody",
      "is_tied": false
    },
    {
      "midi": 74,
      "name": "D5",
      "start": 147.3134,
      "duration": 0.6716,
      "bar": 42,
      "beat": 1.5,
      "duration_beats": 0.75,
      "velocity": 1.0,
      "role": "melody",
      "is_tied": false
    },
    {
      "midi": 60,
      "name": "C4",
      "start": 147.3134,
      "duration": 0.6716,
      "bar": 42,
      "beat": 1.5,
      "duration_beats": 0.75,
      "velocity": 1.0,
      "role": "chord",
      "is_tied": false
    },
    {
      "midi": 59,
      "name": "B3",
      "start": 147.3134,
      "duration": 0.8955,
      "bar": 42,
      "beat": 1.5,
      "duration_beats": 1.0,
      "velocity": 0.74,
      "role": "chord",
      "is_tied": false
    },
    {
      "midi": 55,
      "name": "G3",
      "start": 147.3134,
      "duration": 1.791,
      "bar": 42,
      "beat": 1.5,
      "duration_beats": 2.0,
      "velocity": 0.7,
      "role": "chord",
      "is_tied": false
    },
    {
      "midi": 76,
      "name": "E5",
      "start": 147.7612,
      "duration": 1.791,
      "bar": 42,
      "beat": 2.0,
      "duration_beats": 2.0,
      "velocity": 0.59,
      "role": "melody",
      "is_tied": false
    },
    {
      "midi": 36,
      "name": "C2",
      "start": 147.7612,
      "duration": 0.2239,
      "bar": 42,
      "beat": 2.0,
      "duration_beats": 0.25,
      "velocity": 1.0,
      "role": "bass",
      "is_tied": false
    },
    {
      "midi": 60,
      "name": "C4",
      "start": 147.9851,
      "duration": 1.3433,
      "bar": 42,
      "beat": 2.25,
      "duration_beats": 1.5,
      "velocity": 0.57,
      "role": "chord",
      "is_tied": false
    },
    {
      "midi": 53,
      "name": "F3",
      "start": 147.9851,
      "duration": 0.2239,
      "bar": 42,
      "beat": 2.25,
      "duration_beats": 0.25,
      "velocity": 0.34,
      "role": "chord",
      "is_tied": false
    },
    {
      "midi": 52,
      "name": "E3",
      "start": 147.9851,
      "duration": 0.2239,
      "bar": 42,
      "beat": 2.25,
      "duration_beats": 0.25,
      "velocity": 0.48,
      "role": "chord",
      "is_tied": true
    },
    {
      "midi": 76,
      "name": "E5",
      "start": 148.209,
      "duration": 0.8955,
      "bar": 42,
      "beat": 2.5,
      "duration_beats": 1.0,
      "velocity": 0.84,
      "role": "melody",
      "is_tied": false
    },
    {
      "midi": 74,
      "name": "D5",
      "start": 148.209,
      "duration": 1.791,
      "bar": 42,
      "beat": 2.5,
      "duration_beats": 2.0,
      "velocity": 0.39,
      "role": "melody",
      "is_tied": false
    },
    {
      "midi": 64,
      "name": "E4",
      "start": 148.209,
      "duration": 0.2239,
      "bar": 42,
      "beat": 2.5,
      "duration_beats": 0.25,
      "velocity": 1.0,
      "role": "chord",
      "is_tied": false
    },
    {
      "midi": 60,
      "name": "C4",
      "start": 148.209,
      "duration": 0.8955,
      "bar": 42,
      "beat": 2.5,
      "duration_beats": 1.0,
      "velocity": 0.86,
      "role": "chord",
      "is_tied": false
    },
    {
      "midi": 55,
      "name": "G3",
      "start": 148.209,
      "duration": 0.8955,
      "bar": 42,
      "beat": 2.5,
      "duration_beats": 1.0,
      "velocity": 0.8,
      "role": "chord",
      "is_tied": false
    },
    {
      "midi": 78,
      "name": "F#5",
      "start": 148.6567,
      "duration": 0.6716,
      "bar": 42,
      "beat": 3.0,
      "duration_beats": 0.75,
      "velocity": 0.45,
      "role": "melody",
      "is_tied": false
    },
    {
      "midi": 57,
      "name": "A3",
      "start": 148.6567,
      "duration": 0.6716,
      "bar": 42,
      "beat": 3.0,
      "duration_beats": 0.75,
      "velocity": 0.51,
      "role": "chord",
      "is_tied": true
    },
    {
      "midi": 54,
      "name": "F#3",
      "start": 149.3284,
      "duration": 0.8955,
      "bar": 42,
      "beat": 3.75,
      "duration_beats": 1.0,
      "velocity": 0.91,
      "role": "bass",
      "is_tied": false
    },
    {
      "midi": 74,
      "name": "D5",
      "start": 150.0,
      "duration": 0.2239,
      "bar": 42,
      "beat": 4.5,
      "duration_beats": 0.25,
      "velocity": 0.31,
      "role": "melody",
      "is_tied": true
    },
    {
      "midi": 83,
      "name": "B5",
      "start": 150.2239,
      "duration": 0.2239,
      "bar": 42,
      "beat": 4.75,
      "duration_beats": 0.25,
      "velocity": 1.0,
      "role": "melody",
      "is_tied": false
    },
    {
      "midi": 76,
      "name": "E5",
      "start": 150.2239,
      "duration": 0.6716,
      "bar": 42,
      "beat": 4.75,
      "duration_beats": 0.75,
      "velocity": 0.35,
      "role": "melody",
      "is_tied": false
    },
    {
      "midi": 59,
      "name": "B3",
      "start": 150.2239,
      "duration": 0.6716,
      "bar": 42,
      "beat": 4.75,
      "duration_beats": 0.75,
      "velocity": 0.53,
      "role": "chord",
      "is_tied": false
    },
    {
      "midi": 55,
      "name": "G3",
      "start": 150.2239,
      "duration": 0.4478,
      "bar": 42,
      "beat": 4.75,
      "duration_beats": 0.5,
      "velocity": 1.0,
      "role": "chord",
      "is_tied": false
    },
    {
      "midi": 50,
      "name": "D3",
      "start": 150.2239,
      "duration": 1.3433,
      "bar": 42,
      "beat": 4.75,
      "duration_beats": 1.5,
      "velocity": 0.32,
      "role": "chord",
      "is_tied": false
    },
    {
      "midi": 54,
      "name": "F#3",
      "start": 150.4478,
      "duration": 0.4478,
      "bar": 43,
      "beat": 1.0,
      "duration_beats": 0.5,
      "velocity": 1.0,
      "role": "chord",
      "is_tied": false
    },
    {
      "midi": 71,
      "name": "B4",
      "start": 150.6716,
      "duration": 0.2239,
      "bar": 43,
      "beat": 1.25,
      "duration_beats": 0.25,
      "velocity": 0.73,
      "role": "chord",
      "is_tied": false
    },
    {
      "midi": 67,
      "name": "G4",
      "start": 150.6716,
      "duration": 0.4478,
      "bar": 43,
      "beat": 1.25,
      "duration_beats": 0.5,
      "velocity": 0.55,
      "role": "chord",
      "is_tied": false
    },
    {
      "midi": 76,
      "name": "E5",
      "start": 150.8955,
      "duration": 0.2239,
      "bar": 43,
      "beat": 1.5,
      "duration_beats": 0.25,
      "velocity": 0.8,
      "role": "melody",
      "is_tied": false
    },
    {
      "midi": 74,
      "name": "D5",
      "start": 150.8955,
      "duration": 0.8955,
      "bar": 43,
      "beat": 1.5,
      "duration_beats": 1.0,
      "velocity": 1.0,
      "role": "melody",
      "is_tied": false
    },
    {
      "midi": 59,
      "name": "B3",
      "start": 150.8955,
      "duration": 0.2239,
      "bar": 43,
      "beat": 1.5,
      "duration_beats": 0.25,
      "velocity": 0.65,
      "role": "chord",
      "is_tied": false
    },
    {
      "midi": 54,
      "name": "F#3",
      "start": 150.8955,
      "duration": 0.2239,
      "bar": 43,
      "beat": 1.5,
      "duration_beats": 0.25,
      "velocity": 0.59,
      "role": "chord",
      "is_tied": false
    },
    {
      "midi": 50,
      "name": "D3",
      "start": 150.8955,
      "duration": 0.8955,
      "bar": 43,
      "beat": 1.5,
      "duration_beats": 1.0,
      "velocity": 0.69,
      "role": "chord",
      "is_tied": false
    },
    {
      "midi": 74,
      "name": "D5",
      "start": 151.1194,
      "duration": 0.6716,
      "bar": 43,
      "beat": 1.75,
      "duration_beats": 0.75,
      "velocity": 0.87,
      "role": "melody",
      "is_tied": false
    },
    {
      "midi": 71,
      "name": "B4",
      "start": 151.1194,
      "duration": 0.8955,
      "bar": 43,
      "beat": 1.75,
      "duration_beats": 1.0,
      "velocity": 0.82,
      "role": "melody",
      "is_tied": false
    },
    {
      "midi": 69,
      "name": "A4",
      "start": 151.1194,
      "duration": 0.8955,
      "bar": 43,
      "beat": 1.75,
      "duration_beats": 1.0,
      "velocity": 1.0,
      "role": "chord",
      "is_tied": false
    },
    {
      "midi": 50,
      "name": "D3",
      "start": 151.1194,
      "duration": 0.6716,
      "bar": 43,
      "beat": 1.75,
      "duration_beats": 0.75,
      "velocity": 0.58,
      "role": "chord",
      "is_tied": false
    },
    {
      "midi": 43,
      "name": "G2",
      "start": 151.1194,
      "duration": 0.8955,
      "bar": 43,
      "beat": 1.75,
      "duration_beats": 1.0,
      "velocity": 1.0,
      "role": "bass",
      "is_tied": false
    },
    {
      "midi": 65,
      "name": "F4",
      "start": 151.791,
      "duration": 0.2239,
      "bar": 43,
      "beat": 2.5,
      "duration_beats": 0.25,
      "velocity": 0.32,
      "role": "chord",
      "is_tied": false
    },
    {
      "midi": 45,
      "name": "A2",
      "start": 151.791,
      "duration": 0.2239,
      "bar": 43,
      "beat": 2.5,
      "duration_beats": 0.25,
      "velocity": 0.63,
      "role": "bass",
      "is_tied": false
    },
    {
      "midi": 69,
      "name": "A4",
      "start": 152.0149,
      "duration": 0.2239,
      "bar": 43,
      "beat": 2.75,
      "duration_beats": 0.25,
      "velocity": 0.59,
      "role": "melody",
      "is_tied": false
    },
    {
      "midi": 66,
      "name": "F#4",
      "start": 152.0149,
      "duration": 0.8955,
      "bar": 43,
      "beat": 2.75,
      "duration_beats": 1.0,
      "velocity": 1.0,
      "role": "melody",
      "is_tied": false
    },
    {
      "midi": 50,
      "name": "D3",
      "start": 152.0149,
      "duration": 2.6866,
      "bar": 43,
      "beat": 2.75,
      "duration_beats": 3.0,
      "velocity": 0.33,
      "role": "chord",
      "is_tied": false
    },
    {
      "midi": 43,
      "name": "G2",
      "start": 152.0149,
      "duration": 2.6866,
      "bar": 43,
      "beat": 2.75,
      "duration_beats": 3.0,
      "velocity": 1.0,
      "role": "bass",
      "is_tied": false
    },
    {
      "midi": 64,
      "name": "E4",
      "start": 152.2388,
      "duration": 0.8955,
      "bar": 43,
      "beat": 3.0,
      "duration_beats": 1.0,
      "velocity": 1.0,
      "role": "melody",
      "is_tied": false
    },
    {
      "midi": 55,
      "name": "G3",
      "start": 152.2388,
      "duration": 0.2239,
      "bar": 43,
      "beat": 3.0,
      "duration_beats": 0.25,
      "velocity": 0.37,
      "role": "chord",
      "is_tied": true
    },
    {
      "midi": 66,
      "name": "F#4",
      "start": 152.4627,
      "duration": 0.4478,
      "bar": 43,
      "beat": 3.25,
      "duration_beats": 0.5,
      "velocity": 0.92,
      "role": "melody",
      "is_tied": false
    },
    {
      "midi": 52,
      "name": "E3",
      "start": 152.4627,
      "duration": 0.4478,
      "bar": 43,
      "beat": 3.25,
      "duration_beats": 0.5,
      "velocity": 0.52,
      "role": "chord",
      "is_tied": false
    },
    {
      "midi": 50,
      "name": "D3",
      "start": 152.4627,
      "duration": 1.791,
      "bar": 43,
      "beat": 3.25,
      "duration_beats": 2.0,
      "velocity": 0.6,
      "role": "chord",
      "is_tied": false
    },
    {
      "midi": 43,
      "name": "G2",
      "start": 152.4627,
      "duration": 1.791,
      "bar": 43,
      "beat": 3.25,
      "duration_beats": 2.0,
      "velocity": 1.0,
      "role": "bass",
      "is_tied": false
    },
    {
      "midi": 74,
      "name": "D5",
      "start": 153.3582,
      "duration": 1.3433,
      "bar": 43,
      "beat": 4.25,
      "duration_beats": 1.5,
      "velocity": 1.0,
      "role": "melody",
      "is_tied": false
    },
    {
      "midi": 59,
      "name": "B3",
      "start": 153.3582,
      "duration": 0.8955,
      "bar": 43,
      "beat": 4.25,
      "duration_beats": 1.0,
      "velocity": 0.8,
      "role": "chord",
      "is_tied": false
    },
    {
      "midi": 52,
      "name": "E3",
      "start": 153.3582,
      "duration": 0.4478,
      "bar": 43,
      "beat": 4.25,
      "duration_beats": 0.5,
      "velocity": 0.3,
      "role": "chord",
      "is_tied": false
    },
    {
      "midi": 74,
      "name": "D5",
      "start": 153.806,
      "duration": 0.8955,
      "bar": 43,
      "beat": 4.75,
      "duration_beats": 1.0,
      "velocity": 0.47,
      "role": "melody",
      "is_tied": false
    },
    {
      "midi": 62,
      "name": "D4",
      "start": 153.806,
      "duration": 0.8955,
      "bar": 43,
      "beat": 4.75,
      "duration_beats": 1.0,
      "velocity": 0.93,
      "role": "chord",
      "is_tied": false
    },
    {
      "midi": 81,
      "name": "A5",
      "start": 154.4776,
      "duration": 0.2239,
      "bar": 44,
      "beat": 1.5,
      "duration_beats": 0.25,
      "velocity": 0.82,
      "role": "melody",
      "is_tied": false
    },
    {
      "midi": 53,
      "name": "F3",
      "start": 154.4776,
      "duration": 0.2239,
      "bar": 44,
      "beat": 1.5,
      "duration_beats": 0.25,
      "velocity": 0.59,
      "role": "chord",
      "is_tied": false
    },
    {
      "midi": 48,
      "name": "C3",
      "start": 154.4776,
      "duration": 0.2239,
      "bar": 44,
      "beat": 1.5,
      "duration_beats": 0.25,
      "velocity": 0.87,
      "role": "bass",
      "is_tied": false
    },
    {
      "midi": 72,
      "name": "C5",
      "start": 154.7015,
      "duration": 0.6716,
      "bar": 44,
      "beat": 1.75,
      "duration_beats": 0.75,
      "velocity": 0.56,
      "role": "melody",
      "is_tied": false
    },
    {
      "midi": 58,
      "name": "A#3",
      "start": 154.7015,
      "duration": 0.2239,
      "bar": 44,
      "beat": 1.75,
      "duration_beats": 0.25,
      "velocity": 1.0,
      "role": "chord",
      "is_tied": false
    },
    {
      "midi": 53,
      "name": "F3",
      "start": 154.7015,
      "duration": 0.2239,
      "bar": 44,
      "beat": 1.75,
      "duration_beats": 0.25,
      "velocity": 0.65,
      "role": "chord",
      "is_tied": false
    },
    {
      "midi": 51,
      "name": "D#3",
      "start": 154.7015,
      "duration": 0.2239,
      "bar": 44,
      "beat": 1.75,
      "duration_beats": 0.25,
      "velocity": 0.53,
      "role": "chord",
      "is_tied": false
    },
    {
      "midi": 50,
      "name": "D3",
      "start": 154.9254,
      "duration": 0.2239,
      "bar": 44,
      "beat": 2.0,
      "duration_beats": 0.25,
      "velocity": 0.31,
      "role": "chord",
      "is_tied": false
    },
    {
      "midi": 70,
      "name": "A#4",
      "start": 155.1493,
      "duration": 0.2239,
      "bar": 44,
      "beat": 2.25,
      "duration_beats": 0.25,
      "velocity": 1.0,
      "role": "melody",
      "is_tied": false
    },
    {
      "midi": 69,
      "name": "A4",
      "start": 155.1493,
      "duration": 0.2239,
      "bar": 44,
      "beat": 2.25,
      "duration_beats": 0.25,
      "velocity": 1.0,
      "role": "chord",
      "is_tied": false
    },
    {
      "midi": 47,
      "name": "B2",
      "start": 155.1493,
      "duration": 0.2239,
      "bar": 44,
      "beat": 2.25,
      "duration_beats": 0.25,
      "velocity": 0.33,
      "role": "bass",
      "is_tied": false
    },
    {
      "midi": 74,
      "name": "D5",
      "start": 155.3731,
      "duration": 0.2239,
      "bar": 44,
      "beat": 2.5,
      "duration_beats": 0.25,
      "velocity": 0.67,
      "role": "melody",
      "is_tied": false
    },
    {
      "midi": 81,
      "name": "A5",
      "start": 155.597,
      "duration": 0.6716,
      "bar": 44,
      "beat": 2.75,
      "duration_beats": 0.75,
      "velocity": 0.81,
      "role": "melody",
      "is_tied": false
    },
    {
      "midi": 75,
      "name": "D#5",
      "start": 155.597,
      "duration": 0.2239,
      "bar": 44,
      "beat": 2.75,
      "duration_beats": 0.25,
      "velocity": 1.0,
      "role": "melody",
      "is_tied": false
    },
    {
      "midi": 34,
      "name": "A#1",
      "start": 155.597,
      "duration": 0.6716,
      "bar": 44,
      "beat": 2.75,
      "duration_beats": 0.75,
      "velocity": 0.57,
      "role": "bass",
      "is_tied": false
    },
    {
      "midi": 81,
      "name": "A5",
      "start": 155.8209,
      "duration": 0.4478,
      "bar": 44,
      "beat": 3.0,
      "duration_beats": 0.5,
      "velocity": 1.0,
      "role": "melody",
      "is_tied": false
    },
    {
      "midi": 74,
      "name": "D5",
      "start": 155.8209,
      "duration": 0.2239,
      "bar": 44,
      "beat": 3.0,
      "duration_beats": 0.25,
      "velocity": 0.91,
      "role": "melody",
      "is_tied": false
    },
    {
      "midi": 58,
      "name": "A#3",
      "start": 155.8209,
      "duration": 1.3433,
      "bar": 44,
      "beat": 3.0,
      "duration_beats": 1.5,
      "velocity": 0.4,
      "role": "chord",
      "is_tied": false
    },
    {
      "midi": 53,
      "name": "F3",
      "start": 155.8209,
      "duration": 1.3433,
      "bar": 44,
      "beat": 3.0,
      "duration_beats": 1.5,
      "velocity": 0.77,
      "role": "chord",
      "is_tied": false
    },
    {
      "midi": 80,
      "name": "G#5",
      "start": 156.0448,
      "duration": 0.4478,
      "bar": 44,
      "beat": 3.25,
      "duration_beats": 0.5,
      "velocity": 1.0,
      "role": "melody",
      "is_tied": false
    },
    {
      "midi": 49,
      "name": "C#3",
      "start": 156.0448,
      "duration": 0.4478,
      "bar": 44,
      "beat": 3.25,
      "duration_beats": 0.5,
      "velocity": 0.47,
      "role": "chord",
      "is_tied": false
    },
    {
      "midi": 79,
      "name": "G5",
      "start": 156.2687,
      "duration": 0.4478,
      "bar": 44,
      "beat": 3.5,
      "duration_beats": 0.5,
      "velocity": 0.84,
      "role": "melody",
      "is_tied": false
    },
    {
      "midi": 76,
      "name": "E5",
      "start": 156.2687,
      "duration": 0.2239,
      "bar": 44,
      "beat": 3.5,
      "duration_beats": 0.25,
      "velocity": 1.0,
      "role": "melody",
      "is_tied": false
    },
    {
      "midi": 58,
      "name": "A#3",
      "start": 156.2687,
      "duration": 0.8955,
      "bar": 44,
      "beat": 3.5,
      "duration_beats": 1.0,
      "velocity": 0.9,
      "role": "chord",
      "is_tied": false
    },
    {
      "midi": 57,
      "name": "A3",
      "start": 156.2687,
      "duration": 0.2239,
      "bar": 44,
      "beat": 3.5,
      "duration_beats": 0.25,
      "velocity": 0.5,
      "role": "chord",
      "is_tied": false
    },
    {
      "midi": 49,
      "name": "C#3",
      "start": 156.2687,
      "duration": 0.2239,
      "bar": 44,
      "beat": 3.5,
      "duration_beats": 0.25,
      "velocity": 0.6,
      "role": "chord",
      "is_tied": false
    },
    {
      "midi": 76,
      "name": "E5",
      "start": 156.4925,
      "duration": 0.2239,
      "bar": 44,
      "beat": 3.75,
      "duration_beats": 0.25,
      "velocity": 1.0,
      "role": "melody",
      "is_tied": false
    },
    {
      "midi": 72,
      "name": "C5",
      "start": 156.4925,
      "duration": 1.791,
      "bar": 44,
      "beat": 3.75,
      "duration_beats": 2.0,
      "velocity": 1.0,
      "role": "melody",
      "is_tied": false
    },
    {
      "midi": 70,
      "name": "A#4",
      "start": 156.4925,
      "duration": 0.2239,
      "bar": 44,
      "beat": 3.75,
      "duration_beats": 0.25,
      "velocity": 1.0,
      "role": "chord",
      "is_tied": false
    },
    {
      "midi": 48,
      "name": "C3",
      "start": 156.4925,
      "duration": 0.2239,
      "bar": 44,
      "beat": 3.75,
      "duration_beats": 0.25,
      "velocity": 0.6,
      "role": "bass",
      "is_tied": false
    },
    {
      "midi": 70,
      "name": "A#4",
      "start": 156.7164,
      "duration": 0.2239,
      "bar": 44,
      "beat": 4.0,
      "duration_beats": 0.25,
      "velocity": 0.81,
      "role": "melody",
      "is_tied": false
    },
    {
      "midi": 69,
      "name": "A4",
      "start": 156.7164,
      "duration": 0.2239,
      "bar": 44,
      "beat": 4.0,
      "duration_beats": 0.25,
      "velocity": 1.0,
      "role": "chord",
      "is_tied": false
    },
    {
      "midi": 50,
      "name": "D3",
      "start": 156.7164,
      "duration": 0.4478,
      "bar": 44,
      "beat": 4.0,
      "duration_beats": 0.5,
      "velocity": 0.32,
      "role": "chord",
      "is_tied": false
    },
    {
      "midi": 82,
      "name": "A#5",
      "start": 156.9403,
      "duration": 0.2239,
      "bar": 44,
      "beat": 4.25,
      "duration_beats": 0.25,
      "velocity": 0.63,
      "role": "melody",
      "is_tied": false
    },
    {
      "midi": 66,
      "name": "F#4",
      "start": 157.1642,
      "duration": 0.2239,
      "bar": 44,
      "beat": 4.5,
      "duration_beats": 0.25,
      "velocity": 1.0,
      "role": "chord",
      "is_tied": false
    },
    {
      "midi": 70,
      "name": "A#4",
      "start": 157.3881,
      "duration": 0.8955,
      "bar": 44,
      "beat": 4.75,
      "duration_beats": 1.0,
      "velocity": 1.0,
      "role": "melody",
      "is_tied": false
    },
    {
      "midi": 61,
      "name": "C#4",
      "start": 157.3881,
      "duration": 1.791,
      "bar": 44,
      "beat": 4.75,
      "duration_beats": 2.0,
      "velocity": 0.47,
      "role": "chord",
      "is_tied": false
    },
    {
      "midi": 57,
      "name": "A3",
      "start": 157.3881,
      "duration": 3.5821,
      "bar": 44,
      "beat": 4.75,
      "duration_beats": 4.0,
      "velocity": 0.79,
      "role": "chord",
      "is_tied": false
    },
    {
      "midi": 52,
      "name": "E3",
      "start": 157.3881,
      "duration": 3.5821,
      "bar": 44,
      "beat": 4.75,
      "duration_beats": 4.0,
      "velocity": 1.0,
      "role": "bass",
      "is_tied": false
    },
    {
      "midi": 57,
      "name": "A3",
      "start": 157.6119,
      "duration": 2.6866,
      "bar": 45,
      "beat": 1.0,
      "duration_beats": 3.0,
      "velocity": 0.76,
      "role": "chord",
      "is_tied": false
    },
    {
      "midi": 52,
      "name": "E3",
      "start": 157.6119,
      "duration": 3.5821,
      "bar": 45,
      "beat": 1.0,
      "duration_beats": 4.0,
      "velocity": 1.0,
      "role": "bass",
      "is_tied": false
    },
    {
      "midi": 50,
      "name": "D3",
      "start": 157.6119,
      "duration": 1.791,
      "bar": 45,
      "beat": 1.0,
      "duration_beats": 2.0,
      "velocity": 0.43,
      "role": "chord",
      "is_tied": false
    },
    {
      "midi": 76,
      "name": "E5",
      "start": 158.2836,
      "duration": 0.8955,
      "bar": 45,
      "beat": 1.75,
      "duration_beats": 1.0,
      "velocity": 0.98,
      "role": "melody",
      "is_tied": false
    },
    {
      "midi": 73,
      "name": "C#5",
      "start": 158.2836,
      "duration": 2.6866,
      "bar": 45,
      "beat": 1.75,
      "duration_beats": 3.0,
      "velocity": 0.85,
      "role": "melody",
      "is_tied": false
    },
    {
      "midi": 57,
      "name": "A3",
      "start": 158.2836,
      "duration": 2.6866,
      "bar": 45,
      "beat": 1.75,
      "duration_beats": 3.0,
      "velocity": 0.71,
      "role": "chord",
      "is_tied": false
    },
    {
      "midi": 52,
      "name": "E3",
      "start": 158.2836,
      "duration": 3.5821,
      "bar": 45,
      "beat": 1.75,
      "duration_beats": 4.0,
      "velocity": 1.0,
      "role": "bass",
      "is_tied": false
    },
    {
      "midi": 49,
      "name": "C#3",
      "start": 158.2836,
      "duration": 1.3433,
      "bar": 45,
      "beat": 1.75,
      "duration_beats": 1.5,
      "velocity": 0.53,
      "role": "chord",
      "is_tied": false
    },
    {
      "midi": 73,
      "name": "C#5",
      "start": 159.1791,
      "duration": 1.3433,
      "bar": 45,
      "beat": 2.75,
      "duration_beats": 1.5,
      "velocity": 0.87,
      "role": "melody",
      "is_tied": false
    },
    {
      "midi": 49,
      "name": "C#3",
      "start": 159.1791,
      "duration": 0.2239,
      "bar": 45,
      "beat": 2.75,
      "duration_beats": 0.25,
      "velocity": 0.4,
      "role": "chord",
      "is_tied": false
    },
    {
      "midi": 40,
      "name": "E2",
      "start": 159.1791,
      "duration": 0.2239,
      "bar": 45,
      "beat": 2.75,
      "duration_beats": 0.25,
      "velocity": 0.64,
      "role": "bass",
      "is_tied": false
    },
    {
      "midi": 61,
      "name": "C#4",
      "start": 159.403,
      "duration": 0.2239,
      "bar": 45,
      "beat": 3.0,
      "duration_beats": 0.25,
      "velocity": 0.53,
      "role": "chord",
      "is_tied": true
    },
    {
      "midi": 54,
      "name": "F#3",
      "start": 159.403,
      "duration": 0.2239,
      "bar": 45,
      "beat": 3.0,
      "duration_beats": 0.25,
      "velocity": 0.56,
      "role": "chord",
      "is_tied": true
    },
    {
      "midi": 69,
      "name": "A4",
      "start": 159.6269,
      "duration": 0.6716,
      "bar": 45,
      "beat": 3.25,
      "duration_beats": 0.75,
      "velocity": 0.35,
      "role": "melody",
      "is_tied": false
    },
    {
      "midi": 50,
      "name": "D3",
      "start": 159.6269,
      "duration": 0.4478,
      "bar": 45,
      "beat": 3.25,
      "duration_beats": 0.5,
      "velocity": 0.39,
      "role": "chord",
      "is_tied": false
    },
    {
      "midi": 49,
      "name": "C#3",
      "start": 159.8507,
      "duration": 0.6716,
      "bar": 45,
      "beat": 3.5,
      "duration_beats": 0.75,
      "velocity": 0.44,
      "role": "chord",
      "is_tied": false
    },
    {
      "midi": 76,
      "name": "E5",
      "start": 160.2985,
      "duration": 0.2239,
      "bar": 45,
      "beat": 4.0,
      "duration_beats": 0.25,
      "velocity": 1.0,
      "role": "melody",
      "is_tied": false
    },
    {
      "midi": 40,
      "name": "E2",
      "start": 160.2985,
      "duration": 0.2239,
      "bar": 45,
      "beat": 4.0,
      "duration_beats": 0.25,
      "velocity": 0.81,
      "role": "bass",
      "is_tied": false
    },
    {
      "midi": 73,
      "name": "C#5",
      "start": 160.5224,
      "duration": 0.2239,
      "bar": 45,
      "beat": 4.25,
      "duration_beats": 0.25,
      "velocity": 0.4,
      "role": "melody",
      "is_tied": true
    },
    {
      "midi": 64,
      "name": "E4",
      "start": 160.5224,
      "duration": 0.2239,
      "bar": 45,
      "beat": 4.25,
      "duration_beats": 0.25,
      "velocity": 1.0,
      "role": "melody",
      "is_tied": false
    },
    {
      "midi": 71,
      "name": "B4",
      "start": 160.7463,
      "duration": 0.4478,
      "bar": 45,
      "beat": 4.5,
      "duration_beats": 0.5,
      "velocity": 0.4,
      "role": "melody",
      "is_tied": false
    },
    {
      "midi": 55,
      "name": "G3",
      "start": 160.7463,
      "duration": 2.6866,
      "bar": 45,
      "beat": 4.5,
      "duration_beats": 3.0,
      "velocity": 0.43,
      "role": "chord",
      "is_tied": false
    },
    {
      "midi": 45,
      "name": "A2",
      "start": 160.7463,
      "duration": 1.791,
      "bar": 45,
      "beat": 4.5,
      "duration_beats": 2.0,
      "velocity": 0.78,
      "role": "bass",
      "is_tied": false
    },
    {
      "midi": 60,
      "name": "C4",
      "start": 160.9701,
      "duration": 0.6716,
      "bar": 45,
      "beat": 4.75,
      "duration_beats": 0.75,
      "velocity": 0.54,
      "role": "chord",
      "is_tied": false
    },
    {
      "midi": 67,
      "name": "G4",
      "start": 161.194,
      "duration": 0.4478,
      "bar": 45,
      "beat": 5.0,
      "duration_beats": 0.5,
      "velocity": 0.38,
      "role": "melody",
      "is_tied": false
    },
    {
      "midi": 78,
      "name": "F#5",
      "start": 161.6418,
      "duration": 0.6716,
      "bar": 46,
      "beat": 1.5,
      "duration_beats": 0.75,
      "velocity": 1.0,
      "role": "melody",
      "is_tied": false
    },
    {
      "midi": 52,
      "name": "E3",
      "start": 161.6418,
      "duration": 0.8955,
      "bar": 46,
      "beat": 1.5,
      "duration_beats": 1.0,
      "velocity": 0.56,
      "role": "chord",
      "is_tied": false
    },
    {
      "midi": 48,
      "name": "C3",
      "start": 161.6418,
      "duration": 0.2239,
      "bar": 46,
      "beat": 1.5,
      "duration_beats": 0.25,
      "velocity": 0.37,
      "role": "chord",
      "is_tied": false
    },
    {
      "midi": 45,
      "name": "A2",
      "start": 161.6418,
      "duration": 0.6716,
      "bar": 46,
      "beat": 1.5,
      "duration_beats": 0.75,
      "velocity": 1.0,
      "role": "bass",
      "is_tied": false
    },
    {
      "midi": 60,
      "name": "C4",
      "start": 161.8657,
      "duration": 1.3433,
      "bar": 46,
      "beat": 1.75,
      "duration_beats": 1.5,
      "velocity": 1.0,
      "role": "chord",
      "is_tied": false
    },
    {
      "midi": 74,
      "name": "D5",
      "start": 162.0896,
      "duration": 0.2239,
      "bar": 46,
      "beat": 2.0,
      "duration_beats": 0.25,
      "velocity": 0.35,
      "role": "melody",
      "is_tied": false
    },
    {
      "midi": 64,
      "name": "E4",
      "start": 162.0896,
      "duration": 0.4478,
      "bar": 46,
      "beat": 2.0,
      "duration_beats": 0.5,
      "velocity": 0.58,
      "role": "chord",
      "is_tied": false
    },
    {
      "midi": 48,
      "name": "C3",
      "start": 162.0896,
      "duration": 0.4478,
      "bar": 46,
      "beat": 2.0,
      "duration_beats": 0.5,
      "velocity": 0.58,
      "role": "chord",
      "is_tied": false
    },
    {
      "midi": 76,
      "name": "E5",
      "start": 162.3134,
      "duration": 0.6716,
      "bar": 46,
      "beat": 2.25,
      "duration_beats": 0.75,
      "velocity": 0.36,
      "role": "melody",
      "is_tied": false
    },
    {
      "midi": 79,
      "name": "G5",
      "start": 162.5373,
      "duration": 0.2239,
      "bar": 46,
      "beat": 2.5,
      "duration_beats": 0.25,
      "velocity": 1.0,
      "role": "melody",
      "is_tied": false
    },
    {
      "midi": 74,
      "name": "D5",
      "start": 162.5373,
      "duration": 0.4478,
      "bar": 46,
      "beat": 2.5,
      "duration_beats": 0.5,
      "velocity": 0.5,
      "role": "melody",
      "is_tied": false
    },
    {
      "midi": 69,
      "name": "A4",
      "start": 162.5373,
      "duration": 0.4478,
      "bar": 46,
      "beat": 2.5,
      "duration_beats": 0.5,
      "velocity": 0.67,
      "role": "chord",
      "is_tied": false
    },
    {
      "midi": 41,
      "name": "F2",
      "start": 162.5373,
      "duration": 0.2239,
      "bar": 46,
      "beat": 2.5,
      "duration_beats": 0.25,
      "velocity": 0.7,
      "role": "bass",
      "is_tied": false
    },
    {
      "midi": 78,
      "name": "F#5",
      "start": 162.7612,
      "duration": 0.4478,
      "bar": 46,
      "beat": 2.75,
      "duration_beats": 0.5,
      "velocity": 0.94,
      "role": "melody",
      "is_tied": false
    },
    {
      "midi": 43,
      "name": "G2",
      "start": 162.7612,
      "duration": 0.2239,
      "bar": 46,
      "beat": 2.75,
      "duration_beats": 0.25,
      "velocity": 0.81,
      "role": "bass",
      "is_tied": false
    },
    {
      "midi": 69,
      "name": "A4",
      "start": 162.9851,
      "duration": 0.2239,
      "bar": 46,
      "beat": 3.0,
      "duration_beats": 0.25,
      "velocity": 0.83,
      "role": "melody",
      "is_tied": true
    },
    {
      "midi": 51,
      "name": "D#3",
      "start": 162.9851,
      "duration": 0.2239,
      "bar": 46,
      "beat": 3.0,
      "duration_beats": 0.25,
      "velocity": 0.48,
      "role": "chord",
      "is_tied": false
    },
    {
      "midi": 41,
      "name": "F2",
      "start": 162.9851,
      "duration": 0.2239,
      "bar": 46,
      "beat": 3.0,
      "duration_beats": 0.25,
      "velocity": 0.68,
      "role": "bass",
      "is_tied": false
    },
    {
      "midi": 80,
      "name": "G#5",
      "start": 163.209,
      "duration": 0.2239,
      "bar": 46,
      "beat": 3.25,
      "duration_beats": 0.25,
      "velocity": 1.0,
      "role": "melody",
      "is_tied": false
    },
    {
      "midi": 80,
      "name": "G#5",
      "start": 163.4328,
      "duration": 0.4478,
      "bar": 46,
      "beat": 3.5,
      "duration_beats": 0.5,
      "velocity": 1.0,
      "role": "melody",
      "is_tied": false
    },
    {
      "midi": 51,
      "name": "D#3",
      "start": 163.4328,
      "duration": 0.4478,
      "bar": 46,
      "beat": 3.5,
      "duration_beats": 0.5,
      "velocity": 0.47,
      "role": "chord",
      "is_tied": false
    },
    {
      "midi": 82,
      "name": "A#5",
      "start": 163.8806,
      "duration": 0.2239,
      "bar": 46,
      "beat": 4.0,
      "duration_beats": 0.25,
      "velocity": 0.74,
      "role": "melody",
      "is_tied": false
    },
    {
      "midi": 44,
      "name": "G#2",
      "start": 163.8806,
      "duration": 0.4478,
      "bar": 46,
      "beat": 4.0,
      "duration_beats": 0.5,
      "velocity": 0.5,
      "role": "bass",
      "is_tied": false
    },
    {
      "midi": 48,
      "name": "C3",
      "start": 164.1045,
      "duration": 0.2239,
      "bar": 46,
      "beat": 4.25,
      "duration_beats": 0.25,
      "velocity": 0.42,
      "role": "chord",
      "is_tied": false
    },
    {
      "midi": 80,
      "name": "G#5",
      "start": 164.3284,
      "duration": 0.2239,
      "bar": 46,
      "beat": 4.5,
      "duration_beats": 0.25,
      "velocity": 0.57,
      "role": "melody",
      "is_tied": true
    },
    {
      "midi": 77,
      "name": "F5",
      "start": 164.3284,
      "duration": 0.2239,
      "bar": 46,
      "beat": 4.5,
      "duration_beats": 0.25,
      "velocity": 1.0,
      "role": "melody",
      "is_tied": false
    },
    {
      "midi": 60,
      "name": "C4",
      "start": 164.3284,
      "duration": 0.2239,
      "bar": 46,
      "beat": 4.5,
      "duration_beats": 0.25,
      "velocity": 0.58,
      "role": "chord",
      "is_tied": true
    },
    {
      "midi": 81,
      "name": "A5",
      "start": 164.5522,
      "duration": 0.2239,
      "bar": 46,
      "beat": 4.75,
      "duration_beats": 0.25,
      "velocity": 1.0,
      "role": "melody",
      "is_tied": false
    },
    {
      "midi": 80,
      "name": "G#5",
      "start": 164.5522,
      "duration": 0.2239,
      "bar": 46,
      "beat": 4.75,
      "duration_beats": 0.25,
      "velocity": 0.53,
      "role": "melody",
      "is_tied": false
    },
    {
      "midi": 55,
      "name": "G3",
      "start": 164.5522,
      "duration": 0.4478,
      "bar": 46,
      "beat": 4.75,
      "duration_beats": 0.5,
      "velocity": 0.89,
      "role": "chord",
      "is_tied": false
    },
    {
      "midi": 50,
      "name": "D3",
      "start": 164.5522,
      "duration": 0.6716,
      "bar": 46,
      "beat": 4.75,
      "duration_beats": 0.75,
      "velocity": 1.0,
      "role": "chord",
      "is_tied": false
    },
    {
      "midi": 78,
      "name": "F#5",
      "start": 165.0,
      "duration": 0.4478,
      "bar": 47,
      "beat": 1.25,
      "duration_beats": 0.5,
      "velocity": 0.64,
      "role": "melody",
      "is_tied": false
    },
    {
      "midi": 59,
      "name": "B3",
      "start": 165.0,
      "duration": 0.8955,
      "bar": 47,
      "beat": 1.25,
      "duration_beats": 1.0,
      "velocity": 0.48,
      "role": "chord",
      "is_tied": false
    },
    {
      "midi": 54,
      "name": "F#3",
      "start": 165.0,
      "duration": 0.2239,
      "bar": 47,
      "beat": 1.25,
      "duration_beats": 0.25,
      "velocity": 0.65,
      "role": "chord",
      "is_tied": false
    },
    {
      "midi": 50,
      "name": "D3",
      "start": 165.0,
      "duration": 0.2239,
      "bar": 47,
      "beat": 1.25,
      "duration_beats": 0.25,
      "velocity": 1.0,
      "role": "chord",
      "is_tied": false
    },
    {
      "midi": 78,
      "name": "F#5",
      "start": 165.2239,
      "duration": 0.2239,
      "bar": 47,
      "beat": 1.5,
      "duration_beats": 0.25,
      "velocity": 0.57,
      "role": "melody",
      "is_tied": true
    },
    {
      "midi": 74,
      "name": "D5",
      "start": 165.2239,
      "duration": 0.6716,
      "bar": 47,
      "beat": 1.5,
      "duration_beats": 0.75,
      "velocity": 1.0,
      "role": "melody",
      "is_tied": false
    },
    {
      "midi": 55,
      "name": "G3",
      "start": 165.2239,
      "duration": 0.8955,
      "bar": 47,
      "beat": 1.5,
      "duration_beats": 1.0,
      "velocity": 0.77,
      "role": "chord",
      "is_tied": false
    },
    {
      "midi": 47,
      "name": "B2",
      "start": 165.2239,
      "duration": 1.3433,
      "bar": 47,
      "beat": 1.5,
      "duration_beats": 1.5,
      "velocity": 1.0,
      "role": "bass",
      "is_tied": false
    },
    {
      "midi": 69,
      "name": "A4",
      "start": 165.4478,
      "duration": 0.6716,
      "bar": 47,
      "beat": 1.75,
      "duration_beats": 0.75,
      "velocity": 1.0,
      "role": "melody",
      "is_tied": false
    },
    {
      "midi": 35,
      "name": "B1",
      "start": 165.4478,
      "duration": 0.2239,
      "bar": 47,
      "beat": 1.75,
      "duration_beats": 0.25,
      "velocity": 0.49,
      "role": "bass",
      "is_tied": false
    },
    {
      "midi": 74,
      "name": "D5",
      "start": 165.8955,
      "duration": 0.2239,
      "bar": 47,
      "beat": 2.25,
      "duration_beats": 0.25,
      "velocity": 0.55,
      "role": "melody",
      "is_tied": false
    },
    {
      "midi": 43,
      "name": "G2",
      "start": 165.8955,
      "duration": 0.2239,
      "bar": 47,
      "beat": 2.25,
      "duration_beats": 0.25,
      "velocity": 0.46,
      "role": "bass",
      "is_tied": true
    },
    {
      "midi": 83,
      "name": "B5",
      "start": 166.1194,
      "duration": 0.4478,
      "bar": 47,
      "beat": 2.5,
      "duration_beats": 0.5,
      "velocity": 1.0,
      "role": "melody",
      "is_tied": false
    },
    {
      "midi": 59,
      "name": "B3",
      "start": 166.1194,
      "duration": 0.4478,
      "bar": 47,
      "beat": 2.5,
      "duration_beats": 0.5,
      "velocity": 0.42,
      "role": "chord",
      "is_tied": false
    },
    {
      "midi": 50,
      "name": "D3",
      "start": 166.1194,
      "duration": 0.4478,
      "bar": 47,
      "beat": 2.5,
      "duration_beats": 0.5,
      "velocity": 0.84,
      "role": "chord",
      "is_tied": false
    },
    {
      "midi": 66,
      "name": "F#4",
      "start": 166.3433,
      "duration": 0.2239,
      "bar": 47,
      "beat": 2.75,
      "duration_beats": 0.25,
      "velocity": 1.0,
      "role": "chord",
      "is_tied": false
    },
    {
      "midi": 83,
      "name": "B5",
      "start": 166.5672,
      "duration": 0.2239,
      "bar": 47,
      "beat": 3.0,
      "duration_beats": 0.25,
      "velocity": 1.0,
      "role": "melody",
      "is_tied": false
    },
    {
      "midi": 74,
      "name": "D5",
      "start": 166.5672,
      "duration": 0.2239,
      "bar": 47,
      "beat": 3.0,
      "duration_beats": 0.25,
      "velocity": 1.0,
      "role": "melody",
      "is_tied": false
    },
    {
      "midi": 50,
      "name": "D3",
      "start": 166.5672,
      "duration": 0.2239,
      "bar": 47,
      "beat": 3.0,
      "duration_beats": 0.25,
      "velocity": 0.91,
      "role": "chord",
      "is_tied": false
    },
    {
      "midi": 50,
      "name": "D3",
      "start": 166.791,
      "duration": 0.2239,
      "bar": 47,
      "beat": 3.25,
      "duration_beats": 0.25,
      "velocity": 0.31,
      "role": "chord",
      "is_tied": true
    },
    {
      "midi": 74,
      "name": "D5",
      "start": 167.0149,
      "duration": 0.8955,
      "bar": 47,
      "beat": 3.5,
      "duration_beats": 1.0,
      "velocity": 0.93,
      "role": "melody",
      "is_tied": false
    },
    {
      "midi": 66,
      "name": "F#4",
      "start": 167.0149,
      "duration": 0.4478,
      "bar": 47,
      "beat": 3.5,
      "duration_beats": 0.5,
      "velocity": 0.67,
      "role": "melody",
      "is_tied": false
    },
    {
      "midi": 40,
      "name": "E2",
      "start": 167.0149,
      "duration": 0.4478,
      "bar": 47,
      "beat": 3.5,
      "duration_beats": 0.5,
      "velocity": 1.0,
      "role": "bass",
      "is_tied": false
    },
    {
      "midi": 43,
      "name": "G2",
      "start": 167.4627,
      "duration": 0.4478,
      "bar": 47,
      "beat": 4.0,
      "duration_beats": 0.5,
      "velocity": 0.7,
      "role": "bass",
      "is_tied": false
    },
    {
      "midi": 74,
      "name": "D5",
      "start": 168.1343,
      "duration": 0.2239,
      "bar": 47,
      "beat": 4.75,
      "duration_beats": 0.25,
      "velocity": 1.0,
      "role": "melody",
      "is_tied": false
    },
    {
      "midi": 58,
      "name": "A#3",
      "start": 168.1343,
      "duration": 0.2239,
      "bar": 47,
      "beat": 4.75,
      "duration_beats": 0.25,
      "velocity": 1.0,
      "role": "chord",
      "is_tied": false
    },
    {
      "midi": 48,
      "name": "C3",
      "start": 168.1343,
      "duration": 0.2239,
      "bar": 47,
      "beat": 4.75,
      "duration_beats": 0.25,
      "velocity": 0.72,
      "role": "bass",
      "is_tied": false
    },
    {
      "midi": 74,
      "name": "D5",
      "start": 168.3582,
      "duration": 0.2239,
      "bar": 48,
      "beat": 1.0,
      "duration_beats": 0.25,
      "velocity": 1.0,
      "role": "melody",
      "is_tied": false
    },
    {
      "midi": 69,
      "name": "A4",
      "start": 168.3582,
      "duration": 0.2239,
      "bar": 48,
      "beat": 1.0,
      "duration_beats": 0.25,
      "velocity": 1.0,
      "role": "chord",
      "is_tied": false
    },
    {
      "midi": 65,
      "name": "F4",
      "start": 168.3582,
      "duration": 0.2239,
      "bar": 48,
      "beat": 1.0,
      "duration_beats": 0.25,
      "velocity": 1.0,
      "role": "melody",
      "is_tied": false
    },
    {
      "midi": 50,
      "name": "D3",
      "start": 168.3582,
      "duration": 0.2239,
      "bar": 48,
      "beat": 1.0,
      "duration_beats": 0.25,
      "velocity": 0.79,
      "role": "chord",
      "is_tied": false
    },
    {
      "midi": 41,
      "name": "F2",
      "start": 168.3582,
      "duration": 0.2239,
      "bar": 48,
      "beat": 1.0,
      "duration_beats": 0.25,
      "velocity": 1.0,
      "role": "bass",
      "is_tied": false
    },
    {
      "midi": 72,
      "name": "C5",
      "start": 168.5821,
      "duration": 0.2239,
      "bar": 48,
      "beat": 1.25,
      "duration_beats": 0.25,
      "velocity": 0.56,
      "role": "melody",
      "is_tied": false
    },
    {
      "midi": 69,
      "name": "A4",
      "start": 168.5821,
      "duration": 0.2239,
      "bar": 48,
      "beat": 1.25,
      "duration_beats": 0.25,
      "velocity": 1.0,
      "role": "melody",
      "is_tied": false
    },
    {
      "midi": 50,
      "name": "D3",
      "start": 168.5821,
      "duration": 0.2239,
      "bar": 48,
      "beat": 1.25,
      "duration_beats": 0.25,
      "velocity": 0.79,
      "role": "chord",
      "is_tied": false
    },
    {
      "midi": 48,
      "name": "C3",
      "start": 168.5821,
      "duration": 0.2239,
      "bar": 48,
      "beat": 1.25,
      "duration_beats": 0.25,
      "velocity": 0.51,
      "role": "chord",
      "is_tied": false
    },
    {
      "midi": 41,
      "name": "F2",
      "start": 168.5821,
      "duration": 0.2239,
      "bar": 48,
      "beat": 1.25,
      "duration_beats": 0.25,
      "velocity": 1.0,
      "role": "bass",
      "is_tied": false
    },
    {
      "midi": 60,
      "name": "C4",
      "start": 168.806,
      "duration": 0.4478,
      "bar": 48,
      "beat": 1.5,
      "duration_beats": 0.5,
      "velocity": 1.0,
      "role": "chord",
      "is_tied": false
    },
    {
      "midi": 72,
      "name": "C5",
      "start": 169.0299,
      "duration": 0.2239,
      "bar": 48,
      "beat": 1.75,
      "duration_beats": 0.25,
      "velocity": 0.95,
      "role": "melody",
      "is_tied": false
    },
    {
      "midi": 60,
      "name": "C4",
      "start": 169.0299,
      "duration": 0.2239,
      "bar": 48,
      "beat": 1.75,
      "duration_beats": 0.25,
      "velocity": 0.63,
      "role": "chord",
      "is_tied": false
    },
    {
      "midi": 50,
      "name": "D3",
      "start": 169.0299,
      "duration": 0.2239,
      "bar": 48,
      "beat": 1.75,
      "duration_beats": 0.25,
      "velocity": 0.58,
      "role": "chord",
      "is_tied": false
    },
    {
      "midi": 72,
      "name": "C5",
      "start": 169.2537,
      "duration": 0.2239,
      "bar": 48,
      "beat": 2.0,
      "duration_beats": 0.25,
      "velocity": 1.0,
      "role": "melody",
      "is_tied": false
    },
    {
      "midi": 70,
      "name": "A#4",
      "start": 169.2537,
      "duration": 0.2239,
      "bar": 48,
      "beat": 2.0,
      "duration_beats": 0.25,
      "velocity": 0.62,
      "role": "melody",
      "is_tied": false
    },
    {
      "midi": 69,
      "name": "A4",
      "start": 169.2537,
      "duration": 0.2239,
      "bar": 48,
      "beat": 2.0,
      "duration_beats": 0.25,
      "velocity": 0.81,
      "role": "chord",
      "is_tied": false
    },
    {
      "midi": 60,
      "name": "C4",
      "start": 169.2537,
      "duration": 0.2239,
      "bar": 48,
      "beat": 2.0,
      "duration_beats": 0.25,
      "velocity": 0.41,
      "role": "chord",
      "is_tied": false
    },
    {
      "midi": 53,
      "name": "F3",
      "start": 169.4776,
      "duration": 0.2239,
      "bar": 48,
      "beat": 2.25,
      "duration_beats": 0.25,
      "velocity": 0.35,
      "role": "chord",
      "is_tied": false
    },
    {
      "midi": 50,
      "name": "D3",
      "start": 169.4776,
      "duration": 0.2239,
      "bar": 48,
      "beat": 2.25,
      "duration_beats": 0.25,
      "velocity": 0.35,
      "role": "chord",
      "is_tied": false
    },
    {
      "midi": 74,
      "name": "D5",
      "start": 169.7015,
      "duration": 0.4478,
      "bar": 48,
      "beat": 2.5,
      "duration_beats": 0.5,
      "velocity": 0.94,
      "role": "melody",
      "is_tied": false
    },
    {
      "midi": 72,
      "name": "C5",
      "start": 169.7015,
      "duration": 0.4478,
      "bar": 48,
      "beat": 2.5,
      "duration_beats": 0.5,
      "velocity": 0.56,
      "role": "melody",
      "is_tied": false
    },
    {
      "midi": 50,
      "name": "D3",
      "start": 169.7015,
      "duration": 1.3433,
      "bar": 48,
      "beat": 2.5,
      "duration_beats": 1.5,
      "velocity": 0.31,
      "role": "chord",
      "is_tied": false
    },
    {
      "midi": 40,
      "name": "E2",
      "start": 169.7015,
      "duration": 0.2239,
      "bar": 48,
      "beat": 2.5,
      "duration_beats": 0.25,
      "velocity": 1.0,
      "role": "bass",
      "is_tied": false
    },
    {
      "midi": 77,
      "name": "F5",
      "start": 169.9254,
      "duration": 0.6716,
      "bar": 48,
      "beat": 2.75,
      "duration_beats": 0.75,
      "velocity": 1.0,
      "role": "melody",
      "is_tied": false
    },
    {
      "midi": 62,
      "name": "D4",
      "start": 169.9254,
      "duration": 1.3433,
      "bar": 48,
      "beat": 2.75,
      "duration_beats": 1.5,
      "velocity": 1.0,
      "role": "chord",
      "is_tied": false
    },
    {
      "midi": 58,
      "name": "A#3",
      "start": 169.9254,
      "duration": 0.6716,
      "bar": 48,
      "beat": 2.75,
      "duration_beats": 0.75,
      "velocity": 0.9,
      "role": "chord",
      "is_tied": false
    },
    {
      "midi": 81,
      "name": "A5",
      "start": 170.1493,
      "duration": 0.2239,
      "bar": 48,
      "beat": 3.0,
      "duration_beats": 0.25,
      "velocity": 1.0,
      "role": "melody",
      "is_tied": false
    },
    {
      "midi": 33,
      "name": "A1",
      "start": 170.1493,
      "duration": 0.2239,
      "bar": 48,
      "beat": 3.0,
      "duration_beats": 0.25,
      "velocity": 0.7,
      "role": "bass",
      "is_tied": false
    },
    {
      "midi": 74,
      "name": "D5",
      "start": 170.597,
      "duration": 0.4478,
      "bar": 48,
      "beat": 3.5,
      "duration_beats": 0.5,
      "velocity": 1.0,
      "role": "melody",
      "is_tied": false
    },
    {
      "midi": 72,
      "name": "C5",
      "start": 170.597,
      "duration": 0.2239,
      "bar": 48,
      "beat": 3.5,
      "duration_beats": 0.25,
      "velocity": 1.0,
      "role": "melody",
      "is_tied": false
    },
    {
      "midi": 58,
      "name": "A#3",
      "start": 170.8209,
      "duration": 0.2239,
      "bar": 48,
      "beat": 3.75,
      "duration_beats": 0.25,
      "velocity": 0.61,
      "role": "chord",
      "is_tied": false
    },
    {
      "midi": 74,
      "name": "D5",
      "start": 171.2687,
      "duration": 0.6716,
      "bar": 48,
      "beat": 4.25,
      "duration_beats": 0.75,
      "velocity": 0.37,
      "role": "melody",
      "is_tied": false
    },
    {
      "midi": 66,
      "name": "F#4",
      "start": 171.2687,
      "duration": 0.6716,
      "bar": 48,
      "beat": 4.25,
      "duration_beats": 0.75,
      "velocity": 0.94,
      "role": "chord",
      "is_tied": false
    },
    {
      "midi": 62,
      "name": "D4",
      "start": 171.2687,
      "duration": 0.2239,
      "bar": 48,
      "beat": 4.25,
      "duration_beats": 0.25,
      "velocity": 0.8,
      "role": "chord",
      "is_tied": false
    },
    {
      "midi": 58,
      "name": "A#3",
      "start": 171.2687,
      "duration": 0.4478,
      "bar": 48,
      "beat": 4.25,
      "duration_beats": 0.5,
      "velocity": 0.68,
      "role": "chord",
      "is_tied": false
    },
    {
      "midi": 79,
      "name": "G5",
      "start": 171.9403,
      "duration": 0.4478,
      "bar": 49,
      "beat": 1.0,
      "duration_beats": 0.5,
      "velocity": 0.34,
      "role": "melody",
      "is_tied": false
    },
    {
      "midi": 73,
      "name": "C#5",
      "start": 171.9403,
      "duration": 0.2239,
      "bar": 49,
      "beat": 1.0,
      "duration_beats": 0.25,
      "velocity": 0.34,
      "role": "melody",
      "is_tied": false
    },
    {
      "midi": 69,
      "name": "A4",
      "start": 171.9403,
      "duration": 0.2239,
      "bar": 49,
      "beat": 1.0,
      "duration_beats": 0.25,
      "velocity": 1.0,
      "role": "chord",
      "is_tied": false
    },
    {
      "midi": 45,
      "name": "A2",
      "start": 171.9403,
      "duration": 0.4478,
      "bar": 49,
      "beat": 1.0,
      "duration_beats": 0.5,
      "velocity": 1.0,
      "role": "bass",
      "is_tied": false
    },
    {
      "midi": 61,
      "name": "C#4",
      "start": 172.1642,
      "duration": 0.4478,
      "bar": 49,
      "beat": 1.25,
      "duration_beats": 0.5,
      "velocity": 1.0,
      "role": "chord",
      "is_tied": false
    },
    {
      "midi": 83,
      "name": "B5",
      "start": 172.3881,
      "duration": 0.2239,
      "bar": 49,
      "beat": 1.5,
      "duration_beats": 0.25,
      "velocity": 0.71,
      "role": "melody",
      "is_tied": false
    },
    {
      "midi": 74,
      "name": "D5",
      "start": 172.3881,
      "duration": 0.2239,
      "bar": 49,
      "beat": 1.5,
      "duration_beats": 0.25,
      "velocity": 1.0,
      "role": "melody",
      "is_tied": false
    },
    {
      "midi": 54,
      "name": "F#3",
      "start": 172.3881,
      "duration": 0.2239,
      "bar": 49,
      "beat": 1.5,
      "duration_beats": 0.25,
      "velocity": 0.68,
      "role": "chord",
      "is_tied": false
    },
    {
      "midi": 52,
      "name": "E3",
      "start": 172.3881,
      "duration": 0.2239,
      "bar": 49,
      "beat": 1.5,
      "duration_beats": 0.25,
      "velocity": 1.0,
      "role": "bass",
      "is_tied": false
    },
    {
      "midi": 49,
      "name": "C#3",
      "start": 172.3881,
      "duration": 0.2239,
      "bar": 49,
      "beat": 1.5,
      "duration_beats": 0.25,
      "velocity": 0.46,
      "role": "chord",
      "is_tied": false
    },
    {
      "midi": 83,
      "name": "B5",
      "start": 172.6119,
      "duration": 0.4478,
      "bar": 49,
      "beat": 1.75,
      "duration_beats": 0.5,
      "velocity": 1.0,
      "role": "melody",
      "is_tied": false
    },
    {
      "midi": 61,
      "name": "C#4",
      "start": 172.6119,
      "duration": 0.8955,
      "bar": 49,
      "beat": 1.75,
      "duration_beats": 1.0,
      "velocity": 0.98,
      "role": "chord",
      "is_tied": false
    },
    {
      "midi": 57,
      "name": "A3",
      "start": 172.6119,
      "duration": 0.4478,
      "bar": 49,
      "beat": 1.75,
      "duration_beats": 0.5,
      "velocity": 0.49,
      "role": "chord",
      "is_tied": false
    },
    {
      "midi": 54,
      "name": "F#3",
      "start": 172.6119,
      "duration": 0.6716,
      "bar": 49,
      "beat": 1.75,
      "duration_beats": 0.75,
      "velocity": 0.5,
      "role": "chord",
      "is_tied": false
    },
    {
      "midi": 83,
      "name": "B5",
      "start": 172.8358,
      "duration": 0.2239,
      "bar": 49,
      "beat": 2.0,
      "duration_beats": 0.25,
      "velocity": 1.0,
      "role": "melody",
      "is_tied": true
    },
    {
      "midi": 49,
      "name": "C#3",
      "start": 172.8358,
      "duration": 0.6716,
      "bar": 49,
      "beat": 2.0,
      "duration_beats": 0.75,
      "velocity": 0.31,
      "role": "chord",
      "is_tied": false
    },
    {
      "midi": 71,
      "name": "B4",
      "start": 173.0597,
      "duration": 0.2239,
      "bar": 49,
      "beat": 2.25,
      "duration_beats": 0.25,
      "velocity": 1.0,
      "role": "melody",
      "is_tied": false
    },
    {
      "midi": 69,
      "name": "A4",
      "start": 173.0597,
      "duration": 0.2239,
      "bar": 49,
      "beat": 2.25,
      "duration_beats": 0.25,
      "velocity": 0.81,
      "role": "melody",
      "is_tied": false
    },
    {
      "midi": 76,
      "name": "E5",
      "start": 173.2836,
      "duration": 0.2239,
      "bar": 49,
      "beat": 2.5,
      "duration_beats": 0.25,
      "velocity": 1.0,
      "role": "melody",
      "is_tied": false
    },
    {
      "midi": 73,
      "name": "C#5",
      "start": 173.2836,
      "duration": 0.2239,
      "bar": 49,
      "beat": 2.5,
      "duration_beats": 0.25,
      "velocity": 0.57,
      "role": "melody",
      "is_tied": false
    },
    {
      "midi": 58,
      "name": "A#3",
      "start": 173.2836,
      "duration": 0.2239,
      "bar": 49,
      "beat": 2.5,
      "duration_beats": 0.25,
      "velocity": 0.52,
      "role": "chord",
      "is_tied": false
    },
    {
      "midi": 52,
      "name": "E3",
      "start": 173.2836,
      "duration": 0.2239,
      "bar": 49,
      "beat": 2.5,
      "duration_beats": 0.25,
      "velocity": 1.0,
      "role": "bass",
      "is_tied": true
    },
    {
      "midi": 50,
      "name": "D3",
      "start": 173.2836,
      "duration": 0.2239,
      "bar": 49,
      "beat": 2.5,
      "duration_beats": 0.25,
      "velocity": 0.68,
      "role": "chord",
      "is_tied": false
    },
    {
      "midi": 76,
      "name": "E5",
      "start": 173.5075,
      "duration": 0.6716,
      "bar": 49,
      "beat": 2.75,
      "duration_beats": 0.75,
      "velocity": 0.87,
      "role": "melody",
      "is_tied": false
    },
    {
      "midi": 61,
      "name": "C#4",
      "start": 173.5075,
      "duration": 0.6716,
      "bar": 49,
      "beat": 2.75,
      "duration_beats": 0.75,
      "velocity": 0.78,
      "role": "chord",
      "is_tied": false
    },
    {
      "midi": 57,
      "name": "A3",
      "start": 173.5075,
      "duration": 0.4478,
      "bar": 49,
      "beat": 2.75,
      "duration_beats": 0.5,
      "velocity": 0.32,
      "role": "chord",
      "is_tied": false
    },
    {
      "midi": 54,
      "name": "F#3",
      "start": 173.5075,
      "duration": 0.6716,
      "bar": 49,
      "beat": 2.75,
      "duration_beats": 0.75,
      "velocity": 0.42,
      "role": "chord",
      "is_tied": false
    },
    {
      "midi": 52,
      "name": "E3",
      "start": 173.5075,
      "duration": 0.6716,
      "bar": 49,
      "beat": 2.75,
      "duration_beats": 0.75,
      "velocity": 1.0,
      "role": "bass",
      "is_tied": false
    },
    {
      "midi": 49,
      "name": "C#3",
      "start": 173.9552,
      "duration": 0.2239,
      "bar": 49,
      "beat": 3.25,
      "duration_beats": 0.25,
      "velocity": 0.49,
      "role": "chord",
      "is_tied": true
    },
    {
      "midi": 42,
      "name": "F#2",
      "start": 173.9552,
      "duration": 0.2239,
      "bar": 49,
      "beat": 3.25,
      "duration_beats": 0.25,
      "velocity": 1.0,
      "role": "bass",
      "is_tied": false
    },
    {
      "midi": 78,
      "name": "F#5",
      "start": 174.403,
      "duration": 0.2239,
      "bar": 49,
      "beat": 3.75,
      "duration_beats": 0.25,
      "velocity": 1.0,
      "role": "melody",
      "is_tied": false
    },
    {
      "midi": 76,
      "name": "E5",
      "start": 174.403,
      "duration": 0.2239,
      "bar": 49,
      "beat": 3.75,
      "duration_beats": 0.25,
      "velocity": 1.0,
      "role": "melody",
      "is_tied": false
    },
    {
      "midi": 57,
      "name": "A3",
      "start": 174.403,
      "duration": 0.2239,
      "bar": 49,
      "beat": 3.75,
      "duration_beats": 0.25,
      "velocity": 0.37,
      "role": "chord",
      "is_tied": false
    },
    {
      "midi": 52,
      "name": "E3",
      "start": 174.403,
      "duration": 0.2239,
      "bar": 49,
      "beat": 3.75,
      "duration_beats": 0.25,
      "velocity": 1.0,
      "role": "bass",
      "is_tied": false
    },
    {
      "midi": 49,
      "name": "C#3",
      "start": 174.403,
      "duration": 0.2239,
      "bar": 49,
      "beat": 3.75,
      "duration_beats": 0.25,
      "velocity": 0.47,
      "role": "chord",
      "is_tied": false
    },
    {
      "midi": 78,
      "name": "F#5",
      "start": 174.6269,
      "duration": 0.2239,
      "bar": 49,
      "beat": 4.0,
      "duration_beats": 0.25,
      "velocity": 1.0,
      "role": "melody",
      "is_tied": false
    },
    {
      "midi": 76,
      "name": "E5",
      "start": 174.6269,
      "duration": 0.2239,
      "bar": 49,
      "beat": 4.0,
      "duration_beats": 0.25,
      "velocity": 1.0,
      "role": "melody",
      "is_tied": false
    },
    {
      "midi": 57,
      "name": "A3",
      "start": 174.6269,
      "duration": 0.2239,
      "bar": 49,
      "beat": 4.0,
      "duration_beats": 0.25,
      "velocity": 0.85,
      "role": "chord",
      "is_tied": false
    },
    {
      "midi": 54,
      "name": "F#3",
      "start": 174.6269,
      "duration": 0.2239,
      "bar": 49,
      "beat": 4.0,
      "duration_beats": 0.25,
      "velocity": 0.85,
      "role": "chord",
      "is_tied": false
    },
    {
      "midi": 52,
      "name": "E3",
      "start": 174.6269,
      "duration": 0.2239,
      "bar": 49,
      "beat": 4.0,
      "duration_beats": 0.25,
      "velocity": 0.76,
      "role": "chord",
      "is_tied": false
    },
    {
      "midi": 46,
      "name": "A#2",
      "start": 174.8507,
      "duration": 0.2239,
      "bar": 49,
      "beat": 4.25,
      "duration_beats": 0.25,
      "velocity": 1.0,
      "role": "bass",
      "is_tied": false
    },
    {
      "midi": 76,
      "name": "E5",
      "start": 175.0746,
      "duration": 0.2239,
      "bar": 49,
      "beat": 4.5,
      "duration_beats": 0.25,
      "velocity": 0.76,
      "role": "melody",
      "is_tied": false
    },
    {
      "midi": 74,
      "name": "D5",
      "start": 175.0746,
      "duration": 0.2239,
      "bar": 49,
      "beat": 4.5,
      "duration_beats": 0.25,
      "velocity": 1.0,
      "role": "melody",
      "is_tied": false
    },
    {
      "midi": 74,
      "name": "D5",
      "start": 175.2985,
      "duration": 0.2239,
      "bar": 49,
      "beat": 4.75,
      "duration_beats": 0.25,
      "velocity": 0.94,
      "role": "melody",
      "is_tied": false
    },
    {
      "midi": 72,
      "name": "C5",
      "start": 175.2985,
      "duration": 0.8955,
      "bar": 49,
      "beat": 4.75,
      "duration_beats": 1.0,
      "velocity": 1.0,
      "role": "melody",
      "is_tied": false
    },
    {
      "midi": 45,
      "name": "A2",
      "start": 175.2985,
      "duration": 1.3433,
      "bar": 49,
      "beat": 4.75,
      "duration_beats": 1.5,
      "velocity": 1.0,
      "role": "bass",
      "is_tied": false
    },
    {
      "midi": 60,
      "name": "C4",
      "start": 175.5224,
      "duration": 0.8955,
      "bar": 50,
      "beat": 1.0,
      "duration_beats": 1.0,
      "velocity": 0.66,
      "role": "chord",
      "is_tied": false
    },
    {
      "midi": 52,
      "name": "E3",
      "start": 175.5224,
      "duration": 0.4478,
      "bar": 50,
      "beat": 1.0,
      "duration_beats": 0.5,
      "velocity": 0.54,
      "role": "chord",
      "is_tied": false
    },
    {
      "midi": 67,
      "name": "G4",
      "start": 175.7463,
      "duration": 0.2239,
      "bar": 50,
      "beat": 1.25,
      "duration_beats": 0.25,
      "velocity": 0.47,
      "role": "melody",
      "is_tied": false
    },
    {
      "midi": 71,
      "name": "B4",
      "start": 176.194,
      "duration": 0.4478,
      "bar": 50,
      "beat": 1.75,
      "duration_beats": 0.5,
      "velocity": 0.34,
      "role": "melody",
      "is_tied": false
    },
    {
      "midi": 52,
      "name": "E3",
      "start": 176.194,
      "duration": 0.4478,
      "bar": 50,
      "beat": 1.75,
      "duration_beats": 0.5,
      "velocity": 0.54,
      "role": "chord",
      "is_tied": false
    },
    {
      "midi": 64,
      "name": "E4",
      "start": 176.4179,
      "duration": 0.2239,
      "bar": 50,
      "beat": 2.0,
      "duration_beats": 0.25,
      "velocity": 1.0,
      "role": "melody",
      "is_tied": false
    },
    {
      "midi": 60,
      "name": "C4",
      "start": 176.4179,
      "duration": 0.2239,
      "bar": 50,
      "beat": 2.0,
      "duration_beats": 0.25,
      "velocity": 0.46,
      "role": "chord",
      "is_tied": true
    },
    {
      "midi": 59,
      "name": "B3",
      "start": 176.4179,
      "duration": 0.2239,
      "bar": 50,
      "beat": 2.0,
      "duration_beats": 0.25,
      "velocity": 0.37,
      "role": "chord",
      "is_tied": false
    },
    {
      "midi": 81,
      "name": "A5",
      "start": 176.6418,
      "duration": 0.4478,
      "bar": 50,
      "beat": 2.25,
      "duration_beats": 0.5,
      "velocity": 0.82,
      "role": "melody",
      "is_tied": false
    },
    {
      "midi": 78,
      "name": "F#5",
      "start": 176.6418,
      "duration": 0.2239,
      "bar": 50,
      "beat": 2.25,
      "duration_beats": 0.25,
      "velocity": 1.0,
      "role": "melody",
      "is_tied": false
    },
    {
      "midi": 60,
      "name": "C4",
      "start": 176.6418,
      "duration": 0.2239,
      "bar": 50,
      "beat": 2.25,
      "duration_beats": 0.25,
      "velocity": 0.49,
      "role": "chord",
      "is_tied": false
    },
    {
      "midi": 55,
      "name": "G3",
      "start": 176.6418,
      "duration": 0.6716,
      "bar": 50,
      "beat": 2.25,
      "duration_beats": 0.75,
      "velocity": 0.74,
      "role": "chord",
      "is_tied": false
    },
    {
      "midi": 52,
      "name": "E3",
      "start": 176.6418,
      "duration": 0.4478,
      "bar": 50,
      "beat": 2.25,
      "duration_beats": 0.5,
      "velocity": 0.81,
      "role": "chord",
      "is_tied": false
    },
    {
      "midi": 83,
      "name": "B5",
      "start": 176.8657,
      "duration": 0.8955,
      "bar": 50,
      "beat": 2.5,
      "duration_beats": 1.0,
      "velocity": 1.0,
      "role": "melody",
      "is_tied": false
    },
    {
      "midi": 50,
      "name": "D3",
      "start": 176.8657,
      "duration": 0.4478,
      "bar": 50,
      "beat": 2.5,
      "duration_beats": 0.5,
      "velocity": 0.64,
      "role": "chord",
      "is_tied": false
    },
    {
      "midi": 48,
      "name": "C3",
      "start": 176.8657,
      "duration": 0.2239,
      "bar": 50,
      "beat": 2.5,
      "duration_beats": 0.25,
      "velocity": 0.44,
      "role": "chord",
      "is_tied": false
    },
    {
      "midi": 41,
      "name": "F2",
      "start": 176.8657,
      "duration": 0.6716,
      "bar": 50,
      "beat": 2.5,
      "duration_beats": 0.75,
      "velocity": 1.0,
      "role": "bass",
      "is_tied": false
    },
    {
      "midi": 60,
      "name": "C4",
      "start": 177.0896,
      "duration": 0.4478,
      "bar": 50,
      "beat": 2.75,
      "duration_beats": 0.5,
      "velocity": 0.6,
      "role": "chord",
      "is_tied": false
    },
    {
      "midi": 82,
      "name": "A#5",
      "start": 177.3134,
      "duration": 0.2239,
      "bar": 50,
      "beat": 3.0,
      "duration_beats": 0.25,
      "velocity": 0.35,
      "role": "melody",
      "is_tied": false
    },
    {
      "midi": 83,
      "name": "B5",
      "start": 177.5373,
      "duration": 0.2239,
      "bar": 50,
      "beat": 3.25,
      "duration_beats": 0.25,
      "velocity": 1.0,
      "role": "melody",
      "is_tied": false
    },
    {
      "midi": 81,
      "name": "A5",
      "start": 177.5373,
      "duration": 0.2239,
      "bar": 50,
      "beat": 3.25,
      "duration_beats": 0.25,
      "velocity": 0.75,
      "role": "melody",
      "is_tied": false
    },
    {
      "midi": 50,
      "name": "D3",
      "start": 177.5373,
      "duration": 0.2239,
      "bar": 50,
      "beat": 3.25,
      "duration_beats": 0.25,
      "velocity": 0.38,
      "role": "chord",
      "is_tied": false
    },
    {
      "midi": 43,
      "name": "G2",
      "start": 177.5373,
      "duration": 0.4478,
      "bar": 50,
      "beat": 3.25,
      "duration_beats": 0.5,
      "velocity": 0.73,
      "role": "bass",
      "is_tied": false
    },
    {
      "midi": 69,
      "name": "A4",
      "start": 177.9851,
      "duration": 0.2239,
      "bar": 50,
      "beat": 3.75,
      "duration_beats": 0.25,
      "velocity": 0.51,
      "role": "melody",
      "is_tied": false
    },
    {
      "midi": 44,
      "name": "G#2",
      "start": 177.9851,
      "duration": 0.8955,
      "bar": 50,
      "beat": 3.75,
      "duration_beats": 1.0,
      "velocity": 1.0,
      "role": "bass",
      "is_tied": false
    },
    {
      "midi": 72,
      "name": "C5",
      "start": 178.209,
      "duration": 0.2239,
      "bar": 50,
      "beat": 4.0,
      "duration_beats": 0.25,
      "velocity": 0.38,
      "role": "melody",
      "is_tied": false
    },
    {
      "midi": 60,
      "name": "C4",
      "start": 178.209,
      "duration": 0.6716,
      "bar": 50,
      "beat": 4.0,
      "duration_beats": 0.75,
      "velocity": 0.65,
      "role": "chord",
      "is_tied": false
    },
    {
      "midi": 54,
      "name": "F#3",
      "start": 178.209,
      "duration": 1.791,
      "bar": 50,
      "beat": 4.0,
      "duration_beats": 2.0,
      "velocity": 0.86,
      "role": "bass",
      "is_tied": false
    },
    {
      "midi": 84,
      "name": "C6",
      "start": 178.4328,
      "duration": 0.2239,
      "bar": 50,
      "beat": 4.25,
      "duration_beats": 0.25,
      "velocity": 1.0,
      "role": "melody",
      "is_tied": false
    },
    {
      "midi": 48,
      "name": "C3",
      "start": 178.4328,
      "duration": 0.4478,
      "bar": 50,
      "beat": 4.25,
      "duration_beats": 0.5,
      "velocity": 0.33,
      "role": "chord",
      "is_tied": false
    },
    {
      "midi": 81,
      "name": "A5",
      "start": 178.6567,
      "duration": 0.2239,
      "bar": 50,
      "beat": 4.5,
      "duration_beats": 0.25,
      "velocity": 1.0,
      "role": "melody",
      "is_tied": false
    },
    {
      "midi": 56,
      "name": "G#3",
      "start": 178.6567,
      "duration": 0.2239,
      "bar": 50,
      "beat": 4.5,
      "duration_beats": 0.25,
      "velocity": 0.31,
      "role": "chord",
      "is_tied": true
    },
    {
      "midi": 74,
      "name": "D5",
      "start": 178.8806,
      "duration": 0.2239,
      "bar": 50,
      "beat": 4.75,
      "duration_beats": 0.25,
      "velocity": 1.0,
      "role": "melody",
      "is_tied": false
    },
    {
      "midi": 43,
      "name": "G2",
      "start": 178.8806,
      "duration": 0.8955,
      "bar": 50,
      "beat": 4.75,
      "duration_beats": 1.0,
      "velocity": 1.0,
      "role": "bass",
      "is_tied": false
    },
    {
      "midi": 74,
      "name": "D5",
      "start": 179.1045,
      "duration": 0.2239,
      "bar": 51,
      "beat": 1.0,
      "duration_beats": 0.25,
      "velocity": 1.0,
      "role": "melody",
      "is_tied": false
    },
    {
      "midi": 67,
      "name": "G4",
      "start": 179.1045,
      "duration": 0.4478,
      "bar": 51,
      "beat": 1.0,
      "duration_beats": 0.5,
      "velocity": 0.41,
      "role": "chord",
      "is_tied": false
    },
    {
      "midi": 83,
      "name": "B5",
      "start": 179.3284,
      "duration": 0.6716,
      "bar": 51,
      "beat": 1.25,
      "duration_beats": 0.75,
      "velocity": 1.0,
      "role": "melody",
      "is_tied": false
    },
    {
      "midi": 78,
      "name": "F#5",
      "start": 179.5522,
      "duration": 0.4478,
      "bar": 51,
      "beat": 1.5,
      "duration_beats": 0.5,
      "velocity": 0.45,
      "role": "melody",
      "is_tied": false
    },
    {
      "midi": 59,
      "name": "B3",
      "start": 179.5522,
      "duration": 0.2239,
      "bar": 51,
      "beat": 1.5,
      "duration_beats": 0.25,
      "velocity": 0.49,
      "role": "chord",
      "is_tied": true
    },
    {
      "midi": 50,
      "name": "D3",
      "start": 179.5522,
      "duration": 0.2239,
      "bar": 51,
      "beat": 1.5,
      "duration_beats": 0.25,
      "velocity": 1.0,
      "role": "chord",
      "is_tied": true
    },
    {
      "midi": 65,
      "name": "F4",
      "start": 179.7761,
      "duration": 0.2239,
      "bar": 51,
      "beat": 1.75,
      "duration_beats": 0.25,
      "velocity": 1.0,
      "role": "chord",
      "is_tied": false
    },
    {
      "midi": 57,
      "name": "A3",
      "start": 179.7761,
      "duration": 0.2239,
      "bar": 51,
      "beat": 1.75,
      "duration_beats": 0.25,
      "velocity": 0.83,
      "role": "chord",
      "is_tied": false
    },
    {
      "midi": 83,
      "name": "B5",
      "start": 180.0,
      "duration": 0.4478,
      "bar": 51,
      "beat": 2.0,
      "duration_beats": 0.5,
      "velocity": 1.0,
      "role": "melody",
      "is_tied": false
    },
    {
      "midi": 60,
      "name": "C4",
      "start": 180.0,
      "duration": 0.6716,
      "bar": 51,
      "beat": 2.0,
      "duration_beats": 0.75,
      "velocity": 0.66,
      "role": "chord",
      "is_tied": false
    },
    {
      "midi": 57,
      "name": "A3",
      "start": 180.0,
      "duration": 0.6716,
      "bar": 51,
      "beat": 2.0,
      "duration_beats": 0.75,
      "velocity": 0.77,
      "role": "chord",
      "is_tied": false
    },
    {
      "midi": 53,
      "name": "F3",
      "start": 180.0,
      "duration": 1.3433,
      "bar": 51,
      "beat": 2.0,
      "duration_beats": 1.5,
      "velocity": 0.73,
      "role": "chord",
      "is_tied": false
    },
    {
      "midi": 74,
      "name": "D5",
      "start": 180.4478,
      "duration": 1.3433,
      "bar": 51,
      "beat": 2.5,
      "duration_beats": 1.5,
      "velocity": 0.92,
      "role": "melody",
      "is_tied": false
    },
    {
      "midi": 70,
      "name": "A#4",
      "start": 180.4478,
      "duration": 0.4478,
      "bar": 51,
      "beat": 2.5,
      "duration_beats": 0.5,
      "velocity": 0.47,
      "role": "chord",
      "is_tied": false
    },
    {
      "midi": 69,
      "name": "A4",
      "start": 180.4478,
      "duration": 0.4478,
      "bar": 51,
      "beat": 2.5,
      "duration_beats": 0.5,
      "velocity": 0.96,
      "role": "chord",
      "is_tied": false
    },
    {
      "midi": 41,
      "name": "F2",
      "start": 180.4478,
      "duration": 0.2239,
      "bar": 51,
      "beat": 2.5,
      "duration_beats": 0.25,
      "velocity": 1.0,
      "role": "bass",
      "is_tied": true
    },
    {
      "midi": 50,
      "name": "D3",
      "start": 180.6716,
      "duration": 0.8955,
      "bar": 51,
      "beat": 2.75,
      "duration_beats": 1.0,
      "velocity": 0.41,
      "role": "chord",
      "is_tied": false
    },
    {
      "midi": 83,
      "name": "B5",
      "start": 180.8955,
      "duration": 0.4478,
      "bar": 51,
      "beat": 3.0,
      "duration_beats": 0.5,
      "velocity": 1.0,
      "role": "melody",
      "is_tied": false
    },
    {
      "midi": 41,
      "name": "F2",
      "start": 180.8955,
      "duration": 0.4478,
      "bar": 51,
      "beat": 3.0,
      "duration_beats": 0.5,
      "velocity": 1.0,
      "role": "bass",
      "is_tied": false
    },
    {
      "midi": 40,
      "name": "E2",
      "start": 181.1194,
      "duration": 0.4478,
      "bar": 51,
      "beat": 3.25,
      "duration_beats": 0.5,
      "velocity": 1.0,
      "role": "bass",
      "is_tied": false
    },
    {
      "midi": 70,
      "name": "A#4",
      "start": 181.5672,
      "duration": 0.2239,
      "bar": 51,
      "beat": 3.75,
      "duration_beats": 0.25,
      "velocity": 0.87,
      "role": "chord",
      "is_tied": false
    },
    {
      "midi": 55,
      "name": "G3",
      "start": 181.5672,
      "duration": 0.2239,
      "bar": 51,
      "beat": 3.75,
      "duration_beats": 0.25,
      "velocity": 0.44,
      "role": "chord",
      "is_tied": false
    },
    {
      "midi": 54,
      "name": "F#3",
      "start": 181.5672,
      "duration": 0.2239,
      "bar": 51,
      "beat": 3.75,
      "duration_beats": 0.25,
      "velocity": 0.67,
      "role": "chord",
      "is_tied": false
    },
    {
      "midi": 50,
      "name": "D3",
      "start": 181.5672,
      "duration": 0.2239,
      "bar": 51,
      "beat": 3.75,
      "duration_beats": 0.25,
      "velocity": 0.89,
      "role": "chord",
      "is_tied": true
    },
    {
      "midi": 83,
      "name": "B5",
      "start": 181.791,
      "duration": 0.2239,
      "bar": 51,
      "beat": 4.0,
      "duration_beats": 0.25,
      "velocity": 1.0,
      "role": "melody",
      "is_tied": false
    },
    {
      "midi": 59,
      "name": "B3",
      "start": 181.791,
      "duration": 0.2239,
      "bar": 51,
      "beat": 4.0,
      "duration_beats": 0.25,
      "velocity": 0.34,
      "role": "chord",
      "is_tied": false
    },
    {
      "midi": 55,
      "name": "G3",
      "start": 181.791,
      "duration": 0.2239,
      "bar": 51,
      "beat": 4.0,
      "duration_beats": 0.25,
      "velocity": 0.44,
      "role": "chord",
      "is_tied": false
    },
    {
      "midi": 54,
      "name": "F#3",
      "start": 181.791,
      "duration": 0.6716,
      "bar": 51,
      "beat": 4.0,
      "duration_beats": 0.75,
      "velocity": 0.43,
      "role": "bass",
      "is_tied": false
    },
    {
      "midi": 50,
      "name": "D3",
      "start": 181.791,
      "duration": 0.6716,
      "bar": 51,
      "beat": 4.0,
      "duration_beats": 0.75,
      "velocity": 0.89,
      "role": "chord",
      "is_tied": false
    },
    {
      "midi": 69,
      "name": "A4",
      "start": 182.0149,
      "duration": 0.4478,
      "bar": 51,
      "beat": 4.25,
      "duration_beats": 0.5,
      "velocity": 1.0,
      "role": "melody",
      "is_tied": false
    },
    {
      "midi": 52,
      "name": "E3",
      "start": 182.0149,
      "duration": 0.4478,
      "bar": 51,
      "beat": 4.25,
      "duration_beats": 0.5,
      "velocity": 0.52,
      "role": "chord",
      "is_tied": false
    },
    {
      "midi": 69,
      "name": "A4",
      "start": 182.2388,
      "duration": 0.2239,
      "bar": 51,
      "beat": 4.5,
      "duration_beats": 0.25,
      "velocity": 0.52,
      "role": "melody",
      "is_tied": false
    },
    {
      "midi": 52,
      "name": "E3",
      "start": 182.2388,
      "duration": 0.2239,
      "bar": 51,
      "beat": 4.5,
      "duration_beats": 0.25,
      "velocity": 0.52,
      "role": "chord",
      "is_tied": false
    },
    {
      "midi": 50,
      "name": "D3",
      "start": 182.2388,
      "duration": 0.2239,
      "bar": 51,
      "beat": 4.5,
      "duration_beats": 0.25,
      "velocity": 0.89,
      "role": "chord",
      "is_tied": false
    },
    {
      "midi": 43,
      "name": "G2",
      "start": 182.2388,
      "duration": 0.2239,
      "bar": 51,
      "beat": 4.5,
      "duration_beats": 0.25,
      "velocity": 1.0,
      "role": "bass",
      "is_tied": false
    },
    {
      "midi": 74,
      "name": "D5",
      "start": 182.4627,
      "duration": 0.2239,
      "bar": 51,
      "beat": 4.75,
      "duration_beats": 0.25,
      "velocity": 0.64,
      "role": "melody",
      "is_tied": false
    },
    {
      "midi": 74,
      "name": "D5",
      "start": 182.6866,
      "duration": 0.2239,
      "bar": 52,
      "beat": 1.0,
      "duration_beats": 0.25,
      "velocity": 0.61,
      "role": "melody",
      "is_tied": false
    },
    {
      "midi": 58,
      "name": "A#3",
      "start": 182.6866,
      "duration": 0.4478,
      "bar": 52,
      "beat": 1.0,
      "duration_beats": 0.5,
      "velocity": 0.97,
      "role": "chord",
      "is_tied": false
    },
    {
      "midi": 50,
      "name": "D3",
      "start": 182.6866,
      "duration": 0.2239,
      "bar": 52,
      "beat": 1.0,
      "duration_beats": 0.25,
      "velocity": 0.65,
      "role": "chord",
      "is_tied": false
    },
    {
      "midi": 69,
      "name": "A4",
      "start": 182.9104,
      "duration": 0.2239,
      "bar": 52,
      "beat": 1.25,
      "duration_beats": 0.25,
      "velocity": 0.54,
      "role": "melody",
      "is_tied": false
    },
    {
      "midi": 67,
      "name": "G4",
      "start": 183.1343,
      "duration": 0.2239,
      "bar": 52,
      "beat": 1.5,
      "duration_beats": 0.25,
      "velocity": 0.84,
      "role": "melody",
      "is_tied": false
    },
    {
      "midi": 41,
      "name": "F2",
      "start": 183.1343,
      "duration": 0.2239,
      "bar": 52,
      "beat": 1.5,
      "duration_beats": 0.25,
      "velocity": 0.73,
      "role": "bass",
      "is_tied": false
    },
    {
      "midi": 70,
      "name": "A#4",
      "start": 183.3582,
      "duration": 0.4478,
      "bar": 52,
      "beat": 1.75,
      "duration_beats": 0.5,
      "velocity": 0.6,
      "role": "chord",
      "is_tied": false
    },
    {
      "midi": 69,
      "name": "A4",
      "start": 183.3582,
      "duration": 0.2239,
      "bar": 52,
      "beat": 1.75,
      "duration_beats": 0.25,
      "velocity": 0.54,
      "role": "melody",
      "is_tied": false
    },
    {
      "midi": 67,
      "name": "G4",
      "start": 183.3582,
      "duration": 0.2239,
      "bar": 52,
      "beat": 1.75,
      "duration_beats": 0.25,
      "velocity": 0.72,
      "role": "melody",
      "is_tied": false
    },
    {
      "midi": 50,
      "name": "D3",
      "start": 183.3582,
      "duration": 0.2239,
      "bar": 52,
      "beat": 1.75,
      "duration_beats": 0.25,
      "velocity": 0.72,
      "role": "chord",
      "is_tied": false
    },
    {
      "midi": 41,
      "name": "F2",
      "start": 183.3582,
      "duration": 0.2239,
      "bar": 52,
      "beat": 1.75,
      "duration_beats": 0.25,
      "velocity": 0.81,
      "role": "bass",
      "is_tied": false
    },
    {
      "midi": 74,
      "name": "D5",
      "start": 183.5821,
      "duration": 0.4478,
      "bar": 52,
      "beat": 2.0,
      "duration_beats": 0.5,
      "velocity": 0.86,
      "role": "melody",
      "is_tied": false
    },
    {
      "midi": 68,
      "name": "G#4",
      "start": 183.5821,
      "duration": 0.2239,
      "bar": 52,
      "beat": 2.0,
      "duration_beats": 0.25,
      "velocity": 1.0,
      "role": "melody",
      "is_tied": false
    },
    {
      "midi": 64,
      "name": "E4",
      "start": 183.5821,
      "duration": 0.2239,
      "bar": 52,
      "beat": 2.0,
      "duration_beats": 0.25,
      "velocity": 0.51,
      "role": "chord",
      "is_tied": false
    },
    {
      "midi": 34,
      "name": "A#1",
      "start": 183.5821,
      "duration": 0.4478,
      "bar": 52,
      "beat": 2.0,
      "duration_beats": 0.5,
      "velocity": 0.5,
      "role": "bass",
      "is_tied": false
    },
    {
      "midi": 46,
      "name": "A#2",
      "start": 183.806,
      "duration": 0.2239,
      "bar": 52,
      "beat": 2.25,
      "duration_beats": 0.25,
      "velocity": 1.0,
      "role": "bass",
      "is_tied": true
    },
    {
      "midi": 74,
      "name": "D5",
      "start": 184.0299,
      "duration": 0.2239,
      "bar": 52,
      "beat": 2.5,
      "duration_beats": 0.25,
      "velocity": 1.0,
      "role": "melody",
      "is_tied": false
    },
    {
      "midi": 48,
      "name": "C3",
      "start": 184.0299,
      "duration": 0.2239,
      "bar": 52,
      "beat": 2.5,
      "duration_beats": 0.25,
      "velocity": 0.51,
      "role": "chord",
      "is_tied": false
    },
    {
      "midi": 74,
      "name": "D5",
      "start": 184.2537,
      "duration": 0.2239,
      "bar": 52,
      "beat": 2.75,
      "duration_beats": 0.25,
      "velocity": 0.9,
      "role": "melody",
      "is_tied": false
    },
    {
      "midi": 48,
      "name": "C3",
      "start": 184.2537,
      "duration": 0.2239,
      "bar": 52,
      "beat": 2.75,
      "duration_beats": 0.25,
      "velocity": 0.51,
      "role": "chord",
      "is_tied": false
    },
    {
      "midi": 74,
      "name": "D5",
      "start": 184.4776,
      "duration": 0.6716,
      "bar": 52,
      "beat": 3.0,
      "duration_beats": 0.75,
      "velocity": 1.0,
      "role": "melody",
      "is_tied": false
    },
    {
      "midi": 60,
      "name": "C4",
      "start": 184.4776,
      "duration": 0.2239,
      "bar": 52,
      "beat": 3.0,
      "duration_beats": 0.25,
      "velocity": 0.64,
      "role": "chord",
      "is_tied": false
    },
    {
      "midi": 53,
      "name": "F3",
      "start": 184.4776,
      "duration": 0.2239,
      "bar": 52,
      "beat": 3.0,
      "duration_beats": 0.25,
      "velocity": 0.64,
      "role": "chord",
      "is_tied": false
    },
    {
      "midi": 76,
      "name": "E5",
      "start": 184.7015,
      "duration": 0.2239,
      "bar": 52,
      "beat": 3.25,
      "duration_beats": 0.25,
      "velocity": 0.65,
      "role": "melody",
      "is_tied": false
    },
    {
      "midi": 50,
      "name": "D3",
      "start": 184.7015,
      "duration": 0.2239,
      "bar": 52,
      "beat": 3.25,
      "duration_beats": 0.25,
      "velocity": 0.92,
      "role": "chord",
      "is_tied": false
    },
    {
      "midi": 41,
      "name": "F2",
      "start": 184.7015,
      "duration": 0.2239,
      "bar": 52,
      "beat": 3.25,
      "duration_beats": 0.25,
      "velocity": 0.94,
      "role": "bass",
      "is_tied": false
    },
    {
      "midi": 76,
      "name": "E5",
      "start": 184.9254,
      "duration": 0.2239,
      "bar": 52,
      "beat": 3.5,
      "duration_beats": 0.25,
      "velocity": 0.65,
      "role": "melody",
      "is_tied": true
    },
    {
      "midi": 50,
      "name": "D3",
      "start": 184.9254,
      "duration": 0.2239,
      "bar": 52,
      "beat": 3.5,
      "duration_beats": 0.25,
      "velocity": 0.87,
      "role": "chord",
      "is_tied": true
    },
    {
      "midi": 41,
      "name": "F2",
      "start": 184.9254,
      "duration": 0.2239,
      "bar": 52,
      "beat": 3.5,
      "duration_beats": 0.25,
      "velocity": 1.0,
      "role": "bass",
      "is_tied": true
    },
    {
      "midi": 79,
      "name": "G5",
      "start": 185.3731,
      "duration": 0.4478,
      "bar": 52,
      "beat": 4.0,
      "duration_beats": 0.5,
      "velocity": 0.36,
      "role": "melody",
      "is_tied": false
    },
    {
      "midi": 67,
      "name": "G4",
      "start": 185.3731,
      "duration": 0.4478,
      "bar": 52,
      "beat": 4.0,
      "duration_beats": 0.5,
      "velocity": 0.83,
      "role": "chord",
      "is_tied": false
    },
    {
      "midi": 62,
      "name": "D4",
      "start": 185.3731,
      "duration": 0.8955,
      "bar": 52,
      "beat": 4.0,
      "duration_beats": 1.0,
      "velocity": 1.0,
      "role": "chord",
      "is_tied": false
    },
    {
      "midi": 58,
      "name": "A#3",
      "start": 185.3731,
      "duration": 0.4478,
      "bar": 52,
      "beat": 4.0,
      "duration_beats": 0.5,
      "velocity": 1.0,
      "role": "chord",
      "is_tied": false
    },
    {
      "midi": 60,
      "name": "C4",
      "start": 185.8209,
      "duration": 0.4478,
      "bar": 52,
      "beat": 4.5,
      "duration_beats": 0.5,
      "velocity": 0.86,
      "role": "chord",
      "is_tied": false
    },
    {
      "midi": 55,
      "name": "G3",
      "start": 185.8209,
      "duration": 0.4478,
      "bar": 52,
      "beat": 4.5,
      "duration_beats": 0.5,
      "velocity": 0.65,
      "role": "chord",
      "is_tied": false
    },
    {
      "midi": 72,
      "name": "C5",
      "start": 186.0448,
      "duration": 0.2239,
      "bar": 52,
      "beat": 4.75,
      "duration_beats": 0.25,
      "velocity": 0.63,
      "role": "melody",
      "is_tied": false
    },
    {
      "midi": 40,
      "name": "E2",
      "start": 186.0448,
      "duration": 0.2239,
      "bar": 52,
      "beat": 4.75,
      "duration_beats": 0.25,
      "velocity": 1.0,
      "role": "bass",
      "is_tied": false
    },
    {
      "midi": 50,
      "name": "D3",
      "start": 186.2687,
      "duration": 0.2239,
      "bar": 53,
      "beat": 1.0,
      "duration_beats": 0.25,
      "velocity": 0.54,
      "role": "chord",
      "is_tied": false
    },
    {
      "midi": 45,
      "name": "A2",
      "start": 186.2687,
      "duration": 0.2239,
      "bar": 53,
      "beat": 1.0,
      "duration_beats": 0.25,
      "velocity": 1.0,
      "role": "bass",
      "is_tied": false
    },
    {
      "midi": 74,
      "name": "D5",
      "start": 186.4925,
      "duration": 0.2239,
      "bar": 53,
      "beat": 1.25,
      "duration_beats": 0.25,
      "velocity": 0.63,
      "role": "melody",
      "is_tied": false
    },
    {
      "midi": 38,
      "name": "D2",
      "start": 186.4925,
      "duration": 0.4478,
      "bar": 53,
      "beat": 1.25,
      "duration_beats": 0.5,
      "velocity": 0.66,
      "role": "bass",
      "is_tied": false
    },
    {
      "midi": 73,
      "name": "C#5",
      "start": 186.7164,
      "duration": 0.2239,
      "bar": 53,
      "beat": 1.5,
      "duration_beats": 0.25,
      "velocity": 0.35,
      "role": "melody",
      "is_tied": false
    },
    {
      "midi": 66,
      "name": "F#4",
      "start": 186.7164,
      "duration": 0.2239,
      "bar": 53,
      "beat": 1.5,
      "duration_beats": 0.25,
      "velocity": 0.31,
      "role": "melody",
      "is_tied": false
    },
    {
      "midi": 79,
      "name": "G5",
      "start": 187.1642,
      "duration": 0.6716,
      "bar": 53,
      "beat": 2.0,
      "duration_beats": 0.75,
      "velocity": 0.31,
      "role": "melody",
      "is_tied": false
    },
    {
      "midi": 52,
      "name": "E3",
      "start": 187.1642,
      "duration": 0.6716,
      "bar": 53,
      "beat": 2.0,
      "duration_beats": 0.75,
      "velocity": 0.48,
      "role": "chord",
      "is_tied": false
    },
    {
      "midi": 45,
      "name": "A2",
      "start": 187.1642,
      "duration": 0.6716,
      "bar": 53,
      "beat": 2.0,
      "duration_beats": 0.75,
      "velocity": 1.0,
      "role": "bass",
      "is_tied": false
    },
    {
      "midi": 79,
      "name": "G5",
      "start": 187.3881,
      "duration": 0.4478,
      "bar": 53,
      "beat": 2.25,
      "duration_beats": 0.5,
      "velocity": 0.31,
      "role": "melody",
      "is_tied": false
    },
    {
      "midi": 52,
      "name": "E3",
      "start": 187.3881,
      "duration": 0.4478,
      "bar": 53,
      "beat": 2.25,
      "duration_beats": 0.5,
      "velocity": 0.66,
      "role": "chord",
      "is_tied": false
    },
    {
      "midi": 78,
      "name": "F#5",
      "start": 187.6119,
      "duration": 0.2239,
      "bar": 53,
      "beat": 2.5,
      "duration_beats": 0.25,
      "velocity": 1.0,
      "role": "melody",
      "is_tied": false
    },
    {
      "midi": 49,
      "name": "C#3",
      "start": 187.6119,
      "duration": 0.2239,
      "bar": 53,
      "beat": 2.5,
      "duration_beats": 0.25,
      "velocity": 0.4,
      "role": "chord",
      "is_tied": false
    },
    {
      "midi": 40,
      "name": "E2",
      "start": 187.6119,
      "duration": 0.2239,
      "bar": 53,
      "beat": 2.5,
      "duration_beats": 0.25,
      "velocity": 0.7,
      "role": "bass",
      "is_tied": false
    },
    {
      "midi": 82,
      "name": "A#5",
      "start": 187.8358,
      "duration": 0.2239,
      "bar": 53,
      "beat": 2.75,
      "duration_beats": 0.25,
      "velocity": 1.0,
      "role": "melody",
      "is_tied": false
    },
    {
      "midi": 57,
      "name": "A3",
      "start": 187.8358,
      "duration": 0.6716,
      "bar": 53,
      "beat": 2.75,
      "duration_beats": 0.75,
      "velocity": 0.36,
      "role": "chord",
      "is_tied": false
    },
    {
      "midi": 54,
      "name": "F#3",
      "start": 187.8358,
      "duration": 0.4478,
      "bar": 53,
      "beat": 2.75,
      "duration_beats": 0.5,
      "velocity": 0.66,
      "role": "chord",
      "is_tied": false
    },
    {
      "midi": 49,
      "name": "C#3",
      "start": 187.8358,
      "duration": 0.2239,
      "bar": 53,
      "beat": 2.75,
      "duration_beats": 0.25,
      "velocity": 0.31,
      "role": "chord",
      "is_tied": false
    },
    {
      "midi": 50,
      "name": "D3",
      "start": 188.0597,
      "duration": 0.2239,
      "bar": 53,
      "beat": 3.0,
      "duration_beats": 0.25,
      "velocity": 0.32,
      "role": "chord",
      "is_tied": false
    },
    {
      "midi": 40,
      "name": "E2",
      "start": 188.0597,
      "duration": 0.4478,
      "bar": 53,
      "beat": 3.0,
      "duration_beats": 0.5,
      "velocity": 0.71,
      "role": "bass",
      "is_tied": false
    },
    {
      "midi": 42,
      "name": "F#2",
      "start": 188.2836,
      "duration": 0.2239,
      "bar": 53,
      "beat": 3.25,
      "duration_beats": 0.25,
      "velocity": 1.0,
      "role": "bass",
      "is_tied": false
    },
    {
      "midi": 79,
      "name": "G5",
      "start": 188.5075,
      "duration": 0.2239,
      "bar": 53,
      "beat": 3.5,
      "duration_beats": 0.25,
      "velocity": 0.72,
      "role": "melody",
      "is_tied": true
    },
    {
      "midi": 78,
      "name": "F#5",
      "start": 188.5075,
      "duration": 0.2239,
      "bar": 53,
      "beat": 3.5,
      "duration_beats": 0.25,
      "velocity": 0.48,
      "role": "melody",
      "is_tied": false
    },
    {
      "midi": 50,
      "name": "D3",
      "start": 188.5075,
      "duration": 0.2239,
      "bar": 53,
      "beat": 3.5,
      "duration_beats": 0.25,
      "velocity": 0.62,
      "role": "chord",
      "is_tied": false
    },
    {
      "midi": 78,
      "name": "F#5",
      "start": 188.7313,
      "duration": 0.2239,
      "bar": 53,
      "beat": 3.75,
      "duration_beats": 0.25,
      "velocity": 0.7,
      "role": "melody",
      "is_tied": false
    },
    {
      "midi": 57,
      "name": "A3",
      "start": 188.7313,
      "duration": 0.2239,
      "bar": 53,
      "beat": 3.75,
      "duration_beats": 0.25,
      "velocity": 0.78,
      "role": "chord",
      "is_tied": false
    },
    {
      "midi": 52,
      "name": "E3",
      "start": 188.7313,
      "duration": 0.2239,
      "bar": 53,
      "beat": 3.75,
      "duration_beats": 0.25,
      "velocity": 0.45,
      "role": "chord",
      "is_tied": false
    },
    {
      "midi": 50,
      "name": "D3",
      "start": 188.7313,
      "duration": 0.2239,
      "bar": 53,
      "beat": 3.75,
      "duration_beats": 0.25,
      "velocity": 0.32,
      "role": "chord",
      "is_tied": false
    },
    {
      "midi": 78,
      "name": "F#5",
      "start": 188.9552,
      "duration": 0.2239,
      "bar": 53,
      "beat": 4.0,
      "duration_beats": 0.25,
      "velocity": 0.65,
      "role": "melody",
      "is_tied": false
    },
    {
      "midi": 61,
      "name": "C#4",
      "start": 188.9552,
      "duration": 0.2239,
      "bar": 53,
      "beat": 4.0,
      "duration_beats": 0.25,
      "velocity": 0.65,
      "role": "chord",
      "is_tied": false
    },
    {
      "midi": 57,
      "name": "A3",
      "start": 188.9552,
      "duration": 0.2239,
      "bar": 53,
      "beat": 4.0,
      "duration_beats": 0.25,
      "velocity": 0.78,
      "role": "chord",
      "is_tied": false
    },
    {
      "midi": 52,
      "name": "E3",
      "start": 188.9552,
      "duration": 0.2239,
      "bar": 53,
      "beat": 4.0,
      "duration_beats": 0.25,
      "velocity": 0.37,
      "role": "chord",
      "is_tied": false
    },
    {
      "midi": 74,
      "name": "D5",
      "start": 189.1791,
      "duration": 0.2239,
      "bar": 53,
      "beat": 4.25,
      "duration_beats": 0.25,
      "velocity": 1.0,
      "role": "melody",
      "is_tied": false
    },
    {
      "midi": 58,
      "name": "A#3",
      "start": 189.1791,
      "duration": 0.2239,
      "bar": 53,
      "beat": 4.25,
      "duration_beats": 0.25,
      "velocity": 0.67,
      "role": "chord",
      "is_tied": false
    },
    {
      "midi": 74,
      "name": "D5",
      "start": 189.403,
      "duration": 0.2239,
      "bar": 53,
      "beat": 4.5,
      "duration_beats": 0.25,
      "velocity": 1.0,
      "role": "melody",
      "is_tied": false
    },
    {
      "midi": 50,
      "name": "D3",
      "start": 189.403,
      "duration": 0.2239,
      "bar": 53,
      "beat": 4.5,
      "duration_beats": 0.25,
      "velocity": 0.79,
      "role": "chord",
      "is_tied": false
    },
    {
      "midi": 74,
      "name": "D5",
      "start": 189.6269,
      "duration": 0.4478,
      "bar": 53,
      "beat": 4.75,
      "duration_beats": 0.5,
      "velocity": 0.94,
      "role": "melody",
      "is_tied": false
    },
    {
      "midi": 68,
      "name": "G#4",
      "start": 189.6269,
      "duration": 0.2239,
      "bar": 53,
      "beat": 4.75,
      "duration_beats": 0.25,
      "velocity": 0.72,
      "role": "chord",
      "is_tied": false
    },
    {
      "midi": 50,
      "name": "D3",
      "start": 189.6269,
      "duration": 0.2239,
      "bar": 53,
      "beat": 4.75,
      "duration_beats": 0.25,
      "velocity": 0.79,
      "role": "chord",
      "is_tied": false
    },
    {
      "midi": 47,
      "name": "B2",
      "start": 189.6269,
      "duration": 0.2239,
      "bar": 53,
      "beat": 4.75,
      "duration_beats": 0.25,
      "velocity": 1.0,
      "role": "bass",
      "is_tied": false
    },
    {
      "midi": 74,
      "name": "D5",
      "start": 189.8507,
      "duration": 0.2239,
      "bar": 54,
      "beat": 1.0,
      "duration_beats": 0.25,
      "velocity": 0.88,
      "role": "melody",
      "is_tied": false
    },
    {
      "midi": 73,
      "name": "C#5",
      "start": 189.8507,
      "duration": 0.2239,
      "bar": 54,
      "beat": 1.0,
      "duration_beats": 0.25,
      "velocity": 0.98,
      "role": "melody",
      "is_tied": false
    },
    {
      "midi": 67,
      "name": "G4",
      "start": 189.8507,
      "duration": 0.2239,
      "bar": 54,
      "beat": 1.0,
      "duration_beats": 0.25,
      "velocity": 1.0,
      "role": "chord",
      "is_tied": false
    },
    {
      "midi": 46,
      "name": "A#2",
      "start": 189.8507,
      "duration": 0.2239,
      "bar": 54,
      "beat": 1.0,
      "duration_beats": 0.25,
      "velocity": 1.0,
      "role": "bass",
      "is_tied": false
    },
    {
      "midi": 72,
      "name": "C5",
      "start": 190.2985,
      "duration": 0.2239,
      "bar": 54,
      "beat": 1.5,
      "duration_beats": 0.25,
      "velocity": 0.76,
      "role": "melody",
      "is_tied": false
    },
    {
      "midi": 71,
      "name": "B4",
      "start": 190.2985,
      "duration": 0.2239,
      "bar": 54,
      "beat": 1.5,
      "duration_beats": 0.25,
      "velocity": 0.78,
      "role": "melody",
      "is_tied": false
    },
    {
      "midi": 52,
      "name": "E3",
      "start": 190.2985,
      "duration": 0.2239,
      "bar": 54,
      "beat": 1.5,
      "duration_beats": 0.25,
      "velocity": 0.53,
      "role": "chord",
      "is_tied": false
    },
    {
      "midi": 48,
      "name": "C3",
      "start": 190.2985,
      "duration": 0.2239,
      "bar": 54,
      "beat": 1.5,
      "duration_beats": 0.25,
      "velocity": 0.59,
      "role": "chord",
      "is_tied": false
    },
    {
      "midi": 45,
      "name": "A2",
      "start": 190.2985,
      "duration": 0.2239,
      "bar": 54,
      "beat": 1.5,
      "duration_beats": 0.25,
      "velocity": 1.0,
      "role": "bass",
      "is_tied": false
    },
    {
      "midi": 74,
      "name": "D5",
      "start": 190.7463,
      "duration": 0.2239,
      "bar": 54,
      "beat": 2.0,
      "duration_beats": 0.25,
      "velocity": 0.41,
      "role": "melody",
      "is_tied": false
    },
    {
      "midi": 71,
      "name": "B4",
      "start": 190.7463,
      "duration": 0.2239,
      "bar": 54,
      "beat": 2.0,
      "duration_beats": 0.25,
      "velocity": 0.64,
      "role": "melody",
      "is_tied": false
    },
    {
      "midi": 52,
      "name": "E3",
      "start": 190.7463,
      "duration": 0.4478,
      "bar": 54,
      "beat": 2.0,
      "duration_beats": 0.5,
      "velocity": 0.54,
      "role": "chord",
      "is_tied": false
    },
    {
      "midi": 45,
      "name": "A2",
      "start": 190.7463,
      "duration": 0.4478,
      "bar": 54,
      "beat": 2.0,
      "duration_beats": 0.5,
      "velocity": 1.0,
      "role": "bass",
      "is_tied": false
    },
    {
      "midi": 83,
      "name": "B5",
      "start": 190.9701,
      "duration": 0.2239,
      "bar": 54,
      "beat": 2.25,
      "duration_beats": 0.25,
      "velocity": 1.0,
      "role": "melody",
      "is_tied": false
    },
    {
      "midi": 74,
      "name": "D5",
      "start": 191.4179,
      "duration": 0.2239,
      "bar": 54,
      "beat": 2.75,
      "duration_beats": 0.25,
      "velocity": 1.0,
      "role": "melody",
      "is_tied": false
    },
    {
      "midi": 60,
      "name": "C4",
      "start": 191.4179,
      "duration": 0.2239,
      "bar": 54,
      "beat": 2.75,
      "duration_beats": 0.25,
      "velocity": 0.6,
      "role": "chord",
      "is_tied": false
    },
    {
      "midi": 55,
      "name": "G3",
      "start": 191.4179,
      "duration": 0.2239,
      "bar": 54,
      "beat": 2.75,
      "duration_beats": 0.25,
      "velocity": 1.0,
      "role": "bass",
      "is_tied": false
    },
    {
      "midi": 52,
      "name": "E3",
      "start": 191.4179,
      "duration": 0.2239,
      "bar": 54,
      "beat": 2.75,
      "duration_beats": 0.25,
      "velocity": 0.61,
      "role": "chord",
      "is_tied": false
    },
    {
      "midi": 74,
      "name": "D5",
      "start": 191.6418,
      "duration": 0.2239,
      "bar": 54,
      "beat": 3.0,
      "duration_beats": 0.25,
      "velocity": 1.0,
      "role": "melody",
      "is_tied": false
    },
    {
      "midi": 73,
      "name": "C#5",
      "start": 191.6418,
      "duration": 0.2239,
      "bar": 54,
      "beat": 3.0,
      "duration_beats": 0.25,
      "velocity": 1.0,
      "role": "melody",
      "is_tied": false
    },
    {
      "midi": 60,
      "name": "C4",
      "start": 191.6418,
      "duration": 0.2239,
      "bar": 54,
      "beat": 3.0,
      "duration_beats": 0.25,
      "velocity": 0.4,
      "role": "chord",
      "is_tied": false
    },
    {
      "midi": 59,
      "name": "B3",
      "start": 191.6418,
      "duration": 0.2239,
      "bar": 54,
      "beat": 3.0,
      "duration_beats": 0.25,
      "velocity": 0.42,
      "role": "chord",
      "is_tied": true
    },
    {
      "midi": 72,
      "name": "C5",
      "start": 191.8657,
      "duration": 0.2239,
      "bar": 54,
      "beat": 3.25,
      "duration_beats": 0.25,
      "velocity": 1.0,
      "role": "melody",
      "is_tied": false
    },
    {
      "midi": 61,
      "name": "C#4",
      "start": 191.8657,
      "duration": 0.2239,
      "bar": 54,
      "beat": 3.25,
      "duration_beats": 0.25,
      "velocity": 0.79,
      "role": "chord",
      "is_tied": false
    },
    {
      "midi": 56,
      "name": "G#3",
      "start": 191.8657,
      "duration": 0.2239,
      "bar": 54,
      "beat": 3.25,
      "duration_beats": 0.25,
      "velocity": 0.49,
      "role": "chord",
      "is_tied": false
    },
    {
      "midi": 51,
      "name": "D#3",
      "start": 191.8657,
      "duration": 0.2239,
      "bar": 54,
      "beat": 3.25,
      "duration_beats": 0.25,
      "velocity": 1.0,
      "role": "bass",
      "is_tied": false
    },
    {
      "midi": 70,
      "name": "A#4",
      "start": 192.0896,
      "duration": 0.4478,
      "bar": 54,
      "beat": 3.5,
      "duration_beats": 0.5,
      "velocity": 0.82,
      "role": "melody",
      "is_tied": false
    },
    {
      "midi": 51,
      "name": "D#3",
      "start": 192.0896,
      "duration": 0.4478,
      "bar": 54,
      "beat": 3.5,
      "duration_beats": 0.5,
      "velocity": 1.0,
      "role": "bass",
      "is_tied": false
    },
    {
      "midi": 49,
      "name": "C#3",
      "start": 192.0896,
      "duration": 0.4478,
      "bar": 54,
      "beat": 3.5,
      "duration_beats": 0.5,
      "velocity": 0.43,
      "role": "chord",
      "is_tied": false
    },
    {
      "midi": 65,
      "name": "F4",
      "start": 192.5373,
      "duration": 0.2239,
      "bar": 54,
      "beat": 4.0,
      "duration_beats": 0.25,
      "velocity": 0.69,
      "role": "melody",
      "is_tied": false
    },
    {
      "midi": 58,
      "name": "A#3",
      "start": 192.5373,
      "duration": 0.2239,
      "bar": 54,
      "beat": 4.0,
      "duration_beats": 0.25,
      "velocity": 0.34,
      "role": "chord",
      "is_tied": false
    },
    {
      "midi": 72,
      "name": "C5",
      "start": 192.7612,
      "duration": 0.4478,
      "bar": 54,
      "beat": 4.25,
      "duration_beats": 0.5,
      "velocity": 1.0,
      "role": "melody",
      "is_tied": false
    },
    {
      "midi": 54,
      "name": "F#3",
      "start": 192.7612,
      "duration": 0.2239,
      "bar": 54,
      "beat": 4.25,
      "duration_beats": 0.25,
      "velocity": 0.59,
      "role": "chord",
      "is_tied": false
    },
    {
      "midi": 51,
      "name": "D#3",
      "start": 192.7612,
      "duration": 0.4478,
      "bar": 54,
      "beat": 4.25,
      "duration_beats": 0.5,
      "velocity": 0.8,
      "role": "chord",
      "is_tied": false
    },
    {
      "midi": 68,
      "name": "G#4",
      "start": 192.9851,
      "duration": 0.2239,
      "bar": 54,
      "beat": 4.5,
      "duration_beats": 0.25,
      "velocity": 1.0,
      "role": "melody",
      "is_tied": false
    },
    {
      "midi": 44,
      "name": "G#2",
      "start": 192.9851,
      "duration": 0.2239,
      "bar": 54,
      "beat": 4.5,
      "duration_beats": 0.25,
      "velocity": 1.0,
      "role": "bass",
      "is_tied": false
    },
    {
      "midi": 68,
      "name": "G#4",
      "start": 193.209,
      "duration": 0.4478,
      "bar": 54,
      "beat": 4.75,
      "duration_beats": 0.5,
      "velocity": 0.81,
      "role": "melody",
      "is_tied": false
    },
    {
      "midi": 51,
      "name": "D#3",
      "start": 193.209,
      "duration": 0.4478,
      "bar": 54,
      "beat": 4.75,
      "duration_beats": 0.5,
      "velocity": 0.49,
      "role": "chord",
      "is_tied": false
    },
    {
      "midi": 44,
      "name": "G#2",
      "start": 193.209,
      "duration": 0.4478,
      "bar": 54,
      "beat": 4.75,
      "duration_beats": 0.5,
      "velocity": 1.0,
      "role": "bass",
      "is_tied": false
    },
    {
      "midi": 72,
      "name": "C5",
      "start": 193.4328,
      "duration": 0.4478,
      "bar": 55,
      "beat": 1.0,
      "duration_beats": 0.5,
      "velocity": 0.92,
      "role": "melody",
      "is_tied": false
    },
    {
      "midi": 51,
      "name": "D#3",
      "start": 193.4328,
      "duration": 0.4478,
      "bar": 55,
      "beat": 1.0,
      "duration_beats": 0.5,
      "velocity": 0.5,
      "role": "chord",
      "is_tied": false
    },
    {
      "midi": 44,
      "name": "G#2",
      "start": 193.4328,
      "duration": 0.2239,
      "bar": 55,
      "beat": 1.0,
      "duration_beats": 0.25,
      "velocity": 1.0,
      "role": "bass",
      "is_tied": false
    },
    {
      "midi": 74,
      "name": "D5",
      "start": 193.8806,
      "duration": 0.4478,
      "bar": 55,
      "beat": 1.5,
      "duration_beats": 0.5,
      "velocity": 1.0,
      "role": "melody",
      "is_tied": false
    },
    {
      "midi": 71,
      "name": "B4",
      "start": 193.8806,
      "duration": 0.4478,
      "bar": 55,
      "beat": 1.5,
      "duration_beats": 0.5,
      "velocity": 0.64,
      "role": "chord",
      "is_tied": false
    },
    {
      "midi": 50,
      "name": "D3",
      "start": 193.8806,
      "duration": 1.3433,
      "bar": 55,
      "beat": 1.5,
      "duration_beats": 1.5,
      "velocity": 1.0,
      "role": "chord",
      "is_tied": true
    },
    {
      "midi": 43,
      "name": "G2",
      "start": 193.8806,
      "duration": 1.3433,
      "bar": 55,
      "beat": 1.5,
      "duration_beats": 1.5,
      "velocity": 1.0,
      "role": "bass",
      "is_tied": false
    },
    {
      "midi": 83,
      "name": "B5",
      "start": 194.1045,
      "duration": 0.2239,
      "bar": 55,
      "beat": 1.75,
      "duration_beats": 0.25,
      "velocity": 1.0,
      "role": "melody",
      "is_tied": false
    },
    {
      "midi": 67,
      "name": "G4",
      "start": 194.1045,
      "duration": 0.2239,
      "bar": 55,
      "beat": 1.75,
      "duration_beats": 0.25,
      "velocity": 0.49,
      "role": "chord",
      "is_tied": false
    },
    {
      "midi": 62,
      "name": "D4",
      "start": 194.1045,
      "duration": 0.8955,
      "bar": 55,
      "beat": 1.75,
      "duration_beats": 1.0,
      "velocity": 0.9,
      "role": "chord",
      "is_tied": false
    },
    {
      "midi": 59,
      "name": "B3",
      "start": 194.1045,
      "duration": 0.8955,
      "bar": 55,
      "beat": 1.75,
      "duration_beats": 1.0,
      "velocity": 0.69,
      "role": "chord",
      "is_tied": false
    },
    {
      "midi": 74,
      "name": "D5",
      "start": 194.3284,
      "duration": 0.2239,
      "bar": 55,
      "beat": 2.0,
      "duration_beats": 0.25,
      "velocity": 0.86,
      "role": "melody",
      "is_tied": false
    },
    {
      "midi": 52,
      "name": "E3",
      "start": 194.3284,
      "duration": 0.6716,
      "bar": 55,
      "beat": 2.0,
      "duration_beats": 0.75,
      "velocity": 0.32,
      "role": "chord",
      "is_tied": false
    },
    {
      "midi": 83,
      "name": "B5",
      "start": 194.5522,
      "duration": 0.4478,
      "bar": 55,
      "beat": 2.25,
      "duration_beats": 0.5,
      "velocity": 0.87,
      "role": "melody",
      "is_tied": false
    },
    {
      "midi": 82,
      "name": "A#5",
      "start": 194.5522,
      "duration": 0.2239,
      "bar": 55,
      "beat": 2.25,
      "duration_beats": 0.25,
      "velocity": 1.0,
      "role": "melody",
      "is_tied": false
    },
    {
      "midi": 74,
      "name": "D5",
      "start": 195.0,
      "duration": 0.2239,
      "bar": 55,
      "beat": 2.75,
      "duration_beats": 0.25,
      "velocity": 0.86,
      "role": "melody",
      "is_tied": false
    },
    {
      "midi": 55,
      "name": "G3",
      "start": 195.0,
      "duration": 0.2239,
      "bar": 55,
      "beat": 2.75,
      "duration_beats": 0.25,
      "velocity": 0.75,
      "role": "chord",
      "is_tied": false
    },
    {
      "midi": 47,
      "name": "B2",
      "start": 195.0,
      "duration": 0.2239,
      "bar": 55,
      "beat": 2.75,
      "duration_beats": 0.25,
      "velocity": 1.0,
      "role": "bass",
      "is_tied": false
    },
    {
      "midi": 74,
      "name": "D5",
      "start": 195.2239,
      "duration": 0.4478,
      "bar": 55,
      "beat": 3.0,
      "duration_beats": 0.5,
      "velocity": 0.87,
      "role": "melody",
      "is_tied": false
    },
    {
      "midi": 55,
      "name": "G3",
      "start": 195.2239,
      "duration": 1.3433,
      "bar": 55,
      "beat": 3.0,
      "duration_beats": 1.5,
      "velocity": 0.68,
      "role": "chord",
      "is_tied": false
    },
    {
      "midi": 50,
      "name": "D3",
      "start": 195.2239,
      "duration": 2.6866,
      "bar": 55,
      "beat": 3.0,
      "duration_beats": 3.0,
      "velocity": 0.4,
      "role": "chord",
      "is_tied": false
    },
    {
      "midi": 47,
      "name": "B2",
      "start": 195.2239,
      "duration": 1.3433,
      "bar": 55,
      "beat": 3.0,
      "duration_beats": 1.5,
      "velocity": 1.0,
      "role": "bass",
      "is_tied": false
    },
    {
      "midi": 86,
      "name": "D6",
      "start": 195.4478,
      "duration": 0.6716,
      "bar": 55,
      "beat": 3.25,
      "duration_beats": 0.75,
      "velocity": 1.0,
      "role": "melody",
      "is_tied": false
    },
    {
      "midi": 81,
      "name": "A5",
      "start": 195.4478,
      "duration": 1.791,
      "bar": 55,
      "beat": 3.25,
      "duration_beats": 2.0,
      "velocity": 0.64,
      "role": "melody",
      "is_tied": false
    },
    {
      "midi": 50,
      "name": "D3",
      "start": 195.4478,
      "duration": 1.791,
      "bar": 55,
      "beat": 3.25,
      "duration_beats": 2.0,
      "velocity": 0.62,
      "role": "chord",
      "is_tied": false
    },
    {
      "midi": 47,
      "name": "B2",
      "start": 195.4478,
      "duration": 0.8955,
      "bar": 55,
      "beat": 3.25,
      "duration_beats": 1.0,
      "velocity": 1.0,
      "role": "bass",
      "is_tied": false
    },
    {
      "midi": 81,
      "name": "A5",
      "start": 196.1194,
      "duration": 0.8955,
      "bar": 55,
      "beat": 4.0,
      "duration_beats": 1.0,
      "velocity": 1.0,
      "role": "melody",
      "is_tied": false
    },
    {
      "midi": 74,
      "name": "D5",
      "start": 196.1194,
      "duration": 0.2239,
      "bar": 55,
      "beat": 4.0,
      "duration_beats": 0.25,
      "velocity": 0.49,
      "role": "melody",
      "is_tied": false
    },
    {
      "midi": 50,
      "name": "D3",
      "start": 196.1194,
      "duration": 1.3433,
      "bar": 55,
      "beat": 4.0,
      "duration_beats": 1.5,
      "velocity": 0.58,
      "role": "chord",
      "is_tied": false
    },
    {
      "midi": 47,
      "name": "B2",
      "start": 196.1194,
      "duration": 0.2239,
      "bar": 55,
      "beat": 4.0,
      "duration_beats": 0.25,
      "velocity": 1.0,
      "role": "bass",
      "is_tied": false
    },
    {
      "midi": 79,
      "name": "G5",
      "start": 196.5672,
      "duration": 0.6716,
      "bar": 55,
      "beat": 4.5,
      "duration_beats": 0.75,
      "velocity": 0.52,
      "role": "melody",
      "is_tied": false
    },
    {
      "midi": 78,
      "name": "F#5",
      "start": 196.5672,
      "duration": 0.4478,
      "bar": 55,
      "beat": 4.5,
      "duration_beats": 0.5,
      "velocity": 1.0,
      "role": "melody",
      "is_tied": false
    },
    {
      "midi": 59,
      "name": "B3",
      "start": 196.5672,
      "duration": 0.8955,
      "bar": 55,
      "beat": 4.5,
      "duration_beats": 1.0,
      "velocity": 0.48,
      "role": "chord",
      "is_tied": false
    },
    {
      "midi": 55,
      "name": "G3",
      "start": 196.5672,
      "duration": 0.6716,
      "bar": 55,
      "beat": 4.5,
      "duration_beats": 0.75,
      "velocity": 0.74,
      "role": "chord",
      "is_tied": false
    },
    {
      "midi": 74,
      "name": "D5",
      "start": 197.2388,
      "duration": 0.2239,
      "bar": 56,
      "beat": 1.25,
      "duration_beats": 0.25,
      "velocity": 1.0,
      "role": "melody",
      "is_tied": false
    },
    {
      "midi": 57,
      "name": "A3",
      "start": 197.2388,
      "duration": 0.2239,
      "bar": 56,
      "beat": 1.25,
      "duration_beats": 0.25,
      "velocity": 0.48,
      "role": "chord",
      "is_tied": false
    },
    {
      "midi": 76,
      "name": "E5",
      "start": 197.4627,
      "duration": 1.3433,
      "bar": 56,
      "beat": 1.5,
      "duration_beats": 1.5,
      "velocity": 1.0,
      "role": "melody",
      "is_tied": false
    },
    {
      "midi": 77,
      "name": "F5",
      "start": 197.6866,
      "duration": 0.2239,
      "bar": 56,
      "beat": 1.75,
      "duration_beats": 0.25,
      "velocity": 1.0,
      "role": "melody",
      "is_tied": false
    },
    {
      "midi": 76,
      "name": "E5",
      "start": 197.6866,
      "duration": 0.8955,
      "bar": 56,
      "beat": 1.75,
      "duration_beats": 1.0,
      "velocity": 0.61,
      "role": "melody",
      "is_tied": false
    },
    {
      "midi": 41,
      "name": "F2",
      "start": 197.6866,
      "duration": 1.791,
      "bar": 56,
      "beat": 1.75,
      "duration_beats": 2.0,
      "velocity": 0.64,
      "role": "bass",
      "is_tied": false
    },
    {
      "midi": 74,
      "name": "D5",
      "start": 197.9104,
      "duration": 0.8955,
      "bar": 56,
      "beat": 2.0,
      "duration_beats": 1.0,
      "velocity": 0.99,
      "role": "melody",
      "is_tied": false
    },
    {
      "midi": 74,
      "name": "D5",
      "start": 198.3582,
      "duration": 0.6716,
      "bar": 56,
      "beat": 2.5,
      "duration_beats": 0.75,
      "velocity": 0.87,
      "role": "melody",
      "is_tied": false
    },
    {
      "midi": 72,
      "name": "C5",
      "start": 198.3582,
      "duration": 0.8955,
      "bar": 56,
      "beat": 2.5,
      "duration_beats": 1.0,
      "velocity": 1.0,
      "role": "melody",
      "is_tied": false
    },
    {
      "midi": 41,
      "name": "F2",
      "start": 198.3582,
      "duration": 1.3433,
      "bar": 56,
      "beat": 2.5,
      "duration_beats": 1.5,
      "velocity": 0.87,
      "role": "bass",
      "is_tied": false
    },
    {
      "midi": 74,
      "name": "D5",
      "start": 198.5821,
      "duration": 0.2239,
      "bar": 56,
      "beat": 2.75,
      "duration_beats": 0.25,
      "velocity": 0.31,
      "role": "melody",
      "is_tied": false
    },
    {
      "midi": 72,
      "name": "C5",
      "start": 198.5821,
      "duration": 0.6716,
      "bar": 56,
      "beat": 2.75,
      "duration_beats": 0.75,
      "velocity": 1.0,
      "role": "melody",
      "is_tied": false
    },
    {
      "midi": 58,
      "name": "A#3",
      "start": 198.5821,
      "duration": 1.791,
      "bar": 56,
      "beat": 2.75,
      "duration_beats": 2.0,
      "velocity": 0.77,
      "role": "chord",
      "is_tied": false
    },
    {
      "midi": 51,
      "name": "D#3",
      "start": 198.5821,
      "duration": 0.6716,
      "bar": 56,
      "beat": 2.75,
      "duration_beats": 0.75,
      "velocity": 0.37,
      "role": "chord",
      "is_tied": false
    },
    {
      "midi": 50,
      "name": "D3",
      "start": 198.5821,
      "duration": 0.2239,
      "bar": 56,
      "beat": 2.75,
      "duration_beats": 0.25,
      "velocity": 0.46,
      "role": "chord",
      "is_tied": false
    },
    {
      "midi": 70,
      "name": "A#4",
      "start": 199.2537,
      "duration": 0.4478,
      "bar": 56,
      "beat": 3.5,
      "duration_beats": 0.5,
      "velocity": 1.0,
      "role": "melody",
      "is_tied": false
    },
    {
      "midi": 69,
      "name": "A4",
      "start": 199.2537,
      "duration": 1.3433,
      "bar": 56,
      "beat": 3.5,
      "duration_beats": 1.5,
      "velocity": 0.83,
      "role": "melody",
      "is_tied": false
    },
    {
      "midi": 60,
      "name": "C4",
      "start": 199.2537,
      "duration": 1.791,
      "bar": 56,
      "beat": 3.5,
      "duration_beats": 2.0,
      "velocity": 0.66,
      "role": "chord",
      "is_tied": false
    },
    {
      "midi": 53,
      "name": "F3",
      "start": 199.2537,
      "duration": 0.4478,
      "bar": 56,
      "beat": 3.5,
      "duration_beats": 0.5,
      "velocity": 0.63,
      "role": "chord",
      "is_tied": false
    },
    {
      "midi": 50,
      "name": "D3",
      "start": 199.2537,
      "duration": 2.6866,
      "bar": 56,
      "beat": 3.5,
      "duration_beats": 3.0,
      "velocity": 0.71,
      "role": "chord",
      "is_tied": false
    },
    {
      "midi": 67,
      "name": "G4",
      "start": 199.7015,
      "duration": 0.8955,
      "bar": 56,
      "beat": 4.0,
      "duration_beats": 1.0,
      "velocity": 0.39,
      "role": "melody",
      "is_tied": false
    },
    {
      "midi": 62,
      "name": "D4",
      "start": 199.7015,
      "duration": 1.3433,
      "bar": 56,
      "beat": 4.0,
      "duration_beats": 1.5,
      "velocity": 1.0,
      "role": "chord",
      "is_tied": false
    },
    {
      "midi": 58,
      "name": "A#3",
      "start": 199.7015,
      "duration": 1.3433,
      "bar": 56,
      "beat": 4.0,
      "duration_beats": 1.5,
      "velocity": 0.72,
      "role": "chord",
      "is_tied": false
    },
    {
      "midi": 57,
      "name": "A3",
      "start": 199.7015,
      "duration": 0.8955,
      "bar": 56,
      "beat": 4.0,
      "duration_beats": 1.0,
      "velocity": 0.59,
      "role": "chord",
      "is_tied": false
    },
    {
      "midi": 41,
      "name": "F2",
      "start": 200.3731,
      "duration": 1.3433,
      "bar": 56,
      "beat": 4.75,
      "duration_beats": 1.5,
      "velocity": 1.0,
      "role": "bass",
      "is_tied": false
    },
    {
      "midi": 74,
      "name": "D5",
      "start": 200.597,
      "duration": 0.2239,
      "bar": 57,
      "beat": 1.0,
      "duration_beats": 0.25,
      "velocity": 0.32,
      "role": "melody",
      "is_tied": false
    },
    {
      "midi": 60,
      "name": "C4",
      "start": 200.597,
      "duration": 0.4478,
      "bar": 57,
      "beat": 1.0,
      "duration_beats": 0.5,
      "velocity": 0.34,
      "role": "chord",
      "is_tied": false
    },
    {
      "midi": 67,
      "name": "G4",
      "start": 200.8209,
      "duration": 0.8955,
      "bar": 57,
      "beat": 1.25,
      "duration_beats": 1.0,
      "velocity": 0.33,
      "role": "melody",
      "is_tied": false
    },
    {
      "midi": 57,
      "name": "A3",
      "start": 200.8209,
      "duration": 2.6866,
      "bar": 57,
      "beat": 1.25,
      "duration_beats": 3.0,
      "velocity": 0.4,
      "role": "chord",
      "is_tied": false
    },
    {
      "midi": 74,
      "name": "D5",
      "start": 201.0448,
      "duration": 0.6716,
      "bar": 57,
      "beat": 1.5,
      "duration_beats": 0.75,
      "velocity": 0.76,
      "role": "melody",
      "is_tied": false
    },
    {
      "midi": 67,
      "name": "G4",
      "start": 201.0448,
      "duration": 0.6716,
      "bar": 57,
      "beat": 1.5,
      "duration_beats": 0.75,
      "velocity": 0.86,
      "role": "melody",
      "is_tied": false
    },
    {
      "midi": 66,
      "name": "F#4",
      "start": 201.0448,
      "duration": 0.6716,
      "bar": 57,
      "beat": 1.5,
      "duration_beats": 0.75,
      "velocity": 0.72,
      "role": "chord",
      "is_tied": false
    },
    {
      "midi": 64,
      "name": "E4",
      "start": 201.0448,
      "duration": 0.6716,
      "bar": 57,
      "beat": 1.5,
      "duration_beats": 0.75,
      "velocity": 0.74,
      "role": "chord",
      "is_tied": false
    },
    {
      "midi": 61,
      "name": "C#4",
      "start": 201.0448,
      "duration": 0.8955,
      "bar": 57,
      "beat": 1.5,
      "duration_beats": 1.0,
      "velocity": 0.96,
      "role": "chord",
      "is_tied": false
    },
    {
      "midi": 57,
      "name": "A3",
      "start": 201.0448,
      "duration": 1.791,
      "bar": 57,
      "beat": 1.5,
      "duration_beats": 2.0,
      "velocity": 0.71,
      "role": "chord",
      "is_tied": false
    },
    {
      "midi": 48,
      "name": "C3",
      "start": 201.7164,
      "duration": 0.2239,
      "bar": 57,
      "beat": 2.25,
      "duration_beats": 0.25,
      "velocity": 0.85,
      "role": "bass",
      "is_tied": false
    },
    {
      "midi": 71,
      "name": "B4",
      "start": 201.9403,
      "duration": 0.2239,
      "bar": 57,
      "beat": 2.5,
      "duration_beats": 0.25,
      "velocity": 0.51,
      "role": "melody",
      "is_tied": false
    },
    {
      "midi": 57,
      "name": "A3",
      "start": 201.9403,
      "duration": 1.3433,
      "bar": 57,
      "beat": 2.5,
      "duration_beats": 1.5,
      "velocity": 0.59,
      "role": "chord",
      "is_tied": false
    },
    {
      "midi": 52,
      "name": "E3",
      "start": 201.9403,
      "duration": 2.6866,
      "bar": 57,
      "beat": 2.5,
      "duration_beats": 3.0,
      "velocity": 0.72,
      "role": "chord",
      "is_tied": false
    },
    {
      "midi": 50,
      "name": "D3",
      "start": 201.9403,
      "duration": 0.4478,
      "bar": 57,
      "beat": 2.5,
      "duration_beats": 0.5,
      "velocity": 0.66,
      "role": "chord",
      "is_tied": false
    },
    {
      "midi": 83,
      "name": "B5",
      "start": 202.1642,
      "duration": 0.2239,
      "bar": 57,
      "beat": 2.75,
      "duration_beats": 0.25,
      "velocity": 0.67,
      "role": "melody",
      "is_tied": false
    },
    {
      "midi": 74,
      "name": "D5",
      "start": 202.1642,
      "duration": 0.8955,
      "bar": 57,
      "beat": 2.75,
      "duration_beats": 1.0,
      "velocity": 1.0,
      "role": "melody",
      "is_tied": false
    },
    {
      "midi": 54,
      "name": "F#3",
      "start": 202.1642,
      "duration": 0.8955,
      "bar": 57,
      "beat": 2.75,
      "duration_beats": 1.0,
      "velocity": 0.67,
      "role": "bass",
      "is_tied": false
    },
    {
      "midi": 49,
      "name": "C#3",
      "start": 202.1642,
      "duration": 0.4478,
      "bar": 57,
      "beat": 2.75,
      "duration_beats": 0.5,
      "velocity": 0.44,
      "role": "chord",
      "is_tied": false
    },
    {
      "midi": 71,
      "name": "B4",
      "start": 202.3881,
      "duration": 1.3433,
      "bar": 57,
      "beat": 3.0,
      "duration_beats": 1.5,
      "velocity": 0.36,
      "role": "melody",
      "is_tied": false
    },
    {
      "midi": 69,
      "name": "A4",
      "start": 202.3881,
      "duration": 0.2239,
      "bar": 57,
      "beat": 3.0,
      "duration_beats": 0.25,
      "velocity": 1.0,
      "role": "chord",
      "is_tied": false
    },
    {
      "midi": 71,
      "name": "B4",
      "start": 203.0597,
      "duration": 0.6716,
      "bar": 57,
      "beat": 3.75,
      "duration_beats": 0.75,
      "velocity": 0.95,
      "role": "melody",
      "is_tied": false
    },
    {
      "midi": 69,
      "name": "A4",
      "start": 203.0597,
      "duration": 0.4478,
      "bar": 57,
      "beat": 3.75,
      "duration_beats": 0.5,
      "velocity": 0.46,
      "role": "melody",
      "is_tied": false
    },
    {
      "midi": 33,
      "name": "A1",
      "start": 203.0597,
      "duration": 0.4478,
      "bar": 57,
      "beat": 3.75,
      "duration_beats": 0.5,
      "velocity": 1.0,
      "role": "bass",
      "is_tied": false
    },
    {
      "midi": 42,
      "name": "F#2",
      "start": 203.5075,
      "duration": 0.4478,
      "bar": 57,
      "beat": 4.25,
      "duration_beats": 0.5,
      "velocity": 1.0,
      "role": "bass",
      "is_tied": false
    },
    {
      "midi": 64,
      "name": "E4",
      "start": 203.7313,
      "duration": 0.6716,
      "bar": 57,
      "beat": 4.5,
      "duration_beats": 0.75,
      "velocity": 1.0,
      "role": "melody",
      "is_tied": false
    },
    {
      "midi": 62,
      "name": "D4",
      "start": 203.7313,
      "duration": 0.4478,
      "bar": 57,
      "beat": 4.5,
      "duration_beats": 0.5,
      "velocity": 1.0,
      "role": "chord",
      "is_tied": false
    },
    {
      "midi": 59,
      "name": "B3",
      "start": 203.7313,
      "duration": 1.3433,
      "bar": 57,
      "beat": 4.5,
      "duration_beats": 1.5,
      "velocity": 0.4,
      "role": "chord",
      "is_tied": false
    },
    {
      "midi": 57,
      "name": "A3",
      "start": 203.9552,
      "duration": 0.4478,
      "bar": 57,
      "beat": 4.75,
      "duration_beats": 0.5,
      "velocity": 0.57,
      "role": "chord",
      "is_tied": false
    },
    {
      "midi": 66,
      "name": "F#4",
      "start": 204.403,
      "duration": 0.4478,
      "bar": 58,
      "beat": 1.25,
      "duration_beats": 0.5,
      "velocity": 0.69,
      "role": "melody",
      "is_tied": false
    },
    {
      "midi": 65,
      "name": "F4",
      "start": 204.403,
      "duration": 1.3433,
      "bar": 58,
      "beat": 1.25,
      "duration_beats": 1.5,
      "velocity": 1.0,
      "role": "melody",
      "is_tied": false
    },
    {
      "midi": 59,
      "name": "B3",
      "start": 204.403,
      "duration": 0.4478,
      "bar": 58,
      "beat": 1.25,
      "duration_beats": 0.5,
      "velocity": 0.43,
      "role": "chord",
      "is_tied": false
    },
    {
      "midi": 56,
      "name": "G#3",
      "start": 204.403,
      "duration": 0.4478,
      "bar": 58,
      "beat": 1.25,
      "duration_beats": 0.5,
      "velocity": 0.32,
      "role": "chord",
      "is_tied": false
    },
    {
      "midi": 68,
      "name": "G#4",
      "start": 204.8507,
      "duration": 0.6716,
      "bar": 58,
      "beat": 1.75,
      "duration_beats": 0.75,
      "velocity": 0.33,
      "role": "melody",
      "is_tied": false
    },
    {
      "midi": 65,
      "name": "F4",
      "start": 204.8507,
      "duration": 0.6716,
      "bar": 58,
      "beat": 1.75,
      "duration_beats": 0.75,
      "velocity": 1.0,
      "role": "melody",
      "is_tied": false
    },
    {
      "midi": 64,
      "name": "E4",
      "start": 204.8507,
      "duration": 0.6716,
      "bar": 58,
      "beat": 1.75,
      "duration_beats": 0.75,
      "velocity": 1.0,
      "role": "chord",
      "is_tied": false
    },
    {
      "midi": 60,
      "name": "C4",
      "start": 204.8507,
      "duration": 0.8955,
      "bar": 58,
      "beat": 1.75,
      "duration_beats": 1.0,
      "velocity": 0.72,
      "role": "chord",
      "is_tied": false
    },
    {
      "midi": 55,
      "name": "G3",
      "start": 204.8507,
      "duration": 1.791,
      "bar": 58,
      "beat": 1.75,
      "duration_beats": 2.0,
      "velocity": 0.54,
      "role": "chord",
      "is_tied": false
    },
    {
      "midi": 74,
      "name": "D5",
      "start": 205.7463,
      "duration": 0.8955,
      "bar": 58,
      "beat": 2.75,
      "duration_beats": 1.0,
      "velocity": 1.0,
      "role": "melody",
      "is_tied": false
    },
    {
      "midi": 67,
      "name": "G4",
      "start": 205.7463,
      "duration": 0.2239,
      "bar": 58,
      "beat": 2.75,
      "duration_beats": 0.25,
      "velocity": 1.0,
      "role": "chord",
      "is_tied": false
    },
    {
      "midi": 52,
      "name": "E3",
      "start": 205.7463,
      "duration": 0.4478,
      "bar": 58,
      "beat": 2.75,
      "duration_beats": 0.5,
      "velocity": 0.76,
      "role": "chord",
      "is_tied": false
    },
    {
      "midi": 48,
      "name": "C3",
      "start": 205.7463,
      "duration": 0.4478,
      "bar": 58,
      "beat": 2.75,
      "duration_beats": 0.5,
      "velocity": 0.41,
      "role": "chord",
      "is_tied": false
    },
    {
      "midi": 83,
      "name": "B5",
      "start": 205.9701,
      "duration": 0.2239,
      "bar": 58,
      "beat": 3.0,
      "duration_beats": 0.25,
      "velocity": 0.87,
      "role": "melody",
      "is_tied": false
    },
    {
      "midi": 74,
      "name": "D5",
      "start": 205.9701,
      "duration": 0.6716,
      "bar": 58,
      "beat": 3.0,
      "duration_beats": 0.75,
      "velocity": 1.0,
      "role": "melody",
      "is_tied": false
    },
    {
      "midi": 55,
      "name": "G3",
      "start": 205.9701,
      "duration": 0.8955,
      "bar": 58,
      "beat": 3.0,
      "duration_beats": 1.0,
      "velocity": 0.57,
      "role": "chord",
      "is_tied": false
    },
    {
      "midi": 48,
      "name": "C3",
      "start": 205.9701,
      "duration": 0.2239,
      "bar": 58,
      "beat": 3.0,
      "duration_beats": 0.25,
      "velocity": 0.33,
      "role": "chord",
      "is_tied": false
    },
    {
      "midi": 45,
      "name": "A2",
      "start": 205.9701,
      "duration": 0.8955,
      "bar": 58,
      "beat": 3.0,
      "duration_beats": 1.0,
      "velocity": 1.0,
      "role": "bass",
      "is_tied": false
    },
    {
      "midi": 69,
      "name": "A4",
      "start": 206.6418,
      "duration": 0.2239,
      "bar": 58,
      "beat": 3.75,
      "duration_beats": 0.25,
      "velocity": 0.61,
      "role": "melody",
      "is_tied": false
    },
    {
      "midi": 52,
      "name": "E3",
      "start": 206.6418,
      "duration": 1.3433,
      "bar": 58,
      "beat": 3.75,
      "duration_beats": 1.5,
      "velocity": 0.33,
      "role": "chord",
      "is_tied": false
    },
    {
      "midi": 71,
      "name": "B4",
      "start": 206.8657,
      "duration": 0.2239,
      "bar": 58,
      "beat": 4.0,
      "duration_beats": 0.25,
      "velocity": 0.72,
      "role": "melody",
      "is_tied": true
    },
    {
      "midi": 69,
      "name": "A4",
      "start": 206.8657,
      "duration": 0.2239,
      "bar": 58,
      "beat": 4.0,
      "duration_beats": 0.25,
      "velocity": 0.65,
      "role": "melody",
      "is_tied": false
    },
    {
      "midi": 48,
      "name": "C3",
      "start": 206.8657,
      "duration": 0.2239,
      "bar": 58,
      "beat": 4.0,
      "duration_beats": 0.25,
      "velocity": 0.36,
      "role": "chord",
      "is_tied": false
    },
    {
      "midi": 41,
      "name": "F2",
      "start": 206.8657,
      "duration": 0.2239,
      "bar": 58,
      "beat": 4.0,
      "duration_beats": 0.25,
      "velocity": 1.0,
      "role": "bass",
      "is_tied": false
    },
    {
      "midi": 67,
      "name": "G4",
      "start": 207.0896,
      "duration": 0.2239,
      "bar": 58,
      "beat": 4.25,
      "duration_beats": 0.25,
      "velocity": 0.32,
      "role": "melody",
      "is_tied": false
    },
    {
      "midi": 66,
      "name": "F#4",
      "start": 207.0896,
      "duration": 0.2239,
      "bar": 58,
      "beat": 4.25,
      "duration_beats": 0.25,
      "velocity": 0.65,
      "role": "melody",
      "is_tied": false
    },
    {
      "midi": 52,
      "name": "E3",
      "start": 207.0896,
      "duration": 0.8955,
      "bar": 58,
      "beat": 4.25,
      "duration_beats": 1.0,
      "velocity": 0.5,
      "role": "chord",
      "is_tied": false
    },
    {
      "midi": 43,
      "name": "G2",
      "start": 207.0896,
      "duration": 0.6716,
      "bar": 58,
      "beat": 4.25,
      "duration_beats": 0.75,
      "velocity": 0.93,
      "role": "bass",
      "is_tied": false
    },
    {
      "midi": 52,
      "name": "E3",
      "start": 207.3134,
      "duration": 0.6716,
      "bar": 58,
      "beat": 4.5,
      "duration_beats": 0.75,
      "velocity": 0.47,
      "role": "chord",
      "is_tied": false
    },
    {
      "midi": 43,
      "name": "G2",
      "start": 207.3134,
      "duration": 0.2239,
      "bar": 58,
      "beat": 4.5,
      "duration_beats": 0.25,
      "velocity": 1.0,
      "role": "bass",
      "is_tied": false
    },
    {
      "midi": 74,
      "name": "D5",
      "start": 207.7612,
      "duration": 0.4478,
      "bar": 59,
      "beat": 1.0,
      "duration_beats": 0.5,
      "velocity": 0.9,
      "role": "melody",
      "is_tied": false
    },
    {
      "midi": 40,
      "name": "E2",
      "start": 207.7612,
      "duration": 0.2239,
      "bar": 59,
      "beat": 1.0,
      "duration_beats": 0.25,
      "velocity": 1.0,
      "role": "bass",
      "is_tied": false
    },
    {
      "midi": 73,
      "name": "C#5",
      "start": 207.9851,
      "duration": 0.2239,
      "bar": 59,
      "beat": 1.25,
      "duration_beats": 0.25,
      "velocity": 0.54,
      "role": "melody",
      "is_tied": false
    },
    {
      "midi": 50,
      "name": "D3",
      "start": 207.9851,
      "duration": 0.2239,
      "bar": 59,
      "beat": 1.25,
      "duration_beats": 0.25,
      "velocity": 1.0,
      "role": "chord",
      "is_tied": true
    },
    {
      "midi": 74,
      "name": "D5",
      "start": 208.209,
      "duration": 0.2239,
      "bar": 59,
      "beat": 1.5,
      "duration_beats": 0.25,
      "velocity": 1.0,
      "role": "melody",
      "is_tied": false
    },
    {
      "midi": 73,
      "name": "C#5",
      "start": 208.209,
      "duration": 0.2239,
      "bar": 59,
      "beat": 1.5,
      "duration_beats": 0.25,
      "velocity": 0.54,
      "role": "melody",
      "is_tied": false
    },
    {
      "midi": 66,
      "name": "F#4",
      "start": 208.4328,
      "duration": 1.3433,
      "bar": 59,
      "beat": 1.75,
      "duration_beats": 1.5,
      "velocity": 0.85,
      "role": "melody",
      "is_tied": false
    },
    {
      "midi": 73,
      "name": "C#5",
      "start": 208.6567,
      "duration": 0.8955,
      "bar": 59,
      "beat": 2.0,
      "duration_beats": 1.0,
      "velocity": 0.6,
      "role": "melody",
      "is_tied": false
    },
    {
      "midi": 71,
      "name": "B4",
      "start": 208.6567,
      "duration": 0.8955,
      "bar": 59,
      "beat": 2.0,
      "duration_beats": 1.0,
      "velocity": 0.57,
      "role": "chord",
      "is_tied": false
    },
    {
      "midi": 50,
      "name": "D3",
      "start": 208.6567,
      "duration": 1.3433,
      "bar": 59,
      "beat": 2.0,
      "duration_beats": 1.5,
      "velocity": 0.76,
      "role": "chord",
      "is_tied": false
    },
    {
      "midi": 43,
      "name": "G2",
      "start": 208.6567,
      "duration": 1.791,
      "bar": 59,
      "beat": 2.0,
      "duration_beats": 2.0,
      "velocity": 1.0,
      "role": "bass",
      "is_tied": false
    },
    {
      "midi": 71,
      "name": "B4",
      "start": 209.7761,
      "duration": 0.2239,
      "bar": 59,
      "beat": 3.25,
      "duration_beats": 0.25,
      "velocity": 1.0,
      "role": "melody",
      "is_tied": false
    },
    {
      "midi": 62,
      "name": "D4",
      "start": 209.7761,
      "duration": 0.4478,
      "bar": 59,
      "beat": 3.25,
      "duration_beats": 0.5,
      "velocity": 0.53,
      "role": "chord",
      "is_tied": false
    },
    {
      "midi": 83,
      "name": "B5",
      "start": 210.0,
      "duration": 0.2239,
      "bar": 59,
      "beat": 3.5,
      "duration_beats": 0.25,
      "velocity": 0.86,
      "role": "melody",
      "is_tied": false
    },
    {
      "midi": 76,
      "name": "E5",
      "start": 210.2239,
      "duration": 0.2239,
      "bar": 59,
      "beat": 3.75,
      "duration_beats": 0.25,
      "velocity": 0.35,
      "role": "melody",
      "is_tied": false
    },
    {
      "midi": 69,
      "name": "A4",
      "start": 210.2239,
      "duration": 0.2239,
      "bar": 59,
      "beat": 3.75,
      "duration_beats": 0.25,
      "velocity": 0.73,
      "role": "chord",
      "is_tied": false
    },
    {
      "midi": 50,
      "name": "D3",
      "start": 210.2239,
      "duration": 0.2239,
      "bar": 59,
      "beat": 3.75,
      "duration_beats": 0.25,
      "velocity": 0.58,
      "role": "chord",
      "is_tied": false
    },
    {
      "midi": 43,
      "name": "G2",
      "start": 210.2239,
      "duration": 0.2239,
      "bar": 59,
      "beat": 3.75,
      "duration_beats": 0.25,
      "velocity": 1.0,
      "role": "bass",
      "is_tied": false
    },
    {
      "midi": 57,
      "name": "A3",
      "start": 210.4478,
      "duration": 0.2239,
      "bar": 59,
      "beat": 4.0,
      "duration_beats": 0.25,
      "velocity": 0.39,
      "role": "chord",
      "is_tied": false
    },
    {
      "midi": 78,
      "name": "F#5",
      "start": 210.6716,
      "duration": 0.4478,
      "bar": 59,
      "beat": 4.25,
      "duration_beats": 0.5,
      "velocity": 1.0,
      "role": "melody",
      "is_tied": false
    },
    {
      "midi": 76,
      "name": "E5",
      "start": 210.6716,
      "duration": 0.6716,
      "bar": 59,
      "beat": 4.25,
      "duration_beats": 0.75,
      "velocity": 1.0,
      "role": "melody",
      "is_tied": false
    },
    {
      "midi": 57,
      "name": "A3",
      "start": 210.6716,
      "duration": 0.4478,
      "bar": 59,
      "beat": 4.25,
      "duration_beats": 0.5,
      "velocity": 0.54,
      "role": "chord",
      "is_tied": false
    },
    {
      "midi": 54,
      "name": "F#3",
      "start": 210.6716,
      "duration": 1.3433,
      "bar": 59,
      "beat": 4.25,
      "duration_beats": 1.5,
      "velocity": 0.88,
      "role": "bass",
      "is_tied": false
    },
    {
      "midi": 50,
      "name": "D3",
      "start": 210.6716,
      "duration": 1.3433,
      "bar": 59,
      "beat": 4.25,
      "duration_beats": 1.5,
      "velocity": 0.81,
      "role": "chord",
      "is_tied": false
    },
    {
      "midi": 71,
      "name": "B4",
      "start": 210.8955,
      "duration": 0.2239,
      "bar": 59,
      "beat": 4.5,
      "duration_beats": 0.25,
      "velocity": 0.42,
      "role": "chord",
      "is_tied": false
    },
    {
      "midi": 83,
      "name": "B5",
      "start": 211.1194,
      "duration": 0.8955,
      "bar": 59,
      "beat": 4.75,
      "duration_beats": 1.0,
      "velocity": 1.0,
      "role": "melody",
      "is_tied": false
    },
    {
      "midi": 74,
      "name": "D5",
      "start": 211.1194,
      "duration": 0.8955,
      "bar": 59,
      "beat": 4.75,
      "duration_beats": 1.0,
      "velocity": 1.0,
      "role": "melody",
      "is_tied": false
    },
    {
      "midi": 59,
      "name": "B3",
      "start": 211.1194,
      "duration": 0.8955,
      "bar": 59,
      "beat": 4.75,
      "duration_beats": 1.0,
      "velocity": 0.33,
      "role": "chord",
      "is_tied": false
    },
    {
      "midi": 57,
      "name": "A3",
      "start": 211.1194,
      "duration": 1.791,
      "bar": 59,
      "beat": 4.75,
      "duration_beats": 2.0,
      "velocity": 0.61,
      "role": "chord",
      "is_tied": false
    },
    {
      "midi": 54,
      "name": "F#3",
      "start": 211.1194,
      "duration": 0.8955,
      "bar": 59,
      "beat": 4.75,
      "duration_beats": 1.0,
      "velocity": 1.0,
      "role": "bass",
      "is_tied": false
    },
    {
      "midi": 50,
      "name": "D3",
      "start": 211.1194,
      "duration": 0.8955,
      "bar": 59,
      "beat": 4.75,
      "duration_beats": 1.0,
      "velocity": 0.44,
      "role": "chord",
      "is_tied": false
    },
    {
      "midi": 74,
      "name": "D5",
      "start": 211.3433,
      "duration": 0.6716,
      "bar": 60,
      "beat": 1.0,
      "duration_beats": 0.75,
      "velocity": 0.61,
      "role": "melody",
      "is_tied": false
    },
    {
      "midi": 71,
      "name": "B4",
      "start": 211.3433,
      "duration": 0.8955,
      "bar": 60,
      "beat": 1.0,
      "duration_beats": 1.0,
      "velocity": 1.0,
      "role": "melody",
      "is_tied": false
    },
    {
      "midi": 57,
      "name": "A3",
      "start": 211.3433,
      "duration": 1.3433,
      "bar": 60,
      "beat": 1.0,
      "duration_beats": 1.5,
      "velocity": 0.61,
      "role": "chord",
      "is_tied": false
    },
    {
      "midi": 54,
      "name": "F#3",
      "start": 211.3433,
      "duration": 0.6716,
      "bar": 60,
      "beat": 1.0,
      "duration_beats": 0.75,
      "velocity": 1.0,
      "role": "bass",
      "is_tied": false
    },
    {
      "midi": 50,
      "name": "D3",
      "start": 211.3433,
      "duration": 0.8955,
      "bar": 60,
      "beat": 1.0,
      "duration_beats": 1.0,
      "velocity": 0.5,
      "role": "chord",
      "is_tied": false
    },
    {
      "midi": 72,
      "name": "C5",
      "start": 212.0149,
      "duration": 0.4478,
      "bar": 60,
      "beat": 1.75,
      "duration_beats": 0.5,
      "velocity": 1.0,
      "role": "melody",
      "is_tied": false
    },
    {
      "midi": 48,
      "name": "C3",
      "start": 212.0149,
      "duration": 0.2239,
      "bar": 60,
      "beat": 1.75,
      "duration_beats": 0.25,
      "velocity": 0.5,
      "role": "chord",
      "is_tied": false
    },
    {
      "midi": 42,
      "name": "F#2",
      "start": 212.0149,
      "duration": 0.2239,
      "bar": 60,
      "beat": 1.75,
      "duration_beats": 0.25,
      "velocity": 1.0,
      "role": "bass",
      "is_tied": false
    },
    {
      "midi": 72,
      "name": "C5",
      "start": 212.2388,
      "duration": 0.2239,
      "bar": 60,
      "beat": 2.0,
      "duration_beats": 0.25,
      "velocity": 1.0,
      "role": "melody",
      "is_tied": false
    },
    {
      "midi": 60,
      "name": "C4",
      "start": 212.2388,
      "duration": 0.2239,
      "bar": 60,
      "beat": 2.0,
      "duration_beats": 0.25,
      "velocity": 0.73,
      "role": "chord",
      "is_tied": false
    },
    {
      "midi": 57,
      "name": "A3",
      "start": 212.2388,
      "duration": 0.4478,
      "bar": 60,
      "beat": 2.0,
      "duration_beats": 0.5,
      "velocity": 0.61,
      "role": "chord",
      "is_tied": false
    },
    {
      "midi": 50,
      "name": "D3",
      "start": 212.2388,
      "duration": 1.3433,
      "bar": 60,
      "beat": 2.0,
      "duration_beats": 1.5,
      "velocity": 0.93,
      "role": "chord",
      "is_tied": false
    },
    {
      "midi": 70,
      "name": "A#4",
      "start": 212.4627,
      "duration": 0.2239,
      "bar": 60,
      "beat": 2.25,
      "duration_beats": 0.25,
      "velocity": 1.0,
      "role": "melody",
      "is_tied": false
    },
    {
      "midi": 37,
      "name": "C#2",
      "start": 212.4627,
      "duration": 0.4478,
      "bar": 60,
      "beat": 2.25,
      "duration_beats": 0.5,
      "velocity": 1.0,
      "role": "bass",
      "is_tied": false
    },
    {
      "midi": 84,
      "name": "C6",
      "start": 212.9104,
      "duration": 0.2239,
      "bar": 60,
      "beat": 2.75,
      "duration_beats": 0.25,
      "velocity": 0.8,
      "role": "melody",
      "is_tied": false
    },
    {
      "midi": 40,
      "name": "E2",
      "start": 212.9104,
      "duration": 0.2239,
      "bar": 60,
      "beat": 2.75,
      "duration_beats": 0.25,
      "velocity": 1.0,
      "role": "bass",
      "is_tied": false
    },
    {
      "midi": 94,
      "name": "A#6",
      "start": 213.1343,
      "duration": 0.6716,
      "bar": 60,
      "beat": 3.0,
      "duration_beats": 0.75,
      "velocity": 1.0,
      "role": "melody",
      "is_tied": false
    },
    {
      "midi": 93,
      "name": "A6",
      "start": 213.1343,
      "duration": 0.8955,
      "bar": 60,
      "beat": 3.0,
      "duration_beats": 1.0,
      "velocity": 0.7,
      "role": "melody",
      "is_tied": false
    },
    {
      "midi": 58,
      "name": "A#3",
      "start": 213.1343,
      "duration": 0.2239,
      "bar": 60,
      "beat": 3.0,
      "duration_beats": 0.25,
      "velocity": 0.58,
      "role": "chord",
      "is_tied": false
    },
    {
      "midi": 50,
      "name": "D3",
      "start": 213.1343,
      "duration": 0.2239,
      "bar": 60,
      "beat": 3.0,
      "duration_beats": 0.25,
      "velocity": 0.7,
      "role": "chord",
      "is_tied": false
    },
    {
      "midi": 36,
      "name": "C2",
      "start": 213.5821,
      "duration": 0.6716,
      "bar": 60,
      "beat": 3.5,
      "duration_beats": 0.75,
      "velocity": 1.0,
      "role": "bass",
      "is_tied": false
    },
    {
      "midi": 93,
      "name": "A6",
      "start": 213.806,
      "duration": 0.2239,
      "bar": 60,
      "beat": 3.75,
      "duration_beats": 0.25,
      "velocity": 1.0,
      "role": "melody",
      "is_tied": false
    },
    {
      "midi": 84,
      "name": "C6",
      "start": 213.806,
      "duration": 0.2239,
      "bar": 60,
      "beat": 3.75,
      "duration_beats": 0.25,
      "velocity": 0.85,
      "role": "melody",
      "is_tied": false
    },
    {
      "midi": 36,
      "name": "C2",
      "start": 213.806,
      "duration": 0.2239,
      "bar": 60,
      "beat": 3.75,
      "duration_beats": 0.25,
      "velocity": 1.0,
      "role": "bass",
      "is_tied": false
    },
    {
      "midi": 81,
      "name": "A5",
      "start": 214.0299,
      "duration": 0.8955,
      "bar": 60,
      "beat": 4.0,
      "duration_beats": 1.0,
      "velocity": 1.0,
      "role": "melody",
      "is_tied": false
    },
    {
      "midi": 41,
      "name": "F2",
      "start": 214.0299,
      "duration": 0.2239,
      "bar": 60,
      "beat": 4.0,
      "duration_beats": 0.25,
      "velocity": 1.0,
      "role": "bass",
      "is_tied": false
    },
    {
      "midi": 82,
      "name": "A#5",
      "start": 214.2537,
      "duration": 0.4478,
      "bar": 60,
      "beat": 4.25,
      "duration_beats": 0.5,
      "velocity": 1.0,
      "role": "melody",
      "is_tied": false
    },
    {
      "midi": 82,
      "name": "A#5",
      "start": 214.7015,
      "duration": 0.2239,
      "bar": 60,
      "beat": 4.75,
      "duration_beats": 0.25,
      "velocity": 1.0,
      "role": "melody",
      "is_tied": false
    },
    {
      "midi": 81,
      "name": "A5",
      "start": 214.7015,
      "duration": 0.2239,
      "bar": 60,
      "beat": 4.75,
      "duration_beats": 0.25,
      "velocity": 0.44,
      "role": "melody",
      "is_tied": false
    },
    {
      "midi": 58,
      "name": "A#3",
      "start": 214.7015,
      "duration": 0.2239,
      "bar": 60,
      "beat": 4.75,
      "duration_beats": 0.25,
      "velocity": 0.44,
      "role": "chord",
      "is_tied": false
    },
    {
      "midi": 54,
      "name": "F#3",
      "start": 214.7015,
      "duration": 0.2239,
      "bar": 60,
      "beat": 4.75,
      "duration_beats": 0.25,
      "velocity": 0.43,
      "role": "chord",
      "is_tied": false
    },
    {
      "midi": 53,
      "name": "F3",
      "start": 214.7015,
      "duration": 0.2239,
      "bar": 60,
      "beat": 4.75,
      "duration_beats": 0.25,
      "velocity": 1.0,
      "role": "bass",
      "is_tied": false
    },
    {
      "midi": 50,
      "name": "D3",
      "start": 214.7015,
      "duration": 0.2239,
      "bar": 60,
      "beat": 4.75,
      "duration_beats": 0.25,
      "velocity": 0.81,
      "role": "chord",
      "is_tied": false
    },
    {
      "midi": 72,
      "name": "C5",
      "start": 214.9254,
      "duration": 0.2239,
      "bar": 61,
      "beat": 1.0,
      "duration_beats": 0.25,
      "velocity": 0.84,
      "role": "melody",
      "is_tied": false
    },
    {
      "midi": 70,
      "name": "A#4",
      "start": 214.9254,
      "duration": 0.8955,
      "bar": 61,
      "beat": 1.0,
      "duration_beats": 1.0,
      "velocity": 1.0,
      "role": "melody",
      "is_tied": false
    },
    {
      "midi": 46,
      "name": "A#2",
      "start": 214.9254,
      "duration": 0.6716,
      "bar": 61,
      "beat": 1.0,
      "duration_beats": 0.75,
      "velocity": 1.0,
      "role": "bass",
      "is_tied": false
    },
    {
      "midi": 70,
      "name": "A#4",
      "start": 215.3731,
      "duration": 0.6716,
      "bar": 61,
      "beat": 1.5,
      "duration_beats": 0.75,
      "velocity": 0.78,
      "role": "melody",
      "is_tied": false
    },
    {
      "midi": 65,
      "name": "F4",
      "start": 215.3731,
      "duration": 0.2239,
      "bar": 61,
      "beat": 1.5,
      "duration_beats": 0.25,
      "velocity": 1.0,
      "role": "melody",
      "is_tied": false
    },
    {
      "midi": 60,
      "name": "C4",
      "start": 215.3731,
      "duration": 0.6716,
      "bar": 61,
      "beat": 1.5,
      "duration_beats": 0.75,
      "velocity": 1.0,
      "role": "chord",
      "is_tied": false
    },
    {
      "midi": 57,
      "name": "A3",
      "start": 215.3731,
      "duration": 2.6866,
      "bar": 61,
      "beat": 1.5,
      "duration_beats": 3.0,
      "velocity": 0.39,
      "role": "chord",
      "is_tied": false
    },
    {
      "midi": 72,
      "name": "C5",
      "start": 215.597,
      "duration": 0.8955,
      "bar": 61,
      "beat": 1.75,
      "duration_beats": 1.0,
      "velocity": 0.67,
      "role": "melody",
      "is_tied": false
    },
    {
      "midi": 48,
      "name": "C3",
      "start": 215.597,
      "duration": 0.2239,
      "bar": 61,
      "beat": 1.75,
      "duration_beats": 0.25,
      "velocity": 0.47,
      "role": "chord",
      "is_tied": false
    },
    {
      "midi": 76,
      "name": "E5",
      "start": 216.0448,
      "duration": 0.4478,
      "bar": 61,
      "beat": 2.25,
      "duration_beats": 0.5,
      "velocity": 0.42,
      "role": "melody",
      "is_tied": false
    },
    {
      "midi": 57,
      "name": "A3",
      "start": 216.0448,
      "duration": 1.791,
      "bar": 61,
      "beat": 2.25,
      "duration_beats": 2.0,
      "velocity": 1.0,
      "role": "chord",
      "is_tied": false
    },
    {
      "midi": 50,
      "name": "D3",
      "start": 216.0448,
      "duration": 1.791,
      "bar": 61,
      "beat": 2.25,
      "duration_beats": 2.0,
      "velocity": 0.38,
      "role": "chord",
      "is_tied": false
    },
    {
      "midi": 57,
      "name": "A3",
      "start": 216.4925,
      "duration": 1.3433,
      "bar": 61,
      "beat": 2.75,
      "duration_beats": 1.5,
      "velocity": 0.78,
      "role": "chord",
      "is_tied": false
    },
    {
      "midi": 54,
      "name": "F#3",
      "start": 216.4925,
      "duration": 2.6866,
      "bar": 61,
      "beat": 2.75,
      "duration_beats": 3.0,
      "velocity": 0.93,
      "role": "chord",
      "is_tied": false
    },
    {
      "midi": 52,
      "name": "E3",
      "start": 216.4925,
      "duration": 0.4478,
      "bar": 61,
      "beat": 2.75,
      "duration_beats": 0.5,
      "velocity": 0.67,
      "role": "chord",
      "is_tied": false
    },
    {
      "midi": 50,
      "name": "D3",
      "start": 216.4925,
      "duration": 0.8955,
      "bar": 61,
      "beat": 2.75,
      "duration_beats": 1.0,
      "velocity": 0.77,
      "role": "chord",
      "is_tied": false
    },
    {
      "midi": 73,
      "name": "C#5",
      "start": 216.9403,
      "duration": 0.4478,
      "bar": 61,
      "beat": 3.25,
      "duration_beats": 0.5,
      "velocity": 0.34,
      "role": "melody",
      "is_tied": false
    },
    {
      "midi": 74,
      "name": "D5",
      "start": 217.3881,
      "duration": 1.791,
      "bar": 61,
      "beat": 3.75,
      "duration_beats": 2.0,
      "velocity": 1.0,
      "role": "melody",
      "is_tied": false
    },
    {
      "midi": 71,
      "name": "B4",
      "start": 217.3881,
      "duration": 0.4478,
      "bar": 61,
      "beat": 3.75,
      "duration_beats": 0.5,
      "velocity": 0.44,
      "role": "melody",
      "is_tied": false
    },
    {
      "midi": 50,
      "name": "D3",
      "start": 217.3881,
      "duration": 0.2239,
      "bar": 61,
      "beat": 3.75,
      "duration_beats": 0.25,
      "velocity": 0.81,
      "role": "chord",
      "is_tied": true
    },
    {
      "midi": 69,
      "name": "A4",
      "start": 217.6119,
      "duration": 0.2239,
      "bar": 61,
      "beat": 4.0,
      "duration_beats": 0.25,
      "velocity": 1.0,
      "role": "chord",
      "is_tied": false
    },
    {
      "midi": 40,
      "name": "E2",
      "start": 217.6119,
      "duration": 0.2239,
      "bar": 61,
      "beat": 4.0,
      "duration_beats": 0.25,
      "velocity": 1.0,
      "role": "bass",
      "is_tied": false
    },
    {
      "midi": 83,
      "name": "B5",
      "start": 217.8358,
      "duration": 0.2239,
      "bar": 61,
      "beat": 4.25,
      "duration_beats": 0.25,
      "velocity": 0.65,
      "role": "melody",
      "is_tied": false
    },
    {
      "midi": 74,
      "name": "D5",
      "start": 217.8358,
      "duration": 1.3433,
      "bar": 61,
      "beat": 4.25,
      "duration_beats": 1.5,
      "velocity": 0.78,
      "role": "melody",
      "is_tied": false
    },
    {
      "midi": 50,
      "name": "D3",
      "start": 217.8358,
      "duration": 0.2239,
      "bar": 61,
      "beat": 4.25,
      "duration_beats": 0.25,
      "velocity": 0.45,
      "role": "chord",
      "is_tied": false
    },
    {
      "midi": 40,
      "name": "E2",
      "start": 217.8358,
      "duration": 0.4478,
      "bar": 61,
      "beat": 4.25,
      "duration_beats": 0.5,
      "velocity": 0.86,
      "role": "bass",
      "is_tied": false
    },
    {
      "midi": 64,
      "name": "E4",
      "start": 218.0597,
      "duration": 0.2239,
      "bar": 61,
      "beat": 4.5,
      "duration_beats": 0.25,
      "velocity": 1.0,
      "role": "melody",
      "is_tied": false
    },
    {
      "midi": 66,
      "name": "F#4",
      "start": 218.2836,
      "duration": 0.4478,
      "bar": 61,
      "beat": 4.75,
      "duration_beats": 0.5,
      "velocity": 1.0,
      "role": "melody",
      "is_tied": false
    },
    {
      "midi": 50,
      "name": "D3",
      "start": 218.2836,
      "duration": 0.8955,
      "bar": 61,
      "beat": 4.75,
      "duration_beats": 1.0,
      "velocity": 0.66,
      "role": "chord",
      "is_tied": false
    },
    {
      "midi": 74,
      "name": "D5",
      "start": 218.7313,
      "duration": 0.2239,
      "bar": 62,
      "beat": 1.25,
      "duration_beats": 0.25,
      "velocity": 0.92,
      "role": "melody",
      "is_tied": false
    },
    {
      "midi": 57,
      "name": "A3",
      "start": 218.7313,
      "duration": 0.2239,
      "bar": 62,
      "beat": 1.25,
      "duration_beats": 0.25,
      "velocity": 0.59,
      "role": "chord",
      "is_tied": false
    },
    {
      "midi": 54,
      "name": "F#3",
      "start": 218.7313,
      "duration": 0.6716,
      "bar": 62,
      "beat": 1.25,
      "duration_beats": 0.75,
      "velocity": 0.79,
      "role": "bass",
      "is_tied": false
    },
    {
      "midi": 50,
      "name": "D3",
      "start": 218.7313,
      "duration": 0.6716,
      "bar": 62,
      "beat": 1.25,
      "duration_beats": 0.75,
      "velocity": 0.59,
      "role": "chord",
      "is_tied": false
    },
    {
      "midi": 73,
      "name": "C#5",
      "start": 218.9552,
      "duration": 0.4478,
      "bar": 62,
      "beat": 1.5,
      "duration_beats": 0.5,
      "velocity": 0.74,
      "role": "melody",
      "is_tied": false
    },
    {
      "midi": 69,
      "name": "A4",
      "start": 218.9552,
      "duration": 0.2239,
      "bar": 62,
      "beat": 1.5,
      "duration_beats": 0.25,
      "velocity": 0.31,
      "role": "melody",
      "is_tied": false
    },
    {
      "midi": 62,
      "name": "D4",
      "start": 218.9552,
      "duration": 0.4478,
      "bar": 62,
      "beat": 1.5,
      "duration_beats": 0.5,
      "velocity": 0.91,
      "role": "chord",
      "is_tied": false
    },
    {
      "midi": 59,
      "name": "B3",
      "start": 218.9552,
      "duration": 0.4478,
      "bar": 62,
      "beat": 1.5,
      "duration_beats": 0.5,
      "velocity": 0.43,
      "role": "chord",
      "is_tied": false
    },
    {
      "midi": 65,
      "name": "F4",
      "start": 219.1791,
      "duration": 0.2239,
      "bar": 62,
      "beat": 1.75,
      "duration_beats": 0.25,
      "velocity": 1.0,
      "role": "chord",
      "is_tied": false
    },
    {
      "midi": 56,
      "name": "G#3",
      "start": 219.1791,
      "duration": 0.2239,
      "bar": 62,
      "beat": 1.75,
      "duration_beats": 0.25,
      "velocity": 0.63,
      "role": "chord",
      "is_tied": false
    },
    {
      "midi": 73,
      "name": "C#5",
      "start": 219.403,
      "duration": 1.3433,
      "bar": 62,
      "beat": 2.0,
      "duration_beats": 1.5,
      "velocity": 0.65,
      "role": "melody",
      "is_tied": false
    },
    {
      "midi": 72,
      "name": "C5",
      "start": 219.403,
      "duration": 0.2239,
      "bar": 62,
      "beat": 2.0,
      "duration_beats": 0.25,
      "velocity": 1.0,
      "role": "melody",
      "is_tied": false
    },
    {
      "midi": 70,
      "name": "A#4",
      "start": 219.403,
      "duration": 0.2239,
      "bar": 62,
      "beat": 2.0,
      "duration_beats": 0.25,
      "velocity": 0.54,
      "role": "chord",
      "is_tied": false
    },
    {
      "midi": 49,
      "name": "C#3",
      "start": 219.403,
      "duration": 0.2239,
      "bar": 62,
      "beat": 2.0,
      "duration_beats": 0.25,
      "velocity": 0.79,
      "role": "chord",
      "is_tied": false
    },
    {
      "midi": 46,
      "name": "A#2",
      "start": 219.403,
      "duration": 0.2239,
      "bar": 62,
      "beat": 2.0,
      "duration_beats": 0.25,
      "velocity": 1.0,
      "role": "bass",
      "is_tied": false
    },
    {
      "midi": 64,
      "name": "E4",
      "start": 219.8507,
      "duration": 0.8955,
      "bar": 62,
      "beat": 2.5,
      "duration_beats": 1.0,
      "velocity": 1.0,
      "role": "chord",
      "is_tied": false
    },
    {
      "midi": 57,
      "name": "A3",
      "start": 219.8507,
      "duration": 1.3433,
      "bar": 62,
      "beat": 2.5,
      "duration_beats": 1.5,
      "velocity": 0.6,
      "role": "chord",
      "is_tied": false
    },
    {
      "midi": 71,
      "name": "B4",
      "start": 220.7463,
      "duration": 0.4478,
      "bar": 62,
      "beat": 3.5,
      "duration_beats": 0.5,
      "velocity": 0.9,
      "role": "melody",
      "is_tied": false
    },
    {
      "midi": 70,
      "name": "A#4",
      "start": 220.7463,
      "duration": 0.4478,
      "bar": 62,
      "beat": 3.5,
      "duration_beats": 0.5,
      "velocity": 0.42,
      "role": "chord",
      "is_tied": false
    },
    {
      "midi": 55,
      "name": "G3",
      "start": 220.7463,
      "duration": 1.3433,
      "bar": 62,
      "beat": 3.5,
      "duration_beats": 1.5,
      "velocity": 0.52,
      "role": "chord",
      "is_tied": false
    },
    {
      "midi": 50,
      "name": "D3",
      "start": 220.7463,
      "duration": 0.2239,
      "bar": 62,
      "beat": 3.5,
      "duration_beats": 0.25,
      "velocity": 0.36,
      "role": "chord",
      "is_tied": false
    },
    {
      "midi": 45,
      "name": "A2",
      "start": 220.7463,
      "duration": 0.8955,
      "bar": 62,
      "beat": 3.5,
      "duration_beats": 1.0,
      "velocity": 1.0,
      "role": "bass",
      "is_tied": false
    },
    {
      "midi": 74,
      "name": "D5",
      "start": 220.9701,
      "duration": 0.4478,
      "bar": 62,
      "beat": 3.75,
      "duration_beats": 0.5,
      "velocity": 0.83,
      "role": "melody",
      "is_tied": false
    },
    {
      "midi": 67,
      "name": "G4",
      "start": 220.9701,
      "duration": 0.6716,
      "bar": 62,
      "beat": 3.75,
      "duration_beats": 0.75,
      "velocity": 1.0,
      "role": "chord",
      "is_tied": false
    },
    {
      "midi": 52,
      "name": "E3",
      "start": 220.9701,
      "duration": 0.2239,
      "bar": 62,
      "beat": 3.75,
      "duration_beats": 0.25,
      "velocity": 0.56,
      "role": "chord",
      "is_tied": false
    },
    {
      "midi": 49,
      "name": "C#3",
      "start": 220.9701,
      "duration": 0.2239,
      "bar": 62,
      "beat": 3.75,
      "duration_beats": 0.25,
      "velocity": 0.5,
      "role": "chord",
      "is_tied": false
    },
    {
      "midi": 83,
      "name": "B5",
      "start": 221.194,
      "duration": 0.2239,
      "bar": 62,
      "beat": 4.0,
      "duration_beats": 0.25,
      "velocity": 0.66,
      "role": "melody",
      "is_tied": false
    },
    {
      "midi": 76,
      "name": "E5",
      "start": 221.4179,
      "duration": 1.3433,
      "bar": 62,
      "beat": 4.25,
      "duration_beats": 1.5,
      "velocity": 0.33,
      "role": "melody",
      "is_tied": false
    },
    {
      "midi": 48,
      "name": "C3",
      "start": 221.4179,
      "duration": 0.2239,
      "bar": 62,
      "beat": 4.25,
      "duration_beats": 0.25,
      "velocity": 1.0,
      "role": "chord",
      "is_tied": false
    },
    {
      "midi": 76,
      "name": "E5",
      "start": 221.6418,
      "duration": 0.8955,
      "bar": 62,
      "beat": 4.5,
      "duration_beats": 1.0,
      "velocity": 0.66,
      "role": "melody",
      "is_tied": false
    },
    {
      "midi": 60,
      "name": "C4",
      "start": 221.6418,
      "duration": 0.6716,
      "bar": 62,
      "beat": 4.5,
      "duration_beats": 0.75,
      "velocity": 0.83,
      "role": "chord",
      "is_tied": false
    },
    {
      "midi": 55,
      "name": "G3",
      "start": 221.6418,
      "duration": 0.6716,
      "bar": 62,
      "beat": 4.5,
      "duration_beats": 0.75,
      "velocity": 0.73,
      "role": "chord",
      "is_tied": false
    },
    {
      "midi": 78,
      "name": "F#5",
      "start": 221.8657,
      "duration": 0.2239,
      "bar": 62,
      "beat": 4.75,
      "duration_beats": 0.25,
      "velocity": 0.94,
      "role": "melody",
      "is_tied": false
    },
    {
      "midi": 41,
      "name": "F2",
      "start": 221.8657,
      "duration": 0.2239,
      "bar": 62,
      "beat": 4.75,
      "duration_beats": 0.25,
      "velocity": 0.64,
      "role": "bass",
      "is_tied": true
    },
    {
      "midi": 45,
      "name": "A2",
      "start": 222.0896,
      "duration": 0.6716,
      "bar": 62,
      "beat": 5.0,
      "duration_beats": 0.75,
      "velocity": 1.0,
      "role": "bass",
      "is_tied": false
    },
    {
      "midi": 74,
      "name": "D5",
      "start": 222.3134,
      "duration": 0.8955,
      "bar": 63,
      "beat": 1.25,
      "duration_beats": 1.0,
      "velocity": 0.83,
      "role": "melody",
      "is_tied": false
    },
    {
      "midi": 69,
      "name": "A4",
      "start": 222.3134,
      "duration": 0.6716,
      "bar": 63,
      "beat": 1.25,
      "duration_beats": 0.75,
      "velocity": 0.38,
      "role": "chord",
      "is_tied": false
    },
    {
      "midi": 54,
      "name": "F#3",
      "start": 222.3134,
      "duration": 1.3433,
      "bar": 63,
      "beat": 1.25,
      "duration_beats": 1.5,
      "velocity": 1.0,
      "role": "bass",
      "is_tied": false
    },
    {
      "midi": 52,
      "name": "E3",
      "start": 222.3134,
      "duration": 0.4478,
      "bar": 63,
      "beat": 1.25,
      "duration_beats": 0.5,
      "velocity": 0.36,
      "role": "chord",
      "is_tied": false
    },
    {
      "midi": 83,
      "name": "B5",
      "start": 222.7612,
      "duration": 0.2239,
      "bar": 63,
      "beat": 1.75,
      "duration_beats": 0.25,
      "velocity": 0.49,
      "role": "melody",
      "is_tied": false
    },
    {
      "midi": 74,
      "name": "D5",
      "start": 222.7612,
      "duration": 0.4478,
      "bar": 63,
      "beat": 1.75,
      "duration_beats": 0.5,
      "velocity": 1.0,
      "role": "melody",
      "is_tied": false
    },
    {
      "midi": 54,
      "name": "F#3",
      "start": 222.7612,
      "duration": 0.8955,
      "bar": 63,
      "beat": 1.75,
      "duration_beats": 1.0,
      "velocity": 1.0,
      "role": "bass",
      "is_tied": false
    },
    {
      "midi": 72,
      "name": "C5",
      "start": 222.9851,
      "duration": 0.6716,
      "bar": 63,
      "beat": 2.0,
      "duration_beats": 0.75,
      "velocity": 1.0,
      "role": "melody",
      "is_tied": false
    },
    {
      "midi": 63,
      "name": "D#4",
      "start": 222.9851,
      "duration": 0.2239,
      "bar": 63,
      "beat": 2.0,
      "duration_beats": 0.25,
      "velocity": 1.0,
      "role": "chord",
      "is_tied": false
    },
    {
      "midi": 56,
      "name": "G#3",
      "start": 222.9851,
      "duration": 0.4478,
      "bar": 63,
      "beat": 2.0,
      "duration_beats": 0.5,
      "velocity": 0.68,
      "role": "chord",
      "is_tied": false
    },
    {
      "midi": 72,
      "name": "C5",
      "start": 223.209,
      "duration": 0.2239,
      "bar": 63,
      "beat": 2.25,
      "duration_beats": 0.25,
      "velocity": 0.62,
      "role": "melody",
      "is_tied": false
    },
    {
      "midi": 51,
      "name": "D#3",
      "start": 223.209,
      "duration": 0.2239,
      "bar": 63,
      "beat": 2.25,
      "duration_beats": 0.25,
      "velocity": 1.0,
      "role": "chord",
      "is_tied": false
    },
    {
      "midi": 44,
      "name": "G#2",
      "start": 223.209,
      "duration": 0.2239,
      "bar": 63,
      "beat": 2.25,
      "duration_beats": 0.25,
      "velocity": 1.0,
      "role": "bass",
      "is_tied": false
    },
    {
      "midi": 72,
      "name": "C5",
      "start": 223.4328,
      "duration": 0.2239,
      "bar": 63,
      "beat": 2.5,
      "duration_beats": 0.25,
      "velocity": 0.55,
      "role": "melody",
      "is_tied": true
    },
    {
      "midi": 59,
      "name": "B3",
      "start": 223.4328,
      "duration": 0.2239,
      "bar": 63,
      "beat": 2.5,
      "duration_beats": 0.25,
      "velocity": 0.52,
      "role": "chord",
      "is_tied": false
    },
    {
      "midi": 55,
      "name": "G3",
      "start": 223.4328,
      "duration": 0.2239,
      "bar": 63,
      "beat": 2.5,
      "duration_beats": 0.25,
      "velocity": 1.0,
      "role": "chord",
      "is_tied": false
    },
    {
      "midi": 51,
      "name": "D#3",
      "start": 223.4328,
      "duration": 0.2239,
      "bar": 63,
      "beat": 2.5,
      "duration_beats": 0.25,
      "velocity": 0.81,
      "role": "chord",
      "is_tied": true
    },
    {
      "midi": 50,
      "name": "D3",
      "start": 223.4328,
      "duration": 0.2239,
      "bar": 63,
      "beat": 2.5,
      "duration_beats": 0.25,
      "velocity": 1.0,
      "role": "chord",
      "is_tied": false
    },
    {
      "midi": 72,
      "name": "C5",
      "start": 223.6567,
      "duration": 0.2239,
      "bar": 63,
      "beat": 2.75,
      "duration_beats": 0.25,
      "velocity": 0.65,
      "role": "melody",
      "is_tied": false
    },
    {
      "midi": 59,
      "name": "B3",
      "start": 223.6567,
      "duration": 1.3433,
      "bar": 63,
      "beat": 2.75,
      "duration_beats": 1.5,
      "velocity": 0.52,
      "role": "chord",
      "is_tied": false
    },
    {
      "midi": 55,
      "name": "G3",
      "start": 223.6567,
      "duration": 0.2239,
      "bar": 63,
      "beat": 2.75,
      "duration_beats": 0.25,
      "velocity": 0.78,
      "role": "chord",
      "is_tied": false
    },
    {
      "midi": 52,
      "name": "E3",
      "start": 223.6567,
      "duration": 1.3433,
      "bar": 63,
      "beat": 2.75,
      "duration_beats": 1.5,
      "velocity": 0.57,
      "role": "chord",
      "is_tied": false
    },
    {
      "midi": 50,
      "name": "D3",
      "start": 223.6567,
      "duration": 3.5821,
      "bar": 63,
      "beat": 2.75,
      "duration_beats": 4.0,
      "velocity": 1.0,
      "role": "chord",
      "is_tied": false
    },
    {
      "midi": 74,
      "name": "D5",
      "start": 223.8806,
      "duration": 0.6716,
      "bar": 63,
      "beat": 3.0,
      "duration_beats": 0.75,
      "velocity": 1.0,
      "role": "melody",
      "is_tied": false
    },
    {
      "midi": 69,
      "name": "A4",
      "start": 223.8806,
      "duration": 0.2239,
      "bar": 63,
      "beat": 3.0,
      "duration_beats": 0.25,
      "velocity": 0.47,
      "role": "melody",
      "is_tied": false
    },
    {
      "midi": 54,
      "name": "F#3",
      "start": 223.8806,
      "duration": 0.6716,
      "bar": 63,
      "beat": 3.0,
      "duration_beats": 0.75,
      "velocity": 0.34,
      "role": "bass",
      "is_tied": true
    },
    {
      "midi": 69,
      "name": "A4",
      "start": 224.1045,
      "duration": 0.4478,
      "bar": 63,
      "beat": 3.25,
      "duration_beats": 0.5,
      "velocity": 0.62,
      "role": "melody",
      "is_tied": false
    },
    {
      "midi": 67,
      "name": "G4",
      "start": 224.1045,
      "duration": 0.4478,
      "bar": 63,
      "beat": 3.25,
      "duration_beats": 0.5,
      "velocity": 0.95,
      "role": "chord",
      "is_tied": false
    },
    {
      "midi": 62,
      "name": "D4",
      "start": 224.1045,
      "duration": 1.791,
      "bar": 63,
      "beat": 3.25,
      "duration_beats": 2.0,
      "velocity": 1.0,
      "role": "chord",
      "is_tied": false
    },
    {
      "midi": 78,
      "name": "F#5",
      "start": 224.5522,
      "duration": 0.8955,
      "bar": 63,
      "beat": 3.75,
      "duration_beats": 1.0,
      "velocity": 0.63,
      "role": "melody",
      "is_tied": false
    },
    {
      "midi": 71,
      "name": "B4",
      "start": 224.5522,
      "duration": 0.4478,
      "bar": 63,
      "beat": 3.75,
      "duration_beats": 0.5,
      "velocity": 1.0,
      "role": "melody",
      "is_tied": false
    },
    {
      "midi": 81,
      "name": "A5",
      "start": 225.0,
      "duration": 0.4478,
      "bar": 63,
      "beat": 4.25,
      "duration_beats": 0.5,
      "velocity": 0.97,
      "role": "melody",
      "is_tied": false
    },
    {
      "midi": 78,
      "name": "F#5",
      "start": 225.0,
      "duration": 0.4478,
      "bar": 63,
      "beat": 4.25,
      "duration_beats": 0.5,
      "velocity": 1.0,
      "role": "melody",
      "is_tied": false
    },
    {
      "midi": 52,
      "name": "E3",
      "start": 225.0,
      "duration": 0.2239,
      "bar": 63,
      "beat": 4.25,
      "duration_beats": 0.25,
      "velocity": 0.48,
      "role": "chord",
      "is_tied": false
    },
    {
      "midi": 43,
      "name": "G2",
      "start": 225.0,
      "duration": 0.2239,
      "bar": 63,
      "beat": 4.25,
      "duration_beats": 0.25,
      "velocity": 0.54,
      "role": "bass",
      "is_tied": false
    },
    {
      "midi": 59,
      "name": "B3",
      "start": 225.2239,
      "duration": 1.791,
      "bar": 63,
      "beat": 4.5,
      "duration_beats": 2.0,
      "velocity": 0.36,
      "role": "chord",
      "is_tied": false
    },
    {
      "midi": 57,
      "name": "A3",
      "start": 225.2239,
      "duration": 0.4478,
      "bar": 63,
      "beat": 4.5,
      "duration_beats": 0.5,
      "velocity": 0.35,
      "role": "chord",
      "is_tied": false
    },
    {
      "midi": 76,
      "name": "E5",
      "start": 225.4478,
      "duration": 0.2239,
      "bar": 63,
      "beat": 4.75,
      "duration_beats": 0.25,
      "velocity": 1.0,
      "role": "melody",
      "is_tied": false
    },
    {
      "midi": 78,
      "name": "F#5",
      "start": 225.6716,
      "duration": 0.2239,
      "bar": 64,
      "beat": 1.0,
      "duration_beats": 0.25,
      "velocity": 0.87,
      "role": "melody",
      "is_tied": false
    },
    {
      "midi": 83,
      "name": "B5",
      "start": 225.8955,
      "duration": 0.6716,
      "bar": 64,
      "beat": 1.25,
      "duration_beats": 0.75,
      "velocity": 0.67,
      "role": "melody",
      "is_tied": false
    },
    {
      "midi": 35,
      "name": "B1",
      "start": 225.8955,
      "duration": 0.2239,
      "bar": 64,
      "beat": 1.25,
      "duration_beats": 0.25,
      "velocity": 0.4,
      "role": "bass",
      "is_tied": false
    },
    {
      "midi": 81,
      "name": "A5",
      "start": 226.1194,
      "duration": 0.4478,
      "bar": 64,
      "beat": 1.5,
      "duration_beats": 0.5,
      "velocity": 1.0,
      "role": "melody",
      "is_tied": false
    },
    {
      "midi": 41,
      "name": "F2",
      "start": 226.1194,
      "duration": 0.4478,
      "bar": 64,
      "beat": 1.5,
      "duration_beats": 0.5,
      "velocity": 0.3,
      "role": "bass",
      "is_tied": false
    },
    {
      "midi": 71,
      "name": "B4",
      "start": 226.3433,
      "duration": 0.2239,
      "bar": 64,
      "beat": 1.75,
      "duration_beats": 0.25,
      "velocity": 0.64,
      "role": "chord",
      "is_tied": false
    },
    {
      "midi": 62,
      "name": "D4",
      "start": 226.3433,
      "duration": 0.8955,
      "bar": 64,
      "beat": 1.75,
      "duration_beats": 1.0,
      "velocity": 0.94,
      "role": "chord",
      "is_tied": false
    },
    {
      "midi": 74,
      "name": "D5",
      "start": 226.5672,
      "duration": 0.8955,
      "bar": 64,
      "beat": 2.0,
      "duration_beats": 1.0,
      "velocity": 1.0,
      "role": "melody",
      "is_tied": false
    },
    {
      "midi": 74,
      "name": "D5",
      "start": 226.791,
      "duration": 0.6716,
      "bar": 64,
      "beat": 2.25,
      "duration_beats": 0.75,
      "velocity": 1.0,
      "role": "melody",
      "is_tied": false
    },
    {
      "midi": 71,
      "name": "B4",
      "start": 226.791,
      "duration": 0.4478,
      "bar": 64,
      "beat": 2.25,
      "duration_beats": 0.5,
      "velocity": 1.0,
      "role": "chord",
      "is_tied": false
    },
    {
      "midi": 67,
      "name": "G4",
      "start": 226.791,
      "duration": 0.4478,
      "bar": 64,
      "beat": 2.25,
      "duration_beats": 0.5,
      "velocity": 0.7,
      "role": "chord",
      "is_tied": false
    },
    {
      "midi": 50,
      "name": "D3",
      "start": 226.791,
      "duration": 0.4478,
      "bar": 64,
      "beat": 2.25,
      "duration_beats": 0.5,
      "velocity": 0.77,
      "role": "chord",
      "is_tied": false
    },
    {
      "midi": 43,
      "name": "G2",
      "start": 226.791,
      "duration": 0.4478,
      "bar": 64,
      "beat": 2.25,
      "duration_beats": 0.5,
      "velocity": 1.0,
      "role": "bass",
      "is_tied": false
    },
    {
      "midi": 77,
      "name": "F5",
      "start": 227.2388,
      "duration": 0.4478,
      "bar": 64,
      "beat": 2.75,
      "duration_beats": 0.5,
      "velocity": 1.0,
      "role": "melody",
      "is_tied": false
    },
    {
      "midi": 58,
      "name": "A#3",
      "start": 227.2388,
      "duration": 0.4478,
      "bar": 64,
      "beat": 2.75,
      "duration_beats": 0.5,
      "velocity": 0.34,
      "role": "chord",
      "is_tied": false
    },
    {
      "midi": 57,
      "name": "A3",
      "start": 227.2388,
      "duration": 1.3433,
      "bar": 64,
      "beat": 2.75,
      "duration_beats": 1.5,
      "velocity": 0.3,
      "role": "chord",
      "is_tied": false
    },
    {
      "midi": 53,
      "name": "F3",
      "start": 227.2388,
      "duration": 0.8955,
      "bar": 64,
      "beat": 2.75,
      "duration_beats": 1.0,
      "velocity": 1.0,
      "role": "chord",
      "is_tied": false
    },
    {
      "midi": 77,
      "name": "F5",
      "start": 227.4627,
      "duration": 0.2239,
      "bar": 64,
      "beat": 3.0,
      "duration_beats": 0.25,
      "velocity": 1.0,
      "role": "melody",
      "is_tied": false
    },
    {
      "midi": 76,
      "name": "E5",
      "start": 227.4627,
      "duration": 0.4478,
      "bar": 64,
      "beat": 3.0,
      "duration_beats": 0.5,
      "velocity": 0.61,
      "role": "melody",
      "is_tied": false
    },
    {
      "midi": 58,
      "name": "A#3",
      "start": 227.4627,
      "duration": 0.2239,
      "bar": 64,
      "beat": 3.0,
      "duration_beats": 0.25,
      "velocity": 0.38,
      "role": "chord",
      "is_tied": false
    },
    {
      "midi": 53,
      "name": "F3",
      "start": 227.4627,
      "duration": 0.6716,
      "bar": 64,
      "beat": 3.0,
      "duration_beats": 0.75,
      "velocity": 1.0,
      "role": "chord",
      "is_tied": false
    },
    {
      "midi": 76,
      "name": "E5",
      "start": 227.6866,
      "duration": 0.2239,
      "bar": 64,
      "beat": 3.25,
      "duration_beats": 0.25,
      "velocity": 0.9,
      "role": "melody",
      "is_tied": false
    },
    {
      "midi": 72,
      "name": "C5",
      "start": 227.6866,
      "duration": 0.6716,
      "bar": 64,
      "beat": 3.25,
      "duration_beats": 0.75,
      "velocity": 0.73,
      "role": "melody",
      "is_tied": false
    },
    {
      "midi": 70,
      "name": "A#4",
      "start": 227.6866,
      "duration": 0.2239,
      "bar": 64,
      "beat": 3.25,
      "duration_beats": 0.25,
      "velocity": 0.56,
      "role": "chord",
      "is_tied": false
    },
    {
      "midi": 53,
      "name": "F3",
      "start": 227.6866,
      "duration": 0.6716,
      "bar": 64,
      "beat": 3.25,
      "duration_beats": 0.75,
      "velocity": 0.99,
      "role": "chord",
      "is_tied": false
    },
    {
      "midi": 46,
      "name": "A#2",
      "start": 227.6866,
      "duration": 0.4478,
      "bar": 64,
      "beat": 3.25,
      "duration_beats": 0.5,
      "velocity": 1.0,
      "role": "bass",
      "is_tied": false
    },
    {
      "midi": 67,
      "name": "G4",
      "start": 227.9104,
      "duration": 0.2239,
      "bar": 64,
      "beat": 3.5,
      "duration_beats": 0.25,
      "velocity": 0.36,
      "role": "melody",
      "is_tied": false
    },
    {
      "midi": 66,
      "name": "F#4",
      "start": 227.9104,
      "duration": 0.2239,
      "bar": 64,
      "beat": 3.5,
      "duration_beats": 0.25,
      "velocity": 0.55,
      "role": "chord",
      "is_tied": false
    },
    {
      "midi": 50,
      "name": "D3",
      "start": 227.9104,
      "duration": 1.791,
      "bar": 64,
      "beat": 3.5,
      "duration_beats": 2.0,
      "velocity": 0.55,
      "role": "chord",
      "is_tied": false
    },
    {
      "midi": 48,
      "name": "C3",
      "start": 227.9104,
      "duration": 0.2239,
      "bar": 64,
      "beat": 3.5,
      "duration_beats": 0.25,
      "velocity": 0.33,
      "role": "chord",
      "is_tied": false
    },
    {
      "midi": 62,
      "name": "D4",
      "start": 228.1343,
      "duration": 2.6866,
      "bar": 64,
      "beat": 3.75,
      "duration_beats": 3.0,
      "velocity": 1.0,
      "role": "chord",
      "is_tied": false
    },
    {
      "midi": 45,
      "name": "A2",
      "start": 228.1343,
      "duration": 0.2239,
      "bar": 64,
      "beat": 3.75,
      "duration_beats": 0.25,
      "velocity": 1.0,
      "role": "bass",
      "is_tied": false
    },
    {
      "midi": 70,
      "name": "A#4",
      "start": 228.3582,
      "duration": 0.4478,
      "bar": 64,
      "beat": 4.0,
      "duration_beats": 0.5,
      "velocity": 0.33,
      "role": "melody",
      "is_tied": false
    },
    {
      "midi": 69,
      "name": "A4",
      "start": 228.3582,
      "duration": 0.6716,
      "bar": 64,
      "beat": 4.0,
      "duration_beats": 0.75,
      "velocity": 1.0,
      "role": "melody",
      "is_tied": false
    },
    {
      "midi": 70,
      "name": "A#4",
      "start": 228.5821,
      "duration": 0.2239,
      "bar": 64,
      "beat": 4.25,
      "duration_beats": 0.25,
      "velocity": 0.33,
      "role": "melody",
      "is_tied": false
    },
    {
      "midi": 69,
      "name": "A4",
      "start": 228.5821,
      "duration": 0.4478,
      "bar": 64,
      "beat": 4.25,
      "duration_beats": 0.5,
      "velocity": 0.66,
      "role": "melody",
      "is_tied": false
    },
    {
      "midi": 62,
      "name": "D4",
      "start": 228.5821,
      "duration": 2.6866,
      "bar": 64,
      "beat": 4.25,
      "duration_beats": 3.0,
      "velocity": 0.96,
      "role": "chord",
      "is_tied": false
    },
    {
      "midi": 69,
      "name": "A4",
      "start": 228.806,
      "duration": 0.2239,
      "bar": 64,
      "beat": 4.5,
      "duration_beats": 0.25,
      "velocity": 0.32,
      "role": "melody",
      "is_tied": false
    },
    {
      "midi": 67,
      "name": "G4",
      "start": 228.806,
      "duration": 0.6716,
      "bar": 64,
      "beat": 4.5,
      "duration_beats": 0.75,
      "velocity": 0.66,
      "role": "melody",
      "is_tied": false
    },
    {
      "midi": 50,
      "name": "D3",
      "start": 228.806,
      "duration": 1.3433,
      "bar": 64,
      "beat": 4.5,
      "duration_beats": 1.5,
      "velocity": 0.62,
      "role": "chord",
      "is_tied": false
    },
    {
      "midi": 47,
      "name": "B2",
      "start": 228.806,
      "duration": 0.2239,
      "bar": 64,
      "beat": 4.5,
      "duration_beats": 0.25,
      "velocity": 0.54,
      "role": "bass",
      "is_tied": false
    },
    {
      "midi": 64,
      "name": "E4",
      "start": 229.2537,
      "duration": 0.2239,
      "bar": 65,
      "beat": 1.0,
      "duration_beats": 0.25,
      "velocity": 1.0,
      "role": "melody",
      "is_tied": false
    },
    {
      "midi": 58,
      "name": "A#3",
      "start": 229.2537,
      "duration": 2.6866,
      "bar": 65,
      "beat": 1.0,
      "duration_beats": 3.0,
      "velocity": 0.7,
      "role": "chord",
      "is_tied": false
    },
    {
      "midi": 74,
      "name": "D5",
      "start": 229.4776,
      "duration": 0.2239,
      "bar": 65,
      "beat": 1.25,
      "duration_beats": 0.25,
      "velocity": 0.67,
      "role": "melody",
      "is_tied": false
    },
    {
      "midi": 58,
      "name": "A#3",
      "start": 229.4776,
      "duration": 2.6866,
      "bar": 65,
      "beat": 1.25,
      "duration_beats": 3.0,
      "velocity": 0.59,
      "role": "chord",
      "is_tied": false
    },
    {
      "midi": 50,
      "name": "D3",
      "start": 229.4776,
      "duration": 0.6716,
      "bar": 65,
      "beat": 1.25,
      "duration_beats": 0.75,
      "velocity": 0.65,
      "role": "chord",
      "is_tied": false
    },
    {
      "midi": 65,
      "name": "F4",
      "start": 229.7015,
      "duration": 0.6716,
      "bar": 65,
      "beat": 1.5,
      "duration_beats": 0.75,
      "velocity": 1.0,
      "role": "chord",
      "is_tied": false
    },
    {
      "midi": 64,
      "name": "E4",
      "start": 229.7015,
      "duration": 1.3433,
      "bar": 65,
      "beat": 1.5,
      "duration_beats": 1.5,
      "velocity": 1.0,
      "role": "melody",
      "is_tied": false
    },
    {
      "midi": 62,
      "name": "D4",
      "start": 229.7015,
      "duration": 1.3433,
      "bar": 65,
      "beat": 1.5,
      "duration_beats": 1.5,
      "velocity": 0.49,
      "role": "chord",
      "is_tied": false
    },
    {
      "midi": 60,
      "name": "C4",
      "start": 229.7015,
      "duration": 1.3433,
      "bar": 65,
      "beat": 1.5,
      "duration_beats": 1.5,
      "velocity": 0.74,
      "role": "chord",
      "is_tied": false
    },
    {
      "midi": 33,
      "name": "A1",
      "start": 230.1493,
      "duration": 0.4478,
      "bar": 65,
      "beat": 2.0,
      "duration_beats": 0.5,
      "velocity": 0.38,
      "role": "bass",
      "is_tied": false
    },
    {
      "midi": 72,
      "name": "C5",
      "start": 230.597,
      "duration": 0.4478,
      "bar": 65,
      "beat": 2.5,
      "duration_beats": 0.5,
      "velocity": 0.32,
      "role": "melody",
      "is_tied": false
    },
    {
      "midi": 52,
      "name": "E3",
      "start": 230.597,
      "duration": 0.4478,
      "bar": 65,
      "beat": 2.5,
      "duration_beats": 0.5,
      "velocity": 0.41,
      "role": "chord",
      "is_tied": false
    },
    {
      "midi": 70,
      "name": "A#4",
      "start": 231.0448,
      "duration": 0.6716,
      "bar": 65,
      "beat": 3.0,
      "duration_beats": 0.75,
      "velocity": 0.65,
      "role": "melody",
      "is_tied": false
    },
    {
      "midi": 50,
      "name": "D3",
      "start": 231.0448,
      "duration": 0.8955,
      "bar": 65,
      "beat": 3.0,
      "duration_beats": 1.0,
      "velocity": 0.88,
      "role": "chord",
      "is_tied": false
    },
    {
      "midi": 41,
      "name": "F2",
      "start": 231.0448,
      "duration": 0.8955,
      "bar": 65,
      "beat": 3.0,
      "duration_beats": 1.0,
      "velocity": 0.4,
      "role": "bass",
      "is_tied": false
    },
    {
      "midi": 71,
      "name": "B4",
      "start": 231.7164,
      "duration": 0.6716,
      "bar": 65,
      "beat": 3.75,
      "duration_beats": 0.75,
      "velocity": 0.63,
      "role": "melody",
      "is_tied": false
    },
    {
      "midi": 45,
      "name": "A2",
      "start": 231.7164,
      "duration": 0.6716,
      "bar": 65,
      "beat": 3.75,
      "duration_beats": 0.75,
      "velocity": 1.0,
      "role": "bass",
      "is_tied": false
    },
    {
      "midi": 74,
      "name": "D5",
      "start": 231.9403,
      "duration": 0.8955,
      "bar": 65,
      "beat": 4.0,
      "duration_beats": 1.0,
      "velocity": 1.0,
      "role": "melody",
      "is_tied": false
    },
    {
      "midi": 71,
      "name": "B4",
      "start": 231.9403,
      "duration": 0.4478,
      "bar": 65,
      "beat": 4.0,
      "duration_beats": 0.5,
      "velocity": 0.43,
      "role": "melody",
      "is_tied": false
    },
    {
      "midi": 33,
      "name": "A1",
      "start": 231.9403,
      "duration": 0.6716,
      "bar": 65,
      "beat": 4.0,
      "duration_beats": 0.75,
      "velocity": 0.66,
      "role": "bass",
      "is_tied": false
    },
    {
      "midi": 69,
      "name": "A4",
      "start": 232.3881,
      "duration": 0.4478,
      "bar": 65,
      "beat": 4.5,
      "duration_beats": 0.5,
      "velocity": 1.0,
      "role": "chord",
      "is_tied": false
    },
    {
      "midi": 50,
      "name": "D3",
      "start": 232.3881,
      "duration": 0.4478,
      "bar": 65,
      "beat": 4.5,
      "duration_beats": 0.5,
      "velocity": 0.31,
      "role": "chord",
      "is_tied": false
    },
    {
      "midi": 67,
      "name": "G4",
      "start": 232.6119,
      "duration": 0.6716,
      "bar": 65,
      "beat": 4.75,
      "duration_beats": 0.75,
      "velocity": 0.64,
      "role": "melody",
      "is_tied": false
    },
    {
      "midi": 71,
      "name": "B4",
      "start": 232.8358,
      "duration": 0.4478,
      "bar": 66,
      "beat": 1.0,
      "duration_beats": 0.5,
      "velocity": 0.58,
      "role": "melody",
      "is_tied": false
    },
    {
      "midi": 69,
      "name": "A4",
      "start": 232.8358,
      "duration": 0.2239,
      "bar": 66,
      "beat": 1.0,
      "duration_beats": 0.25,
      "velocity": 0.65,
      "role": "melody",
      "is_tied": true
    },
    {
      "midi": 54,
      "name": "F#3",
      "start": 232.8358,
      "duration": 1.791,
      "bar": 66,
      "beat": 1.0,
      "duration_beats": 2.0,
      "velocity": 0.96,
      "role": "bass",
      "is_tied": false
    },
    {
      "midi": 74,
      "name": "D5",
      "start": 233.0597,
      "duration": 0.4478,
      "bar": 66,
      "beat": 1.25,
      "duration_beats": 0.5,
      "velocity": 0.33,
      "role": "melody",
      "is_tied": false
    },
    {
      "midi": 66,
      "name": "F#4",
      "start": 233.0597,
      "duration": 1.3433,
      "bar": 66,
      "beat": 1.25,
      "duration_beats": 1.5,
      "velocity": 0.37,
      "role": "melody",
      "is_tied": false
    },
    {
      "midi": 35,
      "name": "B1",
      "start": 233.0597,
      "duration": 0.8955,
      "bar": 66,
      "beat": 1.25,
      "duration_beats": 1.0,
      "velocity": 0.32,
      "role": "bass",
      "is_tied": false
    },
    {
      "midi": 50,
      "name": "D3",
      "start": 233.7313,
      "duration": 0.4478,
      "bar": 66,
      "beat": 2.0,
      "duration_beats": 0.5,
      "velocity": 0.57,
      "role": "chord",
      "is_tied": false
    },
    {
      "midi": 54,
      "name": "F#3",
      "start": 233.9552,
      "duration": 0.8955,
      "bar": 66,
      "beat": 2.25,
      "duration_beats": 1.0,
      "velocity": 0.78,
      "role": "bass",
      "is_tied": false
    },
    {
      "midi": 67,
      "name": "G4",
      "start": 234.1791,
      "duration": 0.2239,
      "bar": 66,
      "beat": 2.5,
      "duration_beats": 0.25,
      "velocity": 0.72,
      "role": "melody",
      "is_tied": false
    },
    {
      "midi": 54,
      "name": "F#3",
      "start": 234.1791,
      "duration": 0.6716,
      "bar": 66,
      "beat": 2.5,
      "duration_beats": 0.75,
      "velocity": 1.0,
      "role": "bass",
      "is_tied": false
    },
    {
      "midi": 74,
      "name": "D5",
      "start": 234.403,
      "duration": 0.4478,
      "bar": 66,
      "beat": 2.75,
      "duration_beats": 0.5,
      "velocity": 0.31,
      "role": "melody",
      "is_tied": false
    },
    {
      "midi": 64,
      "name": "E4",
      "start": 234.403,
      "duration": 0.8955,
      "bar": 66,
      "beat": 2.75,
      "duration_beats": 1.0,
      "velocity": 1.0,
      "role": "melody",
      "is_tied": false
    },
    {
      "midi": 62,
      "name": "D4",
      "start": 234.403,
      "duration": 0.4478,
      "bar": 66,
      "beat": 2.75,
      "duration_beats": 0.5,
      "velocity": 1.0,
      "role": "chord",
      "is_tied": false
    },
    {
      "midi": 55,
      "name": "G3",
      "start": 234.403,
      "duration": 1.791,
      "bar": 66,
      "beat": 2.75,
      "duration_beats": 2.0,
      "velocity": 0.5,
      "role": "chord",
      "is_tied": false
    },
    {
      "midi": 60,
      "name": "C4",
      "start": 234.8507,
      "duration": 0.8955,
      "bar": 66,
      "beat": 3.25,
      "duration_beats": 1.0,
      "velocity": 0.82,
      "role": "chord",
      "is_tied": false
    },
    {
      "midi": 57,
      "name": "A3",
      "start": 234.8507,
      "duration": 0.8955,
      "bar": 66,
      "beat": 3.25,
      "duration_beats": 1.0,
      "velocity": 0.66,
      "role": "chord",
      "is_tied": false
    },
    {
      "midi": 52,
      "name": "E3",
      "start": 234.8507,
      "duration": 0.6716,
      "bar": 66,
      "beat": 3.25,
      "duration_beats": 0.75,
      "velocity": 0.64,
      "role": "chord",
      "is_tied": false
    },
    {
      "midi": 50,
      "name": "D3",
      "start": 234.8507,
      "duration": 0.8955,
      "bar": 66,
      "beat": 3.25,
      "duration_beats": 1.0,
      "velocity": 0.71,
      "role": "chord",
      "is_tied": false
    },
    {
      "midi": 71,
      "name": "B4",
      "start": 235.5224,
      "duration": 0.2239,
      "bar": 66,
      "beat": 4.0,
      "duration_beats": 0.25,
      "velocity": 0.84,
      "role": "melody",
      "is_tied": false
    },
    {
      "midi": 60,
      "name": "C4",
      "start": 235.5224,
      "duration": 0.2239,
      "bar": 66,
      "beat": 4.0,
      "duration_beats": 0.25,
      "velocity": 0.41,
      "role": "chord",
      "is_tied": false
    },
    {
      "midi": 57,
      "name": "A3",
      "start": 235.5224,
      "duration": 0.2239,
      "bar": 66,
      "beat": 4.0,
      "duration_beats": 0.25,
      "velocity": 0.8,
      "role": "chord",
      "is_tied": false
    },
    {
      "midi": 55,
      "name": "G3",
      "start": 235.5224,
      "duration": 1.3433,
      "bar": 66,
      "beat": 4.0,
      "duration_beats": 1.5,
      "velocity": 0.71,
      "role": "chord",
      "is_tied": false
    },
    {
      "midi": 50,
      "name": "D3",
      "start": 235.5224,
      "duration": 0.2239,
      "bar": 66,
      "beat": 4.0,
      "duration_beats": 0.25,
      "velocity": 0.39,
      "role": "chord",
      "is_tied": false
    },
    {
      "midi": 74,
      "name": "D5",
      "start": 235.7463,
      "duration": 0.6716,
      "bar": 66,
      "beat": 4.25,
      "duration_beats": 0.75,
      "velocity": 1.0,
      "role": "melody",
      "is_tied": false
    },
    {
      "midi": 64,
      "name": "E4",
      "start": 235.7463,
      "duration": 0.2239,
      "bar": 66,
      "beat": 4.25,
      "duration_beats": 0.25,
      "velocity": 0.4,
      "role": "melody",
      "is_tied": false
    },
    {
      "midi": 41,
      "name": "F2",
      "start": 235.7463,
      "duration": 0.2239,
      "bar": 66,
      "beat": 4.25,
      "duration_beats": 0.25,
      "velocity": 1.0,
      "role": "bass",
      "is_tied": false
    },
    {
      "midi": 71,
      "name": "B4",
      "start": 235.9701,
      "duration": 2.6866,
      "bar": 66,
      "beat": 4.5,
      "duration_beats": 3.0,
      "velocity": 0.42,
      "role": "melody",
      "is_tied": false
    },
    {
      "midi": 57,
      "name": "A3",
      "start": 235.9701,
      "duration": 0.2239,
      "bar": 66,
      "beat": 4.5,
      "duration_beats": 0.25,
      "velocity": 0.62,
      "role": "chord",
      "is_tied": false
    },
    {
      "midi": 52,
      "name": "E3",
      "start": 235.9701,
      "duration": 1.791,
      "bar": 66,
      "beat": 4.5,
      "duration_beats": 2.0,
      "velocity": 0.42,
      "role": "chord",
      "is_tied": false
    },
    {
      "midi": 50,
      "name": "D3",
      "start": 236.194,
      "duration": 1.3433,
      "bar": 66,
      "beat": 4.75,
      "duration_beats": 1.5,
      "velocity": 0.37,
      "role": "chord",
      "is_tied": false
    },
    {
      "midi": 64,
      "name": "E4",
      "start": 236.4179,
      "duration": 0.2239,
      "bar": 67,
      "beat": 1.0,
      "duration_beats": 0.25,
      "velocity": 0.99,
      "role": "chord",
      "is_tied": false
    },
    {
      "midi": 83,
      "name": "B5",
      "start": 236.6418,
      "duration": 0.4478,
      "bar": 67,
      "beat": 1.25,
      "duration_beats": 0.5,
      "velocity": 1.0,
      "role": "melody",
      "is_tied": false
    },
    {
      "midi": 48,
      "name": "C3",
      "start": 236.6418,
      "duration": 0.6716,
      "bar": 67,
      "beat": 1.25,
      "duration_beats": 0.75,
      "velocity": 0.38,
      "role": "chord",
      "is_tied": false
    },
    {
      "midi": 71,
      "name": "B4",
      "start": 237.0896,
      "duration": 1.3433,
      "bar": 67,
      "beat": 1.75,
      "duration_beats": 1.5,
      "velocity": 0.77,
      "role": "melody",
      "is_tied": false
    },
    {
      "midi": 42,
      "name": "F#2",
      "start": 237.0896,
      "duration": 0.6716,
      "bar": 67,
      "beat": 1.75,
      "duration_beats": 0.75,
      "velocity": 0.89,
      "role": "bass",
      "is_tied": false
    },
    {
      "midi": 71,
      "name": "B4",
      "start": 237.3134,
      "duration": 0.8955,
      "bar": 67,
      "beat": 2.0,
      "duration_beats": 1.0,
      "velocity": 0.33,
      "role": "melody",
      "is_tied": false
    },
    {
      "midi": 52,
      "name": "E3",
      "start": 237.3134,
      "duration": 0.2239,
      "bar": 67,
      "beat": 2.0,
      "duration_beats": 0.25,
      "velocity": 0.5,
      "role": "chord",
      "is_tied": false
    },
    {
      "midi": 42,
      "name": "F#2",
      "start": 237.3134,
      "duration": 0.2239,
      "bar": 67,
      "beat": 2.0,
      "duration_beats": 0.25,
      "velocity": 1.0,
      "role": "bass",
      "is_tied": false
    },
    {
      "midi": 74,
      "name": "D5",
      "start": 237.5373,
      "duration": 0.8955,
      "bar": 67,
      "beat": 2.25,
      "duration_beats": 1.0,
      "velocity": 1.0,
      "role": "melody",
      "is_tied": false
    },
    {
      "midi": 60,
      "name": "C4",
      "start": 237.5373,
      "duration": 0.8955,
      "bar": 67,
      "beat": 2.25,
      "duration_beats": 1.0,
      "velocity": 1.0,
      "role": "chord",
      "is_tied": false
    },
    {
      "midi": 56,
      "name": "G#3",
      "start": 237.5373,
      "duration": 0.6716,
      "bar": 67,
      "beat": 2.25,
      "duration_beats": 0.75,
      "velocity": 0.75,
      "role": "chord",
      "is_tied": false
    },
    {
      "midi": 51,
      "name": "D#3",
      "start": 237.5373,
      "duration": 0.6716,
      "bar": 67,
      "beat": 2.25,
      "duration_beats": 0.75,
      "velocity": 0.47,
      "role": "chord",
      "is_tied": false
    },
    {
      "midi": 66,
      "name": "F#4",
      "start": 238.209,
      "duration": 0.8955,
      "bar": 67,
      "beat": 3.0,
      "duration_beats": 1.0,
      "velocity": 0.73,
      "role": "melody",
      "is_tied": false
    },
    {
      "midi": 67,
      "name": "G4",
      "start": 238.6567,
      "duration": 0.6716,
      "bar": 67,
      "beat": 3.5,
      "duration_beats": 0.75,
      "velocity": 0.38,
      "role": "melody",
      "is_tied": false
    },
    {
      "midi": 66,
      "name": "F#4",
      "start": 238.6567,
      "duration": 0.6716,
      "bar": 67,
      "beat": 3.5,
      "duration_beats": 0.75,
      "velocity": 0.58,
      "role": "melody",
      "is_tied": false
    },
    {
      "midi": 52,
      "name": "E3",
      "start": 238.6567,
      "duration": 1.3433,
      "bar": 67,
      "beat": 3.5,
      "duration_beats": 1.5,
      "velocity": 0.65,
      "role": "chord",
      "is_tied": false
    },
    {
      "midi": 43,
      "name": "G2",
      "start": 238.6567,
      "duration": 0.8955,
      "bar": 67,
      "beat": 3.5,
      "duration_beats": 1.0,
      "velocity": 1.0,
      "role": "bass",
      "is_tied": false
    },
    {
      "midi": 74,
      "name": "D5",
      "start": 239.3284,
      "duration": 1.3433,
      "bar": 67,
      "beat": 4.25,
      "duration_beats": 1.5,
      "velocity": 0.47,
      "role": "melody",
      "is_tied": false
    },
    {
      "midi": 69,
      "name": "A4",
      "start": 239.3284,
      "duration": 0.2239,
      "bar": 67,
      "beat": 4.25,
      "duration_beats": 0.25,
      "velocity": 1.0,
      "role": "melody",
      "is_tied": false
    },
    {
      "midi": 83,
      "name": "B5",
      "start": 239.5522,
      "duration": 0.8955,
      "bar": 67,
      "beat": 4.5,
      "duration_beats": 1.0,
      "velocity": 0.42,
      "role": "melody",
      "is_tied": false
    },
    {
      "midi": 42,
      "name": "F#2",
      "start": 239.5522,
      "duration": 0.4478,
      "bar": 67,
      "beat": 4.5,
      "duration_beats": 0.5,
      "velocity": 1.0,
      "role": "bass",
      "is_tied": false
    },
    {
      "midi": 70,
      "name": "A#4",
      "start": 240.0,
      "duration": 0.2239,
      "bar": 68,
      "beat": 1.0,
      "duration_beats": 0.25,
      "velocity": 1.0,
      "role": "chord",
      "is_tied": false
    },
    {
      "midi": 74,
      "name": "D5",
      "start": 240.2239,
      "duration": 0.2239,
      "bar": 68,
      "beat": 1.25,
      "duration_beats": 0.25,
      "velocity": 0.49,
      "role": "melody",
      "is_tied": false
    },
    {
      "midi": 55,
      "name": "G3",
      "start": 240.2239,
      "duration": 1.3433,
      "bar": 68,
      "beat": 1.25,
      "duration_beats": 1.5,
      "velocity": 0.61,
      "role": "chord",
      "is_tied": false
    },
    {
      "midi": 54,
      "name": "F#3",
      "start": 240.2239,
      "duration": 1.3433,
      "bar": 68,
      "beat": 1.25,
      "duration_beats": 1.5,
      "velocity": 1.0,
      "role": "bass",
      "is_tied": false
    },
    {
      "midi": 52,
      "name": "E3",
      "start": 240.2239,
      "duration": 0.2239,
      "bar": 68,
      "beat": 1.25,
      "duration_beats": 0.25,
      "velocity": 0.31,
      "role": "chord",
      "is_tied": false
    },
    {
      "midi": 50,
      "name": "D3",
      "start": 240.2239,
      "duration": 1.791,
      "bar": 68,
      "beat": 1.25,
      "duration_beats": 2.0,
      "velocity": 0.53,
      "role": "chord",
      "is_tied": false
    },
    {
      "midi": 52,
      "name": "E3",
      "start": 240.4478,
      "duration": 0.8955,
      "bar": 68,
      "beat": 1.5,
      "duration_beats": 1.0,
      "velocity": 0.52,
      "role": "chord",
      "is_tied": false
    },
    {
      "midi": 43,
      "name": "G2",
      "start": 240.4478,
      "duration": 1.791,
      "bar": 68,
      "beat": 1.5,
      "duration_beats": 2.0,
      "velocity": 1.0,
      "role": "bass",
      "is_tied": false
    },
    {
      "midi": 62,
      "name": "D4",
      "start": 240.8955,
      "duration": 2.6866,
      "bar": 68,
      "beat": 2.0,
      "duration_beats": 3.0,
      "velocity": 0.36,
      "role": "chord",
      "is_tied": false
    },
    {
      "midi": 50,
      "name": "D3",
      "start": 241.3433,
      "duration": 0.6716,
      "bar": 68,
      "beat": 2.5,
      "duration_beats": 0.75,
      "velocity": 0.39,
      "role": "chord",
      "is_tied": false
    },
    {
      "midi": 43,
      "name": "G2",
      "start": 241.3433,
      "duration": 0.8955,
      "bar": 68,
      "beat": 2.5,
      "duration_beats": 1.0,
      "velocity": 1.0,
      "role": "bass",
      "is_tied": false
    },
    {
      "midi": 74,
      "name": "D5",
      "start": 241.5672,
      "duration": 1.791,
      "bar": 68,
      "beat": 2.75,
      "duration_beats": 2.0,
      "velocity": 0.87,
      "role": "melody",
      "is_tied": false
    },
    {
      "midi": 81,
      "name": "A5",
      "start": 241.791,
      "duration": 0.4478,
      "bar": 68,
      "beat": 3.0,
      "duration_beats": 0.5,
      "velocity": 0.92,
      "role": "melody",
      "is_tied": false
    },
    {
      "midi": 74,
      "name": "D5",
      "start": 241.791,
      "duration": 1.791,
      "bar": 68,
      "beat": 3.0,
      "duration_beats": 2.0,
      "velocity": 1.0,
      "role": "melody",
      "is_tied": false
    },
    {
      "midi": 50,
      "name": "D3",
      "start": 241.791,
      "duration": 0.2239,
      "bar": 68,
      "beat": 3.0,
      "duration_beats": 0.25,
      "velocity": 0.46,
      "role": "chord",
      "is_tied": false
    },
    {
      "midi": 43,
      "name": "G2",
      "start": 241.791,
      "duration": 0.4478,
      "bar": 68,
      "beat": 3.0,
      "duration_beats": 0.5,
      "velocity": 1.0,
      "role": "bass",
      "is_tied": false
    },
    {
      "midi": 74,
      "name": "D5",
      "start": 242.6866,
      "duration": 0.8955,
      "bar": 68,
      "beat": 4.0,
      "duration_beats": 1.0,
      "velocity": 1.0,
      "role": "melody",
      "is_tied": false
    },
    {
      "midi": 70,
      "name": "A#4",
      "start": 242.6866,
      "duration": 0.8955,
      "bar": 68,
      "beat": 4.0,
      "duration_beats": 1.0,
      "velocity": 0.34,
      "role": "chord",
      "is_tied": false
    },
    {
      "midi": 50,
      "name": "D3",
      "start": 242.6866,
      "duration": 0.8955,
      "bar": 68,
      "beat": 4.0,
      "duration_beats": 1.0,
      "velocity": 0.68,
      "role": "chord",
      "is_tied": false
    },
    {
      "midi": 46,
      "name": "A#2",
      "start": 242.6866,
      "duration": 0.8955,
      "bar": 68,
      "beat": 4.0,
      "duration_beats": 1.0,
      "velocity": 1.0,
      "role": "bass",
      "is_tied": false
    },
    {
      "midi": 74,
      "name": "D5",
      "start": 242.9104,
      "duration": 0.4478,
      "bar": 68,
      "beat": 4.25,
      "duration_beats": 0.5,
      "velocity": 0.36,
      "role": "melody",
      "is_tied": false
    },
    {
      "midi": 69,
      "name": "A4",
      "start": 242.9104,
      "duration": 0.4478,
      "bar": 68,
      "beat": 4.25,
      "duration_beats": 0.5,
      "velocity": 0.44,
      "role": "melody",
      "is_tied": false
    },
    {
      "midi": 55,
      "name": "G3",
      "start": 242.9104,
      "duration": 0.4478,
      "bar": 68,
      "beat": 4.25,
      "duration_beats": 0.5,
      "velocity": 0.84,
      "role": "chord",
      "is_tied": false
    },
    {
      "midi": 50,
      "name": "D3",
      "start": 242.9104,
      "duration": 0.4478,
      "bar": 68,
      "beat": 4.25,
      "duration_beats": 0.5,
      "velocity": 0.56,
      "role": "chord",
      "is_tied": false
    },
    {
      "midi": 46,
      "name": "A#2",
      "start": 242.9104,
      "duration": 0.4478,
      "bar": 68,
      "beat": 4.25,
      "duration_beats": 0.5,
      "velocity": 1.0,
      "role": "bass",
      "is_tied": false
    },
    {
      "midi": 74,
      "name": "D5",
      "start": 243.5821,
      "duration": 1.3433,
      "bar": 69,
      "beat": 1.0,
      "duration_beats": 1.5,
      "velocity": 0.34,
      "role": "melody",
      "is_tied": false
    },
    {
      "midi": 58,
      "name": "A#3",
      "start": 243.5821,
      "duration": 3.5821,
      "bar": 69,
      "beat": 1.0,
      "duration_beats": 4.0,
      "velocity": 0.72,
      "role": "chord",
      "is_tied": false
    },
    {
      "midi": 50,
      "name": "D3",
      "start": 243.5821,
      "duration": 1.3433,
      "bar": 69,
      "beat": 1.0,
      "duration_beats": 1.5,
      "velocity": 0.83,
      "role": "chord",
      "is_tied": false
    },
    {
      "midi": 33,
      "name": "A1",
      "start": 243.806,
      "duration": 0.2239,
      "bar": 69,
      "beat": 1.25,
      "duration_beats": 0.25,
      "velocity": 0.68,
      "role": "bass",
      "is_tied": false
    },
    {
      "midi": 74,
      "name": "D5",
      "start": 244.0299,
      "duration": 0.6716,
      "bar": 69,
      "beat": 1.5,
      "duration_beats": 0.75,
      "velocity": 0.55,
      "role": "melody",
      "is_tied": false
    },
    {
      "midi": 62,
      "name": "D4",
      "start": 244.0299,
      "duration": 0.6716,
      "bar": 69,
      "beat": 1.5,
      "duration_beats": 0.75,
      "velocity": 0.97,
      "role": "chord",
      "is_tied": false
    },
    {
      "midi": 58,
      "name": "A#3",
      "start": 244.0299,
      "duration": 3.5821,
      "bar": 69,
      "beat": 1.5,
      "duration_beats": 4.0,
      "velocity": 0.6,
      "role": "chord",
      "is_tied": false
    },
    {
      "midi": 57,
      "name": "A3",
      "start": 244.0299,
      "duration": 3.5821,
      "bar": 69,
      "beat": 1.5,
      "duration_beats": 4.0,
      "velocity": 0.71,
      "role": "chord",
      "is_tied": false
    },
    {
      "midi": 65,
      "name": "F4",
      "start": 244.7015,
      "duration": 0.6716,
      "bar": 69,
      "beat": 2.25,
      "duration_beats": 0.75,
      "velocity": 0.51,
      "role": "chord",
      "is_tied": false
    },
    {
      "midi": 74,
      "name": "D5",
      "start": 245.3731,
      "duration": 1.3433,
      "bar": 69,
      "beat": 3.0,
      "duration_beats": 1.5,
      "velocity": 0.51,
      "role": "melody",
      "is_tied": false
    },
    {
      "midi": 64,
      "name": "E4",
      "start": 245.3731,
      "duration": 1.3433,
      "bar": 69,
      "beat": 3.0,
      "duration_beats": 1.5,
      "velocity": 1.0,
      "role": "melody",
      "is_tied": false
    },
    {
      "midi": 62,
      "name": "D4",
      "start": 245.3731,
      "duration": 2.6866,
      "bar": 69,
      "beat": 3.0,
      "duration_beats": 3.0,
      "velocity": 0.88,
      "role": "chord",
      "is_tied": false
    },
    {
      "midi": 58,
      "name": "A#3",
      "start": 245.3731,
      "duration": 2.6866,
      "bar": 69,
      "beat": 3.0,
      "duration_beats": 3.0,
      "velocity": 0.57,
      "role": "chord",
      "is_tied": false
    },
    {
      "midi": 57,
      "name": "A3",
      "start": 245.3731,
      "duration": 3.5821,
      "bar": 69,
      "beat": 3.0,
      "duration_beats": 4.0,
      "velocity": 0.92,
      "role": "chord",
      "is_tied": false
    },
    {
      "midi": 69,
      "name": "A4",
      "start": 246.7164,
      "duration": 1.791,
      "bar": 69,
      "beat": 4.5,
      "duration_beats": 2.0,
      "velocity": 0.39,
      "role": "melody",
      "is_tied": false
    },
    {
      "midi": 67,
      "name": "G4",
      "start": 246.7164,
      "duration": 0.8955,
      "bar": 69,
      "beat": 4.5,
      "duration_beats": 1.0,
      "velocity": 1.0,
      "role": "melody",
      "is_tied": false
    },
    {
      "midi": 53,
      "name": "F3",
      "start": 246.7164,
      "duration": 0.8955,
      "bar": 69,
      "beat": 4.5,
      "duration_beats": 1.0,
      "velocity": 0.62,
      "role": "chord",
      "is_tied": false
    },
    {
      "midi": 46,
      "name": "A#2",
      "start": 246.7164,
      "duration": 0.8955,
      "bar": 69,
      "beat": 4.5,
      "duration_beats": 1.0,
      "velocity": 1.0,
      "role": "bass",
      "is_tied": false
    },
    {
      "midi": 70,
      "name": "A#4",
      "start": 247.8358,
      "duration": 0.8955,
      "bar": 70,
      "beat": 1.75,
      "duration_beats": 1.0,
      "velocity": 1.0,
      "role": "melody",
      "is_tied": false
    },
    {
      "midi": 61,
      "name": "C#4",
      "start": 247.8358,
      "duration": 0.8955,
      "bar": 70,
      "beat": 1.75,
      "duration_beats": 1.0,
      "velocity": 0.67,
      "role": "chord",
      "is_tied": false
    },
    {
      "midi": 57,
      "name": "A3",
      "start": 247.8358,
      "duration": 0.8955,
      "bar": 70,
      "beat": 1.75,
      "duration_beats": 1.0,
      "velocity": 0.64,
      "role": "chord",
      "is_tied": false
    },
    {
      "midi": 54,
      "name": "F#3",
      "start": 247.8358,
      "duration": 1.791,
      "bar": 70,
      "beat": 1.75,
      "duration_beats": 2.0,
      "velocity": 0.89,
      "role": "chord",
      "is_tied": false
    },
    {
      "midi": 73,
      "name": "C#5",
      "start": 248.7313,
      "duration": 0.4478,
      "bar": 70,
      "beat": 2.75,
      "duration_beats": 0.5,
      "velocity": 0.57,
      "role": "melody",
      "is_tied": false
    },
    {
      "midi": 62,
      "name": "D4",
      "start": 248.7313,
      "duration": 0.2239,
      "bar": 70,
      "beat": 2.75,
      "duration_beats": 0.25,
      "velocity": 0.55,
      "role": "chord",
      "is_tied": true
    },
    {
      "midi": 35,
      "name": "B1",
      "start": 248.9552,
      "duration": 0.4478,
      "bar": 70,
      "beat": 3.0,
      "duration_beats": 0.5,
      "velocity": 0.34,
      "role": "bass",
      "is_tied": false
    },
    {
      "midi": 66,
      "name": "F#4",
      "start": 249.1791,
      "duration": 0.2239,
      "bar": 70,
      "beat": 3.25,
      "duration_beats": 0.25,
      "velocity": 1.0,
      "role": "melody",
      "is_tied": false
    },
    {
      "midi": 50,
      "name": "D3",
      "start": 249.1791,
      "duration": 1.791,
      "bar": 70,
      "beat": 3.25,
      "duration_beats": 2.0,
      "velocity": 0.56,
      "role": "chord",
      "is_tied": false
    },
    {
      "midi": 74,
      "name": "D5",
      "start": 249.403,
      "duration": 3.5821,
      "bar": 70,
      "beat": 3.5,
      "duration_beats": 4.0,
      "velocity": 0.96,
      "role": "melody",
      "is_tied": false
    },
    {
      "midi": 69,
      "name": "A4",
      "start": 249.403,
      "duration": 1.3433,
      "bar": 70,
      "beat": 3.5,
      "duration_beats": 1.5,
      "velocity": 1.0,
      "role": "melody",
      "is_tied": false
    },
    {
      "midi": 45,
      "name": "A2",
      "start": 249.403,
      "duration": 0.4478,
      "bar": 70,
      "beat": 3.5,
      "duration_beats": 0.5,
      "velocity": 0.31,
      "role": "bass",
      "is_tied": false
    },
    {
      "midi": 74,
      "name": "D5",
      "start": 249.6269,
      "duration": 3.5821,
      "bar": 70,
      "beat": 3.75,
      "duration_beats": 4.0,
      "velocity": 1.0,
      "role": "melody",
      "is_tied": false
    },
    {
      "midi": 69,
      "name": "A4",
      "start": 249.6269,
      "duration": 0.8955,
      "bar": 70,
      "beat": 3.75,
      "duration_beats": 1.0,
      "velocity": 0.89,
      "role": "melody",
      "is_tied": false
    },
    {
      "midi": 55,
      "name": "G3",
      "start": 249.6269,
      "duration": 1.3433,
      "bar": 70,
      "beat": 3.75,
      "duration_beats": 1.5,
      "velocity": 0.72,
      "role": "chord",
      "is_tied": false
    },
    {
      "midi": 50,
      "name": "D3",
      "start": 249.6269,
      "duration": 1.3433,
      "bar": 70,
      "beat": 3.75,
      "duration_beats": 1.5,
      "velocity": 0.48,
      "role": "chord",
      "is_tied": false
    },
    {
      "midi": 71,
      "name": "B4",
      "start": 249.8507,
      "duration": 0.6716,
      "bar": 70,
      "beat": 4.0,
      "duration_beats": 0.75,
      "velocity": 0.57,
      "role": "chord",
      "is_tied": false
    },
    {
      "midi": 83,
      "name": "B5",
      "start": 250.5224,
      "duration": 0.4478,
      "bar": 70,
      "beat": 4.75,
      "duration_beats": 0.5,
      "velocity": 0.66,
      "role": "melody",
      "is_tied": false
    },
    {
      "midi": 69,
      "name": "A4",
      "start": 250.7463,
      "duration": 3.5821,
      "bar": 71,
      "beat": 1.0,
      "duration_beats": 4.0,
      "velocity": 1.0,
      "role": "melody",
      "is_tied": false
    },
    {
      "midi": 62,
      "name": "D4",
      "start": 250.7463,
      "duration": 0.4478,
      "bar": 71,
      "beat": 1.0,
      "duration_beats": 0.5,
      "velocity": 0.82,
      "role": "chord",
      "is_tied": false
    },
    {
      "midi": 41,
      "name": "F2",
      "start": 250.7463,
      "duration": 0.2239,
      "bar": 71,
      "beat": 1.0,
      "duration_beats": 0.25,
      "velocity": 0.93,
      "role": "bass",
      "is_tied": false
    },
    {
      "midi": 70,
      "name": "A#4",
      "start": 250.9701,
      "duration": 1.3433,
      "bar": 71,
      "beat": 1.25,
      "duration_beats": 1.5,
      "velocity": 0.31,
      "role": "chord",
      "is_tied": false
    },
    {
      "midi": 46,
      "name": "A#2",
      "start": 250.9701,
      "duration": 1.791,
      "bar": 71,
      "beat": 1.25,
      "duration_beats": 2.0,
      "velocity": 1.0,
      "role": "bass",
      "is_tied": false
    },
    {
      "midi": 74,
      "name": "D5",
      "start": 251.194,
      "duration": 2.6866,
      "bar": 71,
      "beat": 1.5,
      "duration_beats": 3.0,
      "velocity": 0.47,
      "role": "melody",
      "is_tied": false
    },
    {
      "midi": 53,
      "name": "F3",
      "start": 251.194,
      "duration": 3.5821,
      "bar": 71,
      "beat": 1.5,
      "duration_beats": 4.0,
      "velocity": 0.58,
      "role": "chord",
      "is_tied": false
    },
    {
      "midi": 50,
      "name": "D3",
      "start": 251.194,
      "duration": 3.5821,
      "bar": 71,
      "beat": 1.5,
      "duration_beats": 4.0,
      "velocity": 0.5,
      "role": "chord",
      "is_tied": false
    },
    {
      "midi": 62,
      "name": "D4",
      "start": 252.5373,
      "duration": 2.6866,
      "bar": 71,
      "beat": 3.0,
      "duration_beats": 3.0,
      "velocity": 1.0,
      "role": "chord",
      "is_tied": false
    },
    {
      "midi": 41,
      "name": "F2",
      "start": 252.5373,
      "duration": 1.791,
      "bar": 71,
      "beat": 3.0,
      "duration_beats": 2.0,
      "velocity": 1.0,
      "role": "bass",
      "is_tied": false
    },
    {
      "midi": 74,
      "name": "D5",
      "start": 252.7612,
      "duration": 1.791,
      "bar": 71,
      "beat": 3.25,
      "duration_beats": 2.0,
      "velocity": 0.65,
      "role": "melody",
      "is_tied": false
    },
    {
      "midi": 50,
      "name": "D3",
      "start": 252.7612,
      "duration": 1.791,
      "bar": 71,
      "beat": 3.25,
      "duration_beats": 2.0,
      "velocity": 0.69,
      "role": "chord",
      "is_tied": false
    },
    {
      "midi": 41,
      "name": "F2",
      "start": 252.7612,
      "duration": 1.791,
      "bar": 71,
      "beat": 3.25,
      "duration_beats": 2.0,
      "velocity": 0.96,
      "role": "bass",
      "is_tied": false
    },
    {
      "midi": 57,
      "name": "A3",
      "start": 253.209,
      "duration": 3.5821,
      "bar": 71,
      "beat": 3.75,
      "duration_beats": 4.0,
      "velocity": 1.0,
      "role": "chord",
      "is_tied": true
    },
    {
      "midi": 50,
      "name": "D3",
      "start": 253.209,
      "duration": 1.3433,
      "bar": 71,
      "beat": 3.75,
      "duration_beats": 1.5,
      "velocity": 0.74,
      "role": "chord",
      "is_tied": false
    },
    {
      "midi": 87,
      "name": "D#6",
      "start": 254.3284,
      "duration": 0.2239,
      "bar": 72,
      "beat": 1.0,
      "duration_beats": 0.25,
      "velocity": 0.72,
      "role": "melody",
      "is_tied": false
    },
    {
      "midi": 78,
      "name": "F#5",
      "start": 254.3284,
      "duration": 0.2239,
      "bar": 72,
      "beat": 1.0,
      "duration_beats": 0.25,
      "velocity": 1.0,
      "role": "melody",
      "is_tied": false
    },
    {
      "midi": 36,
      "name": "C2",
      "start": 254.3284,
      "duration": 0.2239,
      "bar": 72,
      "beat": 1.0,
      "duration_beats": 0.25,
      "velocity": 1.0,
      "role": "bass",
      "is_tied": false
    },
    {
      "midi": 41,
      "name": "F2",
      "start": 254.5522,
      "duration": 0.8955,
      "bar": 72,
      "beat": 1.25,
      "duration_beats": 1.0,
      "velocity": 1.0,
      "role": "bass",
      "is_tied": false
    },
    {
      "midi": 74,
      "name": "D5",
      "start": 254.7761,
      "duration": 0.6716,
      "bar": 72,
      "beat": 1.5,
      "duration_beats": 0.75,
      "velocity": 0.94,
      "role": "melody",
      "is_tied": false
    },
    {
      "midi": 59,
      "name": "B3",
      "start": 254.7761,
      "duration": 3.5821,
      "bar": 72,
      "beat": 1.5,
      "duration_beats": 4.0,
      "velocity": 0.34,
      "role": "chord",
      "is_tied": false
    },
    {
      "midi": 52,
      "name": "E3",
      "start": 254.7761,
      "duration": 1.791,
      "bar": 72,
      "beat": 1.5,
      "duration_beats": 2.0,
      "velocity": 0.47,
      "role": "chord",
      "is_tied": false
    },
    {
      "midi": 50,
      "name": "D3",
      "start": 254.7761,
      "duration": 3.5821,
      "bar": 72,
      "beat": 1.5,
      "duration_beats": 4.0,
      "velocity": 0.57,
      "role": "chord",
      "is_tied": false
    },
    {
      "midi": 74,
      "name": "D5",
      "start": 255.0,
      "duration": 0.4478,
      "bar": 72,
      "beat": 1.75,
      "duration_beats": 0.5,
      "velocity": 1.0,
      "role": "melody",
      "is_tied": false
    },
    {
      "midi": 57,
      "name": "A3",
      "start": 255.0,
      "duration": 3.5821,
      "bar": 72,
      "beat": 1.75,
      "duration_beats": 4.0,
      "velocity": 0.55,
      "role": "chord",
      "is_tied": false
    },
    {
      "midi": 53,
      "name": "F3",
      "start": 255.0,
      "duration": 1.791,
      "bar": 72,
      "beat": 1.75,
      "duration_beats": 2.0,
      "velocity": 0.63,
      "role": "chord",
      "is_tied": false
    },
    {
      "midi": 50,
      "name": "D3",
      "start": 255.0,
      "duration": 3.5821,
      "bar": 72,
      "beat": 1.75,
      "duration_beats": 4.0,
      "velocity": 0.57,
      "role": "chord",
      "is_tied": false
    },
    {
      "midi": 59,
      "name": "B3",
      "start": 255.4478,
      "duration": 3.5821,
      "bar": 72,
      "beat": 2.25,
      "duration_beats": 4.0,
      "velocity": 0.77,
      "role": "chord",
      "is_tied": false
    },
    {
      "midi": 50,
      "name": "D3",
      "start": 255.4478,
      "duration": 3.5821,
      "bar": 72,
      "beat": 2.25,
      "duration_beats": 4.0,
      "velocity": 0.48,
      "role": "chord",
      "is_tied": false
    },
    {
      "midi": 62,
      "name": "D4",
      "start": 256.5672,
      "duration": 3.5821,
      "bar": 72,
      "beat": 3.5,
      "duration_beats": 4.0,
      "velocity": 0.65,
      "role": "chord",
      "is_tied": false
    },
    {
      "midi": 59,
      "name": "B3",
      "start": 256.791,
      "duration": 3.5821,
      "bar": 72,
      "beat": 3.75,
      "duration_beats": 4.0,
      "velocity": 0.96,
      "role": "chord",
      "is_tied": false
    },
    {
      "midi": 57,
      "name": "A3",
      "start": 256.791,
      "duration": 3.5821,
      "bar": 72,
      "beat": 3.75,
      "duration_beats": 4.0,
      "velocity": 0.59,
      "role": "chord",
      "is_tied": false
    },
    {
      "midi": 50,
      "name": "D3",
      "start": 256.791,
      "duration": 3.5821,
      "bar": 72,
      "beat": 3.75,
      "duration_beats": 4.0,
      "velocity": 0.71,
      "role": "chord",
      "is_tied": false
    },
    {
      "midi": 71,
      "name": "B4",
      "start": 257.6866,
      "duration": 3.5821,
      "bar": 72,
      "beat": 4.75,
      "duration_beats": 4.0,
      "velocity": 0.76,
      "role": "chord",
      "is_tied": false
    },
    {
      "midi": 62,
      "name": "D4",
      "start": 257.6866,
      "duration": 3.5821,
      "bar": 72,
      "beat": 4.75,
      "duration_beats": 4.0,
      "velocity": 0.79,
      "role": "chord",
      "is_tied": false
    },
    {
      "midi": 57,
      "name": "A3",
      "start": 257.6866,
      "duration": 3.5821,
      "bar": 72,
      "beat": 4.75,
      "duration_beats": 4.0,
      "velocity": 0.8,
      "role": "chord",
      "is_tied": false
    },
    {
      "midi": 53,
      "name": "F3",
      "start": 257.6866,
      "duration": 3.5821,
      "bar": 72,
      "beat": 4.75,
      "duration_beats": 4.0,
      "velocity": 0.88,
      "role": "chord",
      "is_tied": false
    }
  ]
}