{
  "metadata": {
    "duration_seconds": 271.44,
    "source_file": "best_part.mp3",
    "bpm": 67,
    "time_signature": "4/4",
    "first_beat_time": 1.447,
    "num_bars": 72,
    "num_notes": 1835
  },
  "note_events": [
    {
      "midi": 59,
      "name": "B3",
      "start": 0.1037,
      "duration": 0.4478,
      "bar": 0,
      "beat": 1.0,
      "duration_beats": 0.5,
      "velocity": 0.68,
      "role": "chord",
      "is_tied": false
    },
    {
      "midi": 52,
      "name": "E3",
      "start": 0.1037,
      "duration": 0.4478,
      "bar": 0,
      "beat": 1.0,
      "duration_beats": 0.5,
      "velocity": 0.52,
      "role": "chord",
      "is_tied": false
    },
    {
      "midi": 49,
      "name": "C#3",
      "start": 0.1037,
      "duration": 0.4478,
      "bar": 0,
      "beat": 1.0,
      "duration_beats": 0.5,
      "velocity": 0.72,
      "role": "chord",
      "is_tied": false
    },
    {
      "midi": 41,
      "name": "F2",
      "start": 0.1037,
      "duration": 0.2239,
      "bar": 0,
      "beat": 1.0,
      "duration_beats": 0.25,
      "velocity": 1.0,
      "role": "bass",
      "is_tied": false
    },
    {
      "midi": 71,
      "name": "B4",
      "start": 0.5515,
      "duration": 1.3433,
      "bar": 0,
      "beat": 1.0,
      "duration_beats": 1.5,
      "velocity": 0.82,
      "role": "melody",
      "is_tied": false
    },
    {
      "midi": 66,
      "name": "F#4",
      "start": 0.5515,
      "duration": 3.5821,
      "bar": 0,
      "beat": 1.0,
      "duration_beats": 4.0,
      "velocity": 0.94,
      "role": "melody",
      "is_tied": false
    },
    {
      "midi": 61,
      "name": "C#4",
      "start": 0.5515,
      "duration": 3.5821,
      "bar": 0,
      "beat": 1.0,
      "duration_beats": 4.0,
      "velocity": 1.0,
      "role": "chord",
      "is_tied": false
    },
    {
      "midi": 57,
      "name": "A3",
      "start": 0.5515,
      "duration": 3.5821,
      "bar": 0,
      "beat": 1.0,
      "duration_beats": 4.0,
      "velocity": 0.3,
      "role": "chord",
      "is_tied": false
    },
    {
      "midi": 66,
      "name": "F#4",
      "start": 1.447,
      "duration": 2.6866,
      "bar": 1,
      "beat": 1.0,
      "duration_beats": 3.0,
      "velocity": 1.0,
      "role": "melody",
      "is_tied": false
    },
    {
      "midi": 61,
      "name": "C#4",
      "start": 1.447,
      "duration": 2.6866,
      "bar": 1,
      "beat": 1.0,
      "duration_beats": 3.0,
      "velocity": 0.99,
      "role": "chord",
      "is_tied": false
    },
    {
      "midi": 57,
      "name": "A3",
      "start": 1.447,
      "duration": 1.791,
      "bar": 1,
      "beat": 1.0,
      "duration_beats": 2.0,
      "velocity": 0.34,
      "role": "chord",
      "is_tied": false
    },
    {
      "midi": 45,
      "name": "A2",
      "start": 3.6858,
      "duration": 1.791,
      "bar": 1,
      "beat": 3.5,
      "duration_beats": 2.0,
      "velocity": 1.0,
      "role": "bass",
      "is_tied": false
    },
    {
      "midi": 74,
      "name": "D5",
      "start": 4.1336,
      "duration": 3.5821,
      "bar": 1,
      "beat": 4.0,
      "duration_beats": 4.0,
      "velocity": 0.7,
      "role": "melody",
      "is_tied": false
    },
    {
      "midi": 67,
      "name": "G4",
      "start": 4.1336,
      "duration": 1.3433,
      "bar": 1,
      "beat": 4.0,
      "duration_beats": 1.5,
      "velocity": 0.57,
      "role": "chord",
      "is_tied": false
    },
    {
      "midi": 50,
      "name": "D3",
      "start": 4.1336,
      "duration": 3.5821,
      "bar": 1,
      "beat": 4.0,
      "duration_beats": 4.0,
      "velocity": 0.58,
      "role": "chord",
      "is_tied": false
    },
    {
      "midi": 45,
      "name": "A2",
      "start": 4.1336,
      "duration": 1.3433,
      "bar": 1,
      "beat": 4.0,
      "duration_beats": 1.5,
      "velocity": 1.0,
      "role": "bass",
      "is_tied": false
    },
    {
      "midi": 64,
      "name": "E4",
      "start": 5.0291,
      "duration": 2.6866,
      "bar": 2,
      "beat": 1.0,
      "duration_beats": 3.0,
      "velocity": 0.91,
      "role": "chord",
      "is_tied": false
    },
    {
      "midi": 60,
      "name": "C4",
      "start": 5.0291,
      "duration": 2.6866,
      "bar": 2,
      "beat": 1.0,
      "duration_beats": 3.0,
      "velocity": 0.57,
      "role": "chord",
      "is_tied": false
    },
    {
      "midi": 74,
      "name": "D5",
      "start": 7.2679,
      "duration": 2.6866,
      "bar": 2,
      "beat": 3.5,
      "duration_beats": 3.0,
      "velocity": 0.55,
      "role": "melody",
      "is_tied": false
    },
    {
      "midi": 67,
      "name": "G4",
      "start": 7.2679,
      "duration": 1.3433,
      "bar": 2,
      "beat": 3.5,
      "duration_beats": 1.5,
      "velocity": 0.8,
      "role": "melody",
      "is_tied": false
    },
    {
      "midi": 62,
      "name": "D4",
      "start": 7.2679,
      "duration": 3.5821,
      "bar": 2,
      "beat": 3.5,
      "duration_beats": 4.0,
      "velocity": 0.87,
      "role": "chord",
      "is_tied": false
    },
    {
      "midi": 57,
      "name": "A3",
      "start": 7.2679,
      "duration": 3.5821,
      "bar": 2,
      "beat": 3.5,
      "duration_beats": 4.0,
      "velocity": 0.35,
      "role": "chord",
      "is_tied": false
    },
    {
      "midi": 74,
      "name": "D5",
      "start": 8.6112,
      "duration": 1.3433,
      "bar": 3,
      "beat": 1.0,
      "duration_beats": 1.5,
      "velocity": 0.46,
      "role": "melody",
      "is_tied": false
    },
    {
      "midi": 50,
      "name": "D3",
      "start": 8.6112,
      "duration": 1.3433,
      "bar": 3,
      "beat": 1.0,
      "duration_beats": 1.5,
      "velocity": 0.77,
      "role": "chord",
      "is_tied": false
    },
    {
      "midi": 43,
      "name": "G2",
      "start": 8.6112,
      "duration": 1.3433,
      "bar": 3,
      "beat": 1.0,
      "duration_beats": 1.5,
      "velocity": 0.91,
      "role": "bass",
      "is_tied": false
    },
    {
      "midi": 74,
      "name": "D5",
      "start": 9.9545,
      "duration": 0.8955,
      "bar": 3,
      "beat": 2.5,
      "duration_beats": 1.0,
      "velocity": 1.0,
      "role": "melody",
      "is_tied": false
    },
    {
      "midi": 69,
      "name": "A4",
      "start": 9.9545,
      "duration": 2.6866,
      "bar": 3,
      "beat": 2.5,
      "duration_beats": 3.0,
      "velocity": 0.7,
      "role": "melody",
      "is_tied": false
    },
    {
      "midi": 65,
      "name": "F4",
      "start": 9.9545,
      "duration": 2.6866,
      "bar": 3,
      "beat": 2.5,
      "duration_beats": 3.0,
      "velocity": 1.0,
      "role": "chord",
      "is_tied": false
    },
    {
      "midi": 50,
      "name": "D3",
      "start": 9.9545,
      "duration": 3.5821,
      "bar": 3,
      "beat": 2.5,
      "duration_beats": 4.0,
      "velocity": 0.89,
      "role": "chord",
      "is_tied": false
    },
    {
      "midi": 40,
      "name": "E2",
      "start": 9.9545,
      "duration": 2.6866,
      "bar": 3,
      "beat": 2.5,
      "duration_beats": 3.0,
      "velocity": 0.63,
      "role": "bass",
      "is_tied": false
    },
    {
      "midi": 58,
      "name": "A#3",
      "start": 10.85,
      "duration": 3.5821,
      "bar": 3,
      "beat": 3.5,
      "duration_beats": 4.0,
      "velocity": 0.41,
      "role": "chord",
      "is_tied": false
    },
    {
      "midi": 50,
      "name": "D3",
      "start": 10.85,
      "duration": 3.5821,
      "bar": 3,
      "beat": 3.5,
      "duration_beats": 4.0,
      "velocity": 0.62,
      "role": "chord",
      "is_tied": false
    },
    {
      "midi": 74,
      "name": "D5",
      "start": 12.641,
      "duration": 0.8955,
      "bar": 4,
      "beat": 1.5,
      "duration_beats": 1.0,
      "velocity": 0.32,
      "role": "melody",
      "is_tied": false
    },
    {
      "midi": 50,
      "name": "D3",
      "start": 13.5366,
      "duration": 3.5821,
      "bar": 4,
      "beat": 2.5,
      "duration_beats": 4.0,
      "velocity": 0.62,
      "role": "chord",
      "is_tied": false
    },
    {
      "midi": 42,
      "name": "F#2",
      "start": 13.5366,
      "duration": 0.8955,
      "bar": 4,
      "beat": 2.5,
      "duration_beats": 1.0,
      "velocity": 0.7,
      "role": "bass",
      "is_tied": false
    },
    {
      "midi": 57,
      "name": "A3",
      "start": 14.4321,
      "duration": 2.6866,
      "bar": 4,
      "beat": 3.5,
      "duration_beats": 3.0,
      "velocity": 0.74,
      "role": "chord",
      "is_tied": false
    },
    {
      "midi": 50,
      "name": "D3",
      "start": 14.4321,
      "duration": 3.5821,
      "bar": 4,
      "beat": 3.5,
      "duration_beats": 4.0,
      "velocity": 1.0,
      "role": "chord",
      "is_tied": false
    },
    {
      "midi": 66,
      "name": "F#4",
      "start": 15.7754,
      "duration": 1.3433,
      "bar": 5,
      "beat": 1.0,
      "duration_beats": 1.5,
      "velocity": 1.0,
      "role": "melody",
      "is_tied": false
    },
    {
      "midi": 64,
      "name": "E4",
      "start": 15.7754,
      "duration": 1.3433,
      "bar": 5,
      "beat": 1.0,
      "duration_beats": 1.5,
      "velocity": 0.88,
      "role": "chord",
      "is_tied": false
    },
    {
      "midi": 61,
      "name": "C#4",
      "start": 15.7754,
      "duration": 1.791,
      "bar": 5,
      "beat": 1.0,
      "duration_beats": 2.0,
      "velocity": 0.77,
      "role": "chord",
      "is_tied": false
    },
    {
      "midi": 57,
      "name": "A3",
      "start": 15.7754,
      "duration": 1.3433,
      "bar": 5,
      "beat": 1.0,
      "duration_beats": 1.5,
      "velocity": 0.72,
      "role": "chord",
      "is_tied": false
    },
    {
      "midi": 80,
      "name": "G#5",
      "start": 17.1186,
      "duration": 0.2239,
      "bar": 5,
      "beat": 2.5,
      "duration_beats": 0.25,
      "velocity": 0.71,
      "role": "melody",
      "is_tied": false
    },
    {
      "midi": 73,
      "name": "C#5",
      "start": 17.1186,
      "duration": 0.8955,
      "bar": 5,
      "beat": 2.5,
      "duration_beats": 1.0,
      "velocity": 1.0,
      "role": "melody",
      "is_tied": false
    },
    {
      "midi": 73,
      "name": "C#5",
      "start": 17.1186,
      "duration": 0.6716,
      "bar": 5,
      "beat": 2.5,
      "duration_beats": 0.75,
      "velocity": 1.0,
      "role": "melody",
      "is_tied": false
    },
    {
      "midi": 49,
      "name": "C#3",
      "start": 17.1186,
      "duration": 0.4478,
      "bar": 5,
      "beat": 2.5,
      "duration_beats": 0.5,
      "velocity": 0.35,
      "role": "chord",
      "is_tied": false
    },
    {
      "midi": 41,
      "name": "F2",
      "start": 17.1186,
      "duration": 0.4478,
      "bar": 5,
      "beat": 2.5,
      "duration_beats": 0.5,
      "velocity": 1.0,
      "role": "bass",
      "is_tied": false
    },
    {
      "midi": 40,
      "name": "E2",
      "start": 17.1186,
      "duration": 0.2239,
      "bar": 5,
      "beat": 2.5,
      "duration_beats": 0.25,
      "velocity": 1.0,
      "role": "bass",
      "is_tied": false
    },
    {
      "midi": 74,
      "name": "D5",
      "start": 17.5664,
      "duration": 0.4478,
      "bar": 5,
      "beat": 3.0,
      "duration_beats": 0.5,
      "velocity": 0.82,
      "role": "melody",
      "is_tied": false
    },
    {
      "midi": 69,
      "name": "A4",
      "start": 17.5664,
      "duration": 1.791,
      "bar": 5,
      "beat": 3.0,
      "duration_beats": 2.0,
      "velocity": 0.49,
      "role": "melody",
      "is_tied": false
    },
    {
      "midi": 66,
      "name": "F#4",
      "start": 17.5664,
      "duration": 1.791,
      "bar": 5,
      "beat": 3.0,
      "duration_beats": 2.0,
      "velocity": 1.0,
      "role": "melody",
      "is_tied": false
    },
    {
      "midi": 59,
      "name": "B3",
      "start": 18.0142,
      "duration": 3.5821,
      "bar": 5,
      "beat": 3.5,
      "duration_beats": 4.0,
      "velocity": 0.49,
      "role": "chord",
      "is_tied": false
    },
    {
      "midi": 54,
      "name": "F#3",
      "start": 18.0142,
      "duration": 2.6866,
      "bar": 5,
      "beat": 3.5,
      "duration_beats": 3.0,
      "velocity": 1.0,
      "role": "bass",
      "is_tied": false
    },
    {
      "midi": 52,
      "name": "E3",
      "start": 18.0142,
      "duration": 1.3433,
      "bar": 5,
      "beat": 3.5,
      "duration_beats": 1.5,
      "velocity": 0.58,
      "role": "chord",
      "is_tied": false
    },
    {
      "midi": 68,
      "name": "G#4",
      "start": 19.3574,
      "duration": 1.791,
      "bar": 6,
      "beat": 1.0,
      "duration_beats": 2.0,
      "velocity": 1.0,
      "role": "melody",
      "is_tied": false
    },
    {
      "midi": 63,
      "name": "D#4",
      "start": 19.3574,
      "duration": 1.3433,
      "bar": 6,
      "beat": 1.0,
      "duration_beats": 1.5,
      "velocity": 0.97,
      "role": "chord",
      "is_tied": false
    },
    {
      "midi": 60,
      "name": "C4",
      "start": 19.3574,
      "duration": 1.791,
      "bar": 6,
      "beat": 1.0,
      "duration_beats": 2.0,
      "velocity": 0.48,
      "role": "chord",
      "is_tied": false
    },
    {
      "midi": 54,
      "name": "F#3",
      "start": 19.3574,
      "duration": 1.3433,
      "bar": 6,
      "beat": 1.0,
      "duration_beats": 1.5,
      "velocity": 0.93,
      "role": "bass",
      "is_tied": false
    },
    {
      "midi": 74,
      "name": "D5",
      "start": 20.7007,
      "duration": 3.5821,
      "bar": 6,
      "beat": 2.5,
      "duration_beats": 4.0,
      "velocity": 1.0,
      "role": "melody",
      "is_tied": false
    },
    {
      "midi": 63,
      "name": "D#4",
      "start": 20.7007,
      "duration": 0.6716,
      "bar": 6,
      "beat": 2.5,
      "duration_beats": 0.75,
      "velocity": 1.0,
      "role": "chord",
      "is_tied": false
    },
    {
      "midi": 60,
      "name": "C4",
      "start": 20.7007,
      "duration": 0.6716,
      "bar": 6,
      "beat": 2.5,
      "duration_beats": 0.75,
      "velocity": 0.42,
      "role": "chord",
      "is_tied": false
    },
    {
      "midi": 33,
      "name": "A1",
      "start": 20.7007,
      "duration": 1.791,
      "bar": 6,
      "beat": 2.5,
      "duration_beats": 2.0,
      "velocity": 1.0,
      "role": "bass",
      "is_tied": false
    },
    {
      "midi": 74,
      "name": "D5",
      "start": 21.5963,
      "duration": 3.5821,
      "bar": 6,
      "beat": 3.5,
      "duration_beats": 4.0,
      "velocity": 1.0,
      "role": "melody",
      "is_tied": false
    },
    {
      "midi": 57,
      "name": "A3",
      "start": 21.5963,
      "duration": 3.5821,
      "bar": 6,
      "beat": 3.5,
      "duration_beats": 4.0,
      "velocity": 0.51,
      "role": "chord",
      "is_tied": false
    },
    {
      "midi": 52,
      "name": "E3",
      "start": 21.5963,
      "duration": 0.8955,
      "bar": 6,
      "beat": 3.5,
      "duration_beats": 1.0,
      "velocity": 0.51,
      "role": "chord",
      "is_tied": false
    },
    {
      "midi": 50,
      "name": "D3",
      "start": 21.5963,
      "duration": 3.5821,
      "bar": 6,
      "beat": 3.5,
      "duration_beats": 4.0,
      "velocity": 1.0,
      "role": "bass",
      "is_tied": false
    },
    {
      "midi": 74,
      "name": "D5",
      "start": 22.4918,
      "duration": 2.6866,
      "bar": 6,
      "beat": 4.5,
      "duration_beats": 3.0,
      "velocity": 0.55,
      "role": "melody",
      "is_tied": false
    },
    {
      "midi": 40,
      "name": "E2",
      "start": 22.4918,
      "duration": 1.791,
      "bar": 6,
      "beat": 4.5,
      "duration_beats": 2.0,
      "velocity": 0.58,
      "role": "bass",
      "is_tied": false
    },
    {
      "midi": 74,
      "name": "D5",
      "start": 22.9395,
      "duration": 2.6866,
      "bar": 7,
      "beat": 1.0,
      "duration_beats": 3.0,
      "velocity": 0.34,
      "role": "melody",
      "is_tied": false
    },
    {
      "midi": 57,
      "name": "A3",
      "start": 22.9395,
      "duration": 3.5821,
      "bar": 7,
      "beat": 1.0,
      "duration_beats": 4.0,
      "velocity": 0.61,
      "role": "chord",
      "is_tied": false
    },
    {
      "midi": 52,
      "name": "E3",
      "start": 22.9395,
      "duration": 1.791,
      "bar": 7,
      "beat": 1.0,
      "duration_beats": 2.0,
      "velocity": 0.33,
      "role": "chord",
      "is_tied": false
    },
    {
      "midi": 60,
      "name": "C4",
      "start": 24.2828,
      "duration": 2.6866,
      "bar": 7,
      "beat": 2.5,
      "duration_beats": 3.0,
      "velocity": 0.41,
      "role": "chord",
      "is_tied": false
    },
    {
      "midi": 51,
      "name": "D#3",
      "start": 24.2828,
      "duration": 0.4478,
      "bar": 7,
      "beat": 2.5,
      "duration_beats": 0.5,
      "velocity": 0.88,
      "role": "chord",
      "is_tied": false
    },
    {
      "midi": 58,
      "name": "A#3",
      "start": 24.7306,
      "duration": 3.5821,
      "bar": 7,
      "beat": 3.0,
      "duration_beats": 4.0,
      "velocity": 0.74,
      "role": "chord",
      "is_tied": false
    },
    {
      "midi": 58,
      "name": "A#3",
      "start": 25.6261,
      "duration": 2.6866,
      "bar": 7,
      "beat": 4.0,
      "duration_beats": 3.0,
      "velocity": 1.0,
      "role": "chord",
      "is_tied": false
    },
    {
      "midi": 50,
      "name": "D3",
      "start": 25.6261,
      "duration": 3.5821,
      "bar": 7,
      "beat": 4.0,
      "duration_beats": 4.0,
      "velocity": 0.76,
      "role": "chord",
      "is_tied": false
    },
    {
      "midi": 48,
      "name": "C3",
      "start": 25.6261,
      "duration": 2.6866,
      "bar": 7,
      "beat": 4.0,
      "duration_beats": 3.0,
      "velocity": 1.0,
      "role": "bass",
      "is_tied": false
    },
    {
      "midi": 58,
      "name": "A#3",
      "start": 26.0739,
      "duration": 2.6866,
      "bar": 7,
      "beat": 4.5,
      "duration_beats": 3.0,
      "velocity": 0.5,
      "role": "chord",
      "is_tied": false
    },
    {
      "midi": 50,
      "name": "D3",
      "start": 26.0739,
      "duration": 3.5821,
      "bar": 7,
      "beat": 4.5,
      "duration_beats": 4.0,
      "velocity": 0.68,
      "role": "chord",
      "is_tied": false
    },
    {
      "midi": 48,
      "name": "C3",
      "start": 26.0739,
      "duration": 1.791,
      "bar": 7,
      "beat": 4.5,
      "duration_beats": 2.0,
      "velocity": 0.84,
      "role": "bass",
      "is_tied": false
    },
    {
      "midi": 58,
      "name": "A#3",
      "start": 27.4171,
      "duration": 0.8955,
      "bar": 8,
      "beat": 2.0,
      "duration_beats": 1.0,
      "velocity": 1.0,
      "role": "chord",
      "is_tied": false
    },
    {
      "midi": 50,
      "name": "D3",
      "start": 27.4171,
      "duration": 2.6866,
      "bar": 8,
      "beat": 2.0,
      "duration_beats": 3.0,
      "velocity": 0.69,
      "role": "chord",
      "is_tied": false
    },
    {
      "midi": 70,
      "name": "A#4",
      "start": 27.8649,
      "duration": 0.6716,
      "bar": 8,
      "beat": 2.5,
      "duration_beats": 0.75,
      "velocity": 1.0,
      "role": "melody",
      "is_tied": false
    },
    {
      "midi": 62,
      "name": "D4",
      "start": 27.8649,
      "duration": 1.791,
      "bar": 8,
      "beat": 2.5,
      "duration_beats": 2.0,
      "velocity": 1.0,
      "role": "chord",
      "is_tied": false
    },
    {
      "midi": 41,
      "name": "F2",
      "start": 27.8649,
      "duration": 0.2239,
      "bar": 8,
      "beat": 2.5,
      "duration_beats": 0.25,
      "velocity": 0.88,
      "role": "bass",
      "is_tied": false
    },
    {
      "midi": 71,
      "name": "B4",
      "start": 28.3127,
      "duration": 1.3433,
      "bar": 8,
      "beat": 3.0,
      "duration_beats": 1.5,
      "velocity": 0.74,
      "role": "melody",
      "is_tied": false
    },
    {
      "midi": 69,
      "name": "A4",
      "start": 28.3127,
      "duration": 1.3433,
      "bar": 8,
      "beat": 3.0,
      "duration_beats": 1.5,
      "velocity": 0.58,
      "role": "melody",
      "is_tied": false
    },
    {
      "midi": 62,
      "name": "D4",
      "start": 28.3127,
      "duration": 1.3433,
      "bar": 8,
      "beat": 3.0,
      "duration_beats": 1.5,
      "velocity": 1.0,
      "role": "chord",
      "is_tied": false
    },
    {
      "midi": 45,
      "name": "A2",
      "start": 28.3127,
      "duration": 0.4478,
      "bar": 8,
      "beat": 3.0,
      "duration_beats": 0.5,
      "velocity": 1.0,
      "role": "bass",
      "is_tied": false
    },
    {
      "midi": 74,
      "name": "D5",
      "start": 29.656,
      "duration": 0.2239,
      "bar": 8,
      "beat": 4.5,
      "duration_beats": 0.25,
      "velocity": 1.0,
      "role": "melody",
      "is_tied": false
    },
    {
      "midi": 69,
      "name": "A4",
      "start": 29.656,
      "duration": 0.2239,
      "bar": 8,
      "beat": 4.5,
      "duration_beats": 0.25,
      "velocity": 0.92,
      "role": "melody",
      "is_tied": false
    },
    {
      "midi": 64,
      "name": "E4",
      "start": 29.656,
      "duration": 0.2239,
      "bar": 8,
      "beat": 4.5,
      "duration_beats": 0.25,
      "velocity": 1.0,
      "role": "chord",
      "is_tied": false
    },
    {
      "midi": 38,
      "name": "D2",
      "start": 29.656,
      "duration": 0.2239,
      "bar": 8,
      "beat": 4.5,
      "duration_beats": 0.25,
      "velocity": 1.0,
      "role": "bass",
      "is_tied": false
    },
    {
      "midi": 74,
      "name": "D5",
      "start": 30.1037,
      "duration": 0.6716,
      "bar": 9,
      "beat": 1.0,
      "duration_beats": 0.75,
      "velocity": 0.44,
      "role": "melody",
      "is_tied": false
    },
    {
      "midi": 64,
      "name": "E4",
      "start": 30.1037,
      "duration": 3.5821,
      "bar": 9,
      "beat": 1.0,
      "duration_beats": 4.0,
      "velocity": 1.0,
      "role": "melody",
      "is_tied": false
    },
    {
      "midi": 61,
      "name": "C#4",
      "start": 30.1037,
      "duration": 1.791,
      "bar": 9,
      "beat": 1.0,
      "duration_beats": 2.0,
      "velocity": 0.41,
      "role": "chord",
      "is_tied": false
    },
    {
      "midi": 52,
      "name": "E3",
      "start": 30.1037,
      "duration": 2.6866,
      "bar": 9,
      "beat": 1.0,
      "duration_beats": 3.0,
      "velocity": 0.82,
      "role": "chord",
      "is_tied": false
    },
    {
      "midi": 38,
      "name": "D2",
      "start": 30.1037,
      "duration": 0.2239,
      "bar": 9,
      "beat": 1.0,
      "duration_beats": 0.25,
      "velocity": 1.0,
      "role": "bass",
      "is_tied": false
    },
    {
      "midi": 64,
      "name": "E4",
      "start": 30.5515,
      "duration": 2.6866,
      "bar": 9,
      "beat": 1.5,
      "duration_beats": 3.0,
      "velocity": 1.0,
      "role": "melody",
      "is_tied": false
    },
    {
      "midi": 62,
      "name": "D4",
      "start": 30.5515,
      "duration": 2.6866,
      "bar": 9,
      "beat": 1.5,
      "duration_beats": 3.0,
      "velocity": 1.0,
      "role": "chord",
      "is_tied": false
    },
    {
      "midi": 74,
      "name": "D5",
      "start": 30.9992,
      "duration": 0.8955,
      "bar": 9,
      "beat": 2.0,
      "duration_beats": 1.0,
      "velocity": 0.58,
      "role": "melody",
      "is_tied": false
    },
    {
      "midi": 64,
      "name": "E4",
      "start": 30.9992,
      "duration": 2.6866,
      "bar": 9,
      "beat": 2.0,
      "duration_beats": 3.0,
      "velocity": 1.0,
      "role": "melody",
      "is_tied": false
    },
    {
      "midi": 62,
      "name": "D4",
      "start": 30.9992,
      "duration": 2.6866,
      "bar": 9,
      "beat": 2.0,
      "duration_beats": 3.0,
      "velocity": 0.75,
      "role": "chord",
      "is_tied": false
    },
    {
      "midi": 57,
      "name": "A3",
      "start": 30.9992,
      "duration": 2.6866,
      "bar": 9,
      "beat": 2.0,
      "duration_beats": 3.0,
      "velocity": 0.81,
      "role": "chord",
      "is_tied": false
    },
    {
      "midi": 60,
      "name": "C4",
      "start": 31.8948,
      "duration": 1.3433,
      "bar": 9,
      "beat": 3.0,
      "duration_beats": 1.5,
      "velocity": 0.81,
      "role": "chord",
      "is_tied": false
    },
    {
      "midi": 57,
      "name": "A3",
      "start": 31.8948,
      "duration": 1.3433,
      "bar": 9,
      "beat": 3.0,
      "duration_beats": 1.5,
      "velocity": 0.72,
      "role": "chord",
      "is_tied": false
    },
    {
      "midi": 55,
      "name": "G3",
      "start": 31.8948,
      "duration": 1.3433,
      "bar": 9,
      "beat": 3.0,
      "duration_beats": 1.5,
      "velocity": 0.64,
      "role": "chord",
      "is_tied": false
    },
    {
      "midi": 52,
      "name": "E3",
      "start": 31.8948,
      "duration": 1.3433,
      "bar": 9,
      "beat": 3.0,
      "duration_beats": 1.5,
      "velocity": 0.59,
      "role": "chord",
      "is_tied": false
    },
    {
      "midi": 74,
      "name": "D5",
      "start": 33.238,
      "duration": 0.4478,
      "bar": 9,
      "beat": 4.5,
      "duration_beats": 0.5,
      "velocity": 1.0,
      "role": "melody",
      "is_tied": false
    },
    {
      "midi": 67,
      "name": "G4",
      "start": 33.238,
      "duration": 0.2239,
      "bar": 9,
      "beat": 4.5,
      "duration_beats": 0.25,
      "velocity": 0.55,
      "role": "melody",
      "is_tied": false
    },
    {
      "midi": 50,
      "name": "D3",
      "start": 33.238,
      "duration": 3.5821,
      "bar": 9,
      "beat": 4.5,
      "duration_beats": 4.0,
      "velocity": 0.48,
      "role": "chord",
      "is_tied": false
    },
    {
      "midi": 64,
      "name": "E4",
      "start": 33.6858,
      "duration": 1.791,
      "bar": 10,
      "beat": 1.0,
      "duration_beats": 2.0,
      "velocity": 1.0,
      "role": "melody",
      "is_tied": false
    },
    {
      "midi": 41,
      "name": "F2",
      "start": 33.6858,
      "duration": 0.4478,
      "bar": 10,
      "beat": 1.0,
      "duration_beats": 0.5,
      "velocity": 1.0,
      "role": "bass",
      "is_tied": false
    },
    {
      "midi": 33,
      "name": "A1",
      "start": 33.6858,
      "duration": 0.2239,
      "bar": 10,
      "beat": 1.0,
      "duration_beats": 0.25,
      "velocity": 1.0,
      "role": "bass",
      "is_tied": false
    },
    {
      "midi": 57,
      "name": "A3",
      "start": 34.1336,
      "duration": 2.6866,
      "bar": 10,
      "beat": 1.5,
      "duration_beats": 3.0,
      "velocity": 0.35,
      "role": "chord",
      "is_tied": false
    },
    {
      "midi": 54,
      "name": "F#3",
      "start": 34.1336,
      "duration": 2.6866,
      "bar": 10,
      "beat": 1.5,
      "duration_beats": 3.0,
      "velocity": 0.95,
      "role": "bass",
      "is_tied": false
    },
    {
      "midi": 50,
      "name": "D3",
      "start": 34.1336,
      "duration": 2.6866,
      "bar": 10,
      "beat": 1.5,
      "duration_beats": 3.0,
      "velocity": 0.33,
      "role": "chord",
      "is_tied": false
    },
    {
      "midi": 74,
      "name": "D5",
      "start": 35.4769,
      "duration": 1.791,
      "bar": 10,
      "beat": 3.0,
      "duration_beats": 2.0,
      "velocity": 0.59,
      "role": "melody",
      "is_tied": false
    },
    {
      "midi": 59,
      "name": "B3",
      "start": 35.4769,
      "duration": 1.3433,
      "bar": 10,
      "beat": 3.0,
      "duration_beats": 1.5,
      "velocity": 0.67,
      "role": "chord",
      "is_tied": false
    },
    {
      "midi": 50,
      "name": "D3",
      "start": 35.4769,
      "duration": 1.3433,
      "bar": 10,
      "beat": 3.0,
      "duration_beats": 1.5,
      "velocity": 0.57,
      "role": "chord",
      "is_tied": false
    },
    {
      "midi": 69,
      "name": "A4",
      "start": 36.8201,
      "duration": 0.2239,
      "bar": 10,
      "beat": 4.5,
      "duration_beats": 0.25,
      "velocity": 0.53,
      "role": "melody",
      "is_tied": false
    },
    {
      "midi": 52,
      "name": "E3",
      "start": 37.2679,
      "duration": 0.6716,
      "bar": 11,
      "beat": 1.0,
      "duration_beats": 0.75,
      "velocity": 0.48,
      "role": "chord",
      "is_tied": false
    },
    {
      "midi": 43,
      "name": "G2",
      "start": 37.2679,
      "duration": 0.2239,
      "bar": 11,
      "beat": 1.0,
      "duration_beats": 0.25,
      "velocity": 1.0,
      "role": "bass",
      "is_tied": false
    },
    {
      "midi": 41,
      "name": "F2",
      "start": 37.2679,
      "duration": 0.4478,
      "bar": 11,
      "beat": 1.0,
      "duration_beats": 0.5,
      "velocity": 1.0,
      "role": "bass",
      "is_tied": false
    },
    {
      "midi": 74,
      "name": "D5",
      "start": 37.7157,
      "duration": 1.3433,
      "bar": 11,
      "beat": 1.5,
      "duration_beats": 1.5,
      "velocity": 0.97,
      "role": "melody",
      "is_tied": false
    },
    {
      "midi": 69,
      "name": "A4",
      "start": 37.7157,
      "duration": 0.8955,
      "bar": 11,
      "beat": 1.5,
      "duration_beats": 1.0,
      "velocity": 0.48,
      "role": "melody",
      "is_tied": false
    },
    {
      "midi": 50,
      "name": "D3",
      "start": 37.7157,
      "duration": 1.3433,
      "bar": 11,
      "beat": 1.5,
      "duration_beats": 1.5,
      "velocity": 0.65,
      "role": "chord",
      "is_tied": false
    },
    {
      "midi": 42,
      "name": "F#2",
      "start": 37.7157,
      "duration": 0.8955,
      "bar": 11,
      "beat": 1.5,
      "duration_beats": 1.0,
      "velocity": 0.85,
      "role": "bass",
      "is_tied": false
    },
    {
      "midi": 81,
      "name": "A5",
      "start": 38.6112,
      "duration": 0.2239,
      "bar": 11,
      "beat": 2.5,
      "duration_beats": 0.25,
      "velocity": 0.4,
      "role": "melody",
      "is_tied": false
    },
    {
      "midi": 74,
      "name": "D5",
      "start": 38.6112,
      "duration": 0.2239,
      "bar": 11,
      "beat": 2.5,
      "duration_beats": 0.25,
      "velocity": 1.0,
      "role": "melody",
      "is_tied": false
    },
    {
      "midi": 54,
      "name": "F#3",
      "start": 38.6112,
      "duration": 0.2239,
      "bar": 11,
      "beat": 2.5,
      "duration_beats": 0.25,
      "velocity": 1.0,
      "role": "bass",
      "is_tied": false
    },
    {
      "midi": 50,
      "name": "D3",
      "start": 38.6112,
      "duration": 0.2239,
      "bar": 11,
      "beat": 2.5,
      "duration_beats": 0.25,
      "velocity": 0.65,
      "role": "chord",
      "is_tied": false
    },
    {
      "midi": 65,
      "name": "F4",
      "start": 39.0589,
      "duration": 0.8955,
      "bar": 11,
      "beat": 3.0,
      "duration_beats": 1.0,
      "velocity": 1.0,
      "role": "melody",
      "is_tied": false
    },
    {
      "midi": 62,
      "name": "D4",
      "start": 39.0589,
      "duration": 0.2239,
      "bar": 11,
      "beat": 3.0,
      "duration_beats": 0.25,
      "velocity": 0.7,
      "role": "melody",
      "is_tied": false
    },
    {
      "midi": 41,
      "name": "F2",
      "start": 39.0589,
      "duration": 0.4478,
      "bar": 11,
      "beat": 3.0,
      "duration_beats": 0.5,
      "velocity": 1.0,
      "role": "bass",
      "is_tied": false
    },
    {
      "midi": 67,
      "name": "G4",
      "start": 39.5067,
      "duration": 1.791,
      "bar": 11,
      "beat": 3.5,
      "duration_beats": 2.0,
      "velocity": 0.49,
      "role": "chord",
      "is_tied": false
    },
    {
      "midi": 65,
      "name": "F4",
      "start": 39.5067,
      "duration": 0.8955,
      "bar": 11,
      "beat": 3.5,
      "duration_beats": 1.0,
      "velocity": 1.0,
      "role": "melody",
      "is_tied": false
    },
    {
      "midi": 55,
      "name": "G3",
      "start": 39.5067,
      "duration": 1.3433,
      "bar": 11,
      "beat": 3.5,
      "duration_beats": 1.5,
      "velocity": 0.97,
      "role": "chord",
      "is_tied": false
    },
    {
      "midi": 41,
      "name": "F2",
      "start": 39.5067,
      "duration": 0.2239,
      "bar": 11,
      "beat": 3.5,
      "duration_beats": 0.25,
      "velocity": 0.86,
      "role": "bass",
      "is_tied": false
    },
    {
      "midi": 69,
      "name": "A4",
      "start": 40.4022,
      "duration": 0.4478,
      "bar": 11,
      "beat": 4.5,
      "duration_beats": 0.5,
      "velocity": 0.55,
      "role": "melody",
      "is_tied": false
    },
    {
      "midi": 48,
      "name": "C3",
      "start": 40.4022,
      "duration": 0.4478,
      "bar": 11,
      "beat": 4.5,
      "duration_beats": 0.5,
      "velocity": 0.33,
      "role": "chord",
      "is_tied": false
    },
    {
      "midi": 76,
      "name": "E5",
      "start": 40.85,
      "duration": 0.8955,
      "bar": 12,
      "beat": 1.0,
      "duration_beats": 1.0,
      "velocity": 0.62,
      "role": "melody",
      "is_tied": false
    },
    {
      "midi": 74,
      "name": "D5",
      "start": 40.85,
      "duration": 1.3433,
      "bar": 12,
      "beat": 1.0,
      "duration_beats": 1.5,
      "velocity": 0.46,
      "role": "melody",
      "is_tied": false
    },
    {
      "midi": 74,
      "name": "D5",
      "start": 40.85,
      "duration": 1.3433,
      "bar": 12,
      "beat": 1.0,
      "duration_beats": 1.5,
      "velocity": 1.0,
      "role": "melody",
      "is_tied": false
    },
    {
      "midi": 58,
      "name": "A#3",
      "start": 40.85,
      "duration": 1.3433,
      "bar": 12,
      "beat": 1.0,
      "duration_beats": 1.5,
      "velocity": 0.77,
      "role": "chord",
      "is_tied": false
    },
    {
      "midi": 58,
      "name": "A#3",
      "start": 40.85,
      "duration": 0.8955,
      "bar": 12,
      "beat": 1.0,
      "duration_beats": 1.0,
      "velocity": 0.47,
      "role": "chord",
      "is_tied": false
    },
    {
      "midi": 50,
      "name": "D3",
      "start": 40.85,
      "duration": 3.5821,
      "bar": 12,
      "beat": 1.0,
      "duration_beats": 4.0,
      "velocity": 0.75,
      "role": "chord",
      "is_tied": false
    },
    {
      "midi": 50,
      "name": "D3",
      "start": 40.85,
      "duration": 3.5821,
      "bar": 12,
      "beat": 1.0,
      "duration_beats": 4.0,
      "velocity": 0.35,
      "role": "chord",
      "is_tied": false
    },
    {
      "midi": 69,
      "name": "A4",
      "start": 41.7455,
      "duration": 0.2239,
      "bar": 12,
      "beat": 2.0,
      "duration_beats": 0.25,
      "velocity": 1.0,
      "role": "melody",
      "is_tied": false
    },
    {
      "midi": 67,
      "name": "G4",
      "start": 41.7455,
      "duration": 0.2239,
      "bar": 12,
      "beat": 2.0,
      "duration_beats": 0.25,
      "velocity": 0.38,
      "role": "chord",
      "is_tied": false
    },
    {
      "midi": 48,
      "name": "C3",
      "start": 41.7455,
      "duration": 0.2239,
      "bar": 12,
      "beat": 2.0,
      "duration_beats": 0.25,
      "velocity": 1.0,
      "role": "bass",
      "is_tied": false
    },
    {
      "midi": 45,
      "name": "A2",
      "start": 42.1933,
      "duration": 1.791,
      "bar": 12,
      "beat": 2.5,
      "duration_beats": 2.0,
      "velocity": 1.0,
      "role": "bass",
      "is_tied": false
    },
    {
      "midi": 38,
      "name": "D2",
      "start": 42.641,
      "duration": 1.3433,
      "bar": 12,
      "beat": 3.0,
      "duration_beats": 1.5,
      "velocity": 1.0,
      "role": "bass",
      "is_tied": false
    },
    {
      "midi": 73,
      "name": "C#5",
      "start": 43.5366,
      "duration": 0.4478,
      "bar": 12,
      "beat": 4.0,
      "duration_beats": 0.5,
      "velocity": 0.5,
      "role": "melody",
      "is_tied": false
    },
    {
      "midi": 54,
      "name": "F#3",
      "start": 43.5366,
      "duration": 0.4478,
      "bar": 12,
      "beat": 4.0,
      "duration_beats": 0.5,
      "velocity": 0.49,
      "role": "chord",
      "is_tied": false
    },
    {
      "midi": 50,
      "name": "D3",
      "start": 43.5366,
      "duration": 0.8955,
      "bar": 12,
      "beat": 4.0,
      "duration_beats": 1.0,
      "velocity": 0.62,
      "role": "chord",
      "is_tied": false
    },
    {
      "midi": 45,
      "name": "A2",
      "start": 43.5366,
      "duration": 0.8955,
      "bar": 12,
      "beat": 4.0,
      "duration_beats": 1.0,
      "velocity": 1.0,
      "role": "bass",
      "is_tied": false
    },
    {
      "midi": 74,
      "name": "D5",
      "start": 43.9843,
      "duration": 0.2239,
      "bar": 12,
      "beat": 4.5,
      "duration_beats": 0.25,
      "velocity": 0.63,
      "role": "melody",
      "is_tied": false
    },
    {
      "midi": 64,
      "name": "E4",
      "start": 43.9843,
      "duration": 0.2239,
      "bar": 12,
      "beat": 4.5,
      "duration_beats": 0.25,
      "velocity": 1.0,
      "role": "melody",
      "is_tied": false
    },
    {
      "midi": 62,
      "name": "D4",
      "start": 43.9843,
      "duration": 0.4478,
      "bar": 12,
      "beat": 4.5,
      "duration_beats": 0.5,
      "velocity": 1.0,
      "role": "chord",
      "is_tied": false
    },
    {
      "midi": 50,
      "name": "D3",
      "start": 43.9843,
      "duration": 0.2239,
      "bar": 12,
      "beat": 4.5,
      "duration_beats": 0.25,
      "velocity": 0.64,
      "role": "chord",
      "is_tied": false
    },
    {
      "midi": 45,
      "name": "A2",
      "start": 43.9843,
      "duration": 0.2239,
      "bar": 12,
      "beat": 4.5,
      "duration_beats": 0.25,
      "velocity": 1.0,
      "role": "bass",
      "is_tied": false
    },
    {
      "midi": 64,
      "name": "E4",
      "start": 44.4321,
      "duration": 0.4478,
      "bar": 13,
      "beat": 1.0,
      "duration_beats": 0.5,
      "velocity": 1.0,
      "role": "melody",
      "is_tied": false
    },
    {
      "midi": 62,
      "name": "D4",
      "start": 44.4321,
      "duration": 1.791,
      "bar": 13,
      "beat": 1.0,
      "duration_beats": 2.0,
      "velocity": 0.97,
      "role": "chord",
      "is_tied": false
    },
    {
      "midi": 54,
      "name": "F#3",
      "start": 44.4321,
      "duration": 1.3433,
      "bar": 13,
      "beat": 1.0,
      "duration_beats": 1.5,
      "velocity": 0.8,
      "role": "bass",
      "is_tied": false
    },
    {
      "midi": 81,
      "name": "A5",
      "start": 44.8798,
      "duration": 0.6716,
      "bar": 13,
      "beat": 1.5,
      "duration_beats": 0.75,
      "velocity": 0.61,
      "role": "melody",
      "is_tied": false
    },
    {
      "midi": 62,
      "name": "D4",
      "start": 44.8798,
      "duration": 1.3433,
      "bar": 13,
      "beat": 1.5,
      "duration_beats": 1.5,
      "velocity": 1.0,
      "role": "chord",
      "is_tied": false
    },
    {
      "midi": 54,
      "name": "F#3",
      "start": 44.8798,
      "duration": 0.8955,
      "bar": 13,
      "beat": 1.5,
      "duration_beats": 1.0,
      "velocity": 0.66,
      "role": "bass",
      "is_tied": false
    },
    {
      "midi": 74,
      "name": "D5",
      "start": 45.3276,
      "duration": 0.2239,
      "bar": 13,
      "beat": 2.0,
      "duration_beats": 0.25,
      "velocity": 0.48,
      "role": "melody",
      "is_tied": false
    },
    {
      "midi": 59,
      "name": "B3",
      "start": 45.3276,
      "duration": 0.2239,
      "bar": 13,
      "beat": 2.0,
      "duration_beats": 0.25,
      "velocity": 0.88,
      "role": "chord",
      "is_tied": false
    },
    {
      "midi": 57,
      "name": "A3",
      "start": 45.3276,
      "duration": 0.2239,
      "bar": 13,
      "beat": 2.0,
      "duration_beats": 0.25,
      "velocity": 0.68,
      "role": "chord",
      "is_tied": false
    },
    {
      "midi": 50,
      "name": "D3",
      "start": 45.3276,
      "duration": 0.6716,
      "bar": 13,
      "beat": 2.0,
      "duration_beats": 0.75,
      "velocity": 0.75,
      "role": "chord",
      "is_tied": false
    },
    {
      "midi": 64,
      "name": "E4",
      "start": 45.7754,
      "duration": 1.3433,
      "bar": 13,
      "beat": 2.5,
      "duration_beats": 1.5,
      "velocity": 1.0,
      "role": "chord",
      "is_tied": false
    },
    {
      "midi": 56,
      "name": "G#3",
      "start": 45.7754,
      "duration": 0.2239,
      "bar": 13,
      "beat": 2.5,
      "duration_beats": 0.25,
      "velocity": 0.45,
      "role": "chord",
      "is_tied": false
    },
    {
      "midi": 60,
      "name": "C4",
      "start": 46.2231,
      "duration": 0.8955,
      "bar": 13,
      "beat": 3.0,
      "duration_beats": 1.0,
      "velocity": 0.79,
      "role": "chord",
      "is_tied": false
    },
    {
      "midi": 59,
      "name": "B3",
      "start": 46.2231,
      "duration": 0.8955,
      "bar": 13,
      "beat": 3.0,
      "duration_beats": 1.0,
      "velocity": 0.43,
      "role": "chord",
      "is_tied": false
    },
    {
      "midi": 57,
      "name": "A3",
      "start": 46.2231,
      "duration": 0.8955,
      "bar": 13,
      "beat": 3.0,
      "duration_beats": 1.0,
      "velocity": 0.49,
      "role": "chord",
      "is_tied": false
    },
    {
      "midi": 52,
      "name": "E3",
      "start": 46.2231,
      "duration": 0.8955,
      "bar": 13,
      "beat": 3.0,
      "duration_beats": 1.0,
      "velocity": 0.58,
      "role": "chord",
      "is_tied": false
    },
    {
      "midi": 73,
      "name": "C#5",
      "start": 47.1186,
      "duration": 0.4478,
      "bar": 13,
      "beat": 4.0,
      "duration_beats": 0.5,
      "velocity": 0.31,
      "role": "melody",
      "is_tied": false
    },
    {
      "midi": 72,
      "name": "C5",
      "start": 47.1186,
      "duration": 0.4478,
      "bar": 13,
      "beat": 4.0,
      "duration_beats": 0.5,
      "velocity": 0.45,
      "role": "melody",
      "is_tied": false
    },
    {
      "midi": 57,
      "name": "A3",
      "start": 47.1186,
      "duration": 0.4478,
      "bar": 13,
      "beat": 4.0,
      "duration_beats": 0.5,
      "velocity": 1.0,
      "role": "chord",
      "is_tied": false
    },
    {
      "midi": 42,
      "name": "F#2",
      "start": 47.1186,
      "duration": 0.4478,
      "bar": 13,
      "beat": 4.0,
      "duration_beats": 0.5,
      "velocity": 0.8,
      "role": "bass",
      "is_tied": false
    },
    {
      "midi": 74,
      "name": "D5",
      "start": 47.5664,
      "duration": 0.8955,
      "bar": 13,
      "beat": 4.5,
      "duration_beats": 1.0,
      "velocity": 0.66,
      "role": "melody",
      "is_tied": false
    },
    {
      "midi": 73,
      "name": "C#5",
      "start": 47.5664,
      "duration": 0.2239,
      "bar": 13,
      "beat": 4.5,
      "duration_beats": 0.25,
      "velocity": 0.31,
      "role": "melody",
      "is_tied": false
    },
    {
      "midi": 71,
      "name": "B4",
      "start": 47.5664,
      "duration": 0.2239,
      "bar": 13,
      "beat": 4.5,
      "duration_beats": 0.25,
      "velocity": 1.0,
      "role": "melody",
      "is_tied": false
    },
    {
      "midi": 59,
      "name": "B3",
      "start": 47.5664,
      "duration": 0.4478,
      "bar": 13,
      "beat": 4.5,
      "duration_beats": 0.5,
      "velocity": 0.72,
      "role": "chord",
      "is_tied": false
    },
    {
      "midi": 50,
      "name": "D3",
      "start": 47.5664,
      "duration": 1.3433,
      "bar": 13,
      "beat": 4.5,
      "duration_beats": 1.5,
      "velocity": 0.66,
      "role": "chord",
      "is_tied": false
    },
    {
      "midi": 74,
      "name": "D5",
      "start": 48.0142,
      "duration": 0.4478,
      "bar": 14,
      "beat": 1.0,
      "duration_beats": 0.5,
      "velocity": 0.91,
      "role": "melody",
      "is_tied": false
    },
    {
      "midi": 69,
      "name": "A4",
      "start": 48.0142,
      "duration": 0.4478,
      "bar": 14,
      "beat": 1.0,
      "duration_beats": 0.5,
      "velocity": 0.52,
      "role": "chord",
      "is_tied": false
    },
    {
      "midi": 67,
      "name": "G4",
      "start": 48.0142,
      "duration": 0.4478,
      "bar": 14,
      "beat": 1.0,
      "duration_beats": 0.5,
      "velocity": 0.34,
      "role": "melody",
      "is_tied": false
    },
    {
      "midi": 64,
      "name": "E4",
      "start": 48.0142,
      "duration": 0.4478,
      "bar": 14,
      "beat": 1.0,
      "duration_beats": 0.5,
      "velocity": 0.84,
      "role": "chord",
      "is_tied": false
    },
    {
      "midi": 60,
      "name": "C4",
      "start": 48.0142,
      "duration": 0.4478,
      "bar": 14,
      "beat": 1.0,
      "duration_beats": 0.5,
      "velocity": 0.54,
      "role": "chord",
      "is_tied": false
    },
    {
      "midi": 54,
      "name": "F#3",
      "start": 48.0142,
      "duration": 0.4478,
      "bar": 14,
      "beat": 1.0,
      "duration_beats": 0.5,
      "velocity": 0.64,
      "role": "chord",
      "is_tied": false
    },
    {
      "midi": 67,
      "name": "G4",
      "start": 48.9097,
      "duration": 0.4478,
      "bar": 14,
      "beat": 2.0,
      "duration_beats": 0.5,
      "velocity": 0.31,
      "role": "chord",
      "is_tied": false
    },
    {
      "midi": 64,
      "name": "E4",
      "start": 48.9097,
      "duration": 1.791,
      "bar": 14,
      "beat": 2.0,
      "duration_beats": 2.0,
      "velocity": 0.93,
      "role": "melody",
      "is_tied": false
    },
    {
      "midi": 35,
      "name": "B1",
      "start": 48.9097,
      "duration": 0.4478,
      "bar": 14,
      "beat": 2.0,
      "duration_beats": 0.5,
      "velocity": 0.38,
      "role": "bass",
      "is_tied": false
    },
    {
      "midi": 64,
      "name": "E4",
      "start": 49.3574,
      "duration": 1.791,
      "bar": 14,
      "beat": 2.5,
      "duration_beats": 2.0,
      "velocity": 1.0,
      "role": "melody",
      "is_tied": false
    },
    {
      "midi": 63,
      "name": "D#4",
      "start": 49.3574,
      "duration": 0.4478,
      "bar": 14,
      "beat": 2.5,
      "duration_beats": 0.5,
      "velocity": 0.42,
      "role": "chord",
      "is_tied": false
    },
    {
      "midi": 60,
      "name": "C4",
      "start": 49.3574,
      "duration": 0.4478,
      "bar": 14,
      "beat": 2.5,
      "duration_beats": 0.5,
      "velocity": 0.48,
      "role": "chord",
      "is_tied": false
    },
    {
      "midi": 56,
      "name": "G#3",
      "start": 49.3574,
      "duration": 0.4478,
      "bar": 14,
      "beat": 2.5,
      "duration_beats": 0.5,
      "velocity": 0.34,
      "role": "chord",
      "is_tied": false
    },
    {
      "midi": 64,
      "name": "E4",
      "start": 49.8052,
      "duration": 1.3433,
      "bar": 14,
      "beat": 3.0,
      "duration_beats": 1.5,
      "velocity": 1.0,
      "role": "melody",
      "is_tied": false
    },
    {
      "midi": 59,
      "name": "B3",
      "start": 49.8052,
      "duration": 1.791,
      "bar": 14,
      "beat": 3.0,
      "duration_beats": 2.0,
      "velocity": 0.63,
      "role": "chord",
      "is_tied": false
    },
    {
      "midi": 78,
      "name": "F#5",
      "start": 51.1485,
      "duration": 0.2239,
      "bar": 14,
      "beat": 4.5,
      "duration_beats": 0.25,
      "velocity": 0.5,
      "role": "melody",
      "is_tied": false
    },
    {
      "midi": 78,
      "name": "F#5",
      "start": 51.1485,
      "duration": 0.2239,
      "bar": 14,
      "beat": 4.5,
      "duration_beats": 0.25,
      "velocity": 0.5,
      "role": "melody",
      "is_tied": true
    },
    {
      "midi": 74,
      "name": "D5",
      "start": 51.1485,
      "duration": 0.2239,
      "bar": 14,
      "beat": 4.5,
      "duration_beats": 0.25,
      "velocity": 1.0,
      "role": "melody",
      "is_tied": false
    },
    {
      "midi": 74,
      "name": "D5",
      "start": 51.1485,
      "duration": 0.2239,
      "bar": 14,
      "beat": 4.5,
      "duration_beats": 0.25,
      "velocity": 1.0,
      "role": "melody",
      "is_tied": true
    },
    {
      "midi": 62,
      "name": "D4",
      "start": 51.1485,
      "duration": 0.2239,
      "bar": 14,
      "beat": 4.5,
      "duration_beats": 0.25,
      "velocity": 1.0,
      "role": "chord",
      "is_tied": false
    },
    {
      "midi": 62,
      "name": "D4",
      "start": 51.1485,
      "duration": 0.2239,
      "bar": 14,
      "beat": 4.5,
      "duration_beats": 0.25,
      "velocity": 1.0,
      "role": "chord",
      "is_tied": true
    },
    {
      "midi": 74,
      "name": "D5",
      "start": 51.5963,
      "duration": 0.2239,
      "bar": 15,
      "beat": 1.0,
      "duration_beats": 0.25,
      "velocity": 0.65,
      "role": "melody",
      "is_tied": false
    },
    {
      "midi": 71,
      "name": "B4",
      "start": 51.5963,
      "duration": 0.2239,
      "bar": 15,
      "beat": 1.0,
      "duration_beats": 0.25,
      "velocity": 0.3,
      "role": "melody",
      "is_tied": false
    },
    {
      "midi": 50,
      "name": "D3",
      "start": 51.5963,
      "duration": 0.2239,
      "bar": 15,
      "beat": 1.0,
      "duration_beats": 0.25,
      "velocity": 0.47,
      "role": "chord",
      "is_tied": false
    },
    {
      "midi": 50,
      "name": "D3",
      "start": 51.5963,
      "duration": 3.5821,
      "bar": 15,
      "beat": 1.0,
      "duration_beats": 4.0,
      "velocity": 0.79,
      "role": "chord",
      "is_tied": false
    },
    {
      "midi": 43,
      "name": "G2",
      "start": 51.5963,
      "duration": 0.2239,
      "bar": 15,
      "beat": 1.0,
      "duration_beats": 0.25,
      "velocity": 1.0,
      "role": "bass",
      "is_tied": false
    },
    {
      "midi": 43,
      "name": "G2",
      "start": 51.5963,
      "duration": 1.791,
      "bar": 15,
      "beat": 1.0,
      "duration_beats": 2.0,
      "velocity": 1.0,
      "role": "bass",
      "is_tied": false
    },
    {
      "midi": 74,
      "name": "D5",
      "start": 53.3873,
      "duration": 0.6716,
      "bar": 15,
      "beat": 3.0,
      "duration_beats": 0.75,
      "velocity": 0.53,
      "role": "melody",
      "is_tied": false
    },
    {
      "midi": 58,
      "name": "A#3",
      "start": 53.3873,
      "duration": 3.5821,
      "bar": 15,
      "beat": 3.0,
      "duration_beats": 4.0,
      "velocity": 0.37,
      "role": "chord",
      "is_tied": false
    },
    {
      "midi": 53,
      "name": "F3",
      "start": 53.3873,
      "duration": 2.6866,
      "bar": 15,
      "beat": 3.0,
      "duration_beats": 3.0,
      "velocity": 1.0,
      "role": "bass",
      "is_tied": false
    },
    {
      "midi": 50,
      "name": "D3",
      "start": 53.3873,
      "duration": 2.6866,
      "bar": 15,
      "beat": 3.0,
      "duration_beats": 3.0,
      "velocity": 0.64,
      "role": "chord",
      "is_tied": false
    },
    {
      "midi": 43,
      "name": "G2",
      "start": 53.3873,
      "duration": 0.2239,
      "bar": 15,
      "beat": 3.0,
      "duration_beats": 0.25,
      "velocity": 1.0,
      "role": "bass",
      "is_tied": false
    },
    {
      "midi": 67,
      "name": "G4",
      "start": 53.8351,
      "duration": 3.5821,
      "bar": 15,
      "beat": 3.5,
      "duration_beats": 4.0,
      "velocity": 1.0,
      "role": "melody",
      "is_tied": false
    },
    {
      "midi": 58,
      "name": "A#3",
      "start": 53.8351,
      "duration": 3.5821,
      "bar": 15,
      "beat": 3.5,
      "duration_beats": 4.0,
      "velocity": 0.64,
      "role": "chord",
      "is_tied": false
    },
    {
      "midi": 74,
      "name": "D5",
      "start": 55.1783,
      "duration": 0.2239,
      "bar": 16,
      "beat": 1.0,
      "duration_beats": 0.25,
      "velocity": 0.32,
      "role": "melody",
      "is_tied": false
    },
    {
      "midi": 67,
      "name": "G4",
      "start": 55.1783,
      "duration": 2.6866,
      "bar": 16,
      "beat": 1.0,
      "duration_beats": 3.0,
      "velocity": 1.0,
      "role": "melody",
      "is_tied": false
    },
    {
      "midi": 62,
      "name": "D4",
      "start": 55.1783,
      "duration": 0.4478,
      "bar": 16,
      "beat": 1.0,
      "duration_beats": 0.5,
      "velocity": 0.71,
      "role": "chord",
      "is_tied": false
    },
    {
      "midi": 58,
      "name": "A#3",
      "start": 55.1783,
      "duration": 2.6866,
      "bar": 16,
      "beat": 1.0,
      "duration_beats": 3.0,
      "velocity": 0.4,
      "role": "chord",
      "is_tied": false
    },
    {
      "midi": 67,
      "name": "G4",
      "start": 55.6261,
      "duration": 1.791,
      "bar": 16,
      "beat": 1.5,
      "duration_beats": 2.0,
      "velocity": 0.78,
      "role": "melody",
      "is_tied": false
    },
    {
      "midi": 65,
      "name": "F4",
      "start": 55.6261,
      "duration": 0.6716,
      "bar": 16,
      "beat": 1.5,
      "duration_beats": 0.75,
      "velocity": 1.0,
      "role": "melody",
      "is_tied": false
    },
    {
      "midi": 58,
      "name": "A#3",
      "start": 55.6261,
      "duration": 1.791,
      "bar": 16,
      "beat": 1.5,
      "duration_beats": 2.0,
      "velocity": 0.78,
      "role": "chord",
      "is_tied": false
    },
    {
      "midi": 57,
      "name": "A3",
      "start": 56.9694,
      "duration": 1.791,
      "bar": 16,
      "beat": 3.0,
      "duration_beats": 2.0,
      "velocity": 0.7,
      "role": "chord",
      "is_tied": false
    },
    {
      "midi": 54,
      "name": "F#3",
      "start": 56.9694,
      "duration": 1.791,
      "bar": 16,
      "beat": 3.0,
      "duration_beats": 2.0,
      "velocity": 0.76,
      "role": "chord",
      "is_tied": false
    },
    {
      "midi": 52,
      "name": "E3",
      "start": 56.9694,
      "duration": 3.5821,
      "bar": 16,
      "beat": 3.0,
      "duration_beats": 4.0,
      "velocity": 0.62,
      "role": "chord",
      "is_tied": false
    },
    {
      "midi": 50,
      "name": "D3",
      "start": 56.9694,
      "duration": 1.3433,
      "bar": 16,
      "beat": 3.0,
      "duration_beats": 1.5,
      "velocity": 0.97,
      "role": "chord",
      "is_tied": false
    },
    {
      "midi": 57,
      "name": "A3",
      "start": 57.4171,
      "duration": 1.3433,
      "bar": 16,
      "beat": 3.5,
      "duration_beats": 1.5,
      "velocity": 0.78,
      "role": "chord",
      "is_tied": false
    },
    {
      "midi": 54,
      "name": "F#3",
      "start": 57.4171,
      "duration": 1.3433,
      "bar": 16,
      "beat": 3.5,
      "duration_beats": 1.5,
      "velocity": 0.9,
      "role": "bass",
      "is_tied": false
    },
    {
      "midi": 52,
      "name": "E3",
      "start": 57.4171,
      "duration": 3.5821,
      "bar": 16,
      "beat": 3.5,
      "duration_beats": 4.0,
      "velocity": 0.53,
      "role": "chord",
      "is_tied": false
    },
    {
      "midi": 50,
      "name": "D3",
      "start": 57.4171,
      "duration": 0.4478,
      "bar": 16,
      "beat": 3.5,
      "duration_beats": 0.5,
      "velocity": 0.72,
      "role": "chord",
      "is_tied": false
    },
    {
      "midi": 74,
      "name": "D5",
      "start": 57.8649,
      "duration": 0.8955,
      "bar": 16,
      "beat": 4.0,
      "duration_beats": 1.0,
      "velocity": 1.0,
      "role": "melody",
      "is_tied": false
    },
    {
      "midi": 69,
      "name": "A4",
      "start": 57.8649,
      "duration": 1.3433,
      "bar": 16,
      "beat": 4.0,
      "duration_beats": 1.5,
      "velocity": 1.0,
      "role": "melody",
      "is_tied": false
    },
    {
      "midi": 49,
      "name": "C#3",
      "start": 57.8649,
      "duration": 0.6716,
      "bar": 16,
      "beat": 4.0,
      "duration_beats": 0.75,
      "velocity": 0.94,
      "role": "chord",
      "is_tied": false
    },
    {
      "midi": 74,
      "name": "D5",
      "start": 58.7604,
      "duration": 0.2239,
      "bar": 17,
      "beat": 1.0,
      "duration_beats": 0.25,
      "velocity": 0.41,
      "role": "melody",
      "is_tied": false
    },
    {
      "midi": 64,
      "name": "E4",
      "start": 58.7604,
      "duration": 2.6866,
      "bar": 17,
      "beat": 1.0,
      "duration_beats": 3.0,
      "velocity": 1.0,
      "role": "melody",
      "is_tied": false
    },
    {
      "midi": 61,
      "name": "C#4",
      "start": 58.7604,
      "duration": 0.2239,
      "bar": 17,
      "beat": 1.0,
      "duration_beats": 0.25,
      "velocity": 0.53,
      "role": "chord",
      "is_tied": false
    },
    {
      "midi": 57,
      "name": "A3",
      "start": 58.7604,
      "duration": 0.2239,
      "bar": 17,
      "beat": 1.0,
      "duration_beats": 0.25,
      "velocity": 0.64,
      "role": "chord",
      "is_tied": false
    },
    {
      "midi": 54,
      "name": "F#3",
      "start": 58.7604,
      "duration": 0.2239,
      "bar": 17,
      "beat": 1.0,
      "duration_beats": 0.25,
      "velocity": 0.44,
      "role": "bass",
      "is_tied": false
    },
    {
      "midi": 54,
      "name": "F#3",
      "start": 58.7604,
      "duration": 0.4478,
      "bar": 17,
      "beat": 1.0,
      "duration_beats": 0.5,
      "velocity": 0.61,
      "role": "chord",
      "is_tied": false
    },
    {
      "midi": 57,
      "name": "A3",
      "start": 59.2082,
      "duration": 0.4478,
      "bar": 17,
      "beat": 1.5,
      "duration_beats": 0.5,
      "velocity": 0.49,
      "role": "chord",
      "is_tied": false
    },
    {
      "midi": 50,
      "name": "D3",
      "start": 59.2082,
      "duration": 0.8955,
      "bar": 17,
      "beat": 1.5,
      "duration_beats": 1.0,
      "velocity": 0.5,
      "role": "chord",
      "is_tied": false
    },
    {
      "midi": 71,
      "name": "B4",
      "start": 59.656,
      "duration": 1.791,
      "bar": 17,
      "beat": 2.0,
      "duration_beats": 2.0,
      "velocity": 0.35,
      "role": "melody",
      "is_tied": false
    },
    {
      "midi": 57,
      "name": "A3",
      "start": 59.656,
      "duration": 0.2239,
      "bar": 17,
      "beat": 2.0,
      "duration_beats": 0.25,
      "velocity": 0.44,
      "role": "chord",
      "is_tied": false
    },
    {
      "midi": 52,
      "name": "E3",
      "start": 59.656,
      "duration": 1.791,
      "bar": 17,
      "beat": 2.0,
      "duration_beats": 2.0,
      "velocity": 0.64,
      "role": "chord",
      "is_tied": false
    },
    {
      "midi": 50,
      "name": "D3",
      "start": 59.656,
      "duration": 0.6716,
      "bar": 17,
      "beat": 2.0,
      "duration_beats": 0.75,
      "velocity": 0.52,
      "role": "chord",
      "is_tied": false
    },
    {
      "midi": 33,
      "name": "A1",
      "start": 59.656,
      "duration": 0.4478,
      "bar": 17,
      "beat": 2.0,
      "duration_beats": 0.5,
      "velocity": 0.79,
      "role": "bass",
      "is_tied": false
    },
    {
      "midi": 71,
      "name": "B4",
      "start": 60.5515,
      "duration": 0.8955,
      "bar": 17,
      "beat": 3.0,
      "duration_beats": 1.0,
      "velocity": 0.7,
      "role": "melody",
      "is_tied": false
    },
    {
      "midi": 60,
      "name": "C4",
      "start": 60.5515,
      "duration": 0.6716,
      "bar": 17,
      "beat": 3.0,
      "duration_beats": 0.75,
      "velocity": 0.69,
      "role": "chord",
      "is_tied": false
    },
    {
      "midi": 59,
      "name": "B3",
      "start": 60.5515,
      "duration": 1.791,
      "bar": 17,
      "beat": 3.0,
      "duration_beats": 2.0,
      "velocity": 0.6,
      "role": "chord",
      "is_tied": false
    },
    {
      "midi": 55,
      "name": "G3",
      "start": 60.5515,
      "duration": 0.6716,
      "bar": 17,
      "beat": 3.0,
      "duration_beats": 0.75,
      "velocity": 0.72,
      "role": "chord",
      "is_tied": false
    },
    {
      "midi": 52,
      "name": "E3",
      "start": 60.5515,
      "duration": 0.8955,
      "bar": 17,
      "beat": 3.0,
      "duration_beats": 1.0,
      "velocity": 0.8,
      "role": "chord",
      "is_tied": false
    },
    {
      "midi": 52,
      "name": "E3",
      "start": 60.5515,
      "duration": 0.6716,
      "bar": 17,
      "beat": 3.0,
      "duration_beats": 0.75,
      "velocity": 0.56,
      "role": "chord",
      "is_tied": false
    },
    {
      "midi": 83,
      "name": "B5",
      "start": 61.447,
      "duration": 0.4478,
      "bar": 17,
      "beat": 4.0,
      "duration_beats": 0.5,
      "velocity": 1.0,
      "role": "melody",
      "is_tied": false
    },
    {
      "midi": 74,
      "name": "D5",
      "start": 61.447,
      "duration": 0.8955,
      "bar": 17,
      "beat": 4.0,
      "duration_beats": 1.0,
      "velocity": 0.95,
      "role": "melody",
      "is_tied": false
    },
    {
      "midi": 67,
      "name": "G4",
      "start": 61.447,
      "duration": 0.2239,
      "bar": 17,
      "beat": 4.0,
      "duration_beats": 0.25,
      "velocity": 0.81,
      "role": "melody",
      "is_tied": false
    },
    {
      "midi": 67,
      "name": "G4",
      "start": 61.447,
      "duration": 0.2239,
      "bar": 17,
      "beat": 4.0,
      "duration_beats": 0.25,
      "velocity": 1.0,
      "role": "chord",
      "is_tied": false
    },
    {
      "midi": 64,
      "name": "E4",
      "start": 61.447,
      "duration": 0.4478,
      "bar": 17,
      "beat": 4.0,
      "duration_beats": 0.5,
      "velocity": 0.78,
      "role": "chord",
      "is_tied": false
    },
    {
      "midi": 60,
      "name": "C4",
      "start": 61.447,
      "duration": 0.4478,
      "bar": 17,
      "beat": 4.0,
      "duration_beats": 0.5,
      "velocity": 0.94,
      "role": "chord",
      "is_tied": false
    },
    {
      "midi": 59,
      "name": "B3",
      "start": 61.447,
      "duration": 0.8955,
      "bar": 17,
      "beat": 4.0,
      "duration_beats": 1.0,
      "velocity": 1.0,
      "role": "chord",
      "is_tied": false
    },
    {
      "midi": 70,
      "name": "A#4",
      "start": 61.8948,
      "duration": 0.2239,
      "bar": 17,
      "beat": 4.5,
      "duration_beats": 0.25,
      "velocity": 0.48,
      "role": "chord",
      "is_tied": false
    },
    {
      "midi": 50,
      "name": "D3",
      "start": 61.8948,
      "duration": 1.3433,
      "bar": 17,
      "beat": 4.5,
      "duration_beats": 1.5,
      "velocity": 0.46,
      "role": "chord",
      "is_tied": false
    },
    {
      "midi": 71,
      "name": "B4",
      "start": 62.3425,
      "duration": 1.3433,
      "bar": 18,
      "beat": 1.0,
      "duration_beats": 1.5,
      "velocity": 1.0,
      "role": "melody",
      "is_tied": false
    },
    {
      "midi": 41,
      "name": "F2",
      "start": 62.3425,
      "duration": 0.2239,
      "bar": 18,
      "beat": 1.0,
      "duration_beats": 0.25,
      "velocity": 1.0,
      "role": "bass",
      "is_tied": false
    },
    {
      "midi": 71,
      "name": "B4",
      "start": 62.7903,
      "duration": 0.8955,
      "bar": 18,
      "beat": 1.5,
      "duration_beats": 1.0,
      "velocity": 0.78,
      "role": "melody",
      "is_tied": false
    },
    {
      "midi": 60,
      "name": "C4",
      "start": 62.7903,
      "duration": 0.2239,
      "bar": 18,
      "beat": 1.5,
      "duration_beats": 0.25,
      "velocity": 0.36,
      "role": "chord",
      "is_tied": false
    },
    {
      "midi": 54,
      "name": "F#3",
      "start": 62.7903,
      "duration": 0.4478,
      "bar": 18,
      "beat": 1.5,
      "duration_beats": 0.5,
      "velocity": 1.0,
      "role": "bass",
      "is_tied": false
    },
    {
      "midi": 64,
      "name": "E4",
      "start": 63.238,
      "duration": 0.6716,
      "bar": 18,
      "beat": 2.0,
      "duration_beats": 0.75,
      "velocity": 1.0,
      "role": "melody",
      "is_tied": false
    },
    {
      "midi": 35,
      "name": "B1",
      "start": 63.238,
      "duration": 0.2239,
      "bar": 18,
      "beat": 2.0,
      "duration_beats": 0.25,
      "velocity": 1.0,
      "role": "bass",
      "is_tied": false
    },
    {
      "midi": 74,
      "name": "D5",
      "start": 63.6858,
      "duration": 0.2239,
      "bar": 18,
      "beat": 2.5,
      "duration_beats": 0.25,
      "velocity": 0.31,
      "role": "melody",
      "is_tied": false
    },
    {
      "midi": 72,
      "name": "C5",
      "start": 63.6858,
      "duration": 0.4478,
      "bar": 18,
      "beat": 2.5,
      "duration_beats": 0.5,
      "velocity": 0.49,
      "role": "melody",
      "is_tied": false
    },
    {
      "midi": 62,
      "name": "D4",
      "start": 63.6858,
      "duration": 1.3433,
      "bar": 18,
      "beat": 2.5,
      "duration_beats": 1.5,
      "velocity": 1.0,
      "role": "chord",
      "is_tied": false
    },
    {
      "midi": 58,
      "name": "A#3",
      "start": 63.6858,
      "duration": 0.4478,
      "bar": 18,
      "beat": 2.5,
      "duration_beats": 0.5,
      "velocity": 0.35,
      "role": "chord",
      "is_tied": false
    },
    {
      "midi": 78,
      "name": "F#5",
      "start": 64.1336,
      "duration": 0.8955,
      "bar": 18,
      "beat": 3.0,
      "duration_beats": 1.0,
      "velocity": 0.36,
      "role": "melody",
      "is_tied": false
    },
    {
      "midi": 59,
      "name": "B3",
      "start": 64.1336,
      "duration": 2.6866,
      "bar": 18,
      "beat": 3.0,
      "duration_beats": 3.0,
      "velocity": 0.85,
      "role": "chord",
      "is_tied": false
    },
    {
      "midi": 55,
      "name": "G3",
      "start": 64.1336,
      "duration": 0.8955,
      "bar": 18,
      "beat": 3.0,
      "duration_beats": 1.0,
      "velocity": 1.0,
      "role": "chord",
      "is_tied": false
    },
    {
      "midi": 67,
      "name": "G4",
      "start": 64.5813,
      "duration": 0.6716,
      "bar": 18,
      "beat": 3.5,
      "duration_beats": 0.75,
      "velocity": 0.57,
      "role": "chord",
      "is_tied": false
    },
    {
      "midi": 52,
      "name": "E3",
      "start": 64.5813,
      "duration": 0.6716,
      "bar": 18,
      "beat": 3.5,
      "duration_beats": 0.75,
      "velocity": 0.33,
      "role": "chord",
      "is_tied": false
    },
    {
      "midi": 50,
      "name": "D3",
      "start": 64.5813,
      "duration": 0.8955,
      "bar": 18,
      "beat": 3.5,
      "duration_beats": 1.0,
      "velocity": 0.47,
      "role": "chord",
      "is_tied": true
    },
    {
      "midi": 74,
      "name": "D5",
      "start": 65.0291,
      "duration": 0.8955,
      "bar": 18,
      "beat": 4.0,
      "duration_beats": 1.0,
      "velocity": 0.68,
      "role": "melody",
      "is_tied": false
    },
    {
      "midi": 83,
      "name": "B5",
      "start": 65.4769,
      "duration": 0.6716,
      "bar": 18,
      "beat": 4.5,
      "duration_beats": 0.75,
      "velocity": 0.96,
      "role": "melody",
      "is_tied": false
    },
    {
      "midi": 54,
      "name": "F#3",
      "start": 65.4769,
      "duration": 0.2239,
      "bar": 18,
      "beat": 4.5,
      "duration_beats": 0.25,
      "velocity": 0.53,
      "role": "chord",
      "is_tied": false
    },
    {
      "midi": 50,
      "name": "D3",
      "start": 65.4769,
      "duration": 2.6866,
      "bar": 18,
      "beat": 4.5,
      "duration_beats": 3.0,
      "velocity": 0.5,
      "role": "chord",
      "is_tied": false
    },
    {
      "midi": 49,
      "name": "C#3",
      "start": 65.4769,
      "duration": 0.4478,
      "bar": 18,
      "beat": 4.5,
      "duration_beats": 0.5,
      "velocity": 0.65,
      "role": "chord",
      "is_tied": false
    },
    {
      "midi": 59,
      "name": "B3",
      "start": 65.9246,
      "duration": 0.8955,
      "bar": 19,
      "beat": 1.0,
      "duration_beats": 1.0,
      "velocity": 0.55,
      "role": "chord",
      "is_tied": false
    },
    {
      "midi": 54,
      "name": "F#3",
      "start": 65.9246,
      "duration": 1.791,
      "bar": 19,
      "beat": 1.0,
      "duration_beats": 2.0,
      "velocity": 1.0,
      "role": "bass",
      "is_tied": false
    },
    {
      "midi": 54,
      "name": "F#3",
      "start": 65.9246,
      "duration": 1.791,
      "bar": 19,
      "beat": 1.0,
      "duration_beats": 2.0,
      "velocity": 1.0,
      "role": "bass",
      "is_tied": false
    },
    {
      "midi": 52,
      "name": "E3",
      "start": 65.9246,
      "duration": 1.3433,
      "bar": 19,
      "beat": 1.0,
      "duration_beats": 1.5,
      "velocity": 0.52,
      "role": "chord",
      "is_tied": false
    },
    {
      "midi": 81,
      "name": "A5",
      "start": 67.2679,
      "duration": 0.6716,
      "bar": 19,
      "beat": 2.5,
      "duration_beats": 0.75,
      "velocity": 0.44,
      "role": "melody",
      "is_tied": false
    },
    {
      "midi": 74,
      "name": "D5",
      "start": 67.2679,
      "duration": 0.6716,
      "bar": 19,
      "beat": 2.5,
      "duration_beats": 0.75,
      "velocity": 0.95,
      "role": "melody",
      "is_tied": false
    },
    {
      "midi": 62,
      "name": "D4",
      "start": 67.2679,
      "duration": 0.6716,
      "bar": 19,
      "beat": 2.5,
      "duration_beats": 0.75,
      "velocity": 1.0,
      "role": "chord",
      "is_tied": false
    },
    {
      "midi": 59,
      "name": "B3",
      "start": 67.2679,
      "duration": 0.2239,
      "bar": 19,
      "beat": 2.5,
      "duration_beats": 0.25,
      "velocity": 1.0,
      "role": "chord",
      "is_tied": true
    },
    {
      "midi": 81,
      "name": "A5",
      "start": 67.7157,
      "duration": 0.2239,
      "bar": 19,
      "beat": 3.0,
      "duration_beats": 0.25,
      "velocity": 0.94,
      "role": "melody",
      "is_tied": false
    },
    {
      "midi": 74,
      "name": "D5",
      "start": 67.7157,
      "duration": 0.2239,
      "bar": 19,
      "beat": 3.0,
      "duration_beats": 0.25,
      "velocity": 1.0,
      "role": "melody",
      "is_tied": false
    },
    {
      "midi": 54,
      "name": "F#3",
      "start": 67.7157,
      "duration": 0.2239,
      "bar": 19,
      "beat": 3.0,
      "duration_beats": 0.25,
      "velocity": 1.0,
      "role": "bass",
      "is_tied": false
    },
    {
      "midi": 50,
      "name": "D3",
      "start": 67.7157,
      "duration": 0.6716,
      "bar": 19,
      "beat": 3.0,
      "duration_beats": 0.75,
      "velocity": 0.46,
      "role": "chord",
      "is_tied": false
    },
    {
      "midi": 74,
      "name": "D5",
      "start": 68.1634,
      "duration": 0.2239,
      "bar": 19,
      "beat": 3.5,
      "duration_beats": 0.25,
      "velocity": 0.91,
      "role": "melody",
      "is_tied": false
    },
    {
      "midi": 58,
      "name": "A#3",
      "start": 68.1634,
      "duration": 1.791,
      "bar": 19,
      "beat": 3.5,
      "duration_beats": 2.0,
      "velocity": 0.53,
      "role": "chord",
      "is_tied": false
    },
    {
      "midi": 41,
      "name": "F2",
      "start": 68.1634,
      "duration": 0.4478,
      "bar": 19,
      "beat": 3.5,
      "duration_beats": 0.5,
      "velocity": 0.76,
      "role": "bass",
      "is_tied": false
    },
    {
      "midi": 67,
      "name": "G4",
      "start": 68.6112,
      "duration": 1.3433,
      "bar": 19,
      "beat": 4.0,
      "duration_beats": 1.5,
      "velocity": 1.0,
      "role": "melody",
      "is_tied": false
    },
    {
      "midi": 58,
      "name": "A#3",
      "start": 68.6112,
      "duration": 0.8955,
      "bar": 19,
      "beat": 4.0,
      "duration_beats": 1.0,
      "velocity": 1.0,
      "role": "chord",
      "is_tied": false
    },
    {
      "midi": 55,
      "name": "G3",
      "start": 69.5067,
      "duration": 0.2239,
      "bar": 20,
      "beat": 1.0,
      "duration_beats": 0.25,
      "velocity": 0.54,
      "role": "chord",
      "is_tied": false
    },
    {
      "midi": 50,
      "name": "D3",
      "start": 69.5067,
      "duration": 0.2239,
      "bar": 20,
      "beat": 1.0,
      "duration_beats": 0.25,
      "velocity": 0.47,
      "role": "chord",
      "is_tied": false
    },
    {
      "midi": 41,
      "name": "F2",
      "start": 69.5067,
      "duration": 0.2239,
      "bar": 20,
      "beat": 1.0,
      "duration_beats": 0.25,
      "velocity": 1.0,
      "role": "bass",
      "is_tied": false
    },
    {
      "midi": 74,
      "name": "D5",
      "start": 69.9545,
      "duration": 1.3433,
      "bar": 20,
      "beat": 1.5,
      "duration_beats": 1.5,
      "velocity": 0.58,
      "role": "melody",
      "is_tied": false
    },
    {
      "midi": 74,
      "name": "D5",
      "start": 69.9545,
      "duration": 1.3433,
      "bar": 20,
      "beat": 1.5,
      "duration_beats": 1.5,
      "velocity": 0.39,
      "role": "melody",
      "is_tied": false
    },
    {
      "midi": 62,
      "name": "D4",
      "start": 69.9545,
      "duration": 1.3433,
      "bar": 20,
      "beat": 1.5,
      "duration_beats": 1.5,
      "velocity": 1.0,
      "role": "chord",
      "is_tied": false
    },
    {
      "midi": 53,
      "name": "F3",
      "start": 69.9545,
      "duration": 0.6716,
      "bar": 20,
      "beat": 1.5,
      "duration_beats": 0.75,
      "velocity": 1.0,
      "role": "bass",
      "is_tied": false
    },
    {
      "midi": 41,
      "name": "F2",
      "start": 69.9545,
      "duration": 0.4478,
      "bar": 20,
      "beat": 1.5,
      "duration_beats": 0.5,
      "velocity": 0.74,
      "role": "bass",
      "is_tied": false
    },
    {
      "midi": 81,
      "name": "A5",
      "start": 70.4022,
      "duration": 0.2239,
      "bar": 20,
      "beat": 2.0,
      "duration_beats": 0.25,
      "velocity": 0.39,
      "role": "melody",
      "is_tied": false
    },
    {
      "midi": 74,
      "name": "D5",
      "start": 70.4022,
      "duration": 0.8955,
      "bar": 20,
      "beat": 2.0,
      "duration_beats": 1.0,
      "velocity": 1.0,
      "role": "melody",
      "is_tied": false
    },
    {
      "midi": 72,
      "name": "C5",
      "start": 70.4022,
      "duration": 0.2239,
      "bar": 20,
      "beat": 2.0,
      "duration_beats": 0.25,
      "velocity": 1.0,
      "role": "melody",
      "is_tied": false
    },
    {
      "midi": 50,
      "name": "D3",
      "start": 70.4022,
      "duration": 0.2239,
      "bar": 20,
      "beat": 2.0,
      "duration_beats": 0.25,
      "velocity": 0.57,
      "role": "chord",
      "is_tied": false
    },
    {
      "midi": 81,
      "name": "A5",
      "start": 70.85,
      "duration": 0.2239,
      "bar": 20,
      "beat": 2.5,
      "duration_beats": 0.25,
      "velocity": 0.56,
      "role": "melody",
      "is_tied": false
    },
    {
      "midi": 58,
      "name": "A#3",
      "start": 70.85,
      "duration": 0.6716,
      "bar": 20,
      "beat": 2.5,
      "duration_beats": 0.75,
      "velocity": 1.0,
      "role": "chord",
      "is_tied": false
    },
    {
      "midi": 70,
      "name": "A#4",
      "start": 71.2977,
      "duration": 0.6716,
      "bar": 20,
      "beat": 3.0,
      "duration_beats": 0.75,
      "velocity": 0.47,
      "role": "melody",
      "is_tied": false
    },
    {
      "midi": 67,
      "name": "G4",
      "start": 71.2977,
      "duration": 0.2239,
      "bar": 20,
      "beat": 3.0,
      "duration_beats": 0.25,
      "velocity": 0.72,
      "role": "melody",
      "is_tied": false
    },
    {
      "midi": 66,
      "name": "F#4",
      "start": 71.2977,
      "duration": 0.6716,
      "bar": 20,
      "beat": 3.0,
      "duration_beats": 0.75,
      "velocity": 0.45,
      "role": "chord",
      "is_tied": false
    },
    {
      "midi": 65,
      "name": "F4",
      "start": 71.2977,
      "duration": 0.6716,
      "bar": 20,
      "beat": 3.0,
      "duration_beats": 0.75,
      "velocity": 1.0,
      "role": "melody",
      "is_tied": false
    },
    {
      "midi": 62,
      "name": "D4",
      "start": 71.2977,
      "duration": 0.2239,
      "bar": 20,
      "beat": 3.0,
      "duration_beats": 0.25,
      "velocity": 0.66,
      "role": "chord",
      "is_tied": false
    },
    {
      "midi": 61,
      "name": "C#4",
      "start": 71.2977,
      "duration": 0.6716,
      "bar": 20,
      "beat": 3.0,
      "duration_beats": 0.75,
      "velocity": 0.92,
      "role": "chord",
      "is_tied": false
    },
    {
      "midi": 58,
      "name": "A#3",
      "start": 71.2977,
      "duration": 0.2239,
      "bar": 20,
      "beat": 3.0,
      "duration_beats": 0.25,
      "velocity": 0.86,
      "role": "chord",
      "is_tied": false
    },
    {
      "midi": 57,
      "name": "A3",
      "start": 71.2977,
      "duration": 1.791,
      "bar": 20,
      "beat": 3.0,
      "duration_beats": 2.0,
      "velocity": 0.68,
      "role": "chord",
      "is_tied": false
    },
    {
      "midi": 83,
      "name": "B5",
      "start": 72.1933,
      "duration": 0.4478,
      "bar": 20,
      "beat": 4.0,
      "duration_beats": 0.5,
      "velocity": 0.45,
      "role": "melody",
      "is_tied": false
    },
    {
      "midi": 74,
      "name": "D5",
      "start": 72.1933,
      "duration": 0.8955,
      "bar": 20,
      "beat": 4.0,
      "duration_beats": 1.0,
      "velocity": 1.0,
      "role": "melody",
      "is_tied": false
    },
    {
      "midi": 36,
      "name": "C2",
      "start": 72.1933,
      "duration": 0.4478,
      "bar": 20,
      "beat": 4.0,
      "duration_beats": 0.5,
      "velocity": 1.0,
      "role": "bass",
      "is_tied": false
    },
    {
      "midi": 69,
      "name": "A4",
      "start": 72.641,
      "duration": 0.4478,
      "bar": 20,
      "beat": 4.5,
      "duration_beats": 0.5,
      "velocity": 0.48,
      "role": "melody",
      "is_tied": false
    },
    {
      "midi": 59,
      "name": "B3",
      "start": 72.641,
      "duration": 0.6716,
      "bar": 20,
      "beat": 4.5,
      "duration_beats": 0.75,
      "velocity": 0.6,
      "role": "chord",
      "is_tied": false
    },
    {
      "midi": 71,
      "name": "B4",
      "start": 73.0888,
      "duration": 0.6716,
      "bar": 21,
      "beat": 1.0,
      "duration_beats": 0.75,
      "velocity": 1.0,
      "role": "melody",
      "is_tied": false
    },
    {
      "midi": 50,
      "name": "D3",
      "start": 73.0888,
      "duration": 0.2239,
      "bar": 21,
      "beat": 1.0,
      "duration_beats": 0.25,
      "velocity": 0.7,
      "role": "chord",
      "is_tied": true
    },
    {
      "midi": 41,
      "name": "F2",
      "start": 73.0888,
      "duration": 0.2239,
      "bar": 21,
      "beat": 1.0,
      "duration_beats": 0.25,
      "velocity": 1.0,
      "role": "bass",
      "is_tied": true
    },
    {
      "midi": 74,
      "name": "D5",
      "start": 73.5366,
      "duration": 0.2239,
      "bar": 21,
      "beat": 1.5,
      "duration_beats": 0.25,
      "velocity": 0.59,
      "role": "melody",
      "is_tied": false
    },
    {
      "midi": 36,
      "name": "C2",
      "start": 73.5366,
      "duration": 0.2239,
      "bar": 21,
      "beat": 1.5,
      "duration_beats": 0.25,
      "velocity": 0.57,
      "role": "bass",
      "is_tied": false
    },
    {
      "midi": 76,
      "name": "E5",
      "start": 73.9843,
      "duration": 0.2239,
      "bar": 21,
      "beat": 2.0,
      "duration_beats": 0.25,
      "velocity": 0.4,
      "role": "melody",
      "is_tied": false
    },
    {
      "midi": 66,
      "name": "F#4",
      "start": 73.9843,
      "duration": 0.2239,
      "bar": 21,
      "beat": 2.0,
      "duration_beats": 0.25,
      "velocity": 0.58,
      "role": "melody",
      "is_tied": false
    },
    {
      "midi": 66,
      "name": "F#4",
      "start": 73.9843,
      "duration": 0.2239,
      "bar": 21,
      "beat": 2.0,
      "duration_beats": 0.25,
      "velocity": 0.58,
      "role": "melody",
      "is_tied": true
    },
    {
      "midi": 62,
      "name": "D4",
      "start": 73.9843,
      "duration": 0.4478,
      "bar": 21,
      "beat": 2.0,
      "duration_beats": 0.5,
      "velocity": 1.0,
      "role": "chord",
      "is_tied": false
    },
    {
      "midi": 69,
      "name": "A4",
      "start": 74.4321,
      "duration": 0.4478,
      "bar": 21,
      "beat": 2.5,
      "duration_beats": 0.5,
      "velocity": 0.87,
      "role": "melody",
      "is_tied": false
    },
    {
      "midi": 66,
      "name": "F#4",
      "start": 74.4321,
      "duration": 0.4478,
      "bar": 21,
      "beat": 2.5,
      "duration_beats": 0.5,
      "velocity": 0.56,
      "role": "melody",
      "is_tied": false
    },
    {
      "midi": 64,
      "name": "E4",
      "start": 74.4321,
      "duration": 0.4478,
      "bar": 21,
      "beat": 2.5,
      "duration_beats": 0.5,
      "velocity": 1.0,
      "role": "melody",
      "is_tied": false
    },
    {
      "midi": 52,
      "name": "E3",
      "start": 74.4321,
      "duration": 0.2239,
      "bar": 21,
      "beat": 2.5,
      "duration_beats": 0.25,
      "velocity": 0.43,
      "role": "chord",
      "is_tied": false
    },
    {
      "midi": 69,
      "name": "A4",
      "start": 74.8798,
      "duration": 0.2239,
      "bar": 21,
      "beat": 3.0,
      "duration_beats": 0.25,
      "velocity": 0.63,
      "role": "melody",
      "is_tied": false
    },
    {
      "midi": 72,
      "name": "C5",
      "start": 75.3276,
      "duration": 0.4478,
      "bar": 21,
      "beat": 3.5,
      "duration_beats": 0.5,
      "velocity": 0.54,
      "role": "melody",
      "is_tied": false
    },
    {
      "midi": 69,
      "name": "A4",
      "start": 75.3276,
      "duration": 0.4478,
      "bar": 21,
      "beat": 3.5,
      "duration_beats": 0.5,
      "velocity": 1.0,
      "role": "chord",
      "is_tied": false
    },
    {
      "midi": 64,
      "name": "E4",
      "start": 75.3276,
      "duration": 0.4478,
      "bar": 21,
      "beat": 3.5,
      "duration_beats": 0.5,
      "velocity": 0.68,
      "role": "chord",
      "is_tied": false
    },
    {
      "midi": 60,
      "name": "C4",
      "start": 75.3276,
      "duration": 0.8955,
      "bar": 21,
      "beat": 3.5,
      "duration_beats": 1.0,
      "velocity": 1.0,
      "role": "chord",
      "is_tied": false
    },
    {
      "midi": 59,
      "name": "B3",
      "start": 75.3276,
      "duration": 1.791,
      "bar": 21,
      "beat": 3.5,
      "duration_beats": 2.0,
      "velocity": 0.66,
      "role": "chord",
      "is_tied": false
    },
    {
      "midi": 69,
      "name": "A4",
      "start": 75.7754,
      "duration": 0.6716,
      "bar": 21,
      "beat": 4.0,
      "duration_beats": 0.75,
      "velocity": 0.75,
      "role": "melody",
      "is_tied": false
    },
    {
      "midi": 67,
      "name": "G4",
      "start": 75.7754,
      "duration": 0.2239,
      "bar": 21,
      "beat": 4.0,
      "duration_beats": 0.25,
      "velocity": 0.67,
      "role": "melody",
      "is_tied": false
    },
    {
      "midi": 74,
      "name": "D5",
      "start": 76.2231,
      "duration": 0.8955,
      "bar": 21,
      "beat": 4.5,
      "duration_beats": 1.0,
      "velocity": 1.0,
      "role": "melody",
      "is_tied": false
    },
    {
      "midi": 71,
      "name": "B4",
      "start": 76.2231,
      "duration": 0.2239,
      "bar": 21,
      "beat": 4.5,
      "duration_beats": 0.25,
      "velocity": 1.0,
      "role": "chord",
      "is_tied": false
    },
    {
      "midi": 55,
      "name": "G3",
      "start": 76.2231,
      "duration": 0.8955,
      "bar": 21,
      "beat": 4.5,
      "duration_beats": 1.0,
      "velocity": 0.7,
      "role": "chord",
      "is_tied": false
    },
    {
      "midi": 52,
      "name": "E3",
      "start": 76.2231,
      "duration": 0.8955,
      "bar": 21,
      "beat": 4.5,
      "duration_beats": 1.0,
      "velocity": 0.37,
      "role": "chord",
      "is_tied": false
    },
    {
      "midi": 48,
      "name": "C3",
      "start": 76.2231,
      "duration": 0.2239,
      "bar": 21,
      "beat": 4.5,
      "duration_beats": 0.25,
      "velocity": 0.4,
      "role": "chord",
      "is_tied": false
    },
    {
      "midi": 45,
      "name": "A2",
      "start": 76.2231,
      "duration": 0.4478,
      "bar": 21,
      "beat": 4.5,
      "duration_beats": 0.5,
      "velocity": 0.9,
      "role": "bass",
      "is_tied": false
    },
    {
      "midi": 74,
      "name": "D5",
      "start": 76.6709,
      "duration": 0.2239,
      "bar": 22,
      "beat": 1.0,
      "duration_beats": 0.25,
      "velocity": 0.72,
      "role": "melody",
      "is_tied": false
    },
    {
      "midi": 71,
      "name": "B4",
      "start": 76.6709,
      "duration": 0.8955,
      "bar": 22,
      "beat": 1.0,
      "duration_beats": 1.0,
      "velocity": 1.0,
      "role": "melody",
      "is_tied": false
    },
    {
      "midi": 55,
      "name": "G3",
      "start": 76.6709,
      "duration": 0.2239,
      "bar": 22,
      "beat": 1.0,
      "duration_beats": 0.25,
      "velocity": 0.33,
      "role": "chord",
      "is_tied": false
    },
    {
      "midi": 52,
      "name": "E3",
      "start": 76.6709,
      "duration": 0.4478,
      "bar": 22,
      "beat": 1.0,
      "duration_beats": 0.5,
      "velocity": 0.51,
      "role": "chord",
      "is_tied": false
    },
    {
      "midi": 41,
      "name": "F2",
      "start": 76.6709,
      "duration": 0.4478,
      "bar": 22,
      "beat": 1.0,
      "duration_beats": 0.5,
      "velocity": 1.0,
      "role": "bass",
      "is_tied": false
    },
    {
      "midi": 50,
      "name": "D3",
      "start": 77.1186,
      "duration": 0.2239,
      "bar": 22,
      "beat": 1.5,
      "duration_beats": 0.25,
      "velocity": 0.66,
      "role": "chord",
      "is_tied": false
    },
    {
      "midi": 42,
      "name": "F#2",
      "start": 77.1186,
      "duration": 0.4478,
      "bar": 22,
      "beat": 1.5,
      "duration_beats": 0.5,
      "velocity": 1.0,
      "role": "bass",
      "is_tied": false
    },
    {
      "midi": 74,
      "name": "D5",
      "start": 77.5664,
      "duration": 0.4478,
      "bar": 22,
      "beat": 2.0,
      "duration_beats": 0.5,
      "velocity": 0.73,
      "role": "melody",
      "is_tied": false
    },
    {
      "midi": 71,
      "name": "B4",
      "start": 77.5664,
      "duration": 0.2239,
      "bar": 22,
      "beat": 2.0,
      "duration_beats": 0.25,
      "velocity": 0.34,
      "role": "melody",
      "is_tied": false
    },
    {
      "midi": 54,
      "name": "F#3",
      "start": 77.5664,
      "duration": 0.2239,
      "bar": 22,
      "beat": 2.0,
      "duration_beats": 0.25,
      "velocity": 1.0,
      "role": "bass",
      "is_tied": false
    },
    {
      "midi": 50,
      "name": "D3",
      "start": 77.5664,
      "duration": 0.2239,
      "bar": 22,
      "beat": 2.0,
      "duration_beats": 0.25,
      "velocity": 0.67,
      "role": "chord",
      "is_tied": false
    },
    {
      "midi": 50,
      "name": "D3",
      "start": 77.5664,
      "duration": 0.4478,
      "bar": 22,
      "beat": 2.0,
      "duration_beats": 0.5,
      "velocity": 0.68,
      "role": "chord",
      "is_tied": false
    },
    {
      "midi": 72,
      "name": "C5",
      "start": 78.0142,
      "duration": 0.8955,
      "bar": 22,
      "beat": 2.5,
      "duration_beats": 1.0,
      "velocity": 0.89,
      "role": "melody",
      "is_tied": false
    },
    {
      "midi": 65,
      "name": "F4",
      "start": 78.0142,
      "duration": 0.2239,
      "bar": 22,
      "beat": 2.5,
      "duration_beats": 0.25,
      "velocity": 1.0,
      "role": "chord",
      "is_tied": false
    },
    {
      "midi": 58,
      "name": "A#3",
      "start": 78.0142,
      "duration": 0.8955,
      "bar": 22,
      "beat": 2.5,
      "duration_beats": 1.0,
      "velocity": 0.71,
      "role": "chord",
      "is_tied": false
    },
    {
      "midi": 44,
      "name": "G#2",
      "start": 78.0142,
      "duration": 0.4478,
      "bar": 22,
      "beat": 2.5,
      "duration_beats": 0.5,
      "velocity": 1.0,
      "role": "bass",
      "is_tied": false
    },
    {
      "midi": 70,
      "name": "A#4",
      "start": 78.4619,
      "duration": 1.3433,
      "bar": 22,
      "beat": 3.0,
      "duration_beats": 1.5,
      "velocity": 0.67,
      "role": "melody",
      "is_tied": false
    },
    {
      "midi": 65,
      "name": "F4",
      "start": 78.4619,
      "duration": 0.2239,
      "bar": 22,
      "beat": 3.0,
      "duration_beats": 0.25,
      "velocity": 1.0,
      "role": "melody",
      "is_tied": false
    },
    {
      "midi": 56,
      "name": "G#3",
      "start": 78.4619,
      "duration": 0.2239,
      "bar": 22,
      "beat": 3.0,
      "duration_beats": 0.25,
      "velocity": 0.63,
      "role": "chord",
      "is_tied": false
    },
    {
      "midi": 71,
      "name": "B4",
      "start": 78.9097,
      "duration": 0.8955,
      "bar": 22,
      "beat": 3.5,
      "duration_beats": 1.0,
      "velocity": 0.52,
      "role": "melody",
      "is_tied": false
    },
    {
      "midi": 69,
      "name": "A4",
      "start": 78.9097,
      "duration": 0.4478,
      "bar": 22,
      "beat": 3.5,
      "duration_beats": 0.5,
      "velocity": 0.56,
      "role": "melody",
      "is_tied": false
    },
    {
      "midi": 67,
      "name": "G4",
      "start": 78.9097,
      "duration": 0.4478,
      "bar": 22,
      "beat": 3.5,
      "duration_beats": 0.5,
      "velocity": 0.63,
      "role": "chord",
      "is_tied": false
    },
    {
      "midi": 62,
      "name": "D4",
      "start": 78.9097,
      "duration": 0.4478,
      "bar": 22,
      "beat": 3.5,
      "duration_beats": 0.5,
      "velocity": 0.94,
      "role": "chord",
      "is_tied": false
    },
    {
      "midi": 59,
      "name": "B3",
      "start": 78.9097,
      "duration": 0.4478,
      "bar": 22,
      "beat": 3.5,
      "duration_beats": 0.5,
      "velocity": 0.62,
      "role": "chord",
      "is_tied": false
    },
    {
      "midi": 50,
      "name": "D3",
      "start": 78.9097,
      "duration": 2.6866,
      "bar": 22,
      "beat": 3.5,
      "duration_beats": 3.0,
      "velocity": 0.94,
      "role": "chord",
      "is_tied": false
    },
    {
      "midi": 43,
      "name": "G2",
      "start": 78.9097,
      "duration": 1.791,
      "bar": 22,
      "beat": 3.5,
      "duration_beats": 2.0,
      "velocity": 1.0,
      "role": "bass",
      "is_tied": false
    },
    {
      "midi": 74,
      "name": "D5",
      "start": 79.3574,
      "duration": 0.8955,
      "bar": 22,
      "beat": 4.0,
      "duration_beats": 1.0,
      "velocity": 0.38,
      "role": "melody",
      "is_tied": false
    },
    {
      "midi": 57,
      "name": "A3",
      "start": 79.3574,
      "duration": 0.2239,
      "bar": 22,
      "beat": 4.0,
      "duration_beats": 0.25,
      "velocity": 0.51,
      "role": "chord",
      "is_tied": false
    },
    {
      "midi": 83,
      "name": "B5",
      "start": 79.8052,
      "duration": 0.6716,
      "bar": 22,
      "beat": 4.5,
      "duration_beats": 0.75,
      "velocity": 0.78,
      "role": "melody",
      "is_tied": false
    },
    {
      "midi": 76,
      "name": "E5",
      "start": 79.8052,
      "duration": 0.4478,
      "bar": 22,
      "beat": 4.5,
      "duration_beats": 0.5,
      "velocity": 0.53,
      "role": "melody",
      "is_tied": false
    },
    {
      "midi": 59,
      "name": "B3",
      "start": 79.8052,
      "duration": 1.791,
      "bar": 22,
      "beat": 4.5,
      "duration_beats": 2.0,
      "velocity": 0.65,
      "role": "chord",
      "is_tied": false
    },
    {
      "midi": 54,
      "name": "F#3",
      "start": 79.8052,
      "duration": 1.791,
      "bar": 22,
      "beat": 4.5,
      "duration_beats": 2.0,
      "velocity": 0.93,
      "role": "bass",
      "is_tied": false
    },
    {
      "midi": 74,
      "name": "D5",
      "start": 80.253,
      "duration": 0.2239,
      "bar": 23,
      "beat": 1.0,
      "duration_beats": 0.25,
      "velocity": 1.0,
      "role": "melody",
      "is_tied": true
    },
    {
      "midi": 52,
      "name": "E3",
      "start": 80.253,
      "duration": 0.2239,
      "bar": 23,
      "beat": 1.0,
      "duration_beats": 0.25,
      "velocity": 0.67,
      "role": "chord",
      "is_tied": false
    },
    {
      "midi": 52,
      "name": "E3",
      "start": 80.253,
      "duration": 0.2239,
      "bar": 23,
      "beat": 1.0,
      "duration_beats": 0.25,
      "velocity": 0.4,
      "role": "chord",
      "is_tied": true
    },
    {
      "midi": 83,
      "name": "B5",
      "start": 80.7007,
      "duration": 0.4478,
      "bar": 23,
      "beat": 1.5,
      "duration_beats": 0.5,
      "velocity": 1.0,
      "role": "melody",
      "is_tied": false
    },
    {
      "midi": 74,
      "name": "D5",
      "start": 80.7007,
      "duration": 0.2239,
      "bar": 23,
      "beat": 1.5,
      "duration_beats": 0.25,
      "velocity": 0.51,
      "role": "melody",
      "is_tied": false
    },
    {
      "midi": 71,
      "name": "B4",
      "start": 80.7007,
      "duration": 1.3433,
      "bar": 23,
      "beat": 1.5,
      "duration_beats": 1.5,
      "velocity": 0.94,
      "role": "melody",
      "is_tied": false
    },
    {
      "midi": 59,
      "name": "B3",
      "start": 80.7007,
      "duration": 0.8955,
      "bar": 23,
      "beat": 1.5,
      "duration_beats": 1.0,
      "velocity": 0.36,
      "role": "chord",
      "is_tied": false
    },
    {
      "midi": 54,
      "name": "F#3",
      "start": 80.7007,
      "duration": 0.8955,
      "bar": 23,
      "beat": 1.5,
      "duration_beats": 1.0,
      "velocity": 1.0,
      "role": "bass",
      "is_tied": false
    },
    {
      "midi": 52,
      "name": "E3",
      "start": 80.7007,
      "duration": 0.2239,
      "bar": 23,
      "beat": 1.5,
      "duration_beats": 0.25,
      "velocity": 0.54,
      "role": "chord",
      "is_tied": false
    },
    {
      "midi": 50,
      "name": "D3",
      "start": 80.7007,
      "duration": 0.4478,
      "bar": 23,
      "beat": 1.5,
      "duration_beats": 0.5,
      "velocity": 0.58,
      "role": "chord",
      "is_tied": false
    },
    {
      "midi": 41,
      "name": "F2",
      "start": 80.7007,
      "duration": 0.2239,
      "bar": 23,
      "beat": 1.5,
      "duration_beats": 0.25,
      "velocity": 1.0,
      "role": "bass",
      "is_tied": false
    },
    {
      "midi": 66,
      "name": "F#4",
      "start": 81.1485,
      "duration": 0.4478,
      "bar": 23,
      "beat": 2.0,
      "duration_beats": 0.5,
      "velocity": 0.82,
      "role": "chord",
      "is_tied": false
    },
    {
      "midi": 52,
      "name": "E3",
      "start": 81.1485,
      "duration": 0.6716,
      "bar": 23,
      "beat": 2.0,
      "duration_beats": 0.75,
      "velocity": 0.62,
      "role": "chord",
      "is_tied": false
    },
    {
      "midi": 74,
      "name": "D5",
      "start": 81.5963,
      "duration": 0.2239,
      "bar": 23,
      "beat": 2.5,
      "duration_beats": 0.25,
      "velocity": 0.62,
      "role": "melody",
      "is_tied": false
    },
    {
      "midi": 52,
      "name": "E3",
      "start": 81.5963,
      "duration": 0.4478,
      "bar": 23,
      "beat": 2.5,
      "duration_beats": 0.5,
      "velocity": 0.6,
      "role": "chord",
      "is_tied": false
    },
    {
      "midi": 43,
      "name": "G2",
      "start": 81.5963,
      "duration": 0.2239,
      "bar": 23,
      "beat": 2.5,
      "duration_beats": 0.25,
      "velocity": 1.0,
      "role": "bass",
      "is_tied": false
    },
    {
      "midi": 35,
      "name": "B1",
      "start": 81.5963,
      "duration": 0.2239,
      "bar": 23,
      "beat": 2.5,
      "duration_beats": 0.25,
      "velocity": 0.36,
      "role": "bass",
      "is_tied": false
    },
    {
      "midi": 74,
      "name": "D5",
      "start": 82.044,
      "duration": 2.6866,
      "bar": 23,
      "beat": 3.0,
      "duration_beats": 3.0,
      "velocity": 0.75,
      "role": "melody",
      "is_tied": false
    },
    {
      "midi": 71,
      "name": "B4",
      "start": 82.044,
      "duration": 0.2239,
      "bar": 23,
      "beat": 3.0,
      "duration_beats": 0.25,
      "velocity": 0.37,
      "role": "melody",
      "is_tied": false
    },
    {
      "midi": 62,
      "name": "D4",
      "start": 82.4918,
      "duration": 2.6866,
      "bar": 23,
      "beat": 3.5,
      "duration_beats": 3.0,
      "velocity": 0.92,
      "role": "chord",
      "is_tied": false
    },
    {
      "midi": 58,
      "name": "A#3",
      "start": 82.4918,
      "duration": 0.8955,
      "bar": 23,
      "beat": 3.5,
      "duration_beats": 1.0,
      "velocity": 0.73,
      "role": "chord",
      "is_tied": false
    },
    {
      "midi": 57,
      "name": "A3",
      "start": 82.4918,
      "duration": 0.8955,
      "bar": 23,
      "beat": 3.5,
      "duration_beats": 1.0,
      "velocity": 0.4,
      "role": "chord",
      "is_tied": false
    },
    {
      "midi": 55,
      "name": "G3",
      "start": 82.4918,
      "duration": 1.791,
      "bar": 23,
      "beat": 3.5,
      "duration_beats": 2.0,
      "velocity": 0.78,
      "role": "chord",
      "is_tied": false
    },
    {
      "midi": 74,
      "name": "D5",
      "start": 82.9395,
      "duration": 2.6866,
      "bar": 23,
      "beat": 4.0,
      "duration_beats": 3.0,
      "velocity": 0.63,
      "role": "melody",
      "is_tied": false
    },
    {
      "midi": 58,
      "name": "A#3",
      "start": 82.9395,
      "duration": 0.6716,
      "bar": 23,
      "beat": 4.0,
      "duration_beats": 0.75,
      "velocity": 0.45,
      "role": "chord",
      "is_tied": false
    },
    {
      "midi": 55,
      "name": "G3",
      "start": 82.9395,
      "duration": 1.791,
      "bar": 23,
      "beat": 4.0,
      "duration_beats": 2.0,
      "velocity": 0.74,
      "role": "chord",
      "is_tied": false
    },
    {
      "midi": 50,
      "name": "D3",
      "start": 82.9395,
      "duration": 1.3433,
      "bar": 23,
      "beat": 4.0,
      "duration_beats": 1.5,
      "velocity": 0.51,
      "role": "chord",
      "is_tied": false
    },
    {
      "midi": 74,
      "name": "D5",
      "start": 83.3873,
      "duration": 1.791,
      "bar": 23,
      "beat": 4.5,
      "duration_beats": 2.0,
      "velocity": 0.36,
      "role": "melody",
      "is_tied": false
    },
    {
      "midi": 68,
      "name": "G#4",
      "start": 83.3873,
      "duration": 0.4478,
      "bar": 23,
      "beat": 4.5,
      "duration_beats": 0.5,
      "velocity": 1.0,
      "role": "melody",
      "is_tied": false
    },
    {
      "midi": 67,
      "name": "G4",
      "start": 83.3873,
      "duration": 0.4478,
      "bar": 23,
      "beat": 4.5,
      "duration_beats": 0.5,
      "velocity": 1.0,
      "role": "chord",
      "is_tied": false
    },
    {
      "midi": 50,
      "name": "D3",
      "start": 83.3873,
      "duration": 0.6716,
      "bar": 23,
      "beat": 4.5,
      "duration_beats": 0.75,
      "velocity": 0.51,
      "role": "chord",
      "is_tied": false
    },
    {
      "midi": 40,
      "name": "E2",
      "start": 83.3873,
      "duration": 0.4478,
      "bar": 23,
      "beat": 4.5,
      "duration_beats": 0.5,
      "velocity": 1.0,
      "role": "bass",
      "is_tied": false
    },
    {
      "midi": 76,
      "name": "E5",
      "start": 83.8351,
      "duration": 0.2239,
      "bar": 24,
      "beat": 1.0,
      "duration_beats": 0.25,
      "velocity": 0.46,
      "role": "melody",
      "is_tied": false
    },
    {
      "midi": 71,
      "name": "B4",
      "start": 83.8351,
      "duration": 0.2239,
      "bar": 24,
      "beat": 1.0,
      "duration_beats": 0.25,
      "velocity": 0.6,
      "role": "chord",
      "is_tied": false
    },
    {
      "midi": 74,
      "name": "D5",
      "start": 84.2828,
      "duration": 0.4478,
      "bar": 24,
      "beat": 1.5,
      "duration_beats": 0.5,
      "velocity": 0.85,
      "role": "melody",
      "is_tied": false
    },
    {
      "midi": 58,
      "name": "A#3",
      "start": 84.2828,
      "duration": 1.791,
      "bar": 24,
      "beat": 1.5,
      "duration_beats": 2.0,
      "velocity": 0.98,
      "role": "chord",
      "is_tied": false
    },
    {
      "midi": 36,
      "name": "C2",
      "start": 84.2828,
      "duration": 1.3433,
      "bar": 24,
      "beat": 1.5,
      "duration_beats": 1.5,
      "velocity": 1.0,
      "role": "bass",
      "is_tied": false
    },
    {
      "midi": 74,
      "name": "D5",
      "start": 84.7306,
      "duration": 0.4478,
      "bar": 24,
      "beat": 2.0,
      "duration_beats": 0.5,
      "velocity": 0.82,
      "role": "melody",
      "is_tied": false
    },
    {
      "midi": 58,
      "name": "A#3",
      "start": 84.7306,
      "duration": 0.8955,
      "bar": 24,
      "beat": 2.0,
      "duration_beats": 1.0,
      "velocity": 0.57,
      "role": "chord",
      "is_tied": false
    },
    {
      "midi": 50,
      "name": "D3",
      "start": 84.7306,
      "duration": 2.6866,
      "bar": 24,
      "beat": 2.0,
      "duration_beats": 3.0,
      "velocity": 0.61,
      "role": "chord",
      "is_tied": false
    },
    {
      "midi": 70,
      "name": "A#4",
      "start": 85.1783,
      "duration": 0.4478,
      "bar": 24,
      "beat": 2.5,
      "duration_beats": 0.5,
      "velocity": 0.36,
      "role": "melody",
      "is_tied": false
    },
    {
      "midi": 69,
      "name": "A4",
      "start": 85.1783,
      "duration": 0.6716,
      "bar": 24,
      "beat": 2.5,
      "duration_beats": 0.75,
      "velocity": 1.0,
      "role": "melody",
      "is_tied": false
    },
    {
      "midi": 64,
      "name": "E4",
      "start": 85.1783,
      "duration": 0.4478,
      "bar": 24,
      "beat": 2.5,
      "duration_beats": 0.5,
      "velocity": 0.31,
      "role": "chord",
      "is_tied": false
    },
    {
      "midi": 69,
      "name": "A4",
      "start": 85.6261,
      "duration": 0.2239,
      "bar": 24,
      "beat": 3.0,
      "duration_beats": 0.25,
      "velocity": 1.0,
      "role": "melody",
      "is_tied": false
    },
    {
      "midi": 66,
      "name": "F#4",
      "start": 85.6261,
      "duration": 0.8955,
      "bar": 24,
      "beat": 3.0,
      "duration_beats": 1.0,
      "velocity": 0.93,
      "role": "melody",
      "is_tied": false
    },
    {
      "midi": 57,
      "name": "A3",
      "start": 85.6261,
      "duration": 0.8955,
      "bar": 24,
      "beat": 3.0,
      "duration_beats": 1.0,
      "velocity": 0.37,
      "role": "chord",
      "is_tied": false
    },
    {
      "midi": 55,
      "name": "G3",
      "start": 85.6261,
      "duration": 0.2239,
      "bar": 24,
      "beat": 3.0,
      "duration_beats": 0.25,
      "velocity": 1.0,
      "role": "chord",
      "is_tied": false
    },
    {
      "midi": 36,
      "name": "C2",
      "start": 85.6261,
      "duration": 0.4478,
      "bar": 24,
      "beat": 3.0,
      "duration_beats": 0.5,
      "velocity": 0.77,
      "role": "bass",
      "is_tied": false
    },
    {
      "midi": 83,
      "name": "B5",
      "start": 86.0739,
      "duration": 0.6716,
      "bar": 24,
      "beat": 3.5,
      "duration_beats": 0.75,
      "velocity": 0.83,
      "role": "melody",
      "is_tied": false
    },
    {
      "midi": 61,
      "name": "C#4",
      "start": 86.0739,
      "duration": 0.8955,
      "bar": 24,
      "beat": 3.5,
      "duration_beats": 1.0,
      "velocity": 1.0,
      "role": "chord",
      "is_tied": false
    },
    {
      "midi": 54,
      "name": "F#3",
      "start": 86.0739,
      "duration": 0.2239,
      "bar": 24,
      "beat": 3.5,
      "duration_beats": 0.25,
      "velocity": 0.38,
      "role": "chord",
      "is_tied": false
    },
    {
      "midi": 71,
      "name": "B4",
      "start": 86.5216,
      "duration": 0.2239,
      "bar": 24,
      "beat": 4.0,
      "duration_beats": 0.25,
      "velocity": 1.0,
      "role": "melody",
      "is_tied": true
    },
    {
      "midi": 52,
      "name": "E3",
      "start": 86.5216,
      "duration": 0.6716,
      "bar": 24,
      "beat": 4.0,
      "duration_beats": 0.75,
      "velocity": 0.58,
      "role": "chord",
      "is_tied": false
    },
    {
      "midi": 49,
      "name": "C#3",
      "start": 86.5216,
      "duration": 0.2239,
      "bar": 24,
      "beat": 4.0,
      "duration_beats": 0.25,
      "velocity": 0.65,
      "role": "chord",
      "is_tied": false
    },
    {
      "midi": 45,
      "name": "A2",
      "start": 86.5216,
      "duration": 0.4478,
      "bar": 24,
      "beat": 4.0,
      "duration_beats": 0.5,
      "velocity": 1.0,
      "role": "bass",
      "is_tied": false
    },
    {
      "midi": 80,
      "name": "G#5",
      "start": 86.9694,
      "duration": 0.2239,
      "bar": 24,
      "beat": 4.5,
      "duration_beats": 0.25,
      "velocity": 0.34,
      "role": "melody",
      "is_tied": false
    },
    {
      "midi": 73,
      "name": "C#5",
      "start": 86.9694,
      "duration": 0.2239,
      "bar": 24,
      "beat": 4.5,
      "duration_beats": 0.25,
      "velocity": 0.37,
      "role": "melody",
      "is_tied": false
    },
    {
      "midi": 71,
      "name": "B4",
      "start": 86.9694,
      "duration": 0.2239,
      "bar": 24,
      "beat": 4.5,
      "duration_beats": 0.25,
      "velocity": 1.0,
      "role": "melody",
      "is_tied": true
    },
    {
      "midi": 52,
      "name": "E3",
      "start": 86.9694,
      "duration": 0.6716,
      "bar": 24,
      "beat": 4.5,
      "duration_beats": 0.75,
      "velocity": 0.46,
      "role": "chord",
      "is_tied": false
    },
    {
      "midi": 49,
      "name": "C#3",
      "start": 86.9694,
      "duration": 0.2239,
      "bar": 24,
      "beat": 4.5,
      "duration_beats": 0.25,
      "velocity": 0.58,
      "role": "chord",
      "is_tied": false
    },
    {
      "midi": 45,
      "name": "A2",
      "start": 86.9694,
      "duration": 0.6716,
      "bar": 24,
      "beat": 4.5,
      "duration_beats": 0.75,
      "velocity": 1.0,
      "role": "bass",
      "is_tied": false
    },
    {
      "midi": 80,
      "name": "G#5",
      "start": 87.4171,
      "duration": 0.2239,
      "bar": 25,
      "beat": 1.0,
      "duration_beats": 0.25,
      "velocity": 0.4,
      "role": "melody",
      "is_tied": false
    },
    {
      "midi": 74,
      "name": "D5",
      "start": 87.4171,
      "duration": 0.4478,
      "bar": 25,
      "beat": 1.0,
      "duration_beats": 0.5,
      "velocity": 1.0,
      "role": "melody",
      "is_tied": false
    },
    {
      "midi": 69,
      "name": "A4",
      "start": 87.4171,
      "duration": 0.2239,
      "bar": 25,
      "beat": 1.0,
      "duration_beats": 0.25,
      "velocity": 0.53,
      "role": "chord",
      "is_tied": false
    },
    {
      "midi": 66,
      "name": "F#4",
      "start": 87.4171,
      "duration": 0.2239,
      "bar": 25,
      "beat": 1.0,
      "duration_beats": 0.25,
      "velocity": 0.43,
      "role": "chord",
      "is_tied": false
    },
    {
      "midi": 64,
      "name": "E4",
      "start": 87.4171,
      "duration": 0.2239,
      "bar": 25,
      "beat": 1.0,
      "duration_beats": 0.25,
      "velocity": 0.66,
      "role": "chord",
      "is_tied": false
    },
    {
      "midi": 52,
      "name": "E3",
      "start": 87.4171,
      "duration": 0.6716,
      "bar": 25,
      "beat": 1.0,
      "duration_beats": 0.75,
      "velocity": 0.81,
      "role": "chord",
      "is_tied": false
    },
    {
      "midi": 49,
      "name": "C#3",
      "start": 87.4171,
      "duration": 0.6716,
      "bar": 25,
      "beat": 1.0,
      "duration_beats": 0.75,
      "velocity": 0.89,
      "role": "chord",
      "is_tied": false
    },
    {
      "midi": 45,
      "name": "A2",
      "start": 87.4171,
      "duration": 0.4478,
      "bar": 25,
      "beat": 1.0,
      "duration_beats": 0.5,
      "velocity": 1.0,
      "role": "bass",
      "is_tied": false
    },
    {
      "midi": 83,
      "name": "B5",
      "start": 87.8649,
      "duration": 0.6716,
      "bar": 25,
      "beat": 1.5,
      "duration_beats": 0.75,
      "velocity": 1.0,
      "role": "melody",
      "is_tied": false
    },
    {
      "midi": 74,
      "name": "D5",
      "start": 87.8649,
      "duration": 0.2239,
      "bar": 25,
      "beat": 1.5,
      "duration_beats": 0.25,
      "velocity": 1.0,
      "role": "melody",
      "is_tied": false
    },
    {
      "midi": 73,
      "name": "C#5",
      "start": 87.8649,
      "duration": 0.2239,
      "bar": 25,
      "beat": 1.5,
      "duration_beats": 0.25,
      "velocity": 0.33,
      "role": "melody",
      "is_tied": false
    },
    {
      "midi": 57,
      "name": "A3",
      "start": 87.8649,
      "duration": 0.8955,
      "bar": 25,
      "beat": 1.5,
      "duration_beats": 1.0,
      "velocity": 0.46,
      "role": "chord",
      "is_tied": false
    },
    {
      "midi": 54,
      "name": "F#3",
      "start": 87.8649,
      "duration": 0.2239,
      "bar": 25,
      "beat": 1.5,
      "duration_beats": 0.25,
      "velocity": 0.67,
      "role": "chord",
      "is_tied": false
    },
    {
      "midi": 52,
      "name": "E3",
      "start": 87.8649,
      "duration": 0.6716,
      "bar": 25,
      "beat": 1.5,
      "duration_beats": 0.75,
      "velocity": 1.0,
      "role": "bass",
      "is_tied": false
    },
    {
      "midi": 49,
      "name": "C#3",
      "start": 87.8649,
      "duration": 0.2239,
      "bar": 25,
      "beat": 1.5,
      "duration_beats": 0.25,
      "velocity": 0.38,
      "role": "chord",
      "is_tied": false
    },
    {
      "midi": 71,
      "name": "B4",
      "start": 88.3127,
      "duration": 0.6716,
      "bar": 25,
      "beat": 2.0,
      "duration_beats": 0.75,
      "velocity": 0.57,
      "role": "melody",
      "is_tied": false
    },
    {
      "midi": 57,
      "name": "A3",
      "start": 88.3127,
      "duration": 0.8955,
      "bar": 25,
      "beat": 2.0,
      "duration_beats": 1.0,
      "velocity": 0.62,
      "role": "chord",
      "is_tied": false
    },
    {
      "midi": 52,
      "name": "E3",
      "start": 88.3127,
      "duration": 0.4478,
      "bar": 25,
      "beat": 2.0,
      "duration_beats": 0.5,
      "velocity": 1.0,
      "role": "bass",
      "is_tied": false
    },
    {
      "midi": 50,
      "name": "D3",
      "start": 88.3127,
      "duration": 0.8955,
      "bar": 25,
      "beat": 2.0,
      "duration_beats": 1.0,
      "velocity": 0.83,
      "role": "chord",
      "is_tied": false
    },
    {
      "midi": 66,
      "name": "F#4",
      "start": 88.7604,
      "duration": 0.2239,
      "bar": 25,
      "beat": 2.5,
      "duration_beats": 0.25,
      "velocity": 0.83,
      "role": "chord",
      "is_tied": false
    },
    {
      "midi": 62,
      "name": "D4",
      "start": 88.7604,
      "duration": 0.4478,
      "bar": 25,
      "beat": 2.5,
      "duration_beats": 0.5,
      "velocity": 1.0,
      "role": "chord",
      "is_tied": false
    },
    {
      "midi": 54,
      "name": "F#3",
      "start": 88.7604,
      "duration": 0.2239,
      "bar": 25,
      "beat": 2.5,
      "duration_beats": 0.25,
      "velocity": 0.34,
      "role": "chord",
      "is_tied": true
    },
    {
      "midi": 35,
      "name": "B1",
      "start": 88.7604,
      "duration": 0.2239,
      "bar": 25,
      "beat": 2.5,
      "duration_beats": 0.25,
      "velocity": 0.47,
      "role": "bass",
      "is_tied": false
    },
    {
      "midi": 74,
      "name": "D5",
      "start": 89.2082,
      "duration": 0.8955,
      "bar": 25,
      "beat": 3.0,
      "duration_beats": 1.0,
      "velocity": 0.82,
      "role": "melody",
      "is_tied": false
    },
    {
      "midi": 74,
      "name": "D5",
      "start": 89.2082,
      "duration": 0.8955,
      "bar": 25,
      "beat": 3.0,
      "duration_beats": 1.0,
      "velocity": 0.98,
      "role": "melody",
      "is_tied": false
    },
    {
      "midi": 62,
      "name": "D4",
      "start": 89.2082,
      "duration": 0.4478,
      "bar": 25,
      "beat": 3.0,
      "duration_beats": 0.5,
      "velocity": 1.0,
      "role": "chord",
      "is_tied": false
    },
    {
      "midi": 57,
      "name": "A3",
      "start": 89.2082,
      "duration": 0.4478,
      "bar": 25,
      "beat": 3.0,
      "duration_beats": 0.5,
      "velocity": 0.57,
      "role": "chord",
      "is_tied": false
    },
    {
      "midi": 50,
      "name": "D3",
      "start": 89.2082,
      "duration": 0.2239,
      "bar": 25,
      "beat": 3.0,
      "duration_beats": 0.25,
      "velocity": 0.99,
      "role": "chord",
      "is_tied": false
    },
    {
      "midi": 46,
      "name": "A#2",
      "start": 89.2082,
      "duration": 0.8955,
      "bar": 25,
      "beat": 3.0,
      "duration_beats": 1.0,
      "velocity": 1.0,
      "role": "bass",
      "is_tied": false
    },
    {
      "midi": 72,
      "name": "C5",
      "start": 90.1037,
      "duration": 0.4478,
      "bar": 25,
      "beat": 4.0,
      "duration_beats": 0.5,
      "velocity": 0.34,
      "role": "melody",
      "is_tied": false
    },
    {
      "midi": 60,
      "name": "C4",
      "start": 90.1037,
      "duration": 0.6716,
      "bar": 25,
      "beat": 4.0,
      "duration_beats": 0.75,
      "velocity": 0.92,
      "role": "chord",
      "is_tied": false
    },
    {
      "midi": 57,
      "name": "A3",
      "start": 90.1037,
      "duration": 0.2239,
      "bar": 25,
      "beat": 4.0,
      "duration_beats": 0.25,
      "velocity": 0.47,
      "role": "chord",
      "is_tied": false
    },
    {
      "midi": 55,
      "name": "G3",
      "start": 90.1037,
      "duration": 0.6716,
      "bar": 25,
      "beat": 4.0,
      "duration_beats": 0.75,
      "velocity": 0.84,
      "role": "chord",
      "is_tied": false
    },
    {
      "midi": 48,
      "name": "C3",
      "start": 90.1037,
      "duration": 0.4478,
      "bar": 25,
      "beat": 4.0,
      "duration_beats": 0.5,
      "velocity": 0.59,
      "role": "chord",
      "is_tied": false
    },
    {
      "midi": 71,
      "name": "B4",
      "start": 90.5515,
      "duration": 0.2239,
      "bar": 25,
      "beat": 4.5,
      "duration_beats": 0.25,
      "velocity": 0.49,
      "role": "melody",
      "is_tied": false
    },
    {
      "midi": 68,
      "name": "G#4",
      "start": 90.5515,
      "duration": 0.2239,
      "bar": 25,
      "beat": 4.5,
      "duration_beats": 0.25,
      "velocity": 1.0,
      "role": "melody",
      "is_tied": false
    },
    {
      "midi": 52,
      "name": "E3",
      "start": 90.5515,
      "duration": 0.2239,
      "bar": 25,
      "beat": 4.5,
      "duration_beats": 0.25,
      "velocity": 0.96,
      "role": "chord",
      "is_tied": false
    },
    {
      "midi": 49,
      "name": "C#3",
      "start": 90.5515,
      "duration": 0.4478,
      "bar": 25,
      "beat": 4.5,
      "duration_beats": 0.5,
      "velocity": 1.0,
      "role": "chord",
      "is_tied": false
    },
    {
      "midi": 42,
      "name": "F#2",
      "start": 90.5515,
      "duration": 0.2239,
      "bar": 25,
      "beat": 4.5,
      "duration_beats": 0.25,
      "velocity": 0.53,
      "role": "bass",
      "is_tied": false
    },
    {
      "midi": 81,
      "name": "A5",
      "start": 90.9992,
      "duration": 0.2239,
      "bar": 26,
      "beat": 1.0,
      "duration_beats": 0.25,
      "velocity": 0.44,
      "role": "melody",
      "is_tied": false
    },
    {
      "midi": 74,
      "name": "D5",
      "start": 90.9992,
      "duration": 0.2239,
      "bar": 26,
      "beat": 1.0,
      "duration_beats": 0.25,
      "velocity": 1.0,
      "role": "melody",
      "is_tied": false
    },
    {
      "midi": 57,
      "name": "A3",
      "start": 90.9992,
      "duration": 0.2239,
      "bar": 26,
      "beat": 1.0,
      "duration_beats": 0.25,
      "velocity": 0.76,
      "role": "chord",
      "is_tied": false
    },
    {
      "midi": 83,
      "name": "B5",
      "start": 91.447,
      "duration": 0.2239,
      "bar": 26,
      "beat": 1.5,
      "duration_beats": 0.25,
      "velocity": 1.0,
      "role": "melody",
      "is_tied": false
    },
    {
      "midi": 74,
      "name": "D5",
      "start": 91.447,
      "duration": 0.8955,
      "bar": 26,
      "beat": 1.5,
      "duration_beats": 1.0,
      "velocity": 1.0,
      "role": "melody",
      "is_tied": false
    },
    {
      "midi": 60,
      "name": "C4",
      "start": 91.447,
      "duration": 0.4478,
      "bar": 26,
      "beat": 1.5,
      "duration_beats": 0.5,
      "velocity": 0.72,
      "role": "chord",
      "is_tied": false
    },
    {
      "midi": 57,
      "name": "A3",
      "start": 91.447,
      "duration": 0.4478,
      "bar": 26,
      "beat": 1.5,
      "duration_beats": 0.5,
      "velocity": 0.49,
      "role": "chord",
      "is_tied": false
    },
    {
      "midi": 50,
      "name": "D3",
      "start": 91.447,
      "duration": 0.8955,
      "bar": 26,
      "beat": 1.5,
      "duration_beats": 1.0,
      "velocity": 1.0,
      "role": "chord",
      "is_tied": false
    },
    {
      "midi": 48,
      "name": "C3",
      "start": 91.447,
      "duration": 0.2239,
      "bar": 26,
      "beat": 1.5,
      "duration_beats": 0.25,
      "velocity": 0.42,
      "role": "chord",
      "is_tied": false
    },
    {
      "midi": 71,
      "name": "B4",
      "start": 91.8948,
      "duration": 0.4478,
      "bar": 26,
      "beat": 2.0,
      "duration_beats": 0.5,
      "velocity": 0.54,
      "role": "melody",
      "is_tied": false
    },
    {
      "midi": 69,
      "name": "A4",
      "start": 91.8948,
      "duration": 0.4478,
      "bar": 26,
      "beat": 2.0,
      "duration_beats": 0.5,
      "velocity": 1.0,
      "role": "chord",
      "is_tied": false
    },
    {
      "midi": 37,
      "name": "C#2",
      "start": 91.8948,
      "duration": 0.4478,
      "bar": 26,
      "beat": 2.0,
      "duration_beats": 0.5,
      "velocity": 1.0,
      "role": "bass",
      "is_tied": false
    },
    {
      "midi": 71,
      "name": "B4",
      "start": 92.3425,
      "duration": 1.3433,
      "bar": 26,
      "beat": 2.5,
      "duration_beats": 1.5,
      "velocity": 0.63,
      "role": "melody",
      "is_tied": false
    },
    {
      "midi": 52,
      "name": "E3",
      "start": 92.3425,
      "duration": 0.2239,
      "bar": 26,
      "beat": 2.5,
      "duration_beats": 0.25,
      "velocity": 0.63,
      "role": "chord",
      "is_tied": false
    },
    {
      "midi": 38,
      "name": "D2",
      "start": 92.7903,
      "duration": 0.4478,
      "bar": 26,
      "beat": 3.0,
      "duration_beats": 0.5,
      "velocity": 0.48,
      "role": "bass",
      "is_tied": false
    },
    {
      "midi": 59,
      "name": "B3",
      "start": 93.238,
      "duration": 0.4478,
      "bar": 26,
      "beat": 3.5,
      "duration_beats": 0.5,
      "velocity": 0.33,
      "role": "chord",
      "is_tied": false
    },
    {
      "midi": 55,
      "name": "G3",
      "start": 93.238,
      "duration": 0.4478,
      "bar": 26,
      "beat": 3.5,
      "duration_beats": 0.5,
      "velocity": 1.0,
      "role": "chord",
      "is_tied": false
    },
    {
      "midi": 50,
      "name": "D3",
      "start": 93.238,
      "duration": 1.791,
      "bar": 26,
      "beat": 3.5,
      "duration_beats": 2.0,
      "velocity": 0.81,
      "role": "chord",
      "is_tied": false
    },
    {
      "midi": 69,
      "name": "A4",
      "start": 93.6858,
      "duration": 0.4478,
      "bar": 26,
      "beat": 4.0,
      "duration_beats": 0.5,
      "velocity": 0.64,
      "role": "melody",
      "is_tied": false
    },
    {
      "midi": 67,
      "name": "G4",
      "start": 93.6858,
      "duration": 0.6716,
      "bar": 26,
      "beat": 4.0,
      "duration_beats": 0.75,
      "velocity": 0.96,
      "role": "melody",
      "is_tied": false
    },
    {
      "midi": 62,
      "name": "D4",
      "start": 93.6858,
      "duration": 1.3433,
      "bar": 26,
      "beat": 4.0,
      "duration_beats": 1.5,
      "velocity": 1.0,
      "role": "chord",
      "is_tied": false
    },
    {
      "midi": 57,
      "name": "A3",
      "start": 94.1336,
      "duration": 0.6716,
      "bar": 26,
      "beat": 4.5,
      "duration_beats": 0.75,
      "velocity": 1.0,
      "role": "chord",
      "is_tied": false
    },
    {
      "midi": 74,
      "name": "D5",
      "start": 94.5813,
      "duration": 0.8955,
      "bar": 27,
      "beat": 1.0,
      "duration_beats": 1.0,
      "velocity": 0.56,
      "role": "melody",
      "is_tied": false
    },
    {
      "midi": 74,
      "name": "D5",
      "start": 94.5813,
      "duration": 0.6716,
      "bar": 27,
      "beat": 1.0,
      "duration_beats": 0.75,
      "velocity": 0.89,
      "role": "melody",
      "is_tied": false
    },
    {
      "midi": 59,
      "name": "B3",
      "start": 94.5813,
      "duration": 1.3433,
      "bar": 27,
      "beat": 1.0,
      "duration_beats": 1.5,
      "velocity": 0.65,
      "role": "chord",
      "is_tied": false
    },
    {
      "midi": 57,
      "name": "A3",
      "start": 94.5813,
      "duration": 0.4478,
      "bar": 27,
      "beat": 1.0,
      "duration_beats": 0.5,
      "velocity": 0.85,
      "role": "chord",
      "is_tied": false
    },
    {
      "midi": 57,
      "name": "A3",
      "start": 94.5813,
      "duration": 0.2239,
      "bar": 27,
      "beat": 1.0,
      "duration_beats": 0.25,
      "velocity": 0.37,
      "role": "chord",
      "is_tied": false
    },
    {
      "midi": 54,
      "name": "F#3",
      "start": 94.5813,
      "duration": 1.791,
      "bar": 27,
      "beat": 1.0,
      "duration_beats": 2.0,
      "velocity": 1.0,
      "role": "bass",
      "is_tied": false
    },
    {
      "midi": 54,
      "name": "F#3",
      "start": 94.5813,
      "duration": 1.3433,
      "bar": 27,
      "beat": 1.0,
      "duration_beats": 1.5,
      "velocity": 0.93,
      "role": "bass",
      "is_tied": false
    },
    {
      "midi": 50,
      "name": "D3",
      "start": 94.5813,
      "duration": 0.4478,
      "bar": 27,
      "beat": 1.0,
      "duration_beats": 0.5,
      "velocity": 0.76,
      "role": "chord",
      "is_tied": false
    },
    {
      "midi": 50,
      "name": "D3",
      "start": 94.5813,
      "duration": 0.4478,
      "bar": 27,
      "beat": 1.0,
      "duration_beats": 0.5,
      "velocity": 0.73,
      "role": "chord",
      "is_tied": false
    },
    {
      "midi": 52,
      "name": "E3",
      "start": 95.0291,
      "duration": 0.4478,
      "bar": 27,
      "beat": 1.5,
      "duration_beats": 0.5,
      "velocity": 0.3,
      "role": "chord",
      "is_tied": false
    },
    {
      "midi": 43,
      "name": "G2",
      "start": 95.0291,
      "duration": 0.4478,
      "bar": 27,
      "beat": 1.5,
      "duration_beats": 0.5,
      "velocity": 0.49,
      "role": "bass",
      "is_tied": false
    },
    {
      "midi": 59,
      "name": "B3",
      "start": 95.4769,
      "duration": 0.6716,
      "bar": 27,
      "beat": 2.0,
      "duration_beats": 0.75,
      "velocity": 0.91,
      "role": "chord",
      "is_tied": false
    },
    {
      "midi": 54,
      "name": "F#3",
      "start": 95.4769,
      "duration": 0.6716,
      "bar": 27,
      "beat": 2.0,
      "duration_beats": 0.75,
      "velocity": 1.0,
      "role": "bass",
      "is_tied": false
    },
    {
      "midi": 50,
      "name": "D3",
      "start": 95.4769,
      "duration": 1.791,
      "bar": 27,
      "beat": 2.0,
      "duration_beats": 2.0,
      "velocity": 0.5,
      "role": "chord",
      "is_tied": false
    },
    {
      "midi": 72,
      "name": "C5",
      "start": 96.3724,
      "duration": 0.4478,
      "bar": 27,
      "beat": 3.0,
      "duration_beats": 0.5,
      "velocity": 0.78,
      "role": "melody",
      "is_tied": false
    },
    {
      "midi": 60,
      "name": "C4",
      "start": 96.3724,
      "duration": 0.8955,
      "bar": 27,
      "beat": 3.0,
      "duration_beats": 1.0,
      "velocity": 0.63,
      "role": "chord",
      "is_tied": false
    },
    {
      "midi": 57,
      "name": "A3",
      "start": 96.3724,
      "duration": 0.4478,
      "bar": 27,
      "beat": 3.0,
      "duration_beats": 0.5,
      "velocity": 0.58,
      "role": "chord",
      "is_tied": false
    },
    {
      "midi": 74,
      "name": "D5",
      "start": 97.2679,
      "duration": 0.8955,
      "bar": 27,
      "beat": 4.0,
      "duration_beats": 1.0,
      "velocity": 0.56,
      "role": "melody",
      "is_tied": false
    },
    {
      "midi": 50,
      "name": "D3",
      "start": 97.2679,
      "duration": 0.8955,
      "bar": 27,
      "beat": 4.0,
      "duration_beats": 1.0,
      "velocity": 1.0,
      "role": "chord",
      "is_tied": false
    },
    {
      "midi": 40,
      "name": "E2",
      "start": 97.2679,
      "duration": 0.4478,
      "bar": 27,
      "beat": 4.0,
      "duration_beats": 0.5,
      "velocity": 1.0,
      "role": "bass",
      "is_tied": false
    },
    {
      "midi": 74,
      "name": "D5",
      "start": 98.1634,
      "duration": 0.2239,
      "bar": 28,
      "beat": 1.0,
      "duration_beats": 0.25,
      "velocity": 0.79,
      "role": "melody",
      "is_tied": true
    },
    {
      "midi": 72,
      "name": "C5",
      "start": 98.1634,
      "duration": 0.2239,
      "bar": 28,
      "beat": 1.0,
      "duration_beats": 0.25,
      "velocity": 1.0,
      "role": "melody",
      "is_tied": false
    },
    {
      "midi": 72,
      "name": "C5",
      "start": 98.1634,
      "duration": 0.4478,
      "bar": 28,
      "beat": 1.0,
      "duration_beats": 0.5,
      "velocity": 0.93,
      "role": "melody",
      "is_tied": false
    },
    {
      "midi": 67,
      "name": "G4",
      "start": 98.1634,
      "duration": 0.2239,
      "bar": 28,
      "beat": 1.0,
      "duration_beats": 0.25,
      "velocity": 0.82,
      "role": "chord",
      "is_tied": true
    },
    {
      "midi": 58,
      "name": "A#3",
      "start": 98.1634,
      "duration": 0.6716,
      "bar": 28,
      "beat": 1.0,
      "duration_beats": 0.75,
      "velocity": 0.71,
      "role": "chord",
      "is_tied": false
    },
    {
      "midi": 52,
      "name": "E3",
      "start": 98.1634,
      "duration": 0.2239,
      "bar": 28,
      "beat": 1.0,
      "duration_beats": 0.25,
      "velocity": 0.72,
      "role": "chord",
      "is_tied": true
    },
    {
      "midi": 52,
      "name": "E3",
      "start": 98.1634,
      "duration": 0.2239,
      "bar": 28,
      "beat": 1.0,
      "duration_beats": 0.25,
      "velocity": 0.72,
      "role": "chord",
      "is_tied": false
    },
    {
      "midi": 50,
      "name": "D3",
      "start": 98.1634,
      "duration": 0.2239,
      "bar": 28,
      "beat": 1.0,
      "duration_beats": 0.25,
      "velocity": 0.63,
      "role": "chord",
      "is_tied": true
    },
    {
      "midi": 50,
      "name": "D3",
      "start": 98.1634,
      "duration": 0.4478,
      "bar": 28,
      "beat": 1.0,
      "duration_beats": 0.5,
      "velocity": 0.63,
      "role": "chord",
      "is_tied": false
    },
    {
      "midi": 48,
      "name": "C3",
      "start": 98.1634,
      "duration": 0.2239,
      "bar": 28,
      "beat": 1.0,
      "duration_beats": 0.25,
      "velocity": 1.0,
      "role": "bass",
      "is_tied": true
    },
    {
      "midi": 48,
      "name": "C3",
      "start": 98.1634,
      "duration": 0.4478,
      "bar": 28,
      "beat": 1.0,
      "duration_beats": 0.5,
      "velocity": 0.47,
      "role": "bass",
      "is_tied": false
    },
    {
      "midi": 70,
      "name": "A#4",
      "start": 98.6112,
      "duration": 0.6716,
      "bar": 28,
      "beat": 1.5,
      "duration_beats": 0.75,
      "velocity": 0.52,
      "role": "melody",
      "is_tied": false
    },
    {
      "midi": 69,
      "name": "A4",
      "start": 98.6112,
      "duration": 0.2239,
      "bar": 28,
      "beat": 1.5,
      "duration_beats": 0.25,
      "velocity": 1.0,
      "role": "melody",
      "is_tied": false
    },
    {
      "midi": 60,
      "name": "C4",
      "start": 98.6112,
      "duration": 0.6716,
      "bar": 28,
      "beat": 1.5,
      "duration_beats": 0.75,
      "velocity": 0.5,
      "role": "chord",
      "is_tied": false
    },
    {
      "midi": 41,
      "name": "F2",
      "start": 98.6112,
      "duration": 0.6716,
      "bar": 28,
      "beat": 1.5,
      "duration_beats": 0.75,
      "velocity": 1.0,
      "role": "bass",
      "is_tied": false
    },
    {
      "midi": 55,
      "name": "G3",
      "start": 99.0589,
      "duration": 0.4478,
      "bar": 28,
      "beat": 2.0,
      "duration_beats": 0.5,
      "velocity": 0.46,
      "role": "chord",
      "is_tied": false
    },
    {
      "midi": 50,
      "name": "D3",
      "start": 99.0589,
      "duration": 1.3433,
      "bar": 28,
      "beat": 2.0,
      "duration_beats": 1.5,
      "velocity": 0.81,
      "role": "chord",
      "is_tied": false
    },
    {
      "midi": 48,
      "name": "C3",
      "start": 99.0589,
      "duration": 0.4478,
      "bar": 28,
      "beat": 2.0,
      "duration_beats": 0.5,
      "velocity": 0.36,
      "role": "chord",
      "is_tied": false
    },
    {
      "midi": 73,
      "name": "C#5",
      "start": 99.5067,
      "duration": 0.6716,
      "bar": 28,
      "beat": 2.5,
      "duration_beats": 0.75,
      "velocity": 0.35,
      "role": "melody",
      "is_tied": false
    },
    {
      "midi": 67,
      "name": "G4",
      "start": 99.5067,
      "duration": 0.2239,
      "bar": 28,
      "beat": 2.5,
      "duration_beats": 0.25,
      "velocity": 0.56,
      "role": "melody",
      "is_tied": true
    },
    {
      "midi": 66,
      "name": "F#4",
      "start": 99.5067,
      "duration": 0.4478,
      "bar": 28,
      "beat": 2.5,
      "duration_beats": 0.5,
      "velocity": 0.68,
      "role": "chord",
      "is_tied": false
    },
    {
      "midi": 61,
      "name": "C#4",
      "start": 99.5067,
      "duration": 0.8955,
      "bar": 28,
      "beat": 2.5,
      "duration_beats": 1.0,
      "velocity": 1.0,
      "role": "chord",
      "is_tied": false
    },
    {
      "midi": 58,
      "name": "A#3",
      "start": 99.5067,
      "duration": 0.2239,
      "bar": 28,
      "beat": 2.5,
      "duration_beats": 0.25,
      "velocity": 1.0,
      "role": "chord",
      "is_tied": true
    },
    {
      "midi": 73,
      "name": "C#5",
      "start": 99.9545,
      "duration": 0.2239,
      "bar": 28,
      "beat": 3.0,
      "duration_beats": 0.25,
      "velocity": 1.0,
      "role": "melody",
      "is_tied": false
    },
    {
      "midi": 38,
      "name": "D2",
      "start": 99.9545,
      "duration": 0.4478,
      "bar": 28,
      "beat": 3.0,
      "duration_beats": 0.5,
      "velocity": 1.0,
      "role": "bass",
      "is_tied": false
    },
    {
      "midi": 80,
      "name": "G#5",
      "start": 100.4022,
      "duration": 0.2239,
      "bar": 28,
      "beat": 3.5,
      "duration_beats": 0.25,
      "velocity": 0.31,
      "role": "melody",
      "is_tied": false
    },
    {
      "midi": 78,
      "name": "F#5",
      "start": 100.4022,
      "duration": 0.2239,
      "bar": 28,
      "beat": 3.5,
      "duration_beats": 0.25,
      "velocity": 0.48,
      "role": "melody",
      "is_tied": false
    },
    {
      "midi": 66,
      "name": "F#4",
      "start": 100.4022,
      "duration": 0.2239,
      "bar": 28,
      "beat": 3.5,
      "duration_beats": 0.25,
      "velocity": 0.78,
      "role": "melody",
      "is_tied": false
    },
    {
      "midi": 74,
      "name": "D5",
      "start": 100.85,
      "duration": 0.6716,
      "bar": 28,
      "beat": 4.0,
      "duration_beats": 0.75,
      "velocity": 0.43,
      "role": "melody",
      "is_tied": false
    },
    {
      "midi": 71,
      "name": "B4",
      "start": 100.85,
      "duration": 0.2239,
      "bar": 28,
      "beat": 4.0,
      "duration_beats": 0.25,
      "velocity": 0.54,
      "role": "melody",
      "is_tied": false
    },
    {
      "midi": 71,
      "name": "B4",
      "start": 100.85,
      "duration": 0.2239,
      "bar": 28,
      "beat": 4.0,
      "duration_beats": 0.25,
      "velocity": 0.54,
      "role": "melody",
      "is_tied": true
    },
    {
      "midi": 55,
      "name": "G3",
      "start": 100.85,
      "duration": 0.2239,
      "bar": 28,
      "beat": 4.0,
      "duration_beats": 0.25,
      "velocity": 0.69,
      "role": "bass",
      "is_tied": false
    },
    {
      "midi": 54,
      "name": "F#3",
      "start": 100.85,
      "duration": 2.6866,
      "bar": 28,
      "beat": 4.0,
      "duration_beats": 3.0,
      "velocity": 1.0,
      "role": "bass",
      "is_tied": false
    },
    {
      "midi": 52,
      "name": "E3",
      "start": 100.85,
      "duration": 0.2239,
      "bar": 28,
      "beat": 4.0,
      "duration_beats": 0.25,
      "velocity": 0.73,
      "role": "chord",
      "is_tied": true
    },
    {
      "midi": 74,
      "name": "D5",
      "start": 101.2977,
      "duration": 0.2239,
      "bar": 28,
      "beat": 4.5,
      "duration_beats": 0.25,
      "velocity": 0.41,
      "role": "melody",
      "is_tied": false
    },
    {
      "midi": 73,
      "name": "C#5",
      "start": 101.2977,
      "duration": 0.6716,
      "bar": 28,
      "beat": 4.5,
      "duration_beats": 0.75,
      "velocity": 0.31,
      "role": "melody",
      "is_tied": false
    },
    {
      "midi": 52,
      "name": "E3",
      "start": 101.2977,
      "duration": 0.4478,
      "bar": 28,
      "beat": 4.5,
      "duration_beats": 0.5,
      "velocity": 0.47,
      "role": "chord",
      "is_tied": false
    },
    {
      "midi": 35,
      "name": "B1",
      "start": 101.2977,
      "duration": 0.2239,
      "bar": 28,
      "beat": 4.5,
      "duration_beats": 0.25,
      "velocity": 0.32,
      "role": "bass",
      "is_tied": false
    },
    {
      "midi": 74,
      "name": "D5",
      "start": 101.7455,
      "duration": 0.6716,
      "bar": 29,
      "beat": 1.0,
      "duration_beats": 0.75,
      "velocity": 1.0,
      "role": "melody",
      "is_tied": false
    },
    {
      "midi": 71,
      "name": "B4",
      "start": 101.7455,
      "duration": 1.3433,
      "bar": 29,
      "beat": 1.0,
      "duration_beats": 1.5,
      "velocity": 0.5,
      "role": "melody",
      "is_tied": false
    },
    {
      "midi": 40,
      "name": "E2",
      "start": 101.7455,
      "duration": 0.6716,
      "bar": 29,
      "beat": 1.0,
      "duration_beats": 0.75,
      "velocity": 1.0,
      "role": "bass",
      "is_tied": false
    },
    {
      "midi": 42,
      "name": "F#2",
      "start": 102.1933,
      "duration": 0.4478,
      "bar": 29,
      "beat": 1.5,
      "duration_beats": 0.5,
      "velocity": 0.85,
      "role": "bass",
      "is_tied": false
    },
    {
      "midi": 71,
      "name": "B4",
      "start": 102.641,
      "duration": 0.6716,
      "bar": 29,
      "beat": 2.0,
      "duration_beats": 0.75,
      "velocity": 0.6,
      "role": "melody",
      "is_tied": false
    },
    {
      "midi": 57,
      "name": "A3",
      "start": 102.641,
      "duration": 0.4478,
      "bar": 29,
      "beat": 2.0,
      "duration_beats": 0.5,
      "velocity": 0.6,
      "role": "chord",
      "is_tied": false
    },
    {
      "midi": 50,
      "name": "D3",
      "start": 102.641,
      "duration": 1.3433,
      "bar": 29,
      "beat": 2.0,
      "duration_beats": 1.5,
      "velocity": 0.63,
      "role": "chord",
      "is_tied": false
    },
    {
      "midi": 42,
      "name": "F#2",
      "start": 102.641,
      "duration": 0.2239,
      "bar": 29,
      "beat": 2.0,
      "duration_beats": 0.25,
      "velocity": 0.9,
      "role": "bass",
      "is_tied": false
    },
    {
      "midi": 74,
      "name": "D5",
      "start": 103.0888,
      "duration": 0.8955,
      "bar": 29,
      "beat": 2.5,
      "duration_beats": 1.0,
      "velocity": 0.45,
      "role": "melody",
      "is_tied": false
    },
    {
      "midi": 57,
      "name": "A3",
      "start": 103.0888,
      "duration": 0.8955,
      "bar": 29,
      "beat": 2.5,
      "duration_beats": 1.0,
      "velocity": 0.51,
      "role": "chord",
      "is_tied": false
    },
    {
      "midi": 50,
      "name": "D3",
      "start": 103.0888,
      "duration": 0.6716,
      "bar": 29,
      "beat": 2.5,
      "duration_beats": 0.75,
      "velocity": 0.8,
      "role": "chord",
      "is_tied": false
    },
    {
      "midi": 47,
      "name": "B2",
      "start": 103.0888,
      "duration": 0.8955,
      "bar": 29,
      "beat": 2.5,
      "duration_beats": 1.0,
      "velocity": 1.0,
      "role": "bass",
      "is_tied": false
    },
    {
      "midi": 72,
      "name": "C5",
      "start": 104.4321,
      "duration": 0.2239,
      "bar": 29,
      "beat": 4.0,
      "duration_beats": 0.25,
      "velocity": 0.89,
      "role": "melody",
      "is_tied": false
    },
    {
      "midi": 68,
      "name": "G#4",
      "start": 104.4321,
      "duration": 0.2239,
      "bar": 29,
      "beat": 4.0,
      "duration_beats": 0.25,
      "velocity": 0.91,
      "role": "melody",
      "is_tied": false
    },
    {
      "midi": 60,
      "name": "C4",
      "start": 104.4321,
      "duration": 0.4478,
      "bar": 29,
      "beat": 4.0,
      "duration_beats": 0.5,
      "velocity": 1.0,
      "role": "chord",
      "is_tied": false
    },
    {
      "midi": 56,
      "name": "G#3",
      "start": 104.4321,
      "duration": 0.2239,
      "bar": 29,
      "beat": 4.0,
      "duration_beats": 0.25,
      "velocity": 0.82,
      "role": "chord",
      "is_tied": false
    },
    {
      "midi": 54,
      "name": "F#3",
      "start": 104.4321,
      "duration": 0.4478,
      "bar": 29,
      "beat": 4.0,
      "duration_beats": 0.5,
      "velocity": 0.45,
      "role": "bass",
      "is_tied": false
    },
    {
      "midi": 52,
      "name": "E3",
      "start": 104.4321,
      "duration": 0.2239,
      "bar": 29,
      "beat": 4.0,
      "duration_beats": 0.25,
      "velocity": 1.0,
      "role": "chord",
      "is_tied": false
    },
    {
      "midi": 74,
      "name": "D5",
      "start": 104.8798,
      "duration": 0.2239,
      "bar": 29,
      "beat": 4.5,
      "duration_beats": 0.25,
      "velocity": 1.0,
      "role": "melody",
      "is_tied": false
    },
    {
      "midi": 50,
      "name": "D3",
      "start": 104.8798,
      "duration": 0.2239,
      "bar": 29,
      "beat": 4.5,
      "duration_beats": 0.25,
      "velocity": 0.54,
      "role": "chord",
      "is_tied": false
    },
    {
      "midi": 45,
      "name": "A2",
      "start": 104.8798,
      "duration": 0.2239,
      "bar": 29,
      "beat": 4.5,
      "duration_beats": 0.25,
      "velocity": 1.0,
      "role": "bass",
      "is_tied": false
    },
    {
      "midi": 79,
      "name": "G5",
      "start": 105.3276,
      "duration": 0.2239,
      "bar": 30,
      "beat": 1.0,
      "duration_beats": 0.25,
      "velocity": 0.62,
      "role": "melody",
      "is_tied": false
    },
    {
      "midi": 74,
      "name": "D5",
      "start": 105.3276,
      "duration": 0.2239,
      "bar": 30,
      "beat": 1.0,
      "duration_beats": 0.25,
      "velocity": 0.85,
      "role": "melody",
      "is_tied": false
    },
    {
      "midi": 55,
      "name": "G3",
      "start": 105.3276,
      "duration": 0.2239,
      "bar": 30,
      "beat": 1.0,
      "duration_beats": 0.25,
      "velocity": 0.45,
      "role": "chord",
      "is_tied": false
    },
    {
      "midi": 45,
      "name": "A2",
      "start": 105.3276,
      "duration": 0.2239,
      "bar": 30,
      "beat": 1.0,
      "duration_beats": 0.25,
      "velocity": 1.0,
      "role": "bass",
      "is_tied": false
    },
    {
      "midi": 83,
      "name": "B5",
      "start": 105.7754,
      "duration": 0.2239,
      "bar": 30,
      "beat": 1.5,
      "duration_beats": 0.25,
      "velocity": 0.89,
      "role": "melody",
      "is_tied": false
    },
    {
      "midi": 74,
      "name": "D5",
      "start": 105.7754,
      "duration": 0.8955,
      "bar": 30,
      "beat": 1.5,
      "duration_beats": 1.0,
      "velocity": 0.63,
      "role": "melody",
      "is_tied": false
    },
    {
      "midi": 50,
      "name": "D3",
      "start": 105.7754,
      "duration": 1.3433,
      "bar": 30,
      "beat": 1.5,
      "duration_beats": 1.5,
      "velocity": 0.82,
      "role": "chord",
      "is_tied": false
    },
    {
      "midi": 45,
      "name": "A2",
      "start": 105.7754,
      "duration": 0.4478,
      "bar": 30,
      "beat": 1.5,
      "duration_beats": 0.5,
      "velocity": 1.0,
      "role": "bass",
      "is_tied": false
    },
    {
      "midi": 67,
      "name": "G4",
      "start": 106.2231,
      "duration": 0.4478,
      "bar": 30,
      "beat": 2.0,
      "duration_beats": 0.5,
      "velocity": 0.41,
      "role": "chord",
      "is_tied": false
    },
    {
      "midi": 52,
      "name": "E3",
      "start": 106.2231,
      "duration": 0.4478,
      "bar": 30,
      "beat": 2.0,
      "duration_beats": 0.5,
      "velocity": 0.56,
      "role": "chord",
      "is_tied": false
    },
    {
      "midi": 48,
      "name": "C3",
      "start": 106.2231,
      "duration": 0.2239,
      "bar": 30,
      "beat": 2.0,
      "duration_beats": 0.25,
      "velocity": 0.44,
      "role": "chord",
      "is_tied": false
    },
    {
      "midi": 42,
      "name": "F#2",
      "start": 106.2231,
      "duration": 0.2239,
      "bar": 30,
      "beat": 2.0,
      "duration_beats": 0.25,
      "velocity": 0.85,
      "role": "bass",
      "is_tied": false
    },
    {
      "midi": 72,
      "name": "C5",
      "start": 106.6709,
      "duration": 0.4478,
      "bar": 30,
      "beat": 2.5,
      "duration_beats": 0.5,
      "velocity": 0.66,
      "role": "melody",
      "is_tied": false
    },
    {
      "midi": 69,
      "name": "A4",
      "start": 106.6709,
      "duration": 0.4478,
      "bar": 30,
      "beat": 2.5,
      "duration_beats": 0.5,
      "velocity": 0.78,
      "role": "chord",
      "is_tied": false
    },
    {
      "midi": 60,
      "name": "C4",
      "start": 106.6709,
      "duration": 0.6716,
      "bar": 30,
      "beat": 2.5,
      "duration_beats": 0.75,
      "velocity": 0.92,
      "role": "chord",
      "is_tied": false
    },
    {
      "midi": 54,
      "name": "F#3",
      "start": 106.6709,
      "duration": 0.6716,
      "bar": 30,
      "beat": 2.5,
      "duration_beats": 0.75,
      "velocity": 1.0,
      "role": "bass",
      "is_tied": false
    },
    {
      "midi": 52,
      "name": "E3",
      "start": 106.6709,
      "duration": 0.4478,
      "bar": 30,
      "beat": 2.5,
      "duration_beats": 0.5,
      "velocity": 0.54,
      "role": "chord",
      "is_tied": false
    },
    {
      "midi": 50,
      "name": "D3",
      "start": 106.6709,
      "duration": 0.6716,
      "bar": 30,
      "beat": 2.5,
      "duration_beats": 0.75,
      "velocity": 0.67,
      "role": "chord",
      "is_tied": false
    },
    {
      "midi": 64,
      "name": "E4",
      "start": 107.1186,
      "duration": 0.2239,
      "bar": 30,
      "beat": 3.0,
      "duration_beats": 0.25,
      "velocity": 1.0,
      "role": "melody",
      "is_tied": false
    },
    {
      "midi": 62,
      "name": "D4",
      "start": 107.1186,
      "duration": 0.2239,
      "bar": 30,
      "beat": 3.0,
      "duration_beats": 0.25,
      "velocity": 0.65,
      "role": "chord",
      "is_tied": false
    },
    {
      "midi": 59,
      "name": "B3",
      "start": 107.1186,
      "duration": 0.2239,
      "bar": 30,
      "beat": 3.0,
      "duration_beats": 0.25,
      "velocity": 0.5,
      "role": "chord",
      "is_tied": false
    },
    {
      "midi": 59,
      "name": "B3",
      "start": 107.1186,
      "duration": 2.6866,
      "bar": 30,
      "beat": 3.0,
      "duration_beats": 3.0,
      "velocity": 0.5,
      "role": "chord",
      "is_tied": false
    },
    {
      "midi": 55,
      "name": "G3",
      "start": 107.1186,
      "duration": 0.2239,
      "bar": 30,
      "beat": 3.0,
      "duration_beats": 0.25,
      "velocity": 0.65,
      "role": "chord",
      "is_tied": false
    },
    {
      "midi": 54,
      "name": "F#3",
      "start": 107.1186,
      "duration": 2.6866,
      "bar": 30,
      "beat": 3.0,
      "duration_beats": 3.0,
      "velocity": 0.35,
      "role": "bass",
      "is_tied": false
    },
    {
      "midi": 50,
      "name": "D3",
      "start": 107.1186,
      "duration": 3.5821,
      "bar": 30,
      "beat": 3.0,
      "duration_beats": 4.0,
      "velocity": 0.93,
      "role": "chord",
      "is_tied": false
    },
    {
      "midi": 74,
      "name": "D5",
      "start": 107.5664,
      "duration": 0.6716,
      "bar": 30,
      "beat": 3.5,
      "duration_beats": 0.75,
      "velocity": 0.35,
      "role": "melody",
      "is_tied": false
    },
    {
      "midi": 74,
      "name": "D5",
      "start": 107.5664,
      "duration": 0.4478,
      "bar": 30,
      "beat": 3.5,
      "duration_beats": 0.5,
      "velocity": 0.4,
      "role": "melody",
      "is_tied": false
    },
    {
      "midi": 62,
      "name": "D4",
      "start": 107.5664,
      "duration": 0.6716,
      "bar": 30,
      "beat": 3.5,
      "duration_beats": 0.75,
      "velocity": 1.0,
      "role": "chord",
      "is_tied": false
    },
    {
      "midi": 62,
      "name": "D4",
      "start": 107.5664,
      "duration": 0.4478,
      "bar": 30,
      "beat": 3.5,
      "duration_beats": 0.5,
      "velocity": 1.0,
      "role": "chord",
      "is_tied": false
    },
    {
      "midi": 57,
      "name": "A3",
      "start": 107.5664,
      "duration": 0.8955,
      "bar": 30,
      "beat": 3.5,
      "duration_beats": 1.0,
      "velocity": 1.0,
      "role": "chord",
      "is_tied": false
    },
    {
      "midi": 54,
      "name": "F#3",
      "start": 107.5664,
      "duration": 2.6866,
      "bar": 30,
      "beat": 3.5,
      "duration_beats": 3.0,
      "velocity": 0.49,
      "role": "bass",
      "is_tied": false
    },
    {
      "midi": 69,
      "name": "A4",
      "start": 108.0142,
      "duration": 0.6716,
      "bar": 30,
      "beat": 4.0,
      "duration_beats": 0.75,
      "velocity": 1.0,
      "role": "melody",
      "is_tied": false
    },
    {
      "midi": 66,
      "name": "F#4",
      "start": 108.0142,
      "duration": 0.2239,
      "bar": 30,
      "beat": 4.0,
      "duration_beats": 0.25,
      "velocity": 0.85,
      "role": "melody",
      "is_tied": false
    },
    {
      "midi": 74,
      "name": "D5",
      "start": 108.4619,
      "duration": 0.6716,
      "bar": 30,
      "beat": 4.5,
      "duration_beats": 0.75,
      "velocity": 1.0,
      "role": "melody",
      "is_tied": false
    },
    {
      "midi": 73,
      "name": "C#5",
      "start": 108.4619,
      "duration": 0.4478,
      "bar": 30,
      "beat": 4.5,
      "duration_beats": 0.5,
      "velocity": 0.49,
      "role": "melody",
      "is_tied": false
    },
    {
      "midi": 52,
      "name": "E3",
      "start": 108.4619,
      "duration": 0.4478,
      "bar": 30,
      "beat": 4.5,
      "duration_beats": 0.5,
      "velocity": 0.38,
      "role": "chord",
      "is_tied": false
    },
    {
      "midi": 43,
      "name": "G2",
      "start": 108.4619,
      "duration": 0.2239,
      "bar": 30,
      "beat": 4.5,
      "duration_beats": 0.25,
      "velocity": 0.7,
      "role": "bass",
      "is_tied": true
    },
    {
      "midi": 69,
      "name": "A4",
      "start": 108.9097,
      "duration": 1.791,
      "bar": 31,
      "beat": 1.0,
      "duration_beats": 2.0,
      "velocity": 1.0,
      "role": "melody",
      "is_tied": false
    },
    {
      "midi": 41,
      "name": "F2",
      "start": 108.9097,
      "duration": 0.4478,
      "bar": 31,
      "beat": 1.0,
      "duration_beats": 0.5,
      "velocity": 1.0,
      "role": "bass",
      "is_tied": false
    },
    {
      "midi": 71,
      "name": "B4",
      "start": 109.3574,
      "duration": 0.6716,
      "bar": 31,
      "beat": 1.5,
      "duration_beats": 0.75,
      "velocity": 0.43,
      "role": "melody",
      "is_tied": false
    },
    {
      "midi": 69,
      "name": "A4",
      "start": 109.3574,
      "duration": 1.791,
      "bar": 31,
      "beat": 1.5,
      "duration_beats": 2.0,
      "velocity": 1.0,
      "role": "melody",
      "is_tied": false
    },
    {
      "midi": 69,
      "name": "A4",
      "start": 109.3574,
      "duration": 1.3433,
      "bar": 31,
      "beat": 1.5,
      "duration_beats": 1.5,
      "velocity": 1.0,
      "role": "melody",
      "is_tied": false
    },
    {
      "midi": 54,
      "name": "F#3",
      "start": 109.3574,
      "duration": 0.6716,
      "bar": 31,
      "beat": 1.5,
      "duration_beats": 0.75,
      "velocity": 0.81,
      "role": "bass",
      "is_tied": false
    },
    {
      "midi": 50,
      "name": "D3",
      "start": 109.3574,
      "duration": 1.3433,
      "bar": 31,
      "beat": 1.5,
      "duration_beats": 1.5,
      "velocity": 1.0,
      "role": "chord",
      "is_tied": false
    },
    {
      "midi": 43,
      "name": "G2",
      "start": 109.3574,
      "duration": 0.2239,
      "bar": 31,
      "beat": 1.5,
      "duration_beats": 0.25,
      "velocity": 0.5,
      "role": "bass",
      "is_tied": false
    },
    {
      "midi": 66,
      "name": "F#4",
      "start": 109.8052,
      "duration": 0.4478,
      "bar": 31,
      "beat": 2.0,
      "duration_beats": 0.5,
      "velocity": 0.62,
      "role": "chord",
      "is_tied": false
    },
    {
      "midi": 74,
      "name": "D5",
      "start": 110.253,
      "duration": 0.6716,
      "bar": 31,
      "beat": 2.5,
      "duration_beats": 0.75,
      "velocity": 0.55,
      "role": "melody",
      "is_tied": false
    },
    {
      "midi": 58,
      "name": "A#3",
      "start": 110.253,
      "duration": 0.8955,
      "bar": 31,
      "beat": 2.5,
      "duration_beats": 1.0,
      "velocity": 0.45,
      "role": "chord",
      "is_tied": false
    },
    {
      "midi": 58,
      "name": "A#3",
      "start": 110.253,
      "duration": 0.6716,
      "bar": 31,
      "beat": 2.5,
      "duration_beats": 0.75,
      "velocity": 0.52,
      "role": "chord",
      "is_tied": false
    },
    {
      "midi": 50,
      "name": "D3",
      "start": 110.253,
      "duration": 0.6716,
      "bar": 31,
      "beat": 2.5,
      "duration_beats": 0.75,
      "velocity": 0.81,
      "role": "chord",
      "is_tied": false
    },
    {
      "midi": 48,
      "name": "C3",
      "start": 110.253,
      "duration": 0.8955,
      "bar": 31,
      "beat": 2.5,
      "duration_beats": 1.0,
      "velocity": 1.0,
      "role": "bass",
      "is_tied": false
    },
    {
      "midi": 48,
      "name": "C3",
      "start": 110.253,
      "duration": 0.6716,
      "bar": 31,
      "beat": 2.5,
      "duration_beats": 0.75,
      "velocity": 0.98,
      "role": "bass",
      "is_tied": false
    },
    {
      "midi": 76,
      "name": "E5",
      "start": 111.1485,
      "duration": 0.2239,
      "bar": 31,
      "beat": 3.5,
      "duration_beats": 0.25,
      "velocity": 1.0,
      "role": "melody",
      "is_tied": false
    },
    {
      "midi": 72,
      "name": "C5",
      "start": 111.1485,
      "duration": 1.3433,
      "bar": 31,
      "beat": 3.5,
      "duration_beats": 1.5,
      "velocity": 0.83,
      "role": "melody",
      "is_tied": false
    },
    {
      "midi": 65,
      "name": "F4",
      "start": 111.1485,
      "duration": 0.6716,
      "bar": 31,
      "beat": 3.5,
      "duration_beats": 0.75,
      "velocity": 0.65,
      "role": "chord",
      "is_tied": false
    },
    {
      "midi": 60,
      "name": "C4",
      "start": 111.1485,
      "duration": 0.8955,
      "bar": 31,
      "beat": 3.5,
      "duration_beats": 1.0,
      "velocity": 0.81,
      "role": "chord",
      "is_tied": false
    },
    {
      "midi": 58,
      "name": "A#3",
      "start": 111.1485,
      "duration": 1.791,
      "bar": 31,
      "beat": 3.5,
      "duration_beats": 2.0,
      "velocity": 0.53,
      "role": "chord",
      "is_tied": false
    },
    {
      "midi": 58,
      "name": "A#3",
      "start": 111.1485,
      "duration": 1.791,
      "bar": 31,
      "beat": 3.5,
      "duration_beats": 2.0,
      "velocity": 0.53,
      "role": "chord",
      "is_tied": false
    },
    {
      "midi": 57,
      "name": "A3",
      "start": 111.1485,
      "duration": 0.2239,
      "bar": 31,
      "beat": 3.5,
      "duration_beats": 0.25,
      "velocity": 0.55,
      "role": "chord",
      "is_tied": false
    },
    {
      "midi": 69,
      "name": "A4",
      "start": 112.044,
      "duration": 0.4478,
      "bar": 31,
      "beat": 4.5,
      "duration_beats": 0.5,
      "velocity": 0.57,
      "role": "chord",
      "is_tied": false
    },
    {
      "midi": 66,
      "name": "F#4",
      "start": 112.044,
      "duration": 0.4478,
      "bar": 31,
      "beat": 4.5,
      "duration_beats": 0.5,
      "velocity": 0.5,
      "role": "chord",
      "is_tied": false
    },
    {
      "midi": 34,
      "name": "A#1",
      "start": 112.044,
      "duration": 0.4478,
      "bar": 31,
      "beat": 4.5,
      "duration_beats": 0.5,
      "velocity": 0.62,
      "role": "bass",
      "is_tied": false
    },
    {
      "midi": 70,
      "name": "A#4",
      "start": 112.4918,
      "duration": 1.3433,
      "bar": 31,
      "beat": 5.0,
      "duration_beats": 1.5,
      "velocity": 1.0,
      "role": "chord",
      "is_tied": false
    },
    {
      "midi": 50,
      "name": "D3",
      "start": 112.4918,
      "duration": 3.5821,
      "bar": 31,
      "beat": 5.0,
      "duration_beats": 4.0,
      "velocity": 0.72,
      "role": "chord",
      "is_tied": false
    },
    {
      "midi": 69,
      "name": "A4",
      "start": 112.9395,
      "duration": 0.2239,
      "bar": 32,
      "beat": 1.5,
      "duration_beats": 0.25,
      "velocity": 0.38,
      "role": "melody",
      "is_tied": false
    },
    {
      "midi": 35,
      "name": "B1",
      "start": 112.9395,
      "duration": 0.2239,
      "bar": 32,
      "beat": 1.5,
      "duration_beats": 0.25,
      "velocity": 0.69,
      "role": "bass",
      "is_tied": false
    },
    {
      "midi": 69,
      "name": "A4",
      "start": 113.3873,
      "duration": 1.791,
      "bar": 32,
      "beat": 2.0,
      "duration_beats": 2.0,
      "velocity": 0.35,
      "role": "melody",
      "is_tied": false
    },
    {
      "midi": 50,
      "name": "D3",
      "start": 113.3873,
      "duration": 2.6866,
      "bar": 32,
      "beat": 2.0,
      "duration_beats": 3.0,
      "velocity": 0.47,
      "role": "chord",
      "is_tied": false
    },
    {
      "midi": 41,
      "name": "F2",
      "start": 113.3873,
      "duration": 0.6716,
      "bar": 32,
      "beat": 2.0,
      "duration_beats": 0.75,
      "velocity": 1.0,
      "role": "bass",
      "is_tied": false
    },
    {
      "midi": 50,
      "name": "D3",
      "start": 113.8351,
      "duration": 1.791,
      "bar": 32,
      "beat": 2.5,
      "duration_beats": 2.0,
      "velocity": 0.54,
      "role": "chord",
      "is_tied": false
    },
    {
      "midi": 68,
      "name": "G#4",
      "start": 114.2828,
      "duration": 0.6716,
      "bar": 32,
      "beat": 3.0,
      "duration_beats": 0.75,
      "velocity": 0.38,
      "role": "melody",
      "is_tied": false
    },
    {
      "midi": 38,
      "name": "D2",
      "start": 114.2828,
      "duration": 0.8955,
      "bar": 32,
      "beat": 3.0,
      "duration_beats": 1.0,
      "velocity": 1.0,
      "role": "bass",
      "is_tied": false
    },
    {
      "midi": 33,
      "name": "A1",
      "start": 114.7306,
      "duration": 0.6716,
      "bar": 32,
      "beat": 3.5,
      "duration_beats": 0.75,
      "velocity": 0.48,
      "role": "bass",
      "is_tied": false
    },
    {
      "midi": 59,
      "name": "B3",
      "start": 115.1783,
      "duration": 0.2239,
      "bar": 32,
      "beat": 4.0,
      "duration_beats": 0.25,
      "velocity": 0.36,
      "role": "chord",
      "is_tied": false
    },
    {
      "midi": 57,
      "name": "A3",
      "start": 115.1783,
      "duration": 0.2239,
      "bar": 32,
      "beat": 4.0,
      "duration_beats": 0.25,
      "velocity": 0.5,
      "role": "chord",
      "is_tied": false
    },
    {
      "midi": 52,
      "name": "E3",
      "start": 115.1783,
      "duration": 0.4478,
      "bar": 32,
      "beat": 4.0,
      "duration_beats": 0.5,
      "velocity": 1.0,
      "role": "chord",
      "is_tied": false
    },
    {
      "midi": 73,
      "name": "C#5",
      "start": 115.6261,
      "duration": 0.4478,
      "bar": 32,
      "beat": 4.5,
      "duration_beats": 0.5,
      "velocity": 0.47,
      "role": "melody",
      "is_tied": false
    },
    {
      "midi": 42,
      "name": "F#2",
      "start": 115.6261,
      "duration": 0.4478,
      "bar": 32,
      "beat": 4.5,
      "duration_beats": 0.5,
      "velocity": 0.8,
      "role": "bass",
      "is_tied": false
    },
    {
      "midi": 73,
      "name": "C#5",
      "start": 116.0739,
      "duration": 0.2239,
      "bar": 33,
      "beat": 1.0,
      "duration_beats": 0.25,
      "velocity": 0.79,
      "role": "melody",
      "is_tied": false
    },
    {
      "midi": 73,
      "name": "C#5",
      "start": 116.0739,
      "duration": 0.6716,
      "bar": 33,
      "beat": 1.0,
      "duration_beats": 0.75,
      "velocity": 0.79,
      "role": "melody",
      "is_tied": false
    },
    {
      "midi": 50,
      "name": "D3",
      "start": 116.0739,
      "duration": 0.2239,
      "bar": 33,
      "beat": 1.0,
      "duration_beats": 0.25,
      "velocity": 0.99,
      "role": "chord",
      "is_tied": false
    },
    {
      "midi": 50,
      "name": "D3",
      "start": 116.0739,
      "duration": 0.6716,
      "bar": 33,
      "beat": 1.0,
      "duration_beats": 0.75,
      "velocity": 0.66,
      "role": "chord",
      "is_tied": false
    },
    {
      "midi": 45,
      "name": "A2",
      "start": 116.0739,
      "duration": 0.2239,
      "bar": 33,
      "beat": 1.0,
      "duration_beats": 0.25,
      "velocity": 1.0,
      "role": "bass",
      "is_tied": false
    },
    {
      "midi": 73,
      "name": "C#5",
      "start": 116.5216,
      "duration": 0.4478,
      "bar": 33,
      "beat": 1.5,
      "duration_beats": 0.5,
      "velocity": 0.62,
      "role": "melody",
      "is_tied": false
    },
    {
      "midi": 66,
      "name": "F#4",
      "start": 116.5216,
      "duration": 0.8955,
      "bar": 33,
      "beat": 1.5,
      "duration_beats": 1.0,
      "velocity": 0.67,
      "role": "melody",
      "is_tied": false
    },
    {
      "midi": 64,
      "name": "E4",
      "start": 116.5216,
      "duration": 0.4478,
      "bar": 33,
      "beat": 1.5,
      "duration_beats": 0.5,
      "velocity": 0.82,
      "role": "chord",
      "is_tied": false
    },
    {
      "midi": 59,
      "name": "B3",
      "start": 116.5216,
      "duration": 2.6866,
      "bar": 33,
      "beat": 1.5,
      "duration_beats": 3.0,
      "velocity": 1.0,
      "role": "chord",
      "is_tied": false
    },
    {
      "midi": 61,
      "name": "C#4",
      "start": 116.9694,
      "duration": 0.4478,
      "bar": 33,
      "beat": 2.0,
      "duration_beats": 0.5,
      "velocity": 0.76,
      "role": "chord",
      "is_tied": false
    },
    {
      "midi": 54,
      "name": "F#3",
      "start": 116.9694,
      "duration": 0.4478,
      "bar": 33,
      "beat": 2.0,
      "duration_beats": 0.5,
      "velocity": 0.74,
      "role": "chord",
      "is_tied": false
    },
    {
      "midi": 52,
      "name": "E3",
      "start": 116.9694,
      "duration": 2.6866,
      "bar": 33,
      "beat": 2.0,
      "duration_beats": 3.0,
      "velocity": 0.66,
      "role": "chord",
      "is_tied": false
    },
    {
      "midi": 55,
      "name": "G3",
      "start": 117.4171,
      "duration": 2.6866,
      "bar": 33,
      "beat": 2.5,
      "duration_beats": 3.0,
      "velocity": 0.54,
      "role": "chord",
      "is_tied": false
    },
    {
      "midi": 52,
      "name": "E3",
      "start": 117.4171,
      "duration": 1.791,
      "bar": 33,
      "beat": 2.5,
      "duration_beats": 2.0,
      "velocity": 0.6,
      "role": "chord",
      "is_tied": false
    },
    {
      "midi": 45,
      "name": "A2",
      "start": 117.4171,
      "duration": 1.791,
      "bar": 33,
      "beat": 2.5,
      "duration_beats": 2.0,
      "velocity": 0.96,
      "role": "bass",
      "is_tied": false
    },
    {
      "midi": 51,
      "name": "D#3",
      "start": 119.2082,
      "duration": 0.2239,
      "bar": 33,
      "beat": 4.5,
      "duration_beats": 0.25,
      "velocity": 0.44,
      "role": "chord",
      "is_tied": false
    },
    {
      "midi": 41,
      "name": "F2",
      "start": 119.2082,
      "duration": 0.4478,
      "bar": 33,
      "beat": 4.5,
      "duration_beats": 0.5,
      "velocity": 1.0,
      "role": "bass",
      "is_tied": false
    },
    {
      "midi": 71,
      "name": "B4",
      "start": 119.656,
      "duration": 1.3433,
      "bar": 34,
      "beat": 1.0,
      "duration_beats": 1.5,
      "velocity": 0.47,
      "role": "melody",
      "is_tied": false
    },
    {
      "midi": 68,
      "name": "G#4",
      "start": 119.656,
      "duration": 0.4478,
      "bar": 34,
      "beat": 1.0,
      "duration_beats": 0.5,
      "velocity": 0.95,
      "role": "melody",
      "is_tied": false
    },
    {
      "midi": 66,
      "name": "F#4",
      "start": 119.656,
      "duration": 0.4478,
      "bar": 34,
      "beat": 1.0,
      "duration_beats": 0.5,
      "velocity": 1.0,
      "role": "chord",
      "is_tied": false
    },
    {
      "midi": 64,
      "name": "E4",
      "start": 120.1037,
      "duration": 0.6716,
      "bar": 34,
      "beat": 1.5,
      "duration_beats": 0.75,
      "velocity": 1.0,
      "role": "melody",
      "is_tied": false
    },
    {
      "midi": 50,
      "name": "D3",
      "start": 120.1037,
      "duration": 1.3433,
      "bar": 34,
      "beat": 1.5,
      "duration_beats": 1.5,
      "velocity": 0.77,
      "role": "chord",
      "is_tied": false
    },
    {
      "midi": 36,
      "name": "C2",
      "start": 120.1037,
      "duration": 0.2239,
      "bar": 34,
      "beat": 1.5,
      "duration_beats": 0.25,
      "velocity": 0.56,
      "role": "bass",
      "is_tied": false
    },
    {
      "midi": 71,
      "name": "B4",
      "start": 120.5515,
      "duration": 0.4478,
      "bar": 34,
      "beat": 2.0,
      "duration_beats": 0.5,
      "velocity": 0.6,
      "role": "melody",
      "is_tied": false
    },
    {
      "midi": 57,
      "name": "A3",
      "start": 120.5515,
      "duration": 0.8955,
      "bar": 34,
      "beat": 2.0,
      "duration_beats": 1.0,
      "velocity": 0.63,
      "role": "chord",
      "is_tied": false
    },
    {
      "midi": 52,
      "name": "E3",
      "start": 120.5515,
      "duration": 0.8955,
      "bar": 34,
      "beat": 2.0,
      "duration_beats": 1.0,
      "velocity": 0.47,
      "role": "chord",
      "is_tied": false
    },
    {
      "midi": 50,
      "name": "D3",
      "start": 120.5515,
      "duration": 0.8955,
      "bar": 34,
      "beat": 2.0,
      "duration_beats": 1.0,
      "velocity": 0.87,
      "role": "chord",
      "is_tied": false
    },
    {
      "midi": 64,
      "name": "E4",
      "start": 120.9992,
      "duration": 0.2239,
      "bar": 34,
      "beat": 2.5,
      "duration_beats": 0.25,
      "velocity": 1.0,
      "role": "melody",
      "is_tied": false
    },
    {
      "midi": 62,
      "name": "D4",
      "start": 120.9992,
      "duration": 0.2239,
      "bar": 34,
      "beat": 2.5,
      "duration_beats": 0.25,
      "velocity": 1.0,
      "role": "chord",
      "is_tied": false
    },
    {
      "midi": 55,
      "name": "G3",
      "start": 120.9992,
      "duration": 0.2239,
      "bar": 34,
      "beat": 2.5,
      "duration_beats": 0.25,
      "velocity": 1.0,
      "role": "chord",
      "is_tied": false
    },
    {
      "midi": 74,
      "name": "D5",
      "start": 121.447,
      "duration": 0.8955,
      "bar": 34,
      "beat": 3.0,
      "duration_beats": 1.0,
      "velocity": 0.66,
      "role": "melody",
      "is_tied": false
    },
    {
      "midi": 57,
      "name": "A3",
      "start": 121.447,
      "duration": 0.8955,
      "bar": 34,
      "beat": 3.0,
      "duration_beats": 1.0,
      "velocity": 0.66,
      "role": "chord",
      "is_tied": false
    },
    {
      "midi": 55,
      "name": "G3",
      "start": 121.447,
      "duration": 0.4478,
      "bar": 34,
      "beat": 3.0,
      "duration_beats": 0.5,
      "velocity": 0.76,
      "role": "chord",
      "is_tied": false
    },
    {
      "midi": 50,
      "name": "D3",
      "start": 121.447,
      "duration": 0.8955,
      "bar": 34,
      "beat": 3.0,
      "duration_beats": 1.0,
      "velocity": 0.63,
      "role": "chord",
      "is_tied": false
    },
    {
      "midi": 52,
      "name": "E3",
      "start": 121.8948,
      "duration": 0.2239,
      "bar": 34,
      "beat": 3.5,
      "duration_beats": 0.25,
      "velocity": 0.39,
      "role": "chord",
      "is_tied": true
    },
    {
      "midi": 78,
      "name": "F#5",
      "start": 122.3425,
      "duration": 0.6716,
      "bar": 34,
      "beat": 4.0,
      "duration_beats": 0.75,
      "velocity": 0.86,
      "role": "melody",
      "is_tied": false
    },
    {
      "midi": 76,
      "name": "E5",
      "start": 122.3425,
      "duration": 0.2239,
      "bar": 34,
      "beat": 4.0,
      "duration_beats": 0.25,
      "velocity": 0.39,
      "role": "melody",
      "is_tied": false
    },
    {
      "midi": 74,
      "name": "D5",
      "start": 122.3425,
      "duration": 0.2239,
      "bar": 34,
      "beat": 4.0,
      "duration_beats": 0.25,
      "velocity": 1.0,
      "role": "melody",
      "is_tied": false
    },
    {
      "midi": 59,
      "name": "B3",
      "start": 122.3425,
      "duration": 0.4478,
      "bar": 34,
      "beat": 4.0,
      "duration_beats": 0.5,
      "velocity": 0.54,
      "role": "chord",
      "is_tied": false
    },
    {
      "midi": 57,
      "name": "A3",
      "start": 122.3425,
      "duration": 0.2239,
      "bar": 34,
      "beat": 4.0,
      "duration_beats": 0.25,
      "velocity": 0.64,
      "role": "chord",
      "is_tied": false
    },
    {
      "midi": 55,
      "name": "G3",
      "start": 122.3425,
      "duration": 0.2239,
      "bar": 34,
      "beat": 4.0,
      "duration_beats": 0.25,
      "velocity": 1.0,
      "role": "chord",
      "is_tied": false
    },
    {
      "midi": 54,
      "name": "F#3",
      "start": 122.3425,
      "duration": 0.2239,
      "bar": 34,
      "beat": 4.0,
      "duration_beats": 0.25,
      "velocity": 0.81,
      "role": "bass",
      "is_tied": false
    },
    {
      "midi": 54,
      "name": "F#3",
      "start": 122.3425,
      "duration": 0.6716,
      "bar": 34,
      "beat": 4.0,
      "duration_beats": 0.75,
      "velocity": 0.71,
      "role": "bass",
      "is_tied": false
    },
    {
      "midi": 52,
      "name": "E3",
      "start": 122.3425,
      "duration": 0.2239,
      "bar": 34,
      "beat": 4.0,
      "duration_beats": 0.25,
      "velocity": 0.4,
      "role": "chord",
      "is_tied": false
    },
    {
      "midi": 50,
      "name": "D3",
      "start": 122.3425,
      "duration": 0.2239,
      "bar": 34,
      "beat": 4.0,
      "duration_beats": 0.25,
      "velocity": 0.62,
      "role": "chord",
      "is_tied": false
    },
    {
      "midi": 50,
      "name": "D3",
      "start": 122.3425,
      "duration": 3.5821,
      "bar": 34,
      "beat": 4.0,
      "duration_beats": 4.0,
      "velocity": 0.91,
      "role": "chord",
      "is_tied": false
    },
    {
      "midi": 83,
      "name": "B5",
      "start": 122.7903,
      "duration": 0.4478,
      "bar": 34,
      "beat": 4.5,
      "duration_beats": 0.5,
      "velocity": 0.66,
      "role": "melody",
      "is_tied": false
    },
    {
      "midi": 69,
      "name": "A4",
      "start": 122.7903,
      "duration": 0.2239,
      "bar": 34,
      "beat": 4.5,
      "duration_beats": 0.25,
      "velocity": 1.0,
      "role": "chord",
      "is_tied": false
    },
    {
      "midi": 59,
      "name": "B3",
      "start": 122.7903,
      "duration": 0.2239,
      "bar": 34,
      "beat": 4.5,
      "duration_beats": 0.25,
      "velocity": 0.71,
      "role": "chord",
      "is_tied": true
    },
    {
      "midi": 52,
      "name": "E3",
      "start": 122.7903,
      "duration": 0.4478,
      "bar": 34,
      "beat": 4.5,
      "duration_beats": 0.5,
      "velocity": 0.59,
      "role": "chord",
      "is_tied": true
    },
    {
      "midi": 74,
      "name": "D5",
      "start": 123.238,
      "duration": 0.4478,
      "bar": 35,
      "beat": 1.0,
      "duration_beats": 0.5,
      "velocity": 1.0,
      "role": "melody",
      "is_tied": false
    },
    {
      "midi": 66,
      "name": "F#4",
      "start": 123.238,
      "duration": 0.2239,
      "bar": 35,
      "beat": 1.0,
      "duration_beats": 0.25,
      "velocity": 1.0,
      "role": "chord",
      "is_tied": false
    },
    {
      "midi": 59,
      "name": "B3",
      "start": 123.238,
      "duration": 0.2239,
      "bar": 35,
      "beat": 1.0,
      "duration_beats": 0.25,
      "velocity": 0.4,
      "role": "chord",
      "is_tied": false
    },
    {
      "midi": 36,
      "name": "C2",
      "start": 123.238,
      "duration": 0.4478,
      "bar": 35,
      "beat": 1.0,
      "duration_beats": 0.5,
      "velocity": 0.65,
      "role": "bass",
      "is_tied": false
    },
    {
      "midi": 74,
      "name": "D5",
      "start": 123.6858,
      "duration": 1.791,
      "bar": 35,
      "beat": 1.5,
      "duration_beats": 2.0,
      "velocity": 0.57,
      "role": "melody",
      "is_tied": false
    },
    {
      "midi": 69,
      "name": "A4",
      "start": 123.6858,
      "duration": 1.3433,
      "bar": 35,
      "beat": 1.5,
      "duration_beats": 1.5,
      "velocity": 0.56,
      "role": "melody",
      "is_tied": false
    },
    {
      "midi": 69,
      "name": "A4",
      "start": 123.6858,
      "duration": 0.8955,
      "bar": 35,
      "beat": 1.5,
      "duration_beats": 1.0,
      "velocity": 0.84,
      "role": "melody",
      "is_tied": false
    },
    {
      "midi": 62,
      "name": "D4",
      "start": 123.6858,
      "duration": 1.791,
      "bar": 35,
      "beat": 1.5,
      "duration_beats": 2.0,
      "velocity": 1.0,
      "role": "chord",
      "is_tied": false
    },
    {
      "midi": 50,
      "name": "D3",
      "start": 123.6858,
      "duration": 1.791,
      "bar": 35,
      "beat": 1.5,
      "duration_beats": 2.0,
      "velocity": 0.87,
      "role": "chord",
      "is_tied": false
    },
    {
      "midi": 43,
      "name": "G2",
      "start": 123.6858,
      "duration": 0.8955,
      "bar": 35,
      "beat": 1.5,
      "duration_beats": 1.0,
      "velocity": 1.0,
      "role": "bass",
      "is_tied": false
    },
    {
      "midi": 42,
      "name": "F#2",
      "start": 123.6858,
      "duration": 0.2239,
      "bar": 35,
      "beat": 1.5,
      "duration_beats": 0.25,
      "velocity": 1.0,
      "role": "bass",
      "is_tied": false
    },
    {
      "midi": 74,
      "name": "D5",
      "start": 124.5813,
      "duration": 0.6716,
      "bar": 35,
      "beat": 2.5,
      "duration_beats": 0.75,
      "velocity": 0.61,
      "role": "melody",
      "is_tied": false
    },
    {
      "midi": 64,
      "name": "E4",
      "start": 124.5813,
      "duration": 0.6716,
      "bar": 35,
      "beat": 2.5,
      "duration_beats": 0.75,
      "velocity": 1.0,
      "role": "melody",
      "is_tied": false
    },
    {
      "midi": 62,
      "name": "D4",
      "start": 124.5813,
      "duration": 0.6716,
      "bar": 35,
      "beat": 2.5,
      "duration_beats": 0.75,
      "velocity": 0.95,
      "role": "chord",
      "is_tied": false
    },
    {
      "midi": 58,
      "name": "A#3",
      "start": 124.5813,
      "duration": 0.6716,
      "bar": 35,
      "beat": 2.5,
      "duration_beats": 0.75,
      "velocity": 0.95,
      "role": "chord",
      "is_tied": false
    },
    {
      "midi": 72,
      "name": "C5",
      "start": 125.4769,
      "duration": 0.2239,
      "bar": 35,
      "beat": 3.5,
      "duration_beats": 0.25,
      "velocity": 0.81,
      "role": "melody",
      "is_tied": false
    },
    {
      "midi": 58,
      "name": "A#3",
      "start": 125.4769,
      "duration": 0.2239,
      "bar": 35,
      "beat": 3.5,
      "duration_beats": 0.25,
      "velocity": 1.0,
      "role": "chord",
      "is_tied": true
    },
    {
      "midi": 58,
      "name": "A#3",
      "start": 125.4769,
      "duration": 0.2239,
      "bar": 35,
      "beat": 3.5,
      "duration_beats": 0.25,
      "velocity": 0.38,
      "role": "chord",
      "is_tied": false
    },
    {
      "midi": 53,
      "name": "F3",
      "start": 125.4769,
      "duration": 0.2239,
      "bar": 35,
      "beat": 3.5,
      "duration_beats": 0.25,
      "velocity": 1.0,
      "role": "bass",
      "is_tied": true
    },
    {
      "midi": 50,
      "name": "D3",
      "start": 125.4769,
      "duration": 0.2239,
      "bar": 35,
      "beat": 3.5,
      "duration_beats": 0.25,
      "velocity": 0.45,
      "role": "chord",
      "is_tied": true
    },
    {
      "midi": 50,
      "name": "D3",
      "start": 125.4769,
      "duration": 0.2239,
      "bar": 35,
      "beat": 3.5,
      "duration_beats": 0.25,
      "velocity": 0.69,
      "role": "chord",
      "is_tied": false
    },
    {
      "midi": 81,
      "name": "A5",
      "start": 125.9246,
      "duration": 0.4478,
      "bar": 35,
      "beat": 4.0,
      "duration_beats": 0.5,
      "velocity": 1.0,
      "role": "melody",
      "is_tied": false
    },
    {
      "midi": 74,
      "name": "D5",
      "start": 125.9246,
      "duration": 0.4478,
      "bar": 35,
      "beat": 4.0,
      "duration_beats": 0.5,
      "velocity": 0.77,
      "role": "melody",
      "is_tied": false
    },
    {
      "midi": 58,
      "name": "A#3",
      "start": 125.9246,
      "duration": 0.2239,
      "bar": 35,
      "beat": 4.0,
      "duration_beats": 0.25,
      "velocity": 0.87,
      "role": "chord",
      "is_tied": false
    },
    {
      "midi": 50,
      "name": "D3",
      "start": 125.9246,
      "duration": 0.6716,
      "bar": 35,
      "beat": 4.0,
      "duration_beats": 0.75,
      "velocity": 0.96,
      "role": "chord",
      "is_tied": false
    },
    {
      "midi": 49,
      "name": "C#3",
      "start": 125.9246,
      "duration": 0.4478,
      "bar": 35,
      "beat": 4.0,
      "duration_beats": 0.5,
      "velocity": 0.71,
      "role": "chord",
      "is_tied": false
    },
    {
      "midi": 41,
      "name": "F2",
      "start": 125.9246,
      "duration": 0.4478,
      "bar": 35,
      "beat": 4.0,
      "duration_beats": 0.5,
      "velocity": 0.66,
      "role": "bass",
      "is_tied": false
    },
    {
      "midi": 82,
      "name": "A#5",
      "start": 126.3724,
      "duration": 0.2239,
      "bar": 35,
      "beat": 4.5,
      "duration_beats": 0.25,
      "velocity": 0.85,
      "role": "melody",
      "is_tied": false
    },
    {
      "midi": 81,
      "name": "A5",
      "start": 126.3724,
      "duration": 0.2239,
      "bar": 35,
      "beat": 4.5,
      "duration_beats": 0.25,
      "velocity": 1.0,
      "role": "melody",
      "is_tied": false
    },
    {
      "midi": 74,
      "name": "D5",
      "start": 126.3724,
      "duration": 0.2239,
      "bar": 35,
      "beat": 4.5,
      "duration_beats": 0.25,
      "velocity": 0.7,
      "role": "melody",
      "is_tied": false
    },
    {
      "midi": 53,
      "name": "F3",
      "start": 126.3724,
      "duration": 0.2239,
      "bar": 35,
      "beat": 4.5,
      "duration_beats": 0.25,
      "velocity": 0.56,
      "role": "chord",
      "is_tied": false
    },
    {
      "midi": 50,
      "name": "D3",
      "start": 126.3724,
      "duration": 0.2239,
      "bar": 35,
      "beat": 4.5,
      "duration_beats": 0.25,
      "velocity": 0.88,
      "role": "chord",
      "is_tied": false
    },
    {
      "midi": 50,
      "name": "D3",
      "start": 126.3724,
      "duration": 0.2239,
      "bar": 35,
      "beat": 4.5,
      "duration_beats": 0.25,
      "velocity": 1.0,
      "role": "chord",
      "is_tied": false
    },
    {
      "midi": 49,
      "name": "C#3",
      "start": 126.3724,
      "duration": 0.2239,
      "bar": 35,
      "beat": 4.5,
      "duration_beats": 0.25,
      "velocity": 0.71,
      "role": "chord",
      "is_tied": false
    },
    {
      "midi": 49,
      "name": "C#3",
      "start": 126.3724,
      "duration": 0.2239,
      "bar": 35,
      "beat": 4.5,
      "duration_beats": 0.25,
      "velocity": 1.0,
      "role": "chord",
      "is_tied": false
    },
    {
      "midi": 41,
      "name": "F2",
      "start": 126.3724,
      "duration": 0.2239,
      "bar": 35,
      "beat": 4.5,
      "duration_beats": 0.25,
      "velocity": 1.0,
      "role": "bass",
      "is_tied": false
    },
    {
      "midi": 77,
      "name": "F5",
      "start": 126.8201,
      "duration": 0.2239,
      "bar": 36,
      "beat": 1.0,
      "duration_beats": 0.25,
      "velocity": 1.0,
      "role": "melody",
      "is_tied": false
    },
    {
      "midi": 72,
      "name": "C5",
      "start": 126.8201,
      "duration": 0.2239,
      "bar": 36,
      "beat": 1.0,
      "duration_beats": 0.25,
      "velocity": 1.0,
      "role": "melody",
      "is_tied": false
    },
    {
      "midi": 72,
      "name": "C5",
      "start": 126.8201,
      "duration": 0.8955,
      "bar": 36,
      "beat": 1.0,
      "duration_beats": 1.0,
      "velocity": 1.0,
      "role": "melody",
      "is_tied": false
    },
    {
      "midi": 70,
      "name": "A#4",
      "start": 126.8201,
      "duration": 0.8955,
      "bar": 36,
      "beat": 1.0,
      "duration_beats": 1.0,
      "velocity": 1.0,
      "role": "melody",
      "is_tied": false
    },
    {
      "midi": 36,
      "name": "C2",
      "start": 126.8201,
      "duration": 0.4478,
      "bar": 36,
      "beat": 1.0,
      "duration_beats": 0.5,
      "velocity": 1.0,
      "role": "bass",
      "is_tied": false
    },
    {
      "midi": 69,
      "name": "A4",
      "start": 127.2679,
      "duration": 0.2239,
      "bar": 36,
      "beat": 1.5,
      "duration_beats": 0.25,
      "velocity": 1.0,
      "role": "chord",
      "is_tied": false
    },
    {
      "midi": 33,
      "name": "A1",
      "start": 127.2679,
      "duration": 0.4478,
      "bar": 36,
      "beat": 1.5,
      "duration_beats": 0.5,
      "velocity": 0.33,
      "role": "bass",
      "is_tied": false
    },
    {
      "midi": 70,
      "name": "A#4",
      "start": 127.7157,
      "duration": 0.4478,
      "bar": 36,
      "beat": 2.0,
      "duration_beats": 0.5,
      "velocity": 0.67,
      "role": "melody",
      "is_tied": false
    },
    {
      "midi": 69,
      "name": "A4",
      "start": 127.7157,
      "duration": 0.6716,
      "bar": 36,
      "beat": 2.0,
      "duration_beats": 0.75,
      "velocity": 0.72,
      "role": "melody",
      "is_tied": false
    },
    {
      "midi": 60,
      "name": "C4",
      "start": 127.7157,
      "duration": 0.6716,
      "bar": 36,
      "beat": 2.0,
      "duration_beats": 0.75,
      "velocity": 0.68,
      "role": "chord",
      "is_tied": false
    },
    {
      "midi": 70,
      "name": "A#4",
      "start": 128.1634,
      "duration": 0.2239,
      "bar": 36,
      "beat": 2.5,
      "duration_beats": 0.25,
      "velocity": 0.7,
      "role": "melody",
      "is_tied": false
    },
    {
      "midi": 65,
      "name": "F4",
      "start": 128.1634,
      "duration": 0.2239,
      "bar": 36,
      "beat": 2.5,
      "duration_beats": 0.25,
      "velocity": 1.0,
      "role": "melody",
      "is_tied": false
    },
    {
      "midi": 60,
      "name": "C4",
      "start": 128.1634,
      "duration": 0.2239,
      "bar": 36,
      "beat": 2.5,
      "duration_beats": 0.25,
      "velocity": 0.64,
      "role": "chord",
      "is_tied": false
    },
    {
      "midi": 57,
      "name": "A3",
      "start": 128.1634,
      "duration": 0.2239,
      "bar": 36,
      "beat": 2.5,
      "duration_beats": 0.25,
      "velocity": 1.0,
      "role": "chord",
      "is_tied": false
    },
    {
      "midi": 54,
      "name": "F#3",
      "start": 128.1634,
      "duration": 0.2239,
      "bar": 36,
      "beat": 2.5,
      "duration_beats": 0.25,
      "velocity": 0.6,
      "role": "chord",
      "is_tied": false
    },
    {
      "midi": 52,
      "name": "E3",
      "start": 128.1634,
      "duration": 0.2239,
      "bar": 36,
      "beat": 2.5,
      "duration_beats": 0.25,
      "velocity": 1.0,
      "role": "chord",
      "is_tied": false
    },
    {
      "midi": 50,
      "name": "D3",
      "start": 128.1634,
      "duration": 0.2239,
      "bar": 36,
      "beat": 2.5,
      "duration_beats": 0.25,
      "velocity": 0.98,
      "role": "chord",
      "is_tied": false
    },
    {
      "midi": 45,
      "name": "A2",
      "start": 128.1634,
      "duration": 0.2239,
      "bar": 36,
      "beat": 2.5,
      "duration_beats": 0.25,
      "velocity": 1.0,
      "role": "bass",
      "is_tied": false
    },
    {
      "midi": 71,
      "name": "B4",
      "start": 129.0589,
      "duration": 0.4478,
      "bar": 36,
      "beat": 3.5,
      "duration_beats": 0.5,
      "velocity": 0.49,
      "role": "melody",
      "is_tied": false
    },
    {
      "midi": 68,
      "name": "G#4",
      "start": 129.0589,
      "duration": 0.2239,
      "bar": 36,
      "beat": 3.5,
      "duration_beats": 0.25,
      "velocity": 0.45,
      "role": "melody",
      "is_tied": false
    },
    {
      "midi": 73,
      "name": "C#5",
      "start": 129.5067,
      "duration": 0.2239,
      "bar": 36,
      "beat": 4.0,
      "duration_beats": 0.25,
      "velocity": 0.31,
      "role": "melody",
      "is_tied": false
    },
    {
      "midi": 57,
      "name": "A3",
      "start": 129.5067,
      "duration": 0.2239,
      "bar": 36,
      "beat": 4.0,
      "duration_beats": 0.25,
      "velocity": 1.0,
      "role": "chord",
      "is_tied": false
    },
    {
      "midi": 54,
      "name": "F#3",
      "start": 129.5067,
      "duration": 0.2239,
      "bar": 36,
      "beat": 4.0,
      "duration_beats": 0.25,
      "velocity": 0.99,
      "role": "bass",
      "is_tied": false
    },
    {
      "midi": 73,
      "name": "C#5",
      "start": 129.9545,
      "duration": 0.6716,
      "bar": 36,
      "beat": 4.5,
      "duration_beats": 0.75,
      "velocity": 0.4,
      "role": "melody",
      "is_tied": false
    },
    {
      "midi": 61,
      "name": "C#4",
      "start": 129.9545,
      "duration": 0.4478,
      "bar": 36,
      "beat": 4.5,
      "duration_beats": 0.5,
      "velocity": 1.0,
      "role": "chord",
      "is_tied": false
    },
    {
      "midi": 59,
      "name": "B3",
      "start": 129.9545,
      "duration": 0.8955,
      "bar": 36,
      "beat": 4.5,
      "duration_beats": 1.0,
      "velocity": 0.53,
      "role": "chord",
      "is_tied": false
    },
    {
      "midi": 57,
      "name": "A3",
      "start": 129.9545,
      "duration": 0.2239,
      "bar": 36,
      "beat": 4.5,
      "duration_beats": 0.25,
      "velocity": 1.0,
      "role": "chord",
      "is_tied": false
    },
    {
      "midi": 54,
      "name": "F#3",
      "start": 129.9545,
      "duration": 0.6716,
      "bar": 36,
      "beat": 4.5,
      "duration_beats": 0.75,
      "velocity": 1.0,
      "role": "bass",
      "is_tied": false
    },
    {
      "midi": 52,
      "name": "E3",
      "start": 129.9545,
      "duration": 0.2239,
      "bar": 36,
      "beat": 4.5,
      "duration_beats": 0.25,
      "velocity": 0.94,
      "role": "chord",
      "is_tied": false
    },
    {
      "midi": 50,
      "name": "D3",
      "start": 129.9545,
      "duration": 0.8955,
      "bar": 36,
      "beat": 4.5,
      "duration_beats": 1.0,
      "velocity": 0.45,
      "role": "chord",
      "is_tied": false
    },
    {
      "midi": 80,
      "name": "G#5",
      "start": 130.4022,
      "duration": 0.4478,
      "bar": 37,
      "beat": 1.0,
      "duration_beats": 0.5,
      "velocity": 0.68,
      "role": "melody",
      "is_tied": false
    },
    {
      "midi": 74,
      "name": "D5",
      "start": 130.4022,
      "duration": 0.4478,
      "bar": 37,
      "beat": 1.0,
      "duration_beats": 0.5,
      "velocity": 0.49,
      "role": "melody",
      "is_tied": false
    },
    {
      "midi": 55,
      "name": "G3",
      "start": 130.4022,
      "duration": 0.4478,
      "bar": 37,
      "beat": 1.0,
      "duration_beats": 0.5,
      "velocity": 0.81,
      "role": "chord",
      "is_tied": false
    },
    {
      "midi": 52,
      "name": "E3",
      "start": 130.4022,
      "duration": 0.4478,
      "bar": 37,
      "beat": 1.0,
      "duration_beats": 0.5,
      "velocity": 0.36,
      "role": "chord",
      "is_tied": false
    },
    {
      "midi": 70,
      "name": "A#4",
      "start": 130.85,
      "duration": 0.4478,
      "bar": 37,
      "beat": 1.5,
      "duration_beats": 0.5,
      "velocity": 0.47,
      "role": "chord",
      "is_tied": false
    },
    {
      "midi": 54,
      "name": "F#3",
      "start": 130.85,
      "duration": 0.4478,
      "bar": 37,
      "beat": 1.5,
      "duration_beats": 0.5,
      "velocity": 0.65,
      "role": "chord",
      "is_tied": false
    },
    {
      "midi": 67,
      "name": "G4",
      "start": 131.2977,
      "duration": 0.2239,
      "bar": 37,
      "beat": 2.0,
      "duration_beats": 0.25,
      "velocity": 1.0,
      "role": "chord",
      "is_tied": false
    },
    {
      "midi": 61,
      "name": "C#4",
      "start": 131.2977,
      "duration": 0.2239,
      "bar": 37,
      "beat": 2.0,
      "duration_beats": 0.25,
      "velocity": 0.54,
      "role": "chord",
      "is_tied": false
    },
    {
      "midi": 60,
      "name": "C4",
      "start": 131.2977,
      "duration": 0.2239,
      "bar": 37,
      "beat": 2.0,
      "duration_beats": 0.25,
      "velocity": 1.0,
      "role": "chord",
      "is_tied": false
    },
    {
      "midi": 57,
      "name": "A3",
      "start": 131.2977,
      "duration": 0.4478,
      "bar": 37,
      "beat": 2.0,
      "duration_beats": 0.5,
      "velocity": 0.61,
      "role": "chord",
      "is_tied": false
    },
    {
      "midi": 54,
      "name": "F#3",
      "start": 131.2977,
      "duration": 0.2239,
      "bar": 37,
      "beat": 2.0,
      "duration_beats": 0.25,
      "velocity": 0.52,
      "role": "chord",
      "is_tied": false
    },
    {
      "midi": 45,
      "name": "A2",
      "start": 131.2977,
      "duration": 0.2239,
      "bar": 37,
      "beat": 2.0,
      "duration_beats": 0.25,
      "velocity": 1.0,
      "role": "bass",
      "is_tied": false
    },
    {
      "midi": 72,
      "name": "C5",
      "start": 131.7455,
      "duration": 0.8955,
      "bar": 37,
      "beat": 2.5,
      "duration_beats": 1.0,
      "velocity": 0.68,
      "role": "melody",
      "is_tied": false
    },
    {
      "midi": 60,
      "name": "C4",
      "start": 131.7455,
      "duration": 0.8955,
      "bar": 37,
      "beat": 2.5,
      "duration_beats": 1.0,
      "velocity": 0.64,
      "role": "chord",
      "is_tied": false
    },
    {
      "midi": 52,
      "name": "E3",
      "start": 131.7455,
      "duration": 1.3433,
      "bar": 37,
      "beat": 2.5,
      "duration_beats": 1.5,
      "velocity": 0.72,
      "role": "chord",
      "is_tied": false
    },
    {
      "midi": 83,
      "name": "B5",
      "start": 132.641,
      "duration": 0.4478,
      "bar": 37,
      "beat": 3.5,
      "duration_beats": 0.5,
      "velocity": 1.0,
      "role": "melody",
      "is_tied": false
    },
    {
      "midi": 70,
      "name": "A#4",
      "start": 132.641,
      "duration": 0.2239,
      "bar": 37,
      "beat": 3.5,
      "duration_beats": 0.25,
      "velocity": 1.0,
      "role": "chord",
      "is_tied": false
    },
    {
      "midi": 51,
      "name": "D#3",
      "start": 132.641,
      "duration": 0.2239,
      "bar": 37,
      "beat": 3.5,
      "duration_beats": 0.25,
      "velocity": 0.39,
      "role": "chord",
      "is_tied": false
    },
    {
      "midi": 48,
      "name": "C3",
      "start": 132.641,
      "duration": 0.2239,
      "bar": 37,
      "beat": 3.5,
      "duration_beats": 0.25,
      "velocity": 0.38,
      "role": "chord",
      "is_tied": false
    },
    {
      "midi": 72,
      "name": "C5",
      "start": 133.0888,
      "duration": 0.6716,
      "bar": 37,
      "beat": 4.0,
      "duration_beats": 0.75,
      "velocity": 1.0,
      "role": "melody",
      "is_tied": false
    },
    {
      "midi": 74,
      "name": "D5",
      "start": 133.5366,
      "duration": 0.8955,
      "bar": 37,
      "beat": 4.5,
      "duration_beats": 1.0,
      "velocity": 0.62,
      "role": "melody",
      "is_tied": false
    },
    {
      "midi": 74,
      "name": "D5",
      "start": 133.5366,
      "duration": 0.6716,
      "bar": 37,
      "beat": 4.5,
      "duration_beats": 0.75,
      "velocity": 0.59,
      "role": "melody",
      "is_tied": false
    },
    {
      "midi": 72,
      "name": "C5",
      "start": 133.5366,
      "duration": 0.4478,
      "bar": 37,
      "beat": 4.5,
      "duration_beats": 0.5,
      "velocity": 0.98,
      "role": "melody",
      "is_tied": false
    },
    {
      "midi": 72,
      "name": "C5",
      "start": 133.5366,
      "duration": 0.2239,
      "bar": 37,
      "beat": 4.5,
      "duration_beats": 0.25,
      "velocity": 0.91,
      "role": "melody",
      "is_tied": false
    },
    {
      "midi": 67,
      "name": "G4",
      "start": 133.5366,
      "duration": 0.2239,
      "bar": 37,
      "beat": 4.5,
      "duration_beats": 0.25,
      "velocity": 0.91,
      "role": "chord",
      "is_tied": false
    },
    {
      "midi": 52,
      "name": "E3",
      "start": 133.5366,
      "duration": 0.2239,
      "bar": 37,
      "beat": 4.5,
      "duration_beats": 0.25,
      "velocity": 0.34,
      "role": "chord",
      "is_tied": false
    },
    {
      "midi": 50,
      "name": "D3",
      "start": 133.5366,
      "duration": 3.5821,
      "bar": 37,
      "beat": 4.5,
      "duration_beats": 4.0,
      "velocity": 1.0,
      "role": "chord",
      "is_tied": false
    },
    {
      "midi": 45,
      "name": "A2",
      "start": 133.5366,
      "duration": 0.2239,
      "bar": 37,
      "beat": 4.5,
      "duration_beats": 0.25,
      "velocity": 1.0,
      "role": "bass",
      "is_tied": false
    },
    {
      "midi": 40,
      "name": "E2",
      "start": 133.5366,
      "duration": 0.2239,
      "bar": 37,
      "beat": 4.5,
      "duration_beats": 0.25,
      "velocity": 1.0,
      "role": "bass",
      "is_tied": false
    },
    {
      "midi": 71,
      "name": "B4",
      "start": 133.9843,
      "duration": 0.4478,
      "bar": 38,
      "beat": 1.0,
      "duration_beats": 0.5,
      "velocity": 1.0,
      "role": "melody",
      "is_tied": false
    },
    {
      "midi": 70,
      "name": "A#4",
      "start": 133.9843,
      "duration": 0.4478,
      "bar": 38,
      "beat": 1.0,
      "duration_beats": 0.5,
      "velocity": 1.0,
      "role": "chord",
      "is_tied": false
    },
    {
      "midi": 69,
      "name": "A4",
      "start": 133.9843,
      "duration": 0.4478,
      "bar": 38,
      "beat": 1.0,
      "duration_beats": 0.5,
      "velocity": 0.87,
      "role": "chord",
      "is_tied": false
    },
    {
      "midi": 72,
      "name": "C5",
      "start": 134.4321,
      "duration": 0.2239,
      "bar": 38,
      "beat": 1.5,
      "duration_beats": 0.25,
      "velocity": 0.3,
      "role": "melody",
      "is_tied": false
    },
    {
      "midi": 69,
      "name": "A4",
      "start": 134.4321,
      "duration": 0.8955,
      "bar": 38,
      "beat": 1.5,
      "duration_beats": 1.0,
      "velocity": 1.0,
      "role": "melody",
      "is_tied": false
    },
    {
      "midi": 62,
      "name": "D4",
      "start": 134.4321,
      "duration": 0.2239,
      "bar": 38,
      "beat": 1.5,
      "duration_beats": 0.25,
      "velocity": 0.33,
      "role": "melody",
      "is_tied": false
    },
    {
      "midi": 54,
      "name": "F#3",
      "start": 134.4321,
      "duration": 0.8955,
      "bar": 38,
      "beat": 1.5,
      "duration_beats": 1.0,
      "velocity": 0.98,
      "role": "bass",
      "is_tied": false
    },
    {
      "midi": 67,
      "name": "G4",
      "start": 134.8798,
      "duration": 0.6716,
      "bar": 38,
      "beat": 2.0,
      "duration_beats": 0.75,
      "velocity": 0.3,
      "role": "melody",
      "is_tied": false
    },
    {
      "midi": 81,
      "name": "A5",
      "start": 135.3276,
      "duration": 0.2239,
      "bar": 38,
      "beat": 2.5,
      "duration_beats": 0.25,
      "velocity": 0.87,
      "role": "melody",
      "is_tied": false
    },
    {
      "midi": 78,
      "name": "F#5",
      "start": 135.7754,
      "duration": 0.6716,
      "bar": 38,
      "beat": 3.0,
      "duration_beats": 0.75,
      "velocity": 1.0,
      "role": "melody",
      "is_tied": false
    },
    {
      "midi": 58,
      "name": "A#3",
      "start": 135.7754,
      "duration": 0.4478,
      "bar": 38,
      "beat": 3.0,
      "duration_beats": 0.5,
      "velocity": 0.32,
      "role": "chord",
      "is_tied": false
    },
    {
      "midi": 55,
      "name": "G3",
      "start": 135.7754,
      "duration": 0.4478,
      "bar": 38,
      "beat": 3.0,
      "duration_beats": 0.5,
      "velocity": 1.0,
      "role": "chord",
      "is_tied": false
    },
    {
      "midi": 50,
      "name": "D3",
      "start": 135.7754,
      "duration": 2.6866,
      "bar": 38,
      "beat": 3.0,
      "duration_beats": 3.0,
      "velocity": 0.84,
      "role": "chord",
      "is_tied": false
    },
    {
      "midi": 74,
      "name": "D5",
      "start": 136.2231,
      "duration": 1.791,
      "bar": 38,
      "beat": 3.5,
      "duration_beats": 2.0,
      "velocity": 1.0,
      "role": "melody",
      "is_tied": false
    },
    {
      "midi": 59,
      "name": "B3",
      "start": 136.2231,
      "duration": 0.6716,
      "bar": 38,
      "beat": 3.5,
      "duration_beats": 0.75,
      "velocity": 0.92,
      "role": "chord",
      "is_tied": false
    },
    {
      "midi": 52,
      "name": "E3",
      "start": 136.2231,
      "duration": 0.4478,
      "bar": 38,
      "beat": 3.5,
      "duration_beats": 0.5,
      "velocity": 0.47,
      "role": "chord",
      "is_tied": false
    },
    {
      "midi": 51,
      "name": "D#3",
      "start": 136.2231,
      "duration": 0.4478,
      "bar": 38,
      "beat": 3.5,
      "duration_beats": 0.5,
      "velocity": 0.32,
      "role": "chord",
      "is_tied": false
    },
    {
      "midi": 69,
      "name": "A4",
      "start": 136.6709,
      "duration": 0.8955,
      "bar": 38,
      "beat": 4.0,
      "duration_beats": 1.0,
      "velocity": 0.84,
      "role": "melody",
      "is_tied": false
    },
    {
      "midi": 40,
      "name": "E2",
      "start": 136.6709,
      "duration": 1.3433,
      "bar": 38,
      "beat": 4.0,
      "duration_beats": 1.5,
      "velocity": 1.0,
      "role": "bass",
      "is_tied": false
    },
    {
      "midi": 74,
      "name": "D5",
      "start": 137.1186,
      "duration": 1.3433,
      "bar": 38,
      "beat": 4.5,
      "duration_beats": 1.5,
      "velocity": 0.36,
      "role": "melody",
      "is_tied": false
    },
    {
      "midi": 50,
      "name": "D3",
      "start": 137.1186,
      "duration": 1.3433,
      "bar": 38,
      "beat": 4.5,
      "duration_beats": 1.5,
      "velocity": 0.56,
      "role": "chord",
      "is_tied": false
    },
    {
      "midi": 40,
      "name": "E2",
      "start": 137.1186,
      "duration": 0.8955,
      "bar": 38,
      "beat": 4.5,
      "duration_beats": 1.0,
      "velocity": 1.0,
      "role": "bass",
      "is_tied": false
    },
    {
      "midi": 74,
      "name": "D5",
      "start": 137.5664,
      "duration": 0.8955,
      "bar": 39,
      "beat": 1.0,
      "duration_beats": 1.0,
      "velocity": 1.0,
      "role": "melody",
      "is_tied": false
    },
    {
      "midi": 59,
      "name": "B3",
      "start": 137.5664,
      "duration": 0.4478,
      "bar": 39,
      "beat": 1.0,
      "duration_beats": 0.5,
      "velocity": 0.6,
      "role": "chord",
      "is_tied": false
    },
    {
      "midi": 57,
      "name": "A3",
      "start": 137.5664,
      "duration": 0.4478,
      "bar": 39,
      "beat": 1.0,
      "duration_beats": 0.5,
      "velocity": 0.84,
      "role": "chord",
      "is_tied": false
    },
    {
      "midi": 50,
      "name": "D3",
      "start": 137.5664,
      "duration": 0.8955,
      "bar": 39,
      "beat": 1.0,
      "duration_beats": 1.0,
      "velocity": 0.74,
      "role": "chord",
      "is_tied": false
    },
    {
      "midi": 57,
      "name": "A3",
      "start": 138.0142,
      "duration": 0.2239,
      "bar": 39,
      "beat": 1.5,
      "duration_beats": 0.25,
      "velocity": 0.58,
      "role": "chord",
      "is_tied": false
    },
    {
      "midi": 54,
      "name": "F#3",
      "start": 138.0142,
      "duration": 1.791,
      "bar": 39,
      "beat": 1.5,
      "duration_beats": 2.0,
      "velocity": 1.0,
      "role": "bass",
      "is_tied": false
    },
    {
      "midi": 52,
      "name": "E3",
      "start": 138.0142,
      "duration": 0.4478,
      "bar": 39,
      "beat": 1.5,
      "duration_beats": 0.5,
      "velocity": 0.47,
      "role": "chord",
      "is_tied": false
    },
    {
      "midi": 69,
      "name": "A4",
      "start": 138.4619,
      "duration": 1.791,
      "bar": 39,
      "beat": 2.0,
      "duration_beats": 2.0,
      "velocity": 1.0,
      "role": "melody",
      "is_tied": false
    },
    {
      "midi": 66,
      "name": "F#4",
      "start": 138.4619,
      "duration": 0.2239,
      "bar": 39,
      "beat": 2.0,
      "duration_beats": 0.25,
      "velocity": 0.54,
      "role": "melody",
      "is_tied": true
    },
    {
      "midi": 62,
      "name": "D4",
      "start": 138.4619,
      "duration": 0.4478,
      "bar": 39,
      "beat": 2.0,
      "duration_beats": 0.5,
      "velocity": 0.75,
      "role": "chord",
      "is_tied": false
    },
    {
      "midi": 57,
      "name": "A3",
      "start": 138.4619,
      "duration": 0.4478,
      "bar": 39,
      "beat": 2.0,
      "duration_beats": 0.5,
      "velocity": 0.44,
      "role": "chord",
      "is_tied": false
    },
    {
      "midi": 50,
      "name": "D3",
      "start": 138.4619,
      "duration": 1.3433,
      "bar": 39,
      "beat": 2.0,
      "duration_beats": 1.5,
      "velocity": 0.99,
      "role": "chord",
      "is_tied": false
    },
    {
      "midi": 42,
      "name": "F#2",
      "start": 138.4619,
      "duration": 0.4478,
      "bar": 39,
      "beat": 2.0,
      "duration_beats": 0.5,
      "velocity": 0.73,
      "role": "bass",
      "is_tied": false
    },
    {
      "midi": 40,
      "name": "E2",
      "start": 139.3574,
      "duration": 0.8955,
      "bar": 39,
      "beat": 3.0,
      "duration_beats": 1.0,
      "velocity": 1.0,
      "role": "bass",
      "is_tied": false
    },
    {
      "midi": 74,
      "name": "D5",
      "start": 139.8052,
      "duration": 0.4478,
      "bar": 39,
      "beat": 3.5,
      "duration_beats": 0.5,
      "velocity": 0.41,
      "role": "melody",
      "is_tied": false
    },
    {
      "midi": 66,
      "name": "F#4",
      "start": 139.8052,
      "duration": 0.2239,
      "bar": 39,
      "beat": 3.5,
      "duration_beats": 0.25,
      "velocity": 1.0,
      "role": "chord",
      "is_tied": false
    },
    {
      "midi": 60,
      "name": "C4",
      "start": 139.8052,
      "duration": 0.8955,
      "bar": 39,
      "beat": 3.5,
      "duration_beats": 1.0,
      "velocity": 0.56,
      "role": "chord",
      "is_tied": false
    },
    {
      "midi": 58,
      "name": "A#3",
      "start": 139.8052,
      "duration": 1.3433,
      "bar": 39,
      "beat": 3.5,
      "duration_beats": 1.5,
      "velocity": 0.63,
      "role": "chord",
      "is_tied": false
    },
    {
      "midi": 55,
      "name": "G3",
      "start": 139.8052,
      "duration": 0.4478,
      "bar": 39,
      "beat": 3.5,
      "duration_beats": 0.5,
      "velocity": 0.57,
      "role": "chord",
      "is_tied": false
    },
    {
      "midi": 50,
      "name": "D3",
      "start": 139.8052,
      "duration": 0.4478,
      "bar": 39,
      "beat": 3.5,
      "duration_beats": 0.5,
      "velocity": 0.58,
      "role": "chord",
      "is_tied": false
    },
    {
      "midi": 41,
      "name": "F2",
      "start": 139.8052,
      "duration": 0.4478,
      "bar": 39,
      "beat": 3.5,
      "duration_beats": 0.5,
      "velocity": 1.0,
      "role": "bass",
      "is_tied": false
    },
    {
      "midi": 66,
      "name": "F#4",
      "start": 140.253,
      "duration": 0.2239,
      "bar": 39,
      "beat": 4.0,
      "duration_beats": 0.25,
      "velocity": 0.58,
      "role": "melody",
      "is_tied": false
    },
    {
      "midi": 60,
      "name": "C4",
      "start": 140.253,
      "duration": 0.4478,
      "bar": 39,
      "beat": 4.0,
      "duration_beats": 0.5,
      "velocity": 0.38,
      "role": "chord",
      "is_tied": false
    },
    {
      "midi": 58,
      "name": "A#3",
      "start": 140.253,
      "duration": 0.6716,
      "bar": 39,
      "beat": 4.0,
      "duration_beats": 0.75,
      "velocity": 0.81,
      "role": "chord",
      "is_tied": false
    },
    {
      "midi": 52,
      "name": "E3",
      "start": 140.253,
      "duration": 0.2239,
      "bar": 39,
      "beat": 4.0,
      "duration_beats": 0.25,
      "velocity": 0.33,
      "role": "chord",
      "is_tied": false
    },
    {
      "midi": 41,
      "name": "F2",
      "start": 140.7007,
      "duration": 0.4478,
      "bar": 39,
      "beat": 4.5,
      "duration_beats": 0.5,
      "velocity": 1.0,
      "role": "bass",
      "is_tied": false
    },
    {
      "midi": 33,
      "name": "A1",
      "start": 141.1485,
      "duration": 0.4478,
      "bar": 40,
      "beat": 1.0,
      "duration_beats": 0.5,
      "velocity": 0.55,
      "role": "bass",
      "is_tied": false
    },
    {
      "midi": 55,
      "name": "G3",
      "start": 141.5963,
      "duration": 0.2239,
      "bar": 40,
      "beat": 1.5,
      "duration_beats": 0.25,
      "velocity": 1.0,
      "role": "bass",
      "is_tied": false
    },
    {
      "midi": 57,
      "name": "A3",
      "start": 142.044,
      "duration": 3.5821,
      "bar": 40,
      "beat": 2.0,
      "duration_beats": 4.0,
      "velocity": 0.93,
      "role": "chord",
      "is_tied": false
    },
    {
      "midi": 50,
      "name": "D3",
      "start": 142.044,
      "duration": 3.5821,
      "bar": 40,
      "beat": 2.0,
      "duration_beats": 4.0,
      "velocity": 0.66,
      "role": "chord",
      "is_tied": false
    },
    {
      "midi": 57,
      "name": "A3",
      "start": 142.4918,
      "duration": 3.5821,
      "bar": 40,
      "beat": 2.5,
      "duration_beats": 4.0,
      "velocity": 0.62,
      "role": "chord",
      "is_tied": false
    },
    {
      "midi": 54,
      "name": "F#3",
      "start": 142.4918,
      "duration": 1.791,
      "bar": 40,
      "beat": 2.5,
      "duration_beats": 2.0,
      "velocity": 0.8,
      "role": "bass",
      "is_tied": false
    },
    {
      "midi": 50,
      "name": "D3",
      "start": 142.4918,
      "duration": 3.5821,
      "bar": 40,
      "beat": 2.5,
      "duration_beats": 4.0,
      "velocity": 0.94,
      "role": "chord",
      "is_tied": false
    },
    {
      "midi": 74,
      "name": "D5",
      "start": 144.2828,
      "duration": 1.791,
      "bar": 40,
      "beat": 4.5,
      "duration_beats": 2.0,
      "velocity": 1.0,
      "role": "melody",
      "is_tied": false
    },
    {
      "midi": 58,
      "name": "A#3",
      "start": 144.2828,
      "duration": 0.6716,
      "bar": 40,
      "beat": 4.5,
      "duration_beats": 0.75,
      "velocity": 0.57,
      "role": "chord",
      "is_tied": false
    },
    {
      "midi": 50,
      "name": "D3",
      "start": 144.2828,
      "duration": 1.791,
      "bar": 40,
      "beat": 4.5,
      "duration_beats": 2.0,
      "velocity": 0.33,
      "role": "chord",
      "is_tied": false
    },
    {
      "midi": 78,
      "name": "F#5",
      "start": 144.7306,
      "duration": 0.4478,
      "bar": 41,
      "beat": 1.0,
      "duration_beats": 0.5,
      "velocity": 0.4,
      "role": "melody",
      "is_tied": false
    },
    {
      "midi": 49,
      "name": "C#3",
      "start": 144.7306,
      "duration": 1.791,
      "bar": 41,
      "beat": 1.0,
      "duration_beats": 2.0,
      "velocity": 0.37,
      "role": "chord",
      "is_tied": false
    },
    {
      "midi": 74,
      "name": "D5",
      "start": 145.1783,
      "duration": 0.8955,
      "bar": 41,
      "beat": 1.5,
      "duration_beats": 1.0,
      "velocity": 1.0,
      "role": "melody",
      "is_tied": false
    },
    {
      "midi": 69,
      "name": "A4",
      "start": 145.1783,
      "duration": 0.6716,
      "bar": 41,
      "beat": 1.5,
      "duration_beats": 0.75,
      "velocity": 1.0,
      "role": "chord",
      "is_tied": false
    },
    {
      "midi": 50,
      "name": "D3",
      "start": 145.1783,
      "duration": 0.8955,
      "bar": 41,
      "beat": 1.5,
      "duration_beats": 1.0,
      "velocity": 0.6,
      "role": "chord",
      "is_tied": false
    },
    {
      "midi": 66,
      "name": "F#4",
      "start": 145.6261,
      "duration": 0.4478,
      "bar": 41,
      "beat": 2.0,
      "duration_beats": 0.5,
      "velocity": 1.0,
      "role": "melody",
      "is_tied": false
    },
    {
      "midi": 62,
      "name": "D4",
      "start": 145.6261,
      "duration": 0.4478,
      "bar": 41,
      "beat": 2.0,
      "duration_beats": 0.5,
      "velocity": 1.0,
      "role": "chord",
      "is_tied": false
    },
    {
      "midi": 59,
      "name": "B3",
      "start": 145.6261,
      "duration": 0.4478,
      "bar": 41,
      "beat": 2.0,
      "duration_beats": 0.5,
      "velocity": 0.43,
      "role": "chord",
      "is_tied": false
    },
    {
      "midi": 58,
      "name": "A#3",
      "start": 145.6261,
      "duration": 0.6716,
      "bar": 41,
      "beat": 2.0,
      "duration_beats": 0.75,
      "velocity": 0.31,
      "role": "chord",
      "is_tied": false
    },
    {
      "midi": 70,
      "name": "A#4",
      "start": 146.0739,
      "duration": 0.2239,
      "bar": 41,
      "beat": 2.5,
      "duration_beats": 0.25,
      "velocity": 0.37,
      "role": "chord",
      "is_tied": false
    },
    {
      "midi": 68,
      "name": "G#4",
      "start": 146.0739,
      "duration": 0.8955,
      "bar": 41,
      "beat": 2.5,
      "duration_beats": 1.0,
      "velocity": 0.92,
      "role": "melody",
      "is_tied": false
    },
    {
      "midi": 67,
      "name": "G4",
      "start": 146.0739,
      "duration": 0.2239,
      "bar": 41,
      "beat": 2.5,
      "duration_beats": 0.25,
      "velocity": 0.93,
      "role": "melody",
      "is_tied": false
    },
    {
      "midi": 49,
      "name": "C#3",
      "start": 146.0739,
      "duration": 0.2239,
      "bar": 41,
      "beat": 2.5,
      "duration_beats": 0.25,
      "velocity": 0.6,
      "role": "chord",
      "is_tied": false
    },
    {
      "midi": 41,
      "name": "F2",
      "start": 146.0739,
      "duration": 0.2239,
      "bar": 41,
      "beat": 2.5,
      "duration_beats": 0.25,
      "velocity": 0.72,
      "role": "bass",
      "is_tied": false
    },
    {
      "midi": 72,
      "name": "C5",
      "start": 146.5216,
      "duration": 0.6716,
      "bar": 41,
      "beat": 3.0,
      "duration_beats": 0.75,
      "velocity": 0.47,
      "role": "melody",
      "is_tied": false
    },
    {
      "midi": 52,
      "name": "E3",
      "start": 146.5216,
      "duration": 1.791,
      "bar": 41,
      "beat": 3.0,
      "duration_beats": 2.0,
      "velocity": 0.56,
      "role": "chord",
      "is_tied": false
    },
    {
      "midi": 45,
      "name": "A2",
      "start": 146.5216,
      "duration": 0.8955,
      "bar": 41,
      "beat": 3.0,
      "duration_beats": 1.0,
      "velocity": 1.0,
      "role": "bass",
      "is_tied": false
    },
    {
      "midi": 57,
      "name": "A3",
      "start": 146.9694,
      "duration": 0.2239,
      "bar": 41,
      "beat": 3.5,
      "duration_beats": 0.25,
      "velocity": 0.62,
      "role": "chord",
      "is_tied": false
    },
    {
      "midi": 52,
      "name": "E3",
      "start": 146.9694,
      "duration": 0.8955,
      "bar": 41,
      "beat": 3.5,
      "duration_beats": 1.0,
      "velocity": 0.74,
      "role": "chord",
      "is_tied": false
    },
    {
      "midi": 50,
      "name": "D3",
      "start": 146.9694,
      "duration": 0.2239,
      "bar": 41,
      "beat": 3.5,
      "duration_beats": 0.25,
      "velocity": 0.45,
      "role": "chord",
      "is_tied": false
    },
    {
      "midi": 49,
      "name": "C#3",
      "start": 146.9694,
      "duration": 0.6716,
      "bar": 41,
      "beat": 3.5,
      "duration_beats": 0.75,
      "velocity": 0.62,
      "role": "chord",
      "is_tied": false
    },
    {
      "midi": 83,
      "name": "B5",
      "start": 147.4171,
      "duration": 0.2239,
      "bar": 41,
      "beat": 4.0,
      "duration_beats": 0.25,
      "velocity": 1.0,
      "role": "melody",
      "is_tied": false
    },
    {
      "midi": 74,
      "name": "D5",
      "start": 147.4171,
      "duration": 0.6716,
      "bar": 41,
      "beat": 4.0,
      "duration_beats": 0.75,
      "velocity": 1.0,
      "role": "melody",
      "is_tied": false
    },
    {
      "midi": 60,
      "name": "C4",
      "start": 147.4171,
      "duration": 0.6716,
      "bar": 41,
      "beat": 4.0,
      "duration_beats": 0.75,
      "velocity": 1.0,
      "role": "chord",
      "is_tied": false
    },
    {
      "midi": 59,
      "name": "B3",
      "start": 147.4171,
      "duration": 0.8955,
      "bar": 41,
      "beat": 4.0,
      "duration_beats": 1.0,
      "velocity": 0.74,
      "role": "chord",
      "is_tied": false
    },
    {
      "midi": 55,
      "name": "G3",
      "start": 147.4171,
      "duration": 1.791,
      "bar": 41,
      "beat": 4.0,
      "duration_beats": 2.0,
      "velocity": 0.7,
      "role": "chord",
      "is_tied": false
    },
    {
      "midi": 76,
      "name": "E5",
      "start": 147.8649,
      "duration": 1.791,
      "bar": 41,
      "beat": 4.5,
      "duration_beats": 2.0,
      "velocity": 0.59,
      "role": "melody",
      "is_tied": false
    },
    {
      "midi": 60,
      "name": "C4",
      "start": 147.8649,
      "duration": 1.3433,
      "bar": 41,
      "beat": 4.5,
      "duration_beats": 1.5,
      "velocity": 0.57,
      "role": "chord",
      "is_tied": false
    },
    {
      "midi": 53,
      "name": "F3",
      "start": 147.8649,
      "duration": 0.2239,
      "bar": 41,
      "beat": 4.5,
      "duration_beats": 0.25,
      "velocity": 0.34,
      "role": "chord",
      "is_tied": false
    },
    {
      "midi": 52,
      "name": "E3",
      "start": 147.8649,
      "duration": 0.2239,
      "bar": 41,
      "beat": 4.5,
      "duration_beats": 0.25,
      "velocity": 0.48,
      "role": "chord",
      "is_tied": true
    },
    {
      "midi": 36,
      "name": "C2",
      "start": 147.8649,
      "duration": 0.2239,
      "bar": 41,
      "beat": 4.5,
      "duration_beats": 0.25,
      "velocity": 1.0,
      "role": "bass",
      "is_tied": false
    },
    {
      "midi": 76,
      "name": "E5",
      "start": 148.3127,
      "duration": 0.8955,
      "bar": 42,
      "beat": 1.0,
      "duration_beats": 1.0,
      "velocity": 0.84,
      "role": "melody",
      "is_tied": false
    },
    {
      "midi": 74,
      "name": "D5",
      "start": 148.3127,
      "duration": 1.791,
      "bar": 42,
      "beat": 1.0,
      "duration_beats": 2.0,
      "velocity": 0.39,
      "role": "melody",
      "is_tied": false
    },
    {
      "midi": 64,
      "name": "E4",
      "start": 148.3127,
      "duration": 0.2239,
      "bar": 42,
      "beat": 1.0,
      "duration_beats": 0.25,
      "velocity": 1.0,
      "role": "chord",
      "is_tied": false
    },
    {
      "midi": 60,
      "name": "C4",
      "start": 148.3127,
      "duration": 0.8955,
      "bar": 42,
      "beat": 1.0,
      "duration_beats": 1.0,
      "velocity": 0.86,
      "role": "chord",
      "is_tied": false
    },
    {
      "midi": 55,
      "name": "G3",
      "start": 148.3127,
      "duration": 0.8955,
      "bar": 42,
      "beat": 1.0,
      "duration_beats": 1.0,
      "velocity": 0.8,
      "role": "chord",
      "is_tied": false
    },
    {
      "midi": 78,
      "name": "F#5",
      "start": 148.7604,
      "duration": 0.6716,
      "bar": 42,
      "beat": 1.5,
      "duration_beats": 0.75,
      "velocity": 0.45,
      "role": "melody",
      "is_tied": false
    },
    {
      "midi": 57,
      "name": "A3",
      "start": 148.7604,
      "duration": 0.6716,
      "bar": 42,
      "beat": 1.5,
      "duration_beats": 0.75,
      "velocity": 0.51,
      "role": "chord",
      "is_tied": true
    },
    {
      "midi": 54,
      "name": "F#3",
      "start": 149.2082,
      "duration": 0.8955,
      "bar": 42,
      "beat": 2.0,
      "duration_beats": 1.0,
      "velocity": 0.91,
      "role": "bass",
      "is_tied": false
    },
    {
      "midi": 83,
      "name": "B5",
      "start": 150.1037,
      "duration": 0.2239,
      "bar": 42,
      "beat": 3.0,
      "duration_beats": 0.25,
      "velocity": 1.0,
      "role": "melody",
      "is_tied": false
    },
    {
      "midi": 76,
      "name": "E5",
      "start": 150.1037,
      "duration": 0.6716,
      "bar": 42,
      "beat": 3.0,
      "duration_beats": 0.75,
      "velocity": 0.35,
      "role": "melody",
      "is_tied": false
    },
    {
      "midi": 74,
      "name": "D5",
      "start": 150.1037,
      "duration": 0.2239,
      "bar": 42,
      "beat": 3.0,
      "duration_beats": 0.25,
      "velocity": 0.31,
      "role": "melody",
      "is_tied": true
    },
    {
      "midi": 59,
      "name": "B3",
      "start": 150.1037,
      "duration": 0.6716,
      "bar": 42,
      "beat": 3.0,
      "duration_beats": 0.75,
      "velocity": 0.53,
      "role": "chord",
      "is_tied": false
    },
    {
      "midi": 55,
      "name": "G3",
      "start": 150.1037,
      "duration": 0.4478,
      "bar": 42,
      "beat": 3.0,
      "duration_beats": 0.5,
      "velocity": 1.0,
      "role": "chord",
      "is_tied": false
    },
    {
      "midi": 50,
      "name": "D3",
      "start": 150.1037,
      "duration": 1.3433,
      "bar": 42,
      "beat": 3.0,
      "duration_beats": 1.5,
      "velocity": 0.32,
      "role": "chord",
      "is_tied": false
    },
    {
      "midi": 71,
      "name": "B4",
      "start": 150.5515,
      "duration": 0.2239,
      "bar": 42,
      "beat": 3.5,
      "duration_beats": 0.25,
      "velocity": 0.73,
      "role": "chord",
      "is_tied": false
    },
    {
      "midi": 67,
      "name": "G4",
      "start": 150.5515,
      "duration": 0.4478,
      "bar": 42,
      "beat": 3.5,
      "duration_beats": 0.5,
      "velocity": 0.55,
      "role": "chord",
      "is_tied": false
    },
    {
      "midi": 54,
      "name": "F#3",
      "start": 150.5515,
      "duration": 0.4478,
      "bar": 42,
      "beat": 3.5,
      "duration_beats": 0.5,
      "velocity": 1.0,
      "role": "chord",
      "is_tied": false
    },
    {
      "midi": 76,
      "name": "E5",
      "start": 150.9992,
      "duration": 0.2239,
      "bar": 42,
      "beat": 4.0,
      "duration_beats": 0.25,
      "velocity": 0.8,
      "role": "melody",
      "is_tied": false
    },
    {
      "midi": 74,
      "name": "D5",
      "start": 150.9992,
      "duration": 0.8955,
      "bar": 42,
      "beat": 4.0,
      "duration_beats": 1.0,
      "velocity": 1.0,
      "role": "melody",
      "is_tied": false
    },
    {
      "midi": 74,
      "name": "D5",
      "start": 150.9992,
      "duration": 0.6716,
      "bar": 42,
      "beat": 4.0,
      "duration_beats": 0.75,
      "velocity": 0.87,
      "role": "melody",
      "is_tied": false
    },
    {
      "midi": 71,
      "name": "B4",
      "start": 150.9992,
      "duration": 0.8955,
      "bar": 42,
      "beat": 4.0,
      "duration_beats": 1.0,
      "velocity": 0.82,
      "role": "melody",
      "is_tied": false
    },
    {
      "midi": 69,
      "name": "A4",
      "start": 150.9992,
      "duration": 0.8955,
      "bar": 42,
      "beat": 4.0,
      "duration_beats": 1.0,
      "velocity": 1.0,
      "role": "chord",
      "is_tied": false
    },
    {
      "midi": 59,
      "name": "B3",
      "start": 150.9992,
      "duration": 0.2239,
      "bar": 42,
      "beat": 4.0,
      "duration_beats": 0.25,
      "velocity": 0.65,
      "role": "chord",
      "is_tied": false
    },
    {
      "midi": 54,
      "name": "F#3",
      "start": 150.9992,
      "duration": 0.2239,
      "bar": 42,
      "beat": 4.0,
      "duration_beats": 0.25,
      "velocity": 0.59,
      "role": "chord",
      "is_tied": false
    },
    {
      "midi": 50,
      "name": "D3",
      "start": 150.9992,
      "duration": 0.8955,
      "bar": 42,
      "beat": 4.0,
      "duration_beats": 1.0,
      "velocity": 0.69,
      "role": "chord",
      "is_tied": false
    },
    {
      "midi": 50,
      "name": "D3",
      "start": 150.9992,
      "duration": 0.6716,
      "bar": 42,
      "beat": 4.0,
      "duration_beats": 0.75,
      "velocity": 0.58,
      "role": "chord",
      "is_tied": false
    },
    {
      "midi": 43,
      "name": "G2",
      "start": 150.9992,
      "duration": 0.8955,
      "bar": 42,
      "beat": 4.0,
      "duration_beats": 1.0,
      "velocity": 1.0,
      "role": "bass",
      "is_tied": false
    },
    {
      "midi": 69,
      "name": "A4",
      "start": 151.8948,
      "duration": 0.2239,
      "bar": 43,
      "beat": 1.0,
      "duration_beats": 0.25,
      "velocity": 0.59,
      "role": "melody",
      "is_tied": false
    },
    {
      "midi": 66,
      "name": "F#4",
      "start": 151.8948,
      "duration": 0.8955,
      "bar": 43,
      "beat": 1.0,
      "duration_beats": 1.0,
      "velocity": 1.0,
      "role": "melody",
      "is_tied": false
    },
    {
      "midi": 65,
      "name": "F4",
      "start": 151.8948,
      "duration": 0.2239,
      "bar": 43,
      "beat": 1.0,
      "duration_beats": 0.25,
      "velocity": 0.32,
      "role": "chord",
      "is_tied": false
    },
    {
      "midi": 50,
      "name": "D3",
      "start": 151.8948,
      "duration": 2.6866,
      "bar": 43,
      "beat": 1.0,
      "duration_beats": 3.0,
      "velocity": 0.33,
      "role": "chord",
      "is_tied": false
    },
    {
      "midi": 45,
      "name": "A2",
      "start": 151.8948,
      "duration": 0.2239,
      "bar": 43,
      "beat": 1.0,
      "duration_beats": 0.25,
      "velocity": 0.63,
      "role": "bass",
      "is_tied": false
    },
    {
      "midi": 43,
      "name": "G2",
      "start": 151.8948,
      "duration": 2.6866,
      "bar": 43,
      "beat": 1.0,
      "duration_beats": 3.0,
      "velocity": 1.0,
      "role": "bass",
      "is_tied": false
    },
    {
      "midi": 66,
      "name": "F#4",
      "start": 152.3425,
      "duration": 0.4478,
      "bar": 43,
      "beat": 1.5,
      "duration_beats": 0.5,
      "velocity": 0.92,
      "role": "melody",
      "is_tied": false
    },
    {
      "midi": 64,
      "name": "E4",
      "start": 152.3425,
      "duration": 0.8955,
      "bar": 43,
      "beat": 1.5,
      "duration_beats": 1.0,
      "velocity": 1.0,
      "role": "melody",
      "is_tied": false
    },
    {
      "midi": 55,
      "name": "G3",
      "start": 152.3425,
      "duration": 0.2239,
      "bar": 43,
      "beat": 1.5,
      "duration_beats": 0.25,
      "velocity": 0.37,
      "role": "chord",
      "is_tied": true
    },
    {
      "midi": 52,
      "name": "E3",
      "start": 152.3425,
      "duration": 0.4478,
      "bar": 43,
      "beat": 1.5,
      "duration_beats": 0.5,
      "velocity": 0.52,
      "role": "chord",
      "is_tied": false
    },
    {
      "midi": 50,
      "name": "D3",
      "start": 152.3425,
      "duration": 1.791,
      "bar": 43,
      "beat": 1.5,
      "duration_beats": 2.0,
      "velocity": 0.6,
      "role": "chord",
      "is_tied": false
    },
    {
      "midi": 43,
      "name": "G2",
      "start": 152.3425,
      "duration": 1.791,
      "bar": 43,
      "beat": 1.5,
      "duration_beats": 2.0,
      "velocity": 1.0,
      "role": "bass",
      "is_tied": false
    },
    {
      "midi": 74,
      "name": "D5",
      "start": 153.238,
      "duration": 1.3433,
      "bar": 43,
      "beat": 2.5,
      "duration_beats": 1.5,
      "velocity": 1.0,
      "role": "melody",
      "is_tied": false
    },
    {
      "midi": 59,
      "name": "B3",
      "start": 153.238,
      "duration": 0.8955,
      "bar": 43,
      "beat": 2.5,
      "duration_beats": 1.0,
      "velocity": 0.8,
      "role": "chord",
      "is_tied": false
    },
    {
      "midi": 52,
      "name": "E3",
      "start": 153.238,
      "duration": 0.4478,
      "bar": 43,
      "beat": 2.5,
      "duration_beats": 0.5,
      "velocity": 0.3,
      "role": "chord",
      "is_tied": false
    },
    {
      "midi": 74,
      "name": "D5",
      "start": 153.6858,
      "duration": 0.8955,
      "bar": 43,
      "beat": 3.0,
      "duration_beats": 1.0,
      "velocity": 0.47,
      "role": "melody",
      "is_tied": false
    },
    {
      "midi": 62,
      "name": "D4",
      "start": 153.6858,
      "duration": 0.8955,
      "bar": 43,
      "beat": 3.0,
      "duration_beats": 1.0,
      "velocity": 0.93,
      "role": "chord",
      "is_tied": false
    },
    {
      "midi": 81,
      "name": "A5",
      "start": 154.5813,
      "duration": 0.2239,
      "bar": 43,
      "beat": 4.0,
      "duration_beats": 0.25,
      "velocity": 0.82,
      "role": "melody",
      "is_tied": false
    },
    {
      "midi": 72,
      "name": "C5",
      "start": 154.5813,
      "duration": 0.6716,
      "bar": 43,
      "beat": 4.0,
      "duration_beats": 0.75,
      "velocity": 0.56,
      "role": "melody",
      "is_tied": false
    },
    {
      "midi": 58,
      "name": "A#3",
      "start": 154.5813,
      "duration": 0.2239,
      "bar": 43,
      "beat": 4.0,
      "duration_beats": 0.25,
      "velocity": 1.0,
      "role": "chord",
      "is_tied": false
    },
    {
      "midi": 53,
      "name": "F3",
      "start": 154.5813,
      "duration": 0.2239,
      "bar": 43,
      "beat": 4.0,
      "duration_beats": 0.25,
      "velocity": 0.59,
      "role": "chord",
      "is_tied": false
    },
    {
      "midi": 53,
      "name": "F3",
      "start": 154.5813,
      "duration": 0.2239,
      "bar": 43,
      "beat": 4.0,
      "duration_beats": 0.25,
      "velocity": 0.65,
      "role": "chord",
      "is_tied": false
    },
    {
      "midi": 51,
      "name": "D#3",
      "start": 154.5813,
      "duration": 0.2239,
      "bar": 43,
      "beat": 4.0,
      "duration_beats": 0.25,
      "velocity": 0.53,
      "role": "chord",
      "is_tied": false
    },
    {
      "midi": 48,
      "name": "C3",
      "start": 154.5813,
      "duration": 0.2239,
      "bar": 43,
      "beat": 4.0,
      "duration_beats": 0.25,
      "velocity": 0.87,
      "role": "bass",
      "is_tied": false
    },
    {
      "midi": 70,
      "name": "A#4",
      "start": 155.0291,
      "duration": 0.2239,
      "bar": 43,
      "beat": 4.5,
      "duration_beats": 0.25,
      "velocity": 1.0,
      "role": "melody",
      "is_tied": false
    },
    {
      "midi": 69,
      "name": "A4",
      "start": 155.0291,
      "duration": 0.2239,
      "bar": 43,
      "beat": 4.5,
      "duration_beats": 0.25,
      "velocity": 1.0,
      "role": "chord",
      "is_tied": false
    },
    {
      "midi": 50,
      "name": "D3",
      "start": 155.0291,
      "duration": 0.2239,
      "bar": 43,
      "beat": 4.5,
      "duration_beats": 0.25,
      "velocity": 0.31,
      "role": "chord",
      "is_tied": false
    },
    {
      "midi": 47,
      "name": "B2",
      "start": 155.0291,
      "duration": 0.2239,
      "bar": 43,
      "beat": 4.5,
      "duration_beats": 0.25,
      "velocity": 0.33,
      "role": "bass",
      "is_tied": false
    },
    {
      "midi": 81,
      "name": "A5",
      "start": 155.4769,
      "duration": 0.6716,
      "bar": 44,
      "beat": 1.0,
      "duration_beats": 0.75,
      "velocity": 0.81,
      "role": "melody",
      "is_tied": false
    },
    {
      "midi": 75,
      "name": "D#5",
      "start": 155.4769,
      "duration": 0.2239,
      "bar": 44,
      "beat": 1.0,
      "duration_beats": 0.25,
      "velocity": 1.0,
      "role": "melody",
      "is_tied": false
    },
    {
      "midi": 74,
      "name": "D5",
      "start": 155.4769,
      "duration": 0.2239,
      "bar": 44,
      "beat": 1.0,
      "duration_beats": 0.25,
      "velocity": 0.67,
      "role": "melody",
      "is_tied": false
    },
    {
      "midi": 34,
      "name": "A#1",
      "start": 155.4769,
      "duration": 0.6716,
      "bar": 44,
      "beat": 1.0,
      "duration_beats": 0.75,
      "velocity": 0.57,
      "role": "bass",
      "is_tied": false
    },
    {
      "midi": 81,
      "name": "A5",
      "start": 155.9246,
      "duration": 0.4478,
      "bar": 44,
      "beat": 1.5,
      "duration_beats": 0.5,
      "velocity": 1.0,
      "role": "melody",
      "is_tied": false
    },
    {
      "midi": 80,
      "name": "G#5",
      "start": 155.9246,
      "duration": 0.4478,
      "bar": 44,
      "beat": 1.5,
      "duration_beats": 0.5,
      "velocity": 1.0,
      "role": "melody",
      "is_tied": false
    },
    {
      "midi": 74,
      "name": "D5",
      "start": 155.9246,
      "duration": 0.2239,
      "bar": 44,
      "beat": 1.5,
      "duration_beats": 0.25,
      "velocity": 0.91,
      "role": "melody",
      "is_tied": false
    },
    {
      "midi": 58,
      "name": "A#3",
      "start": 155.9246,
      "duration": 1.3433,
      "bar": 44,
      "beat": 1.5,
      "duration_beats": 1.5,
      "velocity": 0.4,
      "role": "chord",
      "is_tied": false
    },
    {
      "midi": 53,
      "name": "F3",
      "start": 155.9246,
      "duration": 1.3433,
      "bar": 44,
      "beat": 1.5,
      "duration_beats": 1.5,
      "velocity": 0.77,
      "role": "chord",
      "is_tied": false
    },
    {
      "midi": 49,
      "name": "C#3",
      "start": 155.9246,
      "duration": 0.4478,
      "bar": 44,
      "beat": 1.5,
      "duration_beats": 0.5,
      "velocity": 0.47,
      "role": "chord",
      "is_tied": false
    },
    {
      "midi": 79,
      "name": "G5",
      "start": 156.3724,
      "duration": 0.4478,
      "bar": 44,
      "beat": 2.0,
      "duration_beats": 0.5,
      "velocity": 0.84,
      "role": "melody",
      "is_tied": false
    },
    {
      "midi": 76,
      "name": "E5",
      "start": 156.3724,
      "duration": 0.2239,
      "bar": 44,
      "beat": 2.0,
      "duration_beats": 0.25,
      "velocity": 1.0,
      "role": "melody",
      "is_tied": false
    },
    {
      "midi": 76,
      "name": "E5",
      "start": 156.3724,
      "duration": 0.2239,
      "bar": 44,
      "beat": 2.0,
      "duration_beats": 0.25,
      "velocity": 1.0,
      "role": "melody",
      "is_tied": false
    },
    {
      "midi": 72,
      "name": "C5",
      "start": 156.3724,
      "duration": 1.791,
      "bar": 44,
      "beat": 2.0,
      "duration_beats": 2.0,
      "velocity": 1.0,
      "role": "melody",
      "is_tied": false
    },
    {
      "midi": 70,
      "name": "A#4",
      "start": 156.3724,
      "duration": 0.2239,
      "bar": 44,
      "beat": 2.0,
      "duration_beats": 0.25,
      "velocity": 1.0,
      "role": "chord",
      "is_tied": false
    },
    {
      "midi": 58,
      "name": "A#3",
      "start": 156.3724,
      "duration": 0.8955,
      "bar": 44,
      "beat": 2.0,
      "duration_beats": 1.0,
      "velocity": 0.9,
      "role": "chord",
      "is_tied": false
    },
    {
      "midi": 57,
      "name": "A3",
      "start": 156.3724,
      "duration": 0.2239,
      "bar": 44,
      "beat": 2.0,
      "duration_beats": 0.25,
      "velocity": 0.5,
      "role": "chord",
      "is_tied": false
    },
    {
      "midi": 49,
      "name": "C#3",
      "start": 156.3724,
      "duration": 0.2239,
      "bar": 44,
      "beat": 2.0,
      "duration_beats": 0.25,
      "velocity": 0.6,
      "role": "chord",
      "is_tied": false
    },
    {
      "midi": 48,
      "name": "C3",
      "start": 156.3724,
      "duration": 0.2239,
      "bar": 44,
      "beat": 2.0,
      "duration_beats": 0.25,
      "velocity": 0.6,
      "role": "bass",
      "is_tied": false
    },
    {
      "midi": 82,
      "name": "A#5",
      "start": 156.8201,
      "duration": 0.2239,
      "bar": 44,
      "beat": 2.5,
      "duration_beats": 0.25,
      "velocity": 0.63,
      "role": "melody",
      "is_tied": false
    },
    {
      "midi": 70,
      "name": "A#4",
      "start": 156.8201,
      "duration": 0.2239,
      "bar": 44,
      "beat": 2.5,
      "duration_beats": 0.25,
      "velocity": 0.81,
      "role": "melody",
      "is_tied": false
    },
    {
      "midi": 69,
      "name": "A4",
      "start": 156.8201,
      "duration": 0.2239,
      "bar": 44,
      "beat": 2.5,
      "duration_beats": 0.25,
      "velocity": 1.0,
      "role": "chord",
      "is_tied": false
    },
    {
      "midi": 50,
      "name": "D3",
      "start": 156.8201,
      "duration": 0.4478,
      "bar": 44,
      "beat": 2.5,
      "duration_beats": 0.5,
      "velocity": 0.32,
      "role": "chord",
      "is_tied": false
    },
    {
      "midi": 70,
      "name": "A#4",
      "start": 157.2679,
      "duration": 0.8955,
      "bar": 44,
      "beat": 3.0,
      "duration_beats": 1.0,
      "velocity": 1.0,
      "role": "melody",
      "is_tied": false
    },
    {
      "midi": 66,
      "name": "F#4",
      "start": 157.2679,
      "duration": 0.2239,
      "bar": 44,
      "beat": 3.0,
      "duration_beats": 0.25,
      "velocity": 1.0,
      "role": "chord",
      "is_tied": false
    },
    {
      "midi": 61,
      "name": "C#4",
      "start": 157.2679,
      "duration": 1.791,
      "bar": 44,
      "beat": 3.0,
      "duration_beats": 2.0,
      "velocity": 0.47,
      "role": "chord",
      "is_tied": false
    },
    {
      "midi": 57,
      "name": "A3",
      "start": 157.2679,
      "duration": 3.5821,
      "bar": 44,
      "beat": 3.0,
      "duration_beats": 4.0,
      "velocity": 0.79,
      "role": "chord",
      "is_tied": false
    },
    {
      "midi": 52,
      "name": "E3",
      "start": 157.2679,
      "duration": 3.5821,
      "bar": 44,
      "beat": 3.0,
      "duration_beats": 4.0,
      "velocity": 1.0,
      "role": "bass",
      "is_tied": false
    },
    {
      "midi": 57,
      "name": "A3",
      "start": 157.7157,
      "duration": 2.6866,
      "bar": 44,
      "beat": 3.5,
      "duration_beats": 3.0,
      "velocity": 0.76,
      "role": "chord",
      "is_tied": false
    },
    {
      "midi": 52,
      "name": "E3",
      "start": 157.7157,
      "duration": 3.5821,
      "bar": 44,
      "beat": 3.5,
      "duration_beats": 4.0,
      "velocity": 1.0,
      "role": "bass",
      "is_tied": false
    },
    {
      "midi": 50,
      "name": "D3",
      "start": 157.7157,
      "duration": 1.791,
      "bar": 44,
      "beat": 3.5,
      "duration_beats": 2.0,
      "velocity": 0.43,
      "role": "chord",
      "is_tied": false
    },
    {
      "midi": 76,
      "name": "E5",
      "start": 158.1634,
      "duration": 0.8955,
      "bar": 44,
      "beat": 4.0,
      "duration_beats": 1.0,
      "velocity": 0.98,
      "role": "melody",
      "is_tied": false
    },
    {
      "midi": 73,
      "name": "C#5",
      "start": 158.1634,
      "duration": 2.6866,
      "bar": 44,
      "beat": 4.0,
      "duration_beats": 3.0,
      "velocity": 0.85,
      "role": "melody",
      "is_tied": false
    },
    {
      "midi": 57,
      "name": "A3",
      "start": 158.1634,
      "duration": 2.6866,
      "bar": 44,
      "beat": 4.0,
      "duration_beats": 3.0,
      "velocity": 0.71,
      "role": "chord",
      "is_tied": false
    },
    {
      "midi": 52,
      "name": "E3",
      "start": 158.1634,
      "duration": 3.5821,
      "bar": 44,
      "beat": 4.0,
      "duration_beats": 4.0,
      "velocity": 1.0,
      "role": "bass",
      "is_tied": false
    },
    {
      "midi": 49,
      "name": "C#3",
      "start": 158.1634,
      "duration": 1.3433,
      "bar": 44,
      "beat": 4.0,
      "duration_beats": 1.5,
      "velocity": 0.53,
      "role": "chord",
      "is_tied": false
    },
    {
      "midi": 73,
      "name": "C#5",
      "start": 159.0589,
      "duration": 1.3433,
      "bar": 45,
      "beat": 1.0,
      "duration_beats": 1.5,
      "velocity": 0.87,
      "role": "melody",
      "is_tied": false
    },
    {
      "midi": 49,
      "name": "C#3",
      "start": 159.0589,
      "duration": 0.2239,
      "bar": 45,
      "beat": 1.0,
      "duration_beats": 0.25,
      "velocity": 0.4,
      "role": "chord",
      "is_tied": false
    },
    {
      "midi": 40,
      "name": "E2",
      "start": 159.0589,
      "duration": 0.2239,
      "bar": 45,
      "beat": 1.0,
      "duration_beats": 0.25,
      "velocity": 0.64,
      "role": "bass",
      "is_tied": false
    },
    {
      "midi": 69,
      "name": "A4",
      "start": 159.5067,
      "duration": 0.6716,
      "bar": 45,
      "beat": 1.5,
      "duration_beats": 0.75,
      "velocity": 0.35,
      "role": "melody",
      "is_tied": false
    },
    {
      "midi": 61,
      "name": "C#4",
      "start": 159.5067,
      "duration": 0.2239,
      "bar": 45,
      "beat": 1.5,
      "duration_beats": 0.25,
      "velocity": 0.53,
      "role": "chord",
      "is_tied": true
    },
    {
      "midi": 54,
      "name": "F#3",
      "start": 159.5067,
      "duration": 0.2239,
      "bar": 45,
      "beat": 1.5,
      "duration_beats": 0.25,
      "velocity": 0.56,
      "role": "chord",
      "is_tied": true
    },
    {
      "midi": 50,
      "name": "D3",
      "start": 159.5067,
      "duration": 0.4478,
      "bar": 45,
      "beat": 1.5,
      "duration_beats": 0.5,
      "velocity": 0.39,
      "role": "chord",
      "is_tied": false
    },
    {
      "midi": 49,
      "name": "C#3",
      "start": 159.9545,
      "duration": 0.6716,
      "bar": 45,
      "beat": 2.0,
      "duration_beats": 0.75,
      "velocity": 0.44,
      "role": "chord",
      "is_tied": false
    },
    {
      "midi": 76,
      "name": "E5",
      "start": 160.4022,
      "duration": 0.2239,
      "bar": 45,
      "beat": 2.5,
      "duration_beats": 0.25,
      "velocity": 1.0,
      "role": "melody",
      "is_tied": false
    },
    {
      "midi": 73,
      "name": "C#5",
      "start": 160.4022,
      "duration": 0.2239,
      "bar": 45,
      "beat": 2.5,
      "duration_beats": 0.25,
      "velocity": 0.4,
      "role": "melody",
      "is_tied": true
    },
    {
      "midi": 64,
      "name": "E4",
      "start": 160.4022,
      "duration": 0.2239,
      "bar": 45,
      "beat": 2.5,
      "duration_beats": 0.25,
      "velocity": 1.0,
      "role": "melody",
      "is_tied": false
    },
    {
      "midi": 40,
      "name": "E2",
      "start": 160.4022,
      "duration": 0.2239,
      "bar": 45,
      "beat": 2.5,
      "duration_beats": 0.25,
      "velocity": 0.81,
      "role": "bass",
      "is_tied": false
    },
    {
      "midi": 71,
      "name": "B4",
      "start": 160.85,
      "duration": 0.4478,
      "bar": 45,
      "beat": 3.0,
      "duration_beats": 0.5,
      "velocity": 0.4,
      "role": "melody",
      "is_tied": false
    },
    {
      "midi": 60,
      "name": "C4",
      "start": 160.85,
      "duration": 0.6716,
      "bar": 45,
      "beat": 3.0,
      "duration_beats": 0.75,
      "velocity": 0.54,
      "role": "chord",
      "is_tied": false
    },
    {
      "midi": 55,
      "name": "G3",
      "start": 160.85,
      "duration": 2.6866,
      "bar": 45,
      "beat": 3.0,
      "duration_beats": 3.0,
      "velocity": 0.43,
      "role": "chord",
      "is_tied": false
    },
    {
      "midi": 45,
      "name": "A2",
      "start": 160.85,
      "duration": 1.791,
      "bar": 45,
      "beat": 3.0,
      "duration_beats": 2.0,
      "velocity": 0.78,
      "role": "bass",
      "is_tied": false
    },
    {
      "midi": 67,
      "name": "G4",
      "start": 161.2977,
      "duration": 0.4478,
      "bar": 45,
      "beat": 3.5,
      "duration_beats": 0.5,
      "velocity": 0.38,
      "role": "melody",
      "is_tied": false
    },
    {
      "midi": 78,
      "name": "F#5",
      "start": 161.7455,
      "duration": 0.6716,
      "bar": 45,
      "beat": 4.0,
      "duration_beats": 0.75,
      "velocity": 1.0,
      "role": "melody",
      "is_tied": false
    },
    {
      "midi": 60,
      "name": "C4",
      "start": 161.7455,
      "duration": 1.3433,
      "bar": 45,
      "beat": 4.0,
      "duration_beats": 1.5,
      "velocity": 1.0,
      "role": "chord",
      "is_tied": false
    },
    {
      "midi": 52,
      "name": "E3",
      "start": 161.7455,
      "duration": 0.8955,
      "bar": 45,
      "beat": 4.0,
      "duration_beats": 1.0,
      "velocity": 0.56,
      "role": "chord",
      "is_tied": false
    },
    {
      "midi": 48,
      "name": "C3",
      "start": 161.7455,
      "duration": 0.2239,
      "bar": 45,
      "beat": 4.0,
      "duration_beats": 0.25,
      "velocity": 0.37,
      "role": "chord",
      "is_tied": false
    },
    {
      "midi": 45,
      "name": "A2",
      "start": 161.7455,
      "duration": 0.6716,
      "bar": 45,
      "beat": 4.0,
      "duration_beats": 0.75,
      "velocity": 1.0,
      "role": "bass",
      "is_tied": false
    },
    {
      "midi": 76,
      "name": "E5",
      "start": 162.1933,
      "duration": 0.6716,
      "bar": 45,
      "beat": 4.5,
      "duration_beats": 0.75,
      "velocity": 0.36,
      "role": "melody",
      "is_tied": false
    },
    {
      "midi": 74,
      "name": "D5",
      "start": 162.1933,
      "duration": 0.2239,
      "bar": 45,
      "beat": 4.5,
      "duration_beats": 0.25,
      "velocity": 0.35,
      "role": "melody",
      "is_tied": false
    },
    {
      "midi": 64,
      "name": "E4",
      "start": 162.1933,
      "duration": 0.4478,
      "bar": 45,
      "beat": 4.5,
      "duration_beats": 0.5,
      "velocity": 0.58,
      "role": "chord",
      "is_tied": false
    },
    {
      "midi": 48,
      "name": "C3",
      "start": 162.1933,
      "duration": 0.4478,
      "bar": 45,
      "beat": 4.5,
      "duration_beats": 0.5,
      "velocity": 0.58,
      "role": "chord",
      "is_tied": false
    },
    {
      "midi": 79,
      "name": "G5",
      "start": 162.641,
      "duration": 0.2239,
      "bar": 45,
      "beat": 5.0,
      "duration_beats": 0.25,
      "velocity": 1.0,
      "role": "melody",
      "is_tied": false
    },
    {
      "midi": 78,
      "name": "F#5",
      "start": 162.641,
      "duration": 0.4478,
      "bar": 45,
      "beat": 5.0,
      "duration_beats": 0.5,
      "velocity": 0.94,
      "role": "melody",
      "is_tied": false
    },
    {
      "midi": 74,
      "name": "D5",
      "start": 162.641,
      "duration": 0.4478,
      "bar": 45,
      "beat": 5.0,
      "duration_beats": 0.5,
      "velocity": 0.5,
      "role": "melody",
      "is_tied": false
    },
    {
      "midi": 69,
      "name": "A4",
      "start": 162.641,
      "duration": 0.4478,
      "bar": 45,
      "beat": 5.0,
      "duration_beats": 0.5,
      "velocity": 0.67,
      "role": "chord",
      "is_tied": false
    },
    {
      "midi": 43,
      "name": "G2",
      "start": 162.641,
      "duration": 0.2239,
      "bar": 45,
      "beat": 5.0,
      "duration_beats": 0.25,
      "velocity": 0.81,
      "role": "bass",
      "is_tied": false
    },
    {
      "midi": 41,
      "name": "F2",
      "start": 162.641,
      "duration": 0.2239,
      "bar": 45,
      "beat": 5.0,
      "duration_beats": 0.25,
      "velocity": 0.7,
      "role": "bass",
      "is_tied": false
    },
    {
      "midi": 80,
      "name": "G#5",
      "start": 163.0888,
      "duration": 0.2239,
      "bar": 46,
      "beat": 1.5,
      "duration_beats": 0.25,
      "velocity": 1.0,
      "role": "melody",
      "is_tied": false
    },
    {
      "midi": 69,
      "name": "A4",
      "start": 163.0888,
      "duration": 0.2239,
      "bar": 46,
      "beat": 1.5,
      "duration_beats": 0.25,
      "velocity": 0.83,
      "role": "melody",
      "is_tied": true
    },
    {
      "midi": 51,
      "name": "D#3",
      "start": 163.0888,
      "duration": 0.2239,
      "bar": 46,
      "beat": 1.5,
      "duration_beats": 0.25,
      "velocity": 0.48,
      "role": "chord",
      "is_tied": false
    },
    {
      "midi": 41,
      "name": "F2",
      "start": 163.0888,
      "duration": 0.2239,
      "bar": 46,
      "beat": 1.5,
      "duration_beats": 0.25,
      "velocity": 0.68,
      "role": "bass",
      "is_tied": false
    },
    {
      "midi": 80,
      "name": "G#5",
      "start": 163.5366,
      "duration": 0.4478,
      "bar": 46,
      "beat": 2.0,
      "duration_beats": 0.5,
      "velocity": 1.0,
      "role": "melody",
      "is_tied": false
    },
    {
      "midi": 51,
      "name": "D#3",
      "start": 163.5366,
      "duration": 0.4478,
      "bar": 46,
      "beat": 2.0,
      "duration_beats": 0.5,
      "velocity": 0.47,
      "role": "chord",
      "is_tied": false
    },
    {
      "midi": 82,
      "name": "A#5",
      "start": 163.9843,
      "duration": 0.2239,
      "bar": 46,
      "beat": 2.5,
      "duration_beats": 0.25,
      "velocity": 0.74,
      "role": "melody",
      "is_tied": false
    },
    {
      "midi": 48,
      "name": "C3",
      "start": 163.9843,
      "duration": 0.2239,
      "bar": 46,
      "beat": 2.5,
      "duration_beats": 0.25,
      "velocity": 0.42,
      "role": "chord",
      "is_tied": false
    },
    {
      "midi": 44,
      "name": "G#2",
      "start": 163.9843,
      "duration": 0.4478,
      "bar": 46,
      "beat": 2.5,
      "duration_beats": 0.5,
      "velocity": 0.5,
      "role": "bass",
      "is_tied": false
    },
    {
      "midi": 81,
      "name": "A5",
      "start": 164.4321,
      "duration": 0.2239,
      "bar": 46,
      "beat": 3.0,
      "duration_beats": 0.25,
      "velocity": 1.0,
      "role": "melody",
      "is_tied": false
    },
    {
      "midi": 80,
      "name": "G#5",
      "start": 164.4321,
      "duration": 0.2239,
      "bar": 46,
      "beat": 3.0,
      "duration_beats": 0.25,
      "velocity": 0.57,
      "role": "melody",
      "is_tied": true
    },
    {
      "midi": 80,
      "name": "G#5",
      "start": 164.4321,
      "duration": 0.2239,
      "bar": 46,
      "beat": 3.0,
      "duration_beats": 0.25,
      "velocity": 0.53,
      "role": "melody",
      "is_tied": false
    },
    {
      "midi": 77,
      "name": "F5",
      "start": 164.4321,
      "duration": 0.2239,
      "bar": 46,
      "beat": 3.0,
      "duration_beats": 0.25,
      "velocity": 1.0,
      "role": "melody",
      "is_tied": false
    },
    {
      "midi": 60,
      "name": "C4",
      "start": 164.4321,
      "duration": 0.2239,
      "bar": 46,
      "beat": 3.0,
      "duration_beats": 0.25,
      "velocity": 0.58,
      "role": "chord",
      "is_tied": true
    },
    {
      "midi": 55,
      "name": "G3",
      "start": 164.4321,
      "duration": 0.4478,
      "bar": 46,
      "beat": 3.0,
      "duration_beats": 0.5,
      "velocity": 0.89,
      "role": "chord",
      "is_tied": false
    },
    {
      "midi": 50,
      "name": "D3",
      "start": 164.4321,
      "duration": 0.6716,
      "bar": 46,
      "beat": 3.0,
      "duration_beats": 0.75,
      "velocity": 1.0,
      "role": "chord",
      "is_tied": false
    },
    {
      "midi": 78,
      "name": "F#5",
      "start": 164.8798,
      "duration": 0.4478,
      "bar": 46,
      "beat": 3.5,
      "duration_beats": 0.5,
      "velocity": 0.64,
      "role": "melody",
      "is_tied": false
    },
    {
      "midi": 59,
      "name": "B3",
      "start": 164.8798,
      "duration": 0.8955,
      "bar": 46,
      "beat": 3.5,
      "duration_beats": 1.0,
      "velocity": 0.48,
      "role": "chord",
      "is_tied": false
    },
    {
      "midi": 54,
      "name": "F#3",
      "start": 164.8798,
      "duration": 0.2239,
      "bar": 46,
      "beat": 3.5,
      "duration_beats": 0.25,
      "velocity": 0.65,
      "role": "chord",
      "is_tied": false
    },
    {
      "midi": 50,
      "name": "D3",
      "start": 164.8798,
      "duration": 0.2239,
      "bar": 46,
      "beat": 3.5,
      "duration_beats": 0.25,
      "velocity": 1.0,
      "role": "chord",
      "is_tied": false
    },
    {
      "midi": 78,
      "name": "F#5",
      "start": 165.3276,
      "duration": 0.2239,
      "bar": 46,
      "beat": 4.0,
      "duration_beats": 0.25,
      "velocity": 0.57,
      "role": "melody",
      "is_tied": true
    },
    {
      "midi": 74,
      "name": "D5",
      "start": 165.3276,
      "duration": 0.6716,
      "bar": 46,
      "beat": 4.0,
      "duration_beats": 0.75,
      "velocity": 1.0,
      "role": "melody",
      "is_tied": false
    },
    {
      "midi": 69,
      "name": "A4",
      "start": 165.3276,
      "duration": 0.6716,
      "bar": 46,
      "beat": 4.0,
      "duration_beats": 0.75,
      "velocity": 1.0,
      "role": "melody",
      "is_tied": false
    },
    {
      "midi": 55,
      "name": "G3",
      "start": 165.3276,
      "duration": 0.8955,
      "bar": 46,
      "beat": 4.0,
      "duration_beats": 1.0,
      "velocity": 0.77,
      "role": "chord",
      "is_tied": false
    },
    {
      "midi": 47,
      "name": "B2",
      "start": 165.3276,
      "duration": 1.3433,
      "bar": 46,
      "beat": 4.0,
      "duration_beats": 1.5,
      "velocity": 1.0,
      "role": "bass",
      "is_tied": false
    },
    {
      "midi": 35,
      "name": "B1",
      "start": 165.3276,
      "duration": 0.2239,
      "bar": 46,
      "beat": 4.0,
      "duration_beats": 0.25,
      "velocity": 0.49,
      "role": "bass",
      "is_tied": false
    },
    {
      "midi": 74,
      "name": "D5",
      "start": 165.7754,
      "duration": 0.2239,
      "bar": 46,
      "beat": 4.5,
      "duration_beats": 0.25,
      "velocity": 0.55,
      "role": "melody",
      "is_tied": false
    },
    {
      "midi": 43,
      "name": "G2",
      "start": 165.7754,
      "duration": 0.2239,
      "bar": 46,
      "beat": 4.5,
      "duration_beats": 0.25,
      "velocity": 0.46,
      "role": "bass",
      "is_tied": true
    },
    {
      "midi": 83,
      "name": "B5",
      "start": 166.2231,
      "duration": 0.4478,
      "bar": 47,
      "beat": 1.0,
      "duration_beats": 0.5,
      "velocity": 1.0,
      "role": "melody",
      "is_tied": false
    },
    {
      "midi": 66,
      "name": "F#4",
      "start": 166.2231,
      "duration": 0.2239,
      "bar": 47,
      "beat": 1.0,
      "duration_beats": 0.25,
      "velocity": 1.0,
      "role": "chord",
      "is_tied": false
    },
    {
      "midi": 59,
      "name": "B3",
      "start": 166.2231,
      "duration": 0.4478,
      "bar": 47,
      "beat": 1.0,
      "duration_beats": 0.5,
      "velocity": 0.42,
      "role": "chord",
      "is_tied": false
    },
    {
      "midi": 50,
      "name": "D3",
      "start": 166.2231,
      "duration": 0.4478,
      "bar": 47,
      "beat": 1.0,
      "duration_beats": 0.5,
      "velocity": 0.84,
      "role": "chord",
      "is_tied": false
    },
    {
      "midi": 83,
      "name": "B5",
      "start": 166.6709,
      "duration": 0.2239,
      "bar": 47,
      "beat": 1.5,
      "duration_beats": 0.25,
      "velocity": 1.0,
      "role": "melody",
      "is_tied": false
    },
    {
      "midi": 74,
      "name": "D5",
      "start": 166.6709,
      "duration": 0.2239,
      "bar": 47,
      "beat": 1.5,
      "duration_beats": 0.25,
      "velocity": 1.0,
      "role": "melody",
      "is_tied": false
    },
    {
      "midi": 50,
      "name": "D3",
      "start": 166.6709,
      "duration": 0.2239,
      "bar": 47,
      "beat": 1.5,
      "duration_beats": 0.25,
      "velocity": 0.91,
      "role": "chord",
      "is_tied": false
    },
    {
      "midi": 50,
      "name": "D3",
      "start": 166.6709,
      "duration": 0.2239,
      "bar": 47,
      "beat": 1.5,
      "duration_beats": 0.25,
      "velocity": 0.31,
      "role": "chord",
      "is_tied": true
    },
    {
      "midi": 74,
      "name": "D5",
      "start": 167.1186,
      "duration": 0.8955,
      "bar": 47,
      "beat": 2.0,
      "duration_beats": 1.0,
      "velocity": 0.93,
      "role": "melody",
      "is_tied": false
    },
    {
      "midi": 66,
      "name": "F#4",
      "start": 167.1186,
      "duration": 0.4478,
      "bar": 47,
      "beat": 2.0,
      "duration_beats": 0.5,
      "velocity": 0.67,
      "role": "melody",
      "is_tied": false
    },
    {
      "midi": 40,
      "name": "E2",
      "start": 167.1186,
      "duration": 0.4478,
      "bar": 47,
      "beat": 2.0,
      "duration_beats": 0.5,
      "velocity": 1.0,
      "role": "bass",
      "is_tied": false
    },
    {
      "midi": 43,
      "name": "G2",
      "start": 167.5664,
      "duration": 0.4478,
      "bar": 47,
      "beat": 2.5,
      "duration_beats": 0.5,
      "velocity": 0.7,
      "role": "bass",
      "is_tied": false
    },
    {
      "midi": 74,
      "name": "D5",
      "start": 168.0142,
      "duration": 0.2239,
      "bar": 47,
      "beat": 3.0,
      "duration_beats": 0.25,
      "velocity": 1.0,
      "role": "melody",
      "is_tied": false
    },
    {
      "midi": 58,
      "name": "A#3",
      "start": 168.0142,
      "duration": 0.2239,
      "bar": 47,
      "beat": 3.0,
      "duration_beats": 0.25,
      "velocity": 1.0,
      "role": "chord",
      "is_tied": false
    },
    {
      "midi": 48,
      "name": "C3",
      "start": 168.0142,
      "duration": 0.2239,
      "bar": 47,
      "beat": 3.0,
      "duration_beats": 0.25,
      "velocity": 0.72,
      "role": "bass",
      "is_tied": false
    },
    {
      "midi": 74,
      "name": "D5",
      "start": 168.4619,
      "duration": 0.2239,
      "bar": 47,
      "beat": 3.5,
      "duration_beats": 0.25,
      "velocity": 1.0,
      "role": "melody",
      "is_tied": false
    },
    {
      "midi": 72,
      "name": "C5",
      "start": 168.4619,
      "duration": 0.2239,
      "bar": 47,
      "beat": 3.5,
      "duration_beats": 0.25,
      "velocity": 0.56,
      "role": "melody",
      "is_tied": false
    },
    {
      "midi": 69,
      "name": "A4",
      "start": 168.4619,
      "duration": 0.2239,
      "bar": 47,
      "beat": 3.5,
      "duration_beats": 0.25,
      "velocity": 1.0,
      "role": "chord",
      "is_tied": false
    },
    {
      "midi": 69,
      "name": "A4",
      "start": 168.4619,
      "duration": 0.2239,
      "bar": 47,
      "beat": 3.5,
      "duration_beats": 0.25,
      "velocity": 1.0,
      "role": "melody",
      "is_tied": false
    },
    {
      "midi": 65,
      "name": "F4",
      "start": 168.4619,
      "duration": 0.2239,
      "bar": 47,
      "beat": 3.5,
      "duration_beats": 0.25,
      "velocity": 1.0,
      "role": "melody",
      "is_tied": false
    },
    {
      "midi": 50,
      "name": "D3",
      "start": 168.4619,
      "duration": 0.2239,
      "bar": 47,
      "beat": 3.5,
      "duration_beats": 0.25,
      "velocity": 0.79,
      "role": "chord",
      "is_tied": false
    },
    {
      "midi": 50,
      "name": "D3",
      "start": 168.4619,
      "duration": 0.2239,
      "bar": 47,
      "beat": 3.5,
      "duration_beats": 0.25,
      "velocity": 0.79,
      "role": "chord",
      "is_tied": false
    },
    {
      "midi": 48,
      "name": "C3",
      "start": 168.4619,
      "duration": 0.2239,
      "bar": 47,
      "beat": 3.5,
      "duration_beats": 0.25,
      "velocity": 0.51,
      "role": "chord",
      "is_tied": false
    },
    {
      "midi": 41,
      "name": "F2",
      "start": 168.4619,
      "duration": 0.2239,
      "bar": 47,
      "beat": 3.5,
      "duration_beats": 0.25,
      "velocity": 1.0,
      "role": "bass",
      "is_tied": false
    },
    {
      "midi": 41,
      "name": "F2",
      "start": 168.4619,
      "duration": 0.2239,
      "bar": 47,
      "beat": 3.5,
      "duration_beats": 0.25,
      "velocity": 1.0,
      "role": "bass",
      "is_tied": false
    },
    {
      "midi": 72,
      "name": "C5",
      "start": 168.9097,
      "duration": 0.2239,
      "bar": 47,
      "beat": 4.0,
      "duration_beats": 0.25,
      "velocity": 0.95,
      "role": "melody",
      "is_tied": false
    },
    {
      "midi": 60,
      "name": "C4",
      "start": 168.9097,
      "duration": 0.4478,
      "bar": 47,
      "beat": 4.0,
      "duration_beats": 0.5,
      "velocity": 1.0,
      "role": "chord",
      "is_tied": false
    },
    {
      "midi": 60,
      "name": "C4",
      "start": 168.9097,
      "duration": 0.2239,
      "bar": 47,
      "beat": 4.0,
      "duration_beats": 0.25,
      "velocity": 0.63,
      "role": "chord",
      "is_tied": false
    },
    {
      "midi": 50,
      "name": "D3",
      "start": 168.9097,
      "duration": 0.2239,
      "bar": 47,
      "beat": 4.0,
      "duration_beats": 0.25,
      "velocity": 0.58,
      "role": "chord",
      "is_tied": false
    },
    {
      "midi": 72,
      "name": "C5",
      "start": 169.3574,
      "duration": 0.2239,
      "bar": 47,
      "beat": 4.5,
      "duration_beats": 0.25,
      "velocity": 1.0,
      "role": "melody",
      "is_tied": false
    },
    {
      "midi": 70,
      "name": "A#4",
      "start": 169.3574,
      "duration": 0.2239,
      "bar": 47,
      "beat": 4.5,
      "duration_beats": 0.25,
      "velocity": 0.62,
      "role": "melody",
      "is_tied": false
    },
    {
      "midi": 69,
      "name": "A4",
      "start": 169.3574,
      "duration": 0.2239,
      "bar": 47,
      "beat": 4.5,
      "duration_beats": 0.25,
      "velocity": 0.81,
      "role": "chord",
      "is_tied": false
    },
    {
      "midi": 60,
      "name": "C4",
      "start": 169.3574,
      "duration": 0.2239,
      "bar": 47,
      "beat": 4.5,
      "duration_beats": 0.25,
      "velocity": 0.41,
      "role": "chord",
      "is_tied": false
    },
    {
      "midi": 53,
      "name": "F3",
      "start": 169.3574,
      "duration": 0.2239,
      "bar": 47,
      "beat": 4.5,
      "duration_beats": 0.25,
      "velocity": 0.35,
      "role": "chord",
      "is_tied": false
    },
    {
      "midi": 50,
      "name": "D3",
      "start": 169.3574,
      "duration": 0.2239,
      "bar": 47,
      "beat": 4.5,
      "duration_beats": 0.25,
      "velocity": 0.35,
      "role": "chord",
      "is_tied": false
    },
    {
      "midi": 77,
      "name": "F5",
      "start": 169.8052,
      "duration": 0.6716,
      "bar": 48,
      "beat": 1.0,
      "duration_beats": 0.75,
      "velocity": 1.0,
      "role": "melody",
      "is_tied": false
    },
    {
      "midi": 74,
      "name": "D5",
      "start": 169.8052,
      "duration": 0.4478,
      "bar": 48,
      "beat": 1.0,
      "duration_beats": 0.5,
      "velocity": 0.94,
      "role": "melody",
      "is_tied": false
    },
    {
      "midi": 72,
      "name": "C5",
      "start": 169.8052,
      "duration": 0.4478,
      "bar": 48,
      "beat": 1.0,
      "duration_beats": 0.5,
      "velocity": 0.56,
      "role": "melody",
      "is_tied": false
    },
    {
      "midi": 62,
      "name": "D4",
      "start": 169.8052,
      "duration": 1.3433,
      "bar": 48,
      "beat": 1.0,
      "duration_beats": 1.5,
      "velocity": 1.0,
      "role": "chord",
      "is_tied": false
    },
    {
      "midi": 58,
      "name": "A#3",
      "start": 169.8052,
      "duration": 0.6716,
      "bar": 48,
      "beat": 1.0,
      "duration_beats": 0.75,
      "velocity": 0.9,
      "role": "chord",
      "is_tied": false
    },
    {
      "midi": 50,
      "name": "D3",
      "start": 169.8052,
      "duration": 1.3433,
      "bar": 48,
      "beat": 1.0,
      "duration_beats": 1.5,
      "velocity": 0.31,
      "role": "chord",
      "is_tied": false
    },
    {
      "midi": 40,
      "name": "E2",
      "start": 169.8052,
      "duration": 0.2239,
      "bar": 48,
      "beat": 1.0,
      "duration_beats": 0.25,
      "velocity": 1.0,
      "role": "bass",
      "is_tied": false
    },
    {
      "midi": 81,
      "name": "A5",
      "start": 170.253,
      "duration": 0.2239,
      "bar": 48,
      "beat": 1.5,
      "duration_beats": 0.25,
      "velocity": 1.0,
      "role": "melody",
      "is_tied": false
    },
    {
      "midi": 33,
      "name": "A1",
      "start": 170.253,
      "duration": 0.2239,
      "bar": 48,
      "beat": 1.5,
      "duration_beats": 0.25,
      "velocity": 0.7,
      "role": "bass",
      "is_tied": false
    },
    {
      "midi": 74,
      "name": "D5",
      "start": 170.7007,
      "duration": 0.4478,
      "bar": 48,
      "beat": 2.0,
      "duration_beats": 0.5,
      "velocity": 1.0,
      "role": "melody",
      "is_tied": false
    },
    {
      "midi": 72,
      "name": "C5",
      "start": 170.7007,
      "duration": 0.2239,
      "bar": 48,
      "beat": 2.0,
      "duration_beats": 0.25,
      "velocity": 1.0,
      "role": "melody",
      "is_tied": false
    },
    {
      "midi": 58,
      "name": "A#3",
      "start": 170.7007,
      "duration": 0.2239,
      "bar": 48,
      "beat": 2.0,
      "duration_beats": 0.25,
      "velocity": 0.61,
      "role": "chord",
      "is_tied": false
    },
    {
      "midi": 74,
      "name": "D5",
      "start": 171.1485,
      "duration": 0.6716,
      "bar": 48,
      "beat": 2.5,
      "duration_beats": 0.75,
      "velocity": 0.37,
      "role": "melody",
      "is_tied": false
    },
    {
      "midi": 66,
      "name": "F#4",
      "start": 171.1485,
      "duration": 0.6716,
      "bar": 48,
      "beat": 2.5,
      "duration_beats": 0.75,
      "velocity": 0.94,
      "role": "chord",
      "is_tied": false
    },
    {
      "midi": 62,
      "name": "D4",
      "start": 171.1485,
      "duration": 0.2239,
      "bar": 48,
      "beat": 2.5,
      "duration_beats": 0.25,
      "velocity": 0.8,
      "role": "chord",
      "is_tied": false
    },
    {
      "midi": 58,
      "name": "A#3",
      "start": 171.1485,
      "duration": 0.4478,
      "bar": 48,
      "beat": 2.5,
      "duration_beats": 0.5,
      "velocity": 0.68,
      "role": "chord",
      "is_tied": false
    },
    {
      "midi": 79,
      "name": "G5",
      "start": 172.044,
      "duration": 0.4478,
      "bar": 48,
      "beat": 3.5,
      "duration_beats": 0.5,
      "velocity": 0.34,
      "role": "melody",
      "is_tied": false
    },
    {
      "midi": 73,
      "name": "C#5",
      "start": 172.044,
      "duration": 0.2239,
      "bar": 48,
      "beat": 3.5,
      "duration_beats": 0.25,
      "velocity": 0.34,
      "role": "melody",
      "is_tied": false
    },
    {
      "midi": 69,
      "name": "A4",
      "start": 172.044,
      "duration": 0.2239,
      "bar": 48,
      "beat": 3.5,
      "duration_beats": 0.25,
      "velocity": 1.0,
      "role": "chord",
      "is_tied": false
    },
    {
      "midi": 61,
      "name": "C#4",
      "start": 172.044,
      "duration": 0.4478,
      "bar": 48,
      "beat": 3.5,
      "duration_beats": 0.5,
      "velocity": 1.0,
      "role": "chord",
      "is_tied": false
    },
    {
      "midi": 45,
      "name": "A2",
      "start": 172.044,
      "duration": 0.4478,
      "bar": 48,
      "beat": 3.5,
      "duration_beats": 0.5,
      "velocity": 1.0,
      "role": "bass",
      "is_tied": false
    },
    {
      "midi": 83,
      "name": "B5",
      "start": 172.4918,
      "duration": 0.2239,
      "bar": 48,
      "beat": 4.0,
      "duration_beats": 0.25,
      "velocity": 0.71,
      "role": "melody",
      "is_tied": false
    },
    {
      "midi": 83,
      "name": "B5",
      "start": 172.4918,
      "duration": 0.4478,
      "bar": 48,
      "beat": 4.0,
      "duration_beats": 0.5,
      "velocity": 1.0,
      "role": "melody",
      "is_tied": false
    },
    {
      "midi": 74,
      "name": "D5",
      "start": 172.4918,
      "duration": 0.2239,
      "bar": 48,
      "beat": 4.0,
      "duration_beats": 0.25,
      "velocity": 1.0,
      "role": "melody",
      "is_tied": false
    },
    {
      "midi": 61,
      "name": "C#4",
      "start": 172.4918,
      "duration": 0.8955,
      "bar": 48,
      "beat": 4.0,
      "duration_beats": 1.0,
      "velocity": 0.98,
      "role": "chord",
      "is_tied": false
    },
    {
      "midi": 57,
      "name": "A3",
      "start": 172.4918,
      "duration": 0.4478,
      "bar": 48,
      "beat": 4.0,
      "duration_beats": 0.5,
      "velocity": 0.49,
      "role": "chord",
      "is_tied": false
    },
    {
      "midi": 54,
      "name": "F#3",
      "start": 172.4918,
      "duration": 0.2239,
      "bar": 48,
      "beat": 4.0,
      "duration_beats": 0.25,
      "velocity": 0.68,
      "role": "chord",
      "is_tied": false
    },
    {
      "midi": 54,
      "name": "F#3",
      "start": 172.4918,
      "duration": 0.6716,
      "bar": 48,
      "beat": 4.0,
      "duration_beats": 0.75,
      "velocity": 0.5,
      "role": "chord",
      "is_tied": false
    },
    {
      "midi": 52,
      "name": "E3",
      "start": 172.4918,
      "duration": 0.2239,
      "bar": 48,
      "beat": 4.0,
      "duration_beats": 0.25,
      "velocity": 1.0,
      "role": "bass",
      "is_tied": false
    },
    {
      "midi": 49,
      "name": "C#3",
      "start": 172.4918,
      "duration": 0.2239,
      "bar": 48,
      "beat": 4.0,
      "duration_beats": 0.25,
      "velocity": 0.46,
      "role": "chord",
      "is_tied": false
    },
    {
      "midi": 83,
      "name": "B5",
      "start": 172.9395,
      "duration": 0.2239,
      "bar": 48,
      "beat": 4.5,
      "duration_beats": 0.25,
      "velocity": 1.0,
      "role": "melody",
      "is_tied": true
    },
    {
      "midi": 71,
      "name": "B4",
      "start": 172.9395,
      "duration": 0.2239,
      "bar": 48,
      "beat": 4.5,
      "duration_beats": 0.25,
      "velocity": 1.0,
      "role": "melody",
      "is_tied": false
    },
    {
      "midi": 69,
      "name": "A4",
      "start": 172.9395,
      "duration": 0.2239,
      "bar": 48,
      "beat": 4.5,
      "duration_beats": 0.25,
      "velocity": 0.81,
      "role": "melody",
      "is_tied": false
    },
    {
      "midi": 49,
      "name": "C#3",
      "start": 172.9395,
      "duration": 0.6716,
      "bar": 48,
      "beat": 4.5,
      "duration_beats": 0.75,
      "velocity": 0.31,
      "role": "chord",
      "is_tied": false
    },
    {
      "midi": 76,
      "name": "E5",
      "start": 173.3873,
      "duration": 0.2239,
      "bar": 49,
      "beat": 1.0,
      "duration_beats": 0.25,
      "velocity": 1.0,
      "role": "melody",
      "is_tied": false
    },
    {
      "midi": 76,
      "name": "E5",
      "start": 173.3873,
      "duration": 0.6716,
      "bar": 49,
      "beat": 1.0,
      "duration_beats": 0.75,
      "velocity": 0.87,
      "role": "melody",
      "is_tied": false
    },
    {
      "midi": 73,
      "name": "C#5",
      "start": 173.3873,
      "duration": 0.2239,
      "bar": 49,
      "beat": 1.0,
      "duration_beats": 0.25,
      "velocity": 0.57,
      "role": "melody",
      "is_tied": false
    },
    {
      "midi": 61,
      "name": "C#4",
      "start": 173.3873,
      "duration": 0.6716,
      "bar": 49,
      "beat": 1.0,
      "duration_beats": 0.75,
      "velocity": 0.78,
      "role": "chord",
      "is_tied": false
    },
    {
      "midi": 58,
      "name": "A#3",
      "start": 173.3873,
      "duration": 0.2239,
      "bar": 49,
      "beat": 1.0,
      "duration_beats": 0.25,
      "velocity": 0.52,
      "role": "chord",
      "is_tied": false
    },
    {
      "midi": 57,
      "name": "A3",
      "start": 173.3873,
      "duration": 0.4478,
      "bar": 49,
      "beat": 1.0,
      "duration_beats": 0.5,
      "velocity": 0.32,
      "role": "chord",
      "is_tied": false
    },
    {
      "midi": 54,
      "name": "F#3",
      "start": 173.3873,
      "duration": 0.6716,
      "bar": 49,
      "beat": 1.0,
      "duration_beats": 0.75,
      "velocity": 0.42,
      "role": "chord",
      "is_tied": false
    },
    {
      "midi": 52,
      "name": "E3",
      "start": 173.3873,
      "duration": 0.2239,
      "bar": 49,
      "beat": 1.0,
      "duration_beats": 0.25,
      "velocity": 1.0,
      "role": "bass",
      "is_tied": true
    },
    {
      "midi": 52,
      "name": "E3",
      "start": 173.3873,
      "duration": 0.6716,
      "bar": 49,
      "beat": 1.0,
      "duration_beats": 0.75,
      "velocity": 1.0,
      "role": "bass",
      "is_tied": false
    },
    {
      "midi": 50,
      "name": "D3",
      "start": 173.3873,
      "duration": 0.2239,
      "bar": 49,
      "beat": 1.0,
      "duration_beats": 0.25,
      "velocity": 0.68,
      "role": "chord",
      "is_tied": false
    },
    {
      "midi": 49,
      "name": "C#3",
      "start": 173.8351,
      "duration": 0.2239,
      "bar": 49,
      "beat": 1.5,
      "duration_beats": 0.25,
      "velocity": 0.49,
      "role": "chord",
      "is_tied": true
    },
    {
      "midi": 42,
      "name": "F#2",
      "start": 173.8351,
      "duration": 0.2239,
      "bar": 49,
      "beat": 1.5,
      "duration_beats": 0.25,
      "velocity": 1.0,
      "role": "bass",
      "is_tied": false
    },
    {
      "midi": 78,
      "name": "F#5",
      "start": 174.2828,
      "duration": 0.2239,
      "bar": 49,
      "beat": 2.0,
      "duration_beats": 0.25,
      "velocity": 1.0,
      "role": "melody",
      "is_tied": false
    },
    {
      "midi": 76,
      "name": "E5",
      "start": 174.2828,
      "duration": 0.2239,
      "bar": 49,
      "beat": 2.0,
      "duration_beats": 0.25,
      "velocity": 1.0,
      "role": "melody",
      "is_tied": false
    },
    {
      "midi": 57,
      "name": "A3",
      "start": 174.2828,
      "duration": 0.2239,
      "bar": 49,
      "beat": 2.0,
      "duration_beats": 0.25,
      "velocity": 0.37,
      "role": "chord",
      "is_tied": false
    },
    {
      "midi": 52,
      "name": "E3",
      "start": 174.2828,
      "duration": 0.2239,
      "bar": 49,
      "beat": 2.0,
      "duration_beats": 0.25,
      "velocity": 1.0,
      "role": "bass",
      "is_tied": false
    },
    {
      "midi": 49,
      "name": "C#3",
      "start": 174.2828,
      "duration": 0.2239,
      "bar": 49,
      "beat": 2.0,
      "duration_beats": 0.25,
      "velocity": 0.47,
      "role": "chord",
      "is_tied": false
    },
    {
      "midi": 78,
      "name": "F#5",
      "start": 174.7306,
      "duration": 0.2239,
      "bar": 49,
      "beat": 2.5,
      "duration_beats": 0.25,
      "velocity": 1.0,
      "role": "melody",
      "is_tied": false
    },
    {
      "midi": 76,
      "name": "E5",
      "start": 174.7306,
      "duration": 0.2239,
      "bar": 49,
      "beat": 2.5,
      "duration_beats": 0.25,
      "velocity": 1.0,
      "role": "melody",
      "is_tied": false
    },
    {
      "midi": 57,
      "name": "A3",
      "start": 174.7306,
      "duration": 0.2239,
      "bar": 49,
      "beat": 2.5,
      "duration_beats": 0.25,
      "velocity": 0.85,
      "role": "chord",
      "is_tied": false
    },
    {
      "midi": 54,
      "name": "F#3",
      "start": 174.7306,
      "duration": 0.2239,
      "bar": 49,
      "beat": 2.5,
      "duration_beats": 0.25,
      "velocity": 0.85,
      "role": "chord",
      "is_tied": false
    },
    {
      "midi": 52,
      "name": "E3",
      "start": 174.7306,
      "duration": 0.2239,
      "bar": 49,
      "beat": 2.5,
      "duration_beats": 0.25,
      "velocity": 0.76,
      "role": "chord",
      "is_tied": false
    },
    {
      "midi": 46,
      "name": "A#2",
      "start": 174.7306,
      "duration": 0.2239,
      "bar": 49,
      "beat": 2.5,
      "duration_beats": 0.25,
      "velocity": 1.0,
      "role": "bass",
      "is_tied": false
    },
    {
      "midi": 76,
      "name": "E5",
      "start": 175.1783,
      "duration": 0.2239,
      "bar": 49,
      "beat": 3.0,
      "duration_beats": 0.25,
      "velocity": 0.76,
      "role": "melody",
      "is_tied": false
    },
    {
      "midi": 74,
      "name": "D5",
      "start": 175.1783,
      "duration": 0.2239,
      "bar": 49,
      "beat": 3.0,
      "duration_beats": 0.25,
      "velocity": 1.0,
      "role": "melody",
      "is_tied": false
    },
    {
      "midi": 74,
      "name": "D5",
      "start": 175.1783,
      "duration": 0.2239,
      "bar": 49,
      "beat": 3.0,
      "duration_beats": 0.25,
      "velocity": 0.94,
      "role": "melody",
      "is_tied": false
    },
    {
      "midi": 72,
      "name": "C5",
      "start": 175.1783,
      "duration": 0.8955,
      "bar": 49,
      "beat": 3.0,
      "duration_beats": 1.0,
      "velocity": 1.0,
      "role": "melody",
      "is_tied": false
    },
    {
      "midi": 45,
      "name": "A2",
      "start": 175.1783,
      "duration": 1.3433,
      "bar": 49,
      "beat": 3.0,
      "duration_beats": 1.5,
      "velocity": 1.0,
      "role": "bass",
      "is_tied": false
    },
    {
      "midi": 67,
      "name": "G4",
      "start": 175.6261,
      "duration": 0.2239,
      "bar": 49,
      "beat": 3.5,
      "duration_beats": 0.25,
      "velocity": 0.47,
      "role": "melody",
      "is_tied": false
    },
    {
      "midi": 60,
      "name": "C4",
      "start": 175.6261,
      "duration": 0.8955,
      "bar": 49,
      "beat": 3.5,
      "duration_beats": 1.0,
      "velocity": 0.66,
      "role": "chord",
      "is_tied": false
    },
    {
      "midi": 52,
      "name": "E3",
      "start": 175.6261,
      "duration": 0.4478,
      "bar": 49,
      "beat": 3.5,
      "duration_beats": 0.5,
      "velocity": 0.54,
      "role": "chord",
      "is_tied": false
    },
    {
      "midi": 71,
      "name": "B4",
      "start": 176.0739,
      "duration": 0.4478,
      "bar": 49,
      "beat": 4.0,
      "duration_beats": 0.5,
      "velocity": 0.34,
      "role": "melody",
      "is_tied": false
    },
    {
      "midi": 52,
      "name": "E3",
      "start": 176.0739,
      "duration": 0.4478,
      "bar": 49,
      "beat": 4.0,
      "duration_beats": 0.5,
      "velocity": 0.54,
      "role": "chord",
      "is_tied": false
    },
    {
      "midi": 81,
      "name": "A5",
      "start": 176.5216,
      "duration": 0.4478,
      "bar": 49,
      "beat": 4.5,
      "duration_beats": 0.5,
      "velocity": 0.82,
      "role": "melody",
      "is_tied": false
    },
    {
      "midi": 78,
      "name": "F#5",
      "start": 176.5216,
      "duration": 0.2239,
      "bar": 49,
      "beat": 4.5,
      "duration_beats": 0.25,
      "velocity": 1.0,
      "role": "melody",
      "is_tied": false
    },
    {
      "midi": 64,
      "name": "E4",
      "start": 176.5216,
      "duration": 0.2239,
      "bar": 49,
      "beat": 4.5,
      "duration_beats": 0.25,
      "velocity": 1.0,
      "role": "melody",
      "is_tied": false
    },
    {
      "midi": 60,
      "name": "C4",
      "start": 176.5216,
      "duration": 0.2239,
      "bar": 49,
      "beat": 4.5,
      "duration_beats": 0.25,
      "velocity": 0.46,
      "role": "chord",
      "is_tied": true
    },
    {
      "midi": 60,
      "name": "C4",
      "start": 176.5216,
      "duration": 0.2239,
      "bar": 49,
      "beat": 4.5,
      "duration_beats": 0.25,
      "velocity": 0.49,
      "role": "chord",
      "is_tied": false
    },
    {
      "midi": 59,
      "name": "B3",
      "start": 176.5216,
      "duration": 0.2239,
      "bar": 49,
      "beat": 4.5,
      "duration_beats": 0.25,
      "velocity": 0.37,
      "role": "chord",
      "is_tied": false
    },
    {
      "midi": 55,
      "name": "G3",
      "start": 176.5216,
      "duration": 0.6716,
      "bar": 49,
      "beat": 4.5,
      "duration_beats": 0.75,
      "velocity": 0.74,
      "role": "chord",
      "is_tied": false
    },
    {
      "midi": 52,
      "name": "E3",
      "start": 176.5216,
      "duration": 0.4478,
      "bar": 49,
      "beat": 4.5,
      "duration_beats": 0.5,
      "velocity": 0.81,
      "role": "chord",
      "is_tied": false
    },
    {
      "midi": 83,
      "name": "B5",
      "start": 176.9694,
      "duration": 0.8955,
      "bar": 50,
      "beat": 1.0,
      "duration_beats": 1.0,
      "velocity": 1.0,
      "role": "melody",
      "is_tied": false
    },
    {
      "midi": 60,
      "name": "C4",
      "start": 176.9694,
      "duration": 0.4478,
      "bar": 50,
      "beat": 1.0,
      "duration_beats": 0.5,
      "velocity": 0.6,
      "role": "chord",
      "is_tied": false
    },
    {
      "midi": 50,
      "name": "D3",
      "start": 176.9694,
      "duration": 0.4478,
      "bar": 50,
      "beat": 1.0,
      "duration_beats": 0.5,
      "velocity": 0.64,
      "role": "chord",
      "is_tied": false
    },
    {
      "midi": 48,
      "name": "C3",
      "start": 176.9694,
      "duration": 0.2239,
      "bar": 50,
      "beat": 1.0,
      "duration_beats": 0.25,
      "velocity": 0.44,
      "role": "chord",
      "is_tied": false
    },
    {
      "midi": 41,
      "name": "F2",
      "start": 176.9694,
      "duration": 0.6716,
      "bar": 50,
      "beat": 1.0,
      "duration_beats": 0.75,
      "velocity": 1.0,
      "role": "bass",
      "is_tied": false
    },
    {
      "midi": 83,
      "name": "B5",
      "start": 177.4171,
      "duration": 0.2239,
      "bar": 50,
      "beat": 1.5,
      "duration_beats": 0.25,
      "velocity": 1.0,
      "role": "melody",
      "is_tied": false
    },
    {
      "midi": 82,
      "name": "A#5",
      "start": 177.4171,
      "duration": 0.2239,
      "bar": 50,
      "beat": 1.5,
      "duration_beats": 0.25,
      "velocity": 0.35,
      "role": "melody",
      "is_tied": false
    },
    {
      "midi": 81,
      "name": "A5",
      "start": 177.4171,
      "duration": 0.2239,
      "bar": 50,
      "beat": 1.5,
      "duration_beats": 0.25,
      "velocity": 0.75,
      "role": "melody",
      "is_tied": false
    },
    {
      "midi": 50,
      "name": "D3",
      "start": 177.4171,
      "duration": 0.2239,
      "bar": 50,
      "beat": 1.5,
      "duration_beats": 0.25,
      "velocity": 0.38,
      "role": "chord",
      "is_tied": false
    },
    {
      "midi": 43,
      "name": "G2",
      "start": 177.4171,
      "duration": 0.4478,
      "bar": 50,
      "beat": 1.5,
      "duration_beats": 0.5,
      "velocity": 0.73,
      "role": "bass",
      "is_tied": false
    },
    {
      "midi": 69,
      "name": "A4",
      "start": 177.8649,
      "duration": 0.2239,
      "bar": 50,
      "beat": 2.0,
      "duration_beats": 0.25,
      "velocity": 0.51,
      "role": "melody",
      "is_tied": false
    },
    {
      "midi": 44,
      "name": "G#2",
      "start": 177.8649,
      "duration": 0.8955,
      "bar": 50,
      "beat": 2.0,
      "duration_beats": 1.0,
      "velocity": 1.0,
      "role": "bass",
      "is_tied": false
    },
    {
      "midi": 84,
      "name": "C6",
      "start": 178.3127,
      "duration": 0.2239,
      "bar": 50,
      "beat": 2.5,
      "duration_beats": 0.25,
      "velocity": 1.0,
      "role": "melody",
      "is_tied": false
    },
    {
      "midi": 72,
      "name": "C5",
      "start": 178.3127,
      "duration": 0.2239,
      "bar": 50,
      "beat": 2.5,
      "duration_beats": 0.25,
      "velocity": 0.38,
      "role": "melody",
      "is_tied": false
    },
    {
      "midi": 60,
      "name": "C4",
      "start": 178.3127,
      "duration": 0.6716,
      "bar": 50,
      "beat": 2.5,
      "duration_beats": 0.75,
      "velocity": 0.65,
      "role": "chord",
      "is_tied": false
    },
    {
      "midi": 54,
      "name": "F#3",
      "start": 178.3127,
      "duration": 1.791,
      "bar": 50,
      "beat": 2.5,
      "duration_beats": 2.0,
      "velocity": 0.86,
      "role": "bass",
      "is_tied": false
    },
    {
      "midi": 48,
      "name": "C3",
      "start": 178.3127,
      "duration": 0.4478,
      "bar": 50,
      "beat": 2.5,
      "duration_beats": 0.5,
      "velocity": 0.33,
      "role": "chord",
      "is_tied": false
    },
    {
      "midi": 81,
      "name": "A5",
      "start": 178.7604,
      "duration": 0.2239,
      "bar": 50,
      "beat": 3.0,
      "duration_beats": 0.25,
      "velocity": 1.0,
      "role": "melody",
      "is_tied": false
    },
    {
      "midi": 74,
      "name": "D5",
      "start": 178.7604,
      "duration": 0.2239,
      "bar": 50,
      "beat": 3.0,
      "duration_beats": 0.25,
      "velocity": 1.0,
      "role": "melody",
      "is_tied": false
    },
    {
      "midi": 56,
      "name": "G#3",
      "start": 178.7604,
      "duration": 0.2239,
      "bar": 50,
      "beat": 3.0,
      "duration_beats": 0.25,
      "velocity": 0.31,
      "role": "chord",
      "is_tied": true
    },
    {
      "midi": 43,
      "name": "G2",
      "start": 178.7604,
      "duration": 0.8955,
      "bar": 50,
      "beat": 3.0,
      "duration_beats": 1.0,
      "velocity": 1.0,
      "role": "bass",
      "is_tied": false
    },
    {
      "midi": 83,
      "name": "B5",
      "start": 179.2082,
      "duration": 0.6716,
      "bar": 50,
      "beat": 3.5,
      "duration_beats": 0.75,
      "velocity": 1.0,
      "role": "melody",
      "is_tied": false
    },
    {
      "midi": 74,
      "name": "D5",
      "start": 179.2082,
      "duration": 0.2239,
      "bar": 50,
      "beat": 3.5,
      "duration_beats": 0.25,
      "velocity": 1.0,
      "role": "melody",
      "is_tied": false
    },
    {
      "midi": 67,
      "name": "G4",
      "start": 179.2082,
      "duration": 0.4478,
      "bar": 50,
      "beat": 3.5,
      "duration_beats": 0.5,
      "velocity": 0.41,
      "role": "chord",
      "is_tied": false
    },
    {
      "midi": 78,
      "name": "F#5",
      "start": 179.656,
      "duration": 0.4478,
      "bar": 50,
      "beat": 4.0,
      "duration_beats": 0.5,
      "velocity": 0.45,
      "role": "melody",
      "is_tied": false
    },
    {
      "midi": 65,
      "name": "F4",
      "start": 179.656,
      "duration": 0.2239,
      "bar": 50,
      "beat": 4.0,
      "duration_beats": 0.25,
      "velocity": 1.0,
      "role": "chord",
      "is_tied": false
    },
    {
      "midi": 59,
      "name": "B3",
      "start": 179.656,
      "duration": 0.2239,
      "bar": 50,
      "beat": 4.0,
      "duration_beats": 0.25,
      "velocity": 0.49,
      "role": "chord",
      "is_tied": true
    },
    {
      "midi": 57,
      "name": "A3",
      "start": 179.656,
      "duration": 0.2239,
      "bar": 50,
      "beat": 4.0,
      "duration_beats": 0.25,
      "velocity": 0.83,
      "role": "chord",
      "is_tied": false
    },
    {
      "midi": 50,
      "name": "D3",
      "start": 179.656,
      "duration": 0.2239,
      "bar": 50,
      "beat": 4.0,
      "duration_beats": 0.25,
      "velocity": 1.0,
      "role": "chord",
      "is_tied": true
    },
    {
      "midi": 83,
      "name": "B5",
      "start": 180.1037,
      "duration": 0.4478,
      "bar": 50,
      "beat": 4.5,
      "duration_beats": 0.5,
      "velocity": 1.0,
      "role": "melody",
      "is_tied": false
    },
    {
      "midi": 60,
      "name": "C4",
      "start": 180.1037,
      "duration": 0.6716,
      "bar": 50,
      "beat": 4.5,
      "duration_beats": 0.75,
      "velocity": 0.66,
      "role": "chord",
      "is_tied": false
    },
    {
      "midi": 57,
      "name": "A3",
      "start": 180.1037,
      "duration": 0.6716,
      "bar": 50,
      "beat": 4.5,
      "duration_beats": 0.75,
      "velocity": 0.77,
      "role": "chord",
      "is_tied": false
    },
    {
      "midi": 53,
      "name": "F3",
      "start": 180.1037,
      "duration": 1.3433,
      "bar": 50,
      "beat": 4.5,
      "duration_beats": 1.5,
      "velocity": 0.73,
      "role": "chord",
      "is_tied": false
    },
    {
      "midi": 74,
      "name": "D5",
      "start": 180.5515,
      "duration": 1.3433,
      "bar": 51,
      "beat": 1.0,
      "duration_beats": 1.5,
      "velocity": 0.92,
      "role": "melody",
      "is_tied": false
    },
    {
      "midi": 70,
      "name": "A#4",
      "start": 180.5515,
      "duration": 0.4478,
      "bar": 51,
      "beat": 1.0,
      "duration_beats": 0.5,
      "velocity": 0.47,
      "role": "chord",
      "is_tied": false
    },
    {
      "midi": 69,
      "name": "A4",
      "start": 180.5515,
      "duration": 0.4478,
      "bar": 51,
      "beat": 1.0,
      "duration_beats": 0.5,
      "velocity": 0.96,
      "role": "chord",
      "is_tied": false
    },
    {
      "midi": 50,
      "name": "D3",
      "start": 180.5515,
      "duration": 0.8955,
      "bar": 51,
      "beat": 1.0,
      "duration_beats": 1.0,
      "velocity": 0.41,
      "role": "chord",
      "is_tied": false
    },
    {
      "midi": 41,
      "name": "F2",
      "start": 180.5515,
      "duration": 0.2239,
      "bar": 51,
      "beat": 1.0,
      "duration_beats": 0.25,
      "velocity": 1.0,
      "role": "bass",
      "is_tied": true
    },
    {
      "midi": 83,
      "name": "B5",
      "start": 180.9992,
      "duration": 0.4478,
      "bar": 51,
      "beat": 1.5,
      "duration_beats": 0.5,
      "velocity": 1.0,
      "role": "melody",
      "is_tied": false
    },
    {
      "midi": 41,
      "name": "F2",
      "start": 180.9992,
      "duration": 0.4478,
      "bar": 51,
      "beat": 1.5,
      "duration_beats": 0.5,
      "velocity": 1.0,
      "role": "bass",
      "is_tied": false
    },
    {
      "midi": 40,
      "name": "E2",
      "start": 180.9992,
      "duration": 0.4478,
      "bar": 51,
      "beat": 1.5,
      "duration_beats": 0.5,
      "velocity": 1.0,
      "role": "bass",
      "is_tied": false
    },
    {
      "midi": 70,
      "name": "A#4",
      "start": 181.447,
      "duration": 0.2239,
      "bar": 51,
      "beat": 2.0,
      "duration_beats": 0.25,
      "velocity": 0.87,
      "role": "chord",
      "is_tied": false
    },
    {
      "midi": 55,
      "name": "G3",
      "start": 181.447,
      "duration": 0.2239,
      "bar": 51,
      "beat": 2.0,
      "duration_beats": 0.25,
      "velocity": 0.44,
      "role": "chord",
      "is_tied": false
    },
    {
      "midi": 54,
      "name": "F#3",
      "start": 181.447,
      "duration": 0.2239,
      "bar": 51,
      "beat": 2.0,
      "duration_beats": 0.25,
      "velocity": 0.67,
      "role": "chord",
      "is_tied": false
    },
    {
      "midi": 50,
      "name": "D3",
      "start": 181.447,
      "duration": 0.2239,
      "bar": 51,
      "beat": 2.0,
      "duration_beats": 0.25,
      "velocity": 0.89,
      "role": "chord",
      "is_tied": true
    },
    {
      "midi": 83,
      "name": "B5",
      "start": 181.8948,
      "duration": 0.2239,
      "bar": 51,
      "beat": 2.5,
      "duration_beats": 0.25,
      "velocity": 1.0,
      "role": "melody",
      "is_tied": false
    },
    {
      "midi": 69,
      "name": "A4",
      "start": 181.8948,
      "duration": 0.4478,
      "bar": 51,
      "beat": 2.5,
      "duration_beats": 0.5,
      "velocity": 1.0,
      "role": "melody",
      "is_tied": false
    },
    {
      "midi": 59,
      "name": "B3",
      "start": 181.8948,
      "duration": 0.2239,
      "bar": 51,
      "beat": 2.5,
      "duration_beats": 0.25,
      "velocity": 0.34,
      "role": "chord",
      "is_tied": false
    },
    {
      "midi": 55,
      "name": "G3",
      "start": 181.8948,
      "duration": 0.2239,
      "bar": 51,
      "beat": 2.5,
      "duration_beats": 0.25,
      "velocity": 0.44,
      "role": "chord",
      "is_tied": false
    },
    {
      "midi": 54,
      "name": "F#3",
      "start": 181.8948,
      "duration": 0.6716,
      "bar": 51,
      "beat": 2.5,
      "duration_beats": 0.75,
      "velocity": 0.43,
      "role": "bass",
      "is_tied": false
    },
    {
      "midi": 52,
      "name": "E3",
      "start": 181.8948,
      "duration": 0.4478,
      "bar": 51,
      "beat": 2.5,
      "duration_beats": 0.5,
      "velocity": 0.52,
      "role": "chord",
      "is_tied": false
    },
    {
      "midi": 50,
      "name": "D3",
      "start": 181.8948,
      "duration": 0.6716,
      "bar": 51,
      "beat": 2.5,
      "duration_beats": 0.75,
      "velocity": 0.89,
      "role": "chord",
      "is_tied": false
    },
    {
      "midi": 74,
      "name": "D5",
      "start": 182.3425,
      "duration": 0.2239,
      "bar": 51,
      "beat": 3.0,
      "duration_beats": 0.25,
      "velocity": 0.64,
      "role": "melody",
      "is_tied": false
    },
    {
      "midi": 69,
      "name": "A4",
      "start": 182.3425,
      "duration": 0.2239,
      "bar": 51,
      "beat": 3.0,
      "duration_beats": 0.25,
      "velocity": 0.52,
      "role": "melody",
      "is_tied": false
    },
    {
      "midi": 52,
      "name": "E3",
      "start": 182.3425,
      "duration": 0.2239,
      "bar": 51,
      "beat": 3.0,
      "duration_beats": 0.25,
      "velocity": 0.52,
      "role": "chord",
      "is_tied": false
    },
    {
      "midi": 50,
      "name": "D3",
      "start": 182.3425,
      "duration": 0.2239,
      "bar": 51,
      "beat": 3.0,
      "duration_beats": 0.25,
      "velocity": 0.89,
      "role": "chord",
      "is_tied": false
    },
    {
      "midi": 43,
      "name": "G2",
      "start": 182.3425,
      "duration": 0.2239,
      "bar": 51,
      "beat": 3.0,
      "duration_beats": 0.25,
      "velocity": 1.0,
      "role": "bass",
      "is_tied": false
    },
    {
      "midi": 74,
      "name": "D5",
      "start": 182.7903,
      "duration": 0.2239,
      "bar": 51,
      "beat": 3.5,
      "duration_beats": 0.25,
      "velocity": 0.61,
      "role": "melody",
      "is_tied": false
    },
    {
      "midi": 69,
      "name": "A4",
      "start": 182.7903,
      "duration": 0.2239,
      "bar": 51,
      "beat": 3.5,
      "duration_beats": 0.25,
      "velocity": 0.54,
      "role": "melody",
      "is_tied": false
    },
    {
      "midi": 58,
      "name": "A#3",
      "start": 182.7903,
      "duration": 0.4478,
      "bar": 51,
      "beat": 3.5,
      "duration_beats": 0.5,
      "velocity": 0.97,
      "role": "chord",
      "is_tied": false
    },
    {
      "midi": 50,
      "name": "D3",
      "start": 182.7903,
      "duration": 0.2239,
      "bar": 51,
      "beat": 3.5,
      "duration_beats": 0.25,
      "velocity": 0.65,
      "role": "chord",
      "is_tied": false
    },
    {
      "midi": 70,
      "name": "A#4",
      "start": 183.238,
      "duration": 0.4478,
      "bar": 51,
      "beat": 4.0,
      "duration_beats": 0.5,
      "velocity": 0.6,
      "role": "chord",
      "is_tied": false
    },
    {
      "midi": 69,
      "name": "A4",
      "start": 183.238,
      "duration": 0.2239,
      "bar": 51,
      "beat": 4.0,
      "duration_beats": 0.25,
      "velocity": 0.54,
      "role": "melody",
      "is_tied": false
    },
    {
      "midi": 67,
      "name": "G4",
      "start": 183.238,
      "duration": 0.2239,
      "bar": 51,
      "beat": 4.0,
      "duration_beats": 0.25,
      "velocity": 0.84,
      "role": "melody",
      "is_tied": false
    },
    {
      "midi": 67,
      "name": "G4",
      "start": 183.238,
      "duration": 0.2239,
      "bar": 51,
      "beat": 4.0,
      "duration_beats": 0.25,
      "velocity": 0.72,
      "role": "melody",
      "is_tied": false
    },
    {
      "midi": 50,
      "name": "D3",
      "start": 183.238,
      "duration": 0.2239,
      "bar": 51,
      "beat": 4.0,
      "duration_beats": 0.25,
      "velocity": 0.72,
      "role": "chord",
      "is_tied": false
    },
    {
      "midi": 41,
      "name": "F2",
      "start": 183.238,
      "duration": 0.2239,
      "bar": 51,
      "beat": 4.0,
      "duration_beats": 0.25,
      "velocity": 0.73,
      "role": "bass",
      "is_tied": false
    },
    {
      "midi": 41,
      "name": "F2",
      "start": 183.238,
      "duration": 0.2239,
      "bar": 51,
      "beat": 4.0,
      "duration_beats": 0.25,
      "velocity": 0.81,
      "role": "bass",
      "is_tied": false
    },
    {
      "midi": 74,
      "name": "D5",
      "start": 183.6858,
      "duration": 0.4478,
      "bar": 51,
      "beat": 4.5,
      "duration_beats": 0.5,
      "velocity": 0.86,
      "role": "melody",
      "is_tied": false
    },
    {
      "midi": 68,
      "name": "G#4",
      "start": 183.6858,
      "duration": 0.2239,
      "bar": 51,
      "beat": 4.5,
      "duration_beats": 0.25,
      "velocity": 1.0,
      "role": "melody",
      "is_tied": false
    },
    {
      "midi": 64,
      "name": "E4",
      "start": 183.6858,
      "duration": 0.2239,
      "bar": 51,
      "beat": 4.5,
      "duration_beats": 0.25,
      "velocity": 0.51,
      "role": "chord",
      "is_tied": false
    },
    {
      "midi": 46,
      "name": "A#2",
      "start": 183.6858,
      "duration": 0.2239,
      "bar": 51,
      "beat": 4.5,
      "duration_beats": 0.25,
      "velocity": 1.0,
      "role": "bass",
      "is_tied": true
    },
    {
      "midi": 34,
      "name": "A#1",
      "start": 183.6858,
      "duration": 0.4478,
      "bar": 51,
      "beat": 4.5,
      "duration_beats": 0.5,
      "velocity": 0.5,
      "role": "bass",
      "is_tied": false
    },
    {
      "midi": 74,
      "name": "D5",
      "start": 184.1336,
      "duration": 0.2239,
      "bar": 52,
      "beat": 1.0,
      "duration_beats": 0.25,
      "velocity": 1.0,
      "role": "melody",
      "is_tied": false
    },
    {
      "midi": 74,
      "name": "D5",
      "start": 184.1336,
      "duration": 0.2239,
      "bar": 52,
      "beat": 1.0,
      "duration_beats": 0.25,
      "velocity": 0.9,
      "role": "melody",
      "is_tied": false
    },
    {
      "midi": 48,
      "name": "C3",
      "start": 184.1336,
      "duration": 0.2239,
      "bar": 52,
      "beat": 1.0,
      "duration_beats": 0.25,
      "velocity": 0.51,
      "role": "chord",
      "is_tied": false
    },
    {
      "midi": 48,
      "name": "C3",
      "start": 184.1336,
      "duration": 0.2239,
      "bar": 52,
      "beat": 1.0,
      "duration_beats": 0.25,
      "velocity": 0.51,
      "role": "chord",
      "is_tied": false
    },
    {
      "midi": 76,
      "name": "E5",
      "start": 184.5813,
      "duration": 0.2239,
      "bar": 52,
      "beat": 1.5,
      "duration_beats": 0.25,
      "velocity": 0.65,
      "role": "melody",
      "is_tied": false
    },
    {
      "midi": 74,
      "name": "D5",
      "start": 184.5813,
      "duration": 0.6716,
      "bar": 52,
      "beat": 1.5,
      "duration_beats": 0.75,
      "velocity": 1.0,
      "role": "melody",
      "is_tied": false
    },
    {
      "midi": 60,
      "name": "C4",
      "start": 184.5813,
      "duration": 0.2239,
      "bar": 52,
      "beat": 1.5,
      "duration_beats": 0.25,
      "velocity": 0.64,
      "role": "chord",
      "is_tied": false
    },
    {
      "midi": 53,
      "name": "F3",
      "start": 184.5813,
      "duration": 0.2239,
      "bar": 52,
      "beat": 1.5,
      "duration_beats": 0.25,
      "velocity": 0.64,
      "role": "chord",
      "is_tied": false
    },
    {
      "midi": 50,
      "name": "D3",
      "start": 184.5813,
      "duration": 0.2239,
      "bar": 52,
      "beat": 1.5,
      "duration_beats": 0.25,
      "velocity": 0.92,
      "role": "chord",
      "is_tied": false
    },
    {
      "midi": 41,
      "name": "F2",
      "start": 184.5813,
      "duration": 0.2239,
      "bar": 52,
      "beat": 1.5,
      "duration_beats": 0.25,
      "velocity": 0.94,
      "role": "bass",
      "is_tied": false
    },
    {
      "midi": 76,
      "name": "E5",
      "start": 185.0291,
      "duration": 0.2239,
      "bar": 52,
      "beat": 2.0,
      "duration_beats": 0.25,
      "velocity": 0.65,
      "role": "melody",
      "is_tied": true
    },
    {
      "midi": 50,
      "name": "D3",
      "start": 185.0291,
      "duration": 0.2239,
      "bar": 52,
      "beat": 2.0,
      "duration_beats": 0.25,
      "velocity": 0.87,
      "role": "chord",
      "is_tied": true
    },
    {
      "midi": 41,
      "name": "F2",
      "start": 185.0291,
      "duration": 0.2239,
      "bar": 52,
      "beat": 2.0,
      "duration_beats": 0.25,
      "velocity": 1.0,
      "role": "bass",
      "is_tied": true
    },
    {
      "midi": 79,
      "name": "G5",
      "start": 185.4769,
      "duration": 0.4478,
      "bar": 52,
      "beat": 2.5,
      "duration_beats": 0.5,
      "velocity": 0.36,
      "role": "melody",
      "is_tied": false
    },
    {
      "midi": 67,
      "name": "G4",
      "start": 185.4769,
      "duration": 0.4478,
      "bar": 52,
      "beat": 2.5,
      "duration_beats": 0.5,
      "velocity": 0.83,
      "role": "chord",
      "is_tied": false
    },
    {
      "midi": 62,
      "name": "D4",
      "start": 185.4769,
      "duration": 0.8955,
      "bar": 52,
      "beat": 2.5,
      "duration_beats": 1.0,
      "velocity": 1.0,
      "role": "chord",
      "is_tied": false
    },
    {
      "midi": 58,
      "name": "A#3",
      "start": 185.4769,
      "duration": 0.4478,
      "bar": 52,
      "beat": 2.5,
      "duration_beats": 0.5,
      "velocity": 1.0,
      "role": "chord",
      "is_tied": false
    },
    {
      "midi": 72,
      "name": "C5",
      "start": 185.9246,
      "duration": 0.2239,
      "bar": 52,
      "beat": 3.0,
      "duration_beats": 0.25,
      "velocity": 0.63,
      "role": "melody",
      "is_tied": false
    },
    {
      "midi": 60,
      "name": "C4",
      "start": 185.9246,
      "duration": 0.4478,
      "bar": 52,
      "beat": 3.0,
      "duration_beats": 0.5,
      "velocity": 0.86,
      "role": "chord",
      "is_tied": false
    },
    {
      "midi": 55,
      "name": "G3",
      "start": 185.9246,
      "duration": 0.4478,
      "bar": 52,
      "beat": 3.0,
      "duration_beats": 0.5,
      "velocity": 0.65,
      "role": "chord",
      "is_tied": false
    },
    {
      "midi": 40,
      "name": "E2",
      "start": 185.9246,
      "duration": 0.2239,
      "bar": 52,
      "beat": 3.0,
      "duration_beats": 0.25,
      "velocity": 1.0,
      "role": "bass",
      "is_tied": false
    },
    {
      "midi": 74,
      "name": "D5",
      "start": 186.3724,
      "duration": 0.2239,
      "bar": 52,
      "beat": 3.5,
      "duration_beats": 0.25,
      "velocity": 0.63,
      "role": "melody",
      "is_tied": false
    },
    {
      "midi": 50,
      "name": "D3",
      "start": 186.3724,
      "duration": 0.2239,
      "bar": 52,
      "beat": 3.5,
      "duration_beats": 0.25,
      "velocity": 0.54,
      "role": "chord",
      "is_tied": false
    },
    {
      "midi": 45,
      "name": "A2",
      "start": 186.3724,
      "duration": 0.2239,
      "bar": 52,
      "beat": 3.5,
      "duration_beats": 0.25,
      "velocity": 1.0,
      "role": "bass",
      "is_tied": false
    },
    {
      "midi": 38,
      "name": "D2",
      "start": 186.3724,
      "duration": 0.4478,
      "bar": 52,
      "beat": 3.5,
      "duration_beats": 0.5,
      "velocity": 0.66,
      "role": "bass",
      "is_tied": false
    },
    {
      "midi": 73,
      "name": "C#5",
      "start": 186.8201,
      "duration": 0.2239,
      "bar": 52,
      "beat": 4.0,
      "duration_beats": 0.25,
      "velocity": 0.35,
      "role": "melody",
      "is_tied": false
    },
    {
      "midi": 66,
      "name": "F#4",
      "start": 186.8201,
      "duration": 0.2239,
      "bar": 52,
      "beat": 4.0,
      "duration_beats": 0.25,
      "velocity": 0.31,
      "role": "melody",
      "is_tied": false
    },
    {
      "midi": 79,
      "name": "G5",
      "start": 187.2679,
      "duration": 0.6716,
      "bar": 52,
      "beat": 4.5,
      "duration_beats": 0.75,
      "velocity": 0.31,
      "role": "melody",
      "is_tied": false
    },
    {
      "midi": 79,
      "name": "G5",
      "start": 187.2679,
      "duration": 0.4478,
      "bar": 52,
      "beat": 4.5,
      "duration_beats": 0.5,
      "velocity": 0.31,
      "role": "melody",
      "is_tied": false
    },
    {
      "midi": 52,
      "name": "E3",
      "start": 187.2679,
      "duration": 0.6716,
      "bar": 52,
      "beat": 4.5,
      "duration_beats": 0.75,
      "velocity": 0.48,
      "role": "chord",
      "is_tied": false
    },
    {
      "midi": 52,
      "name": "E3",
      "start": 187.2679,
      "duration": 0.4478,
      "bar": 52,
      "beat": 4.5,
      "duration_beats": 0.5,
      "velocity": 0.66,
      "role": "chord",
      "is_tied": false
    },
    {
      "midi": 45,
      "name": "A2",
      "start": 187.2679,
      "duration": 0.6716,
      "bar": 52,
      "beat": 4.5,
      "duration_beats": 0.75,
      "velocity": 1.0,
      "role": "bass",
      "is_tied": false
    },
    {
      "midi": 82,
      "name": "A#5",
      "start": 187.7157,
      "duration": 0.2239,
      "bar": 53,
      "beat": 1.0,
      "duration_beats": 0.25,
      "velocity": 1.0,
      "role": "melody",
      "is_tied": false
    },
    {
      "midi": 78,
      "name": "F#5",
      "start": 187.7157,
      "duration": 0.2239,
      "bar": 53,
      "beat": 1.0,
      "duration_beats": 0.25,
      "velocity": 1.0,
      "role": "melody",
      "is_tied": false
    },
    {
      "midi": 57,
      "name": "A3",
      "start": 187.7157,
      "duration": 0.6716,
      "bar": 53,
      "beat": 1.0,
      "duration_beats": 0.75,
      "velocity": 0.36,
      "role": "chord",
      "is_tied": false
    },
    {
      "midi": 54,
      "name": "F#3",
      "start": 187.7157,
      "duration": 0.4478,
      "bar": 53,
      "beat": 1.0,
      "duration_beats": 0.5,
      "velocity": 0.66,
      "role": "chord",
      "is_tied": false
    },
    {
      "midi": 49,
      "name": "C#3",
      "start": 187.7157,
      "duration": 0.2239,
      "bar": 53,
      "beat": 1.0,
      "duration_beats": 0.25,
      "velocity": 0.4,
      "role": "chord",
      "is_tied": false
    },
    {
      "midi": 49,
      "name": "C#3",
      "start": 187.7157,
      "duration": 0.2239,
      "bar": 53,
      "beat": 1.0,
      "duration_beats": 0.25,
      "velocity": 0.31,
      "role": "chord",
      "is_tied": false
    },
    {
      "midi": 40,
      "name": "E2",
      "start": 187.7157,
      "duration": 0.2239,
      "bar": 53,
      "beat": 1.0,
      "duration_beats": 0.25,
      "velocity": 0.7,
      "role": "bass",
      "is_tied": false
    },
    {
      "midi": 50,
      "name": "D3",
      "start": 188.1634,
      "duration": 0.2239,
      "bar": 53,
      "beat": 1.5,
      "duration_beats": 0.25,
      "velocity": 0.32,
      "role": "chord",
      "is_tied": false
    },
    {
      "midi": 42,
      "name": "F#2",
      "start": 188.1634,
      "duration": 0.2239,
      "bar": 53,
      "beat": 1.5,
      "duration_beats": 0.25,
      "velocity": 1.0,
      "role": "bass",
      "is_tied": false
    },
    {
      "midi": 40,
      "name": "E2",
      "start": 188.1634,
      "duration": 0.4478,
      "bar": 53,
      "beat": 1.5,
      "duration_beats": 0.5,
      "velocity": 0.71,
      "role": "bass",
      "is_tied": false
    },
    {
      "midi": 79,
      "name": "G5",
      "start": 188.6112,
      "duration": 0.2239,
      "bar": 53,
      "beat": 2.0,
      "duration_beats": 0.25,
      "velocity": 0.72,
      "role": "melody",
      "is_tied": true
    },
    {
      "midi": 78,
      "name": "F#5",
      "start": 188.6112,
      "duration": 0.2239,
      "bar": 53,
      "beat": 2.0,
      "duration_beats": 0.25,
      "velocity": 0.48,
      "role": "melody",
      "is_tied": false
    },
    {
      "midi": 78,
      "name": "F#5",
      "start": 188.6112,
      "duration": 0.2239,
      "bar": 53,
      "beat": 2.0,
      "duration_beats": 0.25,
      "velocity": 0.7,
      "role": "melody",
      "is_tied": false
    },
    {
      "midi": 57,
      "name": "A3",
      "start": 188.6112,
      "duration": 0.2239,
      "bar": 53,
      "beat": 2.0,
      "duration_beats": 0.25,
      "velocity": 0.78,
      "role": "chord",
      "is_tied": false
    },
    {
      "midi": 52,
      "name": "E3",
      "start": 188.6112,
      "duration": 0.2239,
      "bar": 53,
      "beat": 2.0,
      "duration_beats": 0.25,
      "velocity": 0.45,
      "role": "chord",
      "is_tied": false
    },
    {
      "midi": 50,
      "name": "D3",
      "start": 188.6112,
      "duration": 0.2239,
      "bar": 53,
      "beat": 2.0,
      "duration_beats": 0.25,
      "velocity": 0.62,
      "role": "chord",
      "is_tied": false
    },
    {
      "midi": 50,
      "name": "D3",
      "start": 188.6112,
      "duration": 0.2239,
      "bar": 53,
      "beat": 2.0,
      "duration_beats": 0.25,
      "velocity": 0.32,
      "role": "chord",
      "is_tied": false
    },
    {
      "midi": 78,
      "name": "F#5",
      "start": 189.0589,
      "duration": 0.2239,
      "bar": 53,
      "beat": 2.5,
      "duration_beats": 0.25,
      "velocity": 0.65,
      "role": "melody",
      "is_tied": false
    },
    {
      "midi": 74,
      "name": "D5",
      "start": 189.0589,
      "duration": 0.2239,
      "bar": 53,
      "beat": 2.5,
      "duration_beats": 0.25,
      "velocity": 1.0,
      "role": "melody",
      "is_tied": false
    },
    {
      "midi": 61,
      "name": "C#4",
      "start": 189.0589,
      "duration": 0.2239,
      "bar": 53,
      "beat": 2.5,
      "duration_beats": 0.25,
      "velocity": 0.65,
      "role": "chord",
      "is_tied": false
    },
    {
      "midi": 58,
      "name": "A#3",
      "start": 189.0589,
      "duration": 0.2239,
      "bar": 53,
      "beat": 2.5,
      "duration_beats": 0.25,
      "velocity": 0.67,
      "role": "chord",
      "is_tied": false
    },
    {
      "midi": 57,
      "name": "A3",
      "start": 189.0589,
      "duration": 0.2239,
      "bar": 53,
      "beat": 2.5,
      "duration_beats": 0.25,
      "velocity": 0.78,
      "role": "chord",
      "is_tied": false
    },
    {
      "midi": 52,
      "name": "E3",
      "start": 189.0589,
      "duration": 0.2239,
      "bar": 53,
      "beat": 2.5,
      "duration_beats": 0.25,
      "velocity": 0.37,
      "role": "chord",
      "is_tied": false
    },
    {
      "midi": 74,
      "name": "D5",
      "start": 189.5067,
      "duration": 0.2239,
      "bar": 53,
      "beat": 3.0,
      "duration_beats": 0.25,
      "velocity": 1.0,
      "role": "melody",
      "is_tied": false
    },
    {
      "midi": 74,
      "name": "D5",
      "start": 189.5067,
      "duration": 0.4478,
      "bar": 53,
      "beat": 3.0,
      "duration_beats": 0.5,
      "velocity": 0.94,
      "role": "melody",
      "is_tied": false
    },
    {
      "midi": 68,
      "name": "G#4",
      "start": 189.5067,
      "duration": 0.2239,
      "bar": 53,
      "beat": 3.0,
      "duration_beats": 0.25,
      "velocity": 0.72,
      "role": "chord",
      "is_tied": false
    },
    {
      "midi": 50,
      "name": "D3",
      "start": 189.5067,
      "duration": 0.2239,
      "bar": 53,
      "beat": 3.0,
      "duration_beats": 0.25,
      "velocity": 0.79,
      "role": "chord",
      "is_tied": false
    },
    {
      "midi": 50,
      "name": "D3",
      "start": 189.5067,
      "duration": 0.2239,
      "bar": 53,
      "beat": 3.0,
      "duration_beats": 0.25,
      "velocity": 0.79,
      "role": "chord",
      "is_tied": false
    },
    {
      "midi": 47,
      "name": "B2",
      "start": 189.5067,
      "duration": 0.2239,
      "bar": 53,
      "beat": 3.0,
      "duration_beats": 0.25,
      "velocity": 1.0,
      "role": "bass",
      "is_tied": false
    },
    {
      "midi": 74,
      "name": "D5",
      "start": 189.9545,
      "duration": 0.2239,
      "bar": 53,
      "beat": 3.5,
      "duration_beats": 0.25,
      "velocity": 0.88,
      "role": "melody",
      "is_tied": false
    },
    {
      "midi": 73,
      "name": "C#5",
      "start": 189.9545,
      "duration": 0.2239,
      "bar": 53,
      "beat": 3.5,
      "duration_beats": 0.25,
      "velocity": 0.98,
      "role": "melody",
      "is_tied": false
    },
    {
      "midi": 67,
      "name": "G4",
      "start": 189.9545,
      "duration": 0.2239,
      "bar": 53,
      "beat": 3.5,
      "duration_beats": 0.25,
      "velocity": 1.0,
      "role": "chord",
      "is_tied": false
    },
    {
      "midi": 46,
      "name": "A#2",
      "start": 189.9545,
      "duration": 0.2239,
      "bar": 53,
      "beat": 3.5,
      "duration_beats": 0.25,
      "velocity": 1.0,
      "role": "bass",
      "is_tied": false
    },
    {
      "midi": 72,
      "name": "C5",
      "start": 190.4022,
      "duration": 0.2239,
      "bar": 53,
      "beat": 4.0,
      "duration_beats": 0.25,
      "velocity": 0.76,
      "role": "melody",
      "is_tied": false
    },
    {
      "midi": 71,
      "name": "B4",
      "start": 190.4022,
      "duration": 0.2239,
      "bar": 53,
      "beat": 4.0,
      "duration_beats": 0.25,
      "velocity": 0.78,
      "role": "melody",
      "is_tied": false
    },
    {
      "midi": 52,
      "name": "E3",
      "start": 190.4022,
      "duration": 0.2239,
      "bar": 53,
      "beat": 4.0,
      "duration_beats": 0.25,
      "velocity": 0.53,
      "role": "chord",
      "is_tied": false
    },
    {
      "midi": 48,
      "name": "C3",
      "start": 190.4022,
      "duration": 0.2239,
      "bar": 53,
      "beat": 4.0,
      "duration_beats": 0.25,
      "velocity": 0.59,
      "role": "chord",
      "is_tied": false
    },
    {
      "midi": 45,
      "name": "A2",
      "start": 190.4022,
      "duration": 0.2239,
      "bar": 53,
      "beat": 4.0,
      "duration_beats": 0.25,
      "velocity": 1.0,
      "role": "bass",
      "is_tied": false
    },
    {
      "midi": 83,
      "name": "B5",
      "start": 190.85,
      "duration": 0.2239,
      "bar": 53,
      "beat": 4.5,
      "duration_beats": 0.25,
      "velocity": 1.0,
      "role": "melody",
      "is_tied": false
    },
    {
      "midi": 74,
      "name": "D5",
      "start": 190.85,
      "duration": 0.2239,
      "bar": 53,
      "beat": 4.5,
      "duration_beats": 0.25,
      "velocity": 0.41,
      "role": "melody",
      "is_tied": false
    },
    {
      "midi": 71,
      "name": "B4",
      "start": 190.85,
      "duration": 0.2239,
      "bar": 53,
      "beat": 4.5,
      "duration_beats": 0.25,
      "velocity": 0.64,
      "role": "melody",
      "is_tied": false
    },
    {
      "midi": 52,
      "name": "E3",
      "start": 190.85,
      "duration": 0.4478,
      "bar": 53,
      "beat": 4.5,
      "duration_beats": 0.5,
      "velocity": 0.54,
      "role": "chord",
      "is_tied": false
    },
    {
      "midi": 45,
      "name": "A2",
      "start": 190.85,
      "duration": 0.4478,
      "bar": 53,
      "beat": 4.5,
      "duration_beats": 0.5,
      "velocity": 1.0,
      "role": "bass",
      "is_tied": false
    },
    {
      "midi": 74,
      "name": "D5",
      "start": 191.2977,
      "duration": 0.2239,
      "bar": 54,
      "beat": 1.0,
      "duration_beats": 0.25,
      "velocity": 1.0,
      "role": "melody",
      "is_tied": false
    },
    {
      "midi": 60,
      "name": "C4",
      "start": 191.2977,
      "duration": 0.2239,
      "bar": 54,
      "beat": 1.0,
      "duration_beats": 0.25,
      "velocity": 0.6,
      "role": "chord",
      "is_tied": false
    },
    {
      "midi": 55,
      "name": "G3",
      "start": 191.2977,
      "duration": 0.2239,
      "bar": 54,
      "beat": 1.0,
      "duration_beats": 0.25,
      "velocity": 1.0,
      "role": "bass",
      "is_tied": false
    },
    {
      "midi": 52,
      "name": "E3",
      "start": 191.2977,
      "duration": 0.2239,
      "bar": 54,
      "beat": 1.0,
      "duration_beats": 0.25,
      "velocity": 0.61,
      "role": "chord",
      "is_tied": false
    },
    {
      "midi": 74,
      "name": "D5",
      "start": 191.7455,
      "duration": 0.2239,
      "bar": 54,
      "beat": 1.5,
      "duration_beats": 0.25,
      "velocity": 1.0,
      "role": "melody",
      "is_tied": false
    },
    {
      "midi": 73,
      "name": "C#5",
      "start": 191.7455,
      "duration": 0.2239,
      "bar": 54,
      "beat": 1.5,
      "duration_beats": 0.25,
      "velocity": 1.0,
      "role": "melody",
      "is_tied": false
    },
    {
      "midi": 72,
      "name": "C5",
      "start": 191.7455,
      "duration": 0.2239,
      "bar": 54,
      "beat": 1.5,
      "duration_beats": 0.25,
      "velocity": 1.0,
      "role": "melody",
      "is_tied": false
    },
    {
      "midi": 61,
      "name": "C#4",
      "start": 191.7455,
      "duration": 0.2239,
      "bar": 54,
      "beat": 1.5,
      "duration_beats": 0.25,
      "velocity": 0.79,
      "role": "chord",
      "is_tied": false
    },
    {
      "midi": 60,
      "name": "C4",
      "start": 191.7455,
      "duration": 0.2239,
      "bar": 54,
      "beat": 1.5,
      "duration_beats": 0.25,
      "velocity": 0.4,
      "role": "chord",
      "is_tied": false
    },
    {
      "midi": 59,
      "name": "B3",
      "start": 191.7455,
      "duration": 0.2239,
      "bar": 54,
      "beat": 1.5,
      "duration_beats": 0.25,
      "velocity": 0.42,
      "role": "chord",
      "is_tied": true
    },
    {
      "midi": 56,
      "name": "G#3",
      "start": 191.7455,
      "duration": 0.2239,
      "bar": 54,
      "beat": 1.5,
      "duration_beats": 0.25,
      "velocity": 0.49,
      "role": "chord",
      "is_tied": false
    },
    {
      "midi": 51,
      "name": "D#3",
      "start": 191.7455,
      "duration": 0.2239,
      "bar": 54,
      "beat": 1.5,
      "duration_beats": 0.25,
      "velocity": 1.0,
      "role": "bass",
      "is_tied": false
    },
    {
      "midi": 70,
      "name": "A#4",
      "start": 192.1933,
      "duration": 0.4478,
      "bar": 54,
      "beat": 2.0,
      "duration_beats": 0.5,
      "velocity": 0.82,
      "role": "melody",
      "is_tied": false
    },
    {
      "midi": 51,
      "name": "D#3",
      "start": 192.1933,
      "duration": 0.4478,
      "bar": 54,
      "beat": 2.0,
      "duration_beats": 0.5,
      "velocity": 1.0,
      "role": "bass",
      "is_tied": false
    },
    {
      "midi": 49,
      "name": "C#3",
      "start": 192.1933,
      "duration": 0.4478,
      "bar": 54,
      "beat": 2.0,
      "duration_beats": 0.5,
      "velocity": 0.43,
      "role": "chord",
      "is_tied": false
    },
    {
      "midi": 72,
      "name": "C5",
      "start": 192.641,
      "duration": 0.4478,
      "bar": 54,
      "beat": 2.5,
      "duration_beats": 0.5,
      "velocity": 1.0,
      "role": "melody",
      "is_tied": false
    },
    {
      "midi": 65,
      "name": "F4",
      "start": 192.641,
      "duration": 0.2239,
      "bar": 54,
      "beat": 2.5,
      "duration_beats": 0.25,
      "velocity": 0.69,
      "role": "melody",
      "is_tied": false
    },
    {
      "midi": 58,
      "name": "A#3",
      "start": 192.641,
      "duration": 0.2239,
      "bar": 54,
      "beat": 2.5,
      "duration_beats": 0.25,
      "velocity": 0.34,
      "role": "chord",
      "is_tied": false
    },
    {
      "midi": 54,
      "name": "F#3",
      "start": 192.641,
      "duration": 0.2239,
      "bar": 54,
      "beat": 2.5,
      "duration_beats": 0.25,
      "velocity": 0.59,
      "role": "chord",
      "is_tied": false
    },
    {
      "midi": 51,
      "name": "D#3",
      "start": 192.641,
      "duration": 0.4478,
      "bar": 54,
      "beat": 2.5,
      "duration_beats": 0.5,
      "velocity": 0.8,
      "role": "chord",
      "is_tied": false
    },
    {
      "midi": 68,
      "name": "G#4",
      "start": 193.0888,
      "duration": 0.2239,
      "bar": 54,
      "beat": 3.0,
      "duration_beats": 0.25,
      "velocity": 1.0,
      "role": "melody",
      "is_tied": false
    },
    {
      "midi": 68,
      "name": "G#4",
      "start": 193.0888,
      "duration": 0.4478,
      "bar": 54,
      "beat": 3.0,
      "duration_beats": 0.5,
      "velocity": 0.81,
      "role": "melody",
      "is_tied": false
    },
    {
      "midi": 51,
      "name": "D#3",
      "start": 193.0888,
      "duration": 0.4478,
      "bar": 54,
      "beat": 3.0,
      "duration_beats": 0.5,
      "velocity": 0.49,
      "role": "chord",
      "is_tied": false
    },
    {
      "midi": 44,
      "name": "G#2",
      "start": 193.0888,
      "duration": 0.2239,
      "bar": 54,
      "beat": 3.0,
      "duration_beats": 0.25,
      "velocity": 1.0,
      "role": "bass",
      "is_tied": false
    },
    {
      "midi": 44,
      "name": "G#2",
      "start": 193.0888,
      "duration": 0.4478,
      "bar": 54,
      "beat": 3.0,
      "duration_beats": 0.5,
      "velocity": 1.0,
      "role": "bass",
      "is_tied": false
    },
    {
      "midi": 72,
      "name": "C5",
      "start": 193.5366,
      "duration": 0.4478,
      "bar": 54,
      "beat": 3.5,
      "duration_beats": 0.5,
      "velocity": 0.92,
      "role": "melody",
      "is_tied": false
    },
    {
      "midi": 51,
      "name": "D#3",
      "start": 193.5366,
      "duration": 0.4478,
      "bar": 54,
      "beat": 3.5,
      "duration_beats": 0.5,
      "velocity": 0.5,
      "role": "chord",
      "is_tied": false
    },
    {
      "midi": 44,
      "name": "G#2",
      "start": 193.5366,
      "duration": 0.2239,
      "bar": 54,
      "beat": 3.5,
      "duration_beats": 0.25,
      "velocity": 1.0,
      "role": "bass",
      "is_tied": false
    },
    {
      "midi": 83,
      "name": "B5",
      "start": 193.9843,
      "duration": 0.2239,
      "bar": 54,
      "beat": 4.0,
      "duration_beats": 0.25,
      "velocity": 1.0,
      "role": "melody",
      "is_tied": false
    },
    {
      "midi": 74,
      "name": "D5",
      "start": 193.9843,
      "duration": 0.4478,
      "bar": 54,
      "beat": 4.0,
      "duration_beats": 0.5,
      "velocity": 1.0,
      "role": "melody",
      "is_tied": false
    },
    {
      "midi": 71,
      "name": "B4",
      "start": 193.9843,
      "duration": 0.4478,
      "bar": 54,
      "beat": 4.0,
      "duration_beats": 0.5,
      "velocity": 0.64,
      "role": "chord",
      "is_tied": false
    },
    {
      "midi": 67,
      "name": "G4",
      "start": 193.9843,
      "duration": 0.2239,
      "bar": 54,
      "beat": 4.0,
      "duration_beats": 0.25,
      "velocity": 0.49,
      "role": "chord",
      "is_tied": false
    },
    {
      "midi": 62,
      "name": "D4",
      "start": 193.9843,
      "duration": 0.8955,
      "bar": 54,
      "beat": 4.0,
      "duration_beats": 1.0,
      "velocity": 0.9,
      "role": "chord",
      "is_tied": false
    },
    {
      "midi": 59,
      "name": "B3",
      "start": 193.9843,
      "duration": 0.8955,
      "bar": 54,
      "beat": 4.0,
      "duration_beats": 1.0,
      "velocity": 0.69,
      "role": "chord",
      "is_tied": false
    },
    {
      "midi": 50,
      "name": "D3",
      "start": 193.9843,
      "duration": 1.3433,
      "bar": 54,
      "beat": 4.0,
      "duration_beats": 1.5,
      "velocity": 1.0,
      "role": "chord",
      "is_tied": true
    },
    {
      "midi": 43,
      "name": "G2",
      "start": 193.9843,
      "duration": 1.3433,
      "bar": 54,
      "beat": 4.0,
      "duration_beats": 1.5,
      "velocity": 1.0,
      "role": "bass",
      "is_tied": false
    },
    {
      "midi": 83,
      "name": "B5",
      "start": 194.4321,
      "duration": 0.4478,
      "bar": 54,
      "beat": 4.5,
      "duration_beats": 0.5,
      "velocity": 0.87,
      "role": "melody",
      "is_tied": false
    },
    {
      "midi": 82,
      "name": "A#5",
      "start": 194.4321,
      "duration": 0.2239,
      "bar": 54,
      "beat": 4.5,
      "duration_beats": 0.25,
      "velocity": 1.0,
      "role": "melody",
      "is_tied": false
    },
    {
      "midi": 74,
      "name": "D5",
      "start": 194.4321,
      "duration": 0.2239,
      "bar": 54,
      "beat": 4.5,
      "duration_beats": 0.25,
      "velocity": 0.86,
      "role": "melody",
      "is_tied": false
    },
    {
      "midi": 52,
      "name": "E3",
      "start": 194.4321,
      "duration": 0.6716,
      "bar": 54,
      "beat": 4.5,
      "duration_beats": 0.75,
      "velocity": 0.32,
      "role": "chord",
      "is_tied": false
    },
    {
      "midi": 74,
      "name": "D5",
      "start": 194.8798,
      "duration": 0.2239,
      "bar": 55,
      "beat": 1.0,
      "duration_beats": 0.25,
      "velocity": 0.86,
      "role": "melody",
      "is_tied": false
    },
    {
      "midi": 55,
      "name": "G3",
      "start": 194.8798,
      "duration": 0.2239,
      "bar": 55,
      "beat": 1.0,
      "duration_beats": 0.25,
      "velocity": 0.75,
      "role": "chord",
      "is_tied": false
    },
    {
      "midi": 47,
      "name": "B2",
      "start": 194.8798,
      "duration": 0.2239,
      "bar": 55,
      "beat": 1.0,
      "duration_beats": 0.25,
      "velocity": 1.0,
      "role": "bass",
      "is_tied": false
    },
    {
      "midi": 86,
      "name": "D6",
      "start": 195.3276,
      "duration": 0.6716,
      "bar": 55,
      "beat": 1.5,
      "duration_beats": 0.75,
      "velocity": 1.0,
      "role": "melody",
      "is_tied": false
    },
    {
      "midi": 81,
      "name": "A5",
      "start": 195.3276,
      "duration": 1.791,
      "bar": 55,
      "beat": 1.5,
      "duration_beats": 2.0,
      "velocity": 0.64,
      "role": "melody",
      "is_tied": false
    },
    {
      "midi": 74,
      "name": "D5",
      "start": 195.3276,
      "duration": 0.4478,
      "bar": 55,
      "beat": 1.5,
      "duration_beats": 0.5,
      "velocity": 0.87,
      "role": "melody",
      "is_tied": false
    },
    {
      "midi": 55,
      "name": "G3",
      "start": 195.3276,
      "duration": 1.3433,
      "bar": 55,
      "beat": 1.5,
      "duration_beats": 1.5,
      "velocity": 0.68,
      "role": "chord",
      "is_tied": false
    },
    {
      "midi": 50,
      "name": "D3",
      "start": 195.3276,
      "duration": 2.6866,
      "bar": 55,
      "beat": 1.5,
      "duration_beats": 3.0,
      "velocity": 0.4,
      "role": "chord",
      "is_tied": false
    },
    {
      "midi": 50,
      "name": "D3",
      "start": 195.3276,
      "duration": 1.791,
      "bar": 55,
      "beat": 1.5,
      "duration_beats": 2.0,
      "velocity": 0.62,
      "role": "chord",
      "is_tied": false
    },
    {
      "midi": 47,
      "name": "B2",
      "start": 195.3276,
      "duration": 1.3433,
      "bar": 55,
      "beat": 1.5,
      "duration_beats": 1.5,
      "velocity": 1.0,
      "role": "bass",
      "is_tied": false
    },
    {
      "midi": 47,
      "name": "B2",
      "start": 195.3276,
      "duration": 0.8955,
      "bar": 55,
      "beat": 1.5,
      "duration_beats": 1.0,
      "velocity": 1.0,
      "role": "bass",
      "is_tied": false
    },
    {
      "midi": 81,
      "name": "A5",
      "start": 196.2231,
      "duration": 0.8955,
      "bar": 55,
      "beat": 2.5,
      "duration_beats": 1.0,
      "velocity": 1.0,
      "role": "melody",
      "is_tied": false
    },
    {
      "midi": 74,
      "name": "D5",
      "start": 196.2231,
      "duration": 0.2239,
      "bar": 55,
      "beat": 2.5,
      "duration_beats": 0.25,
      "velocity": 0.49,
      "role": "melody",
      "is_tied": false
    },
    {
      "midi": 50,
      "name": "D3",
      "start": 196.2231,
      "duration": 1.3433,
      "bar": 55,
      "beat": 2.5,
      "duration_beats": 1.5,
      "velocity": 0.58,
      "role": "chord",
      "is_tied": false
    },
    {
      "midi": 47,
      "name": "B2",
      "start": 196.2231,
      "duration": 0.2239,
      "bar": 55,
      "beat": 2.5,
      "duration_beats": 0.25,
      "velocity": 1.0,
      "role": "bass",
      "is_tied": false
    },
    {
      "midi": 79,
      "name": "G5",
      "start": 196.6709,
      "duration": 0.6716,
      "bar": 55,
      "beat": 3.0,
      "duration_beats": 0.75,
      "velocity": 0.52,
      "role": "melody",
      "is_tied": false
    },
    {
      "midi": 78,
      "name": "F#5",
      "start": 196.6709,
      "duration": 0.4478,
      "bar": 55,
      "beat": 3.0,
      "duration_beats": 0.5,
      "velocity": 1.0,
      "role": "melody",
      "is_tied": false
    },
    {
      "midi": 59,
      "name": "B3",
      "start": 196.6709,
      "duration": 0.8955,
      "bar": 55,
      "beat": 3.0,
      "duration_beats": 1.0,
      "velocity": 0.48,
      "role": "chord",
      "is_tied": false
    },
    {
      "midi": 55,
      "name": "G3",
      "start": 196.6709,
      "duration": 0.6716,
      "bar": 55,
      "beat": 3.0,
      "duration_beats": 0.75,
      "velocity": 0.74,
      "role": "chord",
      "is_tied": false
    },
    {
      "midi": 74,
      "name": "D5",
      "start": 197.1186,
      "duration": 0.2239,
      "bar": 55,
      "beat": 3.5,
      "duration_beats": 0.25,
      "velocity": 1.0,
      "role": "melody",
      "is_tied": false
    },
    {
      "midi": 57,
      "name": "A3",
      "start": 197.1186,
      "duration": 0.2239,
      "bar": 55,
      "beat": 3.5,
      "duration_beats": 0.25,
      "velocity": 0.48,
      "role": "chord",
      "is_tied": false
    },
    {
      "midi": 77,
      "name": "F5",
      "start": 197.5664,
      "duration": 0.2239,
      "bar": 55,
      "beat": 4.0,
      "duration_beats": 0.25,
      "velocity": 1.0,
      "role": "melody",
      "is_tied": false
    },
    {
      "midi": 76,
      "name": "E5",
      "start": 197.5664,
      "duration": 1.3433,
      "bar": 55,
      "beat": 4.0,
      "duration_beats": 1.5,
      "velocity": 1.0,
      "role": "melody",
      "is_tied": false
    },
    {
      "midi": 76,
      "name": "E5",
      "start": 197.5664,
      "duration": 0.8955,
      "bar": 55,
      "beat": 4.0,
      "duration_beats": 1.0,
      "velocity": 0.61,
      "role": "melody",
      "is_tied": false
    },
    {
      "midi": 41,
      "name": "F2",
      "start": 197.5664,
      "duration": 1.791,
      "bar": 55,
      "beat": 4.0,
      "duration_beats": 2.0,
      "velocity": 0.64,
      "role": "bass",
      "is_tied": false
    },
    {
      "midi": 74,
      "name": "D5",
      "start": 198.0142,
      "duration": 0.8955,
      "bar": 55,
      "beat": 4.5,
      "duration_beats": 1.0,
      "velocity": 0.99,
      "role": "melody",
      "is_tied": false
    },
    {
      "midi": 74,
      "name": "D5",
      "start": 198.4619,
      "duration": 0.6716,
      "bar": 56,
      "beat": 1.0,
      "duration_beats": 0.75,
      "velocity": 0.87,
      "role": "melody",
      "is_tied": false
    },
    {
      "midi": 74,
      "name": "D5",
      "start": 198.4619,
      "duration": 0.2239,
      "bar": 56,
      "beat": 1.0,
      "duration_beats": 0.25,
      "velocity": 0.31,
      "role": "melody",
      "is_tied": false
    },
    {
      "midi": 72,
      "name": "C5",
      "start": 198.4619,
      "duration": 0.8955,
      "bar": 56,
      "beat": 1.0,
      "duration_beats": 1.0,
      "velocity": 1.0,
      "role": "melody",
      "is_tied": false
    },
    {
      "midi": 72,
      "name": "C5",
      "start": 198.4619,
      "duration": 0.6716,
      "bar": 56,
      "beat": 1.0,
      "duration_beats": 0.75,
      "velocity": 1.0,
      "role": "melody",
      "is_tied": false
    },
    {
      "midi": 58,
      "name": "A#3",
      "start": 198.4619,
      "duration": 1.791,
      "bar": 56,
      "beat": 1.0,
      "duration_beats": 2.0,
      "velocity": 0.77,
      "role": "chord",
      "is_tied": false
    },
    {
      "midi": 51,
      "name": "D#3",
      "start": 198.4619,
      "duration": 0.6716,
      "bar": 56,
      "beat": 1.0,
      "duration_beats": 0.75,
      "velocity": 0.37,
      "role": "chord",
      "is_tied": false
    },
    {
      "midi": 50,
      "name": "D3",
      "start": 198.4619,
      "duration": 0.2239,
      "bar": 56,
      "beat": 1.0,
      "duration_beats": 0.25,
      "velocity": 0.46,
      "role": "chord",
      "is_tied": false
    },
    {
      "midi": 41,
      "name": "F2",
      "start": 198.4619,
      "duration": 1.3433,
      "bar": 56,
      "beat": 1.0,
      "duration_beats": 1.5,
      "velocity": 0.87,
      "role": "bass",
      "is_tied": false
    },
    {
      "midi": 70,
      "name": "A#4",
      "start": 199.3574,
      "duration": 0.4478,
      "bar": 56,
      "beat": 2.0,
      "duration_beats": 0.5,
      "velocity": 1.0,
      "role": "melody",
      "is_tied": false
    },
    {
      "midi": 69,
      "name": "A4",
      "start": 199.3574,
      "duration": 1.3433,
      "bar": 56,
      "beat": 2.0,
      "duration_beats": 1.5,
      "velocity": 0.83,
      "role": "melody",
      "is_tied": false
    },
    {
      "midi": 60,
      "name": "C4",
      "start": 199.3574,
      "duration": 1.791,
      "bar": 56,
      "beat": 2.0,
      "duration_beats": 2.0,
      "velocity": 0.66,
      "role": "chord",
      "is_tied": false
    },
    {
      "midi": 53,
      "name": "F3",
      "start": 199.3574,
      "duration": 0.4478,
      "bar": 56,
      "beat": 2.0,
      "duration_beats": 0.5,
      "velocity": 0.63,
      "role": "chord",
      "is_tied": false
    },
    {
      "midi": 50,
      "name": "D3",
      "start": 199.3574,
      "duration": 2.6866,
      "bar": 56,
      "beat": 2.0,
      "duration_beats": 3.0,
      "velocity": 0.71,
      "role": "chord",
      "is_tied": false
    },
    {
      "midi": 67,
      "name": "G4",
      "start": 199.8052,
      "duration": 0.8955,
      "bar": 56,
      "beat": 2.5,
      "duration_beats": 1.0,
      "velocity": 0.39,
      "role": "melody",
      "is_tied": false
    },
    {
      "midi": 62,
      "name": "D4",
      "start": 199.8052,
      "duration": 1.3433,
      "bar": 56,
      "beat": 2.5,
      "duration_beats": 1.5,
      "velocity": 1.0,
      "role": "chord",
      "is_tied": false
    },
    {
      "midi": 58,
      "name": "A#3",
      "start": 199.8052,
      "duration": 1.3433,
      "bar": 56,
      "beat": 2.5,
      "duration_beats": 1.5,
      "velocity": 0.72,
      "role": "chord",
      "is_tied": false
    },
    {
      "midi": 57,
      "name": "A3",
      "start": 199.8052,
      "duration": 0.8955,
      "bar": 56,
      "beat": 2.5,
      "duration_beats": 1.0,
      "velocity": 0.59,
      "role": "chord",
      "is_tied": false
    },
    {
      "midi": 41,
      "name": "F2",
      "start": 200.253,
      "duration": 1.3433,
      "bar": 56,
      "beat": 3.0,
      "duration_beats": 1.5,
      "velocity": 1.0,
      "role": "bass",
      "is_tied": false
    },
    {
      "midi": 74,
      "name": "D5",
      "start": 200.7007,
      "duration": 0.2239,
      "bar": 56,
      "beat": 3.5,
      "duration_beats": 0.25,
      "velocity": 0.32,
      "role": "melody",
      "is_tied": false
    },
    {
      "midi": 67,
      "name": "G4",
      "start": 200.7007,
      "duration": 0.8955,
      "bar": 56,
      "beat": 3.5,
      "duration_beats": 1.0,
      "velocity": 0.33,
      "role": "melody",
      "is_tied": false
    },
    {
      "midi": 60,
      "name": "C4",
      "start": 200.7007,
      "duration": 0.4478,
      "bar": 56,
      "beat": 3.5,
      "duration_beats": 0.5,
      "velocity": 0.34,
      "role": "chord",
      "is_tied": false
    },
    {
      "midi": 57,
      "name": "A3",
      "start": 200.7007,
      "duration": 2.6866,
      "bar": 56,
      "beat": 3.5,
      "duration_beats": 3.0,
      "velocity": 0.4,
      "role": "chord",
      "is_tied": false
    },
    {
      "midi": 74,
      "name": "D5",
      "start": 201.1485,
      "duration": 0.6716,
      "bar": 56,
      "beat": 4.0,
      "duration_beats": 0.75,
      "velocity": 0.76,
      "role": "melody",
      "is_tied": false
    },
    {
      "midi": 67,
      "name": "G4",
      "start": 201.1485,
      "duration": 0.6716,
      "bar": 56,
      "beat": 4.0,
      "duration_beats": 0.75,
      "velocity": 0.86,
      "role": "melody",
      "is_tied": false
    },
    {
      "midi": 66,
      "name": "F#4",
      "start": 201.1485,
      "duration": 0.6716,
      "bar": 56,
      "beat": 4.0,
      "duration_beats": 0.75,
      "velocity": 0.72,
      "role": "chord",
      "is_tied": false
    },
    {
      "midi": 64,
      "name": "E4",
      "start": 201.1485,
      "duration": 0.6716,
      "bar": 56,
      "beat": 4.0,
      "duration_beats": 0.75,
      "velocity": 0.74,
      "role": "chord",
      "is_tied": false
    },
    {
      "midi": 61,
      "name": "C#4",
      "start": 201.1485,
      "duration": 0.8955,
      "bar": 56,
      "beat": 4.0,
      "duration_beats": 1.0,
      "velocity": 0.96,
      "role": "chord",
      "is_tied": false
    },
    {
      "midi": 57,
      "name": "A3",
      "start": 201.1485,
      "duration": 1.791,
      "bar": 56,
      "beat": 4.0,
      "duration_beats": 2.0,
      "velocity": 0.71,
      "role": "chord",
      "is_tied": false
    },
    {
      "midi": 48,
      "name": "C3",
      "start": 201.5963,
      "duration": 0.2239,
      "bar": 56,
      "beat": 4.5,
      "duration_beats": 0.25,
      "velocity": 0.85,
      "role": "bass",
      "is_tied": false
    },
    {
      "midi": 83,
      "name": "B5",
      "start": 202.044,
      "duration": 0.2239,
      "bar": 57,
      "beat": 1.0,
      "duration_beats": 0.25,
      "velocity": 0.67,
      "role": "melody",
      "is_tied": false
    },
    {
      "midi": 74,
      "name": "D5",
      "start": 202.044,
      "duration": 0.8955,
      "bar": 57,
      "beat": 1.0,
      "duration_beats": 1.0,
      "velocity": 1.0,
      "role": "melody",
      "is_tied": false
    },
    {
      "midi": 71,
      "name": "B4",
      "start": 202.044,
      "duration": 0.2239,
      "bar": 57,
      "beat": 1.0,
      "duration_beats": 0.25,
      "velocity": 0.51,
      "role": "melody",
      "is_tied": false
    },
    {
      "midi": 57,
      "name": "A3",
      "start": 202.044,
      "duration": 1.3433,
      "bar": 57,
      "beat": 1.0,
      "duration_beats": 1.5,
      "velocity": 0.59,
      "role": "chord",
      "is_tied": false
    },
    {
      "midi": 54,
      "name": "F#3",
      "start": 202.044,
      "duration": 0.8955,
      "bar": 57,
      "beat": 1.0,
      "duration_beats": 1.0,
      "velocity": 0.67,
      "role": "bass",
      "is_tied": false
    },
    {
      "midi": 52,
      "name": "E3",
      "start": 202.044,
      "duration": 2.6866,
      "bar": 57,
      "beat": 1.0,
      "duration_beats": 3.0,
      "velocity": 0.72,
      "role": "chord",
      "is_tied": false
    },
    {
      "midi": 50,
      "name": "D3",
      "start": 202.044,
      "duration": 0.4478,
      "bar": 57,
      "beat": 1.0,
      "duration_beats": 0.5,
      "velocity": 0.66,
      "role": "chord",
      "is_tied": false
    },
    {
      "midi": 49,
      "name": "C#3",
      "start": 202.044,
      "duration": 0.4478,
      "bar": 57,
      "beat": 1.0,
      "duration_beats": 0.5,
      "velocity": 0.44,
      "role": "chord",
      "is_tied": false
    },
    {
      "midi": 71,
      "name": "B4",
      "start": 202.4918,
      "duration": 1.3433,
      "bar": 57,
      "beat": 1.5,
      "duration_beats": 1.5,
      "velocity": 0.36,
      "role": "melody",
      "is_tied": false
    },
    {
      "midi": 69,
      "name": "A4",
      "start": 202.4918,
      "duration": 0.2239,
      "bar": 57,
      "beat": 1.5,
      "duration_beats": 0.25,
      "velocity": 1.0,
      "role": "chord",
      "is_tied": false
    },
    {
      "midi": 71,
      "name": "B4",
      "start": 202.9395,
      "duration": 0.6716,
      "bar": 57,
      "beat": 2.0,
      "duration_beats": 0.75,
      "velocity": 0.95,
      "role": "melody",
      "is_tied": false
    },
    {
      "midi": 69,
      "name": "A4",
      "start": 202.9395,
      "duration": 0.4478,
      "bar": 57,
      "beat": 2.0,
      "duration_beats": 0.5,
      "velocity": 0.46,
      "role": "melody",
      "is_tied": false
    },
    {
      "midi": 33,
      "name": "A1",
      "start": 202.9395,
      "duration": 0.4478,
      "bar": 57,
      "beat": 2.0,
      "duration_beats": 0.5,
      "velocity": 1.0,
      "role": "bass",
      "is_tied": false
    },
    {
      "midi": 42,
      "name": "F#2",
      "start": 203.3873,
      "duration": 0.4478,
      "bar": 57,
      "beat": 2.5,
      "duration_beats": 0.5,
      "velocity": 1.0,
      "role": "bass",
      "is_tied": false
    },
    {
      "midi": 64,
      "name": "E4",
      "start": 203.8351,
      "duration": 0.6716,
      "bar": 57,
      "beat": 3.0,
      "duration_beats": 0.75,
      "velocity": 1.0,
      "role": "melody",
      "is_tied": false
    },
    {
      "midi": 62,
      "name": "D4",
      "start": 203.8351,
      "duration": 0.4478,
      "bar": 57,
      "beat": 3.0,
      "duration_beats": 0.5,
      "velocity": 1.0,
      "role": "chord",
      "is_tied": false
    },
    {
      "midi": 59,
      "name": "B3",
      "start": 203.8351,
      "duration": 1.3433,
      "bar": 57,
      "beat": 3.0,
      "duration_beats": 1.5,
      "velocity": 0.4,
      "role": "chord",
      "is_tied": false
    },
    {
      "midi": 57,
      "name": "A3",
      "start": 203.8351,
      "duration": 0.4478,
      "bar": 57,
      "beat": 3.0,
      "duration_beats": 0.5,
      "velocity": 0.57,
      "role": "chord",
      "is_tied": false
    },
    {
      "midi": 66,
      "name": "F#4",
      "start": 204.2828,
      "duration": 0.4478,
      "bar": 57,
      "beat": 3.5,
      "duration_beats": 0.5,
      "velocity": 0.69,
      "role": "melody",
      "is_tied": false
    },
    {
      "midi": 65,
      "name": "F4",
      "start": 204.2828,
      "duration": 1.3433,
      "bar": 57,
      "beat": 3.5,
      "duration_beats": 1.5,
      "velocity": 1.0,
      "role": "melody",
      "is_tied": false
    },
    {
      "midi": 59,
      "name": "B3",
      "start": 204.2828,
      "duration": 0.4478,
      "bar": 57,
      "beat": 3.5,
      "duration_beats": 0.5,
      "velocity": 0.43,
      "role": "chord",
      "is_tied": false
    },
    {
      "midi": 56,
      "name": "G#3",
      "start": 204.2828,
      "duration": 0.4478,
      "bar": 57,
      "beat": 3.5,
      "duration_beats": 0.5,
      "velocity": 0.32,
      "role": "chord",
      "is_tied": false
    },
    {
      "midi": 68,
      "name": "G#4",
      "start": 204.7306,
      "duration": 0.6716,
      "bar": 57,
      "beat": 4.0,
      "duration_beats": 0.75,
      "velocity": 0.33,
      "role": "melody",
      "is_tied": false
    },
    {
      "midi": 65,
      "name": "F4",
      "start": 204.7306,
      "duration": 0.6716,
      "bar": 57,
      "beat": 4.0,
      "duration_beats": 0.75,
      "velocity": 1.0,
      "role": "melody",
      "is_tied": false
    },
    {
      "midi": 64,
      "name": "E4",
      "start": 204.7306,
      "duration": 0.6716,
      "bar": 57,
      "beat": 4.0,
      "duration_beats": 0.75,
      "velocity": 1.0,
      "role": "chord",
      "is_tied": false
    },
    {
      "midi": 60,
      "name": "C4",
      "start": 204.7306,
      "duration": 0.8955,
      "bar": 57,
      "beat": 4.0,
      "duration_beats": 1.0,
      "velocity": 0.72,
      "role": "chord",
      "is_tied": false
    },
    {
      "midi": 55,
      "name": "G3",
      "start": 204.7306,
      "duration": 1.791,
      "bar": 57,
      "beat": 4.0,
      "duration_beats": 2.0,
      "velocity": 0.54,
      "role": "chord",
      "is_tied": false
    },
    {
      "midi": 74,
      "name": "D5",
      "start": 205.6261,
      "duration": 0.8955,
      "bar": 58,
      "beat": 1.0,
      "duration_beats": 1.0,
      "velocity": 1.0,
      "role": "melody",
      "is_tied": false
    },
    {
      "midi": 67,
      "name": "G4",
      "start": 205.6261,
      "duration": 0.2239,
      "bar": 58,
      "beat": 1.0,
      "duration_beats": 0.25,
      "velocity": 1.0,
      "role": "chord",
      "is_tied": false
    },
    {
      "midi": 52,
      "name": "E3",
      "start": 205.6261,
      "duration": 0.4478,
      "bar": 58,
      "beat": 1.0,
      "duration_beats": 0.5,
      "velocity": 0.76,
      "role": "chord",
      "is_tied": false
    },
    {
      "midi": 48,
      "name": "C3",
      "start": 205.6261,
      "duration": 0.4478,
      "bar": 58,
      "beat": 1.0,
      "duration_beats": 0.5,
      "velocity": 0.41,
      "role": "chord",
      "is_tied": false
    },
    {
      "midi": 83,
      "name": "B5",
      "start": 206.0739,
      "duration": 0.2239,
      "bar": 58,
      "beat": 1.5,
      "duration_beats": 0.25,
      "velocity": 0.87,
      "role": "melody",
      "is_tied": false
    },
    {
      "midi": 74,
      "name": "D5",
      "start": 206.0739,
      "duration": 0.6716,
      "bar": 58,
      "beat": 1.5,
      "duration_beats": 0.75,
      "velocity": 1.0,
      "role": "melody",
      "is_tied": false
    },
    {
      "midi": 55,
      "name": "G3",
      "start": 206.0739,
      "duration": 0.8955,
      "bar": 58,
      "beat": 1.5,
      "duration_beats": 1.0,
      "velocity": 0.57,
      "role": "chord",
      "is_tied": false
    },
    {
      "midi": 48,
      "name": "C3",
      "start": 206.0739,
      "duration": 0.2239,
      "bar": 58,
      "beat": 1.5,
      "duration_beats": 0.25,
      "velocity": 0.33,
      "role": "chord",
      "is_tied": false
    },
    {
      "midi": 45,
      "name": "A2",
      "start": 206.0739,
      "duration": 0.8955,
      "bar": 58,
      "beat": 1.5,
      "duration_beats": 1.0,
      "velocity": 1.0,
      "role": "bass",
      "is_tied": false
    },
    {
      "midi": 69,
      "name": "A4",
      "start": 206.5216,
      "duration": 0.2239,
      "bar": 58,
      "beat": 2.0,
      "duration_beats": 0.25,
      "velocity": 0.61,
      "role": "melody",
      "is_tied": false
    },
    {
      "midi": 52,
      "name": "E3",
      "start": 206.5216,
      "duration": 1.3433,
      "bar": 58,
      "beat": 2.0,
      "duration_beats": 1.5,
      "velocity": 0.33,
      "role": "chord",
      "is_tied": false
    },
    {
      "midi": 71,
      "name": "B4",
      "start": 206.9694,
      "duration": 0.2239,
      "bar": 58,
      "beat": 2.5,
      "duration_beats": 0.25,
      "velocity": 0.72,
      "role": "melody",
      "is_tied": true
    },
    {
      "midi": 69,
      "name": "A4",
      "start": 206.9694,
      "duration": 0.2239,
      "bar": 58,
      "beat": 2.5,
      "duration_beats": 0.25,
      "velocity": 0.65,
      "role": "melody",
      "is_tied": false
    },
    {
      "midi": 67,
      "name": "G4",
      "start": 206.9694,
      "duration": 0.2239,
      "bar": 58,
      "beat": 2.5,
      "duration_beats": 0.25,
      "velocity": 0.32,
      "role": "melody",
      "is_tied": false
    },
    {
      "midi": 66,
      "name": "F#4",
      "start": 206.9694,
      "duration": 0.2239,
      "bar": 58,
      "beat": 2.5,
      "duration_beats": 0.25,
      "velocity": 0.65,
      "role": "melody",
      "is_tied": false
    },
    {
      "midi": 52,
      "name": "E3",
      "start": 206.9694,
      "duration": 0.8955,
      "bar": 58,
      "beat": 2.5,
      "duration_beats": 1.0,
      "velocity": 0.5,
      "role": "chord",
      "is_tied": false
    },
    {
      "midi": 48,
      "name": "C3",
      "start": 206.9694,
      "duration": 0.2239,
      "bar": 58,
      "beat": 2.5,
      "duration_beats": 0.25,
      "velocity": 0.36,
      "role": "chord",
      "is_tied": false
    },
    {
      "midi": 43,
      "name": "G2",
      "start": 206.9694,
      "duration": 0.6716,
      "bar": 58,
      "beat": 2.5,
      "duration_beats": 0.75,
      "velocity": 0.93,
      "role": "bass",
      "is_tied": false
    },
    {
      "midi": 41,
      "name": "F2",
      "start": 206.9694,
      "duration": 0.2239,
      "bar": 58,
      "beat": 2.5,
      "duration_beats": 0.25,
      "velocity": 1.0,
      "role": "bass",
      "is_tied": false
    },
    {
      "midi": 52,
      "name": "E3",
      "start": 207.4171,
      "duration": 0.6716,
      "bar": 58,
      "beat": 3.0,
      "duration_beats": 0.75,
      "velocity": 0.47,
      "role": "chord",
      "is_tied": false
    },
    {
      "midi": 43,
      "name": "G2",
      "start": 207.4171,
      "duration": 0.2239,
      "bar": 58,
      "beat": 3.0,
      "duration_beats": 0.25,
      "velocity": 1.0,
      "role": "bass",
      "is_tied": false
    },
    {
      "midi": 74,
      "name": "D5",
      "start": 207.8649,
      "duration": 0.4478,
      "bar": 58,
      "beat": 3.5,
      "duration_beats": 0.5,
      "velocity": 0.9,
      "role": "melody",
      "is_tied": false
    },
    {
      "midi": 73,
      "name": "C#5",
      "start": 207.8649,
      "duration": 0.2239,
      "bar": 58,
      "beat": 3.5,
      "duration_beats": 0.25,
      "velocity": 0.54,
      "role": "melody",
      "is_tied": false
    },
    {
      "midi": 50,
      "name": "D3",
      "start": 207.8649,
      "duration": 0.2239,
      "bar": 58,
      "beat": 3.5,
      "duration_beats": 0.25,
      "velocity": 1.0,
      "role": "chord",
      "is_tied": true
    },
    {
      "midi": 40,
      "name": "E2",
      "start": 207.8649,
      "duration": 0.2239,
      "bar": 58,
      "beat": 3.5,
      "duration_beats": 0.25,
      "velocity": 1.0,
      "role": "bass",
      "is_tied": false
    },
    {
      "midi": 74,
      "name": "D5",
      "start": 208.3127,
      "duration": 0.2239,
      "bar": 58,
      "beat": 4.0,
      "duration_beats": 0.25,
      "velocity": 1.0,
      "role": "melody",
      "is_tied": false
    },
    {
      "midi": 73,
      "name": "C#5",
      "start": 208.3127,
      "duration": 0.2239,
      "bar": 58,
      "beat": 4.0,
      "duration_beats": 0.25,
      "velocity": 0.54,
      "role": "melody",
      "is_tied": false
    },
    {
      "midi": 66,
      "name": "F#4",
      "start": 208.3127,
      "duration": 1.3433,
      "bar": 58,
      "beat": 4.0,
      "duration_beats": 1.5,
      "velocity": 0.85,
      "role": "melody",
      "is_tied": false
    },
    {
      "midi": 73,
      "name": "C#5",
      "start": 208.7604,
      "duration": 0.8955,
      "bar": 58,
      "beat": 4.5,
      "duration_beats": 1.0,
      "velocity": 0.6,
      "role": "melody",
      "is_tied": false
    },
    {
      "midi": 71,
      "name": "B4",
      "start": 208.7604,
      "duration": 0.8955,
      "bar": 58,
      "beat": 4.5,
      "duration_beats": 1.0,
      "velocity": 0.57,
      "role": "chord",
      "is_tied": false
    },
    {
      "midi": 50,
      "name": "D3",
      "start": 208.7604,
      "duration": 1.3433,
      "bar": 58,
      "beat": 4.5,
      "duration_beats": 1.5,
      "velocity": 0.76,
      "role": "chord",
      "is_tied": false
    },
    {
      "midi": 43,
      "name": "G2",
      "start": 208.7604,
      "duration": 1.791,
      "bar": 58,
      "beat": 4.5,
      "duration_beats": 2.0,
      "velocity": 1.0,
      "role": "bass",
      "is_tied": false
    },
    {
      "midi": 71,
      "name": "B4",
      "start": 209.656,
      "duration": 0.2239,
      "bar": 59,
      "beat": 1.5,
      "duration_beats": 0.25,
      "velocity": 1.0,
      "role": "melody",
      "is_tied": false
    },
    {
      "midi": 62,
      "name": "D4",
      "start": 209.656,
      "duration": 0.4478,
      "bar": 59,
      "beat": 1.5,
      "duration_beats": 0.5,
      "velocity": 0.53,
      "role": "chord",
      "is_tied": false
    },
    {
      "midi": 83,
      "name": "B5",
      "start": 210.1037,
      "duration": 0.2239,
      "bar": 59,
      "beat": 2.0,
      "duration_beats": 0.25,
      "velocity": 0.86,
      "role": "melody",
      "is_tied": false
    },
    {
      "midi": 76,
      "name": "E5",
      "start": 210.1037,
      "duration": 0.2239,
      "bar": 59,
      "beat": 2.0,
      "duration_beats": 0.25,
      "velocity": 0.35,
      "role": "melody",
      "is_tied": false
    },
    {
      "midi": 69,
      "name": "A4",
      "start": 210.1037,
      "duration": 0.2239,
      "bar": 59,
      "beat": 2.0,
      "duration_beats": 0.25,
      "velocity": 0.73,
      "role": "chord",
      "is_tied": false
    },
    {
      "midi": 50,
      "name": "D3",
      "start": 210.1037,
      "duration": 0.2239,
      "bar": 59,
      "beat": 2.0,
      "duration_beats": 0.25,
      "velocity": 0.58,
      "role": "chord",
      "is_tied": false
    },
    {
      "midi": 43,
      "name": "G2",
      "start": 210.1037,
      "duration": 0.2239,
      "bar": 59,
      "beat": 2.0,
      "duration_beats": 0.25,
      "velocity": 1.0,
      "role": "bass",
      "is_tied": false
    },
    {
      "midi": 78,
      "name": "F#5",
      "start": 210.5515,
      "duration": 0.4478,
      "bar": 59,
      "beat": 2.5,
      "duration_beats": 0.5,
      "velocity": 1.0,
      "role": "melody",
      "is_tied": false
    },
    {
      "midi": 76,
      "name": "E5",
      "start": 210.5515,
      "duration": 0.6716,
      "bar": 59,
      "beat": 2.5,
      "duration_beats": 0.75,
      "velocity": 1.0,
      "role": "melody",
      "is_tied": false
    },
    {
      "midi": 57,
      "name": "A3",
      "start": 210.5515,
      "duration": 0.2239,
      "bar": 59,
      "beat": 2.5,
      "duration_beats": 0.25,
      "velocity": 0.39,
      "role": "chord",
      "is_tied": false
    },
    {
      "midi": 57,
      "name": "A3",
      "start": 210.5515,
      "duration": 0.4478,
      "bar": 59,
      "beat": 2.5,
      "duration_beats": 0.5,
      "velocity": 0.54,
      "role": "chord",
      "is_tied": false
    },
    {
      "midi": 54,
      "name": "F#3",
      "start": 210.5515,
      "duration": 1.3433,
      "bar": 59,
      "beat": 2.5,
      "duration_beats": 1.5,
      "velocity": 0.88,
      "role": "bass",
      "is_tied": false
    },
    {
      "midi": 50,
      "name": "D3",
      "start": 210.5515,
      "duration": 1.3433,
      "bar": 59,
      "beat": 2.5,
      "duration_beats": 1.5,
      "velocity": 0.81,
      "role": "chord",
      "is_tied": false
    },
    {
      "midi": 83,
      "name": "B5",
      "start": 210.9992,
      "duration": 0.8955,
      "bar": 59,
      "beat": 3.0,
      "duration_beats": 1.0,
      "velocity": 1.0,
      "role": "melody",
      "is_tied": false
    },
    {
      "midi": 74,
      "name": "D5",
      "start": 210.9992,
      "duration": 0.8955,
      "bar": 59,
      "beat": 3.0,
      "duration_beats": 1.0,
      "velocity": 1.0,
      "role": "melody",
      "is_tied": false
    },
    {
      "midi": 71,
      "name": "B4",
      "start": 210.9992,
      "duration": 0.2239,
      "bar": 59,
      "beat": 3.0,
      "duration_beats": 0.25,
      "velocity": 0.42,
      "role": "chord",
      "is_tied": false
    },
    {
      "midi": 59,
      "name": "B3",
      "start": 210.9992,
      "duration": 0.8955,
      "bar": 59,
      "beat": 3.0,
      "duration_beats": 1.0,
      "velocity": 0.33,
      "role": "chord",
      "is_tied": false
    },
    {
      "midi": 57,
      "name": "A3",
      "start": 210.9992,
      "duration": 1.791,
      "bar": 59,
      "beat": 3.0,
      "duration_beats": 2.0,
      "velocity": 0.61,
      "role": "chord",
      "is_tied": false
    },
    {
      "midi": 54,
      "name": "F#3",
      "start": 210.9992,
      "duration": 0.8955,
      "bar": 59,
      "beat": 3.0,
      "duration_beats": 1.0,
      "velocity": 1.0,
      "role": "bass",
      "is_tied": false
    },
    {
      "midi": 50,
      "name": "D3",
      "start": 210.9992,
      "duration": 0.8955,
      "bar": 59,
      "beat": 3.0,
      "duration_beats": 1.0,
      "velocity": 0.44,
      "role": "chord",
      "is_tied": false
    },
    {
      "midi": 74,
      "name": "D5",
      "start": 211.447,
      "duration": 0.6716,
      "bar": 59,
      "beat": 3.5,
      "duration_beats": 0.75,
      "velocity": 0.61,
      "role": "melody",
      "is_tied": false
    },
    {
      "midi": 71,
      "name": "B4",
      "start": 211.447,
      "duration": 0.8955,
      "bar": 59,
      "beat": 3.5,
      "duration_beats": 1.0,
      "velocity": 1.0,
      "role": "melody",
      "is_tied": false
    },
    {
      "midi": 57,
      "name": "A3",
      "start": 211.447,
      "duration": 1.3433,
      "bar": 59,
      "beat": 3.5,
      "duration_beats": 1.5,
      "velocity": 0.61,
      "role": "chord",
      "is_tied": false
    },
    {
      "midi": 54,
      "name": "F#3",
      "start": 211.447,
      "duration": 0.6716,
      "bar": 59,
      "beat": 3.5,
      "duration_beats": 0.75,
      "velocity": 1.0,
      "role": "bass",
      "is_tied": false
    },
    {
      "midi": 50,
      "name": "D3",
      "start": 211.447,
      "duration": 0.8955,
      "bar": 59,
      "beat": 3.5,
      "duration_beats": 1.0,
      "velocity": 0.5,
      "role": "chord",
      "is_tied": false
    },
    {
      "midi": 72,
      "name": "C5",
      "start": 211.8948,
      "duration": 0.4478,
      "bar": 59,
      "beat": 4.0,
      "duration_beats": 0.5,
      "velocity": 1.0,
      "role": "melody",
      "is_tied": false
    },
    {
      "midi": 48,
      "name": "C3",
      "start": 211.8948,
      "duration": 0.2239,
      "bar": 59,
      "beat": 4.0,
      "duration_beats": 0.25,
      "velocity": 0.5,
      "role": "chord",
      "is_tied": false
    },
    {
      "midi": 42,
      "name": "F#2",
      "start": 211.8948,
      "duration": 0.2239,
      "bar": 59,
      "beat": 4.0,
      "duration_beats": 0.25,
      "velocity": 1.0,
      "role": "bass",
      "is_tied": false
    },
    {
      "midi": 72,
      "name": "C5",
      "start": 212.3425,
      "duration": 0.2239,
      "bar": 59,
      "beat": 4.5,
      "duration_beats": 0.25,
      "velocity": 1.0,
      "role": "melody",
      "is_tied": false
    },
    {
      "midi": 70,
      "name": "A#4",
      "start": 212.3425,
      "duration": 0.2239,
      "bar": 59,
      "beat": 4.5,
      "duration_beats": 0.25,
      "velocity": 1.0,
      "role": "melody",
      "is_tied": false
    },
    {
      "midi": 60,
      "name": "C4",
      "start": 212.3425,
      "duration": 0.2239,
      "bar": 59,
      "beat": 4.5,
      "duration_beats": 0.25,
      "velocity": 0.73,
      "role": "chord",
      "is_tied": false
    },
    {
      "midi": 57,
      "name": "A3",
      "start": 212.3425,
      "duration": 0.4478,
      "bar": 59,
      "beat": 4.5,
      "duration_beats": 0.5,
      "velocity": 0.61,
      "role": "chord",
      "is_tied": false
    },
    {
      "midi": 50,
      "name": "D3",
      "start": 212.3425,
      "duration": 1.3433,
      "bar": 59,
      "beat": 4.5,
      "duration_beats": 1.5,
      "velocity": 0.93,
      "role": "chord",
      "is_tied": false
    },
    {
      "midi": 37,
      "name": "C#2",
      "start": 212.3425,
      "duration": 0.4478,
      "bar": 59,
      "beat": 4.5,
      "duration_beats": 0.5,
      "velocity": 1.0,
      "role": "bass",
      "is_tied": false
    },
    {
      "midi": 84,
      "name": "C6",
      "start": 212.7903,
      "duration": 0.2239,
      "bar": 60,
      "beat": 1.0,
      "duration_beats": 0.25,
      "velocity": 0.8,
      "role": "melody",
      "is_tied": false
    },
    {
      "midi": 40,
      "name": "E2",
      "start": 212.7903,
      "duration": 0.2239,
      "bar": 60,
      "beat": 1.0,
      "duration_beats": 0.25,
      "velocity": 1.0,
      "role": "bass",
      "is_tied": false
    },
    {
      "midi": 94,
      "name": "A#6",
      "start": 213.238,
      "duration": 0.6716,
      "bar": 60,
      "beat": 1.5,
      "duration_beats": 0.75,
      "velocity": 1.0,
      "role": "melody",
      "is_tied": false
    },
    {
      "midi": 93,
      "name": "A6",
      "start": 213.238,
      "duration": 0.8955,
      "bar": 60,
      "beat": 1.5,
      "duration_beats": 1.0,
      "velocity": 0.7,
      "role": "melody",
      "is_tied": false
    },
    {
      "midi": 58,
      "name": "A#3",
      "start": 213.238,
      "duration": 0.2239,
      "bar": 60,
      "beat": 1.5,
      "duration_beats": 0.25,
      "velocity": 0.58,
      "role": "chord",
      "is_tied": false
    },
    {
      "midi": 50,
      "name": "D3",
      "start": 213.238,
      "duration": 0.2239,
      "bar": 60,
      "beat": 1.5,
      "duration_beats": 0.25,
      "velocity": 0.7,
      "role": "chord",
      "is_tied": false
    },
    {
      "midi": 93,
      "name": "A6",
      "start": 213.6858,
      "duration": 0.2239,
      "bar": 60,
      "beat": 2.0,
      "duration_beats": 0.25,
      "velocity": 1.0,
      "role": "melody",
      "is_tied": false
    },
    {
      "midi": 84,
      "name": "C6",
      "start": 213.6858,
      "duration": 0.2239,
      "bar": 60,
      "beat": 2.0,
      "duration_beats": 0.25,
      "velocity": 0.85,
      "role": "melody",
      "is_tied": false
    },
    {
      "midi": 36,
      "name": "C2",
      "start": 213.6858,
      "duration": 0.6716,
      "bar": 60,
      "beat": 2.0,
      "duration_beats": 0.75,
      "velocity": 1.0,
      "role": "bass",
      "is_tied": false
    },
    {
      "midi": 36,
      "name": "C2",
      "start": 213.6858,
      "duration": 0.2239,
      "bar": 60,
      "beat": 2.0,
      "duration_beats": 0.25,
      "velocity": 1.0,
      "role": "bass",
      "is_tied": false
    },
    {
      "midi": 82,
      "name": "A#5",
      "start": 214.1336,
      "duration": 0.4478,
      "bar": 60,
      "beat": 2.5,
      "duration_beats": 0.5,
      "velocity": 1.0,
      "role": "melody",
      "is_tied": false
    },
    {
      "midi": 81,
      "name": "A5",
      "start": 214.1336,
      "duration": 0.8955,
      "bar": 60,
      "beat": 2.5,
      "duration_beats": 1.0,
      "velocity": 1.0,
      "role": "melody",
      "is_tied": false
    },
    {
      "midi": 41,
      "name": "F2",
      "start": 214.1336,
      "duration": 0.2239,
      "bar": 60,
      "beat": 2.5,
      "duration_beats": 0.25,
      "velocity": 1.0,
      "role": "bass",
      "is_tied": false
    },
    {
      "midi": 82,
      "name": "A#5",
      "start": 214.5813,
      "duration": 0.2239,
      "bar": 60,
      "beat": 3.0,
      "duration_beats": 0.25,
      "velocity": 1.0,
      "role": "melody",
      "is_tied": false
    },
    {
      "midi": 81,
      "name": "A5",
      "start": 214.5813,
      "duration": 0.2239,
      "bar": 60,
      "beat": 3.0,
      "duration_beats": 0.25,
      "velocity": 0.44,
      "role": "melody",
      "is_tied": false
    },
    {
      "midi": 58,
      "name": "A#3",
      "start": 214.5813,
      "duration": 0.2239,
      "bar": 60,
      "beat": 3.0,
      "duration_beats": 0.25,
      "velocity": 0.44,
      "role": "chord",
      "is_tied": false
    },
    {
      "midi": 54,
      "name": "F#3",
      "start": 214.5813,
      "duration": 0.2239,
      "bar": 60,
      "beat": 3.0,
      "duration_beats": 0.25,
      "velocity": 0.43,
      "role": "chord",
      "is_tied": false
    },
    {
      "midi": 53,
      "name": "F3",
      "start": 214.5813,
      "duration": 0.2239,
      "bar": 60,
      "beat": 3.0,
      "duration_beats": 0.25,
      "velocity": 1.0,
      "role": "bass",
      "is_tied": false
    },
    {
      "midi": 50,
      "name": "D3",
      "start": 214.5813,
      "duration": 0.2239,
      "bar": 60,
      "beat": 3.0,
      "duration_beats": 0.25,
      "velocity": 0.81,
      "role": "chord",
      "is_tied": false
    },
    {
      "midi": 72,
      "name": "C5",
      "start": 215.0291,
      "duration": 0.2239,
      "bar": 60,
      "beat": 3.5,
      "duration_beats": 0.25,
      "velocity": 0.84,
      "role": "melody",
      "is_tied": false
    },
    {
      "midi": 70,
      "name": "A#4",
      "start": 215.0291,
      "duration": 0.8955,
      "bar": 60,
      "beat": 3.5,
      "duration_beats": 1.0,
      "velocity": 1.0,
      "role": "melody",
      "is_tied": false
    },
    {
      "midi": 46,
      "name": "A#2",
      "start": 215.0291,
      "duration": 0.6716,
      "bar": 60,
      "beat": 3.5,
      "duration_beats": 0.75,
      "velocity": 1.0,
      "role": "bass",
      "is_tied": false
    },
    {
      "midi": 72,
      "name": "C5",
      "start": 215.4769,
      "duration": 0.8955,
      "bar": 60,
      "beat": 4.0,
      "duration_beats": 1.0,
      "velocity": 0.67,
      "role": "melody",
      "is_tied": false
    },
    {
      "midi": 70,
      "name": "A#4",
      "start": 215.4769,
      "duration": 0.6716,
      "bar": 60,
      "beat": 4.0,
      "duration_beats": 0.75,
      "velocity": 0.78,
      "role": "melody",
      "is_tied": false
    },
    {
      "midi": 65,
      "name": "F4",
      "start": 215.4769,
      "duration": 0.2239,
      "bar": 60,
      "beat": 4.0,
      "duration_beats": 0.25,
      "velocity": 1.0,
      "role": "melody",
      "is_tied": false
    },
    {
      "midi": 60,
      "name": "C4",
      "start": 215.4769,
      "duration": 0.6716,
      "bar": 60,
      "beat": 4.0,
      "duration_beats": 0.75,
      "velocity": 1.0,
      "role": "chord",
      "is_tied": false
    },
    {
      "midi": 57,
      "name": "A3",
      "start": 215.4769,
      "duration": 2.6866,
      "bar": 60,
      "beat": 4.0,
      "duration_beats": 3.0,
      "velocity": 0.39,
      "role": "chord",
      "is_tied": false
    },
    {
      "midi": 48,
      "name": "C3",
      "start": 215.4769,
      "duration": 0.2239,
      "bar": 60,
      "beat": 4.0,
      "duration_beats": 0.25,
      "velocity": 0.47,
      "role": "chord",
      "is_tied": false
    },
    {
      "midi": 76,
      "name": "E5",
      "start": 215.9246,
      "duration": 0.4478,
      "bar": 60,
      "beat": 4.5,
      "duration_beats": 0.5,
      "velocity": 0.42,
      "role": "melody",
      "is_tied": false
    },
    {
      "midi": 57,
      "name": "A3",
      "start": 215.9246,
      "duration": 1.791,
      "bar": 60,
      "beat": 4.5,
      "duration_beats": 2.0,
      "velocity": 1.0,
      "role": "chord",
      "is_tied": false
    },
    {
      "midi": 50,
      "name": "D3",
      "start": 215.9246,
      "duration": 1.791,
      "bar": 60,
      "beat": 4.5,
      "duration_beats": 2.0,
      "velocity": 0.38,
      "role": "chord",
      "is_tied": false
    },
    {
      "midi": 57,
      "name": "A3",
      "start": 216.3724,
      "duration": 1.3433,
      "bar": 61,
      "beat": 1.0,
      "duration_beats": 1.5,
      "velocity": 0.78,
      "role": "chord",
      "is_tied": false
    },
    {
      "midi": 54,
      "name": "F#3",
      "start": 216.3724,
      "duration": 2.6866,
      "bar": 61,
      "beat": 1.0,
      "duration_beats": 3.0,
      "velocity": 0.93,
      "role": "chord",
      "is_tied": false
    },
    {
      "midi": 52,
      "name": "E3",
      "start": 216.3724,
      "duration": 0.4478,
      "bar": 61,
      "beat": 1.0,
      "duration_beats": 0.5,
      "velocity": 0.67,
      "role": "chord",
      "is_tied": false
    },
    {
      "midi": 50,
      "name": "D3",
      "start": 216.3724,
      "duration": 0.8955,
      "bar": 61,
      "beat": 1.0,
      "duration_beats": 1.0,
      "velocity": 0.77,
      "role": "chord",
      "is_tied": false
    },
    {
      "midi": 73,
      "name": "C#5",
      "start": 216.8201,
      "duration": 0.4478,
      "bar": 61,
      "beat": 1.5,
      "duration_beats": 0.5,
      "velocity": 0.34,
      "role": "melody",
      "is_tied": false
    },
    {
      "midi": 74,
      "name": "D5",
      "start": 217.2679,
      "duration": 1.791,
      "bar": 61,
      "beat": 2.0,
      "duration_beats": 2.0,
      "velocity": 1.0,
      "role": "melody",
      "is_tied": false
    },
    {
      "midi": 71,
      "name": "B4",
      "start": 217.2679,
      "duration": 0.4478,
      "bar": 61,
      "beat": 2.0,
      "duration_beats": 0.5,
      "velocity": 0.44,
      "role": "melody",
      "is_tied": false
    },
    {
      "midi": 50,
      "name": "D3",
      "start": 217.2679,
      "duration": 0.2239,
      "bar": 61,
      "beat": 2.0,
      "duration_beats": 0.25,
      "velocity": 0.81,
      "role": "chord",
      "is_tied": true
    },
    {
      "midi": 83,
      "name": "B5",
      "start": 217.7157,
      "duration": 0.2239,
      "bar": 61,
      "beat": 2.5,
      "duration_beats": 0.25,
      "velocity": 0.65,
      "role": "melody",
      "is_tied": false
    },
    {
      "midi": 74,
      "name": "D5",
      "start": 217.7157,
      "duration": 1.3433,
      "bar": 61,
      "beat": 2.5,
      "duration_beats": 1.5,
      "velocity": 0.78,
      "role": "melody",
      "is_tied": false
    },
    {
      "midi": 69,
      "name": "A4",
      "start": 217.7157,
      "duration": 0.2239,
      "bar": 61,
      "beat": 2.5,
      "duration_beats": 0.25,
      "velocity": 1.0,
      "role": "chord",
      "is_tied": false
    },
    {
      "midi": 50,
      "name": "D3",
      "start": 217.7157,
      "duration": 0.2239,
      "bar": 61,
      "beat": 2.5,
      "duration_beats": 0.25,
      "velocity": 0.45,
      "role": "chord",
      "is_tied": false
    },
    {
      "midi": 40,
      "name": "E2",
      "start": 217.7157,
      "duration": 0.2239,
      "bar": 61,
      "beat": 2.5,
      "duration_beats": 0.25,
      "velocity": 1.0,
      "role": "bass",
      "is_tied": false
    },
    {
      "midi": 40,
      "name": "E2",
      "start": 217.7157,
      "duration": 0.4478,
      "bar": 61,
      "beat": 2.5,
      "duration_beats": 0.5,
      "velocity": 0.86,
      "role": "bass",
      "is_tied": false
    },
    {
      "midi": 66,
      "name": "F#4",
      "start": 218.1634,
      "duration": 0.4478,
      "bar": 61,
      "beat": 3.0,
      "duration_beats": 0.5,
      "velocity": 1.0,
      "role": "melody",
      "is_tied": false
    },
    {
      "midi": 64,
      "name": "E4",
      "start": 218.1634,
      "duration": 0.2239,
      "bar": 61,
      "beat": 3.0,
      "duration_beats": 0.25,
      "velocity": 1.0,
      "role": "melody",
      "is_tied": false
    },
    {
      "midi": 50,
      "name": "D3",
      "start": 218.1634,
      "duration": 0.8955,
      "bar": 61,
      "beat": 3.0,
      "duration_beats": 1.0,
      "velocity": 0.66,
      "role": "chord",
      "is_tied": false
    },
    {
      "midi": 74,
      "name": "D5",
      "start": 218.6112,
      "duration": 0.2239,
      "bar": 61,
      "beat": 3.5,
      "duration_beats": 0.25,
      "velocity": 0.92,
      "role": "melody",
      "is_tied": false
    },
    {
      "midi": 57,
      "name": "A3",
      "start": 218.6112,
      "duration": 0.2239,
      "bar": 61,
      "beat": 3.5,
      "duration_beats": 0.25,
      "velocity": 0.59,
      "role": "chord",
      "is_tied": false
    },
    {
      "midi": 54,
      "name": "F#3",
      "start": 218.6112,
      "duration": 0.6716,
      "bar": 61,
      "beat": 3.5,
      "duration_beats": 0.75,
      "velocity": 0.79,
      "role": "bass",
      "is_tied": false
    },
    {
      "midi": 50,
      "name": "D3",
      "start": 218.6112,
      "duration": 0.6716,
      "bar": 61,
      "beat": 3.5,
      "duration_beats": 0.75,
      "velocity": 0.59,
      "role": "chord",
      "is_tied": false
    },
    {
      "midi": 73,
      "name": "C#5",
      "start": 219.0589,
      "duration": 0.4478,
      "bar": 61,
      "beat": 4.0,
      "duration_beats": 0.5,
      "velocity": 0.74,
      "role": "melody",
      "is_tied": false
    },
    {
      "midi": 69,
      "name": "A4",
      "start": 219.0589,
      "duration": 0.2239,
      "bar": 61,
      "beat": 4.0,
      "duration_beats": 0.25,
      "velocity": 0.31,
      "role": "melody",
      "is_tied": false
    },
    {
      "midi": 65,
      "name": "F4",
      "start": 219.0589,
      "duration": 0.2239,
      "bar": 61,
      "beat": 4.0,
      "duration_beats": 0.25,
      "velocity": 1.0,
      "role": "chord",
      "is_tied": false
    },
    {
      "midi": 62,
      "name": "D4",
      "start": 219.0589,
      "duration": 0.4478,
      "bar": 61,
      "beat": 4.0,
      "duration_beats": 0.5,
      "velocity": 0.91,
      "role": "chord",
      "is_tied": false
    },
    {
      "midi": 59,
      "name": "B3",
      "start": 219.0589,
      "duration": 0.4478,
      "bar": 61,
      "beat": 4.0,
      "duration_beats": 0.5,
      "velocity": 0.43,
      "role": "chord",
      "is_tied": false
    },
    {
      "midi": 56,
      "name": "G#3",
      "start": 219.0589,
      "duration": 0.2239,
      "bar": 61,
      "beat": 4.0,
      "duration_beats": 0.25,
      "velocity": 0.63,
      "role": "chord",
      "is_tied": false
    },
    {
      "midi": 73,
      "name": "C#5",
      "start": 219.5067,
      "duration": 1.3433,
      "bar": 61,
      "beat": 4.5,
      "duration_beats": 1.5,
      "velocity": 0.65,
      "role": "melody",
      "is_tied": false
    },
    {
      "midi": 72,
      "name": "C5",
      "start": 219.5067,
      "duration": 0.2239,
      "bar": 61,
      "beat": 4.5,
      "duration_beats": 0.25,
      "velocity": 1.0,
      "role": "melody",
      "is_tied": false
    },
    {
      "midi": 70,
      "name": "A#4",
      "start": 219.5067,
      "duration": 0.2239,
      "bar": 61,
      "beat": 4.5,
      "duration_beats": 0.25,
      "velocity": 0.54,
      "role": "chord",
      "is_tied": false
    },
    {
      "midi": 49,
      "name": "C#3",
      "start": 219.5067,
      "duration": 0.2239,
      "bar": 61,
      "beat": 4.5,
      "duration_beats": 0.25,
      "velocity": 0.79,
      "role": "chord",
      "is_tied": false
    },
    {
      "midi": 46,
      "name": "A#2",
      "start": 219.5067,
      "duration": 0.2239,
      "bar": 61,
      "beat": 4.5,
      "duration_beats": 0.25,
      "velocity": 1.0,
      "role": "bass",
      "is_tied": false
    },
    {
      "midi": 64,
      "name": "E4",
      "start": 219.9545,
      "duration": 0.8955,
      "bar": 62,
      "beat": 1.0,
      "duration_beats": 1.0,
      "velocity": 1.0,
      "role": "chord",
      "is_tied": false
    },
    {
      "midi": 57,
      "name": "A3",
      "start": 219.9545,
      "duration": 1.3433,
      "bar": 62,
      "beat": 1.0,
      "duration_beats": 1.5,
      "velocity": 0.6,
      "role": "chord",
      "is_tied": false
    },
    {
      "midi": 74,
      "name": "D5",
      "start": 220.85,
      "duration": 0.4478,
      "bar": 62,
      "beat": 2.0,
      "duration_beats": 0.5,
      "velocity": 0.83,
      "role": "melody",
      "is_tied": false
    },
    {
      "midi": 71,
      "name": "B4",
      "start": 220.85,
      "duration": 0.4478,
      "bar": 62,
      "beat": 2.0,
      "duration_beats": 0.5,
      "velocity": 0.9,
      "role": "melody",
      "is_tied": false
    },
    {
      "midi": 70,
      "name": "A#4",
      "start": 220.85,
      "duration": 0.4478,
      "bar": 62,
      "beat": 2.0,
      "duration_beats": 0.5,
      "velocity": 0.42,
      "role": "chord",
      "is_tied": false
    },
    {
      "midi": 67,
      "name": "G4",
      "start": 220.85,
      "duration": 0.6716,
      "bar": 62,
      "beat": 2.0,
      "duration_beats": 0.75,
      "velocity": 1.0,
      "role": "chord",
      "is_tied": false
    },
    {
      "midi": 55,
      "name": "G3",
      "start": 220.85,
      "duration": 1.3433,
      "bar": 62,
      "beat": 2.0,
      "duration_beats": 1.5,
      "velocity": 0.52,
      "role": "chord",
      "is_tied": false
    },
    {
      "midi": 52,
      "name": "E3",
      "start": 220.85,
      "duration": 0.2239,
      "bar": 62,
      "beat": 2.0,
      "duration_beats": 0.25,
      "velocity": 0.56,
      "role": "chord",
      "is_tied": false
    },
    {
      "midi": 50,
      "name": "D3",
      "start": 220.85,
      "duration": 0.2239,
      "bar": 62,
      "beat": 2.0,
      "duration_beats": 0.25,
      "velocity": 0.36,
      "role": "chord",
      "is_tied": false
    },
    {
      "midi": 49,
      "name": "C#3",
      "start": 220.85,
      "duration": 0.2239,
      "bar": 62,
      "beat": 2.0,
      "duration_beats": 0.25,
      "velocity": 0.5,
      "role": "chord",
      "is_tied": false
    },
    {
      "midi": 45,
      "name": "A2",
      "start": 220.85,
      "duration": 0.8955,
      "bar": 62,
      "beat": 2.0,
      "duration_beats": 1.0,
      "velocity": 1.0,
      "role": "bass",
      "is_tied": false
    },
    {
      "midi": 83,
      "name": "B5",
      "start": 221.2977,
      "duration": 0.2239,
      "bar": 62,
      "beat": 2.5,
      "duration_beats": 0.25,
      "velocity": 0.66,
      "role": "melody",
      "is_tied": false
    },
    {
      "midi": 76,
      "name": "E5",
      "start": 221.2977,
      "duration": 1.3433,
      "bar": 62,
      "beat": 2.5,
      "duration_beats": 1.5,
      "velocity": 0.33,
      "role": "melody",
      "is_tied": false
    },
    {
      "midi": 48,
      "name": "C3",
      "start": 221.2977,
      "duration": 0.2239,
      "bar": 62,
      "beat": 2.5,
      "duration_beats": 0.25,
      "velocity": 1.0,
      "role": "chord",
      "is_tied": false
    },
    {
      "midi": 78,
      "name": "F#5",
      "start": 221.7455,
      "duration": 0.2239,
      "bar": 62,
      "beat": 3.0,
      "duration_beats": 0.25,
      "velocity": 0.94,
      "role": "melody",
      "is_tied": false
    },
    {
      "midi": 76,
      "name": "E5",
      "start": 221.7455,
      "duration": 0.8955,
      "bar": 62,
      "beat": 3.0,
      "duration_beats": 1.0,
      "velocity": 0.66,
      "role": "melody",
      "is_tied": false
    },
    {
      "midi": 60,
      "name": "C4",
      "start": 221.7455,
      "duration": 0.6716,
      "bar": 62,
      "beat": 3.0,
      "duration_beats": 0.75,
      "velocity": 0.83,
      "role": "chord",
      "is_tied": false
    },
    {
      "midi": 55,
      "name": "G3",
      "start": 221.7455,
      "duration": 0.6716,
      "bar": 62,
      "beat": 3.0,
      "duration_beats": 0.75,
      "velocity": 0.73,
      "role": "chord",
      "is_tied": false
    },
    {
      "midi": 41,
      "name": "F2",
      "start": 221.7455,
      "duration": 0.2239,
      "bar": 62,
      "beat": 3.0,
      "duration_beats": 0.25,
      "velocity": 0.64,
      "role": "bass",
      "is_tied": true
    },
    {
      "midi": 74,
      "name": "D5",
      "start": 222.1933,
      "duration": 0.8955,
      "bar": 62,
      "beat": 3.5,
      "duration_beats": 1.0,
      "velocity": 0.83,
      "role": "melody",
      "is_tied": false
    },
    {
      "midi": 69,
      "name": "A4",
      "start": 222.1933,
      "duration": 0.6716,
      "bar": 62,
      "beat": 3.5,
      "duration_beats": 0.75,
      "velocity": 0.38,
      "role": "chord",
      "is_tied": false
    },
    {
      "midi": 54,
      "name": "F#3",
      "start": 222.1933,
      "duration": 1.3433,
      "bar": 62,
      "beat": 3.5,
      "duration_beats": 1.5,
      "velocity": 1.0,
      "role": "bass",
      "is_tied": false
    },
    {
      "midi": 52,
      "name": "E3",
      "start": 222.1933,
      "duration": 0.4478,
      "bar": 62,
      "beat": 3.5,
      "duration_beats": 0.5,
      "velocity": 0.36,
      "role": "chord",
      "is_tied": false
    },
    {
      "midi": 45,
      "name": "A2",
      "start": 222.1933,
      "duration": 0.6716,
      "bar": 62,
      "beat": 3.5,
      "duration_beats": 0.75,
      "velocity": 1.0,
      "role": "bass",
      "is_tied": false
    },
    {
      "midi": 83,
      "name": "B5",
      "start": 222.641,
      "duration": 0.2239,
      "bar": 62,
      "beat": 4.0,
      "duration_beats": 0.25,
      "velocity": 0.49,
      "role": "melody",
      "is_tied": false
    },
    {
      "midi": 74,
      "name": "D5",
      "start": 222.641,
      "duration": 0.4478,
      "bar": 62,
      "beat": 4.0,
      "duration_beats": 0.5,
      "velocity": 1.0,
      "role": "melody",
      "is_tied": false
    },
    {
      "midi": 54,
      "name": "F#3",
      "start": 222.641,
      "duration": 0.8955,
      "bar": 62,
      "beat": 4.0,
      "duration_beats": 1.0,
      "velocity": 1.0,
      "role": "bass",
      "is_tied": false
    },
    {
      "midi": 72,
      "name": "C5",
      "start": 223.0888,
      "duration": 0.6716,
      "bar": 62,
      "beat": 4.5,
      "duration_beats": 0.75,
      "velocity": 1.0,
      "role": "melody",
      "is_tied": false
    },
    {
      "midi": 72,
      "name": "C5",
      "start": 223.0888,
      "duration": 0.2239,
      "bar": 62,
      "beat": 4.5,
      "duration_beats": 0.25,
      "velocity": 0.62,
      "role": "melody",
      "is_tied": false
    },
    {
      "midi": 63,
      "name": "D#4",
      "start": 223.0888,
      "duration": 0.2239,
      "bar": 62,
      "beat": 4.5,
      "duration_beats": 0.25,
      "velocity": 1.0,
      "role": "chord",
      "is_tied": false
    },
    {
      "midi": 56,
      "name": "G#3",
      "start": 223.0888,
      "duration": 0.4478,
      "bar": 62,
      "beat": 4.5,
      "duration_beats": 0.5,
      "velocity": 0.68,
      "role": "chord",
      "is_tied": false
    },
    {
      "midi": 51,
      "name": "D#3",
      "start": 223.0888,
      "duration": 0.2239,
      "bar": 62,
      "beat": 4.5,
      "duration_beats": 0.25,
      "velocity": 1.0,
      "role": "chord",
      "is_tied": false
    },
    {
      "midi": 44,
      "name": "G#2",
      "start": 223.0888,
      "duration": 0.2239,
      "bar": 62,
      "beat": 4.5,
      "duration_beats": 0.25,
      "velocity": 1.0,
      "role": "bass",
      "is_tied": false
    },
    {
      "midi": 72,
      "name": "C5",
      "start": 223.5366,
      "duration": 0.2239,
      "bar": 62,
      "beat": 5.0,
      "duration_beats": 0.25,
      "velocity": 0.55,
      "role": "melody",
      "is_tied": true
    },
    {
      "midi": 72,
      "name": "C5",
      "start": 223.5366,
      "duration": 0.2239,
      "bar": 62,
      "beat": 5.0,
      "duration_beats": 0.25,
      "velocity": 0.65,
      "role": "melody",
      "is_tied": false
    },
    {
      "midi": 59,
      "name": "B3",
      "start": 223.5366,
      "duration": 0.2239,
      "bar": 62,
      "beat": 5.0,
      "duration_beats": 0.25,
      "velocity": 0.52,
      "role": "chord",
      "is_tied": false
    },
    {
      "midi": 59,
      "name": "B3",
      "start": 223.5366,
      "duration": 1.3433,
      "bar": 62,
      "beat": 5.0,
      "duration_beats": 1.5,
      "velocity": 0.52,
      "role": "chord",
      "is_tied": false
    },
    {
      "midi": 55,
      "name": "G3",
      "start": 223.5366,
      "duration": 0.2239,
      "bar": 62,
      "beat": 5.0,
      "duration_beats": 0.25,
      "velocity": 1.0,
      "role": "chord",
      "is_tied": false
    },
    {
      "midi": 55,
      "name": "G3",
      "start": 223.5366,
      "duration": 0.2239,
      "bar": 62,
      "beat": 5.0,
      "duration_beats": 0.25,
      "velocity": 0.78,
      "role": "chord",
      "is_tied": false
    },
    {
      "midi": 52,
      "name": "E3",
      "start": 223.5366,
      "duration": 1.3433,
      "bar": 62,
      "beat": 5.0,
      "duration_beats": 1.5,
      "velocity": 0.57,
      "role": "chord",
      "is_tied": false
    },
    {
      "midi": 51,
      "name": "D#3",
      "start": 223.5366,
      "duration": 0.2239,
      "bar": 62,
      "beat": 5.0,
      "duration_beats": 0.25,
      "velocity": 0.81,
      "role": "chord",
      "is_tied": true
    },
    {
      "midi": 50,
      "name": "D3",
      "start": 223.5366,
      "duration": 0.2239,
      "bar": 62,
      "beat": 5.0,
      "duration_beats": 0.25,
      "velocity": 1.0,
      "role": "chord",
      "is_tied": false
    },
    {
      "midi": 50,
      "name": "D3",
      "start": 223.5366,
      "duration": 3.5821,
      "bar": 62,
      "beat": 5.0,
      "duration_beats": 4.0,
      "velocity": 1.0,
      "role": "chord",
      "is_tied": false
    },
    {
      "midi": 74,
      "name": "D5",
      "start": 223.9843,
      "duration": 0.6716,
      "bar": 63,
      "beat": 1.5,
      "duration_beats": 0.75,
      "velocity": 1.0,
      "role": "melody",
      "is_tied": false
    },
    {
      "midi": 69,
      "name": "A4",
      "start": 223.9843,
      "duration": 0.2239,
      "bar": 63,
      "beat": 1.5,
      "duration_beats": 0.25,
      "velocity": 0.47,
      "role": "melody",
      "is_tied": false
    },
    {
      "midi": 69,
      "name": "A4",
      "start": 223.9843,
      "duration": 0.4478,
      "bar": 63,
      "beat": 1.5,
      "duration_beats": 0.5,
      "velocity": 0.62,
      "role": "melody",
      "is_tied": false
    },
    {
      "midi": 67,
      "name": "G4",
      "start": 223.9843,
      "duration": 0.4478,
      "bar": 63,
      "beat": 1.5,
      "duration_beats": 0.5,
      "velocity": 0.95,
      "role": "chord",
      "is_tied": false
    },
    {
      "midi": 62,
      "name": "D4",
      "start": 223.9843,
      "duration": 1.791,
      "bar": 63,
      "beat": 1.5,
      "duration_beats": 2.0,
      "velocity": 1.0,
      "role": "chord",
      "is_tied": false
    },
    {
      "midi": 54,
      "name": "F#3",
      "start": 223.9843,
      "duration": 0.6716,
      "bar": 63,
      "beat": 1.5,
      "duration_beats": 0.75,
      "velocity": 0.34,
      "role": "bass",
      "is_tied": true
    },
    {
      "midi": 78,
      "name": "F#5",
      "start": 224.4321,
      "duration": 0.8955,
      "bar": 63,
      "beat": 2.0,
      "duration_beats": 1.0,
      "velocity": 0.63,
      "role": "melody",
      "is_tied": false
    },
    {
      "midi": 71,
      "name": "B4",
      "start": 224.4321,
      "duration": 0.4478,
      "bar": 63,
      "beat": 2.0,
      "duration_beats": 0.5,
      "velocity": 1.0,
      "role": "melody",
      "is_tied": false
    },
    {
      "midi": 81,
      "name": "A5",
      "start": 224.8798,
      "duration": 0.4478,
      "bar": 63,
      "beat": 2.5,
      "duration_beats": 0.5,
      "velocity": 0.97,
      "role": "melody",
      "is_tied": false
    },
    {
      "midi": 78,
      "name": "F#5",
      "start": 224.8798,
      "duration": 0.4478,
      "bar": 63,
      "beat": 2.5,
      "duration_beats": 0.5,
      "velocity": 1.0,
      "role": "melody",
      "is_tied": false
    },
    {
      "midi": 52,
      "name": "E3",
      "start": 224.8798,
      "duration": 0.2239,
      "bar": 63,
      "beat": 2.5,
      "duration_beats": 0.25,
      "velocity": 0.48,
      "role": "chord",
      "is_tied": false
    },
    {
      "midi": 43,
      "name": "G2",
      "start": 224.8798,
      "duration": 0.2239,
      "bar": 63,
      "beat": 2.5,
      "duration_beats": 0.25,
      "velocity": 0.54,
      "role": "bass",
      "is_tied": false
    },
    {
      "midi": 76,
      "name": "E5",
      "start": 225.3276,
      "duration": 0.2239,
      "bar": 63,
      "beat": 3.0,
      "duration_beats": 0.25,
      "velocity": 1.0,
      "role": "melody",
      "is_tied": false
    },
    {
      "midi": 59,
      "name": "B3",
      "start": 225.3276,
      "duration": 1.791,
      "bar": 63,
      "beat": 3.0,
      "duration_beats": 2.0,
      "velocity": 0.36,
      "role": "chord",
      "is_tied": false
    },
    {
      "midi": 57,
      "name": "A3",
      "start": 225.3276,
      "duration": 0.4478,
      "bar": 63,
      "beat": 3.0,
      "duration_beats": 0.5,
      "velocity": 0.35,
      "role": "chord",
      "is_tied": false
    },
    {
      "midi": 83,
      "name": "B5",
      "start": 225.7754,
      "duration": 0.6716,
      "bar": 63,
      "beat": 3.5,
      "duration_beats": 0.75,
      "velocity": 0.67,
      "role": "melody",
      "is_tied": false
    },
    {
      "midi": 78,
      "name": "F#5",
      "start": 225.7754,
      "duration": 0.2239,
      "bar": 63,
      "beat": 3.5,
      "duration_beats": 0.25,
      "velocity": 0.87,
      "role": "melody",
      "is_tied": false
    },
    {
      "midi": 35,
      "name": "B1",
      "start": 225.7754,
      "duration": 0.2239,
      "bar": 63,
      "beat": 3.5,
      "duration_beats": 0.25,
      "velocity": 0.4,
      "role": "bass",
      "is_tied": false
    },
    {
      "midi": 81,
      "name": "A5",
      "start": 226.2231,
      "duration": 0.4478,
      "bar": 63,
      "beat": 4.0,
      "duration_beats": 0.5,
      "velocity": 1.0,
      "role": "melody",
      "is_tied": false
    },
    {
      "midi": 71,
      "name": "B4",
      "start": 226.2231,
      "duration": 0.2239,
      "bar": 63,
      "beat": 4.0,
      "duration_beats": 0.25,
      "velocity": 0.64,
      "role": "chord",
      "is_tied": false
    },
    {
      "midi": 62,
      "name": "D4",
      "start": 226.2231,
      "duration": 0.8955,
      "bar": 63,
      "beat": 4.0,
      "duration_beats": 1.0,
      "velocity": 0.94,
      "role": "chord",
      "is_tied": false
    },
    {
      "midi": 41,
      "name": "F2",
      "start": 226.2231,
      "duration": 0.4478,
      "bar": 63,
      "beat": 4.0,
      "duration_beats": 0.5,
      "velocity": 0.3,
      "role": "bass",
      "is_tied": false
    },
    {
      "midi": 74,
      "name": "D5",
      "start": 226.6709,
      "duration": 0.8955,
      "bar": 63,
      "beat": 4.5,
      "duration_beats": 1.0,
      "velocity": 1.0,
      "role": "melody",
      "is_tied": false
    },
    {
      "midi": 74,
      "name": "D5",
      "start": 226.6709,
      "duration": 0.6716,
      "bar": 63,
      "beat": 4.5,
      "duration_beats": 0.75,
      "velocity": 1.0,
      "role": "melody",
      "is_tied": false
    },
    {
      "midi": 71,
      "name": "B4",
      "start": 226.6709,
      "duration": 0.4478,
      "bar": 63,
      "beat": 4.5,
      "duration_beats": 0.5,
      "velocity": 1.0,
      "role": "chord",
      "is_tied": false
    },
    {
      "midi": 67,
      "name": "G4",
      "start": 226.6709,
      "duration": 0.4478,
      "bar": 63,
      "beat": 4.5,
      "duration_beats": 0.5,
      "velocity": 0.7,
      "role": "chord",
      "is_tied": false
    },
    {
      "midi": 50,
      "name": "D3",
      "start": 226.6709,
      "duration": 0.4478,
      "bar": 63,
      "beat": 4.5,
      "duration_beats": 0.5,
      "velocity": 0.77,
      "role": "chord",
      "is_tied": false
    },
    {
      "midi": 43,
      "name": "G2",
      "start": 226.6709,
      "duration": 0.4478,
      "bar": 63,
      "beat": 4.5,
      "duration_beats": 0.5,
      "velocity": 1.0,
      "role": "bass",
      "is_tied": false
    },
    {
      "midi": 77,
      "name": "F5",
      "start": 227.1186,
      "duration": 0.4478,
      "bar": 64,
      "beat": 1.0,
      "duration_beats": 0.5,
      "velocity": 1.0,
      "role": "melody",
      "is_tied": false
    },
    {
      "midi": 58,
      "name": "A#3",
      "start": 227.1186,
      "duration": 0.4478,
      "bar": 64,
      "beat": 1.0,
      "duration_beats": 0.5,
      "velocity": 0.34,
      "role": "chord",
      "is_tied": false
    },
    {
      "midi": 57,
      "name": "A3",
      "start": 227.1186,
      "duration": 1.3433,
      "bar": 64,
      "beat": 1.0,
      "duration_beats": 1.5,
      "velocity": 0.3,
      "role": "chord",
      "is_tied": false
    },
    {
      "midi": 53,
      "name": "F3",
      "start": 227.1186,
      "duration": 0.8955,
      "bar": 64,
      "beat": 1.0,
      "duration_beats": 1.0,
      "velocity": 1.0,
      "role": "chord",
      "is_tied": false
    },
    {
      "midi": 77,
      "name": "F5",
      "start": 227.5664,
      "duration": 0.2239,
      "bar": 64,
      "beat": 1.5,
      "duration_beats": 0.25,
      "velocity": 1.0,
      "role": "melody",
      "is_tied": false
    },
    {
      "midi": 76,
      "name": "E5",
      "start": 227.5664,
      "duration": 0.4478,
      "bar": 64,
      "beat": 1.5,
      "duration_beats": 0.5,
      "velocity": 0.61,
      "role": "melody",
      "is_tied": false
    },
    {
      "midi": 76,
      "name": "E5",
      "start": 227.5664,
      "duration": 0.2239,
      "bar": 64,
      "beat": 1.5,
      "duration_beats": 0.25,
      "velocity": 0.9,
      "role": "melody",
      "is_tied": false
    },
    {
      "midi": 72,
      "name": "C5",
      "start": 227.5664,
      "duration": 0.6716,
      "bar": 64,
      "beat": 1.5,
      "duration_beats": 0.75,
      "velocity": 0.73,
      "role": "melody",
      "is_tied": false
    },
    {
      "midi": 70,
      "name": "A#4",
      "start": 227.5664,
      "duration": 0.2239,
      "bar": 64,
      "beat": 1.5,
      "duration_beats": 0.25,
      "velocity": 0.56,
      "role": "chord",
      "is_tied": false
    },
    {
      "midi": 58,
      "name": "A#3",
      "start": 227.5664,
      "duration": 0.2239,
      "bar": 64,
      "beat": 1.5,
      "duration_beats": 0.25,
      "velocity": 0.38,
      "role": "chord",
      "is_tied": false
    },
    {
      "midi": 53,
      "name": "F3",
      "start": 227.5664,
      "duration": 0.6716,
      "bar": 64,
      "beat": 1.5,
      "duration_beats": 0.75,
      "velocity": 1.0,
      "role": "chord",
      "is_tied": false
    },
    {
      "midi": 53,
      "name": "F3",
      "start": 227.5664,
      "duration": 0.6716,
      "bar": 64,
      "beat": 1.5,
      "duration_beats": 0.75,
      "velocity": 0.99,
      "role": "chord",
      "is_tied": false
    },
    {
      "midi": 46,
      "name": "A#2",
      "start": 227.5664,
      "duration": 0.4478,
      "bar": 64,
      "beat": 1.5,
      "duration_beats": 0.5,
      "velocity": 1.0,
      "role": "bass",
      "is_tied": false
    },
    {
      "midi": 67,
      "name": "G4",
      "start": 228.0142,
      "duration": 0.2239,
      "bar": 64,
      "beat": 2.0,
      "duration_beats": 0.25,
      "velocity": 0.36,
      "role": "melody",
      "is_tied": false
    },
    {
      "midi": 66,
      "name": "F#4",
      "start": 228.0142,
      "duration": 0.2239,
      "bar": 64,
      "beat": 2.0,
      "duration_beats": 0.25,
      "velocity": 0.55,
      "role": "chord",
      "is_tied": false
    },
    {
      "midi": 62,
      "name": "D4",
      "start": 228.0142,
      "duration": 2.6866,
      "bar": 64,
      "beat": 2.0,
      "duration_beats": 3.0,
      "velocity": 1.0,
      "role": "chord",
      "is_tied": false
    },
    {
      "midi": 50,
      "name": "D3",
      "start": 228.0142,
      "duration": 1.791,
      "bar": 64,
      "beat": 2.0,
      "duration_beats": 2.0,
      "velocity": 0.55,
      "role": "chord",
      "is_tied": false
    },
    {
      "midi": 48,
      "name": "C3",
      "start": 228.0142,
      "duration": 0.2239,
      "bar": 64,
      "beat": 2.0,
      "duration_beats": 0.25,
      "velocity": 0.33,
      "role": "chord",
      "is_tied": false
    },
    {
      "midi": 45,
      "name": "A2",
      "start": 228.0142,
      "duration": 0.2239,
      "bar": 64,
      "beat": 2.0,
      "duration_beats": 0.25,
      "velocity": 1.0,
      "role": "bass",
      "is_tied": false
    },
    {
      "midi": 70,
      "name": "A#4",
      "start": 228.4619,
      "duration": 0.4478,
      "bar": 64,
      "beat": 2.5,
      "duration_beats": 0.5,
      "velocity": 0.33,
      "role": "melody",
      "is_tied": false
    },
    {
      "midi": 70,
      "name": "A#4",
      "start": 228.4619,
      "duration": 0.2239,
      "bar": 64,
      "beat": 2.5,
      "duration_beats": 0.25,
      "velocity": 0.33,
      "role": "melody",
      "is_tied": false
    },
    {
      "midi": 69,
      "name": "A4",
      "start": 228.4619,
      "duration": 0.6716,
      "bar": 64,
      "beat": 2.5,
      "duration_beats": 0.75,
      "velocity": 1.0,
      "role": "melody",
      "is_tied": false
    },
    {
      "midi": 69,
      "name": "A4",
      "start": 228.4619,
      "duration": 0.4478,
      "bar": 64,
      "beat": 2.5,
      "duration_beats": 0.5,
      "velocity": 0.66,
      "role": "melody",
      "is_tied": false
    },
    {
      "midi": 62,
      "name": "D4",
      "start": 228.4619,
      "duration": 2.6866,
      "bar": 64,
      "beat": 2.5,
      "duration_beats": 3.0,
      "velocity": 0.96,
      "role": "chord",
      "is_tied": false
    },
    {
      "midi": 69,
      "name": "A4",
      "start": 228.9097,
      "duration": 0.2239,
      "bar": 64,
      "beat": 3.0,
      "duration_beats": 0.25,
      "velocity": 0.32,
      "role": "melody",
      "is_tied": false
    },
    {
      "midi": 67,
      "name": "G4",
      "start": 228.9097,
      "duration": 0.6716,
      "bar": 64,
      "beat": 3.0,
      "duration_beats": 0.75,
      "velocity": 0.66,
      "role": "melody",
      "is_tied": false
    },
    {
      "midi": 50,
      "name": "D3",
      "start": 228.9097,
      "duration": 1.3433,
      "bar": 64,
      "beat": 3.0,
      "duration_beats": 1.5,
      "velocity": 0.62,
      "role": "chord",
      "is_tied": false
    },
    {
      "midi": 47,
      "name": "B2",
      "start": 228.9097,
      "duration": 0.2239,
      "bar": 64,
      "beat": 3.0,
      "duration_beats": 0.25,
      "velocity": 0.54,
      "role": "bass",
      "is_tied": false
    },
    {
      "midi": 74,
      "name": "D5",
      "start": 229.3574,
      "duration": 0.2239,
      "bar": 64,
      "beat": 3.5,
      "duration_beats": 0.25,
      "velocity": 0.67,
      "role": "melody",
      "is_tied": false
    },
    {
      "midi": 64,
      "name": "E4",
      "start": 229.3574,
      "duration": 0.2239,
      "bar": 64,
      "beat": 3.5,
      "duration_beats": 0.25,
      "velocity": 1.0,
      "role": "melody",
      "is_tied": false
    },
    {
      "midi": 58,
      "name": "A#3",
      "start": 229.3574,
      "duration": 2.6866,
      "bar": 64,
      "beat": 3.5,
      "duration_beats": 3.0,
      "velocity": 0.7,
      "role": "chord",
      "is_tied": false
    },
    {
      "midi": 58,
      "name": "A#3",
      "start": 229.3574,
      "duration": 2.6866,
      "bar": 64,
      "beat": 3.5,
      "duration_beats": 3.0,
      "velocity": 0.59,
      "role": "chord",
      "is_tied": false
    },
    {
      "midi": 50,
      "name": "D3",
      "start": 229.3574,
      "duration": 0.6716,
      "bar": 64,
      "beat": 3.5,
      "duration_beats": 0.75,
      "velocity": 0.65,
      "role": "chord",
      "is_tied": false
    },
    {
      "midi": 65,
      "name": "F4",
      "start": 229.8052,
      "duration": 0.6716,
      "bar": 64,
      "beat": 4.0,
      "duration_beats": 0.75,
      "velocity": 1.0,
      "role": "chord",
      "is_tied": false
    },
    {
      "midi": 64,
      "name": "E4",
      "start": 229.8052,
      "duration": 1.3433,
      "bar": 64,
      "beat": 4.0,
      "duration_beats": 1.5,
      "velocity": 1.0,
      "role": "melody",
      "is_tied": false
    },
    {
      "midi": 62,
      "name": "D4",
      "start": 229.8052,
      "duration": 1.3433,
      "bar": 64,
      "beat": 4.0,
      "duration_beats": 1.5,
      "velocity": 0.49,
      "role": "chord",
      "is_tied": false
    },
    {
      "midi": 60,
      "name": "C4",
      "start": 229.8052,
      "duration": 1.3433,
      "bar": 64,
      "beat": 4.0,
      "duration_beats": 1.5,
      "velocity": 0.74,
      "role": "chord",
      "is_tied": false
    },
    {
      "midi": 33,
      "name": "A1",
      "start": 230.253,
      "duration": 0.4478,
      "bar": 64,
      "beat": 4.5,
      "duration_beats": 0.5,
      "velocity": 0.38,
      "role": "bass",
      "is_tied": false
    },
    {
      "midi": 72,
      "name": "C5",
      "start": 230.7007,
      "duration": 0.4478,
      "bar": 65,
      "beat": 1.0,
      "duration_beats": 0.5,
      "velocity": 0.32,
      "role": "melody",
      "is_tied": false
    },
    {
      "midi": 52,
      "name": "E3",
      "start": 230.7007,
      "duration": 0.4478,
      "bar": 65,
      "beat": 1.0,
      "duration_beats": 0.5,
      "velocity": 0.41,
      "role": "chord",
      "is_tied": false
    },
    {
      "midi": 70,
      "name": "A#4",
      "start": 231.1485,
      "duration": 0.6716,
      "bar": 65,
      "beat": 1.5,
      "duration_beats": 0.75,
      "velocity": 0.65,
      "role": "melody",
      "is_tied": false
    },
    {
      "midi": 50,
      "name": "D3",
      "start": 231.1485,
      "duration": 0.8955,
      "bar": 65,
      "beat": 1.5,
      "duration_beats": 1.0,
      "velocity": 0.88,
      "role": "chord",
      "is_tied": false
    },
    {
      "midi": 41,
      "name": "F2",
      "start": 231.1485,
      "duration": 0.8955,
      "bar": 65,
      "beat": 1.5,
      "duration_beats": 1.0,
      "velocity": 0.4,
      "role": "bass",
      "is_tied": false
    },
    {
      "midi": 71,
      "name": "B4",
      "start": 231.5963,
      "duration": 0.6716,
      "bar": 65,
      "beat": 2.0,
      "duration_beats": 0.75,
      "velocity": 0.63,
      "role": "melody",
      "is_tied": false
    },
    {
      "midi": 45,
      "name": "A2",
      "start": 231.5963,
      "duration": 0.6716,
      "bar": 65,
      "beat": 2.0,
      "duration_beats": 0.75,
      "velocity": 1.0,
      "role": "bass",
      "is_tied": false
    },
    {
      "midi": 74,
      "name": "D5",
      "start": 232.044,
      "duration": 0.8955,
      "bar": 65,
      "beat": 2.5,
      "duration_beats": 1.0,
      "velocity": 1.0,
      "role": "melody",
      "is_tied": false
    },
    {
      "midi": 71,
      "name": "B4",
      "start": 232.044,
      "duration": 0.4478,
      "bar": 65,
      "beat": 2.5,
      "duration_beats": 0.5,
      "velocity": 0.43,
      "role": "melody",
      "is_tied": false
    },
    {
      "midi": 33,
      "name": "A1",
      "start": 232.044,
      "duration": 0.6716,
      "bar": 65,
      "beat": 2.5,
      "duration_beats": 0.75,
      "velocity": 0.66,
      "role": "bass",
      "is_tied": false
    },
    {
      "midi": 69,
      "name": "A4",
      "start": 232.4918,
      "duration": 0.4478,
      "bar": 65,
      "beat": 3.0,
      "duration_beats": 0.5,
      "velocity": 1.0,
      "role": "chord",
      "is_tied": false
    },
    {
      "midi": 67,
      "name": "G4",
      "start": 232.4918,
      "duration": 0.6716,
      "bar": 65,
      "beat": 3.0,
      "duration_beats": 0.75,
      "velocity": 0.64,
      "role": "melody",
      "is_tied": false
    },
    {
      "midi": 50,
      "name": "D3",
      "start": 232.4918,
      "duration": 0.4478,
      "bar": 65,
      "beat": 3.0,
      "duration_beats": 0.5,
      "velocity": 0.31,
      "role": "chord",
      "is_tied": false
    },
    {
      "midi": 74,
      "name": "D5",
      "start": 232.9395,
      "duration": 0.4478,
      "bar": 65,
      "beat": 3.5,
      "duration_beats": 0.5,
      "velocity": 0.33,
      "role": "melody",
      "is_tied": false
    },
    {
      "midi": 71,
      "name": "B4",
      "start": 232.9395,
      "duration": 0.4478,
      "bar": 65,
      "beat": 3.5,
      "duration_beats": 0.5,
      "velocity": 0.58,
      "role": "melody",
      "is_tied": false
    },
    {
      "midi": 69,
      "name": "A4",
      "start": 232.9395,
      "duration": 0.2239,
      "bar": 65,
      "beat": 3.5,
      "duration_beats": 0.25,
      "velocity": 0.65,
      "role": "melody",
      "is_tied": true
    },
    {
      "midi": 66,
      "name": "F#4",
      "start": 232.9395,
      "duration": 1.3433,
      "bar": 65,
      "beat": 3.5,
      "duration_beats": 1.5,
      "velocity": 0.37,
      "role": "melody",
      "is_tied": false
    },
    {
      "midi": 54,
      "name": "F#3",
      "start": 232.9395,
      "duration": 1.791,
      "bar": 65,
      "beat": 3.5,
      "duration_beats": 2.0,
      "velocity": 0.96,
      "role": "bass",
      "is_tied": false
    },
    {
      "midi": 35,
      "name": "B1",
      "start": 232.9395,
      "duration": 0.8955,
      "bar": 65,
      "beat": 3.5,
      "duration_beats": 1.0,
      "velocity": 0.32,
      "role": "bass",
      "is_tied": false
    },
    {
      "midi": 54,
      "name": "F#3",
      "start": 233.8351,
      "duration": 0.8955,
      "bar": 65,
      "beat": 4.5,
      "duration_beats": 1.0,
      "velocity": 0.78,
      "role": "bass",
      "is_tied": false
    },
    {
      "midi": 50,
      "name": "D3",
      "start": 233.8351,
      "duration": 0.4478,
      "bar": 65,
      "beat": 4.5,
      "duration_beats": 0.5,
      "velocity": 0.57,
      "role": "chord",
      "is_tied": false
    },
    {
      "midi": 74,
      "name": "D5",
      "start": 234.2828,
      "duration": 0.4478,
      "bar": 66,
      "beat": 1.0,
      "duration_beats": 0.5,
      "velocity": 0.31,
      "role": "melody",
      "is_tied": false
    },
    {
      "midi": 67,
      "name": "G4",
      "start": 234.2828,
      "duration": 0.2239,
      "bar": 66,
      "beat": 1.0,
      "duration_beats": 0.25,
      "velocity": 0.72,
      "role": "melody",
      "is_tied": false
    },
    {
      "midi": 64,
      "name": "E4",
      "start": 234.2828,
      "duration": 0.8955,
      "bar": 66,
      "beat": 1.0,
      "duration_beats": 1.0,
      "velocity": 1.0,
      "role": "melody",
      "is_tied": false
    },
    {
      "midi": 62,
      "name": "D4",
      "start": 234.2828,
      "duration": 0.4478,
      "bar": 66,
      "beat": 1.0,
      "duration_beats": 0.5,
      "velocity": 1.0,
      "role": "chord",
      "is_tied": false
    },
    {
      "midi": 55,
      "name": "G3",
      "start": 234.2828,
      "duration": 1.791,
      "bar": 66,
      "beat": 1.0,
      "duration_beats": 2.0,
      "velocity": 0.5,
      "role": "chord",
      "is_tied": false
    },
    {
      "midi": 54,
      "name": "F#3",
      "start": 234.2828,
      "duration": 0.6716,
      "bar": 66,
      "beat": 1.0,
      "duration_beats": 0.75,
      "velocity": 1.0,
      "role": "bass",
      "is_tied": false
    },
    {
      "midi": 60,
      "name": "C4",
      "start": 234.7306,
      "duration": 0.8955,
      "bar": 66,
      "beat": 1.5,
      "duration_beats": 1.0,
      "velocity": 0.82,
      "role": "chord",
      "is_tied": false
    },
    {
      "midi": 57,
      "name": "A3",
      "start": 234.7306,
      "duration": 0.8955,
      "bar": 66,
      "beat": 1.5,
      "duration_beats": 1.0,
      "velocity": 0.66,
      "role": "chord",
      "is_tied": false
    },
    {
      "midi": 52,
      "name": "E3",
      "start": 234.7306,
      "duration": 0.6716,
      "bar": 66,
      "beat": 1.5,
      "duration_beats": 0.75,
      "velocity": 0.64,
      "role": "chord",
      "is_tied": false
    },
    {
      "midi": 50,
      "name": "D3",
      "start": 234.7306,
      "duration": 0.8955,
      "bar": 66,
      "beat": 1.5,
      "duration_beats": 1.0,
      "velocity": 0.71,
      "role": "chord",
      "is_tied": false
    },
    {
      "midi": 74,
      "name": "D5",
      "start": 235.6261,
      "duration": 0.6716,
      "bar": 66,
      "beat": 2.5,
      "duration_beats": 0.75,
      "velocity": 1.0,
      "role": "melody",
      "is_tied": false
    },
    {
      "midi": 71,
      "name": "B4",
      "start": 235.6261,
      "duration": 0.2239,
      "bar": 66,
      "beat": 2.5,
      "duration_beats": 0.25,
      "velocity": 0.84,
      "role": "melody",
      "is_tied": false
    },
    {
      "midi": 64,
      "name": "E4",
      "start": 235.6261,
      "duration": 0.2239,
      "bar": 66,
      "beat": 2.5,
      "duration_beats": 0.25,
      "velocity": 0.4,
      "role": "melody",
      "is_tied": false
    },
    {
      "midi": 60,
      "name": "C4",
      "start": 235.6261,
      "duration": 0.2239,
      "bar": 66,
      "beat": 2.5,
      "duration_beats": 0.25,
      "velocity": 0.41,
      "role": "chord",
      "is_tied": false
    },
    {
      "midi": 57,
      "name": "A3",
      "start": 235.6261,
      "duration": 0.2239,
      "bar": 66,
      "beat": 2.5,
      "duration_beats": 0.25,
      "velocity": 0.8,
      "role": "chord",
      "is_tied": false
    },
    {
      "midi": 55,
      "name": "G3",
      "start": 235.6261,
      "duration": 1.3433,
      "bar": 66,
      "beat": 2.5,
      "duration_beats": 1.5,
      "velocity": 0.71,
      "role": "chord",
      "is_tied": false
    },
    {
      "midi": 50,
      "name": "D3",
      "start": 235.6261,
      "duration": 0.2239,
      "bar": 66,
      "beat": 2.5,
      "duration_beats": 0.25,
      "velocity": 0.39,
      "role": "chord",
      "is_tied": false
    },
    {
      "midi": 41,
      "name": "F2",
      "start": 235.6261,
      "duration": 0.2239,
      "bar": 66,
      "beat": 2.5,
      "duration_beats": 0.25,
      "velocity": 1.0,
      "role": "bass",
      "is_tied": false
    },
    {
      "midi": 71,
      "name": "B4",
      "start": 236.0739,
      "duration": 2.6866,
      "bar": 66,
      "beat": 3.0,
      "duration_beats": 3.0,
      "velocity": 0.42,
      "role": "melody",
      "is_tied": false
    },
    {
      "midi": 57,
      "name": "A3",
      "start": 236.0739,
      "duration": 0.2239,
      "bar": 66,
      "beat": 3.0,
      "duration_beats": 0.25,
      "velocity": 0.62,
      "role": "chord",
      "is_tied": false
    },
    {
      "midi": 52,
      "name": "E3",
      "start": 236.0739,
      "duration": 1.791,
      "bar": 66,
      "beat": 3.0,
      "duration_beats": 2.0,
      "velocity": 0.42,
      "role": "chord",
      "is_tied": false
    },
    {
      "midi": 50,
      "name": "D3",
      "start": 236.0739,
      "duration": 1.3433,
      "bar": 66,
      "beat": 3.0,
      "duration_beats": 1.5,
      "velocity": 0.37,
      "role": "chord",
      "is_tied": false
    },
    {
      "midi": 83,
      "name": "B5",
      "start": 236.5216,
      "duration": 0.4478,
      "bar": 66,
      "beat": 3.5,
      "duration_beats": 0.5,
      "velocity": 1.0,
      "role": "melody",
      "is_tied": false
    },
    {
      "midi": 64,
      "name": "E4",
      "start": 236.5216,
      "duration": 0.2239,
      "bar": 66,
      "beat": 3.5,
      "duration_beats": 0.25,
      "velocity": 0.99,
      "role": "chord",
      "is_tied": false
    },
    {
      "midi": 48,
      "name": "C3",
      "start": 236.5216,
      "duration": 0.6716,
      "bar": 66,
      "beat": 3.5,
      "duration_beats": 0.75,
      "velocity": 0.38,
      "role": "chord",
      "is_tied": false
    },
    {
      "midi": 71,
      "name": "B4",
      "start": 236.9694,
      "duration": 1.3433,
      "bar": 66,
      "beat": 4.0,
      "duration_beats": 1.5,
      "velocity": 0.77,
      "role": "melody",
      "is_tied": false
    },
    {
      "midi": 42,
      "name": "F#2",
      "start": 236.9694,
      "duration": 0.6716,
      "bar": 66,
      "beat": 4.0,
      "duration_beats": 0.75,
      "velocity": 0.89,
      "role": "bass",
      "is_tied": false
    },
    {
      "midi": 74,
      "name": "D5",
      "start": 237.4171,
      "duration": 0.8955,
      "bar": 66,
      "beat": 4.5,
      "duration_beats": 1.0,
      "velocity": 1.0,
      "role": "melody",
      "is_tied": false
    },
    {
      "midi": 71,
      "name": "B4",
      "start": 237.4171,
      "duration": 0.8955,
      "bar": 66,
      "beat": 4.5,
      "duration_beats": 1.0,
      "velocity": 0.33,
      "role": "melody",
      "is_tied": false
    },
    {
      "midi": 60,
      "name": "C4",
      "start": 237.4171,
      "duration": 0.8955,
      "bar": 66,
      "beat": 4.5,
      "duration_beats": 1.0,
      "velocity": 1.0,
      "role": "chord",
      "is_tied": false
    },
    {
      "midi": 56,
      "name": "G#3",
      "start": 237.4171,
      "duration": 0.6716,
      "bar": 66,
      "beat": 4.5,
      "duration_beats": 0.75,
      "velocity": 0.75,
      "role": "chord",
      "is_tied": false
    },
    {
      "midi": 52,
      "name": "E3",
      "start": 237.4171,
      "duration": 0.2239,
      "bar": 66,
      "beat": 4.5,
      "duration_beats": 0.25,
      "velocity": 0.5,
      "role": "chord",
      "is_tied": false
    },
    {
      "midi": 51,
      "name": "D#3",
      "start": 237.4171,
      "duration": 0.6716,
      "bar": 66,
      "beat": 4.5,
      "duration_beats": 0.75,
      "velocity": 0.47,
      "role": "chord",
      "is_tied": false
    },
    {
      "midi": 42,
      "name": "F#2",
      "start": 237.4171,
      "duration": 0.2239,
      "bar": 66,
      "beat": 4.5,
      "duration_beats": 0.25,
      "velocity": 1.0,
      "role": "bass",
      "is_tied": false
    },
    {
      "midi": 66,
      "name": "F#4",
      "start": 238.3127,
      "duration": 0.8955,
      "bar": 67,
      "beat": 1.5,
      "duration_beats": 1.0,
      "velocity": 0.73,
      "role": "melody",
      "is_tied": false
    },
    {
      "midi": 67,
      "name": "G4",
      "start": 238.7604,
      "duration": 0.6716,
      "bar": 67,
      "beat": 2.0,
      "duration_beats": 0.75,
      "velocity": 0.38,
      "role": "melody",
      "is_tied": false
    },
    {
      "midi": 66,
      "name": "F#4",
      "start": 238.7604,
      "duration": 0.6716,
      "bar": 67,
      "beat": 2.0,
      "duration_beats": 0.75,
      "velocity": 0.58,
      "role": "melody",
      "is_tied": false
    },
    {
      "midi": 52,
      "name": "E3",
      "start": 238.7604,
      "duration": 1.3433,
      "bar": 67,
      "beat": 2.0,
      "duration_beats": 1.5,
      "velocity": 0.65,
      "role": "chord",
      "is_tied": false
    },
    {
      "midi": 43,
      "name": "G2",
      "start": 238.7604,
      "duration": 0.8955,
      "bar": 67,
      "beat": 2.0,
      "duration_beats": 1.0,
      "velocity": 1.0,
      "role": "bass",
      "is_tied": false
    },
    {
      "midi": 74,
      "name": "D5",
      "start": 239.2082,
      "duration": 1.3433,
      "bar": 67,
      "beat": 2.5,
      "duration_beats": 1.5,
      "velocity": 0.47,
      "role": "melody",
      "is_tied": false
    },
    {
      "midi": 69,
      "name": "A4",
      "start": 239.2082,
      "duration": 0.2239,
      "bar": 67,
      "beat": 2.5,
      "duration_beats": 0.25,
      "velocity": 1.0,
      "role": "melody",
      "is_tied": false
    },
    {
      "midi": 83,
      "name": "B5",
      "start": 239.656,
      "duration": 0.8955,
      "bar": 67,
      "beat": 3.0,
      "duration_beats": 1.0,
      "velocity": 0.42,
      "role": "melody",
      "is_tied": false
    },
    {
      "midi": 42,
      "name": "F#2",
      "start": 239.656,
      "duration": 0.4478,
      "bar": 67,
      "beat": 3.0,
      "duration_beats": 0.5,
      "velocity": 1.0,
      "role": "bass",
      "is_tied": false
    },
    {
      "midi": 74,
      "name": "D5",
      "start": 240.1037,
      "duration": 0.2239,
      "bar": 67,
      "beat": 3.5,
      "duration_beats": 0.25,
      "velocity": 0.49,
      "role": "melody",
      "is_tied": false
    },
    {
      "midi": 70,
      "name": "A#4",
      "start": 240.1037,
      "duration": 0.2239,
      "bar": 67,
      "beat": 3.5,
      "duration_beats": 0.25,
      "velocity": 1.0,
      "role": "chord",
      "is_tied": false
    },
    {
      "midi": 55,
      "name": "G3",
      "start": 240.1037,
      "duration": 1.3433,
      "bar": 67,
      "beat": 3.5,
      "duration_beats": 1.5,
      "velocity": 0.61,
      "role": "chord",
      "is_tied": false
    },
    {
      "midi": 54,
      "name": "F#3",
      "start": 240.1037,
      "duration": 1.3433,
      "bar": 67,
      "beat": 3.5,
      "duration_beats": 1.5,
      "velocity": 1.0,
      "role": "bass",
      "is_tied": false
    },
    {
      "midi": 52,
      "name": "E3",
      "start": 240.1037,
      "duration": 0.2239,
      "bar": 67,
      "beat": 3.5,
      "duration_beats": 0.25,
      "velocity": 0.31,
      "role": "chord",
      "is_tied": false
    },
    {
      "midi": 50,
      "name": "D3",
      "start": 240.1037,
      "duration": 1.791,
      "bar": 67,
      "beat": 3.5,
      "duration_beats": 2.0,
      "velocity": 0.53,
      "role": "chord",
      "is_tied": false
    },
    {
      "midi": 52,
      "name": "E3",
      "start": 240.5515,
      "duration": 0.8955,
      "bar": 67,
      "beat": 4.0,
      "duration_beats": 1.0,
      "velocity": 0.52,
      "role": "chord",
      "is_tied": false
    },
    {
      "midi": 43,
      "name": "G2",
      "start": 240.5515,
      "duration": 1.791,
      "bar": 67,
      "beat": 4.0,
      "duration_beats": 2.0,
      "velocity": 1.0,
      "role": "bass",
      "is_tied": false
    },
    {
      "midi": 62,
      "name": "D4",
      "start": 240.9992,
      "duration": 2.6866,
      "bar": 67,
      "beat": 4.5,
      "duration_beats": 3.0,
      "velocity": 0.36,
      "role": "chord",
      "is_tied": false
    },
    {
      "midi": 74,
      "name": "D5",
      "start": 241.447,
      "duration": 1.791,
      "bar": 68,
      "beat": 1.0,
      "duration_beats": 2.0,
      "velocity": 0.87,
      "role": "melody",
      "is_tied": false
    },
    {
      "midi": 50,
      "name": "D3",
      "start": 241.447,
      "duration": 0.6716,
      "bar": 68,
      "beat": 1.0,
      "duration_beats": 0.75,
      "velocity": 0.39,
      "role": "chord",
      "is_tied": false
    },
    {
      "midi": 43,
      "name": "G2",
      "start": 241.447,
      "duration": 0.8955,
      "bar": 68,
      "beat": 1.0,
      "duration_beats": 1.0,
      "velocity": 1.0,
      "role": "bass",
      "is_tied": false
    },
    {
      "midi": 81,
      "name": "A5",
      "start": 241.8948,
      "duration": 0.4478,
      "bar": 68,
      "beat": 1.5,
      "duration_beats": 0.5,
      "velocity": 0.92,
      "role": "melody",
      "is_tied": false
    },
    {
      "midi": 74,
      "name": "D5",
      "start": 241.8948,
      "duration": 1.791,
      "bar": 68,
      "beat": 1.5,
      "duration_beats": 2.0,
      "velocity": 1.0,
      "role": "melody",
      "is_tied": false
    },
    {
      "midi": 50,
      "name": "D3",
      "start": 241.8948,
      "duration": 0.2239,
      "bar": 68,
      "beat": 1.5,
      "duration_beats": 0.25,
      "velocity": 0.46,
      "role": "chord",
      "is_tied": false
    },
    {
      "midi": 43,
      "name": "G2",
      "start": 241.8948,
      "duration": 0.4478,
      "bar": 68,
      "beat": 1.5,
      "duration_beats": 0.5,
      "velocity": 1.0,
      "role": "bass",
      "is_tied": false
    },
    {
      "midi": 74,
      "name": "D5",
      "start": 242.7903,
      "duration": 0.8955,
      "bar": 68,
      "beat": 2.5,
      "duration_beats": 1.0,
      "velocity": 1.0,
      "role": "melody",
      "is_tied": false
    },
    {
      "midi": 74,
      "name": "D5",
      "start": 242.7903,
      "duration": 0.4478,
      "bar": 68,
      "beat": 2.5,
      "duration_beats": 0.5,
      "velocity": 0.36,
      "role": "melody",
      "is_tied": false
    },
    {
      "midi": 70,
      "name": "A#4",
      "start": 242.7903,
      "duration": 0.8955,
      "bar": 68,
      "beat": 2.5,
      "duration_beats": 1.0,
      "velocity": 0.34,
      "role": "chord",
      "is_tied": false
    },
    {
      "midi": 69,
      "name": "A4",
      "start": 242.7903,
      "duration": 0.4478,
      "bar": 68,
      "beat": 2.5,
      "duration_beats": 0.5,
      "velocity": 0.44,
      "role": "melody",
      "is_tied": false
    },
    {
      "midi": 55,
      "name": "G3",
      "start": 242.7903,
      "duration": 0.4478,
      "bar": 68,
      "beat": 2.5,
      "duration_beats": 0.5,
      "velocity": 0.84,
      "role": "chord",
      "is_tied": false
    },
    {
      "midi": 50,
      "name": "D3",
      "start": 242.7903,
      "duration": 0.8955,
      "bar": 68,
      "beat": 2.5,
      "duration_beats": 1.0,
      "velocity": 0.68,
      "role": "chord",
      "is_tied": false
    },
    {
      "midi": 50,
      "name": "D3",
      "start": 242.7903,
      "duration": 0.4478,
      "bar": 68,
      "beat": 2.5,
      "duration_beats": 0.5,
      "velocity": 0.56,
      "role": "chord",
      "is_tied": false
    },
    {
      "midi": 46,
      "name": "A#2",
      "start": 242.7903,
      "duration": 0.8955,
      "bar": 68,
      "beat": 2.5,
      "duration_beats": 1.0,
      "velocity": 1.0,
      "role": "bass",
      "is_tied": false
    },
    {
      "midi": 46,
      "name": "A#2",
      "start": 242.7903,
      "duration": 0.4478,
      "bar": 68,
      "beat": 2.5,
      "duration_beats": 0.5,
      "velocity": 1.0,
      "role": "bass",
      "is_tied": false
    },
    {
      "midi": 74,
      "name": "D5",
      "start": 243.6858,
      "duration": 1.3433,
      "bar": 68,
      "beat": 3.5,
      "duration_beats": 1.5,
      "velocity": 0.34,
      "role": "melody",
      "is_tied": false
    },
    {
      "midi": 58,
      "name": "A#3",
      "start": 243.6858,
      "duration": 3.5821,
      "bar": 68,
      "beat": 3.5,
      "duration_beats": 4.0,
      "velocity": 0.72,
      "role": "chord",
      "is_tied": false
    },
    {
      "midi": 50,
      "name": "D3",
      "start": 243.6858,
      "duration": 1.3433,
      "bar": 68,
      "beat": 3.5,
      "duration_beats": 1.5,
      "velocity": 0.83,
      "role": "chord",
      "is_tied": false
    },
    {
      "midi": 33,
      "name": "A1",
      "start": 243.6858,
      "duration": 0.2239,
      "bar": 68,
      "beat": 3.5,
      "duration_beats": 0.25,
      "velocity": 0.68,
      "role": "bass",
      "is_tied": false
    },
    {
      "midi": 74,
      "name": "D5",
      "start": 244.1336,
      "duration": 0.6716,
      "bar": 68,
      "beat": 4.0,
      "duration_beats": 0.75,
      "velocity": 0.55,
      "role": "melody",
      "is_tied": false
    },
    {
      "midi": 62,
      "name": "D4",
      "start": 244.1336,
      "duration": 0.6716,
      "bar": 68,
      "beat": 4.0,
      "duration_beats": 0.75,
      "velocity": 0.97,
      "role": "chord",
      "is_tied": false
    },
    {
      "midi": 58,
      "name": "A#3",
      "start": 244.1336,
      "duration": 3.5821,
      "bar": 68,
      "beat": 4.0,
      "duration_beats": 4.0,
      "velocity": 0.6,
      "role": "chord",
      "is_tied": false
    },
    {
      "midi": 57,
      "name": "A3",
      "start": 244.1336,
      "duration": 3.5821,
      "bar": 68,
      "beat": 4.0,
      "duration_beats": 4.0,
      "velocity": 0.71,
      "role": "chord",
      "is_tied": false
    },
    {
      "midi": 65,
      "name": "F4",
      "start": 244.5813,
      "duration": 0.6716,
      "bar": 68,
      "beat": 4.5,
      "duration_beats": 0.75,
      "velocity": 0.51,
      "role": "chord",
      "is_tied": false
    },
    {
      "midi": 74,
      "name": "D5",
      "start": 245.4769,
      "duration": 1.3433,
      "bar": 69,
      "beat": 1.5,
      "duration_beats": 1.5,
      "velocity": 0.51,
      "role": "melody",
      "is_tied": false
    },
    {
      "midi": 64,
      "name": "E4",
      "start": 245.4769,
      "duration": 1.3433,
      "bar": 69,
      "beat": 1.5,
      "duration_beats": 1.5,
      "velocity": 1.0,
      "role": "melody",
      "is_tied": false
    },
    {
      "midi": 62,
      "name": "D4",
      "start": 245.4769,
      "duration": 2.6866,
      "bar": 69,
      "beat": 1.5,
      "duration_beats": 3.0,
      "velocity": 0.88,
      "role": "chord",
      "is_tied": false
    },
    {
      "midi": 58,
      "name": "A#3",
      "start": 245.4769,
      "duration": 2.6866,
      "bar": 69,
      "beat": 1.5,
      "duration_beats": 3.0,
      "velocity": 0.57,
      "role": "chord",
      "is_tied": false
    },
    {
      "midi": 57,
      "name": "A3",
      "start": 245.4769,
      "duration": 3.5821,
      "bar": 69,
      "beat": 1.5,
      "duration_beats": 4.0,
      "velocity": 0.92,
      "role": "chord",
      "is_tied": false
    },
    {
      "midi": 69,
      "name": "A4",
      "start": 246.8201,
      "duration": 1.791,
      "bar": 69,
      "beat": 3.0,
      "duration_beats": 2.0,
      "velocity": 0.39,
      "role": "melody",
      "is_tied": false
    },
    {
      "midi": 67,
      "name": "G4",
      "start": 246.8201,
      "duration": 0.8955,
      "bar": 69,
      "beat": 3.0,
      "duration_beats": 1.0,
      "velocity": 1.0,
      "role": "melody",
      "is_tied": false
    },
    {
      "midi": 53,
      "name": "F3",
      "start": 246.8201,
      "duration": 0.8955,
      "bar": 69,
      "beat": 3.0,
      "duration_beats": 1.0,
      "velocity": 0.62,
      "role": "chord",
      "is_tied": false
    },
    {
      "midi": 46,
      "name": "A#2",
      "start": 246.8201,
      "duration": 0.8955,
      "bar": 69,
      "beat": 3.0,
      "duration_beats": 1.0,
      "velocity": 1.0,
      "role": "bass",
      "is_tied": false
    },
    {
      "midi": 70,
      "name": "A#4",
      "start": 247.7157,
      "duration": 0.8955,
      "bar": 69,
      "beat": 4.0,
      "duration_beats": 1.0,
      "velocity": 1.0,
      "role": "melody",
      "is_tied": false
    },
    {
      "midi": 61,
      "name": "C#4",
      "start": 247.7157,
      "duration": 0.8955,
      "bar": 69,
      "beat": 4.0,
      "duration_beats": 1.0,
      "velocity": 0.67,
      "role": "chord",
      "is_tied": false
    },
    {
      "midi": 57,
      "name": "A3",
      "start": 247.7157,
      "duration": 0.8955,
      "bar": 69,
      "beat": 4.0,
      "duration_beats": 1.0,
      "velocity": 0.64,
      "role": "chord",
      "is_tied": false
    },
    {
      "midi": 54,
      "name": "F#3",
      "start": 247.7157,
      "duration": 1.791,
      "bar": 69,
      "beat": 4.0,
      "duration_beats": 2.0,
      "velocity": 0.89,
      "role": "chord",
      "is_tied": false
    },
    {
      "midi": 73,
      "name": "C#5",
      "start": 248.6112,
      "duration": 0.4478,
      "bar": 70,
      "beat": 1.0,
      "duration_beats": 0.5,
      "velocity": 0.57,
      "role": "melody",
      "is_tied": false
    },
    {
      "midi": 62,
      "name": "D4",
      "start": 248.6112,
      "duration": 0.2239,
      "bar": 70,
      "beat": 1.0,
      "duration_beats": 0.25,
      "velocity": 0.55,
      "role": "chord",
      "is_tied": true
    },
    {
      "midi": 66,
      "name": "F#4",
      "start": 249.0589,
      "duration": 0.2239,
      "bar": 70,
      "beat": 1.5,
      "duration_beats": 0.25,
      "velocity": 1.0,
      "role": "melody",
      "is_tied": false
    },
    {
      "midi": 50,
      "name": "D3",
      "start": 249.0589,
      "duration": 1.791,
      "bar": 70,
      "beat": 1.5,
      "duration_beats": 2.0,
      "velocity": 0.56,
      "role": "chord",
      "is_tied": false
    },
    {
      "midi": 35,
      "name": "B1",
      "start": 249.0589,
      "duration": 0.4478,
      "bar": 70,
      "beat": 1.5,
      "duration_beats": 0.5,
      "velocity": 0.34,
      "role": "bass",
      "is_tied": false
    },
    {
      "midi": 74,
      "name": "D5",
      "start": 249.5067,
      "duration": 3.5821,
      "bar": 70,
      "beat": 2.0,
      "duration_beats": 4.0,
      "velocity": 0.96,
      "role": "melody",
      "is_tied": false
    },
    {
      "midi": 74,
      "name": "D5",
      "start": 249.5067,
      "duration": 3.5821,
      "bar": 70,
      "beat": 2.0,
      "duration_beats": 4.0,
      "velocity": 1.0,
      "role": "melody",
      "is_tied": false
    },
    {
      "midi": 69,
      "name": "A4",
      "start": 249.5067,
      "duration": 1.3433,
      "bar": 70,
      "beat": 2.0,
      "duration_beats": 1.5,
      "velocity": 1.0,
      "role": "melody",
      "is_tied": false
    },
    {
      "midi": 69,
      "name": "A4",
      "start": 249.5067,
      "duration": 0.8955,
      "bar": 70,
      "beat": 2.0,
      "duration_beats": 1.0,
      "velocity": 0.89,
      "role": "melody",
      "is_tied": false
    },
    {
      "midi": 55,
      "name": "G3",
      "start": 249.5067,
      "duration": 1.3433,
      "bar": 70,
      "beat": 2.0,
      "duration_beats": 1.5,
      "velocity": 0.72,
      "role": "chord",
      "is_tied": false
    },
    {
      "midi": 50,
      "name": "D3",
      "start": 249.5067,
      "duration": 1.3433,
      "bar": 70,
      "beat": 2.0,
      "duration_beats": 1.5,
      "velocity": 0.48,
      "role": "chord",
      "is_tied": false
    },
    {
      "midi": 45,
      "name": "A2",
      "start": 249.5067,
      "duration": 0.4478,
      "bar": 70,
      "beat": 2.0,
      "duration_beats": 0.5,
      "velocity": 0.31,
      "role": "bass",
      "is_tied": false
    },
    {
      "midi": 71,
      "name": "B4",
      "start": 249.9545,
      "duration": 0.6716,
      "bar": 70,
      "beat": 2.5,
      "duration_beats": 0.75,
      "velocity": 0.57,
      "role": "chord",
      "is_tied": false
    },
    {
      "midi": 83,
      "name": "B5",
      "start": 250.4022,
      "duration": 0.4478,
      "bar": 70,
      "beat": 3.0,
      "duration_beats": 0.5,
      "velocity": 0.66,
      "role": "melody",
      "is_tied": false
    },
    {
      "midi": 70,
      "name": "A#4",
      "start": 250.85,
      "duration": 1.3433,
      "bar": 70,
      "beat": 3.5,
      "duration_beats": 1.5,
      "velocity": 0.31,
      "role": "chord",
      "is_tied": false
    },
    {
      "midi": 69,
      "name": "A4",
      "start": 250.85,
      "duration": 3.5821,
      "bar": 70,
      "beat": 3.5,
      "duration_beats": 4.0,
      "velocity": 1.0,
      "role": "melody",
      "is_tied": false
    },
    {
      "midi": 62,
      "name": "D4",
      "start": 250.85,
      "duration": 0.4478,
      "bar": 70,
      "beat": 3.5,
      "duration_beats": 0.5,
      "velocity": 0.82,
      "role": "chord",
      "is_tied": false
    },
    {
      "midi": 46,
      "name": "A#2",
      "start": 250.85,
      "duration": 1.791,
      "bar": 70,
      "beat": 3.5,
      "duration_beats": 2.0,
      "velocity": 1.0,
      "role": "bass",
      "is_tied": false
    },
    {
      "midi": 41,
      "name": "F2",
      "start": 250.85,
      "duration": 0.2239,
      "bar": 70,
      "beat": 3.5,
      "duration_beats": 0.25,
      "velocity": 0.93,
      "role": "bass",
      "is_tied": false
    },
    {
      "midi": 74,
      "name": "D5",
      "start": 251.2977,
      "duration": 2.6866,
      "bar": 70,
      "beat": 4.0,
      "duration_beats": 3.0,
      "velocity": 0.47,
      "role": "melody",
      "is_tied": false
    },
    {
      "midi": 53,
      "name": "F3",
      "start": 251.2977,
      "duration": 3.5821,
      "bar": 70,
      "beat": 4.0,
      "duration_beats": 4.0,
      "velocity": 0.58,
      "role": "chord",
      "is_tied": false
    },
    {
      "midi": 50,
      "name": "D3",
      "start": 251.2977,
      "duration": 3.5821,
      "bar": 70,
      "beat": 4.0,
      "duration_beats": 4.0,
      "velocity": 0.5,
      "role": "chord",
      "is_tied": false
    },
    {
      "midi": 74,
      "name": "D5",
      "start": 252.641,
      "duration": 1.791,
      "bar": 71,
      "beat": 1.5,
      "duration_beats": 2.0,
      "velocity": 0.65,
      "role": "melody",
      "is_tied": false
    },
    {
      "midi": 62,
      "name": "D4",
      "start": 252.641,
      "duration": 2.6866,
      "bar": 71,
      "beat": 1.5,
      "duration_beats": 3.0,
      "velocity": 1.0,
      "role": "chord",
      "is_tied": false
    },
    {
      "midi": 50,
      "name": "D3",
      "start": 252.641,
      "duration": 1.791,
      "bar": 71,
      "beat": 1.5,
      "duration_beats": 2.0,
      "velocity": 0.69,
      "role": "chord",
      "is_tied": false
    },
    {
      "midi": 41,
      "name": "F2",
      "start": 252.641,
      "duration": 1.791,
      "bar": 71,
      "beat": 1.5,
      "duration_beats": 2.0,
      "velocity": 1.0,
      "role": "bass",
      "is_tied": false
    },
    {
      "midi": 41,
      "name": "F2",
      "start": 252.641,
      "duration": 1.791,
      "bar": 71,
      "beat": 1.5,
      "duration_beats": 2.0,
      "velocity": 0.96,
      "role": "bass",
      "is_tied": false
    },
    {
      "midi": 57,
      "name": "A3",
      "start": 253.0888,
      "duration": 3.5821,
      "bar": 71,
      "beat": 2.0,
      "duration_beats": 4.0,
      "velocity": 1.0,
      "role": "chord",
      "is_tied": true
    },
    {
      "midi": 50,
      "name": "D3",
      "start": 253.0888,
      "duration": 1.3433,
      "bar": 71,
      "beat": 2.0,
      "duration_beats": 1.5,
      "velocity": 0.74,
      "role": "chord",
      "is_tied": false
    },
    {
      "midi": 87,
      "name": "D#6",
      "start": 254.4321,
      "duration": 0.2239,
      "bar": 71,
      "beat": 3.5,
      "duration_beats": 0.25,
      "velocity": 0.72,
      "role": "melody",
      "is_tied": false
    },
    {
      "midi": 78,
      "name": "F#5",
      "start": 254.4321,
      "duration": 0.2239,
      "bar": 71,
      "beat": 3.5,
      "duration_beats": 0.25,
      "velocity": 1.0,
      "role": "melody",
      "is_tied": false
    },
    {
      "midi": 41,
      "name": "F2",
      "start": 254.4321,
      "duration": 0.8955,
      "bar": 71,
      "beat": 3.5,
      "duration_beats": 1.0,
      "velocity": 1.0,
      "role": "bass",
      "is_tied": false
    },
    {
      "midi": 36,
      "name": "C2",
      "start": 254.4321,
      "duration": 0.2239,
      "bar": 71,
      "beat": 3.5,
      "duration_beats": 0.25,
      "velocity": 1.0,
      "role": "bass",
      "is_tied": false
    },
    {
      "midi": 74,
      "name": "D5",
      "start": 254.8798,
      "duration": 0.6716,
      "bar": 71,
      "beat": 4.0,
      "duration_beats": 0.75,
      "velocity": 0.94,
      "role": "melody",
      "is_tied": false
    },
    {
      "midi": 74,
      "name": "D5",
      "start": 254.8798,
      "duration": 0.4478,
      "bar": 71,
      "beat": 4.0,
      "duration_beats": 0.5,
      "velocity": 1.0,
      "role": "melody",
      "is_tied": false
    },
    {
      "midi": 59,
      "name": "B3",
      "start": 254.8798,
      "duration": 3.5821,
      "bar": 71,
      "beat": 4.0,
      "duration_beats": 4.0,
      "velocity": 0.34,
      "role": "chord",
      "is_tied": false
    },
    {
      "midi": 57,
      "name": "A3",
      "start": 254.8798,
      "duration": 3.5821,
      "bar": 71,
      "beat": 4.0,
      "duration_beats": 4.0,
      "velocity": 0.55,
      "role": "chord",
      "is_tied": false
    },
    {
      "midi": 53,
      "name": "F3",
      "start": 254.8798,
      "duration": 1.791,
      "bar": 71,
      "beat": 4.0,
      "duration_beats": 2.0,
      "velocity": 0.63,
      "role": "chord",
      "is_tied": false
    },
    {
      "midi": 52,
      "name": "E3",
      "start": 254.8798,
      "duration": 1.791,
      "bar": 71,
      "beat": 4.0,
      "duration_beats": 2.0,
      "velocity": 0.47,
      "role": "chord",
      "is_tied": false
    },
    {
      "midi": 50,
      "name": "D3",
      "start": 254.8798,
      "duration": 3.5821,
      "bar": 71,
      "beat": 4.0,
      "duration_beats": 4.0,
      "velocity": 0.57,
      "role": "chord",
      "is_tied": false
    },
    {
      "midi": 50,
      "name": "D3",
      "start": 254.8798,
      "duration": 3.5821,
      "bar": 71,
      "beat": 4.0,
      "duration_beats": 4.0,
      "velocity": 0.57,
      "role": "chord",
      "is_tied": false
    },
    {
      "midi": 59,
      "name": "B3",
      "start": 255.3276,
      "duration": 3.5821,
      "bar": 71,
      "beat": 4.5,
      "duration_beats": 4.0,
      "velocity": 0.77,
      "role": "chord",
      "is_tied": false
    },
    {
      "midi": 50,
      "name": "D3",
      "start": 255.3276,
      "duration": 3.5821,
      "bar": 71,
      "beat": 4.5,
      "duration_beats": 4.0,
      "velocity": 0.48,
      "role": "chord",
      "is_tied": false
    },
    {
      "midi": 62,
      "name": "D4",
      "start": 256.6709,
      "duration": 3.5821,
      "bar": 72,
      "beat": 2.0,
      "duration_beats": 4.0,
      "velocity": 0.65,
      "role": "chord",
      "is_tied": false
    },
    {
      "midi": 59,
      "name": "B3",
      "start": 256.6709,
      "duration": 3.5821,
      "bar": 72,
      "beat": 2.0,
      "duration_beats": 4.0,
      "velocity": 0.96,
      "role": "chord",
      "is_tied": false
    },
    {
      "midi": 57,
      "name": "A3",
      "start": 256.6709,
      "duration": 3.5821,
      "bar": 72,
      "beat": 2.0,
      "duration_beats": 4.0,
      "velocity": 0.59,
      "role": "chord",
      "is_tied": false
    },
    {
      "midi": 50,
      "name": "D3",
      "start": 256.6709,
      "duration": 3.5821,
      "bar": 72,
      "beat": 2.0,
      "duration_beats": 4.0,
      "velocity": 0.71,
      "role": "chord",
      "is_tied": false
    },
    {
      "midi": 71,
      "name": "B4",
      "start": 257.5664,
      "duration": 3.5821,
      "bar": 72,
      "beat": 3.0,
      "duration_beats": 4.0,
      "velocity": 0.76,
      "role": "chord",
      "is_tied": false
    },
    {
      "midi": 62,
      "name": "D4",
      "start": 257.5664,
      "duration": 3.5821,
      "bar": 72,
      "beat": 3.0,
      "duration_beats": 4.0,
      "velocity": 0.79,
      "role": "chord",
      "is_tied": false
    },
    {
      "midi": 57,
      "name": "A3",
      "start": 257.5664,
      "duration": 3.5821,
      "bar": 72,
      "beat": 3.0,
      "duration_beats": 4.0,
      "velocity": 0.8,
      "role": "chord",
      "is_tied": false
    },
    {
      "midi": 53,
      "name": "F3",
      "start": 257.5664,
      "duration": 3.5821,
      "bar": 72,
      "beat": 3.0,
      "duration_beats": 4.0,
      "velocity": 0.88,
      "role": "chord",
      "is_tied": false
    }
  ]
}